M48
; DRILL file {KiCad 6.0.4-6f826c9f35~116~ubuntu20.04.1} date Tue Aug 16 16:27:46 2022
; FORMAT={-:-/ absolute / metric / decimal}
; #@! TF.CreationDate,2022-08-16T16:27:46+00:00
; #@! TF.GenerationSoftware,Kicad,Pcbnew,6.0.4-6f826c9f35~116~ubuntu20.04.1
; #@! TF.FileFunction,Plated,1,2,PTH
FMAT,2
METRIC
; #@! TA.AperFunction,Plated,PTH,ViaDrill
T1C0.400
; #@! TA.AperFunction,Plated,PTH,ComponentDrill
T2C0.800
; #@! TA.AperFunction,Plated,PTH,ComponentDrill
T3C0.889
; #@! TA.AperFunction,Plated,PTH,ComponentDrill
T4C1.200
; #@! TA.AperFunction,Plated,PTH,ComponentDrill
T5C1.400
; #@! TA.AperFunction,Plated,PTH,ComponentDrill
T6C1.900
; #@! TA.AperFunction,Plated,PTH,ComponentDrill
T7C3.000
%
G90
G05
T1
X-4.064Y4.064
X-4.064Y-2.286
X-4.064Y-7.366
X-4.064Y-13.208
X-4.064Y-18.288
X-4.064Y-24.384
X-1.016Y-15.494
X0.254Y-14.224
X2.032Y4.064
X2.54Y-24.384
X4.064Y-9.144
X5.842Y-9.144
X7.366Y-24.384
X7.874Y-0.0
X7.874Y-4.064
X7.874Y-8.636
X9.906Y-21.59
X9.906Y-18.034
X10.144Y-7.366
X10.155Y-4.317
X10.16Y4.064
X10.16Y0.0
X12.446Y-24.384
X12.954Y4.064
X13.97Y-18.034
X13.97Y-21.59
X17.526Y-24.384
X17.78Y-19.05
X18.034Y-16.256
X18.034Y-10.668
X20.828Y4.064
X20.828Y-16.256
X20.828Y-19.05
X20.828Y-24.384
X27.178Y-9.206
X27.686Y4.064
X28.194Y-9.906
X29.464Y-24.446
X34.29Y4.064
X34.48Y-10.468
X34.48Y-13.335
X34.798Y-24.446
X41.91Y-24.446
X41.91Y4.064
X50.038Y4.126
X50.038Y-24.384
X57.404Y4.064
X57.404Y-24.446
X65.024Y4.064
X65.024Y-2.54
X65.024Y-7.62
X65.024Y-13.208
X65.024Y-24.446
X65.086Y-18.288
T2
X22.86Y-23.622
X25.4Y-23.622
X27.94Y-23.622
T3
X5.842Y1.524
X5.842Y-1.016
X11.684Y1.524
X11.684Y-1.016
X14.224Y1.524
X14.224Y-1.016
X16.764Y1.524
X16.764Y-1.016
X19.304Y1.524
X19.304Y-1.016
X21.844Y1.524
X21.844Y-1.016
X59.69Y-7.874
X59.69Y-10.414
X62.23Y-7.874
X62.23Y-10.414
T4
X5.93Y-21.002
X16.93Y-21.002
T5
X26.24Y-6.422
X55.24Y-18.422
T6
X8.93Y-11.002
X13.93Y-11.002
T7
X0.0Y0.0
X0.0Y-20.32
X60.96Y0.0
X60.96Y-20.32
T0
M30
