  0
SECTION
  2
HEADER
  9
$ANGBASE
  50
0.0
  9
$ANGDIR
  70
1
  9
$MEASUREMENT
  70
0
  0
ENDSEC
  0
SECTION
  2
TABLES
  0
TABLE
  2
LTYPE
  70
4
  0
LTYPE
  5
40F
  2
CONTINUOUS
  70
0
  3
Solid line
  72
65
  73
0
  40
0.0
  0
LTYPE
  5
410
  2
DASHDOT
 70
0
  3
Dash Dot ____ _ ____ _
 72
65
 73
4
 40
2.0
 49
1.25
 49
-0.25
 49
0.25
 49
-0.25
  0
LTYPE
  5
411
  2
DASHED
 70
0
  3
Dashed __ __ __ __ __
 72
65
 73
2
 40
0.75
 49
0.5
 49
-0.25
  0
LTYPE
  5
43B
  2
DOTTED
 70
0
  3
Dotted .  .  .  .
 72
65
 73
2
 40
0.2
 49
0.0
 49
-0.2
  0
ENDTAB
  0
TABLE
  2
STYLE
  70
4
  0
STYLE
  2
KICAD
  70
0
  40
0
  41
1
  42
1
  50
0
  71
0
  3
isocp.shx
  0
STYLE
  2
KICADB
  70
0
  40
0
  41
1
  42
1
  50
0
  71
0
  3
isocp.shx
  0
STYLE
  2
KICADI
  70
0
  40
0
  41
1
  42
1
  50
15
  71
0
  3
isocp.shx
  0
STYLE
  2
KICADBI
  70
0
  40
0
  41
1
  42
1
  50
15
  71
0
  3
isocp.shx
  0
ENDTAB
  0
TABLE
  2
LAYER
  70
1
  0
LAYER
  2
BLACK
  70
0
  62
7
  6
CONTINUOUS
  0
ENDTAB
  0
ENDSEC
  0
SECTION
  2
ENTITIES
0
LINE
8
BLACK
6
CONTINUOUS
10
1.10762
20
-0.8929
11
1.11468
21
-0.895085
0
LINE
8
BLACK
6
CONTINUOUS
10
1.11468
20
-0.895085
11
1.12118
21
-0.898601
0
LINE
8
BLACK
6
CONTINUOUS
10
1.12118
20
-0.898601
11
1.12687
21
-0.903313
0
LINE
8
BLACK
6
CONTINUOUS
10
1.12687
20
-0.903313
11
1.13155
21
-0.909041
0
LINE
8
BLACK
6
CONTINUOUS
10
1.13155
20
-0.909041
11
1.13502
21
-0.915567
0
LINE
8
BLACK
6
CONTINUOUS
10
1.13502
20
-0.915567
11
1.13715
21
-0.922644
0
LINE
8
BLACK
6
CONTINUOUS
10
1.13715
20
-0.922644
11
1.13787
21
-0.93
0
LINE
8
BLACK
6
CONTINUOUS
10
1.13787
20
-0.93
11
1.13786
21
-0.931058
0
LINE
8
BLACK
6
CONTINUOUS
10
1.13786
20
-0.931058
11
1.13693
21
-0.938391
0
LINE
8
BLACK
6
CONTINUOUS
10
1.13693
20
-0.938391
11
1.1346
21
-0.945405
0
LINE
8
BLACK
6
CONTINUOUS
10
1.1346
20
-0.945405
11
1.13095
21
-0.951832
0
LINE
8
BLACK
6
CONTINUOUS
10
1.13095
20
-0.951832
11
1.12612
21
-0.957427
0
LINE
8
BLACK
6
CONTINUOUS
10
1.12612
20
-0.957427
11
1.12029
21
-0.961978
0
LINE
8
BLACK
6
CONTINUOUS
10
1.12029
20
-0.961978
11
1.1137
21
-0.965311
0
LINE
8
BLACK
6
CONTINUOUS
10
1.1137
20
-0.965311
11
1.10658
21
-0.967299
0
LINE
8
BLACK
6
CONTINUOUS
10
1.10658
20
-0.967299
11
1.09921
21
-0.967866
0
LINE
8
BLACK
6
CONTINUOUS
10
1.09921
20
-0.967866
11
1.09187
21
-0.966991
0
LINE
8
BLACK
6
CONTINUOUS
10
1.09187
20
-0.966991
11
1.08484
21
-0.964706
0
LINE
8
BLACK
6
CONTINUOUS
10
1.08484
20
-0.964706
11
1.07838
21
-0.9611
0
LINE
8
BLACK
6
CONTINUOUS
10
1.07838
20
-0.9611
11
1.07276
21
-0.956309
0
LINE
8
BLACK
6
CONTINUOUS
10
1.07276
20
-0.956309
11
1.06816
21
-0.950517
0
LINE
8
BLACK
6
CONTINUOUS
10
1.06816
20
-0.950517
11
1.06479
21
-0.943942
0
LINE
8
BLACK
6
CONTINUOUS
10
1.06479
20
-0.943942
11
1.06275
21
-0.936837
0
LINE
8
BLACK
6
CONTINUOUS
10
1.06275
20
-0.936837
11
1.06213
21
-0.929471
0
LINE
8
BLACK
6
CONTINUOUS
10
1.06213
20
-0.929471
11
1.06295
21
-0.922126
0
LINE
8
BLACK
6
CONTINUOUS
10
1.06295
20
-0.922126
11
1.06519
21
-0.91508
0
LINE
8
BLACK
6
CONTINUOUS
10
1.06519
20
-0.91508
11
1.06875
21
-0.908602
0
LINE
8
BLACK
6
CONTINUOUS
10
1.06875
20
-0.908602
11
1.0735
21
-0.90294
0
LINE
8
BLACK
6
CONTINUOUS
10
1.0735
20
-0.90294
11
1.07926
21
-0.898308
0
LINE
8
BLACK
6
CONTINUOUS
10
1.07926
20
-0.898308
11
1.08581
21
-0.894884
0
LINE
8
BLACK
6
CONTINUOUS
10
1.08581
20
-0.894884
11
1.0929
21
-0.892797
0
LINE
8
BLACK
6
CONTINUOUS
10
1.0929
20
-0.892797
11
1.10026
21
-0.892127
0
LINE
8
BLACK
6
CONTINUOUS
10
1.10026
20
-0.892127
11
1.10762
21
-0.8929
0
LINE
8
BLACK
6
CONTINUOUS
10
0.907616
20
-0.8929
11
0.914677
21
-0.895085
0
LINE
8
BLACK
6
CONTINUOUS
10
0.914677
20
-0.895085
11
0.921179
21
-0.898601
0
LINE
8
BLACK
6
CONTINUOUS
10
0.921179
20
-0.898601
11
0.926874
21
-0.903313
0
LINE
8
BLACK
6
CONTINUOUS
10
0.926874
20
-0.903313
11
0.931546
21
-0.909041
0
LINE
8
BLACK
6
CONTINUOUS
10
0.931546
20
-0.909041
11
0.935016
21
-0.915567
0
LINE
8
BLACK
6
CONTINUOUS
10
0.935016
20
-0.915567
11
0.937153
21
-0.922644
0
LINE
8
BLACK
6
CONTINUOUS
10
0.937153
20
-0.922644
11
0.937874
21
-0.93
0
LINE
8
BLACK
6
CONTINUOUS
10
0.937874
20
-0.93
11
0.937859
21
-0.931058
0
LINE
8
BLACK
6
CONTINUOUS
10
0.937859
20
-0.931058
11
0.936933
21
-0.938391
0
LINE
8
BLACK
6
CONTINUOUS
10
0.936933
20
-0.938391
11
0.9346
21
-0.945405
0
LINE
8
BLACK
6
CONTINUOUS
10
0.9346
20
-0.945405
11
0.930949
21
-0.951832
0
LINE
8
BLACK
6
CONTINUOUS
10
0.930949
20
-0.951832
11
0.926119
21
-0.957427
0
LINE
8
BLACK
6
CONTINUOUS
10
0.926119
20
-0.957427
11
0.920294
21
-0.961978
0
LINE
8
BLACK
6
CONTINUOUS
10
0.920294
20
-0.961978
11
0.913696
21
-0.965311
0
LINE
8
BLACK
6
CONTINUOUS
10
0.913696
20
-0.965311
11
0.906577
21
-0.967299
0
LINE
8
BLACK
6
CONTINUOUS
10
0.906577
20
-0.967299
11
0.899207
21
-0.967866
0
LINE
8
BLACK
6
CONTINUOUS
10
0.899207
20
-0.967866
11
0.891867
21
-0.966991
0
LINE
8
BLACK
6
CONTINUOUS
10
0.891867
20
-0.966991
11
0.884837
21
-0.964706
0
LINE
8
BLACK
6
CONTINUOUS
10
0.884837
20
-0.964706
11
0.878385
21
-0.9611
0
LINE
8
BLACK
6
CONTINUOUS
10
0.878385
20
-0.9611
11
0.872756
21
-0.956309
0
LINE
8
BLACK
6
CONTINUOUS
10
0.872756
20
-0.956309
11
0.868164
21
-0.950517
0
LINE
8
BLACK
6
CONTINUOUS
10
0.868164
20
-0.950517
11
0.864786
21
-0.943942
0
LINE
8
BLACK
6
CONTINUOUS
10
0.864786
20
-0.943942
11
0.862748
21
-0.936837
0
LINE
8
BLACK
6
CONTINUOUS
10
0.862748
20
-0.936837
11
0.86213
21
-0.929471
0
LINE
8
BLACK
6
CONTINUOUS
10
0.86213
20
-0.929471
11
0.862954
21
-0.922126
0
LINE
8
BLACK
6
CONTINUOUS
10
0.862954
20
-0.922126
11
0.865189
21
-0.91508
0
LINE
8
BLACK
6
CONTINUOUS
10
0.865189
20
-0.91508
11
0.86875
21
-0.908602
0
LINE
8
BLACK
6
CONTINUOUS
10
0.86875
20
-0.908602
11
0.873501
21
-0.90294
0
LINE
8
BLACK
6
CONTINUOUS
10
0.873501
20
-0.90294
11
0.879262
21
-0.898308
0
LINE
8
BLACK
6
CONTINUOUS
10
0.879262
20
-0.898308
11
0.885812
21
-0.894884
0
LINE
8
BLACK
6
CONTINUOUS
10
0.885812
20
-0.894884
11
0.892903
21
-0.892797
0
LINE
8
BLACK
6
CONTINUOUS
10
0.892903
20
-0.892797
11
0.900264
21
-0.892127
0
LINE
8
BLACK
6
CONTINUOUS
10
0.900264
20
-0.892127
11
0.907616
21
-0.8929
0
LINE
8
BLACK
6
CONTINUOUS
10
1.00762
20
-0.8929
11
1.01468
21
-0.895085
0
LINE
8
BLACK
6
CONTINUOUS
10
1.01468
20
-0.895085
11
1.02118
21
-0.898601
0
LINE
8
BLACK
6
CONTINUOUS
10
1.02118
20
-0.898601
11
1.02687
21
-0.903313
0
LINE
8
BLACK
6
CONTINUOUS
10
1.02687
20
-0.903313
11
1.03155
21
-0.909041
0
LINE
8
BLACK
6
CONTINUOUS
10
1.03155
20
-0.909041
11
1.03502
21
-0.915567
0
LINE
8
BLACK
6
CONTINUOUS
10
1.03502
20
-0.915567
11
1.03715
21
-0.922644
0
LINE
8
BLACK
6
CONTINUOUS
10
1.03715
20
-0.922644
11
1.03787
21
-0.93
0
LINE
8
BLACK
6
CONTINUOUS
10
1.03787
20
-0.93
11
1.03786
21
-0.931058
0
LINE
8
BLACK
6
CONTINUOUS
10
1.03786
20
-0.931058
11
1.03693
21
-0.938391
0
LINE
8
BLACK
6
CONTINUOUS
10
1.03693
20
-0.938391
11
1.0346
21
-0.945405
0
LINE
8
BLACK
6
CONTINUOUS
10
1.0346
20
-0.945405
11
1.03095
21
-0.951832
0
LINE
8
BLACK
6
CONTINUOUS
10
1.03095
20
-0.951832
11
1.02612
21
-0.957427
0
LINE
8
BLACK
6
CONTINUOUS
10
1.02612
20
-0.957427
11
1.02029
21
-0.961978
0
LINE
8
BLACK
6
CONTINUOUS
10
1.02029
20
-0.961978
11
1.0137
21
-0.965311
0
LINE
8
BLACK
6
CONTINUOUS
10
1.0137
20
-0.965311
11
1.00658
21
-0.967299
0
LINE
8
BLACK
6
CONTINUOUS
10
1.00658
20
-0.967299
11
0.999207
21
-0.967866
0
LINE
8
BLACK
6
CONTINUOUS
10
0.999207
20
-0.967866
11
0.991867
21
-0.966991
0
LINE
8
BLACK
6
CONTINUOUS
10
0.991867
20
-0.966991
11
0.984837
21
-0.964706
0
LINE
8
BLACK
6
CONTINUOUS
10
0.984837
20
-0.964706
11
0.978385
21
-0.9611
0
LINE
8
BLACK
6
CONTINUOUS
10
0.978385
20
-0.9611
11
0.972756
21
-0.956309
0
LINE
8
BLACK
6
CONTINUOUS
10
0.972756
20
-0.956309
11
0.968164
21
-0.950517
0
LINE
8
BLACK
6
CONTINUOUS
10
0.968164
20
-0.950517
11
0.964786
21
-0.943942
0
LINE
8
BLACK
6
CONTINUOUS
10
0.964786
20
-0.943942
11
0.962748
21
-0.936837
0
LINE
8
BLACK
6
CONTINUOUS
10
0.962748
20
-0.936837
11
0.96213
21
-0.929471
0
LINE
8
BLACK
6
CONTINUOUS
10
0.96213
20
-0.929471
11
0.962954
21
-0.922126
0
LINE
8
BLACK
6
CONTINUOUS
10
0.962954
20
-0.922126
11
0.965189
21
-0.91508
0
LINE
8
BLACK
6
CONTINUOUS
10
0.965189
20
-0.91508
11
0.96875
21
-0.908602
0
LINE
8
BLACK
6
CONTINUOUS
10
0.96875
20
-0.908602
11
0.973501
21
-0.90294
0
LINE
8
BLACK
6
CONTINUOUS
10
0.973501
20
-0.90294
11
0.979262
21
-0.898308
0
LINE
8
BLACK
6
CONTINUOUS
10
0.979262
20
-0.898308
11
0.985812
21
-0.894884
0
LINE
8
BLACK
6
CONTINUOUS
10
0.985812
20
-0.894884
11
0.992903
21
-0.892797
0
LINE
8
BLACK
6
CONTINUOUS
10
0.992903
20
-0.892797
11
1.00026
21
-0.892127
0
LINE
8
BLACK
6
CONTINUOUS
10
1.00026
20
-0.892127
11
1.00762
21
-0.8929
0
LINE
8
BLACK
6
CONTINUOUS
10
2.41492
20
-0.674902
11
2.42877
21
-0.677344
0
LINE
8
BLACK
6
CONTINUOUS
10
2.42877
20
-0.677344
11
2.44226
21
-0.681316
0
LINE
8
BLACK
6
CONTINUOUS
10
2.44226
20
-0.681316
11
2.45523
21
-0.686766
0
LINE
8
BLACK
6
CONTINUOUS
10
2.45523
20
-0.686766
11
2.46751
21
-0.693628
0
LINE
8
BLACK
6
CONTINUOUS
10
2.46751
20
-0.693628
11
2.47894
21
-0.701816
0
LINE
8
BLACK
6
CONTINUOUS
10
2.47894
20
-0.701816
11
2.48939
21
-0.711227
0
LINE
8
BLACK
6
CONTINUOUS
10
2.48939
20
-0.711227
11
2.49873
21
-0.721745
0
LINE
8
BLACK
6
CONTINUOUS
10
2.49873
20
-0.721745
11
2.50684
21
-0.733239
0
LINE
8
BLACK
6
CONTINUOUS
10
2.50684
20
-0.733239
11
2.51362
21
-0.745564
0
LINE
8
BLACK
6
CONTINUOUS
10
2.51362
20
-0.745564
11
2.51898
21
-0.758568
0
LINE
8
BLACK
6
CONTINUOUS
10
2.51898
20
-0.758568
11
2.52285
21
-0.772088
0
LINE
8
BLACK
6
CONTINUOUS
10
2.52285
20
-0.772088
11
2.5252
21
-0.785957
0
LINE
8
BLACK
6
CONTINUOUS
10
2.5252
20
-0.785957
11
2.52598
21
-0.8
0
LINE
8
BLACK
6
CONTINUOUS
10
2.52598
20
-0.8
11
2.52594
21
-0.803518
0
LINE
8
BLACK
6
CONTINUOUS
10
2.52594
20
-0.803518
11
2.52476
21
-0.817534
0
LINE
8
BLACK
6
CONTINUOUS
10
2.52476
20
-0.817534
11
2.52203
21
-0.831331
0
LINE
8
BLACK
6
CONTINUOUS
10
2.52203
20
-0.831331
11
2.51777
21
-0.844738
0
LINE
8
BLACK
6
CONTINUOUS
10
2.51777
20
-0.844738
11
2.51205
21
-0.857587
0
LINE
8
BLACK
6
CONTINUOUS
10
2.51205
20
-0.857587
11
2.50493
21
-0.869719
0
LINE
8
BLACK
6
CONTINUOUS
10
2.50493
20
-0.869719
11
2.49651
21
-0.880981
0
LINE
8
BLACK
6
CONTINUOUS
10
2.49651
20
-0.880981
11
2.48688
21
-0.891234
0
LINE
8
BLACK
6
CONTINUOUS
10
2.48688
20
-0.891234
11
2.47617
21
-0.90035
0
LINE
8
BLACK
6
CONTINUOUS
10
2.47617
20
-0.90035
11
2.46451
21
-0.908215
0
LINE
8
BLACK
6
CONTINUOUS
10
2.46451
20
-0.908215
11
2.45204
21
-0.914732
0
LINE
8
BLACK
6
CONTINUOUS
10
2.45204
20
-0.914732
11
2.43893
21
-0.919818
0
LINE
8
BLACK
6
CONTINUOUS
10
2.43893
20
-0.919818
11
2.42533
21
-0.923411
0
LINE
8
BLACK
6
CONTINUOUS
10
2.42533
20
-0.923411
11
2.41142
21
-0.925466
0
LINE
8
BLACK
6
CONTINUOUS
10
2.41142
20
-0.925466
11
2.39736
21
-0.925957
0
LINE
8
BLACK
6
CONTINUOUS
10
2.39736
20
-0.925957
11
2.38334
21
-0.924878
0
LINE
8
BLACK
6
CONTINUOUS
10
2.38334
20
-0.924878
11
2.36952
21
-0.922242
0
LINE
8
BLACK
6
CONTINUOUS
10
2.36952
20
-0.922242
11
2.35609
21
-0.918083
0
LINE
8
BLACK
6
CONTINUOUS
10
2.35609
20
-0.918083
11
2.3432
21
-0.912452
0
LINE
8
BLACK
6
CONTINUOUS
10
2.3432
20
-0.912452
11
2.33102
21
-0.905419
0
LINE
8
BLACK
6
CONTINUOUS
10
2.33102
20
-0.905419
11
2.31969
21
-0.897073
0
LINE
8
BLACK
6
CONTINUOUS
10
2.31969
20
-0.897073
11
2.30937
21
-0.887516
0
LINE
8
BLACK
6
CONTINUOUS
10
2.30937
20
-0.887516
11
2.30018
21
-0.876869
0
LINE
8
BLACK
6
CONTINUOUS
10
2.30018
20
-0.876869
11
2.29224
21
-0.865263
0
LINE
8
BLACK
6
CONTINUOUS
10
2.29224
20
-0.865263
11
2.28563
21
-0.852844
0
LINE
8
BLACK
6
CONTINUOUS
10
2.28563
20
-0.852844
11
2.28046
21
-0.839767
0
LINE
8
BLACK
6
CONTINUOUS
10
2.28046
20
-0.839767
11
2.27677
21
-0.826194
0
LINE
8
BLACK
6
CONTINUOUS
10
2.27677
20
-0.826194
11
2.27462
21
-0.812294
0
LINE
8
BLACK
6
CONTINUOUS
10
2.27462
20
-0.812294
11
2.27403
21
-0.798241
0
LINE
8
BLACK
6
CONTINUOUS
10
2.27403
20
-0.798241
11
2.27501
21
-0.78421
0
LINE
8
BLACK
6
CONTINUOUS
10
2.27501
20
-0.78421
11
2.27755
21
-0.770376
0
LINE
8
BLACK
6
CONTINUOUS
10
2.27755
20
-0.770376
11
2.28161
21
-0.756911
0
LINE
8
BLACK
6
CONTINUOUS
10
2.28161
20
-0.756911
11
2.28715
21
-0.743983
0
LINE
8
BLACK
6
CONTINUOUS
10
2.28715
20
-0.743983
11
2.2941
21
-0.731753
0
LINE
8
BLACK
6
CONTINUOUS
10
2.2941
20
-0.731753
11
2.30237
21
-0.720374
0
LINE
8
BLACK
6
CONTINUOUS
10
2.30237
20
-0.720374
11
2.31185
21
-0.709988
0
LINE
8
BLACK
6
CONTINUOUS
10
2.31185
20
-0.709988
11
2.32244
21
-0.700723
0
LINE
8
BLACK
6
CONTINUOUS
10
2.32244
20
-0.700723
11
2.33399
21
-0.692696
0
LINE
8
BLACK
6
CONTINUOUS
10
2.33399
20
-0.692696
11
2.34636
21
-0.686006
0
LINE
8
BLACK
6
CONTINUOUS
10
2.34636
20
-0.686006
11
2.3594
21
-0.680737
0
LINE
8
BLACK
6
CONTINUOUS
10
2.3594
20
-0.680737
11
2.37295
21
-0.676955
0
LINE
8
BLACK
6
CONTINUOUS
10
2.37295
20
-0.676955
11
2.38683
21
-0.674706
0
LINE
8
BLACK
6
CONTINUOUS
10
2.38683
20
-0.674706
11
2.40088
21
-0.674019
0
LINE
8
BLACK
6
CONTINUOUS
10
2.40088
20
-0.674019
11
2.41492
21
-0.674902
0
LINE
8
BLACK
6
CONTINUOUS
10
0.014917
20
-0.674902
11
0.0287686
21
-0.677344
0
LINE
8
BLACK
6
CONTINUOUS
10
0.0287686
20
-0.677344
11
0.0422616
21
-0.681316
0
LINE
8
BLACK
6
CONTINUOUS
10
0.0422616
20
-0.681316
11
0.0552279
21
-0.686766
0
LINE
8
BLACK
6
CONTINUOUS
10
0.0552279
20
-0.686766
11
0.0675057
21
-0.693628
0
LINE
8
BLACK
6
CONTINUOUS
10
0.0675057
20
-0.693628
11
0.0789422
21
-0.701816
0
LINE
8
BLACK
6
CONTINUOUS
10
0.0789422
20
-0.701816
11
0.0893947
21
-0.711227
0
LINE
8
BLACK
6
CONTINUOUS
10
0.0893947
20
-0.711227
11
0.098733
21
-0.721745
0
LINE
8
BLACK
6
CONTINUOUS
10
0.098733
20
-0.721745
11
0.106841
21
-0.733239
0
LINE
8
BLACK
6
CONTINUOUS
10
0.106841
20
-0.733239
11
0.113617
21
-0.745564
0
LINE
8
BLACK
6
CONTINUOUS
10
0.113617
20
-0.745564
11
0.118977
21
-0.758568
0
LINE
8
BLACK
6
CONTINUOUS
10
0.118977
20
-0.758568
11
0.122853
21
-0.772088
0
LINE
8
BLACK
6
CONTINUOUS
10
0.122853
20
-0.772088
11
0.125199
21
-0.785957
0
LINE
8
BLACK
6
CONTINUOUS
10
0.125199
20
-0.785957
11
0.125984
21
-0.8
0
LINE
8
BLACK
6
CONTINUOUS
10
0.125984
20
-0.8
11
0.125935
21
-0.803518
0
LINE
8
BLACK
6
CONTINUOUS
10
0.125935
20
-0.803518
11
0.124758
21
-0.817534
0
LINE
8
BLACK
6
CONTINUOUS
10
0.124758
20
-0.817534
11
0.122026
21
-0.831331
0
LINE
8
BLACK
6
CONTINUOUS
10
0.122026
20
-0.831331
11
0.117773
21
-0.844738
0
LINE
8
BLACK
6
CONTINUOUS
10
0.117773
20
-0.844738
11
0.112052
21
-0.857587
0
LINE
8
BLACK
6
CONTINUOUS
10
0.112052
20
-0.857587
11
0.104935
21
-0.869719
0
LINE
8
BLACK
6
CONTINUOUS
10
0.104935
20
-0.869719
11
0.0965095
21
-0.880981
0
LINE
8
BLACK
6
CONTINUOUS
10
0.0965095
20
-0.880981
11
0.0868812
21
-0.891234
0
LINE
8
BLACK
6
CONTINUOUS
10
0.0868812
20
-0.891234
11
0.07617
21
-0.90035
0
LINE
8
BLACK
6
CONTINUOUS
10
0.07617
20
-0.90035
11
0.0645093
21
-0.908215
0
LINE
8
BLACK
6
CONTINUOUS
10
0.0645093
20
-0.908215
11
0.0520446
21
-0.914732
0
LINE
8
BLACK
6
CONTINUOUS
10
0.0520446
20
-0.914732
11
0.0389313
21
-0.919818
0
LINE
8
BLACK
6
CONTINUOUS
10
0.0389313
20
-0.919818
11
0.0253326
21
-0.923411
0
LINE
8
BLACK
6
CONTINUOUS
10
0.0253326
20
-0.923411
11
0.0114183
21
-0.925466
0
LINE
8
BLACK
6
CONTINUOUS
10
0.0114183
20
-0.925466
11
-0.00263843
21
-0.925957
0
LINE
8
BLACK
6
CONTINUOUS
10
-0.00263843
20
-0.925957
11
-0.0166622
21
-0.924878
0
LINE
8
BLACK
6
CONTINUOUS
10
-0.0166622
20
-0.924878
11
-0.0304783
21
-0.922242
0
LINE
8
BLACK
6
CONTINUOUS
10
-0.0304783
20
-0.922242
11
-0.0439146
21
-0.918083
0
LINE
8
BLACK
6
CONTINUOUS
10
-0.0439146
20
-0.918083
11
-0.0568035
21
-0.912452
0
LINE
8
BLACK
6
CONTINUOUS
10
-0.0568035
20
-0.912452
11
-0.0689843
21
-0.905419
0
LINE
8
BLACK
6
CONTINUOUS
10
-0.0689843
20
-0.905419
11
-0.0803054
21
-0.897073
0
LINE
8
BLACK
6
CONTINUOUS
10
-0.0803054
20
-0.897073
11
-0.0906255
21
-0.887516
0
LINE
8
BLACK
6
CONTINUOUS
10
-0.0906255
20
-0.887516
11
-0.099816
21
-0.876869
0
LINE
8
BLACK
6
CONTINUOUS
10
-0.099816
20
-0.876869
11
-0.107762
21
-0.865263
0
LINE
8
BLACK
6
CONTINUOUS
10
-0.107762
20
-0.865263
11
-0.114366
21
-0.852844
0
LINE
8
BLACK
6
CONTINUOUS
10
-0.114366
20
-0.852844
11
-0.119543
21
-0.839767
0
LINE
8
BLACK
6
CONTINUOUS
10
-0.119543
20
-0.839767
11
-0.123231
21
-0.826194
0
LINE
8
BLACK
6
CONTINUOUS
10
-0.123231
20
-0.826194
11
-0.125383
21
-0.812294
0
LINE
8
BLACK
6
CONTINUOUS
10
-0.125383
20
-0.812294
11
-0.125972
21
-0.798241
0
LINE
8
BLACK
6
CONTINUOUS
10
-0.125972
20
-0.798241
11
-0.124991
21
-0.78421
0
LINE
8
BLACK
6
CONTINUOUS
10
-0.124991
20
-0.78421
11
-0.122452
21
-0.770376
0
LINE
8
BLACK
6
CONTINUOUS
10
-0.122452
20
-0.770376
11
-0.118386
21
-0.756911
0
LINE
8
BLACK
6
CONTINUOUS
10
-0.118386
20
-0.756911
11
-0.112846
21
-0.743983
0
LINE
8
BLACK
6
CONTINUOUS
10
-0.112846
20
-0.743983
11
-0.105898
21
-0.731753
0
LINE
8
BLACK
6
CONTINUOUS
10
-0.105898
20
-0.731753
11
-0.0976308
21
-0.720374
0
LINE
8
BLACK
6
CONTINUOUS
10
-0.0976308
20
-0.720374
11
-0.0881466
21
-0.709988
0
LINE
8
BLACK
6
CONTINUOUS
10
-0.0881466
20
-0.709988
11
-0.0775637
21
-0.700723
0
LINE
8
BLACK
6
CONTINUOUS
10
-0.0775637
20
-0.700723
11
-0.066014
21
-0.692696
0
LINE
8
BLACK
6
CONTINUOUS
10
-0.066014
20
-0.692696
11
-0.0536415
21
-0.686006
0
LINE
8
BLACK
6
CONTINUOUS
10
-0.0536415
20
-0.686006
11
-0.0406004
21
-0.680737
0
LINE
8
BLACK
6
CONTINUOUS
10
-0.0406004
20
-0.680737
11
-0.0270533
21
-0.676955
0
LINE
8
BLACK
6
CONTINUOUS
10
-0.0270533
20
-0.676955
11
-0.0131689
21
-0.674706
0
LINE
8
BLACK
6
CONTINUOUS
10
-0.0131689
20
-0.674706
11
0.000879528
21
-0.674019
0
LINE
8
BLACK
6
CONTINUOUS
10
0.000879528
20
-0.674019
11
0.014917
21
-0.674902
0
LINE
8
BLACK
6
CONTINUOUS
10
0.238403
20
-0.779865
11
0.246883
21
-0.781552
0
LINE
8
BLACK
6
CONTINUOUS
10
0.246883
20
-0.781552
11
0.254913
21
-0.784756
0
LINE
8
BLACK
6
CONTINUOUS
10
0.254913
20
-0.784756
11
0.262225
21
-0.789369
0
LINE
8
BLACK
6
CONTINUOUS
10
0.262225
20
-0.789369
11
0.268574
21
-0.795238
0
LINE
8
BLACK
6
CONTINUOUS
10
0.268574
20
-0.795238
11
0.273747
21
-0.802165
0
LINE
8
BLACK
6
CONTINUOUS
10
0.273747
20
-0.802165
11
0.277571
21
-0.80992
0
LINE
8
BLACK
6
CONTINUOUS
10
0.277571
20
-0.80992
11
0.279918
21
-0.818241
0
LINE
8
BLACK
6
CONTINUOUS
10
0.279918
20
-0.818241
11
0.280709
21
-0.82685
0
LINE
8
BLACK
6
CONTINUOUS
10
0.280709
20
-0.82685
11
0.280644
21
-0.829323
0
LINE
8
BLACK
6
CONTINUOUS
10
0.280644
20
-0.829323
11
0.279403
21
-0.837879
0
LINE
8
BLACK
6
CONTINUOUS
10
0.279403
20
-0.837879
11
0.276624
21
-0.846066
0
LINE
8
BLACK
6
CONTINUOUS
10
0.276624
20
-0.846066
11
0.2724
21
-0.85361
0
LINE
8
BLACK
6
CONTINUOUS
10
0.2724
20
-0.85361
11
0.266871
21
-0.860257
0
LINE
8
BLACK
6
CONTINUOUS
10
0.266871
20
-0.860257
11
0.260224
21
-0.865785
0
LINE
8
BLACK
6
CONTINUOUS
10
0.260224
20
-0.865785
11
0.25268
21
-0.87001
0
LINE
8
BLACK
6
CONTINUOUS
10
0.25268
20
-0.87001
11
0.244493
21
-0.872789
0
LINE
8
BLACK
6
CONTINUOUS
10
0.244493
20
-0.872789
11
0.235937
21
-0.87403
0
LINE
8
BLACK
6
CONTINUOUS
10
0.235937
20
-0.87403
11
0.227298
21
-0.87369
0
LINE
8
BLACK
6
CONTINUOUS
10
0.227298
20
-0.87369
11
0.218865
21
-0.871782
0
LINE
8
BLACK
6
CONTINUOUS
10
0.218865
20
-0.871782
11
0.210922
21
-0.868369
0
LINE
8
BLACK
6
CONTINUOUS
10
0.210922
20
-0.868369
11
0.203733
21
-0.863566
0
LINE
8
BLACK
6
CONTINUOUS
10
0.203733
20
-0.863566
11
0.19754
21
-0.857533
0
LINE
8
BLACK
6
CONTINUOUS
10
0.19754
20
-0.857533
11
0.19255
21
-0.850472
0
LINE
8
BLACK
6
CONTINUOUS
10
0.19255
20
-0.850472
11
0.18893
21
-0.842621
0
LINE
8
BLACK
6
CONTINUOUS
10
0.18893
20
-0.842621
11
0.186802
21
-0.834241
0
LINE
8
BLACK
6
CONTINUOUS
10
0.186802
20
-0.834241
11
0.186237
21
-0.825614
0
LINE
8
BLACK
6
CONTINUOUS
10
0.186237
20
-0.825614
11
0.187253
21
-0.817028
0
LINE
8
BLACK
6
CONTINUOUS
10
0.187253
20
-0.817028
11
0.189817
21
-0.808771
0
LINE
8
BLACK
6
CONTINUOUS
10
0.189817
20
-0.808771
11
0.193842
21
-0.801119
0
LINE
8
BLACK
6
CONTINUOUS
10
0.193842
20
-0.801119
11
0.199195
21
-0.79433
0
LINE
8
BLACK
6
CONTINUOUS
10
0.199195
20
-0.79433
11
0.205695
21
-0.788629
0
LINE
8
BLACK
6
CONTINUOUS
10
0.205695
20
-0.788629
11
0.213125
21
-0.784209
0
LINE
8
BLACK
6
CONTINUOUS
10
0.213125
20
-0.784209
11
0.221237
21
-0.781216
0
LINE
8
BLACK
6
CONTINUOUS
10
0.221237
20
-0.781216
11
0.229758
21
-0.779752
0
LINE
8
BLACK
6
CONTINUOUS
10
0.229758
20
-0.779752
11
0.238403
21
-0.779865
0
LINE
8
BLACK
6
CONTINUOUS
10
0.671474
20
-0.779865
11
0.679953
21
-0.781552
0
LINE
8
BLACK
6
CONTINUOUS
10
0.679953
20
-0.781552
11
0.687984
21
-0.784756
0
LINE
8
BLACK
6
CONTINUOUS
10
0.687984
20
-0.784756
11
0.695296
21
-0.789369
0
LINE
8
BLACK
6
CONTINUOUS
10
0.695296
20
-0.789369
11
0.701645
21
-0.795238
0
LINE
8
BLACK
6
CONTINUOUS
10
0.701645
20
-0.795238
11
0.706818
21
-0.802165
0
LINE
8
BLACK
6
CONTINUOUS
10
0.706818
20
-0.802165
11
0.710642
21
-0.80992
0
LINE
8
BLACK
6
CONTINUOUS
10
0.710642
20
-0.80992
11
0.712988
21
-0.818241
0
LINE
8
BLACK
6
CONTINUOUS
10
0.712988
20
-0.818241
11
0.71378
21
-0.82685
0
LINE
8
BLACK
6
CONTINUOUS
10
0.71378
20
-0.82685
11
0.713715
21
-0.829323
0
LINE
8
BLACK
6
CONTINUOUS
10
0.713715
20
-0.829323
11
0.712474
21
-0.837879
0
LINE
8
BLACK
6
CONTINUOUS
10
0.712474
20
-0.837879
11
0.709695
21
-0.846066
0
LINE
8
BLACK
6
CONTINUOUS
10
0.709695
20
-0.846066
11
0.705471
21
-0.85361
0
LINE
8
BLACK
6
CONTINUOUS
10
0.705471
20
-0.85361
11
0.699942
21
-0.860257
0
LINE
8
BLACK
6
CONTINUOUS
10
0.699942
20
-0.860257
11
0.693295
21
-0.865785
0
LINE
8
BLACK
6
CONTINUOUS
10
0.693295
20
-0.865785
11
0.685751
21
-0.87001
0
LINE
8
BLACK
6
CONTINUOUS
10
0.685751
20
-0.87001
11
0.677564
21
-0.872789
0
LINE
8
BLACK
6
CONTINUOUS
10
0.677564
20
-0.872789
11
0.669008
21
-0.87403
0
LINE
8
BLACK
6
CONTINUOUS
10
0.669008
20
-0.87403
11
0.660369
21
-0.87369
0
LINE
8
BLACK
6
CONTINUOUS
10
0.660369
20
-0.87369
11
0.651936
21
-0.871782
0
LINE
8
BLACK
6
CONTINUOUS
10
0.651936
20
-0.871782
11
0.643992
21
-0.868369
0
LINE
8
BLACK
6
CONTINUOUS
10
0.643992
20
-0.868369
11
0.636804
21
-0.863566
0
LINE
8
BLACK
6
CONTINUOUS
10
0.636804
20
-0.863566
11
0.630611
21
-0.857533
0
LINE
8
BLACK
6
CONTINUOUS
10
0.630611
20
-0.857533
11
0.625621
21
-0.850472
0
LINE
8
BLACK
6
CONTINUOUS
10
0.625621
20
-0.850472
11
0.622001
21
-0.842621
0
LINE
8
BLACK
6
CONTINUOUS
10
0.622001
20
-0.842621
11
0.619873
21
-0.834241
0
LINE
8
BLACK
6
CONTINUOUS
10
0.619873
20
-0.834241
11
0.619308
21
-0.825614
0
LINE
8
BLACK
6
CONTINUOUS
10
0.619308
20
-0.825614
11
0.620324
21
-0.817028
0
LINE
8
BLACK
6
CONTINUOUS
10
0.620324
20
-0.817028
11
0.622888
21
-0.808771
0
LINE
8
BLACK
6
CONTINUOUS
10
0.622888
20
-0.808771
11
0.626913
21
-0.801119
0
LINE
8
BLACK
6
CONTINUOUS
10
0.626913
20
-0.801119
11
0.632266
21
-0.79433
0
LINE
8
BLACK
6
CONTINUOUS
10
0.632266
20
-0.79433
11
0.638766
21
-0.788629
0
LINE
8
BLACK
6
CONTINUOUS
10
0.638766
20
-0.788629
11
0.646196
21
-0.784209
0
LINE
8
BLACK
6
CONTINUOUS
10
0.646196
20
-0.784209
11
0.654308
21
-0.781216
0
LINE
8
BLACK
6
CONTINUOUS
10
0.654308
20
-0.781216
11
0.662829
21
-0.779752
0
LINE
8
BLACK
6
CONTINUOUS
10
0.662829
20
-0.779752
11
0.671474
21
-0.779865
0
LINE
8
BLACK
6
CONTINUOUS
10
2.18018
20
-0.668442
11
2.18939
21
-0.670083
0
LINE
8
BLACK
6
CONTINUOUS
10
2.18939
20
-0.670083
11
2.1982
21
-0.673206
0
LINE
8
BLACK
6
CONTINUOUS
10
2.1982
20
-0.673206
11
2.20639
21
-0.677727
0
LINE
8
BLACK
6
CONTINUOUS
10
2.20639
20
-0.677727
11
2.21374
21
-0.683525
0
LINE
8
BLACK
6
CONTINUOUS
10
2.21374
20
-0.683525
11
2.22003
21
-0.690444
0
LINE
8
BLACK
6
CONTINUOUS
10
2.22003
20
-0.690444
11
2.22511
21
-0.698299
0
LINE
8
BLACK
6
CONTINUOUS
10
2.22511
20
-0.698299
11
2.22884
21
-0.706879
0
LINE
8
BLACK
6
CONTINUOUS
10
2.22884
20
-0.706879
11
2.23112
21
-0.715952
0
LINE
8
BLACK
6
CONTINUOUS
10
2.23112
20
-0.715952
11
2.23189
21
-0.725276
0
LINE
8
BLACK
6
CONTINUOUS
10
2.23189
20
-0.725276
11
2.23182
21
-0.728064
0
LINE
8
BLACK
6
CONTINUOUS
10
2.23182
20
-0.728064
11
2.2306
21
-0.737339
0
LINE
8
BLACK
6
CONTINUOUS
10
2.2306
20
-0.737339
11
2.22788
21
-0.746291
0
LINE
8
BLACK
6
CONTINUOUS
10
2.22788
20
-0.746291
11
2.22374
21
-0.754677
0
LINE
8
BLACK
6
CONTINUOUS
10
2.22374
20
-0.754677
11
2.21828
21
-0.762275
0
LINE
8
BLACK
6
CONTINUOUS
10
2.21828
20
-0.762275
11
2.21165
21
-0.768878
0
LINE
8
BLACK
6
CONTINUOUS
10
2.21165
20
-0.768878
11
2.20403
21
-0.774311
0
LINE
8
BLACK
6
CONTINUOUS
10
2.20403
20
-0.774311
11
2.19563
21
-0.778426
0
LINE
8
BLACK
6
CONTINUOUS
10
2.19563
20
-0.778426
11
2.18667
21
-0.781115
0
LINE
8
BLACK
6
CONTINUOUS
10
2.18667
20
-0.781115
11
2.17739
21
-0.782303
0
LINE
8
BLACK
6
CONTINUOUS
10
2.17739
20
-0.782303
11
2.16804
21
-0.781961
0
LINE
8
BLACK
6
CONTINUOUS
10
2.16804
20
-0.781961
11
2.15888
21
-0.780096
0
LINE
8
BLACK
6
CONTINUOUS
10
2.15888
20
-0.780096
11
2.15014
21
-0.776758
0
LINE
8
BLACK
6
CONTINUOUS
10
2.15014
20
-0.776758
11
2.14206
21
-0.772038
0
LINE
8
BLACK
6
CONTINUOUS
10
2.14206
20
-0.772038
11
2.13486
21
-0.766062
0
LINE
8
BLACK
6
CONTINUOUS
10
2.13486
20
-0.766062
11
2.12874
21
-0.758991
0
LINE
8
BLACK
6
CONTINUOUS
10
2.12874
20
-0.758991
11
2.12385
21
-0.751015
0
LINE
8
BLACK
6
CONTINUOUS
10
2.12385
20
-0.751015
11
2.12033
21
-0.742347
0
LINE
8
BLACK
6
CONTINUOUS
10
2.12033
20
-0.742347
11
2.11827
21
-0.733221
0
LINE
8
BLACK
6
CONTINUOUS
10
2.11827
20
-0.733221
11
2.11773
21
-0.723881
0
LINE
8
BLACK
6
CONTINUOUS
10
2.11773
20
-0.723881
11
2.11873
21
-0.714579
0
LINE
8
BLACK
6
CONTINUOUS
10
2.11873
20
-0.714579
11
2.12123
21
-0.705564
0
LINE
8
BLACK
6
CONTINUOUS
10
2.12123
20
-0.705564
11
2.12517
21
-0.697078
0
LINE
8
BLACK
6
CONTINUOUS
10
2.12517
20
-0.697078
11
2.13044
21
-0.68935
0
LINE
8
BLACK
6
CONTINUOUS
10
2.13044
20
-0.68935
11
2.1369
21
-0.682586
0
LINE
8
BLACK
6
CONTINUOUS
10
2.1369
20
-0.682586
11
2.14438
21
-0.676969
0
LINE
8
BLACK
6
CONTINUOUS
10
2.14438
20
-0.676969
11
2.15268
21
-0.67265
0
LINE
8
BLACK
6
CONTINUOUS
10
2.15268
20
-0.67265
11
2.16157
21
-0.669743
0
LINE
8
BLACK
6
CONTINUOUS
10
2.16157
20
-0.669743
11
2.17082
21
-0.668328
0
LINE
8
BLACK
6
CONTINUOUS
10
2.17082
20
-0.668328
11
2.18018
21
-0.668442
0
LINE
8
BLACK
6
CONTINUOUS
10
0.363585
20
-0.357323
11
0.374149
21
-0.359772
0
LINE
8
BLACK
6
CONTINUOUS
10
0.374149
20
-0.359772
11
0.384263
21
-0.363685
0
LINE
8
BLACK
6
CONTINUOUS
10
0.384263
20
-0.363685
11
0.393724
21
-0.368983
0
LINE
8
BLACK
6
CONTINUOUS
10
0.393724
20
-0.368983
11
0.402345
21
-0.375562
0
LINE
8
BLACK
6
CONTINUOUS
10
0.402345
20
-0.375562
11
0.409952
21
-0.38329
0
LINE
8
BLACK
6
CONTINUOUS
10
0.409952
20
-0.38329
11
0.416395
21
-0.392013
0
LINE
8
BLACK
6
CONTINUOUS
10
0.416395
20
-0.392013
11
0.421545
21
-0.401557
0
LINE
8
BLACK
6
CONTINUOUS
10
0.421545
20
-0.401557
11
0.425298
21
-0.411731
0
LINE
8
BLACK
6
CONTINUOUS
10
0.425298
20
-0.411731
11
0.427581
21
-0.422332
0
LINE
8
BLACK
6
CONTINUOUS
10
0.427581
20
-0.422332
11
0.428346
21
-0.43315
0
LINE
8
BLACK
6
CONTINUOUS
10
0.428346
20
-0.43315
11
0.428195
21
-0.43797
0
LINE
8
BLACK
6
CONTINUOUS
10
0.428195
20
-0.43797
11
0.426751
21
-0.448718
0
LINE
8
BLACK
6
CONTINUOUS
10
0.426751
20
-0.448718
11
0.423808
21
-0.459155
0
LINE
8
BLACK
6
CONTINUOUS
10
0.423808
20
-0.459155
11
0.419423
21
-0.469073
0
LINE
8
BLACK
6
CONTINUOUS
10
0.419423
20
-0.469073
11
0.413684
21
-0.478275
0
LINE
8
BLACK
6
CONTINUOUS
10
0.413684
20
-0.478275
11
0.406707
21
-0.486576
0
LINE
8
BLACK
6
CONTINUOUS
10
0.406707
20
-0.486576
11
0.398629
21
-0.493811
0
LINE
8
BLACK
6
CONTINUOUS
10
0.398629
20
-0.493811
11
0.389612
21
-0.499836
0
LINE
8
BLACK
6
CONTINUOUS
10
0.389612
20
-0.499836
11
0.379836
21
-0.50453
0
LINE
8
BLACK
6
CONTINUOUS
10
0.379836
20
-0.50453
11
0.369497
21
-0.5078
0
LINE
8
BLACK
6
CONTINUOUS
10
0.369497
20
-0.5078
11
0.3588
21
-0.509581
0
LINE
8
BLACK
6
CONTINUOUS
10
0.3588
20
-0.509581
11
0.347958
21
-0.509836
0
LINE
8
BLACK
6
CONTINUOUS
10
0.347958
20
-0.509836
11
0.337189
21
-0.508561
0
LINE
8
BLACK
6
CONTINUOUS
10
0.337189
20
-0.508561
11
0.326707
21
-0.505782
0
LINE
8
BLACK
6
CONTINUOUS
10
0.326707
20
-0.505782
11
0.316721
21
-0.501554
0
LINE
8
BLACK
6
CONTINUOUS
10
0.316721
20
-0.501554
11
0.307431
21
-0.49596
0
LINE
8
BLACK
6
CONTINUOUS
10
0.307431
20
-0.49596
11
0.299021
21
-0.489114
0
LINE
8
BLACK
6
CONTINUOUS
10
0.299021
20
-0.489114
11
0.29166
21
-0.481151
0
LINE
8
BLACK
6
CONTINUOUS
10
0.29166
20
-0.481151
11
0.285494
21
-0.47223
0
LINE
8
BLACK
6
CONTINUOUS
10
0.285494
20
-0.47223
11
0.280647
21
-0.462529
0
LINE
8
BLACK
6
CONTINUOUS
10
0.280647
20
-0.462529
11
0.277215
21
-0.452242
0
LINE
8
BLACK
6
CONTINUOUS
10
0.277215
20
-0.452242
11
0.275267
21
-0.441574
0
LINE
8
BLACK
6
CONTINUOUS
10
0.275267
20
-0.441574
11
0.274841
21
-0.430738
0
LINE
8
BLACK
6
CONTINUOUS
10
0.274841
20
-0.430738
11
0.275946
21
-0.41995
0
LINE
8
BLACK
6
CONTINUOUS
10
0.275946
20
-0.41995
11
0.278561
21
-0.409426
0
LINE
8
BLACK
6
CONTINUOUS
10
0.278561
20
-0.409426
11
0.282632
21
-0.399375
0
LINE
8
BLACK
6
CONTINUOUS
10
0.282632
20
-0.399375
11
0.288078
21
-0.389998
0
LINE
8
BLACK
6
CONTINUOUS
10
0.288078
20
-0.389998
11
0.294792
21
-0.381481
0
LINE
8
BLACK
6
CONTINUOUS
10
0.294792
20
-0.381481
11
0.302639
21
-0.373996
0
LINE
8
BLACK
6
CONTINUOUS
10
0.302639
20
-0.373996
11
0.311462
21
-0.367691
0
LINE
8
BLACK
6
CONTINUOUS
10
0.311462
20
-0.367691
11
0.321085
21
-0.362692
0
LINE
8
BLACK
6
CONTINUOUS
10
0.321085
20
-0.362692
11
0.331317
21
-0.359099
0
LINE
8
BLACK
6
CONTINUOUS
10
0.331317
20
-0.359099
11
0.341953
21
-0.356983
0
LINE
8
BLACK
6
CONTINUOUS
10
0.341953
20
-0.356983
11
0.352781
21
-0.356387
0
LINE
8
BLACK
6
CONTINUOUS
10
0.352781
20
-0.356387
11
0.363585
21
-0.357323
0
LINE
8
BLACK
6
CONTINUOUS
10
0.560435
20
-0.357323
11
0.570999
21
-0.359772
0
LINE
8
BLACK
6
CONTINUOUS
10
0.570999
20
-0.359772
11
0.581113
21
-0.363685
0
LINE
8
BLACK
6
CONTINUOUS
10
0.581113
20
-0.363685
11
0.590575
21
-0.368983
0
LINE
8
BLACK
6
CONTINUOUS
10
0.590575
20
-0.368983
11
0.599195
21
-0.375562
0
LINE
8
BLACK
6
CONTINUOUS
10
0.599195
20
-0.375562
11
0.606803
21
-0.38329
0
LINE
8
BLACK
6
CONTINUOUS
10
0.606803
20
-0.38329
11
0.613246
21
-0.392013
0
LINE
8
BLACK
6
CONTINUOUS
10
0.613246
20
-0.392013
11
0.618395
21
-0.401557
0
LINE
8
BLACK
6
CONTINUOUS
10
0.618395
20
-0.401557
11
0.622149
21
-0.411731
0
LINE
8
BLACK
6
CONTINUOUS
10
0.622149
20
-0.411731
11
0.624431
21
-0.422332
0
LINE
8
BLACK
6
CONTINUOUS
10
0.624431
20
-0.422332
11
0.625197
21
-0.43315
0
LINE
8
BLACK
6
CONTINUOUS
10
0.625197
20
-0.43315
11
0.625045
21
-0.43797
0
LINE
8
BLACK
6
CONTINUOUS
10
0.625045
20
-0.43797
11
0.623602
21
-0.448718
0
LINE
8
BLACK
6
CONTINUOUS
10
0.623602
20
-0.448718
11
0.620658
21
-0.459155
0
LINE
8
BLACK
6
CONTINUOUS
10
0.620658
20
-0.459155
11
0.616273
21
-0.469073
0
LINE
8
BLACK
6
CONTINUOUS
10
0.616273
20
-0.469073
11
0.610535
21
-0.478275
0
LINE
8
BLACK
6
CONTINUOUS
10
0.610535
20
-0.478275
11
0.603557
21
-0.486576
0
LINE
8
BLACK
6
CONTINUOUS
10
0.603557
20
-0.486576
11
0.595479
21
-0.493811
0
LINE
8
BLACK
6
CONTINUOUS
10
0.595479
20
-0.493811
11
0.586462
21
-0.499836
0
LINE
8
BLACK
6
CONTINUOUS
10
0.586462
20
-0.499836
11
0.576687
21
-0.50453
0
LINE
8
BLACK
6
CONTINUOUS
10
0.576687
20
-0.50453
11
0.566347
21
-0.5078
0
LINE
8
BLACK
6
CONTINUOUS
10
0.566347
20
-0.5078
11
0.55565
21
-0.509581
0
LINE
8
BLACK
6
CONTINUOUS
10
0.55565
20
-0.509581
11
0.544809
21
-0.509836
0
LINE
8
BLACK
6
CONTINUOUS
10
0.544809
20
-0.509836
11
0.53404
21
-0.508561
0
LINE
8
BLACK
6
CONTINUOUS
10
0.53404
20
-0.508561
11
0.523558
21
-0.505782
0
LINE
8
BLACK
6
CONTINUOUS
10
0.523558
20
-0.505782
11
0.513572
21
-0.501554
0
LINE
8
BLACK
6
CONTINUOUS
10
0.513572
20
-0.501554
11
0.504281
21
-0.49596
0
LINE
8
BLACK
6
CONTINUOUS
10
0.504281
20
-0.49596
11
0.495871
21
-0.489114
0
LINE
8
BLACK
6
CONTINUOUS
10
0.495871
20
-0.489114
11
0.48851
21
-0.481151
0
LINE
8
BLACK
6
CONTINUOUS
10
0.48851
20
-0.481151
11
0.482345
21
-0.47223
0
LINE
8
BLACK
6
CONTINUOUS
10
0.482345
20
-0.47223
11
0.477497
21
-0.462529
0
LINE
8
BLACK
6
CONTINUOUS
10
0.477497
20
-0.462529
11
0.474065
21
-0.452242
0
LINE
8
BLACK
6
CONTINUOUS
10
0.474065
20
-0.452242
11
0.472117
21
-0.441574
0
LINE
8
BLACK
6
CONTINUOUS
10
0.472117
20
-0.441574
11
0.471691
21
-0.430738
0
LINE
8
BLACK
6
CONTINUOUS
10
0.471691
20
-0.430738
11
0.472797
21
-0.41995
0
LINE
8
BLACK
6
CONTINUOUS
10
0.472797
20
-0.41995
11
0.475411
21
-0.409426
0
LINE
8
BLACK
6
CONTINUOUS
10
0.475411
20
-0.409426
11
0.479482
21
-0.399375
0
LINE
8
BLACK
6
CONTINUOUS
10
0.479482
20
-0.399375
11
0.484929
21
-0.389998
0
LINE
8
BLACK
6
CONTINUOUS
10
0.484929
20
-0.389998
11
0.491642
21
-0.381481
0
LINE
8
BLACK
6
CONTINUOUS
10
0.491642
20
-0.381481
11
0.499489
21
-0.373996
0
LINE
8
BLACK
6
CONTINUOUS
10
0.499489
20
-0.373996
11
0.508312
21
-0.367691
0
LINE
8
BLACK
6
CONTINUOUS
10
0.508312
20
-0.367691
11
0.517936
21
-0.362692
0
LINE
8
BLACK
6
CONTINUOUS
10
0.517936
20
-0.362692
11
0.528167
21
-0.359099
0
LINE
8
BLACK
6
CONTINUOUS
10
0.528167
20
-0.359099
11
0.538803
21
-0.356983
0
LINE
8
BLACK
6
CONTINUOUS
10
0.538803
20
-0.356983
11
0.549631
21
-0.356387
0
LINE
8
BLACK
6
CONTINUOUS
10
0.549631
20
-0.356387
11
0.560435
21
-0.357323
0
LINE
8
BLACK
6
CONTINUOUS
10
2.38301
20
-0.372725
11
2.38557
21
-0.374432
0
LINE
8
BLACK
6
CONTINUOUS
10
2.38557
20
-0.374432
11
2.38727
21
-0.376987
0
LINE
8
BLACK
6
CONTINUOUS
10
2.38727
20
-0.376987
11
2.38787
21
-0.38
0
LINE
8
BLACK
6
CONTINUOUS
10
2.38787
20
-0.38
11
2.38787
21
-0.44
0
LINE
8
BLACK
6
CONTINUOUS
10
2.38787
20
-0.44
11
2.38727
21
-0.443013
0
LINE
8
BLACK
6
CONTINUOUS
10
2.38727
20
-0.443013
11
2.38557
21
-0.445568
0
LINE
8
BLACK
6
CONTINUOUS
10
2.38557
20
-0.445568
11
2.38301
21
-0.447275
0
LINE
8
BLACK
6
CONTINUOUS
10
2.38301
20
-0.447275
11
2.38
21
-0.447874
0
LINE
8
BLACK
6
CONTINUOUS
10
2.38
20
-0.447874
11
2.32
21
-0.447874
0
LINE
8
BLACK
6
CONTINUOUS
10
2.32
20
-0.447874
11
2.31699
21
-0.447275
0
LINE
8
BLACK
6
CONTINUOUS
10
2.31699
20
-0.447275
11
2.31443
21
-0.445568
0
LINE
8
BLACK
6
CONTINUOUS
10
2.31443
20
-0.445568
11
2.31273
21
-0.443013
0
LINE
8
BLACK
6
CONTINUOUS
10
2.31273
20
-0.443013
11
2.31213
21
-0.44
0
LINE
8
BLACK
6
CONTINUOUS
10
2.31213
20
-0.44
11
2.31213
21
-0.38
0
LINE
8
BLACK
6
CONTINUOUS
10
2.31213
20
-0.38
11
2.31273
21
-0.376987
0
LINE
8
BLACK
6
CONTINUOUS
10
2.31273
20
-0.376987
11
2.31443
21
-0.374432
0
LINE
8
BLACK
6
CONTINUOUS
10
2.31443
20
-0.374432
11
2.31699
21
-0.372725
0
LINE
8
BLACK
6
CONTINUOUS
10
2.31699
20
-0.372725
11
2.32
21
-0.372126
0
LINE
8
BLACK
6
CONTINUOUS
10
2.32
20
-0.372126
11
2.38
21
-0.372126
0
LINE
8
BLACK
6
CONTINUOUS
10
2.38
20
-0.372126
11
2.38301
21
-0.372725
0
LINE
8
BLACK
6
CONTINUOUS
10
2.48301
20
-0.372725
11
2.48557
21
-0.374432
0
LINE
8
BLACK
6
CONTINUOUS
10
2.48557
20
-0.374432
11
2.48727
21
-0.376987
0
LINE
8
BLACK
6
CONTINUOUS
10
2.48727
20
-0.376987
11
2.48787
21
-0.38
0
LINE
8
BLACK
6
CONTINUOUS
10
2.48787
20
-0.38
11
2.48787
21
-0.44
0
LINE
8
BLACK
6
CONTINUOUS
10
2.48787
20
-0.44
11
2.48727
21
-0.443013
0
LINE
8
BLACK
6
CONTINUOUS
10
2.48727
20
-0.443013
11
2.48557
21
-0.445568
0
LINE
8
BLACK
6
CONTINUOUS
10
2.48557
20
-0.445568
11
2.48301
21
-0.447275
0
LINE
8
BLACK
6
CONTINUOUS
10
2.48301
20
-0.447275
11
2.48
21
-0.447874
0
LINE
8
BLACK
6
CONTINUOUS
10
2.48
20
-0.447874
11
2.42
21
-0.447874
0
LINE
8
BLACK
6
CONTINUOUS
10
2.42
20
-0.447874
11
2.41699
21
-0.447275
0
LINE
8
BLACK
6
CONTINUOUS
10
2.41699
20
-0.447275
11
2.41443
21
-0.445568
0
LINE
8
BLACK
6
CONTINUOUS
10
2.41443
20
-0.445568
11
2.41273
21
-0.443013
0
LINE
8
BLACK
6
CONTINUOUS
10
2.41273
20
-0.443013
11
2.41213
21
-0.44
0
LINE
8
BLACK
6
CONTINUOUS
10
2.41213
20
-0.44
11
2.41213
21
-0.38
0
LINE
8
BLACK
6
CONTINUOUS
10
2.41213
20
-0.38
11
2.41273
21
-0.376987
0
LINE
8
BLACK
6
CONTINUOUS
10
2.41273
20
-0.376987
11
2.41443
21
-0.374432
0
LINE
8
BLACK
6
CONTINUOUS
10
2.41443
20
-0.374432
11
2.41699
21
-0.372725
0
LINE
8
BLACK
6
CONTINUOUS
10
2.41699
20
-0.372725
11
2.42
21
-0.372126
0
LINE
8
BLACK
6
CONTINUOUS
10
2.42
20
-0.372126
11
2.48
21
-0.372126
0
LINE
8
BLACK
6
CONTINUOUS
10
2.48
20
-0.372126
11
2.48301
21
-0.372725
0
LINE
8
BLACK
6
CONTINUOUS
10
2.38301
20
-0.272725
11
2.38557
21
-0.274432
0
LINE
8
BLACK
6
CONTINUOUS
10
2.38557
20
-0.274432
11
2.38727
21
-0.276987
0
LINE
8
BLACK
6
CONTINUOUS
10
2.38727
20
-0.276987
11
2.38787
21
-0.28
0
LINE
8
BLACK
6
CONTINUOUS
10
2.38787
20
-0.28
11
2.38787
21
-0.34
0
LINE
8
BLACK
6
CONTINUOUS
10
2.38787
20
-0.34
11
2.38727
21
-0.343013
0
LINE
8
BLACK
6
CONTINUOUS
10
2.38727
20
-0.343013
11
2.38557
21
-0.345568
0
LINE
8
BLACK
6
CONTINUOUS
10
2.38557
20
-0.345568
11
2.38301
21
-0.347275
0
LINE
8
BLACK
6
CONTINUOUS
10
2.38301
20
-0.347275
11
2.38
21
-0.347874
0
LINE
8
BLACK
6
CONTINUOUS
10
2.38
20
-0.347874
11
2.32
21
-0.347874
0
LINE
8
BLACK
6
CONTINUOUS
10
2.32
20
-0.347874
11
2.31699
21
-0.347275
0
LINE
8
BLACK
6
CONTINUOUS
10
2.31699
20
-0.347275
11
2.31443
21
-0.345568
0
LINE
8
BLACK
6
CONTINUOUS
10
2.31443
20
-0.345568
11
2.31273
21
-0.343013
0
LINE
8
BLACK
6
CONTINUOUS
10
2.31273
20
-0.343013
11
2.31213
21
-0.34
0
LINE
8
BLACK
6
CONTINUOUS
10
2.31213
20
-0.34
11
2.31213
21
-0.28
0
LINE
8
BLACK
6
CONTINUOUS
10
2.31213
20
-0.28
11
2.31273
21
-0.276987
0
LINE
8
BLACK
6
CONTINUOUS
10
2.31273
20
-0.276987
11
2.31443
21
-0.274432
0
LINE
8
BLACK
6
CONTINUOUS
10
2.31443
20
-0.274432
11
2.31699
21
-0.272725
0
LINE
8
BLACK
6
CONTINUOUS
10
2.31699
20
-0.272725
11
2.32
21
-0.272126
0
LINE
8
BLACK
6
CONTINUOUS
10
2.32
20
-0.272126
11
2.38
21
-0.272126
0
LINE
8
BLACK
6
CONTINUOUS
10
2.38
20
-0.272126
11
2.38301
21
-0.272725
0
LINE
8
BLACK
6
CONTINUOUS
10
2.48301
20
-0.272725
11
2.48557
21
-0.274432
0
LINE
8
BLACK
6
CONTINUOUS
10
2.48557
20
-0.274432
11
2.48727
21
-0.276987
0
LINE
8
BLACK
6
CONTINUOUS
10
2.48727
20
-0.276987
11
2.48787
21
-0.28
0
LINE
8
BLACK
6
CONTINUOUS
10
2.48787
20
-0.28
11
2.48787
21
-0.34
0
LINE
8
BLACK
6
CONTINUOUS
10
2.48787
20
-0.34
11
2.48727
21
-0.343013
0
LINE
8
BLACK
6
CONTINUOUS
10
2.48727
20
-0.343013
11
2.48557
21
-0.345568
0
LINE
8
BLACK
6
CONTINUOUS
10
2.48557
20
-0.345568
11
2.48301
21
-0.347275
0
LINE
8
BLACK
6
CONTINUOUS
10
2.48301
20
-0.347275
11
2.48
21
-0.347874
0
LINE
8
BLACK
6
CONTINUOUS
10
2.48
20
-0.347874
11
2.42
21
-0.347874
0
LINE
8
BLACK
6
CONTINUOUS
10
2.42
20
-0.347874
11
2.41699
21
-0.347275
0
LINE
8
BLACK
6
CONTINUOUS
10
2.41699
20
-0.347275
11
2.41443
21
-0.345568
0
LINE
8
BLACK
6
CONTINUOUS
10
2.41443
20
-0.345568
11
2.41273
21
-0.343013
0
LINE
8
BLACK
6
CONTINUOUS
10
2.41273
20
-0.343013
11
2.41213
21
-0.34
0
LINE
8
BLACK
6
CONTINUOUS
10
2.41213
20
-0.34
11
2.41213
21
-0.28
0
LINE
8
BLACK
6
CONTINUOUS
10
2.41213
20
-0.28
11
2.41273
21
-0.276987
0
LINE
8
BLACK
6
CONTINUOUS
10
2.41273
20
-0.276987
11
2.41443
21
-0.274432
0
LINE
8
BLACK
6
CONTINUOUS
10
2.41443
20
-0.274432
11
2.41699
21
-0.272725
0
LINE
8
BLACK
6
CONTINUOUS
10
2.41699
20
-0.272725
11
2.42
21
-0.272126
0
LINE
8
BLACK
6
CONTINUOUS
10
2.42
20
-0.272126
11
2.48
21
-0.272126
0
LINE
8
BLACK
6
CONTINUOUS
10
2.48
20
-0.272126
11
2.48301
21
-0.272725
0
LINE
8
BLACK
6
CONTINUOUS
10
1.03844
20
-0.196001
11
1.04765
21
-0.197642
0
LINE
8
BLACK
6
CONTINUOUS
10
1.04765
20
-0.197642
11
1.05647
21
-0.200765
0
LINE
8
BLACK
6
CONTINUOUS
10
1.05647
20
-0.200765
11
1.06466
21
-0.205286
0
LINE
8
BLACK
6
CONTINUOUS
10
1.06466
20
-0.205286
11
1.072
21
-0.211084
0
LINE
8
BLACK
6
CONTINUOUS
10
1.072
20
-0.211084
11
1.0783
21
-0.218004
0
LINE
8
BLACK
6
CONTINUOUS
10
1.0783
20
-0.218004
11
1.08338
21
-0.225858
0
LINE
8
BLACK
6
CONTINUOUS
10
1.08338
20
-0.225858
11
1.08711
21
-0.234438
0
LINE
8
BLACK
6
CONTINUOUS
10
1.08711
20
-0.234438
11
1.08939
21
-0.243511
0
LINE
8
BLACK
6
CONTINUOUS
10
1.08939
20
-0.243511
11
1.09016
21
-0.252835
0
LINE
8
BLACK
6
CONTINUOUS
10
1.09016
20
-0.252835
11
1.09009
21
-0.255623
0
LINE
8
BLACK
6
CONTINUOUS
10
1.09009
20
-0.255623
11
1.08887
21
-0.264898
0
LINE
8
BLACK
6
CONTINUOUS
10
1.08887
20
-0.264898
11
1.08615
21
-0.27385
0
LINE
8
BLACK
6
CONTINUOUS
10
1.08615
20
-0.27385
11
1.082
21
-0.282236
0
LINE
8
BLACK
6
CONTINUOUS
10
1.082
20
-0.282236
11
1.07654
21
-0.289834
0
LINE
8
BLACK
6
CONTINUOUS
10
1.07654
20
-0.289834
11
1.06992
21
-0.296437
0
LINE
8
BLACK
6
CONTINUOUS
10
1.06992
20
-0.296437
11
1.0623
21
-0.30187
0
LINE
8
BLACK
6
CONTINUOUS
10
1.0623
20
-0.30187
11
1.0539
21
-0.305985
0
LINE
8
BLACK
6
CONTINUOUS
10
1.0539
20
-0.305985
11
1.04494
21
-0.308674
0
LINE
8
BLACK
6
CONTINUOUS
10
1.04494
20
-0.308674
11
1.03566
21
-0.309862
0
LINE
8
BLACK
6
CONTINUOUS
10
1.03566
20
-0.309862
11
1.02631
21
-0.30952
0
LINE
8
BLACK
6
CONTINUOUS
10
1.02631
20
-0.30952
11
1.01714
21
-0.307655
0
LINE
8
BLACK
6
CONTINUOUS
10
1.01714
20
-0.307655
11
1.0084
21
-0.304317
0
LINE
8
BLACK
6
CONTINUOUS
10
1.0084
20
-0.304317
11
1.00033
21
-0.299597
0
LINE
8
BLACK
6
CONTINUOUS
10
1.00033
20
-0.299597
11
0.993129
21
-0.293621
0
LINE
8
BLACK
6
CONTINUOUS
10
0.993129
20
-0.293621
11
0.987004
21
-0.28655
0
LINE
8
BLACK
6
CONTINUOUS
10
0.987004
20
-0.28655
11
0.982116
21
-0.278574
0
LINE
8
BLACK
6
CONTINUOUS
10
0.982116
20
-0.278574
11
0.978597
21
-0.269906
0
LINE
8
BLACK
6
CONTINUOUS
10
0.978597
20
-0.269906
11
0.97654
21
-0.26078
0
LINE
8
BLACK
6
CONTINUOUS
10
0.97654
20
-0.26078
11
0.976001
21
-0.25144
0
LINE
8
BLACK
6
CONTINUOUS
10
0.976001
20
-0.25144
11
0.976995
21
-0.242138
0
LINE
8
BLACK
6
CONTINUOUS
10
0.976995
20
-0.242138
11
0.979495
21
-0.233123
0
LINE
8
BLACK
6
CONTINUOUS
10
0.979495
20
-0.233123
11
0.983434
21
-0.224637
0
LINE
8
BLACK
6
CONTINUOUS
10
0.983434
20
-0.224637
11
0.988706
21
-0.216909
0
LINE
8
BLACK
6
CONTINUOUS
10
0.988706
20
-0.216909
11
0.99517
21
-0.210145
0
LINE
8
BLACK
6
CONTINUOUS
10
0.99517
20
-0.210145
11
1.00265
21
-0.204528
0
LINE
8
BLACK
6
CONTINUOUS
10
1.00265
20
-0.204528
11
1.01095
21
-0.200209
0
LINE
8
BLACK
6
CONTINUOUS
10
1.01095
20
-0.200209
11
1.01984
21
-0.197302
0
LINE
8
BLACK
6
CONTINUOUS
10
1.01984
20
-0.197302
11
1.02909
21
-0.195887
0
LINE
8
BLACK
6
CONTINUOUS
10
1.02909
20
-0.195887
11
1.03844
21
-0.196001
0
LINE
8
BLACK
6
CONTINUOUS
10
0.014917
20
0.125098
11
0.0287686
21
0.122656
0
LINE
8
BLACK
6
CONTINUOUS
10
0.0287686
20
0.122656
11
0.0422616
21
0.118684
0
LINE
8
BLACK
6
CONTINUOUS
10
0.0422616
20
0.118684
11
0.0552279
21
0.113234
0
LINE
8
BLACK
6
CONTINUOUS
10
0.0552279
20
0.113234
11
0.0675057
21
0.106372
0
LINE
8
BLACK
6
CONTINUOUS
10
0.0675057
20
0.106372
11
0.0789422
21
0.0981843
0
LINE
8
BLACK
6
CONTINUOUS
10
0.0789422
20
0.0981843
11
0.0893947
21
0.0887728
0
LINE
8
BLACK
6
CONTINUOUS
10
0.0893947
20
0.0887728
11
0.098733
21
0.0782548
0
LINE
8
BLACK
6
CONTINUOUS
10
0.098733
20
0.0782548
11
0.106841
21
0.0667615
0
LINE
8
BLACK
6
CONTINUOUS
10
0.106841
20
0.0667615
11
0.113617
21
0.054436
0
LINE
8
BLACK
6
CONTINUOUS
10
0.113617
20
0.054436
11
0.118977
21
0.041432
0
LINE
8
BLACK
6
CONTINUOUS
10
0.118977
20
0.041432
11
0.122853
21
0.0279116
0
LINE
8
BLACK
6
CONTINUOUS
10
0.122853
20
0.0279116
11
0.125199
21
0.0140433
0
LINE
8
BLACK
6
CONTINUOUS
10
0.125199
20
0.0140433
11
0.125984
21
0
0
LINE
8
BLACK
6
CONTINUOUS
10
0.125984
20
0
11
0.125935
21
-0.00351768
0
LINE
8
BLACK
6
CONTINUOUS
10
0.125935
20
-0.00351768
11
0.124758
21
-0.0175336
0
LINE
8
BLACK
6
CONTINUOUS
10
0.124758
20
-0.0175336
11
0.122026
21
-0.031331
0
LINE
8
BLACK
6
CONTINUOUS
10
0.122026
20
-0.031331
11
0.117773
21
-0.0447379
0
LINE
8
BLACK
6
CONTINUOUS
10
0.117773
20
-0.0447379
11
0.112052
21
-0.0575871
0
LINE
8
BLACK
6
CONTINUOUS
10
0.112052
20
-0.0575871
11
0.104935
21
-0.0697186
0
LINE
8
BLACK
6
CONTINUOUS
10
0.104935
20
-0.0697186
11
0.0965095
21
-0.0809811
0
LINE
8
BLACK
6
CONTINUOUS
10
0.0965095
20
-0.0809811
11
0.0868812
21
-0.0912343
0
LINE
8
BLACK
6
CONTINUOUS
10
0.0868812
20
-0.0912343
11
0.07617
21
-0.10035
0
LINE
8
BLACK
6
CONTINUOUS
10
0.07617
20
-0.10035
11
0.0645093
21
-0.108215
0
LINE
8
BLACK
6
CONTINUOUS
10
0.0645093
20
-0.108215
11
0.0520446
21
-0.114732
0
LINE
8
BLACK
6
CONTINUOUS
10
0.0520446
20
-0.114732
11
0.0389313
21
-0.119818
0
LINE
8
BLACK
6
CONTINUOUS
10
0.0389313
20
-0.119818
11
0.0253326
21
-0.123411
0
LINE
8
BLACK
6
CONTINUOUS
10
0.0253326
20
-0.123411
11
0.0114183
21
-0.125466
0
LINE
8
BLACK
6
CONTINUOUS
10
0.0114183
20
-0.125466
11
-0.00263843
21
-0.125957
0
LINE
8
BLACK
6
CONTINUOUS
10
-0.00263843
20
-0.125957
11
-0.0166622
21
-0.124878
0
LINE
8
BLACK
6
CONTINUOUS
10
-0.0166622
20
-0.124878
11
-0.0304783
21
-0.122242
0
LINE
8
BLACK
6
CONTINUOUS
10
-0.0304783
20
-0.122242
11
-0.0439146
21
-0.118083
0
LINE
8
BLACK
6
CONTINUOUS
10
-0.0439146
20
-0.118083
11
-0.0568035
21
-0.112452
0
LINE
8
BLACK
6
CONTINUOUS
10
-0.0568035
20
-0.112452
11
-0.0689843
21
-0.105419
0
LINE
8
BLACK
6
CONTINUOUS
10
-0.0689843
20
-0.105419
11
-0.0803054
21
-0.0970725
0
LINE
8
BLACK
6
CONTINUOUS
10
-0.0803054
20
-0.0970725
11
-0.0906255
21
-0.087516
0
LINE
8
BLACK
6
CONTINUOUS
10
-0.0906255
20
-0.087516
11
-0.099816
21
-0.0768687
0
LINE
8
BLACK
6
CONTINUOUS
10
-0.099816
20
-0.0768687
11
-0.107762
21
-0.0652632
0
LINE
8
BLACK
6
CONTINUOUS
10
-0.107762
20
-0.0652632
11
-0.114366
21
-0.0528444
0
LINE
8
BLACK
6
CONTINUOUS
10
-0.114366
20
-0.0528444
11
-0.119543
21
-0.0397668
0
LINE
8
BLACK
6
CONTINUOUS
10
-0.119543
20
-0.0397668
11
-0.123231
21
-0.0261936
0
LINE
8
BLACK
6
CONTINUOUS
10
-0.123231
20
-0.0261936
11
-0.125383
21
-0.0122939
0
LINE
8
BLACK
6
CONTINUOUS
10
-0.125383
20
-0.0122939
11
-0.125972
21
0.00175902
0
LINE
8
BLACK
6
CONTINUOUS
10
-0.125972
20
0.00175902
11
-0.124991
21
0.01579
0
LINE
8
BLACK
6
CONTINUOUS
10
-0.124991
20
0.01579
11
-0.122452
21
0.0296242
0
LINE
8
BLACK
6
CONTINUOUS
10
-0.122452
20
0.0296242
11
-0.118386
21
0.0430891
0
LINE
8
BLACK
6
CONTINUOUS
10
-0.118386
20
0.0430891
11
-0.112846
21
0.056017
0
LINE
8
BLACK
6
CONTINUOUS
10
-0.112846
20
0.056017
11
-0.105898
21
0.0682467
0
LINE
8
BLACK
6
CONTINUOUS
10
-0.105898
20
0.0682467
11
-0.0976308
21
0.0796257
0
LINE
8
BLACK
6
CONTINUOUS
10
-0.0976308
20
0.0796257
11
-0.0881466
21
0.0900123
0
LINE
8
BLACK
6
CONTINUOUS
10
-0.0881466
20
0.0900123
11
-0.0775637
21
0.0992769
0
LINE
8
BLACK
6
CONTINUOUS
10
-0.0775637
20
0.0992769
11
-0.066014
21
0.107304
0
LINE
8
BLACK
6
CONTINUOUS
10
-0.066014
20
0.107304
11
-0.0536415
21
0.113994
0
LINE
8
BLACK
6
CONTINUOUS
10
-0.0536415
20
0.113994
11
-0.0406004
21
0.119263
0
LINE
8
BLACK
6
CONTINUOUS
10
-0.0406004
20
0.119263
11
-0.0270533
21
0.123045
0
LINE
8
BLACK
6
CONTINUOUS
10
-0.0270533
20
0.123045
11
-0.0131689
21
0.125294
0
LINE
8
BLACK
6
CONTINUOUS
10
-0.0131689
20
0.125294
11
0.000879528
21
0.125981
0
LINE
8
BLACK
6
CONTINUOUS
10
0.000879528
20
0.125981
11
0.014917
21
0.125098
0
LINE
8
BLACK
6
CONTINUOUS
10
2.41492
20
0.125098
11
2.42877
21
0.122656
0
LINE
8
BLACK
6
CONTINUOUS
10
2.42877
20
0.122656
11
2.44226
21
0.118684
0
LINE
8
BLACK
6
CONTINUOUS
10
2.44226
20
0.118684
11
2.45523
21
0.113234
0
LINE
8
BLACK
6
CONTINUOUS
10
2.45523
20
0.113234
11
2.46751
21
0.106372
0
LINE
8
BLACK
6
CONTINUOUS
10
2.46751
20
0.106372
11
2.47894
21
0.0981843
0
LINE
8
BLACK
6
CONTINUOUS
10
2.47894
20
0.0981843
11
2.48939
21
0.0887728
0
LINE
8
BLACK
6
CONTINUOUS
10
2.48939
20
0.0887728
11
2.49873
21
0.0782548
0
LINE
8
BLACK
6
CONTINUOUS
10
2.49873
20
0.0782548
11
2.50684
21
0.0667615
0
LINE
8
BLACK
6
CONTINUOUS
10
2.50684
20
0.0667615
11
2.51362
21
0.054436
0
LINE
8
BLACK
6
CONTINUOUS
10
2.51362
20
0.054436
11
2.51898
21
0.041432
0
LINE
8
BLACK
6
CONTINUOUS
10
2.51898
20
0.041432
11
2.52285
21
0.0279116
0
LINE
8
BLACK
6
CONTINUOUS
10
2.52285
20
0.0279116
11
2.5252
21
0.0140433
0
LINE
8
BLACK
6
CONTINUOUS
10
2.5252
20
0.0140433
11
2.52598
21
0
0
LINE
8
BLACK
6
CONTINUOUS
10
2.52598
20
0
11
2.52594
21
-0.00351768
0
LINE
8
BLACK
6
CONTINUOUS
10
2.52594
20
-0.00351768
11
2.52476
21
-0.0175336
0
LINE
8
BLACK
6
CONTINUOUS
10
2.52476
20
-0.0175336
11
2.52203
21
-0.031331
0
LINE
8
BLACK
6
CONTINUOUS
10
2.52203
20
-0.031331
11
2.51777
21
-0.0447379
0
LINE
8
BLACK
6
CONTINUOUS
10
2.51777
20
-0.0447379
11
2.51205
21
-0.0575871
0
LINE
8
BLACK
6
CONTINUOUS
10
2.51205
20
-0.0575871
11
2.50493
21
-0.0697186
0
LINE
8
BLACK
6
CONTINUOUS
10
2.50493
20
-0.0697186
11
2.49651
21
-0.0809811
0
LINE
8
BLACK
6
CONTINUOUS
10
2.49651
20
-0.0809811
11
2.48688
21
-0.0912343
0
LINE
8
BLACK
6
CONTINUOUS
10
2.48688
20
-0.0912343
11
2.47617
21
-0.10035
0
LINE
8
BLACK
6
CONTINUOUS
10
2.47617
20
-0.10035
11
2.46451
21
-0.108215
0
LINE
8
BLACK
6
CONTINUOUS
10
2.46451
20
-0.108215
11
2.45204
21
-0.114732
0
LINE
8
BLACK
6
CONTINUOUS
10
2.45204
20
-0.114732
11
2.43893
21
-0.119818
0
LINE
8
BLACK
6
CONTINUOUS
10
2.43893
20
-0.119818
11
2.42533
21
-0.123411
0
LINE
8
BLACK
6
CONTINUOUS
10
2.42533
20
-0.123411
11
2.41142
21
-0.125466
0
LINE
8
BLACK
6
CONTINUOUS
10
2.41142
20
-0.125466
11
2.39736
21
-0.125957
0
LINE
8
BLACK
6
CONTINUOUS
10
2.39736
20
-0.125957
11
2.38334
21
-0.124878
0
LINE
8
BLACK
6
CONTINUOUS
10
2.38334
20
-0.124878
11
2.36952
21
-0.122242
0
LINE
8
BLACK
6
CONTINUOUS
10
2.36952
20
-0.122242
11
2.35609
21
-0.118083
0
LINE
8
BLACK
6
CONTINUOUS
10
2.35609
20
-0.118083
11
2.3432
21
-0.112452
0
LINE
8
BLACK
6
CONTINUOUS
10
2.3432
20
-0.112452
11
2.33102
21
-0.105419
0
LINE
8
BLACK
6
CONTINUOUS
10
2.33102
20
-0.105419
11
2.31969
21
-0.0970725
0
LINE
8
BLACK
6
CONTINUOUS
10
2.31969
20
-0.0970725
11
2.30937
21
-0.087516
0
LINE
8
BLACK
6
CONTINUOUS
10
2.30937
20
-0.087516
11
2.30018
21
-0.0768687
0
LINE
8
BLACK
6
CONTINUOUS
10
2.30018
20
-0.0768687
11
2.29224
21
-0.0652632
0
LINE
8
BLACK
6
CONTINUOUS
10
2.29224
20
-0.0652632
11
2.28563
21
-0.0528444
0
LINE
8
BLACK
6
CONTINUOUS
10
2.28563
20
-0.0528444
11
2.28046
21
-0.0397668
0
LINE
8
BLACK
6
CONTINUOUS
10
2.28046
20
-0.0397668
11
2.27677
21
-0.0261936
0
LINE
8
BLACK
6
CONTINUOUS
10
2.27677
20
-0.0261936
11
2.27462
21
-0.0122939
0
LINE
8
BLACK
6
CONTINUOUS
10
2.27462
20
-0.0122939
11
2.27403
21
0.00175902
0
LINE
8
BLACK
6
CONTINUOUS
10
2.27403
20
0.00175902
11
2.27501
21
0.01579
0
LINE
8
BLACK
6
CONTINUOUS
10
2.27501
20
0.01579
11
2.27755
21
0.0296242
0
LINE
8
BLACK
6
CONTINUOUS
10
2.27755
20
0.0296242
11
2.28161
21
0.0430891
0
LINE
8
BLACK
6
CONTINUOUS
10
2.28161
20
0.0430891
11
2.28715
21
0.056017
0
LINE
8
BLACK
6
CONTINUOUS
10
2.28715
20
0.056017
11
2.2941
21
0.0682467
0
LINE
8
BLACK
6
CONTINUOUS
10
2.2941
20
0.0682467
11
2.30237
21
0.0796257
0
LINE
8
BLACK
6
CONTINUOUS
10
2.30237
20
0.0796257
11
2.31185
21
0.0900123
0
LINE
8
BLACK
6
CONTINUOUS
10
2.31185
20
0.0900123
11
2.32244
21
0.0992769
0
LINE
8
BLACK
6
CONTINUOUS
10
2.32244
20
0.0992769
11
2.33399
21
0.107304
0
LINE
8
BLACK
6
CONTINUOUS
10
2.33399
20
0.107304
11
2.34636
21
0.113994
0
LINE
8
BLACK
6
CONTINUOUS
10
2.34636
20
0.113994
11
2.3594
21
0.119263
0
LINE
8
BLACK
6
CONTINUOUS
10
2.3594
20
0.119263
11
2.37295
21
0.123045
0
LINE
8
BLACK
6
CONTINUOUS
10
2.37295
20
0.123045
11
2.38683
21
0.125294
0
LINE
8
BLACK
6
CONTINUOUS
10
2.38683
20
0.125294
11
2.40088
21
0.125981
0
LINE
8
BLACK
6
CONTINUOUS
10
2.40088
20
0.125981
11
2.41492
21
0.125098
0
LINE
8
BLACK
6
CONTINUOUS
10
0.793013
20
-0.00272535
11
0.795568
21
-0.00443224
0
LINE
8
BLACK
6
CONTINUOUS
10
0.795568
20
-0.00443224
11
0.797275
21
-0.00698673
0
LINE
8
BLACK
6
CONTINUOUS
10
0.797275
20
-0.00698673
11
0.797874
21
-0.01
0
LINE
8
BLACK
6
CONTINUOUS
10
0.797874
20
-0.01
11
0.797874
21
-0.07
0
LINE
8
BLACK
6
CONTINUOUS
10
0.797874
20
-0.07
11
0.797275
21
-0.0730133
0
LINE
8
BLACK
6
CONTINUOUS
10
0.797275
20
-0.0730133
11
0.795568
21
-0.0755678
0
LINE
8
BLACK
6
CONTINUOUS
10
0.795568
20
-0.0755678
11
0.793013
21
-0.0772746
0
LINE
8
BLACK
6
CONTINUOUS
10
0.793013
20
-0.0772746
11
0.79
21
-0.077874
0
LINE
8
BLACK
6
CONTINUOUS
10
0.79
20
-0.077874
11
0.73
21
-0.077874
0
LINE
8
BLACK
6
CONTINUOUS
10
0.73
20
-0.077874
11
0.726987
21
-0.0772746
0
LINE
8
BLACK
6
CONTINUOUS
10
0.726987
20
-0.0772746
11
0.724432
21
-0.0755678
0
LINE
8
BLACK
6
CONTINUOUS
10
0.724432
20
-0.0755678
11
0.722725
21
-0.0730133
0
LINE
8
BLACK
6
CONTINUOUS
10
0.722725
20
-0.0730133
11
0.722126
21
-0.07
0
LINE
8
BLACK
6
CONTINUOUS
10
0.722126
20
-0.07
11
0.722126
21
-0.01
0
LINE
8
BLACK
6
CONTINUOUS
10
0.722126
20
-0.01
11
0.722725
21
-0.00698673
0
LINE
8
BLACK
6
CONTINUOUS
10
0.722725
20
-0.00698673
11
0.724432
21
-0.00443224
0
LINE
8
BLACK
6
CONTINUOUS
10
0.724432
20
-0.00443224
11
0.726987
21
-0.00272535
0
LINE
8
BLACK
6
CONTINUOUS
10
0.726987
20
-0.00272535
11
0.73
21
-0.00212598
0
LINE
8
BLACK
6
CONTINUOUS
10
0.73
20
-0.00212598
11
0.79
21
-0.00212598
0
LINE
8
BLACK
6
CONTINUOUS
10
0.79
20
-0.00212598
11
0.793013
21
-0.00272535
0
LINE
8
BLACK
6
CONTINUOUS
10
0.263013
20
-0.00272535
11
0.265568
21
-0.00443224
0
LINE
8
BLACK
6
CONTINUOUS
10
0.265568
20
-0.00443224
11
0.267275
21
-0.00698673
0
LINE
8
BLACK
6
CONTINUOUS
10
0.267275
20
-0.00698673
11
0.267874
21
-0.01
0
LINE
8
BLACK
6
CONTINUOUS
10
0.267874
20
-0.01
11
0.267874
21
-0.07
0
LINE
8
BLACK
6
CONTINUOUS
10
0.267874
20
-0.07
11
0.267275
21
-0.0730133
0
LINE
8
BLACK
6
CONTINUOUS
10
0.267275
20
-0.0730133
11
0.265568
21
-0.0755678
0
LINE
8
BLACK
6
CONTINUOUS
10
0.265568
20
-0.0755678
11
0.263013
21
-0.0772746
0
LINE
8
BLACK
6
CONTINUOUS
10
0.263013
20
-0.0772746
11
0.26
21
-0.077874
0
LINE
8
BLACK
6
CONTINUOUS
10
0.26
20
-0.077874
11
0.2
21
-0.077874
0
LINE
8
BLACK
6
CONTINUOUS
10
0.2
20
-0.077874
11
0.196987
21
-0.0772746
0
LINE
8
BLACK
6
CONTINUOUS
10
0.196987
20
-0.0772746
11
0.194432
21
-0.0755678
0
LINE
8
BLACK
6
CONTINUOUS
10
0.194432
20
-0.0755678
11
0.192725
21
-0.0730133
0
LINE
8
BLACK
6
CONTINUOUS
10
0.192725
20
-0.0730133
11
0.192126
21
-0.07
0
LINE
8
BLACK
6
CONTINUOUS
10
0.192126
20
-0.07
11
0.192126
21
-0.01
0
LINE
8
BLACK
6
CONTINUOUS
10
0.192126
20
-0.01
11
0.192725
21
-0.00698673
0
LINE
8
BLACK
6
CONTINUOUS
10
0.192725
20
-0.00698673
11
0.194432
21
-0.00443224
0
LINE
8
BLACK
6
CONTINUOUS
10
0.194432
20
-0.00443224
11
0.196987
21
-0.00272535
0
LINE
8
BLACK
6
CONTINUOUS
10
0.196987
20
-0.00272535
11
0.2
21
-0.00212598
0
LINE
8
BLACK
6
CONTINUOUS
10
0.2
20
-0.00212598
11
0.26
21
-0.00212598
0
LINE
8
BLACK
6
CONTINUOUS
10
0.26
20
-0.00212598
11
0.263013
21
-0.00272535
0
LINE
8
BLACK
6
CONTINUOUS
10
0.893013
20
-0.00272535
11
0.895568
21
-0.00443224
0
LINE
8
BLACK
6
CONTINUOUS
10
0.895568
20
-0.00443224
11
0.897275
21
-0.00698673
0
LINE
8
BLACK
6
CONTINUOUS
10
0.897275
20
-0.00698673
11
0.897874
21
-0.01
0
LINE
8
BLACK
6
CONTINUOUS
10
0.897874
20
-0.01
11
0.897874
21
-0.07
0
LINE
8
BLACK
6
CONTINUOUS
10
0.897874
20
-0.07
11
0.897275
21
-0.0730133
0
LINE
8
BLACK
6
CONTINUOUS
10
0.897275
20
-0.0730133
11
0.895568
21
-0.0755678
0
LINE
8
BLACK
6
CONTINUOUS
10
0.895568
20
-0.0755678
11
0.893013
21
-0.0772746
0
LINE
8
BLACK
6
CONTINUOUS
10
0.893013
20
-0.0772746
11
0.89
21
-0.077874
0
LINE
8
BLACK
6
CONTINUOUS
10
0.89
20
-0.077874
11
0.83
21
-0.077874
0
LINE
8
BLACK
6
CONTINUOUS
10
0.83
20
-0.077874
11
0.826987
21
-0.0772746
0
LINE
8
BLACK
6
CONTINUOUS
10
0.826987
20
-0.0772746
11
0.824432
21
-0.0755678
0
LINE
8
BLACK
6
CONTINUOUS
10
0.824432
20
-0.0755678
11
0.822725
21
-0.0730133
0
LINE
8
BLACK
6
CONTINUOUS
10
0.822725
20
-0.0730133
11
0.822126
21
-0.07
0
LINE
8
BLACK
6
CONTINUOUS
10
0.822126
20
-0.07
11
0.822126
21
-0.01
0
LINE
8
BLACK
6
CONTINUOUS
10
0.822126
20
-0.01
11
0.822725
21
-0.00698673
0
LINE
8
BLACK
6
CONTINUOUS
10
0.822725
20
-0.00698673
11
0.824432
21
-0.00443224
0
LINE
8
BLACK
6
CONTINUOUS
10
0.824432
20
-0.00443224
11
0.826987
21
-0.00272535
0
LINE
8
BLACK
6
CONTINUOUS
10
0.826987
20
-0.00272535
11
0.83
21
-0.00212598
0
LINE
8
BLACK
6
CONTINUOUS
10
0.83
20
-0.00212598
11
0.89
21
-0.00212598
0
LINE
8
BLACK
6
CONTINUOUS
10
0.89
20
-0.00212598
11
0.893013
21
-0.00272535
0
LINE
8
BLACK
6
CONTINUOUS
10
0.693013
20
-0.00272535
11
0.695568
21
-0.00443224
0
LINE
8
BLACK
6
CONTINUOUS
10
0.695568
20
-0.00443224
11
0.697275
21
-0.00698673
0
LINE
8
BLACK
6
CONTINUOUS
10
0.697275
20
-0.00698673
11
0.697874
21
-0.01
0
LINE
8
BLACK
6
CONTINUOUS
10
0.697874
20
-0.01
11
0.697874
21
-0.07
0
LINE
8
BLACK
6
CONTINUOUS
10
0.697874
20
-0.07
11
0.697275
21
-0.0730133
0
LINE
8
BLACK
6
CONTINUOUS
10
0.697275
20
-0.0730133
11
0.695568
21
-0.0755678
0
LINE
8
BLACK
6
CONTINUOUS
10
0.695568
20
-0.0755678
11
0.693013
21
-0.0772746
0
LINE
8
BLACK
6
CONTINUOUS
10
0.693013
20
-0.0772746
11
0.69
21
-0.077874
0
LINE
8
BLACK
6
CONTINUOUS
10
0.69
20
-0.077874
11
0.63
21
-0.077874
0
LINE
8
BLACK
6
CONTINUOUS
10
0.63
20
-0.077874
11
0.626987
21
-0.0772746
0
LINE
8
BLACK
6
CONTINUOUS
10
0.626987
20
-0.0772746
11
0.624432
21
-0.0755678
0
LINE
8
BLACK
6
CONTINUOUS
10
0.624432
20
-0.0755678
11
0.622725
21
-0.0730133
0
LINE
8
BLACK
6
CONTINUOUS
10
0.622725
20
-0.0730133
11
0.622126
21
-0.07
0
LINE
8
BLACK
6
CONTINUOUS
10
0.622126
20
-0.07
11
0.622126
21
-0.01
0
LINE
8
BLACK
6
CONTINUOUS
10
0.622126
20
-0.01
11
0.622725
21
-0.00698673
0
LINE
8
BLACK
6
CONTINUOUS
10
0.622725
20
-0.00698673
11
0.624432
21
-0.00443224
0
LINE
8
BLACK
6
CONTINUOUS
10
0.624432
20
-0.00443224
11
0.626987
21
-0.00272535
0
LINE
8
BLACK
6
CONTINUOUS
10
0.626987
20
-0.00272535
11
0.63
21
-0.00212598
0
LINE
8
BLACK
6
CONTINUOUS
10
0.63
20
-0.00212598
11
0.69
21
-0.00212598
0
LINE
8
BLACK
6
CONTINUOUS
10
0.69
20
-0.00212598
11
0.693013
21
-0.00272535
0
LINE
8
BLACK
6
CONTINUOUS
10
0.593013
20
-0.00272535
11
0.595568
21
-0.00443224
0
LINE
8
BLACK
6
CONTINUOUS
10
0.595568
20
-0.00443224
11
0.597275
21
-0.00698673
0
LINE
8
BLACK
6
CONTINUOUS
10
0.597275
20
-0.00698673
11
0.597874
21
-0.01
0
LINE
8
BLACK
6
CONTINUOUS
10
0.597874
20
-0.01
11
0.597874
21
-0.07
0
LINE
8
BLACK
6
CONTINUOUS
10
0.597874
20
-0.07
11
0.597275
21
-0.0730133
0
LINE
8
BLACK
6
CONTINUOUS
10
0.597275
20
-0.0730133
11
0.595568
21
-0.0755678
0
LINE
8
BLACK
6
CONTINUOUS
10
0.595568
20
-0.0755678
11
0.593013
21
-0.0772746
0
LINE
8
BLACK
6
CONTINUOUS
10
0.593013
20
-0.0772746
11
0.59
21
-0.077874
0
LINE
8
BLACK
6
CONTINUOUS
10
0.59
20
-0.077874
11
0.53
21
-0.077874
0
LINE
8
BLACK
6
CONTINUOUS
10
0.53
20
-0.077874
11
0.526987
21
-0.0772746
0
LINE
8
BLACK
6
CONTINUOUS
10
0.526987
20
-0.0772746
11
0.524432
21
-0.0755678
0
LINE
8
BLACK
6
CONTINUOUS
10
0.524432
20
-0.0755678
11
0.522725
21
-0.0730133
0
LINE
8
BLACK
6
CONTINUOUS
10
0.522725
20
-0.0730133
11
0.522126
21
-0.07
0
LINE
8
BLACK
6
CONTINUOUS
10
0.522126
20
-0.07
11
0.522126
21
-0.01
0
LINE
8
BLACK
6
CONTINUOUS
10
0.522126
20
-0.01
11
0.522725
21
-0.00698673
0
LINE
8
BLACK
6
CONTINUOUS
10
0.522725
20
-0.00698673
11
0.524432
21
-0.00443224
0
LINE
8
BLACK
6
CONTINUOUS
10
0.524432
20
-0.00443224
11
0.526987
21
-0.00272535
0
LINE
8
BLACK
6
CONTINUOUS
10
0.526987
20
-0.00272535
11
0.53
21
-0.00212598
0
LINE
8
BLACK
6
CONTINUOUS
10
0.53
20
-0.00212598
11
0.59
21
-0.00212598
0
LINE
8
BLACK
6
CONTINUOUS
10
0.59
20
-0.00212598
11
0.593013
21
-0.00272535
0
LINE
8
BLACK
6
CONTINUOUS
10
0.493013
20
-0.00272535
11
0.495568
21
-0.00443224
0
LINE
8
BLACK
6
CONTINUOUS
10
0.495568
20
-0.00443224
11
0.497275
21
-0.00698673
0
LINE
8
BLACK
6
CONTINUOUS
10
0.497275
20
-0.00698673
11
0.497874
21
-0.01
0
LINE
8
BLACK
6
CONTINUOUS
10
0.497874
20
-0.01
11
0.497874
21
-0.07
0
LINE
8
BLACK
6
CONTINUOUS
10
0.497874
20
-0.07
11
0.497275
21
-0.0730133
0
LINE
8
BLACK
6
CONTINUOUS
10
0.497275
20
-0.0730133
11
0.495568
21
-0.0755678
0
LINE
8
BLACK
6
CONTINUOUS
10
0.495568
20
-0.0755678
11
0.493013
21
-0.0772746
0
LINE
8
BLACK
6
CONTINUOUS
10
0.493013
20
-0.0772746
11
0.49
21
-0.077874
0
LINE
8
BLACK
6
CONTINUOUS
10
0.49
20
-0.077874
11
0.43
21
-0.077874
0
LINE
8
BLACK
6
CONTINUOUS
10
0.43
20
-0.077874
11
0.426987
21
-0.0772746
0
LINE
8
BLACK
6
CONTINUOUS
10
0.426987
20
-0.0772746
11
0.424432
21
-0.0755678
0
LINE
8
BLACK
6
CONTINUOUS
10
0.424432
20
-0.0755678
11
0.422725
21
-0.0730133
0
LINE
8
BLACK
6
CONTINUOUS
10
0.422725
20
-0.0730133
11
0.422126
21
-0.07
0
LINE
8
BLACK
6
CONTINUOUS
10
0.422126
20
-0.07
11
0.422126
21
-0.01
0
LINE
8
BLACK
6
CONTINUOUS
10
0.422126
20
-0.01
11
0.422725
21
-0.00698673
0
LINE
8
BLACK
6
CONTINUOUS
10
0.422725
20
-0.00698673
11
0.424432
21
-0.00443224
0
LINE
8
BLACK
6
CONTINUOUS
10
0.424432
20
-0.00443224
11
0.426987
21
-0.00272535
0
LINE
8
BLACK
6
CONTINUOUS
10
0.426987
20
-0.00272535
11
0.43
21
-0.00212598
0
LINE
8
BLACK
6
CONTINUOUS
10
0.43
20
-0.00212598
11
0.49
21
-0.00212598
0
LINE
8
BLACK
6
CONTINUOUS
10
0.49
20
-0.00212598
11
0.493013
21
-0.00272535
0
LINE
8
BLACK
6
CONTINUOUS
10
0.999546
20
0.0702723
11
1.00886
21
0.0680369
0
LINE
8
BLACK
6
CONTINUOUS
10
1.00886
20
0.0680369
11
1.0177
21
0.0643724
0
LINE
8
BLACK
6
CONTINUOUS
10
1.0177
20
0.0643724
11
1.02587
21
0.0593691
0
LINE
8
BLACK
6
CONTINUOUS
10
1.02587
20
0.0593691
11
1.03315
21
0.0531502
0
LINE
8
BLACK
6
CONTINUOUS
10
1.03315
20
0.0531502
11
1.03937
21
0.0458688
0
LINE
8
BLACK
6
CONTINUOUS
10
1.03937
20
0.0458688
11
1.04437
21
0.0377041
0
LINE
8
BLACK
6
CONTINUOUS
10
1.04437
20
0.0377041
11
1.04804
21
0.0288573
0
LINE
8
BLACK
6
CONTINUOUS
10
1.04804
20
0.0288573
11
1.05027
21
0.0195462
0
LINE
8
BLACK
6
CONTINUOUS
10
1.05027
20
0.0195462
11
1.05102
21
0.01
0
LINE
8
BLACK
6
CONTINUOUS
10
1.05102
20
0.01
11
1.05027
21
0.000453819
0
LINE
8
BLACK
6
CONTINUOUS
10
1.05027
20
0.000453819
11
1.04804
21
-0.00885732
0
LINE
8
BLACK
6
CONTINUOUS
10
1.04804
20
-0.00885732
11
1.04437
21
-0.0177041
0
LINE
8
BLACK
6
CONTINUOUS
10
1.04437
20
-0.0177041
11
1.03937
21
-0.0258688
0
LINE
8
BLACK
6
CONTINUOUS
10
1.03937
20
-0.0258688
11
1.03315
21
-0.0331502
0
LINE
8
BLACK
6
CONTINUOUS
10
1.03315
20
-0.0331502
11
1.02587
21
-0.0393691
0
LINE
8
BLACK
6
CONTINUOUS
10
1.02587
20
-0.0393691
11
1.0177
21
-0.0443724
0
LINE
8
BLACK
6
CONTINUOUS
10
1.0177
20
-0.0443724
11
1.00886
21
-0.0480369
0
LINE
8
BLACK
6
CONTINUOUS
10
1.00886
20
-0.0480369
11
0.999546
21
-0.0502723
0
LINE
8
BLACK
6
CONTINUOUS
10
0.999546
20
-0.0502723
11
0.99
21
-0.0510236
0
LINE
8
BLACK
6
CONTINUOUS
10
0.99
20
-0.0510236
11
0.980454
21
-0.0502723
0
LINE
8
BLACK
6
CONTINUOUS
10
0.980454
20
-0.0502723
11
0.971143
21
-0.0480369
0
LINE
8
BLACK
6
CONTINUOUS
10
0.971143
20
-0.0480369
11
0.962296
21
-0.0443724
0
LINE
8
BLACK
6
CONTINUOUS
10
0.962296
20
-0.0443724
11
0.954131
21
-0.0393691
0
LINE
8
BLACK
6
CONTINUOUS
10
0.954131
20
-0.0393691
11
0.94685
21
-0.0331502
0
LINE
8
BLACK
6
CONTINUOUS
10
0.94685
20
-0.0331502
11
0.940631
21
-0.0258688
0
LINE
8
BLACK
6
CONTINUOUS
10
0.940631
20
-0.0258688
11
0.935628
21
-0.0177041
0
LINE
8
BLACK
6
CONTINUOUS
10
0.935628
20
-0.0177041
11
0.931963
21
-0.00885732
0
LINE
8
BLACK
6
CONTINUOUS
10
0.931963
20
-0.00885732
11
0.929728
21
0.000453819
0
LINE
8
BLACK
6
CONTINUOUS
10
0.929728
20
0.000453819
11
0.928976
21
0.01
0
LINE
8
BLACK
6
CONTINUOUS
10
0.928976
20
0.01
11
0.929728
21
0.0195462
0
LINE
8
BLACK
6
CONTINUOUS
10
0.929728
20
0.0195462
11
0.931963
21
0.0288573
0
LINE
8
BLACK
6
CONTINUOUS
10
0.931963
20
0.0288573
11
0.935628
21
0.0377041
0
LINE
8
BLACK
6
CONTINUOUS
10
0.935628
20
0.0377041
11
0.940631
21
0.0458688
0
LINE
8
BLACK
6
CONTINUOUS
10
0.940631
20
0.0458688
11
0.94685
21
0.0531502
0
LINE
8
BLACK
6
CONTINUOUS
10
0.94685
20
0.0531502
11
0.954131
21
0.0593691
0
LINE
8
BLACK
6
CONTINUOUS
10
0.954131
20
0.0593691
11
0.962296
21
0.0643724
0
LINE
8
BLACK
6
CONTINUOUS
10
0.962296
20
0.0643724
11
0.971143
21
0.0680369
0
LINE
8
BLACK
6
CONTINUOUS
10
0.971143
20
0.0680369
11
0.980454
21
0.0702723
0
LINE
8
BLACK
6
CONTINUOUS
10
0.980454
20
0.0702723
11
0.99
21
0.0710236
0
LINE
8
BLACK
6
CONTINUOUS
10
0.99
20
0.0710236
11
0.999546
21
0.0702723
0
LINE
8
BLACK
6
CONTINUOUS
10
0.893013
20
0.0972746
11
0.895568
21
0.0955678
0
LINE
8
BLACK
6
CONTINUOUS
10
0.895568
20
0.0955678
11
0.897275
21
0.0930133
0
LINE
8
BLACK
6
CONTINUOUS
10
0.897275
20
0.0930133
11
0.897874
21
0.09
0
LINE
8
BLACK
6
CONTINUOUS
10
0.897874
20
0.09
11
0.897874
21
0.03
0
LINE
8
BLACK
6
CONTINUOUS
10
0.897874
20
0.03
11
0.897275
21
0.0269867
0
LINE
8
BLACK
6
CONTINUOUS
10
0.897275
20
0.0269867
11
0.895568
21
0.0244322
0
LINE
8
BLACK
6
CONTINUOUS
10
0.895568
20
0.0244322
11
0.893013
21
0.0227254
0
LINE
8
BLACK
6
CONTINUOUS
10
0.893013
20
0.0227254
11
0.89
21
0.022126
0
LINE
8
BLACK
6
CONTINUOUS
10
0.89
20
0.022126
11
0.83
21
0.022126
0
LINE
8
BLACK
6
CONTINUOUS
10
0.83
20
0.022126
11
0.826987
21
0.0227254
0
LINE
8
BLACK
6
CONTINUOUS
10
0.826987
20
0.0227254
11
0.824432
21
0.0244322
0
LINE
8
BLACK
6
CONTINUOUS
10
0.824432
20
0.0244322
11
0.822725
21
0.0269867
0
LINE
8
BLACK
6
CONTINUOUS
10
0.822725
20
0.0269867
11
0.822126
21
0.03
0
LINE
8
BLACK
6
CONTINUOUS
10
0.822126
20
0.03
11
0.822126
21
0.09
0
LINE
8
BLACK
6
CONTINUOUS
10
0.822126
20
0.09
11
0.822725
21
0.0930133
0
LINE
8
BLACK
6
CONTINUOUS
10
0.822725
20
0.0930133
11
0.824432
21
0.0955678
0
LINE
8
BLACK
6
CONTINUOUS
10
0.824432
20
0.0955678
11
0.826987
21
0.0972746
0
LINE
8
BLACK
6
CONTINUOUS
10
0.826987
20
0.0972746
11
0.83
21
0.097874
0
LINE
8
BLACK
6
CONTINUOUS
10
0.83
20
0.097874
11
0.89
21
0.097874
0
LINE
8
BLACK
6
CONTINUOUS
10
0.89
20
0.097874
11
0.893013
21
0.0972746
0
LINE
8
BLACK
6
CONTINUOUS
10
0.263013
20
0.0972746
11
0.265568
21
0.0955678
0
LINE
8
BLACK
6
CONTINUOUS
10
0.265568
20
0.0955678
11
0.267275
21
0.0930133
0
LINE
8
BLACK
6
CONTINUOUS
10
0.267275
20
0.0930133
11
0.267874
21
0.09
0
LINE
8
BLACK
6
CONTINUOUS
10
0.267874
20
0.09
11
0.267874
21
0.03
0
LINE
8
BLACK
6
CONTINUOUS
10
0.267874
20
0.03
11
0.267275
21
0.0269867
0
LINE
8
BLACK
6
CONTINUOUS
10
0.267275
20
0.0269867
11
0.265568
21
0.0244322
0
LINE
8
BLACK
6
CONTINUOUS
10
0.265568
20
0.0244322
11
0.263013
21
0.0227254
0
LINE
8
BLACK
6
CONTINUOUS
10
0.263013
20
0.0227254
11
0.26
21
0.022126
0
LINE
8
BLACK
6
CONTINUOUS
10
0.26
20
0.022126
11
0.2
21
0.022126
0
LINE
8
BLACK
6
CONTINUOUS
10
0.2
20
0.022126
11
0.196987
21
0.0227254
0
LINE
8
BLACK
6
CONTINUOUS
10
0.196987
20
0.0227254
11
0.194432
21
0.0244322
0
LINE
8
BLACK
6
CONTINUOUS
10
0.194432
20
0.0244322
11
0.192725
21
0.0269867
0
LINE
8
BLACK
6
CONTINUOUS
10
0.192725
20
0.0269867
11
0.192126
21
0.03
0
LINE
8
BLACK
6
CONTINUOUS
10
0.192126
20
0.03
11
0.192126
21
0.09
0
LINE
8
BLACK
6
CONTINUOUS
10
0.192126
20
0.09
11
0.192725
21
0.0930133
0
LINE
8
BLACK
6
CONTINUOUS
10
0.192725
20
0.0930133
11
0.194432
21
0.0955678
0
LINE
8
BLACK
6
CONTINUOUS
10
0.194432
20
0.0955678
11
0.196987
21
0.0972746
0
LINE
8
BLACK
6
CONTINUOUS
10
0.196987
20
0.0972746
11
0.2
21
0.097874
0
LINE
8
BLACK
6
CONTINUOUS
10
0.2
20
0.097874
11
0.26
21
0.097874
0
LINE
8
BLACK
6
CONTINUOUS
10
0.26
20
0.097874
11
0.263013
21
0.0972746
0
LINE
8
BLACK
6
CONTINUOUS
10
0.793013
20
0.0972746
11
0.795568
21
0.0955678
0
LINE
8
BLACK
6
CONTINUOUS
10
0.795568
20
0.0955678
11
0.797275
21
0.0930133
0
LINE
8
BLACK
6
CONTINUOUS
10
0.797275
20
0.0930133
11
0.797874
21
0.09
0
LINE
8
BLACK
6
CONTINUOUS
10
0.797874
20
0.09
11
0.797874
21
0.03
0
LINE
8
BLACK
6
CONTINUOUS
10
0.797874
20
0.03
11
0.797275
21
0.0269867
0
LINE
8
BLACK
6
CONTINUOUS
10
0.797275
20
0.0269867
11
0.795568
21
0.0244322
0
LINE
8
BLACK
6
CONTINUOUS
10
0.795568
20
0.0244322
11
0.793013
21
0.0227254
0
LINE
8
BLACK
6
CONTINUOUS
10
0.793013
20
0.0227254
11
0.79
21
0.022126
0
LINE
8
BLACK
6
CONTINUOUS
10
0.79
20
0.022126
11
0.73
21
0.022126
0
LINE
8
BLACK
6
CONTINUOUS
10
0.73
20
0.022126
11
0.726987
21
0.0227254
0
LINE
8
BLACK
6
CONTINUOUS
10
0.726987
20
0.0227254
11
0.724432
21
0.0244322
0
LINE
8
BLACK
6
CONTINUOUS
10
0.724432
20
0.0244322
11
0.722725
21
0.0269867
0
LINE
8
BLACK
6
CONTINUOUS
10
0.722725
20
0.0269867
11
0.722126
21
0.03
0
LINE
8
BLACK
6
CONTINUOUS
10
0.722126
20
0.03
11
0.722126
21
0.09
0
LINE
8
BLACK
6
CONTINUOUS
10
0.722126
20
0.09
11
0.722725
21
0.0930133
0
LINE
8
BLACK
6
CONTINUOUS
10
0.722725
20
0.0930133
11
0.724432
21
0.0955678
0
LINE
8
BLACK
6
CONTINUOUS
10
0.724432
20
0.0955678
11
0.726987
21
0.0972746
0
LINE
8
BLACK
6
CONTINUOUS
10
0.726987
20
0.0972746
11
0.73
21
0.097874
0
LINE
8
BLACK
6
CONTINUOUS
10
0.73
20
0.097874
11
0.79
21
0.097874
0
LINE
8
BLACK
6
CONTINUOUS
10
0.79
20
0.097874
11
0.793013
21
0.0972746
0
LINE
8
BLACK
6
CONTINUOUS
10
0.693013
20
0.0972746
11
0.695568
21
0.0955678
0
LINE
8
BLACK
6
CONTINUOUS
10
0.695568
20
0.0955678
11
0.697275
21
0.0930133
0
LINE
8
BLACK
6
CONTINUOUS
10
0.697275
20
0.0930133
11
0.697874
21
0.09
0
LINE
8
BLACK
6
CONTINUOUS
10
0.697874
20
0.09
11
0.697874
21
0.03
0
LINE
8
BLACK
6
CONTINUOUS
10
0.697874
20
0.03
11
0.697275
21
0.0269867
0
LINE
8
BLACK
6
CONTINUOUS
10
0.697275
20
0.0269867
11
0.695568
21
0.0244322
0
LINE
8
BLACK
6
CONTINUOUS
10
0.695568
20
0.0244322
11
0.693013
21
0.0227254
0
LINE
8
BLACK
6
CONTINUOUS
10
0.693013
20
0.0227254
11
0.69
21
0.022126
0
LINE
8
BLACK
6
CONTINUOUS
10
0.69
20
0.022126
11
0.63
21
0.022126
0
LINE
8
BLACK
6
CONTINUOUS
10
0.63
20
0.022126
11
0.626987
21
0.0227254
0
LINE
8
BLACK
6
CONTINUOUS
10
0.626987
20
0.0227254
11
0.624432
21
0.0244322
0
LINE
8
BLACK
6
CONTINUOUS
10
0.624432
20
0.0244322
11
0.622725
21
0.0269867
0
LINE
8
BLACK
6
CONTINUOUS
10
0.622725
20
0.0269867
11
0.622126
21
0.03
0
LINE
8
BLACK
6
CONTINUOUS
10
0.622126
20
0.03
11
0.622126
21
0.09
0
LINE
8
BLACK
6
CONTINUOUS
10
0.622126
20
0.09
11
0.622725
21
0.0930133
0
LINE
8
BLACK
6
CONTINUOUS
10
0.622725
20
0.0930133
11
0.624432
21
0.0955678
0
LINE
8
BLACK
6
CONTINUOUS
10
0.624432
20
0.0955678
11
0.626987
21
0.0972746
0
LINE
8
BLACK
6
CONTINUOUS
10
0.626987
20
0.0972746
11
0.63
21
0.097874
0
LINE
8
BLACK
6
CONTINUOUS
10
0.63
20
0.097874
11
0.69
21
0.097874
0
LINE
8
BLACK
6
CONTINUOUS
10
0.69
20
0.097874
11
0.693013
21
0.0972746
0
LINE
8
BLACK
6
CONTINUOUS
10
0.593013
20
0.0972746
11
0.595568
21
0.0955678
0
LINE
8
BLACK
6
CONTINUOUS
10
0.595568
20
0.0955678
11
0.597275
21
0.0930133
0
LINE
8
BLACK
6
CONTINUOUS
10
0.597275
20
0.0930133
11
0.597874
21
0.09
0
LINE
8
BLACK
6
CONTINUOUS
10
0.597874
20
0.09
11
0.597874
21
0.03
0
LINE
8
BLACK
6
CONTINUOUS
10
0.597874
20
0.03
11
0.597275
21
0.0269867
0
LINE
8
BLACK
6
CONTINUOUS
10
0.597275
20
0.0269867
11
0.595568
21
0.0244322
0
LINE
8
BLACK
6
CONTINUOUS
10
0.595568
20
0.0244322
11
0.593013
21
0.0227254
0
LINE
8
BLACK
6
CONTINUOUS
10
0.593013
20
0.0227254
11
0.59
21
0.022126
0
LINE
8
BLACK
6
CONTINUOUS
10
0.59
20
0.022126
11
0.53
21
0.022126
0
LINE
8
BLACK
6
CONTINUOUS
10
0.53
20
0.022126
11
0.526987
21
0.0227254
0
LINE
8
BLACK
6
CONTINUOUS
10
0.526987
20
0.0227254
11
0.524432
21
0.0244322
0
LINE
8
BLACK
6
CONTINUOUS
10
0.524432
20
0.0244322
11
0.522725
21
0.0269867
0
LINE
8
BLACK
6
CONTINUOUS
10
0.522725
20
0.0269867
11
0.522126
21
0.03
0
LINE
8
BLACK
6
CONTINUOUS
10
0.522126
20
0.03
11
0.522126
21
0.09
0
LINE
8
BLACK
6
CONTINUOUS
10
0.522126
20
0.09
11
0.522725
21
0.0930133
0
LINE
8
BLACK
6
CONTINUOUS
10
0.522725
20
0.0930133
11
0.524432
21
0.0955678
0
LINE
8
BLACK
6
CONTINUOUS
10
0.524432
20
0.0955678
11
0.526987
21
0.0972746
0
LINE
8
BLACK
6
CONTINUOUS
10
0.526987
20
0.0972746
11
0.53
21
0.097874
0
LINE
8
BLACK
6
CONTINUOUS
10
0.53
20
0.097874
11
0.59
21
0.097874
0
LINE
8
BLACK
6
CONTINUOUS
10
0.59
20
0.097874
11
0.593013
21
0.0972746
0
LINE
8
BLACK
6
CONTINUOUS
10
0.493013
20
0.0972746
11
0.495568
21
0.0955678
0
LINE
8
BLACK
6
CONTINUOUS
10
0.495568
20
0.0955678
11
0.497275
21
0.0930133
0
LINE
8
BLACK
6
CONTINUOUS
10
0.497275
20
0.0930133
11
0.497874
21
0.09
0
LINE
8
BLACK
6
CONTINUOUS
10
0.497874
20
0.09
11
0.497874
21
0.03
0
LINE
8
BLACK
6
CONTINUOUS
10
0.497874
20
0.03
11
0.497275
21
0.0269867
0
LINE
8
BLACK
6
CONTINUOUS
10
0.497275
20
0.0269867
11
0.495568
21
0.0244322
0
LINE
8
BLACK
6
CONTINUOUS
10
0.495568
20
0.0244322
11
0.493013
21
0.0227254
0
LINE
8
BLACK
6
CONTINUOUS
10
0.493013
20
0.0227254
11
0.49
21
0.022126
0
LINE
8
BLACK
6
CONTINUOUS
10
0.49
20
0.022126
11
0.43
21
0.022126
0
LINE
8
BLACK
6
CONTINUOUS
10
0.43
20
0.022126
11
0.426987
21
0.0227254
0
LINE
8
BLACK
6
CONTINUOUS
10
0.426987
20
0.0227254
11
0.424432
21
0.0244322
0
LINE
8
BLACK
6
CONTINUOUS
10
0.424432
20
0.0244322
11
0.422725
21
0.0269867
0
LINE
8
BLACK
6
CONTINUOUS
10
0.422725
20
0.0269867
11
0.422126
21
0.03
0
LINE
8
BLACK
6
CONTINUOUS
10
0.422126
20
0.03
11
0.422126
21
0.09
0
LINE
8
BLACK
6
CONTINUOUS
10
0.422126
20
0.09
11
0.422725
21
0.0930133
0
LINE
8
BLACK
6
CONTINUOUS
10
0.422725
20
0.0930133
11
0.424432
21
0.0955678
0
LINE
8
BLACK
6
CONTINUOUS
10
0.424432
20
0.0955678
11
0.426987
21
0.0972746
0
LINE
8
BLACK
6
CONTINUOUS
10
0.426987
20
0.0972746
11
0.43
21
0.097874
0
LINE
8
BLACK
6
CONTINUOUS
10
0.43
20
0.097874
11
0.49
21
0.097874
0
LINE
8
BLACK
6
CONTINUOUS
10
0.49
20
0.097874
11
0.493013
21
0.0972746
  0
ENDSEC
  0
EOF
