  0
SECTION
  2
HEADER
  9
$ANGBASE
  50
0.0
  9
$ANGDIR
  70
1
  9
$MEASUREMENT
  70
0
  0
ENDSEC
  0
SECTION
  2
TABLES
  0
TABLE
  2
LTYPE
  70
4
  0
LTYPE
  5
40F
  2
CONTINUOUS
  70
0
  3
Solid line
  72
65
  73
0
  40
0.0
  0
LTYPE
  5
410
  2
DASHDOT
 70
0
  3
Dash Dot ____ _ ____ _
 72
65
 73
4
 40
2.0
 49
1.25
 49
-0.25
 49
0.25
 49
-0.25
  0
LTYPE
  5
411
  2
DASHED
 70
0
  3
Dashed __ __ __ __ __
 72
65
 73
2
 40
0.75
 49
0.5
 49
-0.25
  0
LTYPE
  5
43B
  2
DOTTED
 70
0
  3
Dotted .  .  .  .
 72
65
 73
2
 40
0.2
 49
0.0
 49
-0.2
  0
ENDTAB
  0
TABLE
  2
STYLE
  70
4
  0
STYLE
  2
KICAD
  70
0
  40
0
  41
1
  42
1
  50
0
  71
0
  3
isocp.shx
  0
STYLE
  2
KICADB
  70
0
  40
0
  41
1
  42
1
  50
0
  71
0
  3
isocp.shx
  0
STYLE
  2
KICADI
  70
0
  40
0
  41
1
  42
1
  50
15
  71
0
  3
isocp.shx
  0
STYLE
  2
KICADBI
  70
0
  40
0
  41
1
  42
1
  50
15
  71
0
  3
isocp.shx
  0
ENDTAB
  0
TABLE
  2
LAYER
  70
1
  0
LAYER
  2
BLACK
  70
0
  62
7
  6
CONTINUOUS
  0
ENDTAB
  0
ENDSEC
  0
SECTION
  2
ENTITIES
0
LINE
8
BLACK
6
CONTINUOUS
10
-0.122078
20
-0.770466
11
-0.118025
21
-0.757042
0
LINE
8
BLACK
6
CONTINUOUS
10
-0.118025
20
-0.757042
11
-0.112501
21
-0.744154
0
LINE
8
BLACK
6
CONTINUOUS
10
-0.112501
20
-0.744154
11
-0.105575
21
-0.731961
0
LINE
8
BLACK
6
CONTINUOUS
10
-0.105575
20
-0.731961
11
-0.097333
21
-0.720617
0
LINE
8
BLACK
6
CONTINUOUS
10
-0.097333
20
-0.720617
11
-0.0878777
21
-0.710262
0
LINE
8
BLACK
6
CONTINUOUS
10
-0.0878777
20
-0.710262
11
-0.0773271
21
-0.701026
0
LINE
8
BLACK
6
CONTINUOUS
10
-0.0773271
20
-0.701026
11
-0.0658126
21
-0.693023
0
LINE
8
BLACK
6
CONTINUOUS
10
-0.0658126
20
-0.693023
11
-0.0534779
21
-0.686354
0
LINE
8
BLACK
6
CONTINUOUS
10
-0.0534779
20
-0.686354
11
-0.0404766
21
-0.681101
0
LINE
8
BLACK
6
CONTINUOUS
10
-0.0404766
20
-0.681101
11
-0.0269707
21
-0.67733
0
LINE
8
BLACK
6
CONTINUOUS
10
-0.0269707
20
-0.67733
11
-0.0131288
21
-0.675088
0
LINE
8
BLACK
6
CONTINUOUS
10
-0.0131288
20
-0.675088
11
0.00087685
21
-0.674403
0
LINE
8
BLACK
6
CONTINUOUS
10
0.00087685
20
-0.674403
11
0.0148715
21
-0.675284
0
LINE
8
BLACK
6
CONTINUOUS
10
0.0148715
20
-0.675284
11
0.0286809
21
-0.677719
0
LINE
8
BLACK
6
CONTINUOUS
10
0.0286809
20
-0.677719
11
0.0421327
21
-0.681678
0
LINE
8
BLACK
6
CONTINUOUS
10
0.0421327
20
-0.681678
11
0.0550594
21
-0.687111
0
LINE
8
BLACK
6
CONTINUOUS
10
0.0550594
20
-0.687111
11
0.0672998
21
-0.693952
0
LINE
8
BLACK
6
CONTINUOUS
10
0.0672998
20
-0.693952
11
0.0787015
21
-0.702115
0
LINE
8
BLACK
6
CONTINUOUS
10
0.0787015
20
-0.702115
11
0.0891221
21
-0.711498
0
LINE
8
BLACK
6
CONTINUOUS
10
0.0891221
20
-0.711498
11
0.0984319
21
-0.721984
0
LINE
8
BLACK
6
CONTINUOUS
10
0.0984319
20
-0.721984
11
0.106515
21
-0.733442
0
LINE
8
BLACK
6
CONTINUOUS
10
0.106515
20
-0.733442
11
0.11327
21
-0.74573
0
LINE
8
BLACK
6
CONTINUOUS
10
0.11327
20
-0.74573
11
0.118614
21
-0.758694
0
LINE
8
BLACK
6
CONTINUOUS
10
0.118614
20
-0.758694
11
0.122479
21
-0.772174
0
LINE
8
BLACK
6
CONTINUOUS
10
0.122479
20
-0.772174
11
0.124817
21
-0.785999
0
LINE
8
BLACK
6
CONTINUOUS
10
0.124817
20
-0.785999
11
0.1256
21
-0.8
0
LINE
8
BLACK
6
CONTINUOUS
10
0.1256
20
-0.8
11
0.125551
21
-0.803507
0
LINE
8
BLACK
6
CONTINUOUS
10
0.125551
20
-0.803507
11
0.124378
21
-0.81748
0
LINE
8
BLACK
6
CONTINUOUS
10
0.124378
20
-0.81748
11
0.121654
21
-0.831235
0
LINE
8
BLACK
6
CONTINUOUS
10
0.121654
20
-0.831235
11
0.117414
21
-0.844601
0
LINE
8
BLACK
6
CONTINUOUS
10
0.117414
20
-0.844601
11
0.111711
21
-0.857411
0
LINE
8
BLACK
6
CONTINUOUS
10
0.111711
20
-0.857411
11
0.104615
21
-0.869506
0
LINE
8
BLACK
6
CONTINUOUS
10
0.104615
20
-0.869506
11
0.0962152
21
-0.880734
0
LINE
8
BLACK
6
CONTINUOUS
10
0.0962152
20
-0.880734
11
0.0866162
21
-0.890956
0
LINE
8
BLACK
6
CONTINUOUS
10
0.0866162
20
-0.890956
11
0.0759376
21
-0.900044
0
LINE
8
BLACK
6
CONTINUOUS
10
0.0759376
20
-0.900044
11
0.0643126
21
-0.907885
0
LINE
8
BLACK
6
CONTINUOUS
10
0.0643126
20
-0.907885
11
0.0518859
21
-0.914382
0
LINE
8
BLACK
6
CONTINUOUS
10
0.0518859
20
-0.914382
11
0.0388125
21
-0.919453
0
LINE
8
BLACK
6
CONTINUOUS
10
0.0388125
20
-0.919453
11
0.0252554
21
-0.923035
0
LINE
8
BLACK
6
CONTINUOUS
10
0.0252554
20
-0.923035
11
0.0113835
21
-0.925083
0
LINE
8
BLACK
6
CONTINUOUS
10
0.0113835
20
-0.925083
11
-0.00263035
21
-0.925572
0
LINE
8
BLACK
6
CONTINUOUS
10
-0.00263035
20
-0.925572
11
-0.0166114
21
-0.924497
0
LINE
8
BLACK
6
CONTINUOUS
10
-0.0166114
20
-0.924497
11
-0.0303854
21
-0.921869
0
LINE
8
BLACK
6
CONTINUOUS
10
-0.0303854
20
-0.921869
11
-0.0437806
21
-0.917723
0
LINE
8
BLACK
6
CONTINUOUS
10
-0.0437806
20
-0.917723
11
-0.0566302
21
-0.912109
0
LINE
8
BLACK
6
CONTINUOUS
10
-0.0566302
20
-0.912109
11
-0.0687739
21
-0.905098
0
LINE
8
BLACK
6
CONTINUOUS
10
-0.0687739
20
-0.905098
11
-0.0800605
21
-0.896776
0
LINE
8
BLACK
6
CONTINUOUS
10
-0.0800605
20
-0.896776
11
-0.0903491
21
-0.887249
0
LINE
8
BLACK
6
CONTINUOUS
10
-0.0903491
20
-0.887249
11
-0.0995116
21
-0.876634
0
LINE
8
BLACK
6
CONTINUOUS
10
-0.0995116
20
-0.876634
11
-0.107434
21
-0.865064
0
LINE
8
BLACK
6
CONTINUOUS
10
-0.107434
20
-0.865064
11
-0.114017
21
-0.852683
0
LINE
8
BLACK
6
CONTINUOUS
10
-0.114017
20
-0.852683
11
-0.119179
21
-0.839646
0
LINE
8
BLACK
6
CONTINUOUS
10
-0.119179
20
-0.839646
11
-0.122855
21
-0.826114
0
LINE
8
BLACK
6
CONTINUOUS
10
-0.122855
20
-0.826114
11
-0.125001
21
-0.812256
0
LINE
8
BLACK
6
CONTINUOUS
10
-0.125001
20
-0.812256
11
-0.125588
21
-0.798246
0
LINE
8
BLACK
6
CONTINUOUS
10
-0.125588
20
-0.798246
11
-0.125467
21
-0.79652
0
LINE
8
BLACK
6
CONTINUOUS
10
-0.125467
20
-0.79652
11
-0.12461
21
-0.784258
0
LINE
8
BLACK
6
CONTINUOUS
10
-0.12461
20
-0.784258
11
-0.122078
21
-0.770466
0
LINE
8
BLACK
6
CONTINUOUS
10
-0.108602
20
-0.821898
11
-0.105365
21
-0.834235
0
LINE
8
BLACK
6
CONTINUOUS
10
-0.105365
20
-0.834235
11
-0.100732
21
-0.846119
0
LINE
8
BLACK
6
CONTINUOUS
10
-0.100732
20
-0.846119
11
-0.0947636
21
-0.857391
0
LINE
8
BLACK
6
CONTINUOUS
10
-0.0947636
20
-0.857391
11
-0.0875393
21
-0.867902
0
LINE
8
BLACK
6
CONTINUOUS
10
-0.0875393
20
-0.867902
11
-0.0791546
21
-0.877514
0
LINE
8
BLACK
6
CONTINUOUS
10
-0.0791546
20
-0.877514
11
-0.0697208
21
-0.886098
0
LINE
8
BLACK
6
CONTINUOUS
10
-0.0697208
20
-0.886098
11
-0.0593629
21
-0.893541
0
LINE
8
BLACK
6
CONTINUOUS
10
-0.0593629
20
-0.893541
11
-0.0482181
21
-0.899744
0
LINE
8
BLACK
6
CONTINUOUS
10
-0.0482181
20
-0.899744
11
-0.0364343
21
-0.904625
0
LINE
8
BLACK
6
CONTINUOUS
10
-0.0364343
20
-0.904625
11
-0.0241675
21
-0.908119
0
LINE
8
BLACK
6
CONTINUOUS
10
-0.0241675
20
-0.908119
11
-0.0115804
21
-0.910181
0
LINE
8
BLACK
6
CONTINUOUS
10
-0.0115804
20
-0.910181
11
0.00116016
21
-0.910781
0
LINE
8
BLACK
6
CONTINUOUS
10
0.00116016
20
-0.910781
11
0.0138854
21
-0.909914
0
LINE
8
BLACK
6
CONTINUOUS
10
0.0138854
20
-0.909914
11
0.0264265
21
-0.907589
0
LINE
8
BLACK
6
CONTINUOUS
10
0.0264265
20
-0.907589
11
0.0386174
21
-0.903839
0
LINE
8
BLACK
6
CONTINUOUS
10
0.0386174
20
-0.903839
11
0.0502965
21
-0.898712
0
LINE
8
BLACK
6
CONTINUOUS
10
0.0502965
20
-0.898712
11
0.0613088
21
-0.892277
0
LINE
8
BLACK
6
CONTINUOUS
10
0.0613088
20
-0.892277
11
0.0715086
21
-0.884619
0
LINE
8
BLACK
6
CONTINUOUS
10
0.0715086
20
-0.884619
11
0.0807606
21
-0.875839
0
LINE
8
BLACK
6
CONTINUOUS
10
0.0807606
20
-0.875839
11
0.0889421
21
-0.866054
0
LINE
8
BLACK
6
CONTINUOUS
10
0.0889421
20
-0.866054
11
0.0959447
21
-0.855394
0
LINE
8
BLACK
6
CONTINUOUS
10
0.0959447
20
-0.855394
11
0.101676
21
-0.843999
0
LINE
8
BLACK
6
CONTINUOUS
10
0.101676
20
-0.843999
11
0.106059
21
-0.832021
0
LINE
8
BLACK
6
CONTINUOUS
10
0.106059
20
-0.832021
11
0.109036
21
-0.819619
0
LINE
8
BLACK
6
CONTINUOUS
10
0.109036
20
-0.819619
11
0.110569
21
-0.806956
0
LINE
8
BLACK
6
CONTINUOUS
10
0.110569
20
-0.806956
11
0.110787
21
-0.8
0
LINE
8
BLACK
6
CONTINUOUS
10
0.110787
20
-0.8
11
0.110053
21
-0.787266
0
LINE
8
BLACK
6
CONTINUOUS
10
0.110053
20
-0.787266
11
0.10786
21
-0.774702
0
LINE
8
BLACK
6
CONTINUOUS
10
0.10786
20
-0.774702
11
0.104238
21
-0.762472
0
LINE
8
BLACK
6
CONTINUOUS
10
0.104238
20
-0.762472
11
0.0992336
21
-0.75074
0
LINE
8
BLACK
6
CONTINUOUS
10
0.0992336
20
-0.75074
11
0.0929142
21
-0.739661
0
LINE
8
BLACK
6
CONTINUOUS
10
0.0929142
20
-0.739661
11
0.0853632
21
-0.729381
0
LINE
8
BLACK
6
CONTINUOUS
10
0.0853632
20
-0.729381
11
0.0766808
21
-0.720038
0
LINE
8
BLACK
6
CONTINUOUS
10
0.0766808
20
-0.720038
11
0.066982
21
-0.711754
0
LINE
8
BLACK
6
CONTINUOUS
10
0.066982
20
-0.711754
11
0.0563954
21
-0.704641
0
LINE
8
BLACK
6
CONTINUOUS
10
0.0563954
20
-0.704641
11
0.0450613
21
-0.698791
0
LINE
8
BLACK
6
CONTINUOUS
10
0.0450613
20
-0.698791
11
0.03313
21
-0.694282
0
LINE
8
BLACK
6
CONTINUOUS
10
0.03313
20
-0.694282
11
0.0207595
21
-0.691175
0
LINE
8
BLACK
6
CONTINUOUS
10
0.0207595
20
-0.691175
11
0.00811386
21
-0.68951
0
LINE
8
BLACK
6
CONTINUOUS
10
0.00811386
20
-0.68951
11
-0.00463929
21
-0.68931
0
LINE
8
BLACK
6
CONTINUOUS
10
-0.00463929
20
-0.68931
11
-0.017331
21
-0.690577
0
LINE
8
BLACK
6
CONTINUOUS
10
-0.017331
20
-0.690577
11
-0.029793
21
-0.693294
0
LINE
8
BLACK
6
CONTINUOUS
10
-0.029793
20
-0.693294
11
-0.04186
21
-0.697425
0
LINE
8
BLACK
6
CONTINUOUS
10
-0.04186
20
-0.697425
11
-0.0533722
21
-0.702916
0
LINE
8
BLACK
6
CONTINUOUS
10
-0.0533722
20
-0.702916
11
-0.0641771
21
-0.709694
0
LINE
8
BLACK
6
CONTINUOUS
10
-0.0641771
20
-0.709694
11
-0.0741313
21
-0.717669
0
LINE
8
BLACK
6
CONTINUOUS
10
-0.0741313
20
-0.717669
11
-0.0831029
21
-0.726735
0
LINE
8
BLACK
6
CONTINUOUS
10
-0.0831029
20
-0.726735
11
-0.090973
21
-0.736772
0
LINE
8
BLACK
6
CONTINUOUS
10
-0.090973
20
-0.736772
11
-0.0976374
21
-0.747647
0
LINE
8
BLACK
6
CONTINUOUS
10
-0.0976374
20
-0.747647
11
-0.103008
21
-0.759216
0
LINE
8
BLACK
6
CONTINUOUS
10
-0.103008
20
-0.759216
11
-0.107012
21
-0.771326
0
LINE
8
BLACK
6
CONTINUOUS
10
-0.107012
20
-0.771326
11
-0.109599
21
-0.783816
0
LINE
8
BLACK
6
CONTINUOUS
10
-0.109599
20
-0.783816
11
-0.110733
21
-0.79652
0
LINE
8
BLACK
6
CONTINUOUS
10
-0.110733
20
-0.79652
11
-0.110399
21
-0.80927
0
LINE
8
BLACK
6
CONTINUOUS
10
-0.110399
20
-0.80927
11
-0.108602
21
-0.821898
0
LINE
8
BLACK
6
CONTINUOUS
10
2.27792
20
-0.770466
11
2.28197
21
-0.757042
0
LINE
8
BLACK
6
CONTINUOUS
10
2.28197
20
-0.757042
11
2.2875
21
-0.744154
0
LINE
8
BLACK
6
CONTINUOUS
10
2.2875
20
-0.744154
11
2.29442
21
-0.731961
0
LINE
8
BLACK
6
CONTINUOUS
10
2.29442
20
-0.731961
11
2.30267
21
-0.720617
0
LINE
8
BLACK
6
CONTINUOUS
10
2.30267
20
-0.720617
11
2.31212
21
-0.710262
0
LINE
8
BLACK
6
CONTINUOUS
10
2.31212
20
-0.710262
11
2.32267
21
-0.701026
0
LINE
8
BLACK
6
CONTINUOUS
10
2.32267
20
-0.701026
11
2.33419
21
-0.693023
0
LINE
8
BLACK
6
CONTINUOUS
10
2.33419
20
-0.693023
11
2.34652
21
-0.686354
0
LINE
8
BLACK
6
CONTINUOUS
10
2.34652
20
-0.686354
11
2.35952
21
-0.681101
0
LINE
8
BLACK
6
CONTINUOUS
10
2.35952
20
-0.681101
11
2.37303
21
-0.67733
0
LINE
8
BLACK
6
CONTINUOUS
10
2.37303
20
-0.67733
11
2.38687
21
-0.675088
0
LINE
8
BLACK
6
CONTINUOUS
10
2.38687
20
-0.675088
11
2.40088
21
-0.674403
0
LINE
8
BLACK
6
CONTINUOUS
10
2.40088
20
-0.674403
11
2.41487
21
-0.675284
0
LINE
8
BLACK
6
CONTINUOUS
10
2.41487
20
-0.675284
11
2.42868
21
-0.677719
0
LINE
8
BLACK
6
CONTINUOUS
10
2.42868
20
-0.677719
11
2.44213
21
-0.681678
0
LINE
8
BLACK
6
CONTINUOUS
10
2.44213
20
-0.681678
11
2.45506
21
-0.687111
0
LINE
8
BLACK
6
CONTINUOUS
10
2.45506
20
-0.687111
11
2.4673
21
-0.693952
0
LINE
8
BLACK
6
CONTINUOUS
10
2.4673
20
-0.693952
11
2.4787
21
-0.702115
0
LINE
8
BLACK
6
CONTINUOUS
10
2.4787
20
-0.702115
11
2.48912
21
-0.711498
0
LINE
8
BLACK
6
CONTINUOUS
10
2.48912
20
-0.711498
11
2.49843
21
-0.721984
0
LINE
8
BLACK
6
CONTINUOUS
10
2.49843
20
-0.721984
11
2.50651
21
-0.733442
0
LINE
8
BLACK
6
CONTINUOUS
10
2.50651
20
-0.733442
11
2.51327
21
-0.74573
0
LINE
8
BLACK
6
CONTINUOUS
10
2.51327
20
-0.74573
11
2.51861
21
-0.758694
0
LINE
8
BLACK
6
CONTINUOUS
10
2.51861
20
-0.758694
11
2.52248
21
-0.772174
0
LINE
8
BLACK
6
CONTINUOUS
10
2.52248
20
-0.772174
11
2.52482
21
-0.785999
0
LINE
8
BLACK
6
CONTINUOUS
10
2.52482
20
-0.785999
11
2.5256
21
-0.8
0
LINE
8
BLACK
6
CONTINUOUS
10
2.5256
20
-0.8
11
2.52555
21
-0.803507
0
LINE
8
BLACK
6
CONTINUOUS
10
2.52555
20
-0.803507
11
2.52438
21
-0.81748
0
LINE
8
BLACK
6
CONTINUOUS
10
2.52438
20
-0.81748
11
2.52165
21
-0.831235
0
LINE
8
BLACK
6
CONTINUOUS
10
2.52165
20
-0.831235
11
2.51741
21
-0.844601
0
LINE
8
BLACK
6
CONTINUOUS
10
2.51741
20
-0.844601
11
2.51171
21
-0.857411
0
LINE
8
BLACK
6
CONTINUOUS
10
2.51171
20
-0.857411
11
2.50461
21
-0.869506
0
LINE
8
BLACK
6
CONTINUOUS
10
2.50461
20
-0.869506
11
2.49622
21
-0.880734
0
LINE
8
BLACK
6
CONTINUOUS
10
2.49622
20
-0.880734
11
2.48662
21
-0.890956
0
LINE
8
BLACK
6
CONTINUOUS
10
2.48662
20
-0.890956
11
2.47594
21
-0.900044
0
LINE
8
BLACK
6
CONTINUOUS
10
2.47594
20
-0.900044
11
2.46431
21
-0.907885
0
LINE
8
BLACK
6
CONTINUOUS
10
2.46431
20
-0.907885
11
2.45189
21
-0.914382
0
LINE
8
BLACK
6
CONTINUOUS
10
2.45189
20
-0.914382
11
2.43881
21
-0.919453
0
LINE
8
BLACK
6
CONTINUOUS
10
2.43881
20
-0.919453
11
2.42526
21
-0.923035
0
LINE
8
BLACK
6
CONTINUOUS
10
2.42526
20
-0.923035
11
2.41138
21
-0.925083
0
LINE
8
BLACK
6
CONTINUOUS
10
2.41138
20
-0.925083
11
2.39737
21
-0.925572
0
LINE
8
BLACK
6
CONTINUOUS
10
2.39737
20
-0.925572
11
2.38339
21
-0.924497
0
LINE
8
BLACK
6
CONTINUOUS
10
2.38339
20
-0.924497
11
2.36961
21
-0.921869
0
LINE
8
BLACK
6
CONTINUOUS
10
2.36961
20
-0.921869
11
2.35622
21
-0.917723
0
LINE
8
BLACK
6
CONTINUOUS
10
2.35622
20
-0.917723
11
2.34337
21
-0.912109
0
LINE
8
BLACK
6
CONTINUOUS
10
2.34337
20
-0.912109
11
2.33123
21
-0.905098
0
LINE
8
BLACK
6
CONTINUOUS
10
2.33123
20
-0.905098
11
2.31994
21
-0.896776
0
LINE
8
BLACK
6
CONTINUOUS
10
2.31994
20
-0.896776
11
2.30965
21
-0.887249
0
LINE
8
BLACK
6
CONTINUOUS
10
2.30965
20
-0.887249
11
2.30049
21
-0.876634
0
LINE
8
BLACK
6
CONTINUOUS
10
2.30049
20
-0.876634
11
2.29257
21
-0.865064
0
LINE
8
BLACK
6
CONTINUOUS
10
2.29257
20
-0.865064
11
2.28598
21
-0.852683
0
LINE
8
BLACK
6
CONTINUOUS
10
2.28598
20
-0.852683
11
2.28082
21
-0.839646
0
LINE
8
BLACK
6
CONTINUOUS
10
2.28082
20
-0.839646
11
2.27714
21
-0.826114
0
LINE
8
BLACK
6
CONTINUOUS
10
2.27714
20
-0.826114
11
2.275
21
-0.812256
0
LINE
8
BLACK
6
CONTINUOUS
10
2.275
20
-0.812256
11
2.27441
21
-0.798246
0
LINE
8
BLACK
6
CONTINUOUS
10
2.27441
20
-0.798246
11
2.27453
21
-0.79652
0
LINE
8
BLACK
6
CONTINUOUS
10
2.27453
20
-0.79652
11
2.27539
21
-0.784258
0
LINE
8
BLACK
6
CONTINUOUS
10
2.27539
20
-0.784258
11
2.27792
21
-0.770466
0
LINE
8
BLACK
6
CONTINUOUS
10
2.2914
20
-0.821898
11
2.29463
21
-0.834235
0
LINE
8
BLACK
6
CONTINUOUS
10
2.29463
20
-0.834235
11
2.29927
21
-0.846119
0
LINE
8
BLACK
6
CONTINUOUS
10
2.29927
20
-0.846119
11
2.30524
21
-0.857391
0
LINE
8
BLACK
6
CONTINUOUS
10
2.30524
20
-0.857391
11
2.31246
21
-0.867902
0
LINE
8
BLACK
6
CONTINUOUS
10
2.31246
20
-0.867902
11
2.32085
21
-0.877514
0
LINE
8
BLACK
6
CONTINUOUS
10
2.32085
20
-0.877514
11
2.33028
21
-0.886098
0
LINE
8
BLACK
6
CONTINUOUS
10
2.33028
20
-0.886098
11
2.34064
21
-0.893541
0
LINE
8
BLACK
6
CONTINUOUS
10
2.34064
20
-0.893541
11
2.35178
21
-0.899744
0
LINE
8
BLACK
6
CONTINUOUS
10
2.35178
20
-0.899744
11
2.36357
21
-0.904625
0
LINE
8
BLACK
6
CONTINUOUS
10
2.36357
20
-0.904625
11
2.37583
21
-0.908119
0
LINE
8
BLACK
6
CONTINUOUS
10
2.37583
20
-0.908119
11
2.38842
21
-0.910181
0
LINE
8
BLACK
6
CONTINUOUS
10
2.38842
20
-0.910181
11
2.40116
21
-0.910781
0
LINE
8
BLACK
6
CONTINUOUS
10
2.40116
20
-0.910781
11
2.41389
21
-0.909914
0
LINE
8
BLACK
6
CONTINUOUS
10
2.41389
20
-0.909914
11
2.42643
21
-0.907589
0
LINE
8
BLACK
6
CONTINUOUS
10
2.42643
20
-0.907589
11
2.43862
21
-0.903839
0
LINE
8
BLACK
6
CONTINUOUS
10
2.43862
20
-0.903839
11
2.4503
21
-0.898712
0
LINE
8
BLACK
6
CONTINUOUS
10
2.4503
20
-0.898712
11
2.46131
21
-0.892277
0
LINE
8
BLACK
6
CONTINUOUS
10
2.46131
20
-0.892277
11
2.47151
21
-0.884619
0
LINE
8
BLACK
6
CONTINUOUS
10
2.47151
20
-0.884619
11
2.48076
21
-0.875839
0
LINE
8
BLACK
6
CONTINUOUS
10
2.48076
20
-0.875839
11
2.48894
21
-0.866054
0
LINE
8
BLACK
6
CONTINUOUS
10
2.48894
20
-0.866054
11
2.49594
21
-0.855394
0
LINE
8
BLACK
6
CONTINUOUS
10
2.49594
20
-0.855394
11
2.50168
21
-0.843999
0
LINE
8
BLACK
6
CONTINUOUS
10
2.50168
20
-0.843999
11
2.50606
21
-0.832021
0
LINE
8
BLACK
6
CONTINUOUS
10
2.50606
20
-0.832021
11
2.50904
21
-0.819619
0
LINE
8
BLACK
6
CONTINUOUS
10
2.50904
20
-0.819619
11
2.51057
21
-0.806956
0
LINE
8
BLACK
6
CONTINUOUS
10
2.51057
20
-0.806956
11
2.51079
21
-0.8
0
LINE
8
BLACK
6
CONTINUOUS
10
2.51079
20
-0.8
11
2.51005
21
-0.787266
0
LINE
8
BLACK
6
CONTINUOUS
10
2.51005
20
-0.787266
11
2.50786
21
-0.774702
0
LINE
8
BLACK
6
CONTINUOUS
10
2.50786
20
-0.774702
11
2.50424
21
-0.762472
0
LINE
8
BLACK
6
CONTINUOUS
10
2.50424
20
-0.762472
11
2.49923
21
-0.75074
0
LINE
8
BLACK
6
CONTINUOUS
10
2.49923
20
-0.75074
11
2.49291
21
-0.739661
0
LINE
8
BLACK
6
CONTINUOUS
10
2.49291
20
-0.739661
11
2.48536
21
-0.729381
0
LINE
8
BLACK
6
CONTINUOUS
10
2.48536
20
-0.729381
11
2.47668
21
-0.720038
0
LINE
8
BLACK
6
CONTINUOUS
10
2.47668
20
-0.720038
11
2.46698
21
-0.711754
0
LINE
8
BLACK
6
CONTINUOUS
10
2.46698
20
-0.711754
11
2.4564
21
-0.704641
0
LINE
8
BLACK
6
CONTINUOUS
10
2.4564
20
-0.704641
11
2.44506
21
-0.698791
0
LINE
8
BLACK
6
CONTINUOUS
10
2.44506
20
-0.698791
11
2.43313
21
-0.694282
0
LINE
8
BLACK
6
CONTINUOUS
10
2.43313
20
-0.694282
11
2.42076
21
-0.691175
0
LINE
8
BLACK
6
CONTINUOUS
10
2.42076
20
-0.691175
11
2.40811
21
-0.68951
0
LINE
8
BLACK
6
CONTINUOUS
10
2.40811
20
-0.68951
11
2.39536
21
-0.68931
0
LINE
8
BLACK
6
CONTINUOUS
10
2.39536
20
-0.68931
11
2.38267
21
-0.690577
0
LINE
8
BLACK
6
CONTINUOUS
10
2.38267
20
-0.690577
11
2.37021
21
-0.693294
0
LINE
8
BLACK
6
CONTINUOUS
10
2.37021
20
-0.693294
11
2.35814
21
-0.697425
0
LINE
8
BLACK
6
CONTINUOUS
10
2.35814
20
-0.697425
11
2.34663
21
-0.702916
0
LINE
8
BLACK
6
CONTINUOUS
10
2.34663
20
-0.702916
11
2.33582
21
-0.709694
0
LINE
8
BLACK
6
CONTINUOUS
10
2.33582
20
-0.709694
11
2.32587
21
-0.717669
0
LINE
8
BLACK
6
CONTINUOUS
10
2.32587
20
-0.717669
11
2.3169
21
-0.726735
0
LINE
8
BLACK
6
CONTINUOUS
10
2.3169
20
-0.726735
11
2.30903
21
-0.736772
0
LINE
8
BLACK
6
CONTINUOUS
10
2.30903
20
-0.736772
11
2.30236
21
-0.747647
0
LINE
8
BLACK
6
CONTINUOUS
10
2.30236
20
-0.747647
11
2.29699
21
-0.759216
0
LINE
8
BLACK
6
CONTINUOUS
10
2.29699
20
-0.759216
11
2.29299
21
-0.771326
0
LINE
8
BLACK
6
CONTINUOUS
10
2.29299
20
-0.771326
11
2.2904
21
-0.783816
0
LINE
8
BLACK
6
CONTINUOUS
10
2.2904
20
-0.783816
11
2.28927
21
-0.79652
0
LINE
8
BLACK
6
CONTINUOUS
10
2.28927
20
-0.79652
11
2.2896
21
-0.80927
0
LINE
8
BLACK
6
CONTINUOUS
10
2.2896
20
-0.80927
11
2.2914
21
-0.821898
0
LINE
8
BLACK
6
CONTINUOUS
10
2.27792
20
0.0295339
11
2.28197
21
0.0429577
0
LINE
8
BLACK
6
CONTINUOUS
10
2.28197
20
0.0429577
11
2.2875
21
0.0558462
0
LINE
8
BLACK
6
CONTINUOUS
10
2.2875
20
0.0558462
11
2.29442
21
0.0680385
0
LINE
8
BLACK
6
CONTINUOUS
10
2.29442
20
0.0680385
11
2.30267
21
0.0793829
0
LINE
8
BLACK
6
CONTINUOUS
10
2.30267
20
0.0793829
11
2.31212
21
0.0897378
0
LINE
8
BLACK
6
CONTINUOUS
10
2.31212
20
0.0897378
11
2.32267
21
0.0989741
0
LINE
8
BLACK
6
CONTINUOUS
10
2.32267
20
0.0989741
11
2.33419
21
0.106977
0
LINE
8
BLACK
6
CONTINUOUS
10
2.33419
20
0.106977
11
2.34652
21
0.113646
0
LINE
8
BLACK
6
CONTINUOUS
10
2.34652
20
0.113646
11
2.35952
21
0.118899
0
LINE
8
BLACK
6
CONTINUOUS
10
2.35952
20
0.118899
11
2.37303
21
0.12267
0
LINE
8
BLACK
6
CONTINUOUS
10
2.37303
20
0.12267
11
2.38687
21
0.124912
0
LINE
8
BLACK
6
CONTINUOUS
10
2.38687
20
0.124912
11
2.40088
21
0.125597
0
LINE
8
BLACK
6
CONTINUOUS
10
2.40088
20
0.125597
11
2.41487
21
0.124716
0
LINE
8
BLACK
6
CONTINUOUS
10
2.41487
20
0.124716
11
2.42868
21
0.122281
0
LINE
8
BLACK
6
CONTINUOUS
10
2.42868
20
0.122281
11
2.44213
21
0.118322
0
LINE
8
BLACK
6
CONTINUOUS
10
2.44213
20
0.118322
11
2.45506
21
0.112889
0
LINE
8
BLACK
6
CONTINUOUS
10
2.45506
20
0.112889
11
2.4673
21
0.106048
0
LINE
8
BLACK
6
CONTINUOUS
10
2.4673
20
0.106048
11
2.4787
21
0.0978848
0
LINE
8
BLACK
6
CONTINUOUS
10
2.4787
20
0.0978848
11
2.48912
21
0.088502
0
LINE
8
BLACK
6
CONTINUOUS
10
2.48912
20
0.088502
11
2.49843
21
0.0780161
0
LINE
8
BLACK
6
CONTINUOUS
10
2.49843
20
0.0780161
11
2.50651
21
0.0665579
0
LINE
8
BLACK
6
CONTINUOUS
10
2.50651
20
0.0665579
11
2.51327
21
0.05427
0
LINE
8
BLACK
6
CONTINUOUS
10
2.51327
20
0.05427
11
2.51861
21
0.0413057
0
LINE
8
BLACK
6
CONTINUOUS
10
2.51861
20
0.0413057
11
2.52248
21
0.0278265
0
LINE
8
BLACK
6
CONTINUOUS
10
2.52248
20
0.0278265
11
2.52482
21
0.0140005
0
LINE
8
BLACK
6
CONTINUOUS
10
2.52482
20
0.0140005
11
2.5256
21
0
0
LINE
8
BLACK
6
CONTINUOUS
10
2.5256
20
0
11
2.52555
21
-0.00350697
0
LINE
8
BLACK
6
CONTINUOUS
10
2.52555
20
-0.00350697
11
2.52438
21
-0.0174802
0
LINE
8
BLACK
6
CONTINUOUS
10
2.52438
20
-0.0174802
11
2.52165
21
-0.0312354
0
LINE
8
BLACK
6
CONTINUOUS
10
2.52165
20
-0.0312354
11
2.51741
21
-0.0446014
0
LINE
8
BLACK
6
CONTINUOUS
10
2.51741
20
-0.0446014
11
2.51171
21
-0.0574115
0
LINE
8
BLACK
6
CONTINUOUS
10
2.51171
20
-0.0574115
11
2.50461
21
-0.069506
0
LINE
8
BLACK
6
CONTINUOUS
10
2.50461
20
-0.069506
11
2.49622
21
-0.0807341
0
LINE
8
BLACK
6
CONTINUOUS
10
2.49622
20
-0.0807341
11
2.48662
21
-0.090956
0
LINE
8
BLACK
6
CONTINUOUS
10
2.48662
20
-0.090956
11
2.47594
21
-0.100044
0
LINE
8
BLACK
6
CONTINUOUS
10
2.47594
20
-0.100044
11
2.46431
21
-0.107885
0
LINE
8
BLACK
6
CONTINUOUS
10
2.46431
20
-0.107885
11
2.45189
21
-0.114382
0
LINE
8
BLACK
6
CONTINUOUS
10
2.45189
20
-0.114382
11
2.43881
21
-0.119453
0
LINE
8
BLACK
6
CONTINUOUS
10
2.43881
20
-0.119453
11
2.42526
21
-0.123035
0
LINE
8
BLACK
6
CONTINUOUS
10
2.42526
20
-0.123035
11
2.41138
21
-0.125083
0
LINE
8
BLACK
6
CONTINUOUS
10
2.41138
20
-0.125083
11
2.39737
21
-0.125572
0
LINE
8
BLACK
6
CONTINUOUS
10
2.39737
20
-0.125572
11
2.38339
21
-0.124497
0
LINE
8
BLACK
6
CONTINUOUS
10
2.38339
20
-0.124497
11
2.36961
21
-0.121869
0
LINE
8
BLACK
6
CONTINUOUS
10
2.36961
20
-0.121869
11
2.35622
21
-0.117723
0
LINE
8
BLACK
6
CONTINUOUS
10
2.35622
20
-0.117723
11
2.34337
21
-0.112109
0
LINE
8
BLACK
6
CONTINUOUS
10
2.34337
20
-0.112109
11
2.33123
21
-0.105098
0
LINE
8
BLACK
6
CONTINUOUS
10
2.33123
20
-0.105098
11
2.31994
21
-0.0967765
0
LINE
8
BLACK
6
CONTINUOUS
10
2.31994
20
-0.0967765
11
2.30965
21
-0.0872491
0
LINE
8
BLACK
6
CONTINUOUS
10
2.30965
20
-0.0872491
11
2.30049
21
-0.0766343
0
LINE
8
BLACK
6
CONTINUOUS
10
2.30049
20
-0.0766343
11
2.29257
21
-0.0650642
0
LINE
8
BLACK
6
CONTINUOUS
10
2.29257
20
-0.0650642
11
2.28598
21
-0.0526832
0
LINE
8
BLACK
6
CONTINUOUS
10
2.28598
20
-0.0526832
11
2.28082
21
-0.0396455
0
LINE
8
BLACK
6
CONTINUOUS
10
2.28082
20
-0.0396455
11
2.27714
21
-0.0261137
0
LINE
8
BLACK
6
CONTINUOUS
10
2.27714
20
-0.0261137
11
2.275
21
-0.0122564
0
LINE
8
BLACK
6
CONTINUOUS
10
2.275
20
-0.0122564
11
2.27441
21
0.00175366
0
LINE
8
BLACK
6
CONTINUOUS
10
2.27441
20
0.00175366
11
2.27453
21
0.00347992
0
LINE
8
BLACK
6
CONTINUOUS
10
2.27453
20
0.00347992
11
2.27539
21
0.0157419
0
LINE
8
BLACK
6
CONTINUOUS
10
2.27539
20
0.0157419
11
2.27792
21
0.0295339
0
LINE
8
BLACK
6
CONTINUOUS
10
2.2914
20
-0.021898
11
2.29463
21
-0.0342352
0
LINE
8
BLACK
6
CONTINUOUS
10
2.29463
20
-0.0342352
11
2.29927
21
-0.0461187
0
LINE
8
BLACK
6
CONTINUOUS
10
2.29927
20
-0.0461187
11
2.30524
21
-0.0573909
0
LINE
8
BLACK
6
CONTINUOUS
10
2.30524
20
-0.0573909
11
2.31246
21
-0.0679024
0
LINE
8
BLACK
6
CONTINUOUS
10
2.31246
20
-0.0679024
11
2.32085
21
-0.0775139
0
LINE
8
BLACK
6
CONTINUOUS
10
2.32085
20
-0.0775139
11
2.33028
21
-0.086098
0
LINE
8
BLACK
6
CONTINUOUS
10
2.33028
20
-0.086098
11
2.34064
21
-0.0935409
0
LINE
8
BLACK
6
CONTINUOUS
10
2.34064
20
-0.0935409
11
2.35178
21
-0.099744
0
LINE
8
BLACK
6
CONTINUOUS
10
2.35178
20
-0.099744
11
2.36357
21
-0.104625
0
LINE
8
BLACK
6
CONTINUOUS
10
2.36357
20
-0.104625
11
2.37583
21
-0.108119
0
LINE
8
BLACK
6
CONTINUOUS
10
2.37583
20
-0.108119
11
2.38842
21
-0.110181
0
LINE
8
BLACK
6
CONTINUOUS
10
2.38842
20
-0.110181
11
2.40116
21
-0.110781
0
LINE
8
BLACK
6
CONTINUOUS
10
2.40116
20
-0.110781
11
2.41389
21
-0.109914
0
LINE
8
BLACK
6
CONTINUOUS
10
2.41389
20
-0.109914
11
2.42643
21
-0.107589
0
LINE
8
BLACK
6
CONTINUOUS
10
2.42643
20
-0.107589
11
2.43862
21
-0.103839
0
LINE
8
BLACK
6
CONTINUOUS
10
2.43862
20
-0.103839
11
2.4503
21
-0.0987123
0
LINE
8
BLACK
6
CONTINUOUS
10
2.4503
20
-0.0987123
11
2.46131
21
-0.0922772
0
LINE
8
BLACK
6
CONTINUOUS
10
2.46131
20
-0.0922772
11
2.47151
21
-0.084619
0
LINE
8
BLACK
6
CONTINUOUS
10
2.47151
20
-0.084619
11
2.48076
21
-0.0758392
0
LINE
8
BLACK
6
CONTINUOUS
10
2.48076
20
-0.0758392
11
2.48894
21
-0.0660542
0
LINE
8
BLACK
6
CONTINUOUS
10
2.48894
20
-0.0660542
11
2.49594
21
-0.0553937
0
LINE
8
BLACK
6
CONTINUOUS
10
2.49594
20
-0.0553937
11
2.50168
21
-0.043999
0
LINE
8
BLACK
6
CONTINUOUS
10
2.50168
20
-0.043999
11
2.50606
21
-0.0320211
0
LINE
8
BLACK
6
CONTINUOUS
10
2.50606
20
-0.0320211
11
2.50904
21
-0.0196188
0
LINE
8
BLACK
6
CONTINUOUS
10
2.50904
20
-0.0196188
11
2.51057
21
-0.00695642
0
LINE
8
BLACK
6
CONTINUOUS
10
2.51057
20
-0.00695642
11
2.51079
21
0
0
LINE
8
BLACK
6
CONTINUOUS
10
2.51079
20
0
11
2.51005
21
0.0127336
0
LINE
8
BLACK
6
CONTINUOUS
10
2.51005
20
0.0127336
11
2.50786
21
0.0252984
0
LINE
8
BLACK
6
CONTINUOUS
10
2.50786
20
0.0252984
11
2.50424
21
0.0375279
0
LINE
8
BLACK
6
CONTINUOUS
10
2.50424
20
0.0375279
11
2.49923
21
0.04926
0
LINE
8
BLACK
6
CONTINUOUS
10
2.49923
20
0.04926
11
2.49291
21
0.0603392
0
LINE
8
BLACK
6
CONTINUOUS
10
2.49291
20
0.0603392
11
2.48536
21
0.0706186
0
LINE
8
BLACK
6
CONTINUOUS
10
2.48536
20
0.0706186
11
2.47668
21
0.079962
0
LINE
8
BLACK
6
CONTINUOUS
10
2.47668
20
0.079962
11
2.46698
21
0.0882455
0
LINE
8
BLACK
6
CONTINUOUS
10
2.46698
20
0.0882455
11
2.4564
21
0.0953594
0
LINE
8
BLACK
6
CONTINUOUS
10
2.4564
20
0.0953594
11
2.44506
21
0.101209
0
LINE
8
BLACK
6
CONTINUOUS
10
2.44506
20
0.101209
11
2.43313
21
0.105718
0
LINE
8
BLACK
6
CONTINUOUS
10
2.43313
20
0.105718
11
2.42076
21
0.108825
0
LINE
8
BLACK
6
CONTINUOUS
10
2.42076
20
0.108825
11
2.40811
21
0.11049
0
LINE
8
BLACK
6
CONTINUOUS
10
2.40811
20
0.11049
11
2.39536
21
0.11069
0
LINE
8
BLACK
6
CONTINUOUS
10
2.39536
20
0.11069
11
2.38267
21
0.109423
0
LINE
8
BLACK
6
CONTINUOUS
10
2.38267
20
0.109423
11
2.37021
21
0.106706
0
LINE
8
BLACK
6
CONTINUOUS
10
2.37021
20
0.106706
11
2.35814
21
0.102575
0
LINE
8
BLACK
6
CONTINUOUS
10
2.35814
20
0.102575
11
2.34663
21
0.0970838
0
LINE
8
BLACK
6
CONTINUOUS
10
2.34663
20
0.0970838
11
2.33582
21
0.0903059
0
LINE
8
BLACK
6
CONTINUOUS
10
2.33582
20
0.0903059
11
2.32587
21
0.0823311
0
LINE
8
BLACK
6
CONTINUOUS
10
2.32587
20
0.0823311
11
2.3169
21
0.073265
0
LINE
8
BLACK
6
CONTINUOUS
10
2.3169
20
0.073265
11
2.30903
21
0.0632279
0
LINE
8
BLACK
6
CONTINUOUS
10
2.30903
20
0.0632279
11
2.30236
21
0.0523527
0
LINE
8
BLACK
6
CONTINUOUS
10
2.30236
20
0.0523527
11
2.29699
21
0.0407836
0
LINE
8
BLACK
6
CONTINUOUS
10
2.29699
20
0.0407836
11
2.29299
21
0.0286739
0
LINE
8
BLACK
6
CONTINUOUS
10
2.29299
20
0.0286739
11
2.2904
21
0.0161842
0
LINE
8
BLACK
6
CONTINUOUS
10
2.2904
20
0.0161842
11
2.28927
21
0.00347992
0
LINE
8
BLACK
6
CONTINUOUS
10
2.28927
20
0.00347992
11
2.2896
21
-0.00927047
0
LINE
8
BLACK
6
CONTINUOUS
10
2.2896
20
-0.00927047
11
2.2914
21
-0.021898
0
LINE
8
BLACK
6
CONTINUOUS
10
-0.122078
20
0.0295339
11
-0.118025
21
0.0429577
0
LINE
8
BLACK
6
CONTINUOUS
10
-0.118025
20
0.0429577
11
-0.112501
21
0.0558462
0
LINE
8
BLACK
6
CONTINUOUS
10
-0.112501
20
0.0558462
11
-0.105575
21
0.0680385
0
LINE
8
BLACK
6
CONTINUOUS
10
-0.105575
20
0.0680385
11
-0.097333
21
0.0793829
0
LINE
8
BLACK
6
CONTINUOUS
10
-0.097333
20
0.0793829
11
-0.0878777
21
0.0897378
0
LINE
8
BLACK
6
CONTINUOUS
10
-0.0878777
20
0.0897378
11
-0.0773271
21
0.0989741
0
LINE
8
BLACK
6
CONTINUOUS
10
-0.0773271
20
0.0989741
11
-0.0658126
21
0.106977
0
LINE
8
BLACK
6
CONTINUOUS
10
-0.0658126
20
0.106977
11
-0.0534779
21
0.113646
0
LINE
8
BLACK
6
CONTINUOUS
10
-0.0534779
20
0.113646
11
-0.0404766
21
0.118899
0
LINE
8
BLACK
6
CONTINUOUS
10
-0.0404766
20
0.118899
11
-0.0269707
21
0.12267
0
LINE
8
BLACK
6
CONTINUOUS
10
-0.0269707
20
0.12267
11
-0.0131288
21
0.124912
0
LINE
8
BLACK
6
CONTINUOUS
10
-0.0131288
20
0.124912
11
0.00087685
21
0.125597
0
LINE
8
BLACK
6
CONTINUOUS
10
0.00087685
20
0.125597
11
0.0148715
21
0.124716
0
LINE
8
BLACK
6
CONTINUOUS
10
0.0148715
20
0.124716
11
0.0286809
21
0.122281
0
LINE
8
BLACK
6
CONTINUOUS
10
0.0286809
20
0.122281
11
0.0421327
21
0.118322
0
LINE
8
BLACK
6
CONTINUOUS
10
0.0421327
20
0.118322
11
0.0550594
21
0.112889
0
LINE
8
BLACK
6
CONTINUOUS
10
0.0550594
20
0.112889
11
0.0672998
21
0.106048
0
LINE
8
BLACK
6
CONTINUOUS
10
0.0672998
20
0.106048
11
0.0787015
21
0.0978848
0
LINE
8
BLACK
6
CONTINUOUS
10
0.0787015
20
0.0978848
11
0.0891221
21
0.088502
0
LINE
8
BLACK
6
CONTINUOUS
10
0.0891221
20
0.088502
11
0.0984319
21
0.0780161
0
LINE
8
BLACK
6
CONTINUOUS
10
0.0984319
20
0.0780161
11
0.106515
21
0.0665579
0
LINE
8
BLACK
6
CONTINUOUS
10
0.106515
20
0.0665579
11
0.11327
21
0.05427
0
LINE
8
BLACK
6
CONTINUOUS
10
0.11327
20
0.05427
11
0.118614
21
0.0413057
0
LINE
8
BLACK
6
CONTINUOUS
10
0.118614
20
0.0413057
11
0.122479
21
0.0278265
0
LINE
8
BLACK
6
CONTINUOUS
10
0.122479
20
0.0278265
11
0.124817
21
0.0140005
0
LINE
8
BLACK
6
CONTINUOUS
10
0.124817
20
0.0140005
11
0.1256
21
0
0
LINE
8
BLACK
6
CONTINUOUS
10
0.1256
20
0
11
0.125551
21
-0.00350697
0
LINE
8
BLACK
6
CONTINUOUS
10
0.125551
20
-0.00350697
11
0.124378
21
-0.0174802
0
LINE
8
BLACK
6
CONTINUOUS
10
0.124378
20
-0.0174802
11
0.121654
21
-0.0312354
0
LINE
8
BLACK
6
CONTINUOUS
10
0.121654
20
-0.0312354
11
0.117414
21
-0.0446014
0
LINE
8
BLACK
6
CONTINUOUS
10
0.117414
20
-0.0446014
11
0.111711
21
-0.0574115
0
LINE
8
BLACK
6
CONTINUOUS
10
0.111711
20
-0.0574115
11
0.104615
21
-0.069506
0
LINE
8
BLACK
6
CONTINUOUS
10
0.104615
20
-0.069506
11
0.0962152
21
-0.0807341
0
LINE
8
BLACK
6
CONTINUOUS
10
0.0962152
20
-0.0807341
11
0.0866162
21
-0.090956
0
LINE
8
BLACK
6
CONTINUOUS
10
0.0866162
20
-0.090956
11
0.0759376
21
-0.100044
0
LINE
8
BLACK
6
CONTINUOUS
10
0.0759376
20
-0.100044
11
0.0643126
21
-0.107885
0
LINE
8
BLACK
6
CONTINUOUS
10
0.0643126
20
-0.107885
11
0.0518859
21
-0.114382
0
LINE
8
BLACK
6
CONTINUOUS
10
0.0518859
20
-0.114382
11
0.0388125
21
-0.119453
0
LINE
8
BLACK
6
CONTINUOUS
10
0.0388125
20
-0.119453
11
0.0252554
21
-0.123035
0
LINE
8
BLACK
6
CONTINUOUS
10
0.0252554
20
-0.123035
11
0.0113835
21
-0.125083
0
LINE
8
BLACK
6
CONTINUOUS
10
0.0113835
20
-0.125083
11
-0.00263035
21
-0.125572
0
LINE
8
BLACK
6
CONTINUOUS
10
-0.00263035
20
-0.125572
11
-0.0166114
21
-0.124497
0
LINE
8
BLACK
6
CONTINUOUS
10
-0.0166114
20
-0.124497
11
-0.0303854
21
-0.121869
0
LINE
8
BLACK
6
CONTINUOUS
10
-0.0303854
20
-0.121869
11
-0.0437806
21
-0.117723
0
LINE
8
BLACK
6
CONTINUOUS
10
-0.0437806
20
-0.117723
11
-0.0566302
21
-0.112109
0
LINE
8
BLACK
6
CONTINUOUS
10
-0.0566302
20
-0.112109
11
-0.0687739
21
-0.105098
0
LINE
8
BLACK
6
CONTINUOUS
10
-0.0687739
20
-0.105098
11
-0.0800605
21
-0.0967765
0
LINE
8
BLACK
6
CONTINUOUS
10
-0.0800605
20
-0.0967765
11
-0.0903491
21
-0.0872491
0
LINE
8
BLACK
6
CONTINUOUS
10
-0.0903491
20
-0.0872491
11
-0.0995116
21
-0.0766343
0
LINE
8
BLACK
6
CONTINUOUS
10
-0.0995116
20
-0.0766343
11
-0.107434
21
-0.0650642
0
LINE
8
BLACK
6
CONTINUOUS
10
-0.107434
20
-0.0650642
11
-0.114017
21
-0.0526832
0
LINE
8
BLACK
6
CONTINUOUS
10
-0.114017
20
-0.0526832
11
-0.119179
21
-0.0396455
0
LINE
8
BLACK
6
CONTINUOUS
10
-0.119179
20
-0.0396455
11
-0.122855
21
-0.0261137
0
LINE
8
BLACK
6
CONTINUOUS
10
-0.122855
20
-0.0261137
11
-0.125001
21
-0.0122564
0
LINE
8
BLACK
6
CONTINUOUS
10
-0.125001
20
-0.0122564
11
-0.125588
21
0.00175366
0
LINE
8
BLACK
6
CONTINUOUS
10
-0.125588
20
0.00175366
11
-0.125467
21
0.00347992
0
LINE
8
BLACK
6
CONTINUOUS
10
-0.125467
20
0.00347992
11
-0.12461
21
0.0157419
0
LINE
8
BLACK
6
CONTINUOUS
10
-0.12461
20
0.0157419
11
-0.122078
21
0.0295339
0
LINE
8
BLACK
6
CONTINUOUS
10
-0.108602
20
-0.021898
11
-0.105365
21
-0.0342352
0
LINE
8
BLACK
6
CONTINUOUS
10
-0.105365
20
-0.0342352
11
-0.100732
21
-0.0461187
0
LINE
8
BLACK
6
CONTINUOUS
10
-0.100732
20
-0.0461187
11
-0.0947636
21
-0.0573909
0
LINE
8
BLACK
6
CONTINUOUS
10
-0.0947636
20
-0.0573909
11
-0.0875393
21
-0.0679024
0
LINE
8
BLACK
6
CONTINUOUS
10
-0.0875393
20
-0.0679024
11
-0.0791546
21
-0.0775139
0
LINE
8
BLACK
6
CONTINUOUS
10
-0.0791546
20
-0.0775139
11
-0.0697208
21
-0.086098
0
LINE
8
BLACK
6
CONTINUOUS
10
-0.0697208
20
-0.086098
11
-0.0593629
21
-0.0935409
0
LINE
8
BLACK
6
CONTINUOUS
10
-0.0593629
20
-0.0935409
11
-0.0482181
21
-0.099744
0
LINE
8
BLACK
6
CONTINUOUS
10
-0.0482181
20
-0.099744
11
-0.0364343
21
-0.104625
0
LINE
8
BLACK
6
CONTINUOUS
10
-0.0364343
20
-0.104625
11
-0.0241675
21
-0.108119
0
LINE
8
BLACK
6
CONTINUOUS
10
-0.0241675
20
-0.108119
11
-0.0115804
21
-0.110181
0
LINE
8
BLACK
6
CONTINUOUS
10
-0.0115804
20
-0.110181
11
0.00116016
21
-0.110781
0
LINE
8
BLACK
6
CONTINUOUS
10
0.00116016
20
-0.110781
11
0.0138854
21
-0.109914
0
LINE
8
BLACK
6
CONTINUOUS
10
0.0138854
20
-0.109914
11
0.0264265
21
-0.107589
0
LINE
8
BLACK
6
CONTINUOUS
10
0.0264265
20
-0.107589
11
0.0386174
21
-0.103839
0
LINE
8
BLACK
6
CONTINUOUS
10
0.0386174
20
-0.103839
11
0.0502965
21
-0.0987123
0
LINE
8
BLACK
6
CONTINUOUS
10
0.0502965
20
-0.0987123
11
0.0613088
21
-0.0922772
0
LINE
8
BLACK
6
CONTINUOUS
10
0.0613088
20
-0.0922772
11
0.0715086
21
-0.084619
0
LINE
8
BLACK
6
CONTINUOUS
10
0.0715086
20
-0.084619
11
0.0807606
21
-0.0758392
0
LINE
8
BLACK
6
CONTINUOUS
10
0.0807606
20
-0.0758392
11
0.0889421
21
-0.0660542
0
LINE
8
BLACK
6
CONTINUOUS
10
0.0889421
20
-0.0660542
11
0.0959447
21
-0.0553937
0
LINE
8
BLACK
6
CONTINUOUS
10
0.0959447
20
-0.0553937
11
0.101676
21
-0.043999
0
LINE
8
BLACK
6
CONTINUOUS
10
0.101676
20
-0.043999
11
0.106059
21
-0.0320211
0
LINE
8
BLACK
6
CONTINUOUS
10
0.106059
20
-0.0320211
11
0.109036
21
-0.0196188
0
LINE
8
BLACK
6
CONTINUOUS
10
0.109036
20
-0.0196188
11
0.110569
21
-0.00695642
0
LINE
8
BLACK
6
CONTINUOUS
10
0.110569
20
-0.00695642
11
0.110787
21
0
0
LINE
8
BLACK
6
CONTINUOUS
10
0.110787
20
0
11
0.110053
21
0.0127336
0
LINE
8
BLACK
6
CONTINUOUS
10
0.110053
20
0.0127336
11
0.10786
21
0.0252984
0
LINE
8
BLACK
6
CONTINUOUS
10
0.10786
20
0.0252984
11
0.104238
21
0.0375279
0
LINE
8
BLACK
6
CONTINUOUS
10
0.104238
20
0.0375279
11
0.0992336
21
0.04926
0
LINE
8
BLACK
6
CONTINUOUS
10
0.0992336
20
0.04926
11
0.0929142
21
0.0603392
0
LINE
8
BLACK
6
CONTINUOUS
10
0.0929142
20
0.0603392
11
0.0853632
21
0.0706186
0
LINE
8
BLACK
6
CONTINUOUS
10
0.0853632
20
0.0706186
11
0.0766808
21
0.079962
0
LINE
8
BLACK
6
CONTINUOUS
10
0.0766808
20
0.079962
11
0.066982
21
0.0882455
0
LINE
8
BLACK
6
CONTINUOUS
10
0.066982
20
0.0882455
11
0.0563954
21
0.0953594
0
LINE
8
BLACK
6
CONTINUOUS
10
0.0563954
20
0.0953594
11
0.0450613
21
0.101209
0
LINE
8
BLACK
6
CONTINUOUS
10
0.0450613
20
0.101209
11
0.03313
21
0.105718
0
LINE
8
BLACK
6
CONTINUOUS
10
0.03313
20
0.105718
11
0.0207595
21
0.108825
0
LINE
8
BLACK
6
CONTINUOUS
10
0.0207595
20
0.108825
11
0.00811386
21
0.11049
0
LINE
8
BLACK
6
CONTINUOUS
10
0.00811386
20
0.11049
11
-0.00463929
21
0.11069
0
LINE
8
BLACK
6
CONTINUOUS
10
-0.00463929
20
0.11069
11
-0.017331
21
0.109423
0
LINE
8
BLACK
6
CONTINUOUS
10
-0.017331
20
0.109423
11
-0.029793
21
0.106706
0
LINE
8
BLACK
6
CONTINUOUS
10
-0.029793
20
0.106706
11
-0.04186
21
0.102575
0
LINE
8
BLACK
6
CONTINUOUS
10
-0.04186
20
0.102575
11
-0.0533722
21
0.0970838
0
LINE
8
BLACK
6
CONTINUOUS
10
-0.0533722
20
0.0970838
11
-0.0641771
21
0.0903059
0
LINE
8
BLACK
6
CONTINUOUS
10
-0.0641771
20
0.0903059
11
-0.0741313
21
0.0823311
0
LINE
8
BLACK
6
CONTINUOUS
10
-0.0741313
20
0.0823311
11
-0.0831029
21
0.073265
0
LINE
8
BLACK
6
CONTINUOUS
10
-0.0831029
20
0.073265
11
-0.090973
21
0.0632279
0
LINE
8
BLACK
6
CONTINUOUS
10
-0.090973
20
0.0632279
11
-0.0976374
21
0.0523527
0
LINE
8
BLACK
6
CONTINUOUS
10
-0.0976374
20
0.0523527
11
-0.103008
21
0.0407836
0
LINE
8
BLACK
6
CONTINUOUS
10
-0.103008
20
0.0407836
11
-0.107012
21
0.0286739
0
LINE
8
BLACK
6
CONTINUOUS
10
-0.107012
20
0.0286739
11
-0.109599
21
0.0161842
0
LINE
8
BLACK
6
CONTINUOUS
10
-0.109599
20
0.0161842
11
-0.110733
21
0.00347992
0
LINE
8
BLACK
6
CONTINUOUS
10
-0.110733
20
0.00347992
11
-0.110399
21
-0.00927047
0
LINE
8
BLACK
6
CONTINUOUS
10
-0.110399
20
-0.00927047
11
-0.108602
21
-0.021898
  0
ENDSEC
  0
EOF
