  0
SECTION
  2
HEADER
  9
$ANGBASE
  50
0.0
  9
$ANGDIR
  70
1
  9
$MEASUREMENT
  70
0
  0
ENDSEC
  0
SECTION
  2
TABLES
  0
TABLE
  2
LTYPE
  70
4
  0
LTYPE
  5
40F
  2
CONTINUOUS
  70
0
  3
Solid line
  72
65
  73
0
  40
0.0
  0
LTYPE
  5
410
  2
DASHDOT
 70
0
  3
Dash Dot ____ _ ____ _
 72
65
 73
4
 40
2.0
 49
1.25
 49
-0.25
 49
0.25
 49
-0.25
  0
LTYPE
  5
411
  2
DASHED
 70
0
  3
Dashed __ __ __ __ __
 72
65
 73
2
 40
0.75
 49
0.5
 49
-0.25
  0
LTYPE
  5
43B
  2
DOTTED
 70
0
  3
Dotted .  .  .  .
 72
65
 73
2
 40
0.2
 49
0.0
 49
-0.2
  0
ENDTAB
  0
TABLE
  2
STYLE
  70
4
  0
STYLE
  2
KICAD
  70
0
  40
0
  41
1
  42
1
  50
0
  71
0
  3
isocp.shx
  0
STYLE
  2
KICADB
  70
0
  40
0
  41
1
  42
1
  50
0
  71
0
  3
isocp.shx
  0
STYLE
  2
KICADI
  70
0
  40
0
  41
1
  42
1
  50
15
  71
0
  3
isocp.shx
  0
STYLE
  2
KICADBI
  70
0
  40
0
  41
1
  42
1
  50
15
  71
0
  3
isocp.shx
  0
ENDTAB
  0
TABLE
  2
LAYER
  70
1
  0
LAYER
  2
BLACK
  70
0
  62
7
  6
CONTINUOUS
  0
ENDTAB
  0
ENDSEC
  0
SECTION
  2
ENTITIES
0
LINE
8
BLACK
6
CONTINUOUS
10
0.0140628
20
-0.67519
11
0.0279486
21
-0.677549
0
LINE
8
BLACK
6
CONTINUOUS
10
0.0279486
20
-0.677549
11
0.041483
21
-0.681448
0
LINE
8
BLACK
6
CONTINUOUS
10
0.041483
20
-0.681448
11
0.0544958
21
-0.686838
0
LINE
8
BLACK
6
CONTINUOUS
10
0.0544958
20
-0.686838
11
0.0668232
21
-0.693651
0
LINE
8
BLACK
6
CONTINUOUS
10
0.0668232
20
-0.693651
11
0.0783103
21
-0.701802
0
LINE
8
BLACK
6
CONTINUOUS
10
0.0783103
20
-0.701802
11
0.0888126
21
-0.711187
0
LINE
8
BLACK
6
CONTINUOUS
10
0.0888126
20
-0.711187
11
0.098198
21
-0.72169
0
LINE
8
BLACK
6
CONTINUOUS
10
0.098198
20
-0.72169
11
0.106349
21
-0.733177
0
LINE
8
BLACK
6
CONTINUOUS
10
0.106349
20
-0.733177
11
0.113162
21
-0.745504
0
LINE
8
BLACK
6
CONTINUOUS
10
0.113162
20
-0.745504
11
0.118552
21
-0.758517
0
LINE
8
BLACK
6
CONTINUOUS
10
0.118552
20
-0.758517
11
0.122451
21
-0.772051
0
LINE
8
BLACK
6
CONTINUOUS
10
0.122451
20
-0.772051
11
0.12481
21
-0.785937
0
LINE
8
BLACK
6
CONTINUOUS
10
0.12481
20
-0.785937
11
0.1256
21
-0.8
0
LINE
8
BLACK
6
CONTINUOUS
10
0.1256
20
-0.8
11
0.12481
21
-0.814063
0
LINE
8
BLACK
6
CONTINUOUS
10
0.12481
20
-0.814063
11
0.122451
21
-0.827949
0
LINE
8
BLACK
6
CONTINUOUS
10
0.122451
20
-0.827949
11
0.118552
21
-0.841483
0
LINE
8
BLACK
6
CONTINUOUS
10
0.118552
20
-0.841483
11
0.113162
21
-0.854496
0
LINE
8
BLACK
6
CONTINUOUS
10
0.113162
20
-0.854496
11
0.106349
21
-0.866823
0
LINE
8
BLACK
6
CONTINUOUS
10
0.106349
20
-0.866823
11
0.098198
21
-0.87831
0
LINE
8
BLACK
6
CONTINUOUS
10
0.098198
20
-0.87831
11
0.0888126
21
-0.888813
0
LINE
8
BLACK
6
CONTINUOUS
10
0.0888126
20
-0.888813
11
0.0783103
21
-0.898198
0
LINE
8
BLACK
6
CONTINUOUS
10
0.0783103
20
-0.898198
11
0.0668232
21
-0.906349
0
LINE
8
BLACK
6
CONTINUOUS
10
0.0668232
20
-0.906349
11
0.0544958
21
-0.913162
0
LINE
8
BLACK
6
CONTINUOUS
10
0.0544958
20
-0.913162
11
0.041483
21
-0.918552
0
LINE
8
BLACK
6
CONTINUOUS
10
0.041483
20
-0.918552
11
0.0279486
21
-0.922451
0
LINE
8
BLACK
6
CONTINUOUS
10
0.0279486
20
-0.922451
11
0.0140628
21
-0.92481
0
LINE
8
BLACK
6
CONTINUOUS
10
0.0140628
20
-0.92481
11
0
21
-0.9256
0
LINE
8
BLACK
6
CONTINUOUS
10
0
20
-0.9256
11
-0.0140628
21
-0.92481
0
LINE
8
BLACK
6
CONTINUOUS
10
-0.0140628
20
-0.92481
11
-0.0279486
21
-0.922451
0
LINE
8
BLACK
6
CONTINUOUS
10
-0.0279486
20
-0.922451
11
-0.041483
21
-0.918552
0
LINE
8
BLACK
6
CONTINUOUS
10
-0.041483
20
-0.918552
11
-0.0544958
21
-0.913162
0
LINE
8
BLACK
6
CONTINUOUS
10
-0.0544958
20
-0.913162
11
-0.0668232
21
-0.906349
0
LINE
8
BLACK
6
CONTINUOUS
10
-0.0668232
20
-0.906349
11
-0.0783103
21
-0.898198
0
LINE
8
BLACK
6
CONTINUOUS
10
-0.0783103
20
-0.898198
11
-0.0888126
21
-0.888813
0
LINE
8
BLACK
6
CONTINUOUS
10
-0.0888126
20
-0.888813
11
-0.098198
21
-0.87831
0
LINE
8
BLACK
6
CONTINUOUS
10
-0.098198
20
-0.87831
11
-0.106349
21
-0.866823
0
LINE
8
BLACK
6
CONTINUOUS
10
-0.106349
20
-0.866823
11
-0.113162
21
-0.854496
0
LINE
8
BLACK
6
CONTINUOUS
10
-0.113162
20
-0.854496
11
-0.118552
21
-0.841483
0
LINE
8
BLACK
6
CONTINUOUS
10
-0.118552
20
-0.841483
11
-0.122451
21
-0.827949
0
LINE
8
BLACK
6
CONTINUOUS
10
-0.122451
20
-0.827949
11
-0.12481
21
-0.814063
0
LINE
8
BLACK
6
CONTINUOUS
10
-0.12481
20
-0.814063
11
-0.1256
21
-0.8
0
LINE
8
BLACK
6
CONTINUOUS
10
-0.1256
20
-0.8
11
-0.12481
21
-0.785937
0
LINE
8
BLACK
6
CONTINUOUS
10
-0.12481
20
-0.785937
11
-0.122451
21
-0.772051
0
LINE
8
BLACK
6
CONTINUOUS
10
-0.122451
20
-0.772051
11
-0.118552
21
-0.758517
0
LINE
8
BLACK
6
CONTINUOUS
10
-0.118552
20
-0.758517
11
-0.113162
21
-0.745504
0
LINE
8
BLACK
6
CONTINUOUS
10
-0.113162
20
-0.745504
11
-0.106349
21
-0.733177
0
LINE
8
BLACK
6
CONTINUOUS
10
-0.106349
20
-0.733177
11
-0.098198
21
-0.72169
0
LINE
8
BLACK
6
CONTINUOUS
10
-0.098198
20
-0.72169
11
-0.0888126
21
-0.711187
0
LINE
8
BLACK
6
CONTINUOUS
10
-0.0888126
20
-0.711187
11
-0.0783103
21
-0.701802
0
LINE
8
BLACK
6
CONTINUOUS
10
-0.0783103
20
-0.701802
11
-0.0668232
21
-0.693651
0
LINE
8
BLACK
6
CONTINUOUS
10
-0.0668232
20
-0.693651
11
-0.0544958
21
-0.686838
0
LINE
8
BLACK
6
CONTINUOUS
10
-0.0544958
20
-0.686838
11
-0.041483
21
-0.681448
0
LINE
8
BLACK
6
CONTINUOUS
10
-0.041483
20
-0.681448
11
-0.0279486
21
-0.677549
0
LINE
8
BLACK
6
CONTINUOUS
10
-0.0279486
20
-0.677549
11
-0.0140628
21
-0.67519
0
LINE
8
BLACK
6
CONTINUOUS
10
-0.0140628
20
-0.67519
11
0
21
-0.6744
0
LINE
8
BLACK
6
CONTINUOUS
10
0
20
-0.6744
11
0.0140628
21
-0.67519
0
LINE
8
BLACK
6
CONTINUOUS
10
-0.110038
20
-0.812862
11
-0.107801
21
-0.825549
0
LINE
8
BLACK
6
CONTINUOUS
10
-0.107801
20
-0.825549
11
-0.104106
21
-0.837892
0
LINE
8
BLACK
6
CONTINUOUS
10
-0.104106
20
-0.837892
11
-0.0990033
21
-0.849721
0
LINE
8
BLACK
6
CONTINUOUS
10
-0.0990033
20
-0.849721
11
-0.0925616
21
-0.860879
0
LINE
8
BLACK
6
CONTINUOUS
10
-0.0925616
20
-0.860879
11
-0.0848681
21
-0.871213
0
LINE
8
BLACK
6
CONTINUOUS
10
-0.0848681
20
-0.871213
11
-0.076027
21
-0.880584
0
LINE
8
BLACK
6
CONTINUOUS
10
-0.076027
20
-0.880584
11
-0.0661577
21
-0.888865
0
LINE
8
BLACK
6
CONTINUOUS
10
-0.0661577
20
-0.888865
11
-0.0553937
21
-0.895945
0
LINE
8
BLACK
6
CONTINUOUS
10
-0.0553937
20
-0.895945
11
-0.0438807
21
-0.901727
0
LINE
8
BLACK
6
CONTINUOUS
10
-0.0438807
20
-0.901727
11
-0.0317742
21
-0.906133
0
LINE
8
BLACK
6
CONTINUOUS
10
-0.0317742
20
-0.906133
11
-0.019238
21
-0.909104
0
LINE
8
BLACK
6
CONTINUOUS
10
-0.019238
20
-0.909104
11
-0.00644173
21
-0.9106
0
LINE
8
BLACK
6
CONTINUOUS
10
-0.00644173
20
-0.9106
11
0.00644173
21
-0.9106
0
LINE
8
BLACK
6
CONTINUOUS
10
0.00644173
20
-0.9106
11
0.019238
21
-0.909104
0
LINE
8
BLACK
6
CONTINUOUS
10
0.019238
20
-0.909104
11
0.0317742
21
-0.906133
0
LINE
8
BLACK
6
CONTINUOUS
10
0.0317742
20
-0.906133
11
0.0438807
21
-0.901727
0
LINE
8
BLACK
6
CONTINUOUS
10
0.0438807
20
-0.901727
11
0.0553937
21
-0.895945
0
LINE
8
BLACK
6
CONTINUOUS
10
0.0553937
20
-0.895945
11
0.0661577
21
-0.888865
0
LINE
8
BLACK
6
CONTINUOUS
10
0.0661577
20
-0.888865
11
0.076027
21
-0.880584
0
LINE
8
BLACK
6
CONTINUOUS
10
0.076027
20
-0.880584
11
0.0848681
21
-0.871213
0
LINE
8
BLACK
6
CONTINUOUS
10
0.0848681
20
-0.871213
11
0.0925616
21
-0.860879
0
LINE
8
BLACK
6
CONTINUOUS
10
0.0925616
20
-0.860879
11
0.0990033
21
-0.849721
0
LINE
8
BLACK
6
CONTINUOUS
10
0.0990033
20
-0.849721
11
0.104106
21
-0.837892
0
LINE
8
BLACK
6
CONTINUOUS
10
0.104106
20
-0.837892
11
0.107801
21
-0.825549
0
LINE
8
BLACK
6
CONTINUOUS
10
0.107801
20
-0.825549
11
0.110038
21
-0.812862
0
LINE
8
BLACK
6
CONTINUOUS
10
0.110038
20
-0.812862
11
0.110787
21
-0.8
0
LINE
8
BLACK
6
CONTINUOUS
10
0.110787
20
-0.8
11
0.110038
21
-0.787138
0
LINE
8
BLACK
6
CONTINUOUS
10
0.110038
20
-0.787138
11
0.107801
21
-0.774451
0
LINE
8
BLACK
6
CONTINUOUS
10
0.107801
20
-0.774451
11
0.104106
21
-0.762108
0
LINE
8
BLACK
6
CONTINUOUS
10
0.104106
20
-0.762108
11
0.0990033
21
-0.750279
0
LINE
8
BLACK
6
CONTINUOUS
10
0.0990033
20
-0.750279
11
0.0925616
21
-0.739121
0
LINE
8
BLACK
6
CONTINUOUS
10
0.0925616
20
-0.739121
11
0.0848681
21
-0.728787
0
LINE
8
BLACK
6
CONTINUOUS
10
0.0848681
20
-0.728787
11
0.076027
21
-0.719416
0
LINE
8
BLACK
6
CONTINUOUS
10
0.076027
20
-0.719416
11
0.0661577
21
-0.711135
0
LINE
8
BLACK
6
CONTINUOUS
10
0.0661577
20
-0.711135
11
0.0553937
21
-0.704055
0
LINE
8
BLACK
6
CONTINUOUS
10
0.0553937
20
-0.704055
11
0.0438807
21
-0.698273
0
LINE
8
BLACK
6
CONTINUOUS
10
0.0438807
20
-0.698273
11
0.0317742
21
-0.693867
0
LINE
8
BLACK
6
CONTINUOUS
10
0.0317742
20
-0.693867
11
0.019238
21
-0.690896
0
LINE
8
BLACK
6
CONTINUOUS
10
0.019238
20
-0.690896
11
0.00644173
21
-0.6894
0
LINE
8
BLACK
6
CONTINUOUS
10
0.00644173
20
-0.6894
11
-0.00644173
21
-0.6894
0
LINE
8
BLACK
6
CONTINUOUS
10
-0.00644173
20
-0.6894
11
-0.019238
21
-0.690896
0
LINE
8
BLACK
6
CONTINUOUS
10
-0.019238
20
-0.690896
11
-0.0317742
21
-0.693867
0
LINE
8
BLACK
6
CONTINUOUS
10
-0.0317742
20
-0.693867
11
-0.0438807
21
-0.698273
0
LINE
8
BLACK
6
CONTINUOUS
10
-0.0438807
20
-0.698273
11
-0.0553937
21
-0.704055
0
LINE
8
BLACK
6
CONTINUOUS
10
-0.0553937
20
-0.704055
11
-0.0661577
21
-0.711135
0
LINE
8
BLACK
6
CONTINUOUS
10
-0.0661577
20
-0.711135
11
-0.076027
21
-0.719416
0
LINE
8
BLACK
6
CONTINUOUS
10
-0.076027
20
-0.719416
11
-0.0848681
21
-0.728787
0
LINE
8
BLACK
6
CONTINUOUS
10
-0.0848681
20
-0.728787
11
-0.0925616
21
-0.739121
0
LINE
8
BLACK
6
CONTINUOUS
10
-0.0925616
20
-0.739121
11
-0.0990033
21
-0.750279
0
LINE
8
BLACK
6
CONTINUOUS
10
-0.0990033
20
-0.750279
11
-0.104106
21
-0.762108
0
LINE
8
BLACK
6
CONTINUOUS
10
-0.104106
20
-0.762108
11
-0.107801
21
-0.774451
0
LINE
8
BLACK
6
CONTINUOUS
10
-0.107801
20
-0.774451
11
-0.110038
21
-0.787138
0
LINE
8
BLACK
6
CONTINUOUS
10
-0.110038
20
-0.787138
11
-0.110787
21
-0.8
0
LINE
8
BLACK
6
CONTINUOUS
10
-0.110787
20
-0.8
11
-0.110038
21
-0.812862
0
LINE
8
BLACK
6
CONTINUOUS
10
2.41406
20
-0.67519
11
2.42795
21
-0.677549
0
LINE
8
BLACK
6
CONTINUOUS
10
2.42795
20
-0.677549
11
2.44148
21
-0.681448
0
LINE
8
BLACK
6
CONTINUOUS
10
2.44148
20
-0.681448
11
2.4545
21
-0.686838
0
LINE
8
BLACK
6
CONTINUOUS
10
2.4545
20
-0.686838
11
2.46682
21
-0.693651
0
LINE
8
BLACK
6
CONTINUOUS
10
2.46682
20
-0.693651
11
2.47831
21
-0.701802
0
LINE
8
BLACK
6
CONTINUOUS
10
2.47831
20
-0.701802
11
2.48881
21
-0.711187
0
LINE
8
BLACK
6
CONTINUOUS
10
2.48881
20
-0.711187
11
2.4982
21
-0.72169
0
LINE
8
BLACK
6
CONTINUOUS
10
2.4982
20
-0.72169
11
2.50635
21
-0.733177
0
LINE
8
BLACK
6
CONTINUOUS
10
2.50635
20
-0.733177
11
2.51316
21
-0.745504
0
LINE
8
BLACK
6
CONTINUOUS
10
2.51316
20
-0.745504
11
2.51855
21
-0.758517
0
LINE
8
BLACK
6
CONTINUOUS
10
2.51855
20
-0.758517
11
2.52245
21
-0.772051
0
LINE
8
BLACK
6
CONTINUOUS
10
2.52245
20
-0.772051
11
2.52481
21
-0.785937
0
LINE
8
BLACK
6
CONTINUOUS
10
2.52481
20
-0.785937
11
2.5256
21
-0.8
0
LINE
8
BLACK
6
CONTINUOUS
10
2.5256
20
-0.8
11
2.52481
21
-0.814063
0
LINE
8
BLACK
6
CONTINUOUS
10
2.52481
20
-0.814063
11
2.52245
21
-0.827949
0
LINE
8
BLACK
6
CONTINUOUS
10
2.52245
20
-0.827949
11
2.51855
21
-0.841483
0
LINE
8
BLACK
6
CONTINUOUS
10
2.51855
20
-0.841483
11
2.51316
21
-0.854496
0
LINE
8
BLACK
6
CONTINUOUS
10
2.51316
20
-0.854496
11
2.50635
21
-0.866823
0
LINE
8
BLACK
6
CONTINUOUS
10
2.50635
20
-0.866823
11
2.4982
21
-0.87831
0
LINE
8
BLACK
6
CONTINUOUS
10
2.4982
20
-0.87831
11
2.48881
21
-0.888813
0
LINE
8
BLACK
6
CONTINUOUS
10
2.48881
20
-0.888813
11
2.47831
21
-0.898198
0
LINE
8
BLACK
6
CONTINUOUS
10
2.47831
20
-0.898198
11
2.46682
21
-0.906349
0
LINE
8
BLACK
6
CONTINUOUS
10
2.46682
20
-0.906349
11
2.4545
21
-0.913162
0
LINE
8
BLACK
6
CONTINUOUS
10
2.4545
20
-0.913162
11
2.44148
21
-0.918552
0
LINE
8
BLACK
6
CONTINUOUS
10
2.44148
20
-0.918552
11
2.42795
21
-0.922451
0
LINE
8
BLACK
6
CONTINUOUS
10
2.42795
20
-0.922451
11
2.41406
21
-0.92481
0
LINE
8
BLACK
6
CONTINUOUS
10
2.41406
20
-0.92481
11
2.4
21
-0.9256
0
LINE
8
BLACK
6
CONTINUOUS
10
2.4
20
-0.9256
11
2.38594
21
-0.92481
0
LINE
8
BLACK
6
CONTINUOUS
10
2.38594
20
-0.92481
11
2.37205
21
-0.922451
0
LINE
8
BLACK
6
CONTINUOUS
10
2.37205
20
-0.922451
11
2.35852
21
-0.918552
0
LINE
8
BLACK
6
CONTINUOUS
10
2.35852
20
-0.918552
11
2.3455
21
-0.913162
0
LINE
8
BLACK
6
CONTINUOUS
10
2.3455
20
-0.913162
11
2.33318
21
-0.906349
0
LINE
8
BLACK
6
CONTINUOUS
10
2.33318
20
-0.906349
11
2.32169
21
-0.898198
0
LINE
8
BLACK
6
CONTINUOUS
10
2.32169
20
-0.898198
11
2.31119
21
-0.888813
0
LINE
8
BLACK
6
CONTINUOUS
10
2.31119
20
-0.888813
11
2.3018
21
-0.87831
0
LINE
8
BLACK
6
CONTINUOUS
10
2.3018
20
-0.87831
11
2.29365
21
-0.866823
0
LINE
8
BLACK
6
CONTINUOUS
10
2.29365
20
-0.866823
11
2.28684
21
-0.854496
0
LINE
8
BLACK
6
CONTINUOUS
10
2.28684
20
-0.854496
11
2.28145
21
-0.841483
0
LINE
8
BLACK
6
CONTINUOUS
10
2.28145
20
-0.841483
11
2.27755
21
-0.827949
0
LINE
8
BLACK
6
CONTINUOUS
10
2.27755
20
-0.827949
11
2.27519
21
-0.814063
0
LINE
8
BLACK
6
CONTINUOUS
10
2.27519
20
-0.814063
11
2.2744
21
-0.8
0
LINE
8
BLACK
6
CONTINUOUS
10
2.2744
20
-0.8
11
2.27519
21
-0.785937
0
LINE
8
BLACK
6
CONTINUOUS
10
2.27519
20
-0.785937
11
2.27755
21
-0.772051
0
LINE
8
BLACK
6
CONTINUOUS
10
2.27755
20
-0.772051
11
2.28145
21
-0.758517
0
LINE
8
BLACK
6
CONTINUOUS
10
2.28145
20
-0.758517
11
2.28684
21
-0.745504
0
LINE
8
BLACK
6
CONTINUOUS
10
2.28684
20
-0.745504
11
2.29365
21
-0.733177
0
LINE
8
BLACK
6
CONTINUOUS
10
2.29365
20
-0.733177
11
2.3018
21
-0.72169
0
LINE
8
BLACK
6
CONTINUOUS
10
2.3018
20
-0.72169
11
2.31119
21
-0.711187
0
LINE
8
BLACK
6
CONTINUOUS
10
2.31119
20
-0.711187
11
2.32169
21
-0.701802
0
LINE
8
BLACK
6
CONTINUOUS
10
2.32169
20
-0.701802
11
2.33318
21
-0.693651
0
LINE
8
BLACK
6
CONTINUOUS
10
2.33318
20
-0.693651
11
2.3455
21
-0.686838
0
LINE
8
BLACK
6
CONTINUOUS
10
2.3455
20
-0.686838
11
2.35852
21
-0.681448
0
LINE
8
BLACK
6
CONTINUOUS
10
2.35852
20
-0.681448
11
2.37205
21
-0.677549
0
LINE
8
BLACK
6
CONTINUOUS
10
2.37205
20
-0.677549
11
2.38594
21
-0.67519
0
LINE
8
BLACK
6
CONTINUOUS
10
2.38594
20
-0.67519
11
2.4
21
-0.6744
0
LINE
8
BLACK
6
CONTINUOUS
10
2.4
20
-0.6744
11
2.41406
21
-0.67519
0
LINE
8
BLACK
6
CONTINUOUS
10
2.28996
20
-0.812862
11
2.2922
21
-0.825549
0
LINE
8
BLACK
6
CONTINUOUS
10
2.2922
20
-0.825549
11
2.29589
21
-0.837892
0
LINE
8
BLACK
6
CONTINUOUS
10
2.29589
20
-0.837892
11
2.301
21
-0.849721
0
LINE
8
BLACK
6
CONTINUOUS
10
2.301
20
-0.849721
11
2.30744
21
-0.860879
0
LINE
8
BLACK
6
CONTINUOUS
10
2.30744
20
-0.860879
11
2.31513
21
-0.871213
0
LINE
8
BLACK
6
CONTINUOUS
10
2.31513
20
-0.871213
11
2.32397
21
-0.880584
0
LINE
8
BLACK
6
CONTINUOUS
10
2.32397
20
-0.880584
11
2.33384
21
-0.888865
0
LINE
8
BLACK
6
CONTINUOUS
10
2.33384
20
-0.888865
11
2.34461
21
-0.895945
0
LINE
8
BLACK
6
CONTINUOUS
10
2.34461
20
-0.895945
11
2.35612
21
-0.901727
0
LINE
8
BLACK
6
CONTINUOUS
10
2.35612
20
-0.901727
11
2.36823
21
-0.906133
0
LINE
8
BLACK
6
CONTINUOUS
10
2.36823
20
-0.906133
11
2.38076
21
-0.909104
0
LINE
8
BLACK
6
CONTINUOUS
10
2.38076
20
-0.909104
11
2.39356
21
-0.9106
0
LINE
8
BLACK
6
CONTINUOUS
10
2.39356
20
-0.9106
11
2.40644
21
-0.9106
0
LINE
8
BLACK
6
CONTINUOUS
10
2.40644
20
-0.9106
11
2.41924
21
-0.909104
0
LINE
8
BLACK
6
CONTINUOUS
10
2.41924
20
-0.909104
11
2.43177
21
-0.906133
0
LINE
8
BLACK
6
CONTINUOUS
10
2.43177
20
-0.906133
11
2.44388
21
-0.901727
0
LINE
8
BLACK
6
CONTINUOUS
10
2.44388
20
-0.901727
11
2.45539
21
-0.895945
0
LINE
8
BLACK
6
CONTINUOUS
10
2.45539
20
-0.895945
11
2.46616
21
-0.888865
0
LINE
8
BLACK
6
CONTINUOUS
10
2.46616
20
-0.888865
11
2.47603
21
-0.880584
0
LINE
8
BLACK
6
CONTINUOUS
10
2.47603
20
-0.880584
11
2.48487
21
-0.871213
0
LINE
8
BLACK
6
CONTINUOUS
10
2.48487
20
-0.871213
11
2.49256
21
-0.860879
0
LINE
8
BLACK
6
CONTINUOUS
10
2.49256
20
-0.860879
11
2.499
21
-0.849721
0
LINE
8
BLACK
6
CONTINUOUS
10
2.499
20
-0.849721
11
2.50411
21
-0.837892
0
LINE
8
BLACK
6
CONTINUOUS
10
2.50411
20
-0.837892
11
2.5078
21
-0.825549
0
LINE
8
BLACK
6
CONTINUOUS
10
2.5078
20
-0.825549
11
2.51004
21
-0.812862
0
LINE
8
BLACK
6
CONTINUOUS
10
2.51004
20
-0.812862
11
2.51079
21
-0.8
0
LINE
8
BLACK
6
CONTINUOUS
10
2.51079
20
-0.8
11
2.51004
21
-0.787138
0
LINE
8
BLACK
6
CONTINUOUS
10
2.51004
20
-0.787138
11
2.5078
21
-0.774451
0
LINE
8
BLACK
6
CONTINUOUS
10
2.5078
20
-0.774451
11
2.50411
21
-0.762108
0
LINE
8
BLACK
6
CONTINUOUS
10
2.50411
20
-0.762108
11
2.499
21
-0.750279
0
LINE
8
BLACK
6
CONTINUOUS
10
2.499
20
-0.750279
11
2.49256
21
-0.739121
0
LINE
8
BLACK
6
CONTINUOUS
10
2.49256
20
-0.739121
11
2.48487
21
-0.728787
0
LINE
8
BLACK
6
CONTINUOUS
10
2.48487
20
-0.728787
11
2.47603
21
-0.719416
0
LINE
8
BLACK
6
CONTINUOUS
10
2.47603
20
-0.719416
11
2.46616
21
-0.711135
0
LINE
8
BLACK
6
CONTINUOUS
10
2.46616
20
-0.711135
11
2.45539
21
-0.704055
0
LINE
8
BLACK
6
CONTINUOUS
10
2.45539
20
-0.704055
11
2.44388
21
-0.698273
0
LINE
8
BLACK
6
CONTINUOUS
10
2.44388
20
-0.698273
11
2.43177
21
-0.693867
0
LINE
8
BLACK
6
CONTINUOUS
10
2.43177
20
-0.693867
11
2.41924
21
-0.690896
0
LINE
8
BLACK
6
CONTINUOUS
10
2.41924
20
-0.690896
11
2.40644
21
-0.6894
0
LINE
8
BLACK
6
CONTINUOUS
10
2.40644
20
-0.6894
11
2.39356
21
-0.6894
0
LINE
8
BLACK
6
CONTINUOUS
10
2.39356
20
-0.6894
11
2.38076
21
-0.690896
0
LINE
8
BLACK
6
CONTINUOUS
10
2.38076
20
-0.690896
11
2.36823
21
-0.693867
0
LINE
8
BLACK
6
CONTINUOUS
10
2.36823
20
-0.693867
11
2.35612
21
-0.698273
0
LINE
8
BLACK
6
CONTINUOUS
10
2.35612
20
-0.698273
11
2.34461
21
-0.704055
0
LINE
8
BLACK
6
CONTINUOUS
10
2.34461
20
-0.704055
11
2.33384
21
-0.711135
0
LINE
8
BLACK
6
CONTINUOUS
10
2.33384
20
-0.711135
11
2.32397
21
-0.719416
0
LINE
8
BLACK
6
CONTINUOUS
10
2.32397
20
-0.719416
11
2.31513
21
-0.728787
0
LINE
8
BLACK
6
CONTINUOUS
10
2.31513
20
-0.728787
11
2.30744
21
-0.739121
0
LINE
8
BLACK
6
CONTINUOUS
10
2.30744
20
-0.739121
11
2.301
21
-0.750279
0
LINE
8
BLACK
6
CONTINUOUS
10
2.301
20
-0.750279
11
2.29589
21
-0.762108
0
LINE
8
BLACK
6
CONTINUOUS
10
2.29589
20
-0.762108
11
2.2922
21
-0.774451
0
LINE
8
BLACK
6
CONTINUOUS
10
2.2922
20
-0.774451
11
2.28996
21
-0.787138
0
LINE
8
BLACK
6
CONTINUOUS
10
2.28996
20
-0.787138
11
2.28921
21
-0.8
0
LINE
8
BLACK
6
CONTINUOUS
10
2.28921
20
-0.8
11
2.28996
21
-0.812862
0
LINE
8
BLACK
6
CONTINUOUS
10
0.0140628
20
0.12481
11
0.0279486
21
0.122451
0
LINE
8
BLACK
6
CONTINUOUS
10
0.0279486
20
0.122451
11
0.041483
21
0.118552
0
LINE
8
BLACK
6
CONTINUOUS
10
0.041483
20
0.118552
11
0.0544958
21
0.113162
0
LINE
8
BLACK
6
CONTINUOUS
10
0.0544958
20
0.113162
11
0.0668232
21
0.106349
0
LINE
8
BLACK
6
CONTINUOUS
10
0.0668232
20
0.106349
11
0.0783103
21
0.098198
0
LINE
8
BLACK
6
CONTINUOUS
10
0.0783103
20
0.098198
11
0.0888126
21
0.0888126
0
LINE
8
BLACK
6
CONTINUOUS
10
0.0888126
20
0.0888126
11
0.098198
21
0.0783103
0
LINE
8
BLACK
6
CONTINUOUS
10
0.098198
20
0.0783103
11
0.106349
21
0.0668232
0
LINE
8
BLACK
6
CONTINUOUS
10
0.106349
20
0.0668232
11
0.113162
21
0.0544958
0
LINE
8
BLACK
6
CONTINUOUS
10
0.113162
20
0.0544958
11
0.118552
21
0.041483
0
LINE
8
BLACK
6
CONTINUOUS
10
0.118552
20
0.041483
11
0.122451
21
0.0279486
0
LINE
8
BLACK
6
CONTINUOUS
10
0.122451
20
0.0279486
11
0.12481
21
0.0140628
0
LINE
8
BLACK
6
CONTINUOUS
10
0.12481
20
0.0140628
11
0.1256
21
0
0
LINE
8
BLACK
6
CONTINUOUS
10
0.1256
20
0
11
0.12481
21
-0.0140628
0
LINE
8
BLACK
6
CONTINUOUS
10
0.12481
20
-0.0140628
11
0.122451
21
-0.0279486
0
LINE
8
BLACK
6
CONTINUOUS
10
0.122451
20
-0.0279486
11
0.118552
21
-0.041483
0
LINE
8
BLACK
6
CONTINUOUS
10
0.118552
20
-0.041483
11
0.113162
21
-0.0544958
0
LINE
8
BLACK
6
CONTINUOUS
10
0.113162
20
-0.0544958
11
0.106349
21
-0.0668232
0
LINE
8
BLACK
6
CONTINUOUS
10
0.106349
20
-0.0668232
11
0.098198
21
-0.0783103
0
LINE
8
BLACK
6
CONTINUOUS
10
0.098198
20
-0.0783103
11
0.0888126
21
-0.0888126
0
LINE
8
BLACK
6
CONTINUOUS
10
0.0888126
20
-0.0888126
11
0.0783103
21
-0.098198
0
LINE
8
BLACK
6
CONTINUOUS
10
0.0783103
20
-0.098198
11
0.0668232
21
-0.106349
0
LINE
8
BLACK
6
CONTINUOUS
10
0.0668232
20
-0.106349
11
0.0544958
21
-0.113162
0
LINE
8
BLACK
6
CONTINUOUS
10
0.0544958
20
-0.113162
11
0.041483
21
-0.118552
0
LINE
8
BLACK
6
CONTINUOUS
10
0.041483
20
-0.118552
11
0.0279486
21
-0.122451
0
LINE
8
BLACK
6
CONTINUOUS
10
0.0279486
20
-0.122451
11
0.0140628
21
-0.12481
0
LINE
8
BLACK
6
CONTINUOUS
10
0.0140628
20
-0.12481
11
0
21
-0.1256
0
LINE
8
BLACK
6
CONTINUOUS
10
0
20
-0.1256
11
-0.0140628
21
-0.12481
0
LINE
8
BLACK
6
CONTINUOUS
10
-0.0140628
20
-0.12481
11
-0.0279486
21
-0.122451
0
LINE
8
BLACK
6
CONTINUOUS
10
-0.0279486
20
-0.122451
11
-0.041483
21
-0.118552
0
LINE
8
BLACK
6
CONTINUOUS
10
-0.041483
20
-0.118552
11
-0.0544958
21
-0.113162
0
LINE
8
BLACK
6
CONTINUOUS
10
-0.0544958
20
-0.113162
11
-0.0668232
21
-0.106349
0
LINE
8
BLACK
6
CONTINUOUS
10
-0.0668232
20
-0.106349
11
-0.0783103
21
-0.098198
0
LINE
8
BLACK
6
CONTINUOUS
10
-0.0783103
20
-0.098198
11
-0.0888126
21
-0.0888126
0
LINE
8
BLACK
6
CONTINUOUS
10
-0.0888126
20
-0.0888126
11
-0.098198
21
-0.0783103
0
LINE
8
BLACK
6
CONTINUOUS
10
-0.098198
20
-0.0783103
11
-0.106349
21
-0.0668232
0
LINE
8
BLACK
6
CONTINUOUS
10
-0.106349
20
-0.0668232
11
-0.113162
21
-0.0544958
0
LINE
8
BLACK
6
CONTINUOUS
10
-0.113162
20
-0.0544958
11
-0.118552
21
-0.041483
0
LINE
8
BLACK
6
CONTINUOUS
10
-0.118552
20
-0.041483
11
-0.122451
21
-0.0279486
0
LINE
8
BLACK
6
CONTINUOUS
10
-0.122451
20
-0.0279486
11
-0.12481
21
-0.0140628
0
LINE
8
BLACK
6
CONTINUOUS
10
-0.12481
20
-0.0140628
11
-0.1256
21
0
0
LINE
8
BLACK
6
CONTINUOUS
10
-0.1256
20
0
11
-0.12481
21
0.0140628
0
LINE
8
BLACK
6
CONTINUOUS
10
-0.12481
20
0.0140628
11
-0.122451
21
0.0279486
0
LINE
8
BLACK
6
CONTINUOUS
10
-0.122451
20
0.0279486
11
-0.118552
21
0.041483
0
LINE
8
BLACK
6
CONTINUOUS
10
-0.118552
20
0.041483
11
-0.113162
21
0.0544958
0
LINE
8
BLACK
6
CONTINUOUS
10
-0.113162
20
0.0544958
11
-0.106349
21
0.0668232
0
LINE
8
BLACK
6
CONTINUOUS
10
-0.106349
20
0.0668232
11
-0.098198
21
0.0783103
0
LINE
8
BLACK
6
CONTINUOUS
10
-0.098198
20
0.0783103
11
-0.0888126
21
0.0888126
0
LINE
8
BLACK
6
CONTINUOUS
10
-0.0888126
20
0.0888126
11
-0.0783103
21
0.098198
0
LINE
8
BLACK
6
CONTINUOUS
10
-0.0783103
20
0.098198
11
-0.0668232
21
0.106349
0
LINE
8
BLACK
6
CONTINUOUS
10
-0.0668232
20
0.106349
11
-0.0544958
21
0.113162
0
LINE
8
BLACK
6
CONTINUOUS
10
-0.0544958
20
0.113162
11
-0.041483
21
0.118552
0
LINE
8
BLACK
6
CONTINUOUS
10
-0.041483
20
0.118552
11
-0.0279486
21
0.122451
0
LINE
8
BLACK
6
CONTINUOUS
10
-0.0279486
20
0.122451
11
-0.0140628
21
0.12481
0
LINE
8
BLACK
6
CONTINUOUS
10
-0.0140628
20
0.12481
11
0
21
0.1256
0
LINE
8
BLACK
6
CONTINUOUS
10
0
20
0.1256
11
0.0140628
21
0.12481
0
LINE
8
BLACK
6
CONTINUOUS
10
-0.110038
20
-0.0128617
11
-0.107801
21
-0.0255493
0
LINE
8
BLACK
6
CONTINUOUS
10
-0.107801
20
-0.0255493
11
-0.104106
21
-0.0378915
0
LINE
8
BLACK
6
CONTINUOUS
10
-0.104106
20
-0.0378915
11
-0.0990033
21
-0.0497213
0
LINE
8
BLACK
6
CONTINUOUS
10
-0.0990033
20
-0.0497213
11
-0.0925616
21
-0.0608787
0
LINE
8
BLACK
6
CONTINUOUS
10
-0.0925616
20
-0.0608787
11
-0.0848681
21
-0.0712128
0
LINE
8
BLACK
6
CONTINUOUS
10
-0.0848681
20
-0.0712128
11
-0.076027
21
-0.0805839
0
LINE
8
BLACK
6
CONTINUOUS
10
-0.076027
20
-0.0805839
11
-0.0661577
21
-0.0888652
0
LINE
8
BLACK
6
CONTINUOUS
10
-0.0661577
20
-0.0888652
11
-0.0553937
21
-0.0959447
0
LINE
8
BLACK
6
CONTINUOUS
10
-0.0553937
20
-0.0959447
11
-0.0438807
21
-0.101727
0
LINE
8
BLACK
6
CONTINUOUS
10
-0.0438807
20
-0.101727
11
-0.0317742
21
-0.106133
0
LINE
8
BLACK
6
CONTINUOUS
10
-0.0317742
20
-0.106133
11
-0.019238
21
-0.109104
0
LINE
8
BLACK
6
CONTINUOUS
10
-0.019238
20
-0.109104
11
-0.00644173
21
-0.1106
0
LINE
8
BLACK
6
CONTINUOUS
10
-0.00644173
20
-0.1106
11
0.00644173
21
-0.1106
0
LINE
8
BLACK
6
CONTINUOUS
10
0.00644173
20
-0.1106
11
0.019238
21
-0.109104
0
LINE
8
BLACK
6
CONTINUOUS
10
0.019238
20
-0.109104
11
0.0317742
21
-0.106133
0
LINE
8
BLACK
6
CONTINUOUS
10
0.0317742
20
-0.106133
11
0.0438807
21
-0.101727
0
LINE
8
BLACK
6
CONTINUOUS
10
0.0438807
20
-0.101727
11
0.0553937
21
-0.0959447
0
LINE
8
BLACK
6
CONTINUOUS
10
0.0553937
20
-0.0959447
11
0.0661577
21
-0.0888652
0
LINE
8
BLACK
6
CONTINUOUS
10
0.0661577
20
-0.0888652
11
0.076027
21
-0.0805839
0
LINE
8
BLACK
6
CONTINUOUS
10
0.076027
20
-0.0805839
11
0.0848681
21
-0.0712128
0
LINE
8
BLACK
6
CONTINUOUS
10
0.0848681
20
-0.0712128
11
0.0925616
21
-0.0608787
0
LINE
8
BLACK
6
CONTINUOUS
10
0.0925616
20
-0.0608787
11
0.0990033
21
-0.0497213
0
LINE
8
BLACK
6
CONTINUOUS
10
0.0990033
20
-0.0497213
11
0.104106
21
-0.0378915
0
LINE
8
BLACK
6
CONTINUOUS
10
0.104106
20
-0.0378915
11
0.107801
21
-0.0255493
0
LINE
8
BLACK
6
CONTINUOUS
10
0.107801
20
-0.0255493
11
0.110038
21
-0.0128617
0
LINE
8
BLACK
6
CONTINUOUS
10
0.110038
20
-0.0128617
11
0.110787
21
0
0
LINE
8
BLACK
6
CONTINUOUS
10
0.110787
20
0
11
0.110038
21
0.0128617
0
LINE
8
BLACK
6
CONTINUOUS
10
0.110038
20
0.0128617
11
0.107801
21
0.0255493
0
LINE
8
BLACK
6
CONTINUOUS
10
0.107801
20
0.0255493
11
0.104106
21
0.0378915
0
LINE
8
BLACK
6
CONTINUOUS
10
0.104106
20
0.0378915
11
0.0990033
21
0.0497213
0
LINE
8
BLACK
6
CONTINUOUS
10
0.0990033
20
0.0497213
11
0.0925616
21
0.0608787
0
LINE
8
BLACK
6
CONTINUOUS
10
0.0925616
20
0.0608787
11
0.0848681
21
0.0712128
0
LINE
8
BLACK
6
CONTINUOUS
10
0.0848681
20
0.0712128
11
0.076027
21
0.0805839
0
LINE
8
BLACK
6
CONTINUOUS
10
0.076027
20
0.0805839
11
0.0661577
21
0.0888652
0
LINE
8
BLACK
6
CONTINUOUS
10
0.0661577
20
0.0888652
11
0.0553937
21
0.0959447
0
LINE
8
BLACK
6
CONTINUOUS
10
0.0553937
20
0.0959447
11
0.0438807
21
0.101727
0
LINE
8
BLACK
6
CONTINUOUS
10
0.0438807
20
0.101727
11
0.0317742
21
0.106133
0
LINE
8
BLACK
6
CONTINUOUS
10
0.0317742
20
0.106133
11
0.019238
21
0.109104
0
LINE
8
BLACK
6
CONTINUOUS
10
0.019238
20
0.109104
11
0.00644173
21
0.1106
0
LINE
8
BLACK
6
CONTINUOUS
10
0.00644173
20
0.1106
11
-0.00644173
21
0.1106
0
LINE
8
BLACK
6
CONTINUOUS
10
-0.00644173
20
0.1106
11
-0.019238
21
0.109104
0
LINE
8
BLACK
6
CONTINUOUS
10
-0.019238
20
0.109104
11
-0.0317742
21
0.106133
0
LINE
8
BLACK
6
CONTINUOUS
10
-0.0317742
20
0.106133
11
-0.0438807
21
0.101727
0
LINE
8
BLACK
6
CONTINUOUS
10
-0.0438807
20
0.101727
11
-0.0553937
21
0.0959447
0
LINE
8
BLACK
6
CONTINUOUS
10
-0.0553937
20
0.0959447
11
-0.0661577
21
0.0888652
0
LINE
8
BLACK
6
CONTINUOUS
10
-0.0661577
20
0.0888652
11
-0.076027
21
0.0805839
0
LINE
8
BLACK
6
CONTINUOUS
10
-0.076027
20
0.0805839
11
-0.0848681
21
0.0712128
0
LINE
8
BLACK
6
CONTINUOUS
10
-0.0848681
20
0.0712128
11
-0.0925616
21
0.0608787
0
LINE
8
BLACK
6
CONTINUOUS
10
-0.0925616
20
0.0608787
11
-0.0990033
21
0.0497213
0
LINE
8
BLACK
6
CONTINUOUS
10
-0.0990033
20
0.0497213
11
-0.104106
21
0.0378915
0
LINE
8
BLACK
6
CONTINUOUS
10
-0.104106
20
0.0378915
11
-0.107801
21
0.0255493
0
LINE
8
BLACK
6
CONTINUOUS
10
-0.107801
20
0.0255493
11
-0.110038
21
0.0128617
0
LINE
8
BLACK
6
CONTINUOUS
10
-0.110038
20
0.0128617
11
-0.110787
21
0
0
LINE
8
BLACK
6
CONTINUOUS
10
-0.110787
20
0
11
-0.110038
21
-0.0128617
0
LINE
8
BLACK
6
CONTINUOUS
10
2.41406
20
0.12481
11
2.42795
21
0.122451
0
LINE
8
BLACK
6
CONTINUOUS
10
2.42795
20
0.122451
11
2.44148
21
0.118552
0
LINE
8
BLACK
6
CONTINUOUS
10
2.44148
20
0.118552
11
2.4545
21
0.113162
0
LINE
8
BLACK
6
CONTINUOUS
10
2.4545
20
0.113162
11
2.46682
21
0.106349
0
LINE
8
BLACK
6
CONTINUOUS
10
2.46682
20
0.106349
11
2.47831
21
0.098198
0
LINE
8
BLACK
6
CONTINUOUS
10
2.47831
20
0.098198
11
2.48881
21
0.0888126
0
LINE
8
BLACK
6
CONTINUOUS
10
2.48881
20
0.0888126
11
2.4982
21
0.0783103
0
LINE
8
BLACK
6
CONTINUOUS
10
2.4982
20
0.0783103
11
2.50635
21
0.0668232
0
LINE
8
BLACK
6
CONTINUOUS
10
2.50635
20
0.0668232
11
2.51316
21
0.0544958
0
LINE
8
BLACK
6
CONTINUOUS
10
2.51316
20
0.0544958
11
2.51855
21
0.041483
0
LINE
8
BLACK
6
CONTINUOUS
10
2.51855
20
0.041483
11
2.52245
21
0.0279486
0
LINE
8
BLACK
6
CONTINUOUS
10
2.52245
20
0.0279486
11
2.52481
21
0.0140628
0
LINE
8
BLACK
6
CONTINUOUS
10
2.52481
20
0.0140628
11
2.5256
21
0
0
LINE
8
BLACK
6
CONTINUOUS
10
2.5256
20
0
11
2.52481
21
-0.0140628
0
LINE
8
BLACK
6
CONTINUOUS
10
2.52481
20
-0.0140628
11
2.52245
21
-0.0279486
0
LINE
8
BLACK
6
CONTINUOUS
10
2.52245
20
-0.0279486
11
2.51855
21
-0.041483
0
LINE
8
BLACK
6
CONTINUOUS
10
2.51855
20
-0.041483
11
2.51316
21
-0.0544958
0
LINE
8
BLACK
6
CONTINUOUS
10
2.51316
20
-0.0544958
11
2.50635
21
-0.0668232
0
LINE
8
BLACK
6
CONTINUOUS
10
2.50635
20
-0.0668232
11
2.4982
21
-0.0783103
0
LINE
8
BLACK
6
CONTINUOUS
10
2.4982
20
-0.0783103
11
2.48881
21
-0.0888126
0
LINE
8
BLACK
6
CONTINUOUS
10
2.48881
20
-0.0888126
11
2.47831
21
-0.098198
0
LINE
8
BLACK
6
CONTINUOUS
10
2.47831
20
-0.098198
11
2.46682
21
-0.106349
0
LINE
8
BLACK
6
CONTINUOUS
10
2.46682
20
-0.106349
11
2.4545
21
-0.113162
0
LINE
8
BLACK
6
CONTINUOUS
10
2.4545
20
-0.113162
11
2.44148
21
-0.118552
0
LINE
8
BLACK
6
CONTINUOUS
10
2.44148
20
-0.118552
11
2.42795
21
-0.122451
0
LINE
8
BLACK
6
CONTINUOUS
10
2.42795
20
-0.122451
11
2.41406
21
-0.12481
0
LINE
8
BLACK
6
CONTINUOUS
10
2.41406
20
-0.12481
11
2.4
21
-0.1256
0
LINE
8
BLACK
6
CONTINUOUS
10
2.4
20
-0.1256
11
2.38594
21
-0.12481
0
LINE
8
BLACK
6
CONTINUOUS
10
2.38594
20
-0.12481
11
2.37205
21
-0.122451
0
LINE
8
BLACK
6
CONTINUOUS
10
2.37205
20
-0.122451
11
2.35852
21
-0.118552
0
LINE
8
BLACK
6
CONTINUOUS
10
2.35852
20
-0.118552
11
2.3455
21
-0.113162
0
LINE
8
BLACK
6
CONTINUOUS
10
2.3455
20
-0.113162
11
2.33318
21
-0.106349
0
LINE
8
BLACK
6
CONTINUOUS
10
2.33318
20
-0.106349
11
2.32169
21
-0.098198
0
LINE
8
BLACK
6
CONTINUOUS
10
2.32169
20
-0.098198
11
2.31119
21
-0.0888126
0
LINE
8
BLACK
6
CONTINUOUS
10
2.31119
20
-0.0888126
11
2.3018
21
-0.0783103
0
LINE
8
BLACK
6
CONTINUOUS
10
2.3018
20
-0.0783103
11
2.29365
21
-0.0668232
0
LINE
8
BLACK
6
CONTINUOUS
10
2.29365
20
-0.0668232
11
2.28684
21
-0.0544958
0
LINE
8
BLACK
6
CONTINUOUS
10
2.28684
20
-0.0544958
11
2.28145
21
-0.041483
0
LINE
8
BLACK
6
CONTINUOUS
10
2.28145
20
-0.041483
11
2.27755
21
-0.0279486
0
LINE
8
BLACK
6
CONTINUOUS
10
2.27755
20
-0.0279486
11
2.27519
21
-0.0140628
0
LINE
8
BLACK
6
CONTINUOUS
10
2.27519
20
-0.0140628
11
2.2744
21
0
0
LINE
8
BLACK
6
CONTINUOUS
10
2.2744
20
0
11
2.27519
21
0.0140628
0
LINE
8
BLACK
6
CONTINUOUS
10
2.27519
20
0.0140628
11
2.27755
21
0.0279486
0
LINE
8
BLACK
6
CONTINUOUS
10
2.27755
20
0.0279486
11
2.28145
21
0.041483
0
LINE
8
BLACK
6
CONTINUOUS
10
2.28145
20
0.041483
11
2.28684
21
0.0544958
0
LINE
8
BLACK
6
CONTINUOUS
10
2.28684
20
0.0544958
11
2.29365
21
0.0668232
0
LINE
8
BLACK
6
CONTINUOUS
10
2.29365
20
0.0668232
11
2.3018
21
0.0783103
0
LINE
8
BLACK
6
CONTINUOUS
10
2.3018
20
0.0783103
11
2.31119
21
0.0888126
0
LINE
8
BLACK
6
CONTINUOUS
10
2.31119
20
0.0888126
11
2.32169
21
0.098198
0
LINE
8
BLACK
6
CONTINUOUS
10
2.32169
20
0.098198
11
2.33318
21
0.106349
0
LINE
8
BLACK
6
CONTINUOUS
10
2.33318
20
0.106349
11
2.3455
21
0.113162
0
LINE
8
BLACK
6
CONTINUOUS
10
2.3455
20
0.113162
11
2.35852
21
0.118552
0
LINE
8
BLACK
6
CONTINUOUS
10
2.35852
20
0.118552
11
2.37205
21
0.122451
0
LINE
8
BLACK
6
CONTINUOUS
10
2.37205
20
0.122451
11
2.38594
21
0.12481
0
LINE
8
BLACK
6
CONTINUOUS
10
2.38594
20
0.12481
11
2.4
21
0.1256
0
LINE
8
BLACK
6
CONTINUOUS
10
2.4
20
0.1256
11
2.41406
21
0.12481
0
LINE
8
BLACK
6
CONTINUOUS
10
2.28996
20
-0.0128617
11
2.2922
21
-0.0255493
0
LINE
8
BLACK
6
CONTINUOUS
10
2.2922
20
-0.0255493
11
2.29589
21
-0.0378915
0
LINE
8
BLACK
6
CONTINUOUS
10
2.29589
20
-0.0378915
11
2.301
21
-0.0497213
0
LINE
8
BLACK
6
CONTINUOUS
10
2.301
20
-0.0497213
11
2.30744
21
-0.0608787
0
LINE
8
BLACK
6
CONTINUOUS
10
2.30744
20
-0.0608787
11
2.31513
21
-0.0712128
0
LINE
8
BLACK
6
CONTINUOUS
10
2.31513
20
-0.0712128
11
2.32397
21
-0.0805839
0
LINE
8
BLACK
6
CONTINUOUS
10
2.32397
20
-0.0805839
11
2.33384
21
-0.0888652
0
LINE
8
BLACK
6
CONTINUOUS
10
2.33384
20
-0.0888652
11
2.34461
21
-0.0959447
0
LINE
8
BLACK
6
CONTINUOUS
10
2.34461
20
-0.0959447
11
2.35612
21
-0.101727
0
LINE
8
BLACK
6
CONTINUOUS
10
2.35612
20
-0.101727
11
2.36823
21
-0.106133
0
LINE
8
BLACK
6
CONTINUOUS
10
2.36823
20
-0.106133
11
2.38076
21
-0.109104
0
LINE
8
BLACK
6
CONTINUOUS
10
2.38076
20
-0.109104
11
2.39356
21
-0.1106
0
LINE
8
BLACK
6
CONTINUOUS
10
2.39356
20
-0.1106
11
2.40644
21
-0.1106
0
LINE
8
BLACK
6
CONTINUOUS
10
2.40644
20
-0.1106
11
2.41924
21
-0.109104
0
LINE
8
BLACK
6
CONTINUOUS
10
2.41924
20
-0.109104
11
2.43177
21
-0.106133
0
LINE
8
BLACK
6
CONTINUOUS
10
2.43177
20
-0.106133
11
2.44388
21
-0.101727
0
LINE
8
BLACK
6
CONTINUOUS
10
2.44388
20
-0.101727
11
2.45539
21
-0.0959447
0
LINE
8
BLACK
6
CONTINUOUS
10
2.45539
20
-0.0959447
11
2.46616
21
-0.0888652
0
LINE
8
BLACK
6
CONTINUOUS
10
2.46616
20
-0.0888652
11
2.47603
21
-0.0805839
0
LINE
8
BLACK
6
CONTINUOUS
10
2.47603
20
-0.0805839
11
2.48487
21
-0.0712128
0
LINE
8
BLACK
6
CONTINUOUS
10
2.48487
20
-0.0712128
11
2.49256
21
-0.0608787
0
LINE
8
BLACK
6
CONTINUOUS
10
2.49256
20
-0.0608787
11
2.499
21
-0.0497213
0
LINE
8
BLACK
6
CONTINUOUS
10
2.499
20
-0.0497213
11
2.50411
21
-0.0378915
0
LINE
8
BLACK
6
CONTINUOUS
10
2.50411
20
-0.0378915
11
2.5078
21
-0.0255493
0
LINE
8
BLACK
6
CONTINUOUS
10
2.5078
20
-0.0255493
11
2.51004
21
-0.0128617
0
LINE
8
BLACK
6
CONTINUOUS
10
2.51004
20
-0.0128617
11
2.51079
21
0
0
LINE
8
BLACK
6
CONTINUOUS
10
2.51079
20
0
11
2.51004
21
0.0128617
0
LINE
8
BLACK
6
CONTINUOUS
10
2.51004
20
0.0128617
11
2.5078
21
0.0255493
0
LINE
8
BLACK
6
CONTINUOUS
10
2.5078
20
0.0255493
11
2.50411
21
0.0378915
0
LINE
8
BLACK
6
CONTINUOUS
10
2.50411
20
0.0378915
11
2.499
21
0.0497213
0
LINE
8
BLACK
6
CONTINUOUS
10
2.499
20
0.0497213
11
2.49256
21
0.0608787
0
LINE
8
BLACK
6
CONTINUOUS
10
2.49256
20
0.0608787
11
2.48487
21
0.0712128
0
LINE
8
BLACK
6
CONTINUOUS
10
2.48487
20
0.0712128
11
2.47603
21
0.0805839
0
LINE
8
BLACK
6
CONTINUOUS
10
2.47603
20
0.0805839
11
2.46616
21
0.0888652
0
LINE
8
BLACK
6
CONTINUOUS
10
2.46616
20
0.0888652
11
2.45539
21
0.0959447
0
LINE
8
BLACK
6
CONTINUOUS
10
2.45539
20
0.0959447
11
2.44388
21
0.101727
0
LINE
8
BLACK
6
CONTINUOUS
10
2.44388
20
0.101727
11
2.43177
21
0.106133
0
LINE
8
BLACK
6
CONTINUOUS
10
2.43177
20
0.106133
11
2.41924
21
0.109104
0
LINE
8
BLACK
6
CONTINUOUS
10
2.41924
20
0.109104
11
2.40644
21
0.1106
0
LINE
8
BLACK
6
CONTINUOUS
10
2.40644
20
0.1106
11
2.39356
21
0.1106
0
LINE
8
BLACK
6
CONTINUOUS
10
2.39356
20
0.1106
11
2.38076
21
0.109104
0
LINE
8
BLACK
6
CONTINUOUS
10
2.38076
20
0.109104
11
2.36823
21
0.106133
0
LINE
8
BLACK
6
CONTINUOUS
10
2.36823
20
0.106133
11
2.35612
21
0.101727
0
LINE
8
BLACK
6
CONTINUOUS
10
2.35612
20
0.101727
11
2.34461
21
0.0959447
0
LINE
8
BLACK
6
CONTINUOUS
10
2.34461
20
0.0959447
11
2.33384
21
0.0888652
0
LINE
8
BLACK
6
CONTINUOUS
10
2.33384
20
0.0888652
11
2.32397
21
0.0805839
0
LINE
8
BLACK
6
CONTINUOUS
10
2.32397
20
0.0805839
11
2.31513
21
0.0712128
0
LINE
8
BLACK
6
CONTINUOUS
10
2.31513
20
0.0712128
11
2.30744
21
0.0608787
0
LINE
8
BLACK
6
CONTINUOUS
10
2.30744
20
0.0608787
11
2.301
21
0.0497213
0
LINE
8
BLACK
6
CONTINUOUS
10
2.301
20
0.0497213
11
2.29589
21
0.0378915
0
LINE
8
BLACK
6
CONTINUOUS
10
2.29589
20
0.0378915
11
2.2922
21
0.0255493
0
LINE
8
BLACK
6
CONTINUOUS
10
2.2922
20
0.0255493
11
2.28996
21
0.0128617
0
LINE
8
BLACK
6
CONTINUOUS
10
2.28996
20
0.0128617
11
2.28921
21
0
0
LINE
8
BLACK
6
CONTINUOUS
10
2.28921
20
0
11
2.28996
21
-0.0128617
  0
ENDSEC
  0
EOF
