  0
SECTION
  2
HEADER
  9
$ANGBASE
  50
0.0
  9
$ANGDIR
  70
1
  9
$MEASUREMENT
  70
0
  0
ENDSEC
  0
SECTION
  2
TABLES
  0
TABLE
  2
LTYPE
  70
4
  0
LTYPE
  5
40F
  2
CONTINUOUS
  70
0
  3
Solid line
  72
65
  73
0
  40
0.0
  0
LTYPE
  5
410
  2
DASHDOT
 70
0
  3
Dash Dot ____ _ ____ _
 72
65
 73
4
 40
2.0
 49
1.25
 49
-0.25
 49
0.25
 49
-0.25
  0
LTYPE
  5
411
  2
DASHED
 70
0
  3
Dashed __ __ __ __ __
 72
65
 73
2
 40
0.75
 49
0.5
 49
-0.25
  0
LTYPE
  5
43B
  2
DOTTED
 70
0
  3
Dotted .  .  .  .
 72
65
 73
2
 40
0.2
 49
0.0
 49
-0.2
  0
ENDTAB
  0
TABLE
  2
STYLE
  70
4
  0
STYLE
  2
KICAD
  70
0
  40
0
  41
1
  42
1
  50
0
  71
0
  3
isocp.shx
  0
STYLE
  2
KICADB
  70
0
  40
0
  41
1
  42
1
  50
0
  71
0
  3
isocp.shx
  0
STYLE
  2
KICADI
  70
0
  40
0
  41
1
  42
1
  50
15
  71
0
  3
isocp.shx
  0
STYLE
  2
KICADBI
  70
0
  40
0
  41
1
  42
1
  50
15
  71
0
  3
isocp.shx
  0
ENDTAB
  0
TABLE
  2
LAYER
  70
1
  0
LAYER
  2
BLACK
  70
0
  62
7
  6
CONTINUOUS
  0
ENDTAB
  0
ENDSEC
  0
SECTION
  2
ENTITIES
0
LINE
8
BLACK
6
CONTINUOUS
10
0.0086502
20
-0.682207
11
0.0221317
21
-0.683982
0
LINE
8
BLACK
6
CONTINUOUS
10
0.0221317
20
-0.683982
11
0.0353198
21
-0.687294
0
LINE
8
BLACK
6
CONTINUOUS
10
0.0353198
20
-0.687294
11
0.0480398
21
-0.692101
0
LINE
8
BLACK
6
CONTINUOUS
10
0.0480398
20
-0.692101
11
0.060123
21
-0.698338
0
LINE
8
BLACK
6
CONTINUOUS
10
0.060123
20
-0.698338
11
0.0714093
21
-0.705922
0
LINE
8
BLACK
6
CONTINUOUS
10
0.0714093
20
-0.705922
11
0.0817492
21
-0.714753
0
LINE
8
BLACK
6
CONTINUOUS
10
0.0817492
20
-0.714753
11
0.0910055
21
-0.724714
0
LINE
8
BLACK
6
CONTINUOUS
10
0.0910055
20
-0.724714
11
0.0990556
21
-0.735673
0
LINE
8
BLACK
6
CONTINUOUS
10
0.0990556
20
-0.735673
11
0.105793
21
-0.747484
0
LINE
8
BLACK
6
CONTINUOUS
10
0.105793
20
-0.747484
11
0.111128
21
-0.759992
0
LINE
8
BLACK
6
CONTINUOUS
10
0.111128
20
-0.759992
11
0.11499
21
-0.773029
0
LINE
8
BLACK
6
CONTINUOUS
10
0.11499
20
-0.773029
11
0.117327
21
-0.786425
0
LINE
8
BLACK
6
CONTINUOUS
10
0.117327
20
-0.786425
11
0.11811
21
-0.8
0
LINE
8
BLACK
6
CONTINUOUS
10
0.11811
20
-0.8
11
0.117877
21
-0.807416
0
LINE
8
BLACK
6
CONTINUOUS
10
0.117877
20
-0.807416
11
0.116244
21
-0.820916
0
LINE
8
BLACK
6
CONTINUOUS
10
0.116244
20
-0.820916
11
0.113069
21
-0.834138
0
LINE
8
BLACK
6
CONTINUOUS
10
0.113069
20
-0.834138
11
0.108396
21
-0.846907
0
LINE
8
BLACK
6
CONTINUOUS
10
0.108396
20
-0.846907
11
0.102286
21
-0.859055
0
LINE
8
BLACK
6
CONTINUOUS
10
0.102286
20
-0.859055
11
0.0948209
21
-0.87042
0
LINE
8
BLACK
6
CONTINUOUS
10
0.0948209
20
-0.87042
11
0.0860987
21
-0.880852
0
LINE
8
BLACK
6
CONTINUOUS
10
0.0860987
20
-0.880852
11
0.0762352
21
-0.890212
0
LINE
8
BLACK
6
CONTINUOUS
10
0.0762352
20
-0.890212
11
0.0653612
21
-0.898377
0
LINE
8
BLACK
6
CONTINUOUS
10
0.0653612
20
-0.898377
11
0.0536209
21
-0.905237
0
LINE
8
BLACK
6
CONTINUOUS
10
0.0536209
20
-0.905237
11
0.0411699
21
-0.910703
0
LINE
8
BLACK
6
CONTINUOUS
10
0.0411699
20
-0.910703
11
0.0281732
21
-0.914701
0
LINE
8
BLACK
6
CONTINUOUS
10
0.0281732
20
-0.914701
11
0.0148031
21
-0.917179
0
LINE
8
BLACK
6
CONTINUOUS
10
0.0148031
20
-0.917179
11
0.00123681
21
-0.918104
0
LINE
8
BLACK
6
CONTINUOUS
10
0.00123681
20
-0.918104
11
-0.0123459
21
-0.917463
0
LINE
8
BLACK
6
CONTINUOUS
10
-0.0123459
20
-0.917463
11
-0.025765
21
-0.915266
0
LINE
8
BLACK
6
CONTINUOUS
10
-0.025765
20
-0.915266
11
-0.0388425
21
-0.911541
0
LINE
8
BLACK
6
CONTINUOUS
10
-0.0388425
20
-0.911541
11
-0.0514052
21
-0.906337
0
LINE
8
BLACK
6
CONTINUOUS
10
-0.0514052
20
-0.906337
11
-0.0632866
21
-0.899724
0
LINE
8
BLACK
6
CONTINUOUS
10
-0.0632866
20
-0.899724
11
-0.0743292
21
-0.891789
0
LINE
8
BLACK
6
CONTINUOUS
10
-0.0743292
20
-0.891789
11
-0.0843865
21
-0.882637
0
LINE
8
BLACK
6
CONTINUOUS
10
-0.0843865
20
-0.882637
11
-0.0933254
21
-0.872391
0
LINE
8
BLACK
6
CONTINUOUS
10
-0.0933254
20
-0.872391
11
-0.101027
21
-0.861184
0
LINE
8
BLACK
6
CONTINUOUS
10
-0.101027
20
-0.861184
11
-0.10739
21
-0.849167
0
LINE
8
BLACK
6
CONTINUOUS
10
-0.10739
20
-0.849167
11
-0.11233
21
-0.836498
0
LINE
8
BLACK
6
CONTINUOUS
10
-0.11233
20
-0.836498
11
-0.11578
21
-0.823345
0
LINE
8
BLACK
6
CONTINUOUS
10
-0.11578
20
-0.823345
11
-0.117696
21
-0.809883
0
LINE
8
BLACK
6
CONTINUOUS
10
-0.117696
20
-0.809883
11
-0.118052
21
-0.79629
0
LINE
8
BLACK
6
CONTINUOUS
10
-0.118052
20
-0.79629
11
-0.116843
21
-0.782746
0
LINE
8
BLACK
6
CONTINUOUS
10
-0.116843
20
-0.782746
11
-0.114086
21
-0.769431
0
LINE
8
BLACK
6
CONTINUOUS
10
-0.114086
20
-0.769431
11
-0.109816
21
-0.756521
0
LINE
8
BLACK
6
CONTINUOUS
10
-0.109816
20
-0.756521
11
-0.104091
21
-0.744187
0
LINE
8
BLACK
6
CONTINUOUS
10
-0.104091
20
-0.744187
11
-0.0969861
21
-0.732593
0
LINE
8
BLACK
6
CONTINUOUS
10
-0.0969861
20
-0.732593
11
-0.0885958
21
-0.721892
0
LINE
8
BLACK
6
CONTINUOUS
10
-0.0885958
20
-0.721892
11
-0.0790312
21
-0.712227
0
LINE
8
BLACK
6
CONTINUOUS
10
-0.0790312
20
-0.712227
11
-0.0684191
21
-0.703725
0
LINE
8
BLACK
6
CONTINUOUS
10
-0.0684191
20
-0.703725
11
-0.0569
21
-0.696499
0
LINE
8
BLACK
6
CONTINUOUS
10
-0.0569
20
-0.696499
11
-0.0446269
21
-0.690645
0
LINE
8
BLACK
6
CONTINUOUS
10
-0.0446269
20
-0.690645
11
-0.0317622
21
-0.686241
0
LINE
8
BLACK
6
CONTINUOUS
10
-0.0317622
20
-0.686241
11
-0.0184765
21
-0.683344
0
LINE
8
BLACK
6
CONTINUOUS
10
-0.0184765
20
-0.683344
11
-0.00494594
21
-0.681993
0
LINE
8
BLACK
6
CONTINUOUS
10
-0.00494594
20
-0.681993
11
0.0086502
21
-0.682207
0
LINE
8
BLACK
6
CONTINUOUS
10
2.40865
20
-0.682207
11
2.42213
21
-0.683982
0
LINE
8
BLACK
6
CONTINUOUS
10
2.42213
20
-0.683982
11
2.43532
21
-0.687294
0
LINE
8
BLACK
6
CONTINUOUS
10
2.43532
20
-0.687294
11
2.44804
21
-0.692101
0
LINE
8
BLACK
6
CONTINUOUS
10
2.44804
20
-0.692101
11
2.46012
21
-0.698338
0
LINE
8
BLACK
6
CONTINUOUS
10
2.46012
20
-0.698338
11
2.47141
21
-0.705922
0
LINE
8
BLACK
6
CONTINUOUS
10
2.47141
20
-0.705922
11
2.48175
21
-0.714753
0
LINE
8
BLACK
6
CONTINUOUS
10
2.48175
20
-0.714753
11
2.49101
21
-0.724714
0
LINE
8
BLACK
6
CONTINUOUS
10
2.49101
20
-0.724714
11
2.49906
21
-0.735673
0
LINE
8
BLACK
6
CONTINUOUS
10
2.49906
20
-0.735673
11
2.50579
21
-0.747484
0
LINE
8
BLACK
6
CONTINUOUS
10
2.50579
20
-0.747484
11
2.51113
21
-0.759992
0
LINE
8
BLACK
6
CONTINUOUS
10
2.51113
20
-0.759992
11
2.51499
21
-0.773029
0
LINE
8
BLACK
6
CONTINUOUS
10
2.51499
20
-0.773029
11
2.51733
21
-0.786425
0
LINE
8
BLACK
6
CONTINUOUS
10
2.51733
20
-0.786425
11
2.51811
21
-0.8
0
LINE
8
BLACK
6
CONTINUOUS
10
2.51811
20
-0.8
11
2.51788
21
-0.807416
0
LINE
8
BLACK
6
CONTINUOUS
10
2.51788
20
-0.807416
11
2.51624
21
-0.820916
0
LINE
8
BLACK
6
CONTINUOUS
10
2.51624
20
-0.820916
11
2.51307
21
-0.834138
0
LINE
8
BLACK
6
CONTINUOUS
10
2.51307
20
-0.834138
11
2.5084
21
-0.846907
0
LINE
8
BLACK
6
CONTINUOUS
10
2.5084
20
-0.846907
11
2.50229
21
-0.859055
0
LINE
8
BLACK
6
CONTINUOUS
10
2.50229
20
-0.859055
11
2.49482
21
-0.87042
0
LINE
8
BLACK
6
CONTINUOUS
10
2.49482
20
-0.87042
11
2.4861
21
-0.880852
0
LINE
8
BLACK
6
CONTINUOUS
10
2.4861
20
-0.880852
11
2.47624
21
-0.890212
0
LINE
8
BLACK
6
CONTINUOUS
10
2.47624
20
-0.890212
11
2.46536
21
-0.898377
0
LINE
8
BLACK
6
CONTINUOUS
10
2.46536
20
-0.898377
11
2.45362
21
-0.905237
0
LINE
8
BLACK
6
CONTINUOUS
10
2.45362
20
-0.905237
11
2.44117
21
-0.910703
0
LINE
8
BLACK
6
CONTINUOUS
10
2.44117
20
-0.910703
11
2.42817
21
-0.914701
0
LINE
8
BLACK
6
CONTINUOUS
10
2.42817
20
-0.914701
11
2.4148
21
-0.917179
0
LINE
8
BLACK
6
CONTINUOUS
10
2.4148
20
-0.917179
11
2.40124
21
-0.918104
0
LINE
8
BLACK
6
CONTINUOUS
10
2.40124
20
-0.918104
11
2.38765
21
-0.917463
0
LINE
8
BLACK
6
CONTINUOUS
10
2.38765
20
-0.917463
11
2.37424
21
-0.915266
0
LINE
8
BLACK
6
CONTINUOUS
10
2.37424
20
-0.915266
11
2.36116
21
-0.911541
0
LINE
8
BLACK
6
CONTINUOUS
10
2.36116
20
-0.911541
11
2.34859
21
-0.906337
0
LINE
8
BLACK
6
CONTINUOUS
10
2.34859
20
-0.906337
11
2.33671
21
-0.899724
0
LINE
8
BLACK
6
CONTINUOUS
10
2.33671
20
-0.899724
11
2.32567
21
-0.891789
0
LINE
8
BLACK
6
CONTINUOUS
10
2.32567
20
-0.891789
11
2.31561
21
-0.882637
0
LINE
8
BLACK
6
CONTINUOUS
10
2.31561
20
-0.882637
11
2.30667
21
-0.872391
0
LINE
8
BLACK
6
CONTINUOUS
10
2.30667
20
-0.872391
11
2.29897
21
-0.861184
0
LINE
8
BLACK
6
CONTINUOUS
10
2.29897
20
-0.861184
11
2.29261
21
-0.849167
0
LINE
8
BLACK
6
CONTINUOUS
10
2.29261
20
-0.849167
11
2.28767
21
-0.836498
0
LINE
8
BLACK
6
CONTINUOUS
10
2.28767
20
-0.836498
11
2.28422
21
-0.823345
0
LINE
8
BLACK
6
CONTINUOUS
10
2.28422
20
-0.823345
11
2.2823
21
-0.809883
0
LINE
8
BLACK
6
CONTINUOUS
10
2.2823
20
-0.809883
11
2.28195
21
-0.79629
0
LINE
8
BLACK
6
CONTINUOUS
10
2.28195
20
-0.79629
11
2.28316
21
-0.782746
0
LINE
8
BLACK
6
CONTINUOUS
10
2.28316
20
-0.782746
11
2.28591
21
-0.769431
0
LINE
8
BLACK
6
CONTINUOUS
10
2.28591
20
-0.769431
11
2.29018
21
-0.756521
0
LINE
8
BLACK
6
CONTINUOUS
10
2.29018
20
-0.756521
11
2.29591
21
-0.744187
0
LINE
8
BLACK
6
CONTINUOUS
10
2.29591
20
-0.744187
11
2.30301
21
-0.732593
0
LINE
8
BLACK
6
CONTINUOUS
10
2.30301
20
-0.732593
11
2.3114
21
-0.721892
0
LINE
8
BLACK
6
CONTINUOUS
10
2.3114
20
-0.721892
11
2.32097
21
-0.712227
0
LINE
8
BLACK
6
CONTINUOUS
10
2.32097
20
-0.712227
11
2.33158
21
-0.703725
0
LINE
8
BLACK
6
CONTINUOUS
10
2.33158
20
-0.703725
11
2.3431
21
-0.696499
0
LINE
8
BLACK
6
CONTINUOUS
10
2.3431
20
-0.696499
11
2.35537
21
-0.690645
0
LINE
8
BLACK
6
CONTINUOUS
10
2.35537
20
-0.690645
11
2.36824
21
-0.686241
0
LINE
8
BLACK
6
CONTINUOUS
10
2.36824
20
-0.686241
11
2.38152
21
-0.683344
0
LINE
8
BLACK
6
CONTINUOUS
10
2.38152
20
-0.683344
11
2.39505
21
-0.681993
0
LINE
8
BLACK
6
CONTINUOUS
10
2.39505
20
-0.681993
11
2.40865
21
-0.682207
0
LINE
8
BLACK
6
CONTINUOUS
10
2.40865
20
0.117793
11
2.42213
21
0.116018
0
LINE
8
BLACK
6
CONTINUOUS
10
2.42213
20
0.116018
11
2.43532
21
0.112706
0
LINE
8
BLACK
6
CONTINUOUS
10
2.43532
20
0.112706
11
2.44804
21
0.107899
0
LINE
8
BLACK
6
CONTINUOUS
10
2.44804
20
0.107899
11
2.46012
21
0.101662
0
LINE
8
BLACK
6
CONTINUOUS
10
2.46012
20
0.101662
11
2.47141
21
0.0940783
0
LINE
8
BLACK
6
CONTINUOUS
10
2.47141
20
0.0940783
11
2.48175
21
0.0852473
0
LINE
8
BLACK
6
CONTINUOUS
10
2.48175
20
0.0852473
11
2.49101
21
0.0752863
0
LINE
8
BLACK
6
CONTINUOUS
10
2.49101
20
0.0752863
11
2.49906
21
0.0643274
0
LINE
8
BLACK
6
CONTINUOUS
10
2.49906
20
0.0643274
11
2.50579
21
0.052516
0
LINE
8
BLACK
6
CONTINUOUS
10
2.50579
20
0.052516
11
2.51113
21
0.0400084
0
LINE
8
BLACK
6
CONTINUOUS
10
2.51113
20
0.0400084
11
2.51499
21
0.0269706
0
LINE
8
BLACK
6
CONTINUOUS
10
2.51499
20
0.0269706
11
2.51733
21
0.0135752
0
LINE
8
BLACK
6
CONTINUOUS
10
2.51733
20
0.0135752
11
2.51811
21
0
0
LINE
8
BLACK
6
CONTINUOUS
10
2.51811
20
0
11
2.51788
21
-0.00741622
0
LINE
8
BLACK
6
CONTINUOUS
10
2.51788
20
-0.00741622
11
2.51624
21
-0.0209155
0
LINE
8
BLACK
6
CONTINUOUS
10
2.51624
20
-0.0209155
11
2.51307
21
-0.0341376
0
LINE
8
BLACK
6
CONTINUOUS
10
2.51307
20
-0.0341376
11
2.5084
21
-0.0469072
0
LINE
8
BLACK
6
CONTINUOUS
10
2.5084
20
-0.0469072
11
2.50229
21
-0.0590551
0
LINE
8
BLACK
6
CONTINUOUS
10
2.50229
20
-0.0590551
11
2.49482
21
-0.0704203
0
LINE
8
BLACK
6
CONTINUOUS
10
2.49482
20
-0.0704203
11
2.4861
21
-0.080852
0
LINE
8
BLACK
6
CONTINUOUS
10
2.4861
20
-0.080852
11
2.47624
21
-0.0902121
0
LINE
8
BLACK
6
CONTINUOUS
10
2.47624
20
-0.0902121
11
2.46536
21
-0.0983765
0
LINE
8
BLACK
6
CONTINUOUS
10
2.46536
20
-0.0983765
11
2.45362
21
-0.105237
0
LINE
8
BLACK
6
CONTINUOUS
10
2.45362
20
-0.105237
11
2.44117
21
-0.110703
0
LINE
8
BLACK
6
CONTINUOUS
10
2.44117
20
-0.110703
11
2.42817
21
-0.114701
0
LINE
8
BLACK
6
CONTINUOUS
10
2.42817
20
-0.114701
11
2.4148
21
-0.117179
0
LINE
8
BLACK
6
CONTINUOUS
10
2.4148
20
-0.117179
11
2.40124
21
-0.118104
0
LINE
8
BLACK
6
CONTINUOUS
10
2.40124
20
-0.118104
11
2.38765
21
-0.117463
0
LINE
8
BLACK
6
CONTINUOUS
10
2.38765
20
-0.117463
11
2.37424
21
-0.115266
0
LINE
8
BLACK
6
CONTINUOUS
10
2.37424
20
-0.115266
11
2.36116
21
-0.111541
0
LINE
8
BLACK
6
CONTINUOUS
10
2.36116
20
-0.111541
11
2.34859
21
-0.106337
0
LINE
8
BLACK
6
CONTINUOUS
10
2.34859
20
-0.106337
11
2.33671
21
-0.0997238
0
LINE
8
BLACK
6
CONTINUOUS
10
2.33671
20
-0.0997238
11
2.32567
21
-0.0917889
0
LINE
8
BLACK
6
CONTINUOUS
10
2.32567
20
-0.0917889
11
2.31561
21
-0.0826374
0
LINE
8
BLACK
6
CONTINUOUS
10
2.31561
20
-0.0826374
11
2.30667
21
-0.0723906
0
LINE
8
BLACK
6
CONTINUOUS
10
2.30667
20
-0.0723906
11
2.29897
21
-0.0611843
0
LINE
8
BLACK
6
CONTINUOUS
10
2.29897
20
-0.0611843
11
2.29261
21
-0.049167
0
LINE
8
BLACK
6
CONTINUOUS
10
2.29261
20
-0.049167
11
2.28767
21
-0.0364981
0
LINE
8
BLACK
6
CONTINUOUS
10
2.28767
20
-0.0364981
11
2.28422
21
-0.0233454
0
LINE
8
BLACK
6
CONTINUOUS
10
2.28422
20
-0.0233454
11
2.2823
21
-0.00988323
0
LINE
8
BLACK
6
CONTINUOUS
10
2.2823
20
-0.00988323
11
2.28195
21
0.00370992
0
LINE
8
BLACK
6
CONTINUOUS
10
2.28195
20
0.00370992
11
2.28316
21
0.0172539
0
LINE
8
BLACK
6
CONTINUOUS
10
2.28316
20
0.0172539
11
2.28591
21
0.0305692
0
LINE
8
BLACK
6
CONTINUOUS
10
2.28591
20
0.0305692
11
2.29018
21
0.0434793
0
LINE
8
BLACK
6
CONTINUOUS
10
2.29018
20
0.0434793
11
2.29591
21
0.0558131
0
LINE
8
BLACK
6
CONTINUOUS
10
2.29591
20
0.0558131
11
2.30301
21
0.0674071
0
LINE
8
BLACK
6
CONTINUOUS
10
2.30301
20
0.0674071
11
2.3114
21
0.0781077
0
LINE
8
BLACK
6
CONTINUOUS
10
2.3114
20
0.0781077
11
2.32097
21
0.087773
0
LINE
8
BLACK
6
CONTINUOUS
10
2.32097
20
0.087773
11
2.33158
21
0.0962749
0
LINE
8
BLACK
6
CONTINUOUS
10
2.33158
20
0.0962749
11
2.3431
21
0.103501
0
LINE
8
BLACK
6
CONTINUOUS
10
2.3431
20
0.103501
11
2.35537
21
0.109355
0
LINE
8
BLACK
6
CONTINUOUS
10
2.35537
20
0.109355
11
2.36824
21
0.113759
0
LINE
8
BLACK
6
CONTINUOUS
10
2.36824
20
0.113759
11
2.38152
21
0.116656
0
LINE
8
BLACK
6
CONTINUOUS
10
2.38152
20
0.116656
11
2.39505
21
0.118007
0
LINE
8
BLACK
6
CONTINUOUS
10
2.39505
20
0.118007
11
2.40865
21
0.117793
0
LINE
8
BLACK
6
CONTINUOUS
10
0.0086502
20
0.117793
11
0.0221317
21
0.116018
0
LINE
8
BLACK
6
CONTINUOUS
10
0.0221317
20
0.116018
11
0.0353198
21
0.112706
0
LINE
8
BLACK
6
CONTINUOUS
10
0.0353198
20
0.112706
11
0.0480398
21
0.107899
0
LINE
8
BLACK
6
CONTINUOUS
10
0.0480398
20
0.107899
11
0.060123
21
0.101662
0
LINE
8
BLACK
6
CONTINUOUS
10
0.060123
20
0.101662
11
0.0714093
21
0.0940783
0
LINE
8
BLACK
6
CONTINUOUS
10
0.0714093
20
0.0940783
11
0.0817492
21
0.0852473
0
LINE
8
BLACK
6
CONTINUOUS
10
0.0817492
20
0.0852473
11
0.0910055
21
0.0752863
0
LINE
8
BLACK
6
CONTINUOUS
10
0.0910055
20
0.0752863
11
0.0990556
21
0.0643274
0
LINE
8
BLACK
6
CONTINUOUS
10
0.0990556
20
0.0643274
11
0.105793
21
0.052516
0
LINE
8
BLACK
6
CONTINUOUS
10
0.105793
20
0.052516
11
0.111128
21
0.0400084
0
LINE
8
BLACK
6
CONTINUOUS
10
0.111128
20
0.0400084
11
0.11499
21
0.0269706
0
LINE
8
BLACK
6
CONTINUOUS
10
0.11499
20
0.0269706
11
0.117327
21
0.0135752
0
LINE
8
BLACK
6
CONTINUOUS
10
0.117327
20
0.0135752
11
0.11811
21
0
0
LINE
8
BLACK
6
CONTINUOUS
10
0.11811
20
0
11
0.117877
21
-0.00741622
0
LINE
8
BLACK
6
CONTINUOUS
10
0.117877
20
-0.00741622
11
0.116244
21
-0.0209155
0
LINE
8
BLACK
6
CONTINUOUS
10
0.116244
20
-0.0209155
11
0.113069
21
-0.0341376
0
LINE
8
BLACK
6
CONTINUOUS
10
0.113069
20
-0.0341376
11
0.108396
21
-0.0469072
0
LINE
8
BLACK
6
CONTINUOUS
10
0.108396
20
-0.0469072
11
0.102286
21
-0.0590551
0
LINE
8
BLACK
6
CONTINUOUS
10
0.102286
20
-0.0590551
11
0.0948209
21
-0.0704203
0
LINE
8
BLACK
6
CONTINUOUS
10
0.0948209
20
-0.0704203
11
0.0860987
21
-0.080852
0
LINE
8
BLACK
6
CONTINUOUS
10
0.0860987
20
-0.080852
11
0.0762352
21
-0.0902121
0
LINE
8
BLACK
6
CONTINUOUS
10
0.0762352
20
-0.0902121
11
0.0653612
21
-0.0983765
0
LINE
8
BLACK
6
CONTINUOUS
10
0.0653612
20
-0.0983765
11
0.0536209
21
-0.105237
0
LINE
8
BLACK
6
CONTINUOUS
10
0.0536209
20
-0.105237
11
0.0411699
21
-0.110703
0
LINE
8
BLACK
6
CONTINUOUS
10
0.0411699
20
-0.110703
11
0.0281732
21
-0.114701
0
LINE
8
BLACK
6
CONTINUOUS
10
0.0281732
20
-0.114701
11
0.0148031
21
-0.117179
0
LINE
8
BLACK
6
CONTINUOUS
10
0.0148031
20
-0.117179
11
0.00123681
21
-0.118104
0
LINE
8
BLACK
6
CONTINUOUS
10
0.00123681
20
-0.118104
11
-0.0123459
21
-0.117463
0
LINE
8
BLACK
6
CONTINUOUS
10
-0.0123459
20
-0.117463
11
-0.025765
21
-0.115266
0
LINE
8
BLACK
6
CONTINUOUS
10
-0.025765
20
-0.115266
11
-0.0388425
21
-0.111541
0
LINE
8
BLACK
6
CONTINUOUS
10
-0.0388425
20
-0.111541
11
-0.0514052
21
-0.106337
0
LINE
8
BLACK
6
CONTINUOUS
10
-0.0514052
20
-0.106337
11
-0.0632866
21
-0.0997238
0
LINE
8
BLACK
6
CONTINUOUS
10
-0.0632866
20
-0.0997238
11
-0.0743292
21
-0.0917889
0
LINE
8
BLACK
6
CONTINUOUS
10
-0.0743292
20
-0.0917889
11
-0.0843865
21
-0.0826374
0
LINE
8
BLACK
6
CONTINUOUS
10
-0.0843865
20
-0.0826374
11
-0.0933254
21
-0.0723906
0
LINE
8
BLACK
6
CONTINUOUS
10
-0.0933254
20
-0.0723906
11
-0.101027
21
-0.0611843
0
LINE
8
BLACK
6
CONTINUOUS
10
-0.101027
20
-0.0611843
11
-0.10739
21
-0.049167
0
LINE
8
BLACK
6
CONTINUOUS
10
-0.10739
20
-0.049167
11
-0.11233
21
-0.0364981
0
LINE
8
BLACK
6
CONTINUOUS
10
-0.11233
20
-0.0364981
11
-0.11578
21
-0.0233454
0
LINE
8
BLACK
6
CONTINUOUS
10
-0.11578
20
-0.0233454
11
-0.117696
21
-0.00988323
0
LINE
8
BLACK
6
CONTINUOUS
10
-0.117696
20
-0.00988323
11
-0.118052
21
0.00370992
0
LINE
8
BLACK
6
CONTINUOUS
10
-0.118052
20
0.00370992
11
-0.116843
21
0.0172539
0
LINE
8
BLACK
6
CONTINUOUS
10
-0.116843
20
0.0172539
11
-0.114086
21
0.0305692
0
LINE
8
BLACK
6
CONTINUOUS
10
-0.114086
20
0.0305692
11
-0.109816
21
0.0434793
0
LINE
8
BLACK
6
CONTINUOUS
10
-0.109816
20
0.0434793
11
-0.104091
21
0.0558131
0
LINE
8
BLACK
6
CONTINUOUS
10
-0.104091
20
0.0558131
11
-0.0969861
21
0.0674071
0
LINE
8
BLACK
6
CONTINUOUS
10
-0.0969861
20
0.0674071
11
-0.0885958
21
0.0781077
0
LINE
8
BLACK
6
CONTINUOUS
10
-0.0885958
20
0.0781077
11
-0.0790312
21
0.087773
0
LINE
8
BLACK
6
CONTINUOUS
10
-0.0790312
20
0.087773
11
-0.0684191
21
0.0962749
0
LINE
8
BLACK
6
CONTINUOUS
10
-0.0684191
20
0.0962749
11
-0.0569
21
0.103501
0
LINE
8
BLACK
6
CONTINUOUS
10
-0.0569
20
0.103501
11
-0.0446269
21
0.109355
0
LINE
8
BLACK
6
CONTINUOUS
10
-0.0446269
20
0.109355
11
-0.0317622
21
0.113759
0
LINE
8
BLACK
6
CONTINUOUS
10
-0.0317622
20
0.113759
11
-0.0184765
21
0.116656
0
LINE
8
BLACK
6
CONTINUOUS
10
-0.0184765
20
0.116656
11
-0.00494594
21
0.118007
0
LINE
8
BLACK
6
CONTINUOUS
10
-0.00494594
20
0.118007
11
0.0086502
21
0.117793
  0
ENDSEC
  0
EOF
