  0
SECTION
  2
HEADER
  9
$ANGBASE
  50
0.0
  9
$ANGDIR
  70
1
  9
$MEASUREMENT
  70
0
  0
ENDSEC
  0
SECTION
  2
TABLES
  0
TABLE
  2
LTYPE
  70
4
  0
LTYPE
  5
40F
  2
CONTINUOUS
  70
0
  3
Solid line
  72
65
  73
0
  40
0.0
  0
LTYPE
  5
410
  2
DASHDOT
 70
0
  3
Dash Dot ____ _ ____ _
 72
65
 73
4
 40
2.0
 49
1.25
 49
-0.25
 49
0.25
 49
-0.25
  0
LTYPE
  5
411
  2
DASHED
 70
0
  3
Dashed __ __ __ __ __
 72
65
 73
2
 40
0.75
 49
0.5
 49
-0.25
  0
LTYPE
  5
43B
  2
DOTTED
 70
0
  3
Dotted .  .  .  .
 72
65
 73
2
 40
0.2
 49
0.0
 49
-0.2
  0
ENDTAB
  0
TABLE
  2
STYLE
  70
4
  0
STYLE
  2
KICAD
  70
0
  40
0
  41
1
  42
1
  50
0
  71
0
  3
isocp.shx
  0
STYLE
  2
KICADB
  70
0
  40
0
  41
1
  42
1
  50
0
  71
0
  3
isocp.shx
  0
STYLE
  2
KICADI
  70
0
  40
0
  41
1
  42
1
  50
15
  71
0
  3
isocp.shx
  0
STYLE
  2
KICADBI
  70
0
  40
0
  41
1
  42
1
  50
15
  71
0
  3
isocp.shx
  0
ENDTAB
  0
TABLE
  2
LAYER
  70
1
  0
LAYER
  2
BLACK
  70
0
  62
7
  6
CONTINUOUS
  0
ENDTAB
  0
ENDSEC
  0
SECTION
  2
ENTITIES
0
LINE
8
BLACK
6
CONTINUOUS
10
0.886359
20
-0.823171
11
0.889473
21
-0.825252
0
LINE
8
BLACK
6
CONTINUOUS
10
0.889473
20
-0.825252
11
0.891553
21
-0.828365
0
LINE
8
BLACK
6
CONTINUOUS
10
0.891553
20
-0.828365
11
0.892283
21
-0.832037
0
LINE
8
BLACK
6
CONTINUOUS
10
0.892283
20
-0.832037
11
0.892283
21
-0.867963
0
LINE
8
BLACK
6
CONTINUOUS
10
0.892283
20
-0.867963
11
0.891553
21
-0.871635
0
LINE
8
BLACK
6
CONTINUOUS
10
0.891553
20
-0.871635
11
0.889473
21
-0.874748
0
LINE
8
BLACK
6
CONTINUOUS
10
0.889473
20
-0.874748
11
0.886359
21
-0.876829
0
LINE
8
BLACK
6
CONTINUOUS
10
0.886359
20
-0.876829
11
0.882687
21
-0.877559
0
LINE
8
BLACK
6
CONTINUOUS
10
0.882687
20
-0.877559
11
0.863494
21
-0.877559
0
LINE
8
BLACK
6
CONTINUOUS
10
0.863494
20
-0.877559
11
0.859822
21
-0.876829
0
LINE
8
BLACK
6
CONTINUOUS
10
0.859822
20
-0.876829
11
0.856708
21
-0.874748
0
LINE
8
BLACK
6
CONTINUOUS
10
0.856708
20
-0.874748
11
0.854628
21
-0.871635
0
LINE
8
BLACK
6
CONTINUOUS
10
0.854628
20
-0.871635
11
0.853898
21
-0.867963
0
LINE
8
BLACK
6
CONTINUOUS
10
0.853898
20
-0.867963
11
0.853898
21
-0.832037
0
LINE
8
BLACK
6
CONTINUOUS
10
0.853898
20
-0.832037
11
0.854628
21
-0.828365
0
LINE
8
BLACK
6
CONTINUOUS
10
0.854628
20
-0.828365
11
0.856708
21
-0.825252
0
LINE
8
BLACK
6
CONTINUOUS
10
0.856708
20
-0.825252
11
0.859822
21
-0.823171
0
LINE
8
BLACK
6
CONTINUOUS
10
0.859822
20
-0.823171
11
0.863494
21
-0.822441
0
LINE
8
BLACK
6
CONTINUOUS
10
0.863494
20
-0.822441
11
0.882687
21
-0.822441
0
LINE
8
BLACK
6
CONTINUOUS
10
0.882687
20
-0.822441
11
0.886359
21
-0.823171
0
LINE
8
BLACK
6
CONTINUOUS
10
0.960178
20
-0.823171
11
0.963292
21
-0.825252
0
LINE
8
BLACK
6
CONTINUOUS
10
0.963292
20
-0.825252
11
0.965372
21
-0.828365
0
LINE
8
BLACK
6
CONTINUOUS
10
0.965372
20
-0.828365
11
0.966102
21
-0.832037
0
LINE
8
BLACK
6
CONTINUOUS
10
0.966102
20
-0.832037
11
0.966102
21
-0.867963
0
LINE
8
BLACK
6
CONTINUOUS
10
0.966102
20
-0.867963
11
0.965372
21
-0.871635
0
LINE
8
BLACK
6
CONTINUOUS
10
0.965372
20
-0.871635
11
0.963292
21
-0.874748
0
LINE
8
BLACK
6
CONTINUOUS
10
0.963292
20
-0.874748
11
0.960178
21
-0.876829
0
LINE
8
BLACK
6
CONTINUOUS
10
0.960178
20
-0.876829
11
0.956506
21
-0.877559
0
LINE
8
BLACK
6
CONTINUOUS
10
0.956506
20
-0.877559
11
0.937313
21
-0.877559
0
LINE
8
BLACK
6
CONTINUOUS
10
0.937313
20
-0.877559
11
0.933641
21
-0.876829
0
LINE
8
BLACK
6
CONTINUOUS
10
0.933641
20
-0.876829
11
0.930527
21
-0.874748
0
LINE
8
BLACK
6
CONTINUOUS
10
0.930527
20
-0.874748
11
0.928447
21
-0.871635
0
LINE
8
BLACK
6
CONTINUOUS
10
0.928447
20
-0.871635
11
0.927717
21
-0.867963
0
LINE
8
BLACK
6
CONTINUOUS
10
0.927717
20
-0.867963
11
0.927717
21
-0.832037
0
LINE
8
BLACK
6
CONTINUOUS
10
0.927717
20
-0.832037
11
0.928447
21
-0.828365
0
LINE
8
BLACK
6
CONTINUOUS
10
0.928447
20
-0.828365
11
0.930527
21
-0.825252
0
LINE
8
BLACK
6
CONTINUOUS
10
0.930527
20
-0.825252
11
0.933641
21
-0.823171
0
LINE
8
BLACK
6
CONTINUOUS
10
0.933641
20
-0.823171
11
0.937313
21
-0.822441
0
LINE
8
BLACK
6
CONTINUOUS
10
0.937313
20
-0.822441
11
0.956506
21
-0.822441
0
LINE
8
BLACK
6
CONTINUOUS
10
0.956506
20
-0.822441
11
0.960178
21
-0.823171
0
LINE
8
BLACK
6
CONTINUOUS
10
1.06636
20
-0.823171
11
1.06947
21
-0.825252
0
LINE
8
BLACK
6
CONTINUOUS
10
1.06947
20
-0.825252
11
1.07155
21
-0.828365
0
LINE
8
BLACK
6
CONTINUOUS
10
1.07155
20
-0.828365
11
1.07228
21
-0.832037
0
LINE
8
BLACK
6
CONTINUOUS
10
1.07228
20
-0.832037
11
1.07228
21
-0.867963
0
LINE
8
BLACK
6
CONTINUOUS
10
1.07228
20
-0.867963
11
1.07155
21
-0.871635
0
LINE
8
BLACK
6
CONTINUOUS
10
1.07155
20
-0.871635
11
1.06947
21
-0.874748
0
LINE
8
BLACK
6
CONTINUOUS
10
1.06947
20
-0.874748
11
1.06636
21
-0.876829
0
LINE
8
BLACK
6
CONTINUOUS
10
1.06636
20
-0.876829
11
1.06269
21
-0.877559
0
LINE
8
BLACK
6
CONTINUOUS
10
1.06269
20
-0.877559
11
1.04349
21
-0.877559
0
LINE
8
BLACK
6
CONTINUOUS
10
1.04349
20
-0.877559
11
1.03982
21
-0.876829
0
LINE
8
BLACK
6
CONTINUOUS
10
1.03982
20
-0.876829
11
1.03671
21
-0.874748
0
LINE
8
BLACK
6
CONTINUOUS
10
1.03671
20
-0.874748
11
1.03463
21
-0.871635
0
LINE
8
BLACK
6
CONTINUOUS
10
1.03463
20
-0.871635
11
1.0339
21
-0.867963
0
LINE
8
BLACK
6
CONTINUOUS
10
1.0339
20
-0.867963
11
1.0339
21
-0.832037
0
LINE
8
BLACK
6
CONTINUOUS
10
1.0339
20
-0.832037
11
1.03463
21
-0.828365
0
LINE
8
BLACK
6
CONTINUOUS
10
1.03463
20
-0.828365
11
1.03671
21
-0.825252
0
LINE
8
BLACK
6
CONTINUOUS
10
1.03671
20
-0.825252
11
1.03982
21
-0.823171
0
LINE
8
BLACK
6
CONTINUOUS
10
1.03982
20
-0.823171
11
1.04349
21
-0.822441
0
LINE
8
BLACK
6
CONTINUOUS
10
1.04349
20
-0.822441
11
1.06269
21
-0.822441
0
LINE
8
BLACK
6
CONTINUOUS
10
1.06269
20
-0.822441
11
1.06636
21
-0.823171
0
LINE
8
BLACK
6
CONTINUOUS
10
1.14018
20
-0.823171
11
1.14329
21
-0.825252
0
LINE
8
BLACK
6
CONTINUOUS
10
1.14329
20
-0.825252
11
1.14537
21
-0.828365
0
LINE
8
BLACK
6
CONTINUOUS
10
1.14537
20
-0.828365
11
1.1461
21
-0.832037
0
LINE
8
BLACK
6
CONTINUOUS
10
1.1461
20
-0.832037
11
1.1461
21
-0.867963
0
LINE
8
BLACK
6
CONTINUOUS
10
1.1461
20
-0.867963
11
1.14537
21
-0.871635
0
LINE
8
BLACK
6
CONTINUOUS
10
1.14537
20
-0.871635
11
1.14329
21
-0.874748
0
LINE
8
BLACK
6
CONTINUOUS
10
1.14329
20
-0.874748
11
1.14018
21
-0.876829
0
LINE
8
BLACK
6
CONTINUOUS
10
1.14018
20
-0.876829
11
1.13651
21
-0.877559
0
LINE
8
BLACK
6
CONTINUOUS
10
1.13651
20
-0.877559
11
1.11731
21
-0.877559
0
LINE
8
BLACK
6
CONTINUOUS
10
1.11731
20
-0.877559
11
1.11364
21
-0.876829
0
LINE
8
BLACK
6
CONTINUOUS
10
1.11364
20
-0.876829
11
1.11053
21
-0.874748
0
LINE
8
BLACK
6
CONTINUOUS
10
1.11053
20
-0.874748
11
1.10845
21
-0.871635
0
LINE
8
BLACK
6
CONTINUOUS
10
1.10845
20
-0.871635
11
1.10772
21
-0.867963
0
LINE
8
BLACK
6
CONTINUOUS
10
1.10772
20
-0.867963
11
1.10772
21
-0.832037
0
LINE
8
BLACK
6
CONTINUOUS
10
1.10772
20
-0.832037
11
1.10845
21
-0.828365
0
LINE
8
BLACK
6
CONTINUOUS
10
1.10845
20
-0.828365
11
1.11053
21
-0.825252
0
LINE
8
BLACK
6
CONTINUOUS
10
1.11053
20
-0.825252
11
1.11364
21
-0.823171
0
LINE
8
BLACK
6
CONTINUOUS
10
1.11364
20
-0.823171
11
1.11731
21
-0.822441
0
LINE
8
BLACK
6
CONTINUOUS
10
1.11731
20
-0.822441
11
1.13651
21
-0.822441
0
LINE
8
BLACK
6
CONTINUOUS
10
1.13651
20
-0.822441
11
1.14018
21
-0.823171
0
LINE
8
BLACK
6
CONTINUOUS
10
0.911635
20
-0.708447
11
0.914748
21
-0.710527
0
LINE
8
BLACK
6
CONTINUOUS
10
0.914748
20
-0.710527
11
0.916829
21
-0.713641
0
LINE
8
BLACK
6
CONTINUOUS
10
0.916829
20
-0.713641
11
0.917559
21
-0.717313
0
LINE
8
BLACK
6
CONTINUOUS
10
0.917559
20
-0.717313
11
0.917559
21
-0.736506
0
LINE
8
BLACK
6
CONTINUOUS
10
0.917559
20
-0.736506
11
0.916829
21
-0.740178
0
LINE
8
BLACK
6
CONTINUOUS
10
0.916829
20
-0.740178
11
0.914748
21
-0.743292
0
LINE
8
BLACK
6
CONTINUOUS
10
0.914748
20
-0.743292
11
0.911635
21
-0.745372
0
LINE
8
BLACK
6
CONTINUOUS
10
0.911635
20
-0.745372
11
0.907963
21
-0.746102
0
LINE
8
BLACK
6
CONTINUOUS
10
0.907963
20
-0.746102
11
0.872037
21
-0.746102
0
LINE
8
BLACK
6
CONTINUOUS
10
0.872037
20
-0.746102
11
0.868365
21
-0.745372
0
LINE
8
BLACK
6
CONTINUOUS
10
0.868365
20
-0.745372
11
0.865252
21
-0.743292
0
LINE
8
BLACK
6
CONTINUOUS
10
0.865252
20
-0.743292
11
0.863171
21
-0.740178
0
LINE
8
BLACK
6
CONTINUOUS
10
0.863171
20
-0.740178
11
0.862441
21
-0.736506
0
LINE
8
BLACK
6
CONTINUOUS
10
0.862441
20
-0.736506
11
0.862441
21
-0.717313
0
LINE
8
BLACK
6
CONTINUOUS
10
0.862441
20
-0.717313
11
0.863171
21
-0.713641
0
LINE
8
BLACK
6
CONTINUOUS
10
0.863171
20
-0.713641
11
0.865252
21
-0.710527
0
LINE
8
BLACK
6
CONTINUOUS
10
0.865252
20
-0.710527
11
0.868365
21
-0.708447
0
LINE
8
BLACK
6
CONTINUOUS
10
0.868365
20
-0.708447
11
0.872037
21
-0.707717
0
LINE
8
BLACK
6
CONTINUOUS
10
0.872037
20
-0.707717
11
0.907963
21
-0.707717
0
LINE
8
BLACK
6
CONTINUOUS
10
0.907963
20
-0.707717
11
0.911635
21
-0.708447
0
LINE
8
BLACK
6
CONTINUOUS
10
0.156359
20
-0.633171
11
0.159473
21
-0.635252
0
LINE
8
BLACK
6
CONTINUOUS
10
0.159473
20
-0.635252
11
0.161553
21
-0.638365
0
LINE
8
BLACK
6
CONTINUOUS
10
0.161553
20
-0.638365
11
0.162283
21
-0.642037
0
LINE
8
BLACK
6
CONTINUOUS
10
0.162283
20
-0.642037
11
0.162283
21
-0.677963
0
LINE
8
BLACK
6
CONTINUOUS
10
0.162283
20
-0.677963
11
0.161553
21
-0.681635
0
LINE
8
BLACK
6
CONTINUOUS
10
0.161553
20
-0.681635
11
0.159473
21
-0.684748
0
LINE
8
BLACK
6
CONTINUOUS
10
0.159473
20
-0.684748
11
0.156359
21
-0.686829
0
LINE
8
BLACK
6
CONTINUOUS
10
0.156359
20
-0.686829
11
0.152687
21
-0.687559
0
LINE
8
BLACK
6
CONTINUOUS
10
0.152687
20
-0.687559
11
0.133494
21
-0.687559
0
LINE
8
BLACK
6
CONTINUOUS
10
0.133494
20
-0.687559
11
0.129822
21
-0.686829
0
LINE
8
BLACK
6
CONTINUOUS
10
0.129822
20
-0.686829
11
0.126708
21
-0.684748
0
LINE
8
BLACK
6
CONTINUOUS
10
0.126708
20
-0.684748
11
0.124628
21
-0.681635
0
LINE
8
BLACK
6
CONTINUOUS
10
0.124628
20
-0.681635
11
0.123898
21
-0.677963
0
LINE
8
BLACK
6
CONTINUOUS
10
0.123898
20
-0.677963
11
0.123898
21
-0.642037
0
LINE
8
BLACK
6
CONTINUOUS
10
0.123898
20
-0.642037
11
0.124628
21
-0.638365
0
LINE
8
BLACK
6
CONTINUOUS
10
0.124628
20
-0.638365
11
0.126708
21
-0.635252
0
LINE
8
BLACK
6
CONTINUOUS
10
0.126708
20
-0.635252
11
0.129822
21
-0.633171
0
LINE
8
BLACK
6
CONTINUOUS
10
0.129822
20
-0.633171
11
0.133494
21
-0.632441
0
LINE
8
BLACK
6
CONTINUOUS
10
0.133494
20
-0.632441
11
0.152687
21
-0.632441
0
LINE
8
BLACK
6
CONTINUOUS
10
0.152687
20
-0.632441
11
0.156359
21
-0.633171
0
LINE
8
BLACK
6
CONTINUOUS
10
0.230178
20
-0.633171
11
0.233292
21
-0.635252
0
LINE
8
BLACK
6
CONTINUOUS
10
0.233292
20
-0.635252
11
0.235372
21
-0.638365
0
LINE
8
BLACK
6
CONTINUOUS
10
0.235372
20
-0.638365
11
0.236102
21
-0.642037
0
LINE
8
BLACK
6
CONTINUOUS
10
0.236102
20
-0.642037
11
0.236102
21
-0.677963
0
LINE
8
BLACK
6
CONTINUOUS
10
0.236102
20
-0.677963
11
0.235372
21
-0.681635
0
LINE
8
BLACK
6
CONTINUOUS
10
0.235372
20
-0.681635
11
0.233292
21
-0.684748
0
LINE
8
BLACK
6
CONTINUOUS
10
0.233292
20
-0.684748
11
0.230178
21
-0.686829
0
LINE
8
BLACK
6
CONTINUOUS
10
0.230178
20
-0.686829
11
0.226506
21
-0.687559
0
LINE
8
BLACK
6
CONTINUOUS
10
0.226506
20
-0.687559
11
0.207313
21
-0.687559
0
LINE
8
BLACK
6
CONTINUOUS
10
0.207313
20
-0.687559
11
0.203641
21
-0.686829
0
LINE
8
BLACK
6
CONTINUOUS
10
0.203641
20
-0.686829
11
0.200527
21
-0.684748
0
LINE
8
BLACK
6
CONTINUOUS
10
0.200527
20
-0.684748
11
0.198447
21
-0.681635
0
LINE
8
BLACK
6
CONTINUOUS
10
0.198447
20
-0.681635
11
0.197717
21
-0.677963
0
LINE
8
BLACK
6
CONTINUOUS
10
0.197717
20
-0.677963
11
0.197717
21
-0.642037
0
LINE
8
BLACK
6
CONTINUOUS
10
0.197717
20
-0.642037
11
0.198447
21
-0.638365
0
LINE
8
BLACK
6
CONTINUOUS
10
0.198447
20
-0.638365
11
0.200527
21
-0.635252
0
LINE
8
BLACK
6
CONTINUOUS
10
0.200527
20
-0.635252
11
0.203641
21
-0.633171
0
LINE
8
BLACK
6
CONTINUOUS
10
0.203641
20
-0.633171
11
0.207313
21
-0.632441
0
LINE
8
BLACK
6
CONTINUOUS
10
0.207313
20
-0.632441
11
0.226506
21
-0.632441
0
LINE
8
BLACK
6
CONTINUOUS
10
0.226506
20
-0.632441
11
0.230178
21
-0.633171
0
LINE
8
BLACK
6
CONTINUOUS
10
0.331635
20
-0.638447
11
0.334748
21
-0.640527
0
LINE
8
BLACK
6
CONTINUOUS
10
0.334748
20
-0.640527
11
0.336829
21
-0.643641
0
LINE
8
BLACK
6
CONTINUOUS
10
0.336829
20
-0.643641
11
0.337559
21
-0.647313
0
LINE
8
BLACK
6
CONTINUOUS
10
0.337559
20
-0.647313
11
0.337559
21
-0.666506
0
LINE
8
BLACK
6
CONTINUOUS
10
0.337559
20
-0.666506
11
0.336829
21
-0.670178
0
LINE
8
BLACK
6
CONTINUOUS
10
0.336829
20
-0.670178
11
0.334748
21
-0.673292
0
LINE
8
BLACK
6
CONTINUOUS
10
0.334748
20
-0.673292
11
0.331635
21
-0.675372
0
LINE
8
BLACK
6
CONTINUOUS
10
0.331635
20
-0.675372
11
0.327963
21
-0.676102
0
LINE
8
BLACK
6
CONTINUOUS
10
0.327963
20
-0.676102
11
0.292037
21
-0.676102
0
LINE
8
BLACK
6
CONTINUOUS
10
0.292037
20
-0.676102
11
0.288365
21
-0.675372
0
LINE
8
BLACK
6
CONTINUOUS
10
0.288365
20
-0.675372
11
0.285252
21
-0.673292
0
LINE
8
BLACK
6
CONTINUOUS
10
0.285252
20
-0.673292
11
0.283171
21
-0.670178
0
LINE
8
BLACK
6
CONTINUOUS
10
0.283171
20
-0.670178
11
0.282441
21
-0.666506
0
LINE
8
BLACK
6
CONTINUOUS
10
0.282441
20
-0.666506
11
0.282441
21
-0.647313
0
LINE
8
BLACK
6
CONTINUOUS
10
0.282441
20
-0.647313
11
0.283171
21
-0.643641
0
LINE
8
BLACK
6
CONTINUOUS
10
0.283171
20
-0.643641
11
0.285252
21
-0.640527
0
LINE
8
BLACK
6
CONTINUOUS
10
0.285252
20
-0.640527
11
0.288365
21
-0.638447
0
LINE
8
BLACK
6
CONTINUOUS
10
0.288365
20
-0.638447
11
0.292037
21
-0.637717
0
LINE
8
BLACK
6
CONTINUOUS
10
0.292037
20
-0.637717
11
0.327963
21
-0.637717
0
LINE
8
BLACK
6
CONTINUOUS
10
0.327963
20
-0.637717
11
0.331635
21
-0.638447
0
LINE
8
BLACK
6
CONTINUOUS
10
0.411635
20
-0.638447
11
0.414748
21
-0.640527
0
LINE
8
BLACK
6
CONTINUOUS
10
0.414748
20
-0.640527
11
0.416829
21
-0.643641
0
LINE
8
BLACK
6
CONTINUOUS
10
0.416829
20
-0.643641
11
0.417559
21
-0.647313
0
LINE
8
BLACK
6
CONTINUOUS
10
0.417559
20
-0.647313
11
0.417559
21
-0.666506
0
LINE
8
BLACK
6
CONTINUOUS
10
0.417559
20
-0.666506
11
0.416829
21
-0.670178
0
LINE
8
BLACK
6
CONTINUOUS
10
0.416829
20
-0.670178
11
0.414748
21
-0.673292
0
LINE
8
BLACK
6
CONTINUOUS
10
0.414748
20
-0.673292
11
0.411635
21
-0.675372
0
LINE
8
BLACK
6
CONTINUOUS
10
0.411635
20
-0.675372
11
0.407963
21
-0.676102
0
LINE
8
BLACK
6
CONTINUOUS
10
0.407963
20
-0.676102
11
0.372037
21
-0.676102
0
LINE
8
BLACK
6
CONTINUOUS
10
0.372037
20
-0.676102
11
0.368365
21
-0.675372
0
LINE
8
BLACK
6
CONTINUOUS
10
0.368365
20
-0.675372
11
0.365252
21
-0.673292
0
LINE
8
BLACK
6
CONTINUOUS
10
0.365252
20
-0.673292
11
0.363171
21
-0.670178
0
LINE
8
BLACK
6
CONTINUOUS
10
0.363171
20
-0.670178
11
0.362441
21
-0.666506
0
LINE
8
BLACK
6
CONTINUOUS
10
0.362441
20
-0.666506
11
0.362441
21
-0.647313
0
LINE
8
BLACK
6
CONTINUOUS
10
0.362441
20
-0.647313
11
0.363171
21
-0.643641
0
LINE
8
BLACK
6
CONTINUOUS
10
0.363171
20
-0.643641
11
0.365252
21
-0.640527
0
LINE
8
BLACK
6
CONTINUOUS
10
0.365252
20
-0.640527
11
0.368365
21
-0.638447
0
LINE
8
BLACK
6
CONTINUOUS
10
0.368365
20
-0.638447
11
0.372037
21
-0.637717
0
LINE
8
BLACK
6
CONTINUOUS
10
0.372037
20
-0.637717
11
0.407963
21
-0.637717
0
LINE
8
BLACK
6
CONTINUOUS
10
0.407963
20
-0.637717
11
0.411635
21
-0.638447
0
LINE
8
BLACK
6
CONTINUOUS
10
0.531635
20
-0.638447
11
0.534748
21
-0.640527
0
LINE
8
BLACK
6
CONTINUOUS
10
0.534748
20
-0.640527
11
0.536829
21
-0.643641
0
LINE
8
BLACK
6
CONTINUOUS
10
0.536829
20
-0.643641
11
0.537559
21
-0.647313
0
LINE
8
BLACK
6
CONTINUOUS
10
0.537559
20
-0.647313
11
0.537559
21
-0.666506
0
LINE
8
BLACK
6
CONTINUOUS
10
0.537559
20
-0.666506
11
0.536829
21
-0.670178
0
LINE
8
BLACK
6
CONTINUOUS
10
0.536829
20
-0.670178
11
0.534748
21
-0.673292
0
LINE
8
BLACK
6
CONTINUOUS
10
0.534748
20
-0.673292
11
0.531635
21
-0.675372
0
LINE
8
BLACK
6
CONTINUOUS
10
0.531635
20
-0.675372
11
0.527963
21
-0.676102
0
LINE
8
BLACK
6
CONTINUOUS
10
0.527963
20
-0.676102
11
0.492037
21
-0.676102
0
LINE
8
BLACK
6
CONTINUOUS
10
0.492037
20
-0.676102
11
0.488365
21
-0.675372
0
LINE
8
BLACK
6
CONTINUOUS
10
0.488365
20
-0.675372
11
0.485252
21
-0.673292
0
LINE
8
BLACK
6
CONTINUOUS
10
0.485252
20
-0.673292
11
0.483171
21
-0.670178
0
LINE
8
BLACK
6
CONTINUOUS
10
0.483171
20
-0.670178
11
0.482441
21
-0.666506
0
LINE
8
BLACK
6
CONTINUOUS
10
0.482441
20
-0.666506
11
0.482441
21
-0.647313
0
LINE
8
BLACK
6
CONTINUOUS
10
0.482441
20
-0.647313
11
0.483171
21
-0.643641
0
LINE
8
BLACK
6
CONTINUOUS
10
0.483171
20
-0.643641
11
0.485252
21
-0.640527
0
LINE
8
BLACK
6
CONTINUOUS
10
0.485252
20
-0.640527
11
0.488365
21
-0.638447
0
LINE
8
BLACK
6
CONTINUOUS
10
0.488365
20
-0.638447
11
0.492037
21
-0.637717
0
LINE
8
BLACK
6
CONTINUOUS
10
0.492037
20
-0.637717
11
0.527963
21
-0.637717
0
LINE
8
BLACK
6
CONTINUOUS
10
0.527963
20
-0.637717
11
0.531635
21
-0.638447
0
LINE
8
BLACK
6
CONTINUOUS
10
0.611635
20
-0.638447
11
0.614748
21
-0.640527
0
LINE
8
BLACK
6
CONTINUOUS
10
0.614748
20
-0.640527
11
0.616829
21
-0.643641
0
LINE
8
BLACK
6
CONTINUOUS
10
0.616829
20
-0.643641
11
0.617559
21
-0.647313
0
LINE
8
BLACK
6
CONTINUOUS
10
0.617559
20
-0.647313
11
0.617559
21
-0.666506
0
LINE
8
BLACK
6
CONTINUOUS
10
0.617559
20
-0.666506
11
0.616829
21
-0.670178
0
LINE
8
BLACK
6
CONTINUOUS
10
0.616829
20
-0.670178
11
0.614748
21
-0.673292
0
LINE
8
BLACK
6
CONTINUOUS
10
0.614748
20
-0.673292
11
0.611635
21
-0.675372
0
LINE
8
BLACK
6
CONTINUOUS
10
0.611635
20
-0.675372
11
0.607963
21
-0.676102
0
LINE
8
BLACK
6
CONTINUOUS
10
0.607963
20
-0.676102
11
0.572037
21
-0.676102
0
LINE
8
BLACK
6
CONTINUOUS
10
0.572037
20
-0.676102
11
0.568365
21
-0.675372
0
LINE
8
BLACK
6
CONTINUOUS
10
0.568365
20
-0.675372
11
0.565252
21
-0.673292
0
LINE
8
BLACK
6
CONTINUOUS
10
0.565252
20
-0.673292
11
0.563171
21
-0.670178
0
LINE
8
BLACK
6
CONTINUOUS
10
0.563171
20
-0.670178
11
0.562441
21
-0.666506
0
LINE
8
BLACK
6
CONTINUOUS
10
0.562441
20
-0.666506
11
0.562441
21
-0.647313
0
LINE
8
BLACK
6
CONTINUOUS
10
0.562441
20
-0.647313
11
0.563171
21
-0.643641
0
LINE
8
BLACK
6
CONTINUOUS
10
0.563171
20
-0.643641
11
0.565252
21
-0.640527
0
LINE
8
BLACK
6
CONTINUOUS
10
0.565252
20
-0.640527
11
0.568365
21
-0.638447
0
LINE
8
BLACK
6
CONTINUOUS
10
0.568365
20
-0.638447
11
0.572037
21
-0.637717
0
LINE
8
BLACK
6
CONTINUOUS
10
0.572037
20
-0.637717
11
0.607963
21
-0.637717
0
LINE
8
BLACK
6
CONTINUOUS
10
0.607963
20
-0.637717
11
0.611635
21
-0.638447
0
LINE
8
BLACK
6
CONTINUOUS
10
0.911635
20
-0.634628
11
0.914748
21
-0.636708
0
LINE
8
BLACK
6
CONTINUOUS
10
0.914748
20
-0.636708
11
0.916829
21
-0.639822
0
LINE
8
BLACK
6
CONTINUOUS
10
0.916829
20
-0.639822
11
0.917559
21
-0.643494
0
LINE
8
BLACK
6
CONTINUOUS
10
0.917559
20
-0.643494
11
0.917559
21
-0.662687
0
LINE
8
BLACK
6
CONTINUOUS
10
0.917559
20
-0.662687
11
0.916829
21
-0.666359
0
LINE
8
BLACK
6
CONTINUOUS
10
0.916829
20
-0.666359
11
0.914748
21
-0.669473
0
LINE
8
BLACK
6
CONTINUOUS
10
0.914748
20
-0.669473
11
0.911635
21
-0.671553
0
LINE
8
BLACK
6
CONTINUOUS
10
0.911635
20
-0.671553
11
0.907963
21
-0.672283
0
LINE
8
BLACK
6
CONTINUOUS
10
0.907963
20
-0.672283
11
0.872037
21
-0.672283
0
LINE
8
BLACK
6
CONTINUOUS
10
0.872037
20
-0.672283
11
0.868365
21
-0.671553
0
LINE
8
BLACK
6
CONTINUOUS
10
0.868365
20
-0.671553
11
0.865252
21
-0.669473
0
LINE
8
BLACK
6
CONTINUOUS
10
0.865252
20
-0.669473
11
0.863171
21
-0.666359
0
LINE
8
BLACK
6
CONTINUOUS
10
0.863171
20
-0.666359
11
0.862441
21
-0.662687
0
LINE
8
BLACK
6
CONTINUOUS
10
0.862441
20
-0.662687
11
0.862441
21
-0.643494
0
LINE
8
BLACK
6
CONTINUOUS
10
0.862441
20
-0.643494
11
0.863171
21
-0.639822
0
LINE
8
BLACK
6
CONTINUOUS
10
0.863171
20
-0.639822
11
0.865252
21
-0.636708
0
LINE
8
BLACK
6
CONTINUOUS
10
0.865252
20
-0.636708
11
0.868365
21
-0.634628
0
LINE
8
BLACK
6
CONTINUOUS
10
0.868365
20
-0.634628
11
0.872037
21
-0.633898
0
LINE
8
BLACK
6
CONTINUOUS
10
0.872037
20
-0.633898
11
0.907963
21
-0.633898
0
LINE
8
BLACK
6
CONTINUOUS
10
0.907963
20
-0.633898
11
0.911635
21
-0.634628
0
LINE
8
BLACK
6
CONTINUOUS
10
-0.0722835
20
-0.62937
11
-0.107717
21
-0.62937
0
LINE
8
BLACK
6
CONTINUOUS
10
-0.107717
20
-0.62937
11
-0.107717
21
-0.59
0
LINE
8
BLACK
6
CONTINUOUS
10
-0.107717
20
-0.59
11
-0.0722835
21
-0.59
0
LINE
8
BLACK
6
CONTINUOUS
10
-0.0722835
20
-0.59
11
-0.0722835
21
-0.62937
0
LINE
8
BLACK
6
CONTINUOUS
10
0.0277165
20
-0.62937
11
-0.00771654
21
-0.62937
0
LINE
8
BLACK
6
CONTINUOUS
10
-0.00771654
20
-0.62937
11
-0.00771654
21
-0.59
0
LINE
8
BLACK
6
CONTINUOUS
10
-0.00771654
20
-0.59
11
0.0277165
21
-0.59
0
LINE
8
BLACK
6
CONTINUOUS
10
0.0277165
20
-0.59
11
0.0277165
21
-0.62937
0
LINE
8
BLACK
6
CONTINUOUS
10
0.156359
20
-0.553171
11
0.159473
21
-0.555252
0
LINE
8
BLACK
6
CONTINUOUS
10
0.159473
20
-0.555252
11
0.161553
21
-0.558365
0
LINE
8
BLACK
6
CONTINUOUS
10
0.161553
20
-0.558365
11
0.162283
21
-0.562037
0
LINE
8
BLACK
6
CONTINUOUS
10
0.162283
20
-0.562037
11
0.162283
21
-0.597963
0
LINE
8
BLACK
6
CONTINUOUS
10
0.162283
20
-0.597963
11
0.161553
21
-0.601635
0
LINE
8
BLACK
6
CONTINUOUS
10
0.161553
20
-0.601635
11
0.159473
21
-0.604748
0
LINE
8
BLACK
6
CONTINUOUS
10
0.159473
20
-0.604748
11
0.156359
21
-0.606829
0
LINE
8
BLACK
6
CONTINUOUS
10
0.156359
20
-0.606829
11
0.152687
21
-0.607559
0
LINE
8
BLACK
6
CONTINUOUS
10
0.152687
20
-0.607559
11
0.133494
21
-0.607559
0
LINE
8
BLACK
6
CONTINUOUS
10
0.133494
20
-0.607559
11
0.129822
21
-0.606829
0
LINE
8
BLACK
6
CONTINUOUS
10
0.129822
20
-0.606829
11
0.126708
21
-0.604748
0
LINE
8
BLACK
6
CONTINUOUS
10
0.126708
20
-0.604748
11
0.124628
21
-0.601635
0
LINE
8
BLACK
6
CONTINUOUS
10
0.124628
20
-0.601635
11
0.123898
21
-0.597963
0
LINE
8
BLACK
6
CONTINUOUS
10
0.123898
20
-0.597963
11
0.123898
21
-0.562037
0
LINE
8
BLACK
6
CONTINUOUS
10
0.123898
20
-0.562037
11
0.124628
21
-0.558365
0
LINE
8
BLACK
6
CONTINUOUS
10
0.124628
20
-0.558365
11
0.126708
21
-0.555252
0
LINE
8
BLACK
6
CONTINUOUS
10
0.126708
20
-0.555252
11
0.129822
21
-0.553171
0
LINE
8
BLACK
6
CONTINUOUS
10
0.129822
20
-0.553171
11
0.133494
21
-0.552441
0
LINE
8
BLACK
6
CONTINUOUS
10
0.133494
20
-0.552441
11
0.152687
21
-0.552441
0
LINE
8
BLACK
6
CONTINUOUS
10
0.152687
20
-0.552441
11
0.156359
21
-0.553171
0
LINE
8
BLACK
6
CONTINUOUS
10
0.230178
20
-0.553171
11
0.233292
21
-0.555252
0
LINE
8
BLACK
6
CONTINUOUS
10
0.233292
20
-0.555252
11
0.235372
21
-0.558365
0
LINE
8
BLACK
6
CONTINUOUS
10
0.235372
20
-0.558365
11
0.236102
21
-0.562037
0
LINE
8
BLACK
6
CONTINUOUS
10
0.236102
20
-0.562037
11
0.236102
21
-0.597963
0
LINE
8
BLACK
6
CONTINUOUS
10
0.236102
20
-0.597963
11
0.235372
21
-0.601635
0
LINE
8
BLACK
6
CONTINUOUS
10
0.235372
20
-0.601635
11
0.233292
21
-0.604748
0
LINE
8
BLACK
6
CONTINUOUS
10
0.233292
20
-0.604748
11
0.230178
21
-0.606829
0
LINE
8
BLACK
6
CONTINUOUS
10
0.230178
20
-0.606829
11
0.226506
21
-0.607559
0
LINE
8
BLACK
6
CONTINUOUS
10
0.226506
20
-0.607559
11
0.207313
21
-0.607559
0
LINE
8
BLACK
6
CONTINUOUS
10
0.207313
20
-0.607559
11
0.203641
21
-0.606829
0
LINE
8
BLACK
6
CONTINUOUS
10
0.203641
20
-0.606829
11
0.200527
21
-0.604748
0
LINE
8
BLACK
6
CONTINUOUS
10
0.200527
20
-0.604748
11
0.198447
21
-0.601635
0
LINE
8
BLACK
6
CONTINUOUS
10
0.198447
20
-0.601635
11
0.197717
21
-0.597963
0
LINE
8
BLACK
6
CONTINUOUS
10
0.197717
20
-0.597963
11
0.197717
21
-0.562037
0
LINE
8
BLACK
6
CONTINUOUS
10
0.197717
20
-0.562037
11
0.198447
21
-0.558365
0
LINE
8
BLACK
6
CONTINUOUS
10
0.198447
20
-0.558365
11
0.200527
21
-0.555252
0
LINE
8
BLACK
6
CONTINUOUS
10
0.200527
20
-0.555252
11
0.203641
21
-0.553171
0
LINE
8
BLACK
6
CONTINUOUS
10
0.203641
20
-0.553171
11
0.207313
21
-0.552441
0
LINE
8
BLACK
6
CONTINUOUS
10
0.207313
20
-0.552441
11
0.226506
21
-0.552441
0
LINE
8
BLACK
6
CONTINUOUS
10
0.226506
20
-0.552441
11
0.230178
21
-0.553171
0
LINE
8
BLACK
6
CONTINUOUS
10
0.846359
20
-0.553171
11
0.849473
21
-0.555252
0
LINE
8
BLACK
6
CONTINUOUS
10
0.849473
20
-0.555252
11
0.851553
21
-0.558365
0
LINE
8
BLACK
6
CONTINUOUS
10
0.851553
20
-0.558365
11
0.852283
21
-0.562037
0
LINE
8
BLACK
6
CONTINUOUS
10
0.852283
20
-0.562037
11
0.852283
21
-0.597963
0
LINE
8
BLACK
6
CONTINUOUS
10
0.852283
20
-0.597963
11
0.851553
21
-0.601635
0
LINE
8
BLACK
6
CONTINUOUS
10
0.851553
20
-0.601635
11
0.849473
21
-0.604748
0
LINE
8
BLACK
6
CONTINUOUS
10
0.849473
20
-0.604748
11
0.846359
21
-0.606829
0
LINE
8
BLACK
6
CONTINUOUS
10
0.846359
20
-0.606829
11
0.842687
21
-0.607559
0
LINE
8
BLACK
6
CONTINUOUS
10
0.842687
20
-0.607559
11
0.823494
21
-0.607559
0
LINE
8
BLACK
6
CONTINUOUS
10
0.823494
20
-0.607559
11
0.819822
21
-0.606829
0
LINE
8
BLACK
6
CONTINUOUS
10
0.819822
20
-0.606829
11
0.816708
21
-0.604748
0
LINE
8
BLACK
6
CONTINUOUS
10
0.816708
20
-0.604748
11
0.814628
21
-0.601635
0
LINE
8
BLACK
6
CONTINUOUS
10
0.814628
20
-0.601635
11
0.813898
21
-0.597963
0
LINE
8
BLACK
6
CONTINUOUS
10
0.813898
20
-0.597963
11
0.813898
21
-0.562037
0
LINE
8
BLACK
6
CONTINUOUS
10
0.813898
20
-0.562037
11
0.814628
21
-0.558365
0
LINE
8
BLACK
6
CONTINUOUS
10
0.814628
20
-0.558365
11
0.816708
21
-0.555252
0
LINE
8
BLACK
6
CONTINUOUS
10
0.816708
20
-0.555252
11
0.819822
21
-0.553171
0
LINE
8
BLACK
6
CONTINUOUS
10
0.819822
20
-0.553171
11
0.823494
21
-0.552441
0
LINE
8
BLACK
6
CONTINUOUS
10
0.823494
20
-0.552441
11
0.842687
21
-0.552441
0
LINE
8
BLACK
6
CONTINUOUS
10
0.842687
20
-0.552441
11
0.846359
21
-0.553171
0
LINE
8
BLACK
6
CONTINUOUS
10
0.920178
20
-0.553171
11
0.923292
21
-0.555252
0
LINE
8
BLACK
6
CONTINUOUS
10
0.923292
20
-0.555252
11
0.925372
21
-0.558365
0
LINE
8
BLACK
6
CONTINUOUS
10
0.925372
20
-0.558365
11
0.926102
21
-0.562037
0
LINE
8
BLACK
6
CONTINUOUS
10
0.926102
20
-0.562037
11
0.926102
21
-0.597963
0
LINE
8
BLACK
6
CONTINUOUS
10
0.926102
20
-0.597963
11
0.925372
21
-0.601635
0
LINE
8
BLACK
6
CONTINUOUS
10
0.925372
20
-0.601635
11
0.923292
21
-0.604748
0
LINE
8
BLACK
6
CONTINUOUS
10
0.923292
20
-0.604748
11
0.920178
21
-0.606829
0
LINE
8
BLACK
6
CONTINUOUS
10
0.920178
20
-0.606829
11
0.916506
21
-0.607559
0
LINE
8
BLACK
6
CONTINUOUS
10
0.916506
20
-0.607559
11
0.897313
21
-0.607559
0
LINE
8
BLACK
6
CONTINUOUS
10
0.897313
20
-0.607559
11
0.893641
21
-0.606829
0
LINE
8
BLACK
6
CONTINUOUS
10
0.893641
20
-0.606829
11
0.890527
21
-0.604748
0
LINE
8
BLACK
6
CONTINUOUS
10
0.890527
20
-0.604748
11
0.888447
21
-0.601635
0
LINE
8
BLACK
6
CONTINUOUS
10
0.888447
20
-0.601635
11
0.887717
21
-0.597963
0
LINE
8
BLACK
6
CONTINUOUS
10
0.887717
20
-0.597963
11
0.887717
21
-0.562037
0
LINE
8
BLACK
6
CONTINUOUS
10
0.887717
20
-0.562037
11
0.888447
21
-0.558365
0
LINE
8
BLACK
6
CONTINUOUS
10
0.888447
20
-0.558365
11
0.890527
21
-0.555252
0
LINE
8
BLACK
6
CONTINUOUS
10
0.890527
20
-0.555252
11
0.893641
21
-0.553171
0
LINE
8
BLACK
6
CONTINUOUS
10
0.893641
20
-0.553171
11
0.897313
21
-0.552441
0
LINE
8
BLACK
6
CONTINUOUS
10
0.897313
20
-0.552441
11
0.916506
21
-0.552441
0
LINE
8
BLACK
6
CONTINUOUS
10
0.916506
20
-0.552441
11
0.920178
21
-0.553171
0
LINE
8
BLACK
6
CONTINUOUS
10
0.331635
20
-0.564628
11
0.334748
21
-0.566708
0
LINE
8
BLACK
6
CONTINUOUS
10
0.334748
20
-0.566708
11
0.336829
21
-0.569822
0
LINE
8
BLACK
6
CONTINUOUS
10
0.336829
20
-0.569822
11
0.337559
21
-0.573494
0
LINE
8
BLACK
6
CONTINUOUS
10
0.337559
20
-0.573494
11
0.337559
21
-0.592687
0
LINE
8
BLACK
6
CONTINUOUS
10
0.337559
20
-0.592687
11
0.336829
21
-0.596359
0
LINE
8
BLACK
6
CONTINUOUS
10
0.336829
20
-0.596359
11
0.334748
21
-0.599473
0
LINE
8
BLACK
6
CONTINUOUS
10
0.334748
20
-0.599473
11
0.331635
21
-0.601553
0
LINE
8
BLACK
6
CONTINUOUS
10
0.331635
20
-0.601553
11
0.327963
21
-0.602283
0
LINE
8
BLACK
6
CONTINUOUS
10
0.327963
20
-0.602283
11
0.292037
21
-0.602283
0
LINE
8
BLACK
6
CONTINUOUS
10
0.292037
20
-0.602283
11
0.288365
21
-0.601553
0
LINE
8
BLACK
6
CONTINUOUS
10
0.288365
20
-0.601553
11
0.285252
21
-0.599473
0
LINE
8
BLACK
6
CONTINUOUS
10
0.285252
20
-0.599473
11
0.283171
21
-0.596359
0
LINE
8
BLACK
6
CONTINUOUS
10
0.283171
20
-0.596359
11
0.282441
21
-0.592687
0
LINE
8
BLACK
6
CONTINUOUS
10
0.282441
20
-0.592687
11
0.282441
21
-0.573494
0
LINE
8
BLACK
6
CONTINUOUS
10
0.282441
20
-0.573494
11
0.283171
21
-0.569822
0
LINE
8
BLACK
6
CONTINUOUS
10
0.283171
20
-0.569822
11
0.285252
21
-0.566708
0
LINE
8
BLACK
6
CONTINUOUS
10
0.285252
20
-0.566708
11
0.288365
21
-0.564628
0
LINE
8
BLACK
6
CONTINUOUS
10
0.288365
20
-0.564628
11
0.292037
21
-0.563898
0
LINE
8
BLACK
6
CONTINUOUS
10
0.292037
20
-0.563898
11
0.327963
21
-0.563898
0
LINE
8
BLACK
6
CONTINUOUS
10
0.327963
20
-0.563898
11
0.331635
21
-0.564628
0
LINE
8
BLACK
6
CONTINUOUS
10
0.411635
20
-0.564628
11
0.414748
21
-0.566708
0
LINE
8
BLACK
6
CONTINUOUS
10
0.414748
20
-0.566708
11
0.416829
21
-0.569822
0
LINE
8
BLACK
6
CONTINUOUS
10
0.416829
20
-0.569822
11
0.417559
21
-0.573494
0
LINE
8
BLACK
6
CONTINUOUS
10
0.417559
20
-0.573494
11
0.417559
21
-0.592687
0
LINE
8
BLACK
6
CONTINUOUS
10
0.417559
20
-0.592687
11
0.416829
21
-0.596359
0
LINE
8
BLACK
6
CONTINUOUS
10
0.416829
20
-0.596359
11
0.414748
21
-0.599473
0
LINE
8
BLACK
6
CONTINUOUS
10
0.414748
20
-0.599473
11
0.411635
21
-0.601553
0
LINE
8
BLACK
6
CONTINUOUS
10
0.411635
20
-0.601553
11
0.407963
21
-0.602283
0
LINE
8
BLACK
6
CONTINUOUS
10
0.407963
20
-0.602283
11
0.372037
21
-0.602283
0
LINE
8
BLACK
6
CONTINUOUS
10
0.372037
20
-0.602283
11
0.368365
21
-0.601553
0
LINE
8
BLACK
6
CONTINUOUS
10
0.368365
20
-0.601553
11
0.365252
21
-0.599473
0
LINE
8
BLACK
6
CONTINUOUS
10
0.365252
20
-0.599473
11
0.363171
21
-0.596359
0
LINE
8
BLACK
6
CONTINUOUS
10
0.363171
20
-0.596359
11
0.362441
21
-0.592687
0
LINE
8
BLACK
6
CONTINUOUS
10
0.362441
20
-0.592687
11
0.362441
21
-0.573494
0
LINE
8
BLACK
6
CONTINUOUS
10
0.362441
20
-0.573494
11
0.363171
21
-0.569822
0
LINE
8
BLACK
6
CONTINUOUS
10
0.363171
20
-0.569822
11
0.365252
21
-0.566708
0
LINE
8
BLACK
6
CONTINUOUS
10
0.365252
20
-0.566708
11
0.368365
21
-0.564628
0
LINE
8
BLACK
6
CONTINUOUS
10
0.368365
20
-0.564628
11
0.372037
21
-0.563898
0
LINE
8
BLACK
6
CONTINUOUS
10
0.372037
20
-0.563898
11
0.407963
21
-0.563898
0
LINE
8
BLACK
6
CONTINUOUS
10
0.407963
20
-0.563898
11
0.411635
21
-0.564628
0
LINE
8
BLACK
6
CONTINUOUS
10
0.531635
20
-0.564628
11
0.534748
21
-0.566708
0
LINE
8
BLACK
6
CONTINUOUS
10
0.534748
20
-0.566708
11
0.536829
21
-0.569822
0
LINE
8
BLACK
6
CONTINUOUS
10
0.536829
20
-0.569822
11
0.537559
21
-0.573494
0
LINE
8
BLACK
6
CONTINUOUS
10
0.537559
20
-0.573494
11
0.537559
21
-0.592687
0
LINE
8
BLACK
6
CONTINUOUS
10
0.537559
20
-0.592687
11
0.536829
21
-0.596359
0
LINE
8
BLACK
6
CONTINUOUS
10
0.536829
20
-0.596359
11
0.534748
21
-0.599473
0
LINE
8
BLACK
6
CONTINUOUS
10
0.534748
20
-0.599473
11
0.531635
21
-0.601553
0
LINE
8
BLACK
6
CONTINUOUS
10
0.531635
20
-0.601553
11
0.527963
21
-0.602283
0
LINE
8
BLACK
6
CONTINUOUS
10
0.527963
20
-0.602283
11
0.492037
21
-0.602283
0
LINE
8
BLACK
6
CONTINUOUS
10
0.492037
20
-0.602283
11
0.488365
21
-0.601553
0
LINE
8
BLACK
6
CONTINUOUS
10
0.488365
20
-0.601553
11
0.485252
21
-0.599473
0
LINE
8
BLACK
6
CONTINUOUS
10
0.485252
20
-0.599473
11
0.483171
21
-0.596359
0
LINE
8
BLACK
6
CONTINUOUS
10
0.483171
20
-0.596359
11
0.482441
21
-0.592687
0
LINE
8
BLACK
6
CONTINUOUS
10
0.482441
20
-0.592687
11
0.482441
21
-0.573494
0
LINE
8
BLACK
6
CONTINUOUS
10
0.482441
20
-0.573494
11
0.483171
21
-0.569822
0
LINE
8
BLACK
6
CONTINUOUS
10
0.483171
20
-0.569822
11
0.485252
21
-0.566708
0
LINE
8
BLACK
6
CONTINUOUS
10
0.485252
20
-0.566708
11
0.488365
21
-0.564628
0
LINE
8
BLACK
6
CONTINUOUS
10
0.488365
20
-0.564628
11
0.492037
21
-0.563898
0
LINE
8
BLACK
6
CONTINUOUS
10
0.492037
20
-0.563898
11
0.527963
21
-0.563898
0
LINE
8
BLACK
6
CONTINUOUS
10
0.527963
20
-0.563898
11
0.531635
21
-0.564628
0
LINE
8
BLACK
6
CONTINUOUS
10
0.611635
20
-0.564628
11
0.614748
21
-0.566708
0
LINE
8
BLACK
6
CONTINUOUS
10
0.614748
20
-0.566708
11
0.616829
21
-0.569822
0
LINE
8
BLACK
6
CONTINUOUS
10
0.616829
20
-0.569822
11
0.617559
21
-0.573494
0
LINE
8
BLACK
6
CONTINUOUS
10
0.617559
20
-0.573494
11
0.617559
21
-0.592687
0
LINE
8
BLACK
6
CONTINUOUS
10
0.617559
20
-0.592687
11
0.616829
21
-0.596359
0
LINE
8
BLACK
6
CONTINUOUS
10
0.616829
20
-0.596359
11
0.614748
21
-0.599473
0
LINE
8
BLACK
6
CONTINUOUS
10
0.614748
20
-0.599473
11
0.611635
21
-0.601553
0
LINE
8
BLACK
6
CONTINUOUS
10
0.611635
20
-0.601553
11
0.607963
21
-0.602283
0
LINE
8
BLACK
6
CONTINUOUS
10
0.607963
20
-0.602283
11
0.572037
21
-0.602283
0
LINE
8
BLACK
6
CONTINUOUS
10
0.572037
20
-0.602283
11
0.568365
21
-0.601553
0
LINE
8
BLACK
6
CONTINUOUS
10
0.568365
20
-0.601553
11
0.565252
21
-0.599473
0
LINE
8
BLACK
6
CONTINUOUS
10
0.565252
20
-0.599473
11
0.563171
21
-0.596359
0
LINE
8
BLACK
6
CONTINUOUS
10
0.563171
20
-0.596359
11
0.562441
21
-0.592687
0
LINE
8
BLACK
6
CONTINUOUS
10
0.562441
20
-0.592687
11
0.562441
21
-0.573494
0
LINE
8
BLACK
6
CONTINUOUS
10
0.562441
20
-0.573494
11
0.563171
21
-0.569822
0
LINE
8
BLACK
6
CONTINUOUS
10
0.563171
20
-0.569822
11
0.565252
21
-0.566708
0
LINE
8
BLACK
6
CONTINUOUS
10
0.565252
20
-0.566708
11
0.568365
21
-0.564628
0
LINE
8
BLACK
6
CONTINUOUS
10
0.568365
20
-0.564628
11
0.572037
21
-0.563898
0
LINE
8
BLACK
6
CONTINUOUS
10
0.572037
20
-0.563898
11
0.607963
21
-0.563898
0
LINE
8
BLACK
6
CONTINUOUS
10
0.607963
20
-0.563898
11
0.611635
21
-0.564628
0
LINE
8
BLACK
6
CONTINUOUS
10
2.37163
20
-0.538447
11
2.37475
21
-0.540527
0
LINE
8
BLACK
6
CONTINUOUS
10
2.37475
20
-0.540527
11
2.37683
21
-0.543641
0
LINE
8
BLACK
6
CONTINUOUS
10
2.37683
20
-0.543641
11
2.37756
21
-0.547313
0
LINE
8
BLACK
6
CONTINUOUS
10
2.37756
20
-0.547313
11
2.37756
21
-0.566506
0
LINE
8
BLACK
6
CONTINUOUS
10
2.37756
20
-0.566506
11
2.37683
21
-0.570178
0
LINE
8
BLACK
6
CONTINUOUS
10
2.37683
20
-0.570178
11
2.37475
21
-0.573292
0
LINE
8
BLACK
6
CONTINUOUS
10
2.37475
20
-0.573292
11
2.37163
21
-0.575372
0
LINE
8
BLACK
6
CONTINUOUS
10
2.37163
20
-0.575372
11
2.36796
21
-0.576102
0
LINE
8
BLACK
6
CONTINUOUS
10
2.36796
20
-0.576102
11
2.33204
21
-0.576102
0
LINE
8
BLACK
6
CONTINUOUS
10
2.33204
20
-0.576102
11
2.32836
21
-0.575372
0
LINE
8
BLACK
6
CONTINUOUS
10
2.32836
20
-0.575372
11
2.32525
21
-0.573292
0
LINE
8
BLACK
6
CONTINUOUS
10
2.32525
20
-0.573292
11
2.32317
21
-0.570178
0
LINE
8
BLACK
6
CONTINUOUS
10
2.32317
20
-0.570178
11
2.32244
21
-0.566506
0
LINE
8
BLACK
6
CONTINUOUS
10
2.32244
20
-0.566506
11
2.32244
21
-0.547313
0
LINE
8
BLACK
6
CONTINUOUS
10
2.32244
20
-0.547313
11
2.32317
21
-0.543641
0
LINE
8
BLACK
6
CONTINUOUS
10
2.32317
20
-0.543641
11
2.32525
21
-0.540527
0
LINE
8
BLACK
6
CONTINUOUS
10
2.32525
20
-0.540527
11
2.32836
21
-0.538447
0
LINE
8
BLACK
6
CONTINUOUS
10
2.32836
20
-0.538447
11
2.33204
21
-0.537717
0
LINE
8
BLACK
6
CONTINUOUS
10
2.33204
20
-0.537717
11
2.36796
21
-0.537717
0
LINE
8
BLACK
6
CONTINUOUS
10
2.36796
20
-0.537717
11
2.37163
21
-0.538447
0
LINE
8
BLACK
6
CONTINUOUS
10
2.47164
20
-0.538447
11
2.47475
21
-0.540527
0
LINE
8
BLACK
6
CONTINUOUS
10
2.47475
20
-0.540527
11
2.47683
21
-0.543641
0
LINE
8
BLACK
6
CONTINUOUS
10
2.47683
20
-0.543641
11
2.47756
21
-0.547313
0
LINE
8
BLACK
6
CONTINUOUS
10
2.47756
20
-0.547313
11
2.47756
21
-0.566506
0
LINE
8
BLACK
6
CONTINUOUS
10
2.47756
20
-0.566506
11
2.47683
21
-0.570178
0
LINE
8
BLACK
6
CONTINUOUS
10
2.47683
20
-0.570178
11
2.47475
21
-0.573292
0
LINE
8
BLACK
6
CONTINUOUS
10
2.47475
20
-0.573292
11
2.47164
21
-0.575372
0
LINE
8
BLACK
6
CONTINUOUS
10
2.47164
20
-0.575372
11
2.46796
21
-0.576102
0
LINE
8
BLACK
6
CONTINUOUS
10
2.46796
20
-0.576102
11
2.43204
21
-0.576102
0
LINE
8
BLACK
6
CONTINUOUS
10
2.43204
20
-0.576102
11
2.42836
21
-0.575372
0
LINE
8
BLACK
6
CONTINUOUS
10
2.42836
20
-0.575372
11
2.42525
21
-0.573292
0
LINE
8
BLACK
6
CONTINUOUS
10
2.42525
20
-0.573292
11
2.42317
21
-0.570178
0
LINE
8
BLACK
6
CONTINUOUS
10
2.42317
20
-0.570178
11
2.42244
21
-0.566506
0
LINE
8
BLACK
6
CONTINUOUS
10
2.42244
20
-0.566506
11
2.42244
21
-0.547313
0
LINE
8
BLACK
6
CONTINUOUS
10
2.42244
20
-0.547313
11
2.42317
21
-0.543641
0
LINE
8
BLACK
6
CONTINUOUS
10
2.42317
20
-0.543641
11
2.42525
21
-0.540527
0
LINE
8
BLACK
6
CONTINUOUS
10
2.42525
20
-0.540527
11
2.42836
21
-0.538447
0
LINE
8
BLACK
6
CONTINUOUS
10
2.42836
20
-0.538447
11
2.43204
21
-0.537717
0
LINE
8
BLACK
6
CONTINUOUS
10
2.43204
20
-0.537717
11
2.46796
21
-0.537717
0
LINE
8
BLACK
6
CONTINUOUS
10
2.46796
20
-0.537717
11
2.47164
21
-0.538447
0
LINE
8
BLACK
6
CONTINUOUS
10
0.156359
20
-0.473171
11
0.159473
21
-0.475252
0
LINE
8
BLACK
6
CONTINUOUS
10
0.159473
20
-0.475252
11
0.161553
21
-0.478365
0
LINE
8
BLACK
6
CONTINUOUS
10
0.161553
20
-0.478365
11
0.162283
21
-0.482037
0
LINE
8
BLACK
6
CONTINUOUS
10
0.162283
20
-0.482037
11
0.162283
21
-0.517963
0
LINE
8
BLACK
6
CONTINUOUS
10
0.162283
20
-0.517963
11
0.161553
21
-0.521635
0
LINE
8
BLACK
6
CONTINUOUS
10
0.161553
20
-0.521635
11
0.159473
21
-0.524748
0
LINE
8
BLACK
6
CONTINUOUS
10
0.159473
20
-0.524748
11
0.156359
21
-0.526829
0
LINE
8
BLACK
6
CONTINUOUS
10
0.156359
20
-0.526829
11
0.152687
21
-0.527559
0
LINE
8
BLACK
6
CONTINUOUS
10
0.152687
20
-0.527559
11
0.133494
21
-0.527559
0
LINE
8
BLACK
6
CONTINUOUS
10
0.133494
20
-0.527559
11
0.129822
21
-0.526829
0
LINE
8
BLACK
6
CONTINUOUS
10
0.129822
20
-0.526829
11
0.126708
21
-0.524748
0
LINE
8
BLACK
6
CONTINUOUS
10
0.126708
20
-0.524748
11
0.124628
21
-0.521635
0
LINE
8
BLACK
6
CONTINUOUS
10
0.124628
20
-0.521635
11
0.123898
21
-0.517963
0
LINE
8
BLACK
6
CONTINUOUS
10
0.123898
20
-0.517963
11
0.123898
21
-0.482037
0
LINE
8
BLACK
6
CONTINUOUS
10
0.123898
20
-0.482037
11
0.124628
21
-0.478365
0
LINE
8
BLACK
6
CONTINUOUS
10
0.124628
20
-0.478365
11
0.126708
21
-0.475252
0
LINE
8
BLACK
6
CONTINUOUS
10
0.126708
20
-0.475252
11
0.129822
21
-0.473171
0
LINE
8
BLACK
6
CONTINUOUS
10
0.129822
20
-0.473171
11
0.133494
21
-0.472441
0
LINE
8
BLACK
6
CONTINUOUS
10
0.133494
20
-0.472441
11
0.152687
21
-0.472441
0
LINE
8
BLACK
6
CONTINUOUS
10
0.152687
20
-0.472441
11
0.156359
21
-0.473171
0
LINE
8
BLACK
6
CONTINUOUS
10
0.230178
20
-0.473171
11
0.233292
21
-0.475252
0
LINE
8
BLACK
6
CONTINUOUS
10
0.233292
20
-0.475252
11
0.235372
21
-0.478365
0
LINE
8
BLACK
6
CONTINUOUS
10
0.235372
20
-0.478365
11
0.236102
21
-0.482037
0
LINE
8
BLACK
6
CONTINUOUS
10
0.236102
20
-0.482037
11
0.236102
21
-0.517963
0
LINE
8
BLACK
6
CONTINUOUS
10
0.236102
20
-0.517963
11
0.235372
21
-0.521635
0
LINE
8
BLACK
6
CONTINUOUS
10
0.235372
20
-0.521635
11
0.233292
21
-0.524748
0
LINE
8
BLACK
6
CONTINUOUS
10
0.233292
20
-0.524748
11
0.230178
21
-0.526829
0
LINE
8
BLACK
6
CONTINUOUS
10
0.230178
20
-0.526829
11
0.226506
21
-0.527559
0
LINE
8
BLACK
6
CONTINUOUS
10
0.226506
20
-0.527559
11
0.207313
21
-0.527559
0
LINE
8
BLACK
6
CONTINUOUS
10
0.207313
20
-0.527559
11
0.203641
21
-0.526829
0
LINE
8
BLACK
6
CONTINUOUS
10
0.203641
20
-0.526829
11
0.200527
21
-0.524748
0
LINE
8
BLACK
6
CONTINUOUS
10
0.200527
20
-0.524748
11
0.198447
21
-0.521635
0
LINE
8
BLACK
6
CONTINUOUS
10
0.198447
20
-0.521635
11
0.197717
21
-0.517963
0
LINE
8
BLACK
6
CONTINUOUS
10
0.197717
20
-0.517963
11
0.197717
21
-0.482037
0
LINE
8
BLACK
6
CONTINUOUS
10
0.197717
20
-0.482037
11
0.198447
21
-0.478365
0
LINE
8
BLACK
6
CONTINUOUS
10
0.198447
20
-0.478365
11
0.200527
21
-0.475252
0
LINE
8
BLACK
6
CONTINUOUS
10
0.200527
20
-0.475252
11
0.203641
21
-0.473171
0
LINE
8
BLACK
6
CONTINUOUS
10
0.203641
20
-0.473171
11
0.207313
21
-0.472441
0
LINE
8
BLACK
6
CONTINUOUS
10
0.207313
20
-0.472441
11
0.226506
21
-0.472441
0
LINE
8
BLACK
6
CONTINUOUS
10
0.226506
20
-0.472441
11
0.230178
21
-0.473171
0
LINE
8
BLACK
6
CONTINUOUS
10
0.846359
20
-0.473171
11
0.849473
21
-0.475252
0
LINE
8
BLACK
6
CONTINUOUS
10
0.849473
20
-0.475252
11
0.851553
21
-0.478365
0
LINE
8
BLACK
6
CONTINUOUS
10
0.851553
20
-0.478365
11
0.852283
21
-0.482037
0
LINE
8
BLACK
6
CONTINUOUS
10
0.852283
20
-0.482037
11
0.852283
21
-0.517963
0
LINE
8
BLACK
6
CONTINUOUS
10
0.852283
20
-0.517963
11
0.851553
21
-0.521635
0
LINE
8
BLACK
6
CONTINUOUS
10
0.851553
20
-0.521635
11
0.849473
21
-0.524748
0
LINE
8
BLACK
6
CONTINUOUS
10
0.849473
20
-0.524748
11
0.846359
21
-0.526829
0
LINE
8
BLACK
6
CONTINUOUS
10
0.846359
20
-0.526829
11
0.842687
21
-0.527559
0
LINE
8
BLACK
6
CONTINUOUS
10
0.842687
20
-0.527559
11
0.823494
21
-0.527559
0
LINE
8
BLACK
6
CONTINUOUS
10
0.823494
20
-0.527559
11
0.819822
21
-0.526829
0
LINE
8
BLACK
6
CONTINUOUS
10
0.819822
20
-0.526829
11
0.816708
21
-0.524748
0
LINE
8
BLACK
6
CONTINUOUS
10
0.816708
20
-0.524748
11
0.814628
21
-0.521635
0
LINE
8
BLACK
6
CONTINUOUS
10
0.814628
20
-0.521635
11
0.813898
21
-0.517963
0
LINE
8
BLACK
6
CONTINUOUS
10
0.813898
20
-0.517963
11
0.813898
21
-0.482037
0
LINE
8
BLACK
6
CONTINUOUS
10
0.813898
20
-0.482037
11
0.814628
21
-0.478365
0
LINE
8
BLACK
6
CONTINUOUS
10
0.814628
20
-0.478365
11
0.816708
21
-0.475252
0
LINE
8
BLACK
6
CONTINUOUS
10
0.816708
20
-0.475252
11
0.819822
21
-0.473171
0
LINE
8
BLACK
6
CONTINUOUS
10
0.819822
20
-0.473171
11
0.823494
21
-0.472441
0
LINE
8
BLACK
6
CONTINUOUS
10
0.823494
20
-0.472441
11
0.842687
21
-0.472441
0
LINE
8
BLACK
6
CONTINUOUS
10
0.842687
20
-0.472441
11
0.846359
21
-0.473171
0
LINE
8
BLACK
6
CONTINUOUS
10
0.920178
20
-0.473171
11
0.923292
21
-0.475252
0
LINE
8
BLACK
6
CONTINUOUS
10
0.923292
20
-0.475252
11
0.925372
21
-0.478365
0
LINE
8
BLACK
6
CONTINUOUS
10
0.925372
20
-0.478365
11
0.926102
21
-0.482037
0
LINE
8
BLACK
6
CONTINUOUS
10
0.926102
20
-0.482037
11
0.926102
21
-0.517963
0
LINE
8
BLACK
6
CONTINUOUS
10
0.926102
20
-0.517963
11
0.925372
21
-0.521635
0
LINE
8
BLACK
6
CONTINUOUS
10
0.925372
20
-0.521635
11
0.923292
21
-0.524748
0
LINE
8
BLACK
6
CONTINUOUS
10
0.923292
20
-0.524748
11
0.920178
21
-0.526829
0
LINE
8
BLACK
6
CONTINUOUS
10
0.920178
20
-0.526829
11
0.916506
21
-0.527559
0
LINE
8
BLACK
6
CONTINUOUS
10
0.916506
20
-0.527559
11
0.897313
21
-0.527559
0
LINE
8
BLACK
6
CONTINUOUS
10
0.897313
20
-0.527559
11
0.893641
21
-0.526829
0
LINE
8
BLACK
6
CONTINUOUS
10
0.893641
20
-0.526829
11
0.890527
21
-0.524748
0
LINE
8
BLACK
6
CONTINUOUS
10
0.890527
20
-0.524748
11
0.888447
21
-0.521635
0
LINE
8
BLACK
6
CONTINUOUS
10
0.888447
20
-0.521635
11
0.887717
21
-0.517963
0
LINE
8
BLACK
6
CONTINUOUS
10
0.887717
20
-0.517963
11
0.887717
21
-0.482037
0
LINE
8
BLACK
6
CONTINUOUS
10
0.887717
20
-0.482037
11
0.888447
21
-0.478365
0
LINE
8
BLACK
6
CONTINUOUS
10
0.888447
20
-0.478365
11
0.890527
21
-0.475252
0
LINE
8
BLACK
6
CONTINUOUS
10
0.890527
20
-0.475252
11
0.893641
21
-0.473171
0
LINE
8
BLACK
6
CONTINUOUS
10
0.893641
20
-0.473171
11
0.897313
21
-0.472441
0
LINE
8
BLACK
6
CONTINUOUS
10
0.897313
20
-0.472441
11
0.916506
21
-0.472441
0
LINE
8
BLACK
6
CONTINUOUS
10
0.916506
20
-0.472441
11
0.920178
21
-0.473171
0
LINE
8
BLACK
6
CONTINUOUS
10
2.37163
20
-0.464628
11
2.37475
21
-0.466708
0
LINE
8
BLACK
6
CONTINUOUS
10
2.37475
20
-0.466708
11
2.37683
21
-0.469822
0
LINE
8
BLACK
6
CONTINUOUS
10
2.37683
20
-0.469822
11
2.37756
21
-0.473494
0
LINE
8
BLACK
6
CONTINUOUS
10
2.37756
20
-0.473494
11
2.37756
21
-0.492687
0
LINE
8
BLACK
6
CONTINUOUS
10
2.37756
20
-0.492687
11
2.37683
21
-0.496359
0
LINE
8
BLACK
6
CONTINUOUS
10
2.37683
20
-0.496359
11
2.37475
21
-0.499473
0
LINE
8
BLACK
6
CONTINUOUS
10
2.37475
20
-0.499473
11
2.37163
21
-0.501553
0
LINE
8
BLACK
6
CONTINUOUS
10
2.37163
20
-0.501553
11
2.36796
21
-0.502283
0
LINE
8
BLACK
6
CONTINUOUS
10
2.36796
20
-0.502283
11
2.33204
21
-0.502283
0
LINE
8
BLACK
6
CONTINUOUS
10
2.33204
20
-0.502283
11
2.32836
21
-0.501553
0
LINE
8
BLACK
6
CONTINUOUS
10
2.32836
20
-0.501553
11
2.32525
21
-0.499473
0
LINE
8
BLACK
6
CONTINUOUS
10
2.32525
20
-0.499473
11
2.32317
21
-0.496359
0
LINE
8
BLACK
6
CONTINUOUS
10
2.32317
20
-0.496359
11
2.32244
21
-0.492687
0
LINE
8
BLACK
6
CONTINUOUS
10
2.32244
20
-0.492687
11
2.32244
21
-0.473494
0
LINE
8
BLACK
6
CONTINUOUS
10
2.32244
20
-0.473494
11
2.32317
21
-0.469822
0
LINE
8
BLACK
6
CONTINUOUS
10
2.32317
20
-0.469822
11
2.32525
21
-0.466708
0
LINE
8
BLACK
6
CONTINUOUS
10
2.32525
20
-0.466708
11
2.32836
21
-0.464628
0
LINE
8
BLACK
6
CONTINUOUS
10
2.32836
20
-0.464628
11
2.33204
21
-0.463898
0
LINE
8
BLACK
6
CONTINUOUS
10
2.33204
20
-0.463898
11
2.36796
21
-0.463898
0
LINE
8
BLACK
6
CONTINUOUS
10
2.36796
20
-0.463898
11
2.37163
21
-0.464628
0
LINE
8
BLACK
6
CONTINUOUS
10
2.47164
20
-0.464628
11
2.47475
21
-0.466708
0
LINE
8
BLACK
6
CONTINUOUS
10
2.47475
20
-0.466708
11
2.47683
21
-0.469822
0
LINE
8
BLACK
6
CONTINUOUS
10
2.47683
20
-0.469822
11
2.47756
21
-0.473494
0
LINE
8
BLACK
6
CONTINUOUS
10
2.47756
20
-0.473494
11
2.47756
21
-0.492687
0
LINE
8
BLACK
6
CONTINUOUS
10
2.47756
20
-0.492687
11
2.47683
21
-0.496359
0
LINE
8
BLACK
6
CONTINUOUS
10
2.47683
20
-0.496359
11
2.47475
21
-0.499473
0
LINE
8
BLACK
6
CONTINUOUS
10
2.47475
20
-0.499473
11
2.47164
21
-0.501553
0
LINE
8
BLACK
6
CONTINUOUS
10
2.47164
20
-0.501553
11
2.46796
21
-0.502283
0
LINE
8
BLACK
6
CONTINUOUS
10
2.46796
20
-0.502283
11
2.43204
21
-0.502283
0
LINE
8
BLACK
6
CONTINUOUS
10
2.43204
20
-0.502283
11
2.42836
21
-0.501553
0
LINE
8
BLACK
6
CONTINUOUS
10
2.42836
20
-0.501553
11
2.42525
21
-0.499473
0
LINE
8
BLACK
6
CONTINUOUS
10
2.42525
20
-0.499473
11
2.42317
21
-0.496359
0
LINE
8
BLACK
6
CONTINUOUS
10
2.42317
20
-0.496359
11
2.42244
21
-0.492687
0
LINE
8
BLACK
6
CONTINUOUS
10
2.42244
20
-0.492687
11
2.42244
21
-0.473494
0
LINE
8
BLACK
6
CONTINUOUS
10
2.42244
20
-0.473494
11
2.42317
21
-0.469822
0
LINE
8
BLACK
6
CONTINUOUS
10
2.42317
20
-0.469822
11
2.42525
21
-0.466708
0
LINE
8
BLACK
6
CONTINUOUS
10
2.42525
20
-0.466708
11
2.42836
21
-0.464628
0
LINE
8
BLACK
6
CONTINUOUS
10
2.42836
20
-0.464628
11
2.43204
21
-0.463898
0
LINE
8
BLACK
6
CONTINUOUS
10
2.43204
20
-0.463898
11
2.46796
21
-0.463898
0
LINE
8
BLACK
6
CONTINUOUS
10
2.46796
20
-0.463898
11
2.47164
21
-0.464628
0
LINE
8
BLACK
6
CONTINUOUS
10
1.04094
20
-0.465276
11
0.985827
21
-0.465276
0
LINE
8
BLACK
6
CONTINUOUS
10
0.985827
20
-0.465276
11
0.985827
21
-0.453465
0
LINE
8
BLACK
6
CONTINUOUS
10
0.985827
20
-0.453465
11
1.04094
21
-0.453465
0
LINE
8
BLACK
6
CONTINUOUS
10
1.04094
20
-0.453465
11
1.04094
21
-0.465276
0
LINE
8
BLACK
6
CONTINUOUS
10
1.21417
20
-0.465276
11
1.15906
21
-0.465276
0
LINE
8
BLACK
6
CONTINUOUS
10
1.15906
20
-0.465276
11
1.15906
21
-0.453465
0
LINE
8
BLACK
6
CONTINUOUS
10
1.15906
20
-0.453465
11
1.21417
21
-0.453465
0
LINE
8
BLACK
6
CONTINUOUS
10
1.21417
20
-0.453465
11
1.21417
21
-0.465276
0
LINE
8
BLACK
6
CONTINUOUS
10
0.154391
20
-0.393475
11
0.157505
21
-0.395555
0
LINE
8
BLACK
6
CONTINUOUS
10
0.157505
20
-0.395555
11
0.159585
21
-0.398668
0
LINE
8
BLACK
6
CONTINUOUS
10
0.159585
20
-0.398668
11
0.160315
21
-0.402341
0
LINE
8
BLACK
6
CONTINUOUS
10
0.160315
20
-0.402341
11
0.160315
21
-0.438266
0
LINE
8
BLACK
6
CONTINUOUS
10
0.160315
20
-0.438266
11
0.159585
21
-0.441938
0
LINE
8
BLACK
6
CONTINUOUS
10
0.159585
20
-0.441938
11
0.157505
21
-0.445052
0
LINE
8
BLACK
6
CONTINUOUS
10
0.157505
20
-0.445052
11
0.154391
21
-0.447132
0
LINE
8
BLACK
6
CONTINUOUS
10
0.154391
20
-0.447132
11
0.150719
21
-0.447863
0
LINE
8
BLACK
6
CONTINUOUS
10
0.150719
20
-0.447863
11
0.131526
21
-0.447863
0
LINE
8
BLACK
6
CONTINUOUS
10
0.131526
20
-0.447863
11
0.127854
21
-0.447132
0
LINE
8
BLACK
6
CONTINUOUS
10
0.127854
20
-0.447132
11
0.12474
21
-0.445052
0
LINE
8
BLACK
6
CONTINUOUS
10
0.12474
20
-0.445052
11
0.12266
21
-0.441938
0
LINE
8
BLACK
6
CONTINUOUS
10
0.12266
20
-0.441938
11
0.12193
21
-0.438266
0
LINE
8
BLACK
6
CONTINUOUS
10
0.12193
20
-0.438266
11
0.12193
21
-0.402341
0
LINE
8
BLACK
6
CONTINUOUS
10
0.12193
20
-0.402341
11
0.12266
21
-0.398668
0
LINE
8
BLACK
6
CONTINUOUS
10
0.12266
20
-0.398668
11
0.12474
21
-0.395555
0
LINE
8
BLACK
6
CONTINUOUS
10
0.12474
20
-0.395555
11
0.127854
21
-0.393475
0
LINE
8
BLACK
6
CONTINUOUS
10
0.127854
20
-0.393475
11
0.131526
21
-0.392744
0
LINE
8
BLACK
6
CONTINUOUS
10
0.131526
20
-0.392744
11
0.150719
21
-0.392744
0
LINE
8
BLACK
6
CONTINUOUS
10
0.150719
20
-0.392744
11
0.154391
21
-0.393475
0
LINE
8
BLACK
6
CONTINUOUS
10
0.22821
20
-0.393475
11
0.231324
21
-0.395555
0
LINE
8
BLACK
6
CONTINUOUS
10
0.231324
20
-0.395555
11
0.233404
21
-0.398668
0
LINE
8
BLACK
6
CONTINUOUS
10
0.233404
20
-0.398668
11
0.234134
21
-0.402341
0
LINE
8
BLACK
6
CONTINUOUS
10
0.234134
20
-0.402341
11
0.234134
21
-0.438266
0
LINE
8
BLACK
6
CONTINUOUS
10
0.234134
20
-0.438266
11
0.233404
21
-0.441938
0
LINE
8
BLACK
6
CONTINUOUS
10
0.233404
20
-0.441938
11
0.231324
21
-0.445052
0
LINE
8
BLACK
6
CONTINUOUS
10
0.231324
20
-0.445052
11
0.22821
21
-0.447132
0
LINE
8
BLACK
6
CONTINUOUS
10
0.22821
20
-0.447132
11
0.224538
21
-0.447863
0
LINE
8
BLACK
6
CONTINUOUS
10
0.224538
20
-0.447863
11
0.205345
21
-0.447863
0
LINE
8
BLACK
6
CONTINUOUS
10
0.205345
20
-0.447863
11
0.201672
21
-0.447132
0
LINE
8
BLACK
6
CONTINUOUS
10
0.201672
20
-0.447132
11
0.198559
21
-0.445052
0
LINE
8
BLACK
6
CONTINUOUS
10
0.198559
20
-0.445052
11
0.196479
21
-0.441938
0
LINE
8
BLACK
6
CONTINUOUS
10
0.196479
20
-0.441938
11
0.195748
21
-0.438266
0
LINE
8
BLACK
6
CONTINUOUS
10
0.195748
20
-0.438266
11
0.195748
21
-0.402341
0
LINE
8
BLACK
6
CONTINUOUS
10
0.195748
20
-0.402341
11
0.196479
21
-0.398668
0
LINE
8
BLACK
6
CONTINUOUS
10
0.196479
20
-0.398668
11
0.198559
21
-0.395555
0
LINE
8
BLACK
6
CONTINUOUS
10
0.198559
20
-0.395555
11
0.201672
21
-0.393475
0
LINE
8
BLACK
6
CONTINUOUS
10
0.201672
20
-0.393475
11
0.205345
21
-0.392744
0
LINE
8
BLACK
6
CONTINUOUS
10
0.205345
20
-0.392744
11
0.224538
21
-0.392744
0
LINE
8
BLACK
6
CONTINUOUS
10
0.224538
20
-0.392744
11
0.22821
21
-0.393475
0
LINE
8
BLACK
6
CONTINUOUS
10
0.871635
20
-0.408447
11
0.874748
21
-0.410527
0
LINE
8
BLACK
6
CONTINUOUS
10
0.874748
20
-0.410527
11
0.876829
21
-0.413641
0
LINE
8
BLACK
6
CONTINUOUS
10
0.876829
20
-0.413641
11
0.877559
21
-0.417313
0
LINE
8
BLACK
6
CONTINUOUS
10
0.877559
20
-0.417313
11
0.877559
21
-0.436506
0
LINE
8
BLACK
6
CONTINUOUS
10
0.877559
20
-0.436506
11
0.876829
21
-0.440178
0
LINE
8
BLACK
6
CONTINUOUS
10
0.876829
20
-0.440178
11
0.874748
21
-0.443292
0
LINE
8
BLACK
6
CONTINUOUS
10
0.874748
20
-0.443292
11
0.871635
21
-0.445372
0
LINE
8
BLACK
6
CONTINUOUS
10
0.871635
20
-0.445372
11
0.867963
21
-0.446102
0
LINE
8
BLACK
6
CONTINUOUS
10
0.867963
20
-0.446102
11
0.832037
21
-0.446102
0
LINE
8
BLACK
6
CONTINUOUS
10
0.832037
20
-0.446102
11
0.828365
21
-0.445372
0
LINE
8
BLACK
6
CONTINUOUS
10
0.828365
20
-0.445372
11
0.825252
21
-0.443292
0
LINE
8
BLACK
6
CONTINUOUS
10
0.825252
20
-0.443292
11
0.823171
21
-0.440178
0
LINE
8
BLACK
6
CONTINUOUS
10
0.823171
20
-0.440178
11
0.822441
21
-0.436506
0
LINE
8
BLACK
6
CONTINUOUS
10
0.822441
20
-0.436506
11
0.822441
21
-0.417313
0
LINE
8
BLACK
6
CONTINUOUS
10
0.822441
20
-0.417313
11
0.823171
21
-0.413641
0
LINE
8
BLACK
6
CONTINUOUS
10
0.823171
20
-0.413641
11
0.825252
21
-0.410527
0
LINE
8
BLACK
6
CONTINUOUS
10
0.825252
20
-0.410527
11
0.828365
21
-0.408447
0
LINE
8
BLACK
6
CONTINUOUS
10
0.828365
20
-0.408447
11
0.832037
21
-0.407717
0
LINE
8
BLACK
6
CONTINUOUS
10
0.832037
20
-0.407717
11
0.867963
21
-0.407717
0
LINE
8
BLACK
6
CONTINUOUS
10
0.867963
20
-0.407717
11
0.871635
21
-0.408447
0
LINE
8
BLACK
6
CONTINUOUS
10
0.951635
20
-0.408447
11
0.954748
21
-0.410527
0
LINE
8
BLACK
6
CONTINUOUS
10
0.954748
20
-0.410527
11
0.956829
21
-0.413641
0
LINE
8
BLACK
6
CONTINUOUS
10
0.956829
20
-0.413641
11
0.957559
21
-0.417313
0
LINE
8
BLACK
6
CONTINUOUS
10
0.957559
20
-0.417313
11
0.957559
21
-0.436506
0
LINE
8
BLACK
6
CONTINUOUS
10
0.957559
20
-0.436506
11
0.956829
21
-0.440178
0
LINE
8
BLACK
6
CONTINUOUS
10
0.956829
20
-0.440178
11
0.954748
21
-0.443292
0
LINE
8
BLACK
6
CONTINUOUS
10
0.954748
20
-0.443292
11
0.951635
21
-0.445372
0
LINE
8
BLACK
6
CONTINUOUS
10
0.951635
20
-0.445372
11
0.947963
21
-0.446102
0
LINE
8
BLACK
6
CONTINUOUS
10
0.947963
20
-0.446102
11
0.912037
21
-0.446102
0
LINE
8
BLACK
6
CONTINUOUS
10
0.912037
20
-0.446102
11
0.908365
21
-0.445372
0
LINE
8
BLACK
6
CONTINUOUS
10
0.908365
20
-0.445372
11
0.905252
21
-0.443292
0
LINE
8
BLACK
6
CONTINUOUS
10
0.905252
20
-0.443292
11
0.903171
21
-0.440178
0
LINE
8
BLACK
6
CONTINUOUS
10
0.903171
20
-0.440178
11
0.902441
21
-0.436506
0
LINE
8
BLACK
6
CONTINUOUS
10
0.902441
20
-0.436506
11
0.902441
21
-0.417313
0
LINE
8
BLACK
6
CONTINUOUS
10
0.902441
20
-0.417313
11
0.903171
21
-0.413641
0
LINE
8
BLACK
6
CONTINUOUS
10
0.903171
20
-0.413641
11
0.905252
21
-0.410527
0
LINE
8
BLACK
6
CONTINUOUS
10
0.905252
20
-0.410527
11
0.908365
21
-0.408447
0
LINE
8
BLACK
6
CONTINUOUS
10
0.908365
20
-0.408447
11
0.912037
21
-0.407717
0
LINE
8
BLACK
6
CONTINUOUS
10
0.912037
20
-0.407717
11
0.947963
21
-0.407717
0
LINE
8
BLACK
6
CONTINUOUS
10
0.947963
20
-0.407717
11
0.951635
21
-0.408447
0
LINE
8
BLACK
6
CONTINUOUS
10
1.04094
20
-0.445591
11
0.985827
21
-0.445591
0
LINE
8
BLACK
6
CONTINUOUS
10
0.985827
20
-0.445591
11
0.985827
21
-0.43378
0
LINE
8
BLACK
6
CONTINUOUS
10
0.985827
20
-0.43378
11
1.04094
21
-0.43378
0
LINE
8
BLACK
6
CONTINUOUS
10
1.04094
20
-0.43378
11
1.04094
21
-0.445591
0
LINE
8
BLACK
6
CONTINUOUS
10
1.21417
20
-0.445591
11
1.15906
21
-0.445591
0
LINE
8
BLACK
6
CONTINUOUS
10
1.15906
20
-0.445591
11
1.15906
21
-0.43378
0
LINE
8
BLACK
6
CONTINUOUS
10
1.15906
20
-0.43378
11
1.21417
21
-0.43378
0
LINE
8
BLACK
6
CONTINUOUS
10
1.21417
20
-0.43378
11
1.21417
21
-0.445591
0
LINE
8
BLACK
6
CONTINUOUS
10
1.04094
20
-0.425906
11
0.985827
21
-0.425906
0
LINE
8
BLACK
6
CONTINUOUS
10
0.985827
20
-0.425906
11
0.985827
21
-0.414094
0
LINE
8
BLACK
6
CONTINUOUS
10
0.985827
20
-0.414094
11
1.04094
21
-0.414094
0
LINE
8
BLACK
6
CONTINUOUS
10
1.04094
20
-0.414094
11
1.04094
21
-0.425906
0
LINE
8
BLACK
6
CONTINUOUS
10
1.21417
20
-0.425906
11
1.15906
21
-0.425906
0
LINE
8
BLACK
6
CONTINUOUS
10
1.15906
20
-0.425906
11
1.15906
21
-0.414094
0
LINE
8
BLACK
6
CONTINUOUS
10
1.15906
20
-0.414094
11
1.21417
21
-0.414094
0
LINE
8
BLACK
6
CONTINUOUS
10
1.21417
20
-0.414094
11
1.21417
21
-0.425906
0
LINE
8
BLACK
6
CONTINUOUS
10
1.04094
20
-0.40622
11
0.985827
21
-0.40622
0
LINE
8
BLACK
6
CONTINUOUS
10
0.985827
20
-0.40622
11
0.985827
21
-0.394409
0
LINE
8
BLACK
6
CONTINUOUS
10
0.985827
20
-0.394409
11
1.04094
21
-0.394409
0
LINE
8
BLACK
6
CONTINUOUS
10
1.04094
20
-0.394409
11
1.04094
21
-0.40622
0
LINE
8
BLACK
6
CONTINUOUS
10
1.21417
20
-0.40622
11
1.15906
21
-0.40622
0
LINE
8
BLACK
6
CONTINUOUS
10
1.15906
20
-0.40622
11
1.15906
21
-0.394409
0
LINE
8
BLACK
6
CONTINUOUS
10
1.15906
20
-0.394409
11
1.21417
21
-0.394409
0
LINE
8
BLACK
6
CONTINUOUS
10
1.21417
20
-0.394409
11
1.21417
21
-0.40622
0
LINE
8
BLACK
6
CONTINUOUS
10
-0.0722835
20
-0.39
11
-0.107717
21
-0.39
0
LINE
8
BLACK
6
CONTINUOUS
10
-0.107717
20
-0.39
11
-0.107717
21
-0.35063
0
LINE
8
BLACK
6
CONTINUOUS
10
-0.107717
20
-0.35063
11
-0.0722835
21
-0.35063
0
LINE
8
BLACK
6
CONTINUOUS
10
-0.0722835
20
-0.35063
11
-0.0722835
21
-0.39
0
LINE
8
BLACK
6
CONTINUOUS
10
0.0277165
20
-0.39
11
-0.00771654
21
-0.39
0
LINE
8
BLACK
6
CONTINUOUS
10
-0.00771654
20
-0.39
11
-0.00771654
21
-0.35063
0
LINE
8
BLACK
6
CONTINUOUS
10
-0.00771654
20
-0.35063
11
0.0277165
21
-0.35063
0
LINE
8
BLACK
6
CONTINUOUS
10
0.0277165
20
-0.35063
11
0.0277165
21
-0.39
0
LINE
8
BLACK
6
CONTINUOUS
10
0.716359
20
-0.333171
11
0.719473
21
-0.335252
0
LINE
8
BLACK
6
CONTINUOUS
10
0.719473
20
-0.335252
11
0.721553
21
-0.338365
0
LINE
8
BLACK
6
CONTINUOUS
10
0.721553
20
-0.338365
11
0.722283
21
-0.342037
0
LINE
8
BLACK
6
CONTINUOUS
10
0.722283
20
-0.342037
11
0.722283
21
-0.377963
0
LINE
8
BLACK
6
CONTINUOUS
10
0.722283
20
-0.377963
11
0.721553
21
-0.381635
0
LINE
8
BLACK
6
CONTINUOUS
10
0.721553
20
-0.381635
11
0.719473
21
-0.384748
0
LINE
8
BLACK
6
CONTINUOUS
10
0.719473
20
-0.384748
11
0.716359
21
-0.386829
0
LINE
8
BLACK
6
CONTINUOUS
10
0.716359
20
-0.386829
11
0.712687
21
-0.387559
0
LINE
8
BLACK
6
CONTINUOUS
10
0.712687
20
-0.387559
11
0.693494
21
-0.387559
0
LINE
8
BLACK
6
CONTINUOUS
10
0.693494
20
-0.387559
11
0.689822
21
-0.386829
0
LINE
8
BLACK
6
CONTINUOUS
10
0.689822
20
-0.386829
11
0.686708
21
-0.384748
0
LINE
8
BLACK
6
CONTINUOUS
10
0.686708
20
-0.384748
11
0.684628
21
-0.381635
0
LINE
8
BLACK
6
CONTINUOUS
10
0.684628
20
-0.381635
11
0.683898
21
-0.377963
0
LINE
8
BLACK
6
CONTINUOUS
10
0.683898
20
-0.377963
11
0.683898
21
-0.342037
0
LINE
8
BLACK
6
CONTINUOUS
10
0.683898
20
-0.342037
11
0.684628
21
-0.338365
0
LINE
8
BLACK
6
CONTINUOUS
10
0.684628
20
-0.338365
11
0.686708
21
-0.335252
0
LINE
8
BLACK
6
CONTINUOUS
10
0.686708
20
-0.335252
11
0.689822
21
-0.333171
0
LINE
8
BLACK
6
CONTINUOUS
10
0.689822
20
-0.333171
11
0.693494
21
-0.332441
0
LINE
8
BLACK
6
CONTINUOUS
10
0.693494
20
-0.332441
11
0.712687
21
-0.332441
0
LINE
8
BLACK
6
CONTINUOUS
10
0.712687
20
-0.332441
11
0.716359
21
-0.333171
0
LINE
8
BLACK
6
CONTINUOUS
10
0.790178
20
-0.333171
11
0.793292
21
-0.335252
0
LINE
8
BLACK
6
CONTINUOUS
10
0.793292
20
-0.335252
11
0.795372
21
-0.338365
0
LINE
8
BLACK
6
CONTINUOUS
10
0.795372
20
-0.338365
11
0.796102
21
-0.342037
0
LINE
8
BLACK
6
CONTINUOUS
10
0.796102
20
-0.342037
11
0.796102
21
-0.377963
0
LINE
8
BLACK
6
CONTINUOUS
10
0.796102
20
-0.377963
11
0.795372
21
-0.381635
0
LINE
8
BLACK
6
CONTINUOUS
10
0.795372
20
-0.381635
11
0.793292
21
-0.384748
0
LINE
8
BLACK
6
CONTINUOUS
10
0.793292
20
-0.384748
11
0.790178
21
-0.386829
0
LINE
8
BLACK
6
CONTINUOUS
10
0.790178
20
-0.386829
11
0.786506
21
-0.387559
0
LINE
8
BLACK
6
CONTINUOUS
10
0.786506
20
-0.387559
11
0.767313
21
-0.387559
0
LINE
8
BLACK
6
CONTINUOUS
10
0.767313
20
-0.387559
11
0.763641
21
-0.386829
0
LINE
8
BLACK
6
CONTINUOUS
10
0.763641
20
-0.386829
11
0.760527
21
-0.384748
0
LINE
8
BLACK
6
CONTINUOUS
10
0.760527
20
-0.384748
11
0.758447
21
-0.381635
0
LINE
8
BLACK
6
CONTINUOUS
10
0.758447
20
-0.381635
11
0.757717
21
-0.377963
0
LINE
8
BLACK
6
CONTINUOUS
10
0.757717
20
-0.377963
11
0.757717
21
-0.342037
0
LINE
8
BLACK
6
CONTINUOUS
10
0.757717
20
-0.342037
11
0.758447
21
-0.338365
0
LINE
8
BLACK
6
CONTINUOUS
10
0.758447
20
-0.338365
11
0.760527
21
-0.335252
0
LINE
8
BLACK
6
CONTINUOUS
10
0.760527
20
-0.335252
11
0.763641
21
-0.333171
0
LINE
8
BLACK
6
CONTINUOUS
10
0.763641
20
-0.333171
11
0.767313
21
-0.332441
0
LINE
8
BLACK
6
CONTINUOUS
10
0.767313
20
-0.332441
11
0.786506
21
-0.332441
0
LINE
8
BLACK
6
CONTINUOUS
10
0.786506
20
-0.332441
11
0.790178
21
-0.333171
0
LINE
8
BLACK
6
CONTINUOUS
10
1.41018
20
-0.335198
11
1.41338
21
-0.337332
0
LINE
8
BLACK
6
CONTINUOUS
10
1.41338
20
-0.337332
11
1.41551
21
-0.340525
0
LINE
8
BLACK
6
CONTINUOUS
10
1.41551
20
-0.340525
11
1.41626
21
-0.344291
0
LINE
8
BLACK
6
CONTINUOUS
10
1.41626
20
-0.344291
11
1.41626
21
-0.376772
0
LINE
8
BLACK
6
CONTINUOUS
10
1.41626
20
-0.376772
11
1.41551
21
-0.380538
0
LINE
8
BLACK
6
CONTINUOUS
10
1.41551
20
-0.380538
11
1.41338
21
-0.383731
0
LINE
8
BLACK
6
CONTINUOUS
10
1.41338
20
-0.383731
11
1.41018
21
-0.385865
0
LINE
8
BLACK
6
CONTINUOUS
10
1.41018
20
-0.385865
11
1.40642
21
-0.386614
0
LINE
8
BLACK
6
CONTINUOUS
10
1.40642
20
-0.386614
11
1.33358
21
-0.386614
0
LINE
8
BLACK
6
CONTINUOUS
10
1.33358
20
-0.386614
11
1.32982
21
-0.385865
0
LINE
8
BLACK
6
CONTINUOUS
10
1.32982
20
-0.385865
11
1.32662
21
-0.383731
0
LINE
8
BLACK
6
CONTINUOUS
10
1.32662
20
-0.383731
11
1.32449
21
-0.380538
0
LINE
8
BLACK
6
CONTINUOUS
10
1.32449
20
-0.380538
11
1.32374
21
-0.376772
0
LINE
8
BLACK
6
CONTINUOUS
10
1.32374
20
-0.376772
11
1.32374
21
-0.344291
0
LINE
8
BLACK
6
CONTINUOUS
10
1.32374
20
-0.344291
11
1.32449
21
-0.340525
0
LINE
8
BLACK
6
CONTINUOUS
10
1.32449
20
-0.340525
11
1.32662
21
-0.337332
0
LINE
8
BLACK
6
CONTINUOUS
10
1.32662
20
-0.337332
11
1.32982
21
-0.335198
0
LINE
8
BLACK
6
CONTINUOUS
10
1.32982
20
-0.335198
11
1.33358
21
-0.334449
0
LINE
8
BLACK
6
CONTINUOUS
10
1.33358
20
-0.334449
11
1.40642
21
-0.334449
0
LINE
8
BLACK
6
CONTINUOUS
10
1.40642
20
-0.334449
11
1.41018
21
-0.335198
0
LINE
8
BLACK
6
CONTINUOUS
10
1.04094
20
-0.386535
11
0.985827
21
-0.386535
0
LINE
8
BLACK
6
CONTINUOUS
10
0.985827
20
-0.386535
11
0.985827
21
-0.374724
0
LINE
8
BLACK
6
CONTINUOUS
10
0.985827
20
-0.374724
11
1.04094
21
-0.374724
0
LINE
8
BLACK
6
CONTINUOUS
10
1.04094
20
-0.374724
11
1.04094
21
-0.386535
0
LINE
8
BLACK
6
CONTINUOUS
10
1.21417
20
-0.386535
11
1.15906
21
-0.386535
0
LINE
8
BLACK
6
CONTINUOUS
10
1.15906
20
-0.386535
11
1.15906
21
-0.374724
0
LINE
8
BLACK
6
CONTINUOUS
10
1.15906
20
-0.374724
11
1.21417
21
-0.374724
0
LINE
8
BLACK
6
CONTINUOUS
10
1.21417
20
-0.374724
11
1.21417
21
-0.386535
0
LINE
8
BLACK
6
CONTINUOUS
10
1.29163
20
-0.338447
11
1.29475
21
-0.340527
0
LINE
8
BLACK
6
CONTINUOUS
10
1.29475
20
-0.340527
11
1.29683
21
-0.343641
0
LINE
8
BLACK
6
CONTINUOUS
10
1.29683
20
-0.343641
11
1.29756
21
-0.347313
0
LINE
8
BLACK
6
CONTINUOUS
10
1.29756
20
-0.347313
11
1.29756
21
-0.366506
0
LINE
8
BLACK
6
CONTINUOUS
10
1.29756
20
-0.366506
11
1.29683
21
-0.370178
0
LINE
8
BLACK
6
CONTINUOUS
10
1.29683
20
-0.370178
11
1.29475
21
-0.373292
0
LINE
8
BLACK
6
CONTINUOUS
10
1.29475
20
-0.373292
11
1.29163
21
-0.375372
0
LINE
8
BLACK
6
CONTINUOUS
10
1.29163
20
-0.375372
11
1.28796
21
-0.376102
0
LINE
8
BLACK
6
CONTINUOUS
10
1.28796
20
-0.376102
11
1.25204
21
-0.376102
0
LINE
8
BLACK
6
CONTINUOUS
10
1.25204
20
-0.376102
11
1.24836
21
-0.375372
0
LINE
8
BLACK
6
CONTINUOUS
10
1.24836
20
-0.375372
11
1.24525
21
-0.373292
0
LINE
8
BLACK
6
CONTINUOUS
10
1.24525
20
-0.373292
11
1.24317
21
-0.370178
0
LINE
8
BLACK
6
CONTINUOUS
10
1.24317
20
-0.370178
11
1.24244
21
-0.366506
0
LINE
8
BLACK
6
CONTINUOUS
10
1.24244
20
-0.366506
11
1.24244
21
-0.347313
0
LINE
8
BLACK
6
CONTINUOUS
10
1.24244
20
-0.347313
11
1.24317
21
-0.343641
0
LINE
8
BLACK
6
CONTINUOUS
10
1.24317
20
-0.343641
11
1.24525
21
-0.340527
0
LINE
8
BLACK
6
CONTINUOUS
10
1.24525
20
-0.340527
11
1.24836
21
-0.338447
0
LINE
8
BLACK
6
CONTINUOUS
10
1.24836
20
-0.338447
11
1.25204
21
-0.337717
0
LINE
8
BLACK
6
CONTINUOUS
10
1.25204
20
-0.337717
11
1.28796
21
-0.337717
0
LINE
8
BLACK
6
CONTINUOUS
10
1.28796
20
-0.337717
11
1.29163
21
-0.338447
0
LINE
8
BLACK
6
CONTINUOUS
10
0.871635
20
-0.334628
11
0.874748
21
-0.336708
0
LINE
8
BLACK
6
CONTINUOUS
10
0.874748
20
-0.336708
11
0.876829
21
-0.339822
0
LINE
8
BLACK
6
CONTINUOUS
10
0.876829
20
-0.339822
11
0.877559
21
-0.343494
0
LINE
8
BLACK
6
CONTINUOUS
10
0.877559
20
-0.343494
11
0.877559
21
-0.362687
0
LINE
8
BLACK
6
CONTINUOUS
10
0.877559
20
-0.362687
11
0.876829
21
-0.366359
0
LINE
8
BLACK
6
CONTINUOUS
10
0.876829
20
-0.366359
11
0.874748
21
-0.369473
0
LINE
8
BLACK
6
CONTINUOUS
10
0.874748
20
-0.369473
11
0.871635
21
-0.371553
0
LINE
8
BLACK
6
CONTINUOUS
10
0.871635
20
-0.371553
11
0.867963
21
-0.372283
0
LINE
8
BLACK
6
CONTINUOUS
10
0.867963
20
-0.372283
11
0.832037
21
-0.372283
0
LINE
8
BLACK
6
CONTINUOUS
10
0.832037
20
-0.372283
11
0.828365
21
-0.371553
0
LINE
8
BLACK
6
CONTINUOUS
10
0.828365
20
-0.371553
11
0.825252
21
-0.369473
0
LINE
8
BLACK
6
CONTINUOUS
10
0.825252
20
-0.369473
11
0.823171
21
-0.366359
0
LINE
8
BLACK
6
CONTINUOUS
10
0.823171
20
-0.366359
11
0.822441
21
-0.362687
0
LINE
8
BLACK
6
CONTINUOUS
10
0.822441
20
-0.362687
11
0.822441
21
-0.343494
0
LINE
8
BLACK
6
CONTINUOUS
10
0.822441
20
-0.343494
11
0.823171
21
-0.339822
0
LINE
8
BLACK
6
CONTINUOUS
10
0.823171
20
-0.339822
11
0.825252
21
-0.336708
0
LINE
8
BLACK
6
CONTINUOUS
10
0.825252
20
-0.336708
11
0.828365
21
-0.334628
0
LINE
8
BLACK
6
CONTINUOUS
10
0.828365
20
-0.334628
11
0.832037
21
-0.333898
0
LINE
8
BLACK
6
CONTINUOUS
10
0.832037
20
-0.333898
11
0.867963
21
-0.333898
0
LINE
8
BLACK
6
CONTINUOUS
10
0.867963
20
-0.333898
11
0.871635
21
-0.334628
0
LINE
8
BLACK
6
CONTINUOUS
10
0.951635
20
-0.334628
11
0.954748
21
-0.336708
0
LINE
8
BLACK
6
CONTINUOUS
10
0.954748
20
-0.336708
11
0.956829
21
-0.339822
0
LINE
8
BLACK
6
CONTINUOUS
10
0.956829
20
-0.339822
11
0.957559
21
-0.343494
0
LINE
8
BLACK
6
CONTINUOUS
10
0.957559
20
-0.343494
11
0.957559
21
-0.362687
0
LINE
8
BLACK
6
CONTINUOUS
10
0.957559
20
-0.362687
11
0.956829
21
-0.366359
0
LINE
8
BLACK
6
CONTINUOUS
10
0.956829
20
-0.366359
11
0.954748
21
-0.369473
0
LINE
8
BLACK
6
CONTINUOUS
10
0.954748
20
-0.369473
11
0.951635
21
-0.371553
0
LINE
8
BLACK
6
CONTINUOUS
10
0.951635
20
-0.371553
11
0.947963
21
-0.372283
0
LINE
8
BLACK
6
CONTINUOUS
10
0.947963
20
-0.372283
11
0.912037
21
-0.372283
0
LINE
8
BLACK
6
CONTINUOUS
10
0.912037
20
-0.372283
11
0.908365
21
-0.371553
0
LINE
8
BLACK
6
CONTINUOUS
10
0.908365
20
-0.371553
11
0.905252
21
-0.369473
0
LINE
8
BLACK
6
CONTINUOUS
10
0.905252
20
-0.369473
11
0.903171
21
-0.366359
0
LINE
8
BLACK
6
CONTINUOUS
10
0.903171
20
-0.366359
11
0.902441
21
-0.362687
0
LINE
8
BLACK
6
CONTINUOUS
10
0.902441
20
-0.362687
11
0.902441
21
-0.343494
0
LINE
8
BLACK
6
CONTINUOUS
10
0.902441
20
-0.343494
11
0.903171
21
-0.339822
0
LINE
8
BLACK
6
CONTINUOUS
10
0.903171
20
-0.339822
11
0.905252
21
-0.336708
0
LINE
8
BLACK
6
CONTINUOUS
10
0.905252
20
-0.336708
11
0.908365
21
-0.334628
0
LINE
8
BLACK
6
CONTINUOUS
10
0.908365
20
-0.334628
11
0.912037
21
-0.333898
0
LINE
8
BLACK
6
CONTINUOUS
10
0.912037
20
-0.333898
11
0.947963
21
-0.333898
0
LINE
8
BLACK
6
CONTINUOUS
10
0.947963
20
-0.333898
11
0.951635
21
-0.334628
0
LINE
8
BLACK
6
CONTINUOUS
10
-0.068365
20
-0.288447
11
-0.0652517
21
-0.290527
0
LINE
8
BLACK
6
CONTINUOUS
10
-0.0652517
20
-0.290527
11
-0.0631714
21
-0.293641
0
LINE
8
BLACK
6
CONTINUOUS
10
-0.0631714
20
-0.293641
11
-0.0624409
21
-0.297313
0
LINE
8
BLACK
6
CONTINUOUS
10
-0.0624409
20
-0.297313
11
-0.0624409
21
-0.316506
0
LINE
8
BLACK
6
CONTINUOUS
10
-0.0624409
20
-0.316506
11
-0.0631714
21
-0.320178
0
LINE
8
BLACK
6
CONTINUOUS
10
-0.0631714
20
-0.320178
11
-0.0652517
21
-0.323292
0
LINE
8
BLACK
6
CONTINUOUS
10
-0.0652517
20
-0.323292
11
-0.068365
21
-0.325372
0
LINE
8
BLACK
6
CONTINUOUS
10
-0.068365
20
-0.325372
11
-0.0720374
21
-0.326102
0
LINE
8
BLACK
6
CONTINUOUS
10
-0.0720374
20
-0.326102
11
-0.107963
21
-0.326102
0
LINE
8
BLACK
6
CONTINUOUS
10
-0.107963
20
-0.326102
11
-0.111635
21
-0.325372
0
LINE
8
BLACK
6
CONTINUOUS
10
-0.111635
20
-0.325372
11
-0.114748
21
-0.323292
0
LINE
8
BLACK
6
CONTINUOUS
10
-0.114748
20
-0.323292
11
-0.116829
21
-0.320178
0
LINE
8
BLACK
6
CONTINUOUS
10
-0.116829
20
-0.320178
11
-0.117559
21
-0.316506
0
LINE
8
BLACK
6
CONTINUOUS
10
-0.117559
20
-0.316506
11
-0.117559
21
-0.297313
0
LINE
8
BLACK
6
CONTINUOUS
10
-0.117559
20
-0.297313
11
-0.116829
21
-0.293641
0
LINE
8
BLACK
6
CONTINUOUS
10
-0.116829
20
-0.293641
11
-0.114748
21
-0.290527
0
LINE
8
BLACK
6
CONTINUOUS
10
-0.114748
20
-0.290527
11
-0.111635
21
-0.288447
0
LINE
8
BLACK
6
CONTINUOUS
10
-0.111635
20
-0.288447
11
-0.107963
21
-0.287717
0
LINE
8
BLACK
6
CONTINUOUS
10
-0.107963
20
-0.287717
11
-0.0720374
21
-0.287717
0
LINE
8
BLACK
6
CONTINUOUS
10
-0.0720374
20
-0.287717
11
-0.068365
21
-0.288447
0
LINE
8
BLACK
6
CONTINUOUS
10
0.276996
20
-0.315571
11
0.214004
21
-0.315571
0
LINE
8
BLACK
6
CONTINUOUS
10
0.214004
20
-0.315571
11
0.214004
21
-0.299429
0
LINE
8
BLACK
6
CONTINUOUS
10
0.214004
20
-0.299429
11
0.276996
21
-0.299429
0
LINE
8
BLACK
6
CONTINUOUS
10
0.276996
20
-0.299429
11
0.276996
21
-0.315571
0
LINE
8
BLACK
6
CONTINUOUS
10
0.485996
20
-0.315571
11
0.423004
21
-0.315571
0
LINE
8
BLACK
6
CONTINUOUS
10
0.423004
20
-0.315571
11
0.423004
21
-0.299429
0
LINE
8
BLACK
6
CONTINUOUS
10
0.423004
20
-0.299429
11
0.485996
21
-0.299429
0
LINE
8
BLACK
6
CONTINUOUS
10
0.485996
20
-0.299429
11
0.485996
21
-0.315571
0
LINE
8
BLACK
6
CONTINUOUS
10
0.0237795
20
-0.30937
11
-0.00377953
21
-0.30937
0
LINE
8
BLACK
6
CONTINUOUS
10
-0.00377953
20
-0.30937
11
-0.00377953
21
-0.285748
0
LINE
8
BLACK
6
CONTINUOUS
10
-0.00377953
20
-0.285748
11
0.0237795
21
-0.285748
0
LINE
8
BLACK
6
CONTINUOUS
10
0.0237795
20
-0.285748
11
0.0237795
21
-0.30937
0
LINE
8
BLACK
6
CONTINUOUS
10
1.29163
20
-0.264628
11
1.29475
21
-0.266708
0
LINE
8
BLACK
6
CONTINUOUS
10
1.29475
20
-0.266708
11
1.29683
21
-0.269822
0
LINE
8
BLACK
6
CONTINUOUS
10
1.29683
20
-0.269822
11
1.29756
21
-0.273494
0
LINE
8
BLACK
6
CONTINUOUS
10
1.29756
20
-0.273494
11
1.29756
21
-0.292687
0
LINE
8
BLACK
6
CONTINUOUS
10
1.29756
20
-0.292687
11
1.29683
21
-0.296359
0
LINE
8
BLACK
6
CONTINUOUS
10
1.29683
20
-0.296359
11
1.29475
21
-0.299473
0
LINE
8
BLACK
6
CONTINUOUS
10
1.29475
20
-0.299473
11
1.29163
21
-0.301553
0
LINE
8
BLACK
6
CONTINUOUS
10
1.29163
20
-0.301553
11
1.28796
21
-0.302283
0
LINE
8
BLACK
6
CONTINUOUS
10
1.28796
20
-0.302283
11
1.25204
21
-0.302283
0
LINE
8
BLACK
6
CONTINUOUS
10
1.25204
20
-0.302283
11
1.24836
21
-0.301553
0
LINE
8
BLACK
6
CONTINUOUS
10
1.24836
20
-0.301553
11
1.24525
21
-0.299473
0
LINE
8
BLACK
6
CONTINUOUS
10
1.24525
20
-0.299473
11
1.24317
21
-0.296359
0
LINE
8
BLACK
6
CONTINUOUS
10
1.24317
20
-0.296359
11
1.24244
21
-0.292687
0
LINE
8
BLACK
6
CONTINUOUS
10
1.24244
20
-0.292687
11
1.24244
21
-0.273494
0
LINE
8
BLACK
6
CONTINUOUS
10
1.24244
20
-0.273494
11
1.24317
21
-0.269822
0
LINE
8
BLACK
6
CONTINUOUS
10
1.24317
20
-0.269822
11
1.24525
21
-0.266708
0
LINE
8
BLACK
6
CONTINUOUS
10
1.24525
20
-0.266708
11
1.24836
21
-0.264628
0
LINE
8
BLACK
6
CONTINUOUS
10
1.24836
20
-0.264628
11
1.25204
21
-0.263898
0
LINE
8
BLACK
6
CONTINUOUS
10
1.25204
20
-0.263898
11
1.28796
21
-0.263898
0
LINE
8
BLACK
6
CONTINUOUS
10
1.28796
20
-0.263898
11
1.29163
21
-0.264628
0
LINE
8
BLACK
6
CONTINUOUS
10
0.276996
20
-0.290571
11
0.214004
21
-0.290571
0
LINE
8
BLACK
6
CONTINUOUS
10
0.214004
20
-0.290571
11
0.214004
21
-0.274429
0
LINE
8
BLACK
6
CONTINUOUS
10
0.214004
20
-0.274429
11
0.276996
21
-0.274429
0
LINE
8
BLACK
6
CONTINUOUS
10
0.276996
20
-0.274429
11
0.276996
21
-0.290571
0
LINE
8
BLACK
6
CONTINUOUS
10
0.485996
20
-0.290571
11
0.423004
21
-0.290571
0
LINE
8
BLACK
6
CONTINUOUS
10
0.423004
20
-0.290571
11
0.423004
21
-0.274429
0
LINE
8
BLACK
6
CONTINUOUS
10
0.423004
20
-0.274429
11
0.485996
21
-0.274429
0
LINE
8
BLACK
6
CONTINUOUS
10
0.485996
20
-0.274429
11
0.485996
21
-0.290571
0
LINE
8
BLACK
6
CONTINUOUS
10
0.586359
20
-0.233171
11
0.589473
21
-0.235252
0
LINE
8
BLACK
6
CONTINUOUS
10
0.589473
20
-0.235252
11
0.591553
21
-0.238365
0
LINE
8
BLACK
6
CONTINUOUS
10
0.591553
20
-0.238365
11
0.592283
21
-0.242037
0
LINE
8
BLACK
6
CONTINUOUS
10
0.592283
20
-0.242037
11
0.592283
21
-0.277963
0
LINE
8
BLACK
6
CONTINUOUS
10
0.592283
20
-0.277963
11
0.591553
21
-0.281635
0
LINE
8
BLACK
6
CONTINUOUS
10
0.591553
20
-0.281635
11
0.589473
21
-0.284748
0
LINE
8
BLACK
6
CONTINUOUS
10
0.589473
20
-0.284748
11
0.586359
21
-0.286829
0
LINE
8
BLACK
6
CONTINUOUS
10
0.586359
20
-0.286829
11
0.582687
21
-0.287559
0
LINE
8
BLACK
6
CONTINUOUS
10
0.582687
20
-0.287559
11
0.563494
21
-0.287559
0
LINE
8
BLACK
6
CONTINUOUS
10
0.563494
20
-0.287559
11
0.559822
21
-0.286829
0
LINE
8
BLACK
6
CONTINUOUS
10
0.559822
20
-0.286829
11
0.556708
21
-0.284748
0
LINE
8
BLACK
6
CONTINUOUS
10
0.556708
20
-0.284748
11
0.554628
21
-0.281635
0
LINE
8
BLACK
6
CONTINUOUS
10
0.554628
20
-0.281635
11
0.553898
21
-0.277963
0
LINE
8
BLACK
6
CONTINUOUS
10
0.553898
20
-0.277963
11
0.553898
21
-0.242037
0
LINE
8
BLACK
6
CONTINUOUS
10
0.553898
20
-0.242037
11
0.554628
21
-0.238365
0
LINE
8
BLACK
6
CONTINUOUS
10
0.554628
20
-0.238365
11
0.556708
21
-0.235252
0
LINE
8
BLACK
6
CONTINUOUS
10
0.556708
20
-0.235252
11
0.559822
21
-0.233171
0
LINE
8
BLACK
6
CONTINUOUS
10
0.559822
20
-0.233171
11
0.563494
21
-0.232441
0
LINE
8
BLACK
6
CONTINUOUS
10
0.563494
20
-0.232441
11
0.582687
21
-0.232441
0
LINE
8
BLACK
6
CONTINUOUS
10
0.582687
20
-0.232441
11
0.586359
21
-0.233171
0
LINE
8
BLACK
6
CONTINUOUS
10
0.660178
20
-0.233171
11
0.663292
21
-0.235252
0
LINE
8
BLACK
6
CONTINUOUS
10
0.663292
20
-0.235252
11
0.665372
21
-0.238365
0
LINE
8
BLACK
6
CONTINUOUS
10
0.665372
20
-0.238365
11
0.666102
21
-0.242037
0
LINE
8
BLACK
6
CONTINUOUS
10
0.666102
20
-0.242037
11
0.666102
21
-0.277963
0
LINE
8
BLACK
6
CONTINUOUS
10
0.666102
20
-0.277963
11
0.665372
21
-0.281635
0
LINE
8
BLACK
6
CONTINUOUS
10
0.665372
20
-0.281635
11
0.663292
21
-0.284748
0
LINE
8
BLACK
6
CONTINUOUS
10
0.663292
20
-0.284748
11
0.660178
21
-0.286829
0
LINE
8
BLACK
6
CONTINUOUS
10
0.660178
20
-0.286829
11
0.656506
21
-0.287559
0
LINE
8
BLACK
6
CONTINUOUS
10
0.656506
20
-0.287559
11
0.637313
21
-0.287559
0
LINE
8
BLACK
6
CONTINUOUS
10
0.637313
20
-0.287559
11
0.633641
21
-0.286829
0
LINE
8
BLACK
6
CONTINUOUS
10
0.633641
20
-0.286829
11
0.630527
21
-0.284748
0
LINE
8
BLACK
6
CONTINUOUS
10
0.630527
20
-0.284748
11
0.628447
21
-0.281635
0
LINE
8
BLACK
6
CONTINUOUS
10
0.628447
20
-0.281635
11
0.627717
21
-0.277963
0
LINE
8
BLACK
6
CONTINUOUS
10
0.627717
20
-0.277963
11
0.627717
21
-0.242037
0
LINE
8
BLACK
6
CONTINUOUS
10
0.627717
20
-0.242037
11
0.628447
21
-0.238365
0
LINE
8
BLACK
6
CONTINUOUS
10
0.628447
20
-0.238365
11
0.630527
21
-0.235252
0
LINE
8
BLACK
6
CONTINUOUS
10
0.630527
20
-0.235252
11
0.633641
21
-0.233171
0
LINE
8
BLACK
6
CONTINUOUS
10
0.633641
20
-0.233171
11
0.637313
21
-0.232441
0
LINE
8
BLACK
6
CONTINUOUS
10
0.637313
20
-0.232441
11
0.656506
21
-0.232441
0
LINE
8
BLACK
6
CONTINUOUS
10
0.656506
20
-0.232441
11
0.660178
21
-0.233171
0
LINE
8
BLACK
6
CONTINUOUS
10
0.161635
20
-0.228447
11
0.164748
21
-0.230527
0
LINE
8
BLACK
6
CONTINUOUS
10
0.164748
20
-0.230527
11
0.166829
21
-0.233641
0
LINE
8
BLACK
6
CONTINUOUS
10
0.166829
20
-0.233641
11
0.167559
21
-0.237313
0
LINE
8
BLACK
6
CONTINUOUS
10
0.167559
20
-0.237313
11
0.167559
21
-0.256506
0
LINE
8
BLACK
6
CONTINUOUS
10
0.167559
20
-0.256506
11
0.166829
21
-0.260178
0
LINE
8
BLACK
6
CONTINUOUS
10
0.166829
20
-0.260178
11
0.164748
21
-0.263292
0
LINE
8
BLACK
6
CONTINUOUS
10
0.164748
20
-0.263292
11
0.161635
21
-0.265372
0
LINE
8
BLACK
6
CONTINUOUS
10
0.161635
20
-0.265372
11
0.157963
21
-0.266102
0
LINE
8
BLACK
6
CONTINUOUS
10
0.157963
20
-0.266102
11
0.122037
21
-0.266102
0
LINE
8
BLACK
6
CONTINUOUS
10
0.122037
20
-0.266102
11
0.118365
21
-0.265372
0
LINE
8
BLACK
6
CONTINUOUS
10
0.118365
20
-0.265372
11
0.115252
21
-0.263292
0
LINE
8
BLACK
6
CONTINUOUS
10
0.115252
20
-0.263292
11
0.113171
21
-0.260178
0
LINE
8
BLACK
6
CONTINUOUS
10
0.113171
20
-0.260178
11
0.112441
21
-0.256506
0
LINE
8
BLACK
6
CONTINUOUS
10
0.112441
20
-0.256506
11
0.112441
21
-0.237313
0
LINE
8
BLACK
6
CONTINUOUS
10
0.112441
20
-0.237313
11
0.113171
21
-0.233641
0
LINE
8
BLACK
6
CONTINUOUS
10
0.113171
20
-0.233641
11
0.115252
21
-0.230527
0
LINE
8
BLACK
6
CONTINUOUS
10
0.115252
20
-0.230527
11
0.118365
21
-0.228447
0
LINE
8
BLACK
6
CONTINUOUS
10
0.118365
20
-0.228447
11
0.122037
21
-0.227717
0
LINE
8
BLACK
6
CONTINUOUS
10
0.122037
20
-0.227717
11
0.157963
21
-0.227717
0
LINE
8
BLACK
6
CONTINUOUS
10
0.157963
20
-0.227717
11
0.161635
21
-0.228447
0
LINE
8
BLACK
6
CONTINUOUS
10
0.276996
20
-0.265571
11
0.214004
21
-0.265571
0
LINE
8
BLACK
6
CONTINUOUS
10
0.214004
20
-0.265571
11
0.214004
21
-0.249429
0
LINE
8
BLACK
6
CONTINUOUS
10
0.214004
20
-0.249429
11
0.276996
21
-0.249429
0
LINE
8
BLACK
6
CONTINUOUS
10
0.276996
20
-0.249429
11
0.276996
21
-0.265571
0
LINE
8
BLACK
6
CONTINUOUS
10
0.485996
20
-0.265571
11
0.423004
21
-0.265571
0
LINE
8
BLACK
6
CONTINUOUS
10
0.423004
20
-0.265571
11
0.423004
21
-0.249429
0
LINE
8
BLACK
6
CONTINUOUS
10
0.423004
20
-0.249429
11
0.485996
21
-0.249429
0
LINE
8
BLACK
6
CONTINUOUS
10
0.485996
20
-0.249429
11
0.485996
21
-0.265571
0
LINE
8
BLACK
6
CONTINUOUS
10
1.41018
20
-0.214135
11
1.41338
21
-0.216269
0
LINE
8
BLACK
6
CONTINUOUS
10
1.41338
20
-0.216269
11
1.41551
21
-0.219462
0
LINE
8
BLACK
6
CONTINUOUS
10
1.41551
20
-0.219462
11
1.41626
21
-0.223228
0
LINE
8
BLACK
6
CONTINUOUS
10
1.41626
20
-0.223228
11
1.41626
21
-0.255709
0
LINE
8
BLACK
6
CONTINUOUS
10
1.41626
20
-0.255709
11
1.41551
21
-0.259475
0
LINE
8
BLACK
6
CONTINUOUS
10
1.41551
20
-0.259475
11
1.41338
21
-0.262668
0
LINE
8
BLACK
6
CONTINUOUS
10
1.41338
20
-0.262668
11
1.41018
21
-0.264802
0
LINE
8
BLACK
6
CONTINUOUS
10
1.41018
20
-0.264802
11
1.40642
21
-0.265551
0
LINE
8
BLACK
6
CONTINUOUS
10
1.40642
20
-0.265551
11
1.33358
21
-0.265551
0
LINE
8
BLACK
6
CONTINUOUS
10
1.33358
20
-0.265551
11
1.32982
21
-0.264802
0
LINE
8
BLACK
6
CONTINUOUS
10
1.32982
20
-0.264802
11
1.32662
21
-0.262668
0
LINE
8
BLACK
6
CONTINUOUS
10
1.32662
20
-0.262668
11
1.32449
21
-0.259475
0
LINE
8
BLACK
6
CONTINUOUS
10
1.32449
20
-0.259475
11
1.32374
21
-0.255709
0
LINE
8
BLACK
6
CONTINUOUS
10
1.32374
20
-0.255709
11
1.32374
21
-0.223228
0
LINE
8
BLACK
6
CONTINUOUS
10
1.32374
20
-0.223228
11
1.32449
21
-0.219462
0
LINE
8
BLACK
6
CONTINUOUS
10
1.32449
20
-0.219462
11
1.32662
21
-0.216269
0
LINE
8
BLACK
6
CONTINUOUS
10
1.32662
20
-0.216269
11
1.32982
21
-0.214135
0
LINE
8
BLACK
6
CONTINUOUS
10
1.32982
20
-0.214135
11
1.33358
21
-0.213386
0
LINE
8
BLACK
6
CONTINUOUS
10
1.33358
20
-0.213386
11
1.40642
21
-0.213386
0
LINE
8
BLACK
6
CONTINUOUS
10
1.40642
20
-0.213386
11
1.41018
21
-0.214135
0
LINE
8
BLACK
6
CONTINUOUS
10
0.0237795
20
-0.254252
11
-0.00377953
21
-0.254252
0
LINE
8
BLACK
6
CONTINUOUS
10
-0.00377953
20
-0.254252
11
-0.00377953
21
-0.23063
0
LINE
8
BLACK
6
CONTINUOUS
10
-0.00377953
20
-0.23063
11
0.0237795
21
-0.23063
0
LINE
8
BLACK
6
CONTINUOUS
10
0.0237795
20
-0.23063
11
0.0237795
21
-0.254252
0
LINE
8
BLACK
6
CONTINUOUS
10
-0.068365
20
-0.214628
11
-0.0652517
21
-0.216708
0
LINE
8
BLACK
6
CONTINUOUS
10
-0.0652517
20
-0.216708
11
-0.0631714
21
-0.219822
0
LINE
8
BLACK
6
CONTINUOUS
10
-0.0631714
20
-0.219822
11
-0.0624409
21
-0.223494
0
LINE
8
BLACK
6
CONTINUOUS
10
-0.0624409
20
-0.223494
11
-0.0624409
21
-0.242687
0
LINE
8
BLACK
6
CONTINUOUS
10
-0.0624409
20
-0.242687
11
-0.0631714
21
-0.246359
0
LINE
8
BLACK
6
CONTINUOUS
10
-0.0631714
20
-0.246359
11
-0.0652517
21
-0.249473
0
LINE
8
BLACK
6
CONTINUOUS
10
-0.0652517
20
-0.249473
11
-0.068365
21
-0.251553
0
LINE
8
BLACK
6
CONTINUOUS
10
-0.068365
20
-0.251553
11
-0.0720374
21
-0.252283
0
LINE
8
BLACK
6
CONTINUOUS
10
-0.0720374
20
-0.252283
11
-0.107963
21
-0.252283
0
LINE
8
BLACK
6
CONTINUOUS
10
-0.107963
20
-0.252283
11
-0.111635
21
-0.251553
0
LINE
8
BLACK
6
CONTINUOUS
10
-0.111635
20
-0.251553
11
-0.114748
21
-0.249473
0
LINE
8
BLACK
6
CONTINUOUS
10
-0.114748
20
-0.249473
11
-0.116829
21
-0.246359
0
LINE
8
BLACK
6
CONTINUOUS
10
-0.116829
20
-0.246359
11
-0.117559
21
-0.242687
0
LINE
8
BLACK
6
CONTINUOUS
10
-0.117559
20
-0.242687
11
-0.117559
21
-0.223494
0
LINE
8
BLACK
6
CONTINUOUS
10
-0.117559
20
-0.223494
11
-0.116829
21
-0.219822
0
LINE
8
BLACK
6
CONTINUOUS
10
-0.116829
20
-0.219822
11
-0.114748
21
-0.216708
0
LINE
8
BLACK
6
CONTINUOUS
10
-0.114748
20
-0.216708
11
-0.111635
21
-0.214628
0
LINE
8
BLACK
6
CONTINUOUS
10
-0.111635
20
-0.214628
11
-0.107963
21
-0.213898
0
LINE
8
BLACK
6
CONTINUOUS
10
-0.107963
20
-0.213898
11
-0.0720374
21
-0.213898
0
LINE
8
BLACK
6
CONTINUOUS
10
-0.0720374
20
-0.213898
11
-0.068365
21
-0.214628
0
LINE
8
BLACK
6
CONTINUOUS
10
0.276996
20
-0.240571
11
0.214004
21
-0.240571
0
LINE
8
BLACK
6
CONTINUOUS
10
0.214004
20
-0.240571
11
0.214004
21
-0.224429
0
LINE
8
BLACK
6
CONTINUOUS
10
0.214004
20
-0.224429
11
0.276996
21
-0.224429
0
LINE
8
BLACK
6
CONTINUOUS
10
0.276996
20
-0.224429
11
0.276996
21
-0.240571
0
LINE
8
BLACK
6
CONTINUOUS
10
0.485996
20
-0.240571
11
0.423004
21
-0.240571
0
LINE
8
BLACK
6
CONTINUOUS
10
0.423004
20
-0.240571
11
0.423004
21
-0.224429
0
LINE
8
BLACK
6
CONTINUOUS
10
0.423004
20
-0.224429
11
0.485996
21
-0.224429
0
LINE
8
BLACK
6
CONTINUOUS
10
0.485996
20
-0.224429
11
0.485996
21
-0.240571
0
LINE
8
BLACK
6
CONTINUOUS
10
0.794606
20
-0.237913
11
0.745394
21
-0.237913
0
LINE
8
BLACK
6
CONTINUOUS
10
0.745394
20
-0.237913
11
0.745394
21
-0.188701
0
LINE
8
BLACK
6
CONTINUOUS
10
0.745394
20
-0.188701
11
0.794606
21
-0.188701
0
LINE
8
BLACK
6
CONTINUOUS
10
0.794606
20
-0.188701
11
0.794606
21
-0.237913
0
LINE
8
BLACK
6
CONTINUOUS
10
0.276996
20
-0.215571
11
0.214004
21
-0.215571
0
LINE
8
BLACK
6
CONTINUOUS
10
0.214004
20
-0.215571
11
0.214004
21
-0.199429
0
LINE
8
BLACK
6
CONTINUOUS
10
0.214004
20
-0.199429
11
0.276996
21
-0.199429
0
LINE
8
BLACK
6
CONTINUOUS
10
0.276996
20
-0.199429
11
0.276996
21
-0.215571
0
LINE
8
BLACK
6
CONTINUOUS
10
0.485996
20
-0.215571
11
0.423004
21
-0.215571
0
LINE
8
BLACK
6
CONTINUOUS
10
0.423004
20
-0.215571
11
0.423004
21
-0.199429
0
LINE
8
BLACK
6
CONTINUOUS
10
0.423004
20
-0.199429
11
0.485996
21
-0.199429
0
LINE
8
BLACK
6
CONTINUOUS
10
0.485996
20
-0.199429
11
0.485996
21
-0.215571
0
LINE
8
BLACK
6
CONTINUOUS
10
0.581635
20
-0.168447
11
0.584748
21
-0.170527
0
LINE
8
BLACK
6
CONTINUOUS
10
0.584748
20
-0.170527
11
0.586829
21
-0.173641
0
LINE
8
BLACK
6
CONTINUOUS
10
0.586829
20
-0.173641
11
0.587559
21
-0.177313
0
LINE
8
BLACK
6
CONTINUOUS
10
0.587559
20
-0.177313
11
0.587559
21
-0.196506
0
LINE
8
BLACK
6
CONTINUOUS
10
0.587559
20
-0.196506
11
0.586829
21
-0.200178
0
LINE
8
BLACK
6
CONTINUOUS
10
0.586829
20
-0.200178
11
0.584748
21
-0.203292
0
LINE
8
BLACK
6
CONTINUOUS
10
0.584748
20
-0.203292
11
0.581635
21
-0.205372
0
LINE
8
BLACK
6
CONTINUOUS
10
0.581635
20
-0.205372
11
0.577963
21
-0.206102
0
LINE
8
BLACK
6
CONTINUOUS
10
0.577963
20
-0.206102
11
0.542037
21
-0.206102
0
LINE
8
BLACK
6
CONTINUOUS
10
0.542037
20
-0.206102
11
0.538365
21
-0.205372
0
LINE
8
BLACK
6
CONTINUOUS
10
0.538365
20
-0.205372
11
0.535252
21
-0.203292
0
LINE
8
BLACK
6
CONTINUOUS
10
0.535252
20
-0.203292
11
0.533171
21
-0.200178
0
LINE
8
BLACK
6
CONTINUOUS
10
0.533171
20
-0.200178
11
0.532441
21
-0.196506
0
LINE
8
BLACK
6
CONTINUOUS
10
0.532441
20
-0.196506
11
0.532441
21
-0.177313
0
LINE
8
BLACK
6
CONTINUOUS
10
0.532441
20
-0.177313
11
0.533171
21
-0.173641
0
LINE
8
BLACK
6
CONTINUOUS
10
0.533171
20
-0.173641
11
0.535252
21
-0.170527
0
LINE
8
BLACK
6
CONTINUOUS
10
0.535252
20
-0.170527
11
0.538365
21
-0.168447
0
LINE
8
BLACK
6
CONTINUOUS
10
0.538365
20
-0.168447
11
0.542037
21
-0.167717
0
LINE
8
BLACK
6
CONTINUOUS
10
0.542037
20
-0.167717
11
0.577963
21
-0.167717
0
LINE
8
BLACK
6
CONTINUOUS
10
0.577963
20
-0.167717
11
0.581635
21
-0.168447
0
LINE
8
BLACK
6
CONTINUOUS
10
0.661635
20
-0.168447
11
0.664748
21
-0.170527
0
LINE
8
BLACK
6
CONTINUOUS
10
0.664748
20
-0.170527
11
0.666829
21
-0.173641
0
LINE
8
BLACK
6
CONTINUOUS
10
0.666829
20
-0.173641
11
0.667559
21
-0.177313
0
LINE
8
BLACK
6
CONTINUOUS
10
0.667559
20
-0.177313
11
0.667559
21
-0.196506
0
LINE
8
BLACK
6
CONTINUOUS
10
0.667559
20
-0.196506
11
0.666829
21
-0.200178
0
LINE
8
BLACK
6
CONTINUOUS
10
0.666829
20
-0.200178
11
0.664748
21
-0.203292
0
LINE
8
BLACK
6
CONTINUOUS
10
0.664748
20
-0.203292
11
0.661635
21
-0.205372
0
LINE
8
BLACK
6
CONTINUOUS
10
0.661635
20
-0.205372
11
0.657963
21
-0.206102
0
LINE
8
BLACK
6
CONTINUOUS
10
0.657963
20
-0.206102
11
0.622037
21
-0.206102
0
LINE
8
BLACK
6
CONTINUOUS
10
0.622037
20
-0.206102
11
0.618365
21
-0.205372
0
LINE
8
BLACK
6
CONTINUOUS
10
0.618365
20
-0.205372
11
0.615252
21
-0.203292
0
LINE
8
BLACK
6
CONTINUOUS
10
0.615252
20
-0.203292
11
0.613171
21
-0.200178
0
LINE
8
BLACK
6
CONTINUOUS
10
0.613171
20
-0.200178
11
0.612441
21
-0.196506
0
LINE
8
BLACK
6
CONTINUOUS
10
0.612441
20
-0.196506
11
0.612441
21
-0.177313
0
LINE
8
BLACK
6
CONTINUOUS
10
0.612441
20
-0.177313
11
0.613171
21
-0.173641
0
LINE
8
BLACK
6
CONTINUOUS
10
0.613171
20
-0.173641
11
0.615252
21
-0.170527
0
LINE
8
BLACK
6
CONTINUOUS
10
0.615252
20
-0.170527
11
0.618365
21
-0.168447
0
LINE
8
BLACK
6
CONTINUOUS
10
0.618365
20
-0.168447
11
0.622037
21
-0.167717
0
LINE
8
BLACK
6
CONTINUOUS
10
0.622037
20
-0.167717
11
0.657963
21
-0.167717
0
LINE
8
BLACK
6
CONTINUOUS
10
0.657963
20
-0.167717
11
0.661635
21
-0.168447
0
LINE
8
BLACK
6
CONTINUOUS
10
0.161635
20
-0.154628
11
0.164748
21
-0.156708
0
LINE
8
BLACK
6
CONTINUOUS
10
0.164748
20
-0.156708
11
0.166829
21
-0.159822
0
LINE
8
BLACK
6
CONTINUOUS
10
0.166829
20
-0.159822
11
0.167559
21
-0.163494
0
LINE
8
BLACK
6
CONTINUOUS
10
0.167559
20
-0.163494
11
0.167559
21
-0.182687
0
LINE
8
BLACK
6
CONTINUOUS
10
0.167559
20
-0.182687
11
0.166829
21
-0.186359
0
LINE
8
BLACK
6
CONTINUOUS
10
0.166829
20
-0.186359
11
0.164748
21
-0.189473
0
LINE
8
BLACK
6
CONTINUOUS
10
0.164748
20
-0.189473
11
0.161635
21
-0.191553
0
LINE
8
BLACK
6
CONTINUOUS
10
0.161635
20
-0.191553
11
0.157963
21
-0.192283
0
LINE
8
BLACK
6
CONTINUOUS
10
0.157963
20
-0.192283
11
0.122037
21
-0.192283
0
LINE
8
BLACK
6
CONTINUOUS
10
0.122037
20
-0.192283
11
0.118365
21
-0.191553
0
LINE
8
BLACK
6
CONTINUOUS
10
0.118365
20
-0.191553
11
0.115252
21
-0.189473
0
LINE
8
BLACK
6
CONTINUOUS
10
0.115252
20
-0.189473
11
0.113171
21
-0.186359
0
LINE
8
BLACK
6
CONTINUOUS
10
0.113171
20
-0.186359
11
0.112441
21
-0.182687
0
LINE
8
BLACK
6
CONTINUOUS
10
0.112441
20
-0.182687
11
0.112441
21
-0.163494
0
LINE
8
BLACK
6
CONTINUOUS
10
0.112441
20
-0.163494
11
0.113171
21
-0.159822
0
LINE
8
BLACK
6
CONTINUOUS
10
0.113171
20
-0.159822
11
0.115252
21
-0.156708
0
LINE
8
BLACK
6
CONTINUOUS
10
0.115252
20
-0.156708
11
0.118365
21
-0.154628
0
LINE
8
BLACK
6
CONTINUOUS
10
0.118365
20
-0.154628
11
0.122037
21
-0.153898
0
LINE
8
BLACK
6
CONTINUOUS
10
0.122037
20
-0.153898
11
0.157963
21
-0.153898
0
LINE
8
BLACK
6
CONTINUOUS
10
0.157963
20
-0.153898
11
0.161635
21
-0.154628
0
LINE
8
BLACK
6
CONTINUOUS
10
0.276996
20
-0.190571
11
0.214004
21
-0.190571
0
LINE
8
BLACK
6
CONTINUOUS
10
0.214004
20
-0.190571
11
0.214004
21
-0.174429
0
LINE
8
BLACK
6
CONTINUOUS
10
0.214004
20
-0.174429
11
0.276996
21
-0.174429
0
LINE
8
BLACK
6
CONTINUOUS
10
0.276996
20
-0.174429
11
0.276996
21
-0.190571
0
LINE
8
BLACK
6
CONTINUOUS
10
0.485996
20
-0.190571
11
0.423004
21
-0.190571
0
LINE
8
BLACK
6
CONTINUOUS
10
0.423004
20
-0.190571
11
0.423004
21
-0.174429
0
LINE
8
BLACK
6
CONTINUOUS
10
0.423004
20
-0.174429
11
0.485996
21
-0.174429
0
LINE
8
BLACK
6
CONTINUOUS
10
0.485996
20
-0.174429
11
0.485996
21
-0.190571
0
LINE
8
BLACK
6
CONTINUOUS
10
0.276996
20
-0.165571
11
0.214004
21
-0.165571
0
LINE
8
BLACK
6
CONTINUOUS
10
0.214004
20
-0.165571
11
0.214004
21
-0.149429
0
LINE
8
BLACK
6
CONTINUOUS
10
0.214004
20
-0.149429
11
0.276996
21
-0.149429
0
LINE
8
BLACK
6
CONTINUOUS
10
0.276996
20
-0.149429
11
0.276996
21
-0.165571
0
LINE
8
BLACK
6
CONTINUOUS
10
0.485996
20
-0.165571
11
0.423004
21
-0.165571
0
LINE
8
BLACK
6
CONTINUOUS
10
0.423004
20
-0.165571
11
0.423004
21
-0.149429
0
LINE
8
BLACK
6
CONTINUOUS
10
0.423004
20
-0.149429
11
0.485996
21
-0.149429
0
LINE
8
BLACK
6
CONTINUOUS
10
0.485996
20
-0.149429
11
0.485996
21
-0.165571
0
LINE
8
BLACK
6
CONTINUOUS
10
0.794606
20
-0.151299
11
0.745394
21
-0.151299
0
LINE
8
BLACK
6
CONTINUOUS
10
0.745394
20
-0.151299
11
0.745394
21
-0.102087
0
LINE
8
BLACK
6
CONTINUOUS
10
0.745394
20
-0.102087
11
0.794606
21
-0.102087
0
LINE
8
BLACK
6
CONTINUOUS
10
0.794606
20
-0.102087
11
0.794606
21
-0.151299
0
LINE
8
BLACK
6
CONTINUOUS
10
0.276996
20
-0.140571
11
0.214004
21
-0.140571
0
LINE
8
BLACK
6
CONTINUOUS
10
0.214004
20
-0.140571
11
0.214004
21
-0.124429
0
LINE
8
BLACK
6
CONTINUOUS
10
0.214004
20
-0.124429
11
0.276996
21
-0.124429
0
LINE
8
BLACK
6
CONTINUOUS
10
0.276996
20
-0.124429
11
0.276996
21
-0.140571
0
LINE
8
BLACK
6
CONTINUOUS
10
0.485996
20
-0.140571
11
0.423004
21
-0.140571
0
LINE
8
BLACK
6
CONTINUOUS
10
0.423004
20
-0.140571
11
0.423004
21
-0.124429
0
LINE
8
BLACK
6
CONTINUOUS
10
0.423004
20
-0.124429
11
0.485996
21
-0.124429
0
LINE
8
BLACK
6
CONTINUOUS
10
0.485996
20
-0.124429
11
0.485996
21
-0.140571
0
LINE
8
BLACK
6
CONTINUOUS
10
0.581635
20
-0.0946281
11
0.584748
21
-0.0967084
0
LINE
8
BLACK
6
CONTINUOUS
10
0.584748
20
-0.0967084
11
0.586829
21
-0.0998217
0
LINE
8
BLACK
6
CONTINUOUS
10
0.586829
20
-0.0998217
11
0.587559
21
-0.103494
0
LINE
8
BLACK
6
CONTINUOUS
10
0.587559
20
-0.103494
11
0.587559
21
-0.122687
0
LINE
8
BLACK
6
CONTINUOUS
10
0.587559
20
-0.122687
11
0.586829
21
-0.126359
0
LINE
8
BLACK
6
CONTINUOUS
10
0.586829
20
-0.126359
11
0.584748
21
-0.129473
0
LINE
8
BLACK
6
CONTINUOUS
10
0.584748
20
-0.129473
11
0.581635
21
-0.131553
0
LINE
8
BLACK
6
CONTINUOUS
10
0.581635
20
-0.131553
11
0.577963
21
-0.132283
0
LINE
8
BLACK
6
CONTINUOUS
10
0.577963
20
-0.132283
11
0.542037
21
-0.132283
0
LINE
8
BLACK
6
CONTINUOUS
10
0.542037
20
-0.132283
11
0.538365
21
-0.131553
0
LINE
8
BLACK
6
CONTINUOUS
10
0.538365
20
-0.131553
11
0.535252
21
-0.129473
0
LINE
8
BLACK
6
CONTINUOUS
10
0.535252
20
-0.129473
11
0.533171
21
-0.126359
0
LINE
8
BLACK
6
CONTINUOUS
10
0.533171
20
-0.126359
11
0.532441
21
-0.122687
0
LINE
8
BLACK
6
CONTINUOUS
10
0.532441
20
-0.122687
11
0.532441
21
-0.103494
0
LINE
8
BLACK
6
CONTINUOUS
10
0.532441
20
-0.103494
11
0.533171
21
-0.0998217
0
LINE
8
BLACK
6
CONTINUOUS
10
0.533171
20
-0.0998217
11
0.535252
21
-0.0967084
0
LINE
8
BLACK
6
CONTINUOUS
10
0.535252
20
-0.0967084
11
0.538365
21
-0.0946281
0
LINE
8
BLACK
6
CONTINUOUS
10
0.538365
20
-0.0946281
11
0.542037
21
-0.0938976
0
LINE
8
BLACK
6
CONTINUOUS
10
0.542037
20
-0.0938976
11
0.577963
21
-0.0938976
0
LINE
8
BLACK
6
CONTINUOUS
10
0.577963
20
-0.0938976
11
0.581635
21
-0.0946281
0
LINE
8
BLACK
6
CONTINUOUS
10
0.661635
20
-0.0946281
11
0.664748
21
-0.0967084
0
LINE
8
BLACK
6
CONTINUOUS
10
0.664748
20
-0.0967084
11
0.666829
21
-0.0998217
0
LINE
8
BLACK
6
CONTINUOUS
10
0.666829
20
-0.0998217
11
0.667559
21
-0.103494
0
LINE
8
BLACK
6
CONTINUOUS
10
0.667559
20
-0.103494
11
0.667559
21
-0.122687
0
LINE
8
BLACK
6
CONTINUOUS
10
0.667559
20
-0.122687
11
0.666829
21
-0.126359
0
LINE
8
BLACK
6
CONTINUOUS
10
0.666829
20
-0.126359
11
0.664748
21
-0.129473
0
LINE
8
BLACK
6
CONTINUOUS
10
0.664748
20
-0.129473
11
0.661635
21
-0.131553
0
LINE
8
BLACK
6
CONTINUOUS
10
0.661635
20
-0.131553
11
0.657963
21
-0.132283
0
LINE
8
BLACK
6
CONTINUOUS
10
0.657963
20
-0.132283
11
0.622037
21
-0.132283
0
LINE
8
BLACK
6
CONTINUOUS
10
0.622037
20
-0.132283
11
0.618365
21
-0.131553
0
LINE
8
BLACK
6
CONTINUOUS
10
0.618365
20
-0.131553
11
0.615252
21
-0.129473
0
LINE
8
BLACK
6
CONTINUOUS
10
0.615252
20
-0.129473
11
0.613171
21
-0.126359
0
LINE
8
BLACK
6
CONTINUOUS
10
0.613171
20
-0.126359
11
0.612441
21
-0.122687
0
LINE
8
BLACK
6
CONTINUOUS
10
0.612441
20
-0.122687
11
0.612441
21
-0.103494
0
LINE
8
BLACK
6
CONTINUOUS
10
0.612441
20
-0.103494
11
0.613171
21
-0.0998217
0
LINE
8
BLACK
6
CONTINUOUS
10
0.613171
20
-0.0998217
11
0.615252
21
-0.0967084
0
LINE
8
BLACK
6
CONTINUOUS
10
0.615252
20
-0.0967084
11
0.618365
21
-0.0946281
0
LINE
8
BLACK
6
CONTINUOUS
10
0.618365
20
-0.0946281
11
0.622037
21
-0.0938976
0
LINE
8
BLACK
6
CONTINUOUS
10
0.622037
20
-0.0938976
11
0.657963
21
-0.0938976
0
LINE
8
BLACK
6
CONTINUOUS
10
0.657963
20
-0.0938976
11
0.661635
21
-0.0946281
0
LINE
8
BLACK
6
CONTINUOUS
10
1.01953
20
-0.0894094
11
0.960472
21
-0.0894094
0
LINE
8
BLACK
6
CONTINUOUS
10
0.960472
20
-0.0894094
11
0.960472
21
-0.0480709
0
LINE
8
BLACK
6
CONTINUOUS
10
0.960472
20
-0.0480709
11
1.01953
21
-0.0480709
0
LINE
8
BLACK
6
CONTINUOUS
10
1.01953
20
-0.0480709
11
1.01953
21
-0.0894094
0
LINE
8
BLACK
6
CONTINUOUS
10
1.13163
20
-0.048447
11
1.13475
21
-0.0505273
0
LINE
8
BLACK
6
CONTINUOUS
10
1.13475
20
-0.0505273
11
1.13683
21
-0.0536406
0
LINE
8
BLACK
6
CONTINUOUS
10
1.13683
20
-0.0536406
11
1.13756
21
-0.057313
0
LINE
8
BLACK
6
CONTINUOUS
10
1.13756
20
-0.057313
11
1.13756
21
-0.0765059
0
LINE
8
BLACK
6
CONTINUOUS
10
1.13756
20
-0.0765059
11
1.13683
21
-0.0801783
0
LINE
8
BLACK
6
CONTINUOUS
10
1.13683
20
-0.0801783
11
1.13475
21
-0.0832916
0
LINE
8
BLACK
6
CONTINUOUS
10
1.13475
20
-0.0832916
11
1.13163
21
-0.0853719
0
LINE
8
BLACK
6
CONTINUOUS
10
1.13163
20
-0.0853719
11
1.12796
21
-0.0861024
0
LINE
8
BLACK
6
CONTINUOUS
10
1.12796
20
-0.0861024
11
1.09204
21
-0.0861024
0
LINE
8
BLACK
6
CONTINUOUS
10
1.09204
20
-0.0861024
11
1.08837
21
-0.0853719
0
LINE
8
BLACK
6
CONTINUOUS
10
1.08837
20
-0.0853719
11
1.08525
21
-0.0832916
0
LINE
8
BLACK
6
CONTINUOUS
10
1.08525
20
-0.0832916
11
1.08317
21
-0.0801783
0
LINE
8
BLACK
6
CONTINUOUS
10
1.08317
20
-0.0801783
11
1.08244
21
-0.0765059
0
LINE
8
BLACK
6
CONTINUOUS
10
1.08244
20
-0.0765059
11
1.08244
21
-0.057313
0
LINE
8
BLACK
6
CONTINUOUS
10
1.08244
20
-0.057313
11
1.08317
21
-0.0536406
0
LINE
8
BLACK
6
CONTINUOUS
10
1.08317
20
-0.0536406
11
1.08525
21
-0.0505273
0
LINE
8
BLACK
6
CONTINUOUS
10
1.08525
20
-0.0505273
11
1.08837
21
-0.048447
0
LINE
8
BLACK
6
CONTINUOUS
10
1.08837
20
-0.048447
11
1.09204
21
-0.0477165
0
LINE
8
BLACK
6
CONTINUOUS
10
1.09204
20
-0.0477165
11
1.12796
21
-0.0477165
0
LINE
8
BLACK
6
CONTINUOUS
10
1.12796
20
-0.0477165
11
1.13163
21
-0.048447
0
LINE
8
BLACK
6
CONTINUOUS
10
1.13163
20
0.0253719
11
1.13475
21
0.0232916
0
LINE
8
BLACK
6
CONTINUOUS
10
1.13475
20
0.0232916
11
1.13683
21
0.0201783
0
LINE
8
BLACK
6
CONTINUOUS
10
1.13683
20
0.0201783
11
1.13756
21
0.0165059
0
LINE
8
BLACK
6
CONTINUOUS
10
1.13756
20
0.0165059
11
1.13756
21
-0.00268701
0
LINE
8
BLACK
6
CONTINUOUS
10
1.13756
20
-0.00268701
11
1.13683
21
-0.00635941
0
LINE
8
BLACK
6
CONTINUOUS
10
1.13683
20
-0.00635941
11
1.13475
21
-0.00947272
0
LINE
8
BLACK
6
CONTINUOUS
10
1.13475
20
-0.00947272
11
1.13163
21
-0.011553
0
LINE
8
BLACK
6
CONTINUOUS
10
1.13163
20
-0.011553
11
1.12796
21
-0.0122835
0
LINE
8
BLACK
6
CONTINUOUS
10
1.12796
20
-0.0122835
11
1.09204
21
-0.0122835
0
LINE
8
BLACK
6
CONTINUOUS
10
1.09204
20
-0.0122835
11
1.08837
21
-0.011553
0
LINE
8
BLACK
6
CONTINUOUS
10
1.08837
20
-0.011553
11
1.08525
21
-0.00947272
0
LINE
8
BLACK
6
CONTINUOUS
10
1.08525
20
-0.00947272
11
1.08317
21
-0.00635941
0
LINE
8
BLACK
6
CONTINUOUS
10
1.08317
20
-0.00635941
11
1.08244
21
-0.00268701
0
LINE
8
BLACK
6
CONTINUOUS
10
1.08244
20
-0.00268701
11
1.08244
21
0.0165059
0
LINE
8
BLACK
6
CONTINUOUS
10
1.08244
20
0.0165059
11
1.08317
21
0.0201783
0
LINE
8
BLACK
6
CONTINUOUS
10
1.08317
20
0.0201783
11
1.08525
21
0.0232916
0
LINE
8
BLACK
6
CONTINUOUS
10
1.08525
20
0.0232916
11
1.08837
21
0.0253719
0
LINE
8
BLACK
6
CONTINUOUS
10
1.08837
20
0.0253719
11
1.09204
21
0.0261024
0
LINE
8
BLACK
6
CONTINUOUS
10
1.09204
20
0.0261024
11
1.12796
21
0.0261024
0
LINE
8
BLACK
6
CONTINUOUS
10
1.12796
20
0.0261024
11
1.13163
21
0.0253719
0
LINE
8
BLACK
6
CONTINUOUS
10
1.01953
20
0.0680709
11
0.960472
21
0.0680709
0
LINE
8
BLACK
6
CONTINUOUS
10
0.960472
20
0.0680709
11
0.960472
21
0.109409
0
LINE
8
BLACK
6
CONTINUOUS
10
0.960472
20
0.109409
11
1.01953
21
0.109409
0
LINE
8
BLACK
6
CONTINUOUS
10
1.01953
20
0.109409
11
1.01953
21
0.0680709
0
LINE
8
BLACK
6
CONTINUOUS
10
0.566359
20
0.176829
11
0.569473
21
0.174748
0
LINE
8
BLACK
6
CONTINUOUS
10
0.569473
20
0.174748
11
0.571553
21
0.171635
0
LINE
8
BLACK
6
CONTINUOUS
10
0.571553
20
0.171635
11
0.572283
21
0.167963
0
LINE
8
BLACK
6
CONTINUOUS
10
0.572283
20
0.167963
11
0.572283
21
0.132037
0
LINE
8
BLACK
6
CONTINUOUS
10
0.572283
20
0.132037
11
0.571553
21
0.128365
0
LINE
8
BLACK
6
CONTINUOUS
10
0.571553
20
0.128365
11
0.569473
21
0.125252
0
LINE
8
BLACK
6
CONTINUOUS
10
0.569473
20
0.125252
11
0.566359
21
0.123171
0
LINE
8
BLACK
6
CONTINUOUS
10
0.566359
20
0.123171
11
0.562687
21
0.122441
0
LINE
8
BLACK
6
CONTINUOUS
10
0.562687
20
0.122441
11
0.543494
21
0.122441
0
LINE
8
BLACK
6
CONTINUOUS
10
0.543494
20
0.122441
11
0.539822
21
0.123171
0
LINE
8
BLACK
6
CONTINUOUS
10
0.539822
20
0.123171
11
0.536708
21
0.125252
0
LINE
8
BLACK
6
CONTINUOUS
10
0.536708
20
0.125252
11
0.534628
21
0.128365
0
LINE
8
BLACK
6
CONTINUOUS
10
0.534628
20
0.128365
11
0.533898
21
0.132037
0
LINE
8
BLACK
6
CONTINUOUS
10
0.533898
20
0.132037
11
0.533898
21
0.167963
0
LINE
8
BLACK
6
CONTINUOUS
10
0.533898
20
0.167963
11
0.534628
21
0.171635
0
LINE
8
BLACK
6
CONTINUOUS
10
0.534628
20
0.171635
11
0.536708
21
0.174748
0
LINE
8
BLACK
6
CONTINUOUS
10
0.536708
20
0.174748
11
0.539822
21
0.176829
0
LINE
8
BLACK
6
CONTINUOUS
10
0.539822
20
0.176829
11
0.543494
21
0.177559
0
LINE
8
BLACK
6
CONTINUOUS
10
0.543494
20
0.177559
11
0.562687
21
0.177559
0
LINE
8
BLACK
6
CONTINUOUS
10
0.562687
20
0.177559
11
0.566359
21
0.176829
0
LINE
8
BLACK
6
CONTINUOUS
10
0.640178
20
0.176829
11
0.643292
21
0.174748
0
LINE
8
BLACK
6
CONTINUOUS
10
0.643292
20
0.174748
11
0.645372
21
0.171635
0
LINE
8
BLACK
6
CONTINUOUS
10
0.645372
20
0.171635
11
0.646102
21
0.167963
0
LINE
8
BLACK
6
CONTINUOUS
10
0.646102
20
0.167963
11
0.646102
21
0.132037
0
LINE
8
BLACK
6
CONTINUOUS
10
0.646102
20
0.132037
11
0.645372
21
0.128365
0
LINE
8
BLACK
6
CONTINUOUS
10
0.645372
20
0.128365
11
0.643292
21
0.125252
0
LINE
8
BLACK
6
CONTINUOUS
10
0.643292
20
0.125252
11
0.640178
21
0.123171
0
LINE
8
BLACK
6
CONTINUOUS
10
0.640178
20
0.123171
11
0.636506
21
0.122441
0
LINE
8
BLACK
6
CONTINUOUS
10
0.636506
20
0.122441
11
0.617313
21
0.122441
0
LINE
8
BLACK
6
CONTINUOUS
10
0.617313
20
0.122441
11
0.613641
21
0.123171
0
LINE
8
BLACK
6
CONTINUOUS
10
0.613641
20
0.123171
11
0.610527
21
0.125252
0
LINE
8
BLACK
6
CONTINUOUS
10
0.610527
20
0.125252
11
0.608447
21
0.128365
0
LINE
8
BLACK
6
CONTINUOUS
10
0.608447
20
0.128365
11
0.607717
21
0.132037
0
LINE
8
BLACK
6
CONTINUOUS
10
0.607717
20
0.132037
11
0.607717
21
0.167963
0
LINE
8
BLACK
6
CONTINUOUS
10
0.607717
20
0.167963
11
0.608447
21
0.171635
0
LINE
8
BLACK
6
CONTINUOUS
10
0.608447
20
0.171635
11
0.610527
21
0.174748
0
LINE
8
BLACK
6
CONTINUOUS
10
0.610527
20
0.174748
11
0.613641
21
0.176829
0
LINE
8
BLACK
6
CONTINUOUS
10
0.613641
20
0.176829
11
0.617313
21
0.177559
0
LINE
8
BLACK
6
CONTINUOUS
10
0.617313
20
0.177559
11
0.636506
21
0.177559
0
LINE
8
BLACK
6
CONTINUOUS
10
0.636506
20
0.177559
11
0.640178
21
0.176829
0
LINE
8
BLACK
6
CONTINUOUS
10
0.706359
20
0.176829
11
0.709473
21
0.174748
0
LINE
8
BLACK
6
CONTINUOUS
10
0.709473
20
0.174748
11
0.711553
21
0.171635
0
LINE
8
BLACK
6
CONTINUOUS
10
0.711553
20
0.171635
11
0.712283
21
0.167963
0
LINE
8
BLACK
6
CONTINUOUS
10
0.712283
20
0.167963
11
0.712283
21
0.132037
0
LINE
8
BLACK
6
CONTINUOUS
10
0.712283
20
0.132037
11
0.711553
21
0.128365
0
LINE
8
BLACK
6
CONTINUOUS
10
0.711553
20
0.128365
11
0.709473
21
0.125252
0
LINE
8
BLACK
6
CONTINUOUS
10
0.709473
20
0.125252
11
0.706359
21
0.123171
0
LINE
8
BLACK
6
CONTINUOUS
10
0.706359
20
0.123171
11
0.702687
21
0.122441
0
LINE
8
BLACK
6
CONTINUOUS
10
0.702687
20
0.122441
11
0.683494
21
0.122441
0
LINE
8
BLACK
6
CONTINUOUS
10
0.683494
20
0.122441
11
0.679822
21
0.123171
0
LINE
8
BLACK
6
CONTINUOUS
10
0.679822
20
0.123171
11
0.676708
21
0.125252
0
LINE
8
BLACK
6
CONTINUOUS
10
0.676708
20
0.125252
11
0.674628
21
0.128365
0
LINE
8
BLACK
6
CONTINUOUS
10
0.674628
20
0.128365
11
0.673898
21
0.132037
0
LINE
8
BLACK
6
CONTINUOUS
10
0.673898
20
0.132037
11
0.673898
21
0.167963
0
LINE
8
BLACK
6
CONTINUOUS
10
0.673898
20
0.167963
11
0.674628
21
0.171635
0
LINE
8
BLACK
6
CONTINUOUS
10
0.674628
20
0.171635
11
0.676708
21
0.174748
0
LINE
8
BLACK
6
CONTINUOUS
10
0.676708
20
0.174748
11
0.679822
21
0.176829
0
LINE
8
BLACK
6
CONTINUOUS
10
0.679822
20
0.176829
11
0.683494
21
0.177559
0
LINE
8
BLACK
6
CONTINUOUS
10
0.683494
20
0.177559
11
0.702687
21
0.177559
0
LINE
8
BLACK
6
CONTINUOUS
10
0.702687
20
0.177559
11
0.706359
21
0.176829
0
LINE
8
BLACK
6
CONTINUOUS
10
0.780178
20
0.176829
11
0.783292
21
0.174748
0
LINE
8
BLACK
6
CONTINUOUS
10
0.783292
20
0.174748
11
0.785372
21
0.171635
0
LINE
8
BLACK
6
CONTINUOUS
10
0.785372
20
0.171635
11
0.786102
21
0.167963
0
LINE
8
BLACK
6
CONTINUOUS
10
0.786102
20
0.167963
11
0.786102
21
0.132037
0
LINE
8
BLACK
6
CONTINUOUS
10
0.786102
20
0.132037
11
0.785372
21
0.128365
0
LINE
8
BLACK
6
CONTINUOUS
10
0.785372
20
0.128365
11
0.783292
21
0.125252
0
LINE
8
BLACK
6
CONTINUOUS
10
0.783292
20
0.125252
11
0.780178
21
0.123171
0
LINE
8
BLACK
6
CONTINUOUS
10
0.780178
20
0.123171
11
0.776506
21
0.122441
0
LINE
8
BLACK
6
CONTINUOUS
10
0.776506
20
0.122441
11
0.757313
21
0.122441
0
LINE
8
BLACK
6
CONTINUOUS
10
0.757313
20
0.122441
11
0.753641
21
0.123171
0
LINE
8
BLACK
6
CONTINUOUS
10
0.753641
20
0.123171
11
0.750527
21
0.125252
0
LINE
8
BLACK
6
CONTINUOUS
10
0.750527
20
0.125252
11
0.748447
21
0.128365
0
LINE
8
BLACK
6
CONTINUOUS
10
0.748447
20
0.128365
11
0.747717
21
0.132037
0
LINE
8
BLACK
6
CONTINUOUS
10
0.747717
20
0.132037
11
0.747717
21
0.167963
0
LINE
8
BLACK
6
CONTINUOUS
10
0.747717
20
0.167963
11
0.748447
21
0.171635
0
LINE
8
BLACK
6
CONTINUOUS
10
0.748447
20
0.171635
11
0.750527
21
0.174748
0
LINE
8
BLACK
6
CONTINUOUS
10
0.750527
20
0.174748
11
0.753641
21
0.176829
0
LINE
8
BLACK
6
CONTINUOUS
10
0.753641
20
0.176829
11
0.757313
21
0.177559
0
LINE
8
BLACK
6
CONTINUOUS
10
0.757313
20
0.177559
11
0.776506
21
0.177559
0
LINE
8
BLACK
6
CONTINUOUS
10
0.776506
20
0.177559
11
0.780178
21
0.176829
  0
ENDSEC
  0
EOF
