  0
SECTION
  2
HEADER
  9
$ANGBASE
  50
0.0
  9
$ANGDIR
  70
1
  9
$MEASUREMENT
  70
0
  0
ENDSEC
  0
SECTION
  2
TABLES
  0
TABLE
  2
LTYPE
  70
4
  0
LTYPE
  5
40F
  2
CONTINUOUS
  70
0
  3
Solid line
  72
65
  73
0
  40
0.0
  0
LTYPE
  5
410
  2
DASHDOT
 70
0
  3
Dash Dot ____ _ ____ _
 72
65
 73
4
 40
2.0
 49
1.25
 49
-0.25
 49
0.25
 49
-0.25
  0
LTYPE
  5
411
  2
DASHED
 70
0
  3
Dashed __ __ __ __ __
 72
65
 73
2
 40
0.75
 49
0.5
 49
-0.25
  0
LTYPE
  5
43B
  2
DOTTED
 70
0
  3
Dotted .  .  .  .
 72
65
 73
2
 40
0.2
 49
0.0
 49
-0.2
  0
ENDTAB
  0
TABLE
  2
STYLE
  70
4
  0
STYLE
  2
KICAD
  70
0
  40
0
  41
1
  42
1
  50
0
  71
0
  3
isocp.shx
  0
STYLE
  2
KICADB
  70
0
  40
0
  41
1
  42
1
  50
0
  71
0
  3
isocp.shx
  0
STYLE
  2
KICADI
  70
0
  40
0
  41
1
  42
1
  50
15
  71
0
  3
isocp.shx
  0
STYLE
  2
KICADBI
  70
0
  40
0
  41
1
  42
1
  50
15
  71
0
  3
isocp.shx
  0
ENDTAB
  0
TABLE
  2
LAYER
  70
1
  0
LAYER
  2
BLACK
  70
0
  62
7
  6
CONTINUOUS
  0
ENDTAB
  0
ENDSEC
  0
SECTION
  2
ENTITIES
0
LINE
8
BLACK
6
CONTINUOUS
10
0.439139
20
-0.74837
11
0.439829
21
-0.750268
0
LINE
8
BLACK
6
CONTINUOUS
10
0.439829
20
-0.750268
11
0.439829
21
-0.77839
0
LINE
8
BLACK
6
CONTINUOUS
10
0.439829
20
-0.77839
11
0.439676
21
-0.779259
0
LINE
8
BLACK
6
CONTINUOUS
10
0.439676
20
-0.779259
11
0.439678
21
-0.779324
0
LINE
8
BLACK
6
CONTINUOUS
10
0.439678
20
-0.779324
11
0.437803
21
-0.784948
0
LINE
8
BLACK
6
CONTINUOUS
10
0.437803
20
-0.784948
11
0.437315
21
-0.78585
0
LINE
8
BLACK
6
CONTINUOUS
10
0.437315
20
-0.78585
11
0.437164
21
-0.785942
0
LINE
8
BLACK
6
CONTINUOUS
10
0.437164
20
-0.785942
11
0.43709
21
-0.786102
0
LINE
8
BLACK
6
CONTINUOUS
10
0.43709
20
-0.786102
11
0.43334
21
-0.789852
0
LINE
8
BLACK
6
CONTINUOUS
10
0.43334
20
-0.789852
11
0.4325
21
-0.79044
0
LINE
8
BLACK
6
CONTINUOUS
10
0.4325
20
-0.79044
11
0.432324
21
-0.790455
0
LINE
8
BLACK
6
CONTINUOUS
10
0.432324
20
-0.790455
11
0.432186
21
-0.790565
0
LINE
8
BLACK
6
CONTINUOUS
10
0.432186
20
-0.790565
11
0.426562
21
-0.79244
0
LINE
8
BLACK
6
CONTINUOUS
10
0.426562
20
-0.79244
11
0.425689
21
-0.792569
0
LINE
8
BLACK
6
CONTINUOUS
10
0.425689
20
-0.792569
11
0.425628
21
-0.792591
0
LINE
8
BLACK
6
CONTINUOUS
10
0.425628
20
-0.792591
11
0.421879
21
-0.792591
0
LINE
8
BLACK
6
CONTINUOUS
10
0.421879
20
-0.792591
11
0.420869
21
-0.792413
0
LINE
8
BLACK
6
CONTINUOUS
10
0.420869
20
-0.792413
11
0.419321
21
-0.791115
0
LINE
8
BLACK
6
CONTINUOUS
10
0.419321
20
-0.791115
11
0.418971
21
-0.789126
0
LINE
8
BLACK
6
CONTINUOUS
10
0.418971
20
-0.789126
11
0.419981
21
-0.787377
0
LINE
8
BLACK
6
CONTINUOUS
10
0.419981
20
-0.787377
11
0.421879
21
-0.786686
0
LINE
8
BLACK
6
CONTINUOUS
10
0.421879
20
-0.786686
11
0.425149
21
-0.786686
0
LINE
8
BLACK
6
CONTINUOUS
10
0.425149
20
-0.786686
11
0.429657
21
-0.785183
0
LINE
8
BLACK
6
CONTINUOUS
10
0.429657
20
-0.785183
11
0.432421
21
-0.782419
0
LINE
8
BLACK
6
CONTINUOUS
10
0.432421
20
-0.782419
11
0.433924
21
-0.777911
0
LINE
8
BLACK
6
CONTINUOUS
10
0.433924
20
-0.777911
11
0.433924
21
-0.750268
0
LINE
8
BLACK
6
CONTINUOUS
10
0.433924
20
-0.750268
11
0.434102
21
-0.749259
0
LINE
8
BLACK
6
CONTINUOUS
10
0.434102
20
-0.749259
11
0.4354
21
-0.747711
0
LINE
8
BLACK
6
CONTINUOUS
10
0.4354
20
-0.747711
11
0.437389
21
-0.747361
0
LINE
8
BLACK
6
CONTINUOUS
10
0.437389
20
-0.747361
11
0.439139
21
-0.74837
0
LINE
8
BLACK
6
CONTINUOUS
10
0.465344
20
-0.74739
11
0.465511
21
-0.747361
0
LINE
8
BLACK
6
CONTINUOUS
10
0.465511
20
-0.747361
11
0.466253
21
-0.747789
0
LINE
8
BLACK
6
CONTINUOUS
10
0.466253
20
-0.747789
11
0.467038
21
-0.748133
0
LINE
8
BLACK
6
CONTINUOUS
10
0.467038
20
-0.748133
11
0.467113
21
-0.748286
0
LINE
8
BLACK
6
CONTINUOUS
10
0.467113
20
-0.748286
11
0.46726
21
-0.74837
0
LINE
8
BLACK
6
CONTINUOUS
10
0.46726
20
-0.74837
11
0.467553
21
-0.749176
0
LINE
8
BLACK
6
CONTINUOUS
10
0.467553
20
-0.749176
11
0.467933
21
-0.749944
0
LINE
8
BLACK
6
CONTINUOUS
10
0.467933
20
-0.749944
11
0.467893
21
-0.750109
0
LINE
8
BLACK
6
CONTINUOUS
10
0.467893
20
-0.750109
11
0.467951
21
-0.750268
0
LINE
8
BLACK
6
CONTINUOUS
10
0.467951
20
-0.750268
11
0.467951
21
-0.786686
0
LINE
8
BLACK
6
CONTINUOUS
10
0.467951
20
-0.786686
11
0.476247
21
-0.786686
0
LINE
8
BLACK
6
CONTINUOUS
10
0.476247
20
-0.786686
11
0.477257
21
-0.786864
0
LINE
8
BLACK
6
CONTINUOUS
10
0.477257
20
-0.786864
11
0.478804
21
-0.788162
0
LINE
8
BLACK
6
CONTINUOUS
10
0.478804
20
-0.788162
11
0.479155
21
-0.790151
0
LINE
8
BLACK
6
CONTINUOUS
10
0.479155
20
-0.790151
11
0.478145
21
-0.7919
0
LINE
8
BLACK
6
CONTINUOUS
10
0.478145
20
-0.7919
11
0.476247
21
-0.792591
0
LINE
8
BLACK
6
CONTINUOUS
10
0.476247
20
-0.792591
11
0.45375
21
-0.792591
0
LINE
8
BLACK
6
CONTINUOUS
10
0.45375
20
-0.792591
11
0.45274
21
-0.792413
0
LINE
8
BLACK
6
CONTINUOUS
10
0.45274
20
-0.792413
11
0.451192
21
-0.791115
0
LINE
8
BLACK
6
CONTINUOUS
10
0.451192
20
-0.791115
11
0.450842
21
-0.789126
0
LINE
8
BLACK
6
CONTINUOUS
10
0.450842
20
-0.789126
11
0.451852
21
-0.787377
0
LINE
8
BLACK
6
CONTINUOUS
10
0.451852
20
-0.787377
11
0.45375
21
-0.786686
0
LINE
8
BLACK
6
CONTINUOUS
10
0.45375
20
-0.786686
11
0.462045
21
-0.786686
0
LINE
8
BLACK
6
CONTINUOUS
10
0.462045
20
-0.786686
11
0.462045
21
-0.759272
0
LINE
8
BLACK
6
CONTINUOUS
10
0.462045
20
-0.759272
11
0.459587
21
-0.76173
0
LINE
8
BLACK
6
CONTINUOUS
10
0.459587
20
-0.76173
11
0.458864
21
-0.762236
0
LINE
8
BLACK
6
CONTINUOUS
10
0.458864
20
-0.762236
11
0.45882
21
-0.762283
0
LINE
8
BLACK
6
CONTINUOUS
10
0.45882
20
-0.762283
11
0.45507
21
-0.764158
0
LINE
8
BLACK
6
CONTINUOUS
10
0.45507
20
-0.764158
11
0.454087
21
-0.76445
0
LINE
8
BLACK
6
CONTINUOUS
10
0.454087
20
-0.76445
11
0.452123
21
-0.763981
0
LINE
8
BLACK
6
CONTINUOUS
10
0.452123
20
-0.763981
11
0.450919
21
-0.762359
0
LINE
8
BLACK
6
CONTINUOUS
10
0.450919
20
-0.762359
11
0.45104
21
-0.760343
0
LINE
8
BLACK
6
CONTINUOUS
10
0.45104
20
-0.760343
11
0.452429
21
-0.758876
0
LINE
8
BLACK
6
CONTINUOUS
10
0.452429
20
-0.758876
11
0.45575
21
-0.757216
0
LINE
8
BLACK
6
CONTINUOUS
10
0.45575
20
-0.757216
11
0.458954
21
-0.754012
0
LINE
8
BLACK
6
CONTINUOUS
10
0.458954
20
-0.754012
11
0.462541
21
-0.748631
0
LINE
8
BLACK
6
CONTINUOUS
10
0.462541
20
-0.748631
11
0.46325
21
-0.747889
0
LINE
8
BLACK
6
CONTINUOUS
10
0.46325
20
-0.747889
11
0.463413
21
-0.747841
0
LINE
8
BLACK
6
CONTINUOUS
10
0.463413
20
-0.747841
11
0.463522
21
-0.747711
0
LINE
8
BLACK
6
CONTINUOUS
10
0.463522
20
-0.747711
11
0.464366
21
-0.747562
0
LINE
8
BLACK
6
CONTINUOUS
10
0.464366
20
-0.747562
11
0.465188
21
-0.747322
0
LINE
8
BLACK
6
CONTINUOUS
10
0.465188
20
-0.747322
11
0.465344
21
-0.74739
0
LINE
8
BLACK
6
CONTINUOUS
10
0.615738
20
-0.587745
11
0.615867
21
-0.587722
0
LINE
8
BLACK
6
CONTINUOUS
10
0.615867
20
-0.587722
11
0.615981
21
-0.587788
0
LINE
8
BLACK
6
CONTINUOUS
10
0.615981
20
-0.587788
11
0.616364
21
-0.587855
0
LINE
8
BLACK
6
CONTINUOUS
10
0.616364
20
-0.587855
11
0.616952
21
-0.588348
0
LINE
8
BLACK
6
CONTINUOUS
10
0.616952
20
-0.588348
11
0.617616
21
-0.588732
0
LINE
8
BLACK
6
CONTINUOUS
10
0.617616
20
-0.588732
11
0.617707
21
-0.588982
0
LINE
8
BLACK
6
CONTINUOUS
10
0.617707
20
-0.588982
11
0.617911
21
-0.589154
0
LINE
8
BLACK
6
CONTINUOUS
10
0.617911
20
-0.589154
11
0.618045
21
-0.589909
0
LINE
8
BLACK
6
CONTINUOUS
10
0.618045
20
-0.589909
11
0.618307
21
-0.59063
0
LINE
8
BLACK
6
CONTINUOUS
10
0.618307
20
-0.59063
11
0.618307
21
-0.944961
0
LINE
8
BLACK
6
CONTINUOUS
10
0.618307
20
-0.944961
11
0.618239
21
-0.945344
0
LINE
8
BLACK
6
CONTINUOUS
10
0.618239
20
-0.945344
11
0.618262
21
-0.945473
0
LINE
8
BLACK
6
CONTINUOUS
10
0.618262
20
-0.945473
11
0.618197
21
-0.945587
0
LINE
8
BLACK
6
CONTINUOUS
10
0.618197
20
-0.945587
11
0.618129
21
-0.945971
0
LINE
8
BLACK
6
CONTINUOUS
10
0.618129
20
-0.945971
11
0.617636
21
-0.946558
0
LINE
8
BLACK
6
CONTINUOUS
10
0.617636
20
-0.946558
11
0.617252
21
-0.947223
0
LINE
8
BLACK
6
CONTINUOUS
10
0.617252
20
-0.947223
11
0.617002
21
-0.947314
0
LINE
8
BLACK
6
CONTINUOUS
10
0.617002
20
-0.947314
11
0.616831
21
-0.947518
0
LINE
8
BLACK
6
CONTINUOUS
10
0.616831
20
-0.947518
11
0.616075
21
-0.947651
0
LINE
8
BLACK
6
CONTINUOUS
10
0.616075
20
-0.947651
11
0.615354
21
-0.947913
0
LINE
8
BLACK
6
CONTINUOUS
10
0.615354
20
-0.947913
11
0.284646
21
-0.947913
0
LINE
8
BLACK
6
CONTINUOUS
10
0.284646
20
-0.947913
11
0.284262
21
-0.947846
0
LINE
8
BLACK
6
CONTINUOUS
10
0.284262
20
-0.947846
11
0.284133
21
-0.947869
0
LINE
8
BLACK
6
CONTINUOUS
10
0.284133
20
-0.947869
11
0.284019
21
-0.947803
0
LINE
8
BLACK
6
CONTINUOUS
10
0.284019
20
-0.947803
11
0.283636
21
-0.947735
0
LINE
8
BLACK
6
CONTINUOUS
10
0.283636
20
-0.947735
11
0.283048
21
-0.947242
0
LINE
8
BLACK
6
CONTINUOUS
10
0.283048
20
-0.947242
11
0.282384
21
-0.946859
0
LINE
8
BLACK
6
CONTINUOUS
10
0.282384
20
-0.946859
11
0.282293
21
-0.946608
0
LINE
8
BLACK
6
CONTINUOUS
10
0.282293
20
-0.946608
11
0.282089
21
-0.946437
0
LINE
8
BLACK
6
CONTINUOUS
10
0.282089
20
-0.946437
11
0.281955
21
-0.945681
0
LINE
8
BLACK
6
CONTINUOUS
10
0.281955
20
-0.945681
11
0.281693
21
-0.944961
0
LINE
8
BLACK
6
CONTINUOUS
10
0.281693
20
-0.944961
11
0.281693
21
-0.59063
0
LINE
8
BLACK
6
CONTINUOUS
10
0.281693
20
-0.59063
11
0.281761
21
-0.590246
0
LINE
8
BLACK
6
CONTINUOUS
10
0.281761
20
-0.590246
11
0.281738
21
-0.590117
0
LINE
8
BLACK
6
CONTINUOUS
10
0.281738
20
-0.590117
11
0.281803
21
-0.590004
0
LINE
8
BLACK
6
CONTINUOUS
10
0.281803
20
-0.590004
11
0.281871
21
-0.58962
0
LINE
8
BLACK
6
CONTINUOUS
10
0.281871
20
-0.58962
11
0.282364
21
-0.589032
0
LINE
8
BLACK
6
CONTINUOUS
10
0.282364
20
-0.589032
11
0.282748
21
-0.588368
0
LINE
8
BLACK
6
CONTINUOUS
10
0.282748
20
-0.588368
11
0.282998
21
-0.588277
0
LINE
8
BLACK
6
CONTINUOUS
10
0.282998
20
-0.588277
11
0.283169
21
-0.588073
0
LINE
8
BLACK
6
CONTINUOUS
10
0.283169
20
-0.588073
11
0.283925
21
-0.587939
0
LINE
8
BLACK
6
CONTINUOUS
10
0.283925
20
-0.587939
11
0.284646
21
-0.587677
0
LINE
8
BLACK
6
CONTINUOUS
10
0.284646
20
-0.587677
11
0.615354
21
-0.587677
0
LINE
8
BLACK
6
CONTINUOUS
10
0.615354
20
-0.587677
11
0.615738
21
-0.587745
0
LINE
8
BLACK
6
CONTINUOUS
10
0.287598
20
-0.593583
11
0.287598
21
-0.942008
0
LINE
8
BLACK
6
CONTINUOUS
10
0.287598
20
-0.942008
11
0.612402
21
-0.942008
0
LINE
8
BLACK
6
CONTINUOUS
10
0.612402
20
-0.942008
11
0.612402
21
-0.593583
0
LINE
8
BLACK
6
CONTINUOUS
10
0.612402
20
-0.593583
11
0.287598
21
-0.593583
0
LINE
8
BLACK
6
CONTINUOUS
10
1.73541
20
-0.736638
11
1.7361
21
-0.738536
0
LINE
8
BLACK
6
CONTINUOUS
10
1.7361
20
-0.738536
11
1.7361
21
-0.774954
0
LINE
8
BLACK
6
CONTINUOUS
10
1.7361
20
-0.774954
11
1.75189
21
-0.774954
0
LINE
8
BLACK
6
CONTINUOUS
10
1.75189
20
-0.774954
11
1.7529
21
-0.775132
0
LINE
8
BLACK
6
CONTINUOUS
10
1.7529
20
-0.775132
11
1.75445
21
-0.77643
0
LINE
8
BLACK
6
CONTINUOUS
10
1.75445
20
-0.77643
11
1.7548
21
-0.778419
0
LINE
8
BLACK
6
CONTINUOUS
10
1.7548
20
-0.778419
11
1.75379
21
-0.780168
0
LINE
8
BLACK
6
CONTINUOUS
10
1.75379
20
-0.780168
11
1.75189
21
-0.780859
0
LINE
8
BLACK
6
CONTINUOUS
10
1.75189
20
-0.780859
11
1.73315
21
-0.780859
0
LINE
8
BLACK
6
CONTINUOUS
10
1.73315
20
-0.780859
11
1.73276
21
-0.780791
0
LINE
8
BLACK
6
CONTINUOUS
10
1.73276
20
-0.780791
11
1.73263
21
-0.780814
0
LINE
8
BLACK
6
CONTINUOUS
10
1.73263
20
-0.780814
11
1.73252
21
-0.780749
0
LINE
8
BLACK
6
CONTINUOUS
10
1.73252
20
-0.780749
11
1.73214
21
-0.780681
0
LINE
8
BLACK
6
CONTINUOUS
10
1.73214
20
-0.780681
11
1.73155
21
-0.780188
0
LINE
8
BLACK
6
CONTINUOUS
10
1.73155
20
-0.780188
11
1.73088
21
-0.779804
0
LINE
8
BLACK
6
CONTINUOUS
10
1.73088
20
-0.779804
11
1.73079
21
-0.779554
0
LINE
8
BLACK
6
CONTINUOUS
10
1.73079
20
-0.779554
11
1.73059
21
-0.779383
0
LINE
8
BLACK
6
CONTINUOUS
10
1.73059
20
-0.779383
11
1.73046
21
-0.778627
0
LINE
8
BLACK
6
CONTINUOUS
10
1.73046
20
-0.778627
11
1.73019
21
-0.777906
0
LINE
8
BLACK
6
CONTINUOUS
10
1.73019
20
-0.777906
11
1.73019
21
-0.738536
0
LINE
8
BLACK
6
CONTINUOUS
10
1.73019
20
-0.738536
11
1.73037
21
-0.737526
0
LINE
8
BLACK
6
CONTINUOUS
10
1.73037
20
-0.737526
11
1.73167
21
-0.735979
0
LINE
8
BLACK
6
CONTINUOUS
10
1.73167
20
-0.735979
11
1.73366
21
-0.735628
0
LINE
8
BLACK
6
CONTINUOUS
10
1.73366
20
-0.735628
11
1.73541
21
-0.736638
0
LINE
8
BLACK
6
CONTINUOUS
10
1.77728
20
-0.735761
11
1.77741
21
-0.735875
0
LINE
8
BLACK
6
CONTINUOUS
10
1.77741
20
-0.735875
11
1.77759
21
-0.735895
0
LINE
8
BLACK
6
CONTINUOUS
10
1.77759
20
-0.735895
11
1.78134
21
-0.73777
0
LINE
8
BLACK
6
CONTINUOUS
10
1.78134
20
-0.73777
11
1.78204
21
-0.738296
0
LINE
8
BLACK
6
CONTINUOUS
10
1.78204
20
-0.738296
11
1.7821
21
-0.738323
0
LINE
8
BLACK
6
CONTINUOUS
10
1.7821
20
-0.738323
11
1.78398
21
-0.740198
0
LINE
8
BLACK
6
CONTINUOUS
10
1.78398
20
-0.740198
11
1.78448
21
-0.740921
0
LINE
8
BLACK
6
CONTINUOUS
10
1.78448
20
-0.740921
11
1.78453
21
-0.740965
0
LINE
8
BLACK
6
CONTINUOUS
10
1.78453
20
-0.740965
11
1.78641
21
-0.744715
0
LINE
8
BLACK
6
CONTINUOUS
10
1.78641
20
-0.744715
11
1.78655
21
-0.745203
0
LINE
8
BLACK
6
CONTINUOUS
10
1.78655
20
-0.745203
11
1.78663
21
-0.745319
0
LINE
8
BLACK
6
CONTINUOUS
10
1.78663
20
-0.745319
11
1.7885
21
-0.752818
0
LINE
8
BLACK
6
CONTINUOUS
10
1.7885
20
-0.752818
11
1.78855
21
-0.753406
0
LINE
8
BLACK
6
CONTINUOUS
10
1.78855
20
-0.753406
11
1.78859
21
-0.753534
0
LINE
8
BLACK
6
CONTINUOUS
10
1.78859
20
-0.753534
11
1.78859
21
-0.762908
0
LINE
8
BLACK
6
CONTINUOUS
10
1.78859
20
-0.762908
11
1.78849
21
-0.763488
0
LINE
8
BLACK
6
CONTINUOUS
10
1.78849
20
-0.763488
11
1.7885
21
-0.763624
0
LINE
8
BLACK
6
CONTINUOUS
10
1.7885
20
-0.763624
11
1.78663
21
-0.771123
0
LINE
8
BLACK
6
CONTINUOUS
10
1.78663
20
-0.771123
11
1.78642
21
-0.771589
0
LINE
8
BLACK
6
CONTINUOUS
10
1.78642
20
-0.771589
11
1.78641
21
-0.771728
0
LINE
8
BLACK
6
CONTINUOUS
10
1.78641
20
-0.771728
11
1.78453
21
-0.775477
0
LINE
8
BLACK
6
CONTINUOUS
10
1.78453
20
-0.775477
11
1.784
21
-0.776186
0
LINE
8
BLACK
6
CONTINUOUS
10
1.784
20
-0.776186
11
1.78398
21
-0.776245
0
LINE
8
BLACK
6
CONTINUOUS
10
1.78398
20
-0.776245
11
1.7821
21
-0.778119
0
LINE
8
BLACK
6
CONTINUOUS
10
1.7821
20
-0.778119
11
1.78138
21
-0.778626
0
LINE
8
BLACK
6
CONTINUOUS
10
1.78138
20
-0.778626
11
1.78134
21
-0.778673
0
LINE
8
BLACK
6
CONTINUOUS
10
1.78134
20
-0.778673
11
1.77759
21
-0.780547
0
LINE
8
BLACK
6
CONTINUOUS
10
1.77759
20
-0.780547
11
1.7766
21
-0.78084
0
LINE
8
BLACK
6
CONTINUOUS
10
1.7766
20
-0.78084
11
1.77643
21
-0.780799
0
LINE
8
BLACK
6
CONTINUOUS
10
1.77643
20
-0.780799
11
1.77627
21
-0.780859
0
LINE
8
BLACK
6
CONTINUOUS
10
1.77627
20
-0.780859
11
1.77252
21
-0.780859
0
LINE
8
BLACK
6
CONTINUOUS
10
1.77252
20
-0.780859
11
1.77151
21
-0.780681
0
LINE
8
BLACK
6
CONTINUOUS
10
1.77151
20
-0.780681
11
1.77137
21
-0.780567
0
LINE
8
BLACK
6
CONTINUOUS
10
1.77137
20
-0.780567
11
1.7712
21
-0.780547
0
LINE
8
BLACK
6
CONTINUOUS
10
1.7712
20
-0.780547
11
1.76745
21
-0.778673
0
LINE
8
BLACK
6
CONTINUOUS
10
1.76745
20
-0.778673
11
1.76674
21
-0.778147
0
LINE
8
BLACK
6
CONTINUOUS
10
1.76674
20
-0.778147
11
1.76668
21
-0.778119
0
LINE
8
BLACK
6
CONTINUOUS
10
1.76668
20
-0.778119
11
1.7648
21
-0.776245
0
LINE
8
BLACK
6
CONTINUOUS
10
1.7648
20
-0.776245
11
1.7643
21
-0.775521
0
LINE
8
BLACK
6
CONTINUOUS
10
1.7643
20
-0.775521
11
1.76425
21
-0.775477
0
LINE
8
BLACK
6
CONTINUOUS
10
1.76425
20
-0.775477
11
1.76238
21
-0.771728
0
LINE
8
BLACK
6
CONTINUOUS
10
1.76238
20
-0.771728
11
1.76223
21
-0.771239
0
LINE
8
BLACK
6
CONTINUOUS
10
1.76223
20
-0.771239
11
1.76215
21
-0.771123
0
LINE
8
BLACK
6
CONTINUOUS
10
1.76215
20
-0.771123
11
1.76028
21
-0.763624
0
LINE
8
BLACK
6
CONTINUOUS
10
1.76028
20
-0.763624
11
1.76024
21
-0.763036
0
LINE
8
BLACK
6
CONTINUOUS
10
1.76024
20
-0.763036
11
1.76019
21
-0.762908
0
LINE
8
BLACK
6
CONTINUOUS
10
1.76019
20
-0.762908
11
1.76019
21
-0.753534
0
LINE
8
BLACK
6
CONTINUOUS
10
1.76019
20
-0.753534
11
1.76029
21
-0.752954
0
LINE
8
BLACK
6
CONTINUOUS
10
1.76029
20
-0.752954
11
1.76028
21
-0.752818
0
LINE
8
BLACK
6
CONTINUOUS
10
1.76028
20
-0.752818
11
1.76215
21
-0.745319
0
LINE
8
BLACK
6
CONTINUOUS
10
1.76215
20
-0.745319
11
1.76236
21
-0.744854
0
LINE
8
BLACK
6
CONTINUOUS
10
1.76236
20
-0.744854
11
1.76238
21
-0.744715
0
LINE
8
BLACK
6
CONTINUOUS
10
1.76238
20
-0.744715
11
1.76425
21
-0.740965
0
LINE
8
BLACK
6
CONTINUOUS
10
1.76425
20
-0.740965
11
1.76478
21
-0.740256
0
LINE
8
BLACK
6
CONTINUOUS
10
1.76478
20
-0.740256
11
1.7648
21
-0.740198
0
LINE
8
BLACK
6
CONTINUOUS
10
1.7648
20
-0.740198
11
1.76668
21
-0.738323
0
LINE
8
BLACK
6
CONTINUOUS
10
1.76668
20
-0.738323
11
1.7674
21
-0.737817
0
LINE
8
BLACK
6
CONTINUOUS
10
1.7674
20
-0.737817
11
1.76745
21
-0.73777
0
LINE
8
BLACK
6
CONTINUOUS
10
1.76745
20
-0.73777
11
1.7712
21
-0.735895
0
LINE
8
BLACK
6
CONTINUOUS
10
1.7712
20
-0.735895
11
1.77218
21
-0.735603
0
LINE
8
BLACK
6
CONTINUOUS
10
1.77218
20
-0.735603
11
1.77235
21
-0.735644
0
LINE
8
BLACK
6
CONTINUOUS
10
1.77235
20
-0.735644
11
1.77252
21
-0.735583
0
LINE
8
BLACK
6
CONTINUOUS
10
1.77252
20
-0.735583
11
1.77627
21
-0.735583
0
LINE
8
BLACK
6
CONTINUOUS
10
1.77627
20
-0.735583
11
1.77728
21
-0.735761
0
LINE
8
BLACK
6
CONTINUOUS
10
1.77052
20
-0.742838
11
1.76932
21
-0.744035
0
LINE
8
BLACK
6
CONTINUOUS
10
1.76932
20
-0.744035
11
1.7678
21
-0.747066
0
LINE
8
BLACK
6
CONTINUOUS
10
1.7678
20
-0.747066
11
1.76609
21
-0.753898
0
LINE
8
BLACK
6
CONTINUOUS
10
1.76609
20
-0.753898
11
1.76609
21
-0.762545
0
LINE
8
BLACK
6
CONTINUOUS
10
1.76609
20
-0.762545
11
1.7678
21
-0.769377
0
LINE
8
BLACK
6
CONTINUOUS
10
1.7678
20
-0.769377
11
1.76932
21
-0.772408
0
LINE
8
BLACK
6
CONTINUOUS
10
1.76932
20
-0.772408
11
1.77052
21
-0.773605
0
LINE
8
BLACK
6
CONTINUOUS
10
1.77052
20
-0.773605
11
1.77321
21
-0.774954
0
LINE
8
BLACK
6
CONTINUOUS
10
1.77321
20
-0.774954
11
1.77557
21
-0.774954
0
LINE
8
BLACK
6
CONTINUOUS
10
1.77557
20
-0.774954
11
1.77827
21
-0.773605
0
LINE
8
BLACK
6
CONTINUOUS
10
1.77827
20
-0.773605
11
1.77946
21
-0.772408
0
LINE
8
BLACK
6
CONTINUOUS
10
1.77946
20
-0.772408
11
1.78098
21
-0.769377
0
LINE
8
BLACK
6
CONTINUOUS
10
1.78098
20
-0.769377
11
1.78269
21
-0.762545
0
LINE
8
BLACK
6
CONTINUOUS
10
1.78269
20
-0.762545
11
1.78269
21
-0.753898
0
LINE
8
BLACK
6
CONTINUOUS
10
1.78269
20
-0.753898
11
1.78098
21
-0.747066
0
LINE
8
BLACK
6
CONTINUOUS
10
1.78098
20
-0.747066
11
1.77946
21
-0.744035
0
LINE
8
BLACK
6
CONTINUOUS
10
1.77946
20
-0.744035
11
1.77827
21
-0.742838
0
LINE
8
BLACK
6
CONTINUOUS
10
1.77827
20
-0.742838
11
1.77557
21
-0.741489
0
LINE
8
BLACK
6
CONTINUOUS
10
1.77557
20
-0.741489
11
1.77321
21
-0.741489
0
LINE
8
BLACK
6
CONTINUOUS
10
1.77321
20
-0.741489
11
1.77052
21
-0.742838
0
LINE
8
BLACK
6
CONTINUOUS
10
1.81223
20
-0.735658
11
1.8124
21
-0.735628
0
LINE
8
BLACK
6
CONTINUOUS
10
1.8124
20
-0.735628
11
1.81314
21
-0.736057
0
LINE
8
BLACK
6
CONTINUOUS
10
1.81314
20
-0.736057
11
1.81393
21
-0.736401
0
LINE
8
BLACK
6
CONTINUOUS
10
1.81393
20
-0.736401
11
1.814
21
-0.736553
0
LINE
8
BLACK
6
CONTINUOUS
10
1.814
20
-0.736553
11
1.81415
21
-0.736638
0
LINE
8
BLACK
6
CONTINUOUS
10
1.81415
20
-0.736638
11
1.81444
21
-0.737443
0
LINE
8
BLACK
6
CONTINUOUS
10
1.81444
20
-0.737443
11
1.81482
21
-0.738212
0
LINE
8
BLACK
6
CONTINUOUS
10
1.81482
20
-0.738212
11
1.81478
21
-0.738377
0
LINE
8
BLACK
6
CONTINUOUS
10
1.81478
20
-0.738377
11
1.81484
21
-0.738536
0
LINE
8
BLACK
6
CONTINUOUS
10
1.81484
20
-0.738536
11
1.81484
21
-0.774954
0
LINE
8
BLACK
6
CONTINUOUS
10
1.81484
20
-0.774954
11
1.82313
21
-0.774954
0
LINE
8
BLACK
6
CONTINUOUS
10
1.82313
20
-0.774954
11
1.82414
21
-0.775132
0
LINE
8
BLACK
6
CONTINUOUS
10
1.82414
20
-0.775132
11
1.82569
21
-0.77643
0
LINE
8
BLACK
6
CONTINUOUS
10
1.82569
20
-0.77643
11
1.82604
21
-0.778419
0
LINE
8
BLACK
6
CONTINUOUS
10
1.82604
20
-0.778419
11
1.82503
21
-0.780168
0
LINE
8
BLACK
6
CONTINUOUS
10
1.82503
20
-0.780168
11
1.82313
21
-0.780859
0
LINE
8
BLACK
6
CONTINUOUS
10
1.82313
20
-0.780859
11
1.80064
21
-0.780859
0
LINE
8
BLACK
6
CONTINUOUS
10
1.80064
20
-0.780859
11
1.79963
21
-0.780681
0
LINE
8
BLACK
6
CONTINUOUS
10
1.79963
20
-0.780681
11
1.79808
21
-0.779383
0
LINE
8
BLACK
6
CONTINUOUS
10
1.79808
20
-0.779383
11
1.79773
21
-0.777394
0
LINE
8
BLACK
6
CONTINUOUS
10
1.79773
20
-0.777394
11
1.79874
21
-0.775644
0
LINE
8
BLACK
6
CONTINUOUS
10
1.79874
20
-0.775644
11
1.80064
21
-0.774954
0
LINE
8
BLACK
6
CONTINUOUS
10
1.80064
20
-0.774954
11
1.80893
21
-0.774954
0
LINE
8
BLACK
6
CONTINUOUS
10
1.80893
20
-0.774954
11
1.80893
21
-0.74754
0
LINE
8
BLACK
6
CONTINUOUS
10
1.80893
20
-0.74754
11
1.80647
21
-0.749998
0
LINE
8
BLACK
6
CONTINUOUS
10
1.80647
20
-0.749998
11
1.80575
21
-0.750504
0
LINE
8
BLACK
6
CONTINUOUS
10
1.80575
20
-0.750504
11
1.80571
21
-0.750551
0
LINE
8
BLACK
6
CONTINUOUS
10
1.80571
20
-0.750551
11
1.80196
21
-0.752426
0
LINE
8
BLACK
6
CONTINUOUS
10
1.80196
20
-0.752426
11
1.80097
21
-0.752718
0
LINE
8
BLACK
6
CONTINUOUS
10
1.80097
20
-0.752718
11
1.79901
21
-0.752249
0
LINE
8
BLACK
6
CONTINUOUS
10
1.79901
20
-0.752249
11
1.79781
21
-0.750627
0
LINE
8
BLACK
6
CONTINUOUS
10
1.79781
20
-0.750627
11
1.79793
21
-0.74861
0
LINE
8
BLACK
6
CONTINUOUS
10
1.79793
20
-0.74861
11
1.79932
21
-0.747144
0
LINE
8
BLACK
6
CONTINUOUS
10
1.79932
20
-0.747144
11
1.80264
21
-0.745483
0
LINE
8
BLACK
6
CONTINUOUS
10
1.80264
20
-0.745483
11
1.80584
21
-0.742279
0
LINE
8
BLACK
6
CONTINUOUS
10
1.80584
20
-0.742279
11
1.80943
21
-0.736898
0
LINE
8
BLACK
6
CONTINUOUS
10
1.80943
20
-0.736898
11
1.81014
21
-0.736157
0
LINE
8
BLACK
6
CONTINUOUS
10
1.81014
20
-0.736157
11
1.8103
21
-0.736109
0
LINE
8
BLACK
6
CONTINUOUS
10
1.8103
20
-0.736109
11
1.81041
21
-0.735979
0
LINE
8
BLACK
6
CONTINUOUS
10
1.81041
20
-0.735979
11
1.81125
21
-0.73583
0
LINE
8
BLACK
6
CONTINUOUS
10
1.81125
20
-0.73583
11
1.81208
21
-0.73559
0
LINE
8
BLACK
6
CONTINUOUS
10
1.81208
20
-0.73559
11
1.81223
21
-0.735658
0
LINE
8
BLACK
6
CONTINUOUS
10
1.86264
20
-0.735607
11
1.86269
21
-0.73559
0
LINE
8
BLACK
6
CONTINUOUS
10
1.86269
20
-0.73559
11
1.8628
21
-0.735635
0
LINE
8
BLACK
6
CONTINUOUS
10
1.8628
20
-0.735635
11
1.86351
21
-0.735761
0
LINE
8
BLACK
6
CONTINUOUS
10
1.86351
20
-0.735761
11
1.86398
21
-0.736155
0
LINE
8
BLACK
6
CONTINUOUS
10
1.86398
20
-0.736155
11
1.86454
21
-0.736401
0
LINE
8
BLACK
6
CONTINUOUS
10
1.86454
20
-0.736401
11
1.86473
21
-0.736785
0
LINE
8
BLACK
6
CONTINUOUS
10
1.86473
20
-0.736785
11
1.86506
21
-0.73706
0
LINE
8
BLACK
6
CONTINUOUS
10
1.86506
20
-0.73706
11
1.86517
21
-0.737663
0
LINE
8
BLACK
6
CONTINUOUS
10
1.86517
20
-0.737663
11
1.86544
21
-0.738212
0
LINE
8
BLACK
6
CONTINUOUS
10
1.86544
20
-0.738212
11
1.86534
21
-0.738627
0
LINE
8
BLACK
6
CONTINUOUS
10
1.86534
20
-0.738627
11
1.86541
21
-0.739049
0
LINE
8
BLACK
6
CONTINUOUS
10
1.86541
20
-0.739049
11
1.86511
21
-0.739579
0
LINE
8
BLACK
6
CONTINUOUS
10
1.86511
20
-0.739579
11
1.86496
21
-0.740174
0
LINE
8
BLACK
6
CONTINUOUS
10
1.86496
20
-0.740174
11
1.84178
21
-0.774954
0
LINE
8
BLACK
6
CONTINUOUS
10
1.84178
20
-0.774954
11
1.8625
21
-0.774954
0
LINE
8
BLACK
6
CONTINUOUS
10
1.8625
20
-0.774954
11
1.86351
21
-0.775132
0
LINE
8
BLACK
6
CONTINUOUS
10
1.86351
20
-0.775132
11
1.86506
21
-0.77643
0
LINE
8
BLACK
6
CONTINUOUS
10
1.86506
20
-0.77643
11
1.86541
21
-0.778419
0
LINE
8
BLACK
6
CONTINUOUS
10
1.86541
20
-0.778419
11
1.8644
21
-0.780168
0
LINE
8
BLACK
6
CONTINUOUS
10
1.8644
20
-0.780168
11
1.8625
21
-0.780859
0
LINE
8
BLACK
6
CONTINUOUS
10
1.8625
20
-0.780859
11
1.83626
21
-0.780859
0
LINE
8
BLACK
6
CONTINUOUS
10
1.83626
20
-0.780859
11
1.83613
21
-0.780836
0
LINE
8
BLACK
6
CONTINUOUS
10
1.83613
20
-0.780836
11
1.83607
21
-0.780853
0
LINE
8
BLACK
6
CONTINUOUS
10
1.83607
20
-0.780853
11
1.83596
21
-0.780807
0
LINE
8
BLACK
6
CONTINUOUS
10
1.83596
20
-0.780807
11
1.83525
21
-0.780681
0
LINE
8
BLACK
6
CONTINUOUS
10
1.83525
20
-0.780681
11
1.83478
21
-0.780287
0
LINE
8
BLACK
6
CONTINUOUS
10
1.83478
20
-0.780287
11
1.83422
21
-0.780041
0
LINE
8
BLACK
6
CONTINUOUS
10
1.83422
20
-0.780041
11
1.83403
21
-0.779658
0
LINE
8
BLACK
6
CONTINUOUS
10
1.83403
20
-0.779658
11
1.8337
21
-0.779383
0
LINE
8
BLACK
6
CONTINUOUS
10
1.8337
20
-0.779383
11
1.83359
21
-0.77878
0
LINE
8
BLACK
6
CONTINUOUS
10
1.83359
20
-0.77878
11
1.83332
21
-0.778231
0
LINE
8
BLACK
6
CONTINUOUS
10
1.83332
20
-0.778231
11
1.83342
21
-0.777815
0
LINE
8
BLACK
6
CONTINUOUS
10
1.83342
20
-0.777815
11
1.83335
21
-0.777394
0
LINE
8
BLACK
6
CONTINUOUS
10
1.83335
20
-0.777394
11
1.83366
21
-0.776863
0
LINE
8
BLACK
6
CONTINUOUS
10
1.83366
20
-0.776863
11
1.8338
21
-0.776268
0
LINE
8
BLACK
6
CONTINUOUS
10
1.8338
20
-0.776268
11
1.85699
21
-0.741489
0
LINE
8
BLACK
6
CONTINUOUS
10
1.85699
20
-0.741489
11
1.83626
21
-0.741489
0
LINE
8
BLACK
6
CONTINUOUS
10
1.83626
20
-0.741489
11
1.83525
21
-0.741311
0
LINE
8
BLACK
6
CONTINUOUS
10
1.83525
20
-0.741311
11
1.8337
21
-0.740013
0
LINE
8
BLACK
6
CONTINUOUS
10
1.8337
20
-0.740013
11
1.83335
21
-0.738023
0
LINE
8
BLACK
6
CONTINUOUS
10
1.83335
20
-0.738023
11
1.83436
21
-0.736274
0
LINE
8
BLACK
6
CONTINUOUS
10
1.83436
20
-0.736274
11
1.83626
21
-0.735583
0
LINE
8
BLACK
6
CONTINUOUS
10
1.83626
20
-0.735583
11
1.8625
21
-0.735583
0
LINE
8
BLACK
6
CONTINUOUS
10
1.8625
20
-0.735583
11
1.86264
21
-0.735607
0
LINE
8
BLACK
6
CONTINUOUS
10
1.98898
20
-0.735737
11
1.98905
21
-0.735735
0
LINE
8
BLACK
6
CONTINUOUS
10
1.98905
20
-0.735735
11
1.99467
21
-0.73761
0
LINE
8
BLACK
6
CONTINUOUS
10
1.99467
20
-0.73761
11
1.99557
21
-0.738098
0
LINE
8
BLACK
6
CONTINUOUS
10
1.99557
20
-0.738098
11
1.99663
21
-0.739819
0
LINE
8
BLACK
6
CONTINUOUS
10
1.99663
20
-0.739819
11
1.99633
21
-0.741817
0
LINE
8
BLACK
6
CONTINUOUS
10
1.99633
20
-0.741817
11
1.99482
21
-0.743157
0
LINE
8
BLACK
6
CONTINUOUS
10
1.99482
20
-0.743157
11
1.9928
21
-0.743212
0
LINE
8
BLACK
6
CONTINUOUS
10
1.9928
20
-0.743212
11
1.98763
21
-0.741489
0
LINE
8
BLACK
6
CONTINUOUS
10
1.98763
20
-0.741489
11
1.97944
21
-0.741489
0
LINE
8
BLACK
6
CONTINUOUS
10
1.97944
20
-0.741489
11
1.97674
21
-0.742838
0
LINE
8
BLACK
6
CONTINUOUS
10
1.97674
20
-0.742838
11
1.97554
21
-0.744035
0
LINE
8
BLACK
6
CONTINUOUS
10
1.97554
20
-0.744035
11
1.97419
21
-0.746732
0
LINE
8
BLACK
6
CONTINUOUS
10
1.97419
20
-0.746732
11
1.97419
21
-0.749088
0
LINE
8
BLACK
6
CONTINUOUS
10
1.97419
20
-0.749088
11
1.97554
21
-0.751785
0
LINE
8
BLACK
6
CONTINUOUS
10
1.97554
20
-0.751785
11
1.97674
21
-0.752982
0
LINE
8
BLACK
6
CONTINUOUS
10
1.97674
20
-0.752982
11
1.97977
21
-0.754498
0
LINE
8
BLACK
6
CONTINUOUS
10
1.97977
20
-0.754498
11
1.98696
21
-0.756294
0
LINE
8
BLACK
6
CONTINUOUS
10
1.98696
20
-0.756294
11
1.98742
21
-0.756502
0
LINE
8
BLACK
6
CONTINUOUS
10
1.98742
20
-0.756502
11
1.98756
21
-0.756518
0
LINE
8
BLACK
6
CONTINUOUS
10
1.98756
20
-0.756518
11
1.99131
21
-0.758392
0
LINE
8
BLACK
6
CONTINUOUS
10
1.99131
20
-0.758392
11
1.99202
21
-0.758918
0
LINE
8
BLACK
6
CONTINUOUS
10
1.99202
20
-0.758918
11
1.99208
21
-0.758945
0
LINE
8
BLACK
6
CONTINUOUS
10
1.99208
20
-0.758945
11
1.99395
21
-0.76082
0
LINE
8
BLACK
6
CONTINUOUS
10
1.99395
20
-0.76082
11
1.99446
21
-0.761543
0
LINE
8
BLACK
6
CONTINUOUS
10
1.99446
20
-0.761543
11
1.9945
21
-0.761588
0
LINE
8
BLACK
6
CONTINUOUS
10
1.9945
20
-0.761588
11
1.99638
21
-0.765337
0
LINE
8
BLACK
6
CONTINUOUS
10
1.99638
20
-0.765337
11
1.99667
21
-0.76632
0
LINE
8
BLACK
6
CONTINUOUS
10
1.99667
20
-0.76632
11
1.99663
21
-0.766492
0
LINE
8
BLACK
6
CONTINUOUS
10
1.99663
20
-0.766492
11
1.99669
21
-0.766658
0
LINE
8
BLACK
6
CONTINUOUS
10
1.99669
20
-0.766658
11
1.99669
21
-0.770407
0
LINE
8
BLACK
6
CONTINUOUS
10
1.99669
20
-0.770407
11
1.99651
21
-0.771417
0
LINE
8
BLACK
6
CONTINUOUS
10
1.99651
20
-0.771417
11
1.9964
21
-0.771552
0
LINE
8
BLACK
6
CONTINUOUS
10
1.9964
20
-0.771552
11
1.99638
21
-0.771728
0
LINE
8
BLACK
6
CONTINUOUS
10
1.99638
20
-0.771728
11
1.9945
21
-0.775477
0
LINE
8
BLACK
6
CONTINUOUS
10
1.9945
20
-0.775477
11
1.99398
21
-0.776186
0
LINE
8
BLACK
6
CONTINUOUS
10
1.99398
20
-0.776186
11
1.99395
21
-0.776245
0
LINE
8
BLACK
6
CONTINUOUS
10
1.99395
20
-0.776245
11
1.99208
21
-0.778119
0
LINE
8
BLACK
6
CONTINUOUS
10
1.99208
20
-0.778119
11
1.99135
21
-0.778626
0
LINE
8
BLACK
6
CONTINUOUS
10
1.99135
20
-0.778626
11
1.99131
21
-0.778673
0
LINE
8
BLACK
6
CONTINUOUS
10
1.99131
20
-0.778673
11
1.98756
21
-0.780547
0
LINE
8
BLACK
6
CONTINUOUS
10
1.98756
20
-0.780547
11
1.98658
21
-0.78084
0
LINE
8
BLACK
6
CONTINUOUS
10
1.98658
20
-0.78084
11
1.98641
21
-0.780799
0
LINE
8
BLACK
6
CONTINUOUS
10
1.98641
20
-0.780799
11
1.98624
21
-0.780859
0
LINE
8
BLACK
6
CONTINUOUS
10
1.98624
20
-0.780859
11
1.97687
21
-0.780859
0
LINE
8
BLACK
6
CONTINUOUS
10
1.97687
20
-0.780859
11
1.976
21
-0.780706
0
LINE
8
BLACK
6
CONTINUOUS
10
1.976
20
-0.780706
11
1.97593
21
-0.780707
0
LINE
8
BLACK
6
CONTINUOUS
10
1.97593
20
-0.780707
11
1.97031
21
-0.778833
0
LINE
8
BLACK
6
CONTINUOUS
10
1.97031
20
-0.778833
11
1.96941
21
-0.778344
0
LINE
8
BLACK
6
CONTINUOUS
10
1.96941
20
-0.778344
11
1.96835
21
-0.776623
0
LINE
8
BLACK
6
CONTINUOUS
10
1.96835
20
-0.776623
11
1.96864
21
-0.774625
0
LINE
8
BLACK
6
CONTINUOUS
10
1.96864
20
-0.774625
11
1.97016
21
-0.773285
0
LINE
8
BLACK
6
CONTINUOUS
10
1.97016
20
-0.773285
11
1.97217
21
-0.77323
0
LINE
8
BLACK
6
CONTINUOUS
10
1.97217
20
-0.77323
11
1.97734
21
-0.774954
0
LINE
8
BLACK
6
CONTINUOUS
10
1.97734
20
-0.774954
11
1.98554
21
-0.774954
0
LINE
8
BLACK
6
CONTINUOUS
10
1.98554
20
-0.774954
11
1.98824
21
-0.773605
0
LINE
8
BLACK
6
CONTINUOUS
10
1.98824
20
-0.773605
11
1.98944
21
-0.772408
0
LINE
8
BLACK
6
CONTINUOUS
10
1.98944
20
-0.772408
11
1.99079
21
-0.76971
0
LINE
8
BLACK
6
CONTINUOUS
10
1.99079
20
-0.76971
11
1.99079
21
-0.767355
0
LINE
8
BLACK
6
CONTINUOUS
10
1.99079
20
-0.767355
11
1.98944
21
-0.764657
0
LINE
8
BLACK
6
CONTINUOUS
10
1.98944
20
-0.764657
11
1.98824
21
-0.76346
0
LINE
8
BLACK
6
CONTINUOUS
10
1.98824
20
-0.76346
11
1.98521
21
-0.761945
0
LINE
8
BLACK
6
CONTINUOUS
10
1.98521
20
-0.761945
11
1.97802
21
-0.760148
0
LINE
8
BLACK
6
CONTINUOUS
10
1.97802
20
-0.760148
11
1.97756
21
-0.759941
0
LINE
8
BLACK
6
CONTINUOUS
10
1.97756
20
-0.759941
11
1.97742
21
-0.759925
0
LINE
8
BLACK
6
CONTINUOUS
10
1.97742
20
-0.759925
11
1.97367
21
-0.75805
0
LINE
8
BLACK
6
CONTINUOUS
10
1.97367
20
-0.75805
11
1.97296
21
-0.757524
0
LINE
8
BLACK
6
CONTINUOUS
10
1.97296
20
-0.757524
11
1.9729
21
-0.757497
0
LINE
8
BLACK
6
CONTINUOUS
10
1.9729
20
-0.757497
11
1.97103
21
-0.755622
0
LINE
8
BLACK
6
CONTINUOUS
10
1.97103
20
-0.755622
11
1.97052
21
-0.754899
0
LINE
8
BLACK
6
CONTINUOUS
10
1.97052
20
-0.754899
11
1.97047
21
-0.754855
0
LINE
8
BLACK
6
CONTINUOUS
10
1.97047
20
-0.754855
11
1.9686
21
-0.751105
0
LINE
8
BLACK
6
CONTINUOUS
10
1.9686
20
-0.751105
11
1.96831
21
-0.750122
0
LINE
8
BLACK
6
CONTINUOUS
10
1.96831
20
-0.750122
11
1.96835
21
-0.749951
0
LINE
8
BLACK
6
CONTINUOUS
10
1.96835
20
-0.749951
11
1.96829
21
-0.749785
0
LINE
8
BLACK
6
CONTINUOUS
10
1.96829
20
-0.749785
11
1.96829
21
-0.746035
0
LINE
8
BLACK
6
CONTINUOUS
10
1.96829
20
-0.746035
11
1.96847
21
-0.745025
0
LINE
8
BLACK
6
CONTINUOUS
10
1.96847
20
-0.745025
11
1.96858
21
-0.74489
0
LINE
8
BLACK
6
CONTINUOUS
10
1.96858
20
-0.74489
11
1.9686
21
-0.744715
0
LINE
8
BLACK
6
CONTINUOUS
10
1.9686
20
-0.744715
11
1.97047
21
-0.740965
0
LINE
8
BLACK
6
CONTINUOUS
10
1.97047
20
-0.740965
11
1.971
21
-0.740256
0
LINE
8
BLACK
6
CONTINUOUS
10
1.971
20
-0.740256
11
1.97103
21
-0.740198
0
LINE
8
BLACK
6
CONTINUOUS
10
1.97103
20
-0.740198
11
1.9729
21
-0.738323
0
LINE
8
BLACK
6
CONTINUOUS
10
1.9729
20
-0.738323
11
1.97363
21
-0.737817
0
LINE
8
BLACK
6
CONTINUOUS
10
1.97363
20
-0.737817
11
1.97367
21
-0.73777
0
LINE
8
BLACK
6
CONTINUOUS
10
1.97367
20
-0.73777
11
1.97742
21
-0.735895
0
LINE
8
BLACK
6
CONTINUOUS
10
1.97742
20
-0.735895
11
1.9784
21
-0.735603
0
LINE
8
BLACK
6
CONTINUOUS
10
1.9784
20
-0.735603
11
1.97857
21
-0.735644
0
LINE
8
BLACK
6
CONTINUOUS
10
1.97857
20
-0.735644
11
1.97874
21
-0.735583
0
LINE
8
BLACK
6
CONTINUOUS
10
1.97874
20
-0.735583
11
1.98811
21
-0.735583
0
LINE
8
BLACK
6
CONTINUOUS
10
1.98811
20
-0.735583
11
1.98898
21
-0.735737
0
LINE
8
BLACK
6
CONTINUOUS
10
2.02287
20
-0.735761
11
2.023
21
-0.735875
0
LINE
8
BLACK
6
CONTINUOUS
10
2.023
20
-0.735875
11
2.02318
21
-0.735895
0
LINE
8
BLACK
6
CONTINUOUS
10
2.02318
20
-0.735895
11
2.02693
21
-0.73777
0
LINE
8
BLACK
6
CONTINUOUS
10
2.02693
20
-0.73777
11
2.02764
21
-0.738296
0
LINE
8
BLACK
6
CONTINUOUS
10
2.02764
20
-0.738296
11
2.0277
21
-0.738323
0
LINE
8
BLACK
6
CONTINUOUS
10
2.0277
20
-0.738323
11
2.02957
21
-0.740198
0
LINE
8
BLACK
6
CONTINUOUS
10
2.02957
20
-0.740198
11
2.03008
21
-0.740921
0
LINE
8
BLACK
6
CONTINUOUS
10
2.03008
20
-0.740921
11
2.03013
21
-0.740965
0
LINE
8
BLACK
6
CONTINUOUS
10
2.03013
20
-0.740965
11
2.032
21
-0.744715
0
LINE
8
BLACK
6
CONTINUOUS
10
2.032
20
-0.744715
11
2.03215
21
-0.745203
0
LINE
8
BLACK
6
CONTINUOUS
10
2.03215
20
-0.745203
11
2.03222
21
-0.745319
0
LINE
8
BLACK
6
CONTINUOUS
10
2.03222
20
-0.745319
11
2.0341
21
-0.752818
0
LINE
8
BLACK
6
CONTINUOUS
10
2.0341
20
-0.752818
11
2.03414
21
-0.753406
0
LINE
8
BLACK
6
CONTINUOUS
10
2.03414
20
-0.753406
11
2.03419
21
-0.753534
0
LINE
8
BLACK
6
CONTINUOUS
10
2.03419
20
-0.753534
11
2.03419
21
-0.762908
0
LINE
8
BLACK
6
CONTINUOUS
10
2.03419
20
-0.762908
11
2.03408
21
-0.763488
0
LINE
8
BLACK
6
CONTINUOUS
10
2.03408
20
-0.763488
11
2.0341
21
-0.763624
0
LINE
8
BLACK
6
CONTINUOUS
10
2.0341
20
-0.763624
11
2.03222
21
-0.771123
0
LINE
8
BLACK
6
CONTINUOUS
10
2.03222
20
-0.771123
11
2.03202
21
-0.771589
0
LINE
8
BLACK
6
CONTINUOUS
10
2.03202
20
-0.771589
11
2.032
21
-0.771728
0
LINE
8
BLACK
6
CONTINUOUS
10
2.032
20
-0.771728
11
2.03013
21
-0.775477
0
LINE
8
BLACK
6
CONTINUOUS
10
2.03013
20
-0.775477
11
2.0296
21
-0.776186
0
LINE
8
BLACK
6
CONTINUOUS
10
2.0296
20
-0.776186
11
2.02957
21
-0.776245
0
LINE
8
BLACK
6
CONTINUOUS
10
2.02957
20
-0.776245
11
2.0277
21
-0.778119
0
LINE
8
BLACK
6
CONTINUOUS
10
2.0277
20
-0.778119
11
2.02697
21
-0.778626
0
LINE
8
BLACK
6
CONTINUOUS
10
2.02697
20
-0.778626
11
2.02693
21
-0.778673
0
LINE
8
BLACK
6
CONTINUOUS
10
2.02693
20
-0.778673
11
2.02318
21
-0.780547
0
LINE
8
BLACK
6
CONTINUOUS
10
2.02318
20
-0.780547
11
2.0222
21
-0.78084
0
LINE
8
BLACK
6
CONTINUOUS
10
2.0222
20
-0.78084
11
2.02203
21
-0.780799
0
LINE
8
BLACK
6
CONTINUOUS
10
2.02203
20
-0.780799
11
2.02186
21
-0.780859
0
LINE
8
BLACK
6
CONTINUOUS
10
2.02186
20
-0.780859
11
2.01811
21
-0.780859
0
LINE
8
BLACK
6
CONTINUOUS
10
2.01811
20
-0.780859
11
2.0171
21
-0.780681
0
LINE
8
BLACK
6
CONTINUOUS
10
2.0171
20
-0.780681
11
2.01697
21
-0.780567
0
LINE
8
BLACK
6
CONTINUOUS
10
2.01697
20
-0.780567
11
2.01679
21
-0.780547
0
LINE
8
BLACK
6
CONTINUOUS
10
2.01679
20
-0.780547
11
2.01304
21
-0.778673
0
LINE
8
BLACK
6
CONTINUOUS
10
2.01304
20
-0.778673
11
2.01233
21
-0.778147
0
LINE
8
BLACK
6
CONTINUOUS
10
2.01233
20
-0.778147
11
2.01227
21
-0.778119
0
LINE
8
BLACK
6
CONTINUOUS
10
2.01227
20
-0.778119
11
2.0104
21
-0.776245
0
LINE
8
BLACK
6
CONTINUOUS
10
2.0104
20
-0.776245
11
2.00989
21
-0.775521
0
LINE
8
BLACK
6
CONTINUOUS
10
2.00989
20
-0.775521
11
2.00984
21
-0.775477
0
LINE
8
BLACK
6
CONTINUOUS
10
2.00984
20
-0.775477
11
2.00797
21
-0.771728
0
LINE
8
BLACK
6
CONTINUOUS
10
2.00797
20
-0.771728
11
2.00782
21
-0.771239
0
LINE
8
BLACK
6
CONTINUOUS
10
2.00782
20
-0.771239
11
2.00775
21
-0.771123
0
LINE
8
BLACK
6
CONTINUOUS
10
2.00775
20
-0.771123
11
2.00587
21
-0.763624
0
LINE
8
BLACK
6
CONTINUOUS
10
2.00587
20
-0.763624
11
2.00583
21
-0.763036
0
LINE
8
BLACK
6
CONTINUOUS
10
2.00583
20
-0.763036
11
2.00578
21
-0.762908
0
LINE
8
BLACK
6
CONTINUOUS
10
2.00578
20
-0.762908
11
2.00578
21
-0.753534
0
LINE
8
BLACK
6
CONTINUOUS
10
2.00578
20
-0.753534
11
2.00589
21
-0.752954
0
LINE
8
BLACK
6
CONTINUOUS
10
2.00589
20
-0.752954
11
2.00587
21
-0.752818
0
LINE
8
BLACK
6
CONTINUOUS
10
2.00587
20
-0.752818
11
2.00775
21
-0.745319
0
LINE
8
BLACK
6
CONTINUOUS
10
2.00775
20
-0.745319
11
2.00795
21
-0.744854
0
LINE
8
BLACK
6
CONTINUOUS
10
2.00795
20
-0.744854
11
2.00797
21
-0.744715
0
LINE
8
BLACK
6
CONTINUOUS
10
2.00797
20
-0.744715
11
2.00984
21
-0.740965
0
LINE
8
BLACK
6
CONTINUOUS
10
2.00984
20
-0.740965
11
2.01037
21
-0.740256
0
LINE
8
BLACK
6
CONTINUOUS
10
2.01037
20
-0.740256
11
2.0104
21
-0.740198
0
LINE
8
BLACK
6
CONTINUOUS
10
2.0104
20
-0.740198
11
2.01227
21
-0.738323
0
LINE
8
BLACK
6
CONTINUOUS
10
2.01227
20
-0.738323
11
2.013
21
-0.737817
0
LINE
8
BLACK
6
CONTINUOUS
10
2.013
20
-0.737817
11
2.01304
21
-0.73777
0
LINE
8
BLACK
6
CONTINUOUS
10
2.01304
20
-0.73777
11
2.01679
21
-0.735895
0
LINE
8
BLACK
6
CONTINUOUS
10
2.01679
20
-0.735895
11
2.01777
21
-0.735603
0
LINE
8
BLACK
6
CONTINUOUS
10
2.01777
20
-0.735603
11
2.01794
21
-0.735644
0
LINE
8
BLACK
6
CONTINUOUS
10
2.01794
20
-0.735644
11
2.01811
21
-0.735583
0
LINE
8
BLACK
6
CONTINUOUS
10
2.01811
20
-0.735583
11
2.02186
21
-0.735583
0
LINE
8
BLACK
6
CONTINUOUS
10
2.02186
20
-0.735583
11
2.02287
21
-0.735761
0
LINE
8
BLACK
6
CONTINUOUS
10
2.01611
20
-0.742838
11
2.01491
21
-0.744035
0
LINE
8
BLACK
6
CONTINUOUS
10
2.01491
20
-0.744035
11
2.0134
21
-0.747066
0
LINE
8
BLACK
6
CONTINUOUS
10
2.0134
20
-0.747066
11
2.01169
21
-0.753898
0
LINE
8
BLACK
6
CONTINUOUS
10
2.01169
20
-0.753898
11
2.01169
21
-0.762545
0
LINE
8
BLACK
6
CONTINUOUS
10
2.01169
20
-0.762545
11
2.0134
21
-0.769377
0
LINE
8
BLACK
6
CONTINUOUS
10
2.0134
20
-0.769377
11
2.01491
21
-0.772408
0
LINE
8
BLACK
6
CONTINUOUS
10
2.01491
20
-0.772408
11
2.01611
21
-0.773605
0
LINE
8
BLACK
6
CONTINUOUS
10
2.01611
20
-0.773605
11
2.01881
21
-0.774954
0
LINE
8
BLACK
6
CONTINUOUS
10
2.01881
20
-0.774954
11
2.02116
21
-0.774954
0
LINE
8
BLACK
6
CONTINUOUS
10
2.02116
20
-0.774954
11
2.02386
21
-0.773605
0
LINE
8
BLACK
6
CONTINUOUS
10
2.02386
20
-0.773605
11
2.02506
21
-0.772408
0
LINE
8
BLACK
6
CONTINUOUS
10
2.02506
20
-0.772408
11
2.02657
21
-0.769377
0
LINE
8
BLACK
6
CONTINUOUS
10
2.02657
20
-0.769377
11
2.02828
21
-0.762545
0
LINE
8
BLACK
6
CONTINUOUS
10
2.02828
20
-0.762545
11
2.02828
21
-0.753898
0
LINE
8
BLACK
6
CONTINUOUS
10
2.02828
20
-0.753898
11
2.02657
21
-0.747066
0
LINE
8
BLACK
6
CONTINUOUS
10
2.02657
20
-0.747066
11
2.02506
21
-0.744035
0
LINE
8
BLACK
6
CONTINUOUS
10
2.02506
20
-0.744035
11
2.02386
21
-0.742838
0
LINE
8
BLACK
6
CONTINUOUS
10
2.02386
20
-0.742838
11
2.02116
21
-0.741489
0
LINE
8
BLACK
6
CONTINUOUS
10
2.02116
20
-0.741489
11
2.01881
21
-0.741489
0
LINE
8
BLACK
6
CONTINUOUS
10
2.01881
20
-0.741489
11
2.01611
21
-0.742838
0
LINE
8
BLACK
6
CONTINUOUS
10
2.06786
20
-0.735761
11
2.06941
21
-0.73706
0
LINE
8
BLACK
6
CONTINUOUS
10
2.06941
20
-0.73706
11
2.06976
21
-0.739049
0
LINE
8
BLACK
6
CONTINUOUS
10
2.06976
20
-0.739049
11
2.06875
21
-0.740798
0
LINE
8
BLACK
6
CONTINUOUS
10
2.06875
20
-0.740798
11
2.06685
21
-0.741489
0
LINE
8
BLACK
6
CONTINUOUS
10
2.06685
20
-0.741489
11
2.05078
21
-0.741489
0
LINE
8
BLACK
6
CONTINUOUS
10
2.05078
20
-0.741489
11
2.0498
21
-0.75126
0
LINE
8
BLACK
6
CONTINUOUS
10
2.0498
20
-0.75126
11
2.05054
21
-0.750893
0
LINE
8
BLACK
6
CONTINUOUS
10
2.05054
20
-0.750893
11
2.05152
21
-0.750601
0
LINE
8
BLACK
6
CONTINUOUS
10
2.05152
20
-0.750601
11
2.05169
21
-0.750642
0
LINE
8
BLACK
6
CONTINUOUS
10
2.05169
20
-0.750642
11
2.05186
21
-0.750582
0
LINE
8
BLACK
6
CONTINUOUS
10
2.05186
20
-0.750582
11
2.06123
21
-0.750582
0
LINE
8
BLACK
6
CONTINUOUS
10
2.06123
20
-0.750582
11
2.06224
21
-0.75076
0
LINE
8
BLACK
6
CONTINUOUS
10
2.06224
20
-0.75076
11
2.06237
21
-0.750873
0
LINE
8
BLACK
6
CONTINUOUS
10
2.06237
20
-0.750873
11
2.06255
21
-0.750893
0
LINE
8
BLACK
6
CONTINUOUS
10
2.06255
20
-0.750893
11
2.0663
21
-0.752768
0
LINE
8
BLACK
6
CONTINUOUS
10
2.0663
20
-0.752768
11
2.06701
21
-0.753294
0
LINE
8
BLACK
6
CONTINUOUS
10
2.06701
20
-0.753294
11
2.06707
21
-0.753321
0
LINE
8
BLACK
6
CONTINUOUS
10
2.06707
20
-0.753321
11
2.06894
21
-0.755196
0
LINE
8
BLACK
6
CONTINUOUS
10
2.06894
20
-0.755196
11
2.06945
21
-0.755919
0
LINE
8
BLACK
6
CONTINUOUS
10
2.06945
20
-0.755919
11
2.0695
21
-0.755963
0
LINE
8
BLACK
6
CONTINUOUS
10
2.0695
20
-0.755963
11
2.07137
21
-0.759713
0
LINE
8
BLACK
6
CONTINUOUS
10
2.07137
20
-0.759713
11
2.07166
21
-0.760696
0
LINE
8
BLACK
6
CONTINUOUS
10
2.07166
20
-0.760696
11
2.07162
21
-0.760867
0
LINE
8
BLACK
6
CONTINUOUS
10
2.07162
20
-0.760867
11
2.07168
21
-0.761033
0
LINE
8
BLACK
6
CONTINUOUS
10
2.07168
20
-0.761033
11
2.07168
21
-0.770407
0
LINE
8
BLACK
6
CONTINUOUS
10
2.07168
20
-0.770407
11
2.0715
21
-0.771417
0
LINE
8
BLACK
6
CONTINUOUS
10
2.0715
20
-0.771417
11
2.07139
21
-0.771552
0
LINE
8
BLACK
6
CONTINUOUS
10
2.07139
20
-0.771552
11
2.07137
21
-0.771728
0
LINE
8
BLACK
6
CONTINUOUS
10
2.07137
20
-0.771728
11
2.0695
21
-0.775477
0
LINE
8
BLACK
6
CONTINUOUS
10
2.0695
20
-0.775477
11
2.06897
21
-0.776186
0
LINE
8
BLACK
6
CONTINUOUS
10
2.06897
20
-0.776186
11
2.06894
21
-0.776245
0
LINE
8
BLACK
6
CONTINUOUS
10
2.06894
20
-0.776245
11
2.06707
21
-0.778119
0
LINE
8
BLACK
6
CONTINUOUS
10
2.06707
20
-0.778119
11
2.06634
21
-0.778626
0
LINE
8
BLACK
6
CONTINUOUS
10
2.06634
20
-0.778626
11
2.0663
21
-0.778673
0
LINE
8
BLACK
6
CONTINUOUS
10
2.0663
20
-0.778673
11
2.06255
21
-0.780547
0
LINE
8
BLACK
6
CONTINUOUS
10
2.06255
20
-0.780547
11
2.06157
21
-0.78084
0
LINE
8
BLACK
6
CONTINUOUS
10
2.06157
20
-0.78084
11
2.0614
21
-0.780799
0
LINE
8
BLACK
6
CONTINUOUS
10
2.0614
20
-0.780799
11
2.06123
21
-0.780859
0
LINE
8
BLACK
6
CONTINUOUS
10
2.06123
20
-0.780859
11
2.05186
21
-0.780859
0
LINE
8
BLACK
6
CONTINUOUS
10
2.05186
20
-0.780859
11
2.05085
21
-0.780681
0
LINE
8
BLACK
6
CONTINUOUS
10
2.05085
20
-0.780681
11
2.05071
21
-0.780567
0
LINE
8
BLACK
6
CONTINUOUS
10
2.05071
20
-0.780567
11
2.05054
21
-0.780547
0
LINE
8
BLACK
6
CONTINUOUS
10
2.05054
20
-0.780547
11
2.04679
21
-0.778673
0
LINE
8
BLACK
6
CONTINUOUS
10
2.04679
20
-0.778673
11
2.04608
21
-0.778147
0
LINE
8
BLACK
6
CONTINUOUS
10
2.04608
20
-0.778147
11
2.04602
21
-0.778119
0
LINE
8
BLACK
6
CONTINUOUS
10
2.04602
20
-0.778119
11
2.04414
21
-0.776245
0
LINE
8
BLACK
6
CONTINUOUS
10
2.04414
20
-0.776245
11
2.04356
21
-0.775405
0
LINE
8
BLACK
6
CONTINUOUS
10
2.04356
20
-0.775405
11
2.04338
21
-0.773392
0
LINE
8
BLACK
6
CONTINUOUS
10
2.04338
20
-0.773392
11
2.04454
21
-0.771738
0
LINE
8
BLACK
6
CONTINUOUS
10
2.04454
20
-0.771738
11
2.04649
21
-0.771215
0
LINE
8
BLACK
6
CONTINUOUS
10
2.04649
20
-0.771215
11
2.04832
21
-0.772069
0
LINE
8
BLACK
6
CONTINUOUS
10
2.04832
20
-0.772069
11
2.04986
21
-0.773605
0
LINE
8
BLACK
6
CONTINUOUS
10
2.04986
20
-0.773605
11
2.05255
21
-0.774954
0
LINE
8
BLACK
6
CONTINUOUS
10
2.05255
20
-0.774954
11
2.06053
21
-0.774954
0
LINE
8
BLACK
6
CONTINUOUS
10
2.06053
20
-0.774954
11
2.06323
21
-0.773605
0
LINE
8
BLACK
6
CONTINUOUS
10
2.06323
20
-0.773605
11
2.06443
21
-0.772408
0
LINE
8
BLACK
6
CONTINUOUS
10
2.06443
20
-0.772408
11
2.06578
21
-0.76971
0
LINE
8
BLACK
6
CONTINUOUS
10
2.06578
20
-0.76971
11
2.06578
21
-0.76173
0
LINE
8
BLACK
6
CONTINUOUS
10
2.06578
20
-0.76173
11
2.06443
21
-0.759033
0
LINE
8
BLACK
6
CONTINUOUS
10
2.06443
20
-0.759033
11
2.06323
21
-0.757836
0
LINE
8
BLACK
6
CONTINUOUS
10
2.06323
20
-0.757836
11
2.06053
21
-0.756487
0
LINE
8
BLACK
6
CONTINUOUS
10
2.06053
20
-0.756487
11
2.05255
21
-0.756487
0
LINE
8
BLACK
6
CONTINUOUS
10
2.05255
20
-0.756487
11
2.04986
21
-0.757836
0
LINE
8
BLACK
6
CONTINUOUS
10
2.04986
20
-0.757836
11
2.04832
21
-0.759372
0
LINE
8
BLACK
6
CONTINUOUS
10
2.04832
20
-0.759372
11
2.04748
21
-0.75996
0
LINE
8
BLACK
6
CONTINUOUS
10
2.04748
20
-0.75996
11
2.04746
21
-0.759962
0
LINE
8
BLACK
6
CONTINUOUS
10
2.04746
20
-0.759962
11
2.04745
21
-0.759975
0
LINE
8
BLACK
6
CONTINUOUS
10
2.04745
20
-0.759975
11
2.04646
21
-0.760049
0
LINE
8
BLACK
6
CONTINUOUS
10
2.04646
20
-0.760049
11
2.04547
21
-0.760136
0
LINE
8
BLACK
6
CONTINUOUS
10
2.04547
20
-0.760136
11
2.04545
21
-0.760125
0
LINE
8
BLACK
6
CONTINUOUS
10
2.04545
20
-0.760125
11
2.04543
21
-0.760126
0
LINE
8
BLACK
6
CONTINUOUS
10
2.04543
20
-0.760126
11
2.04463
21
-0.759546
0
LINE
8
BLACK
6
CONTINUOUS
10
2.04463
20
-0.759546
11
2.04381
21
-0.758977
0
LINE
8
BLACK
6
CONTINUOUS
10
2.04381
20
-0.758977
11
2.04381
21
-0.758959
0
LINE
8
BLACK
6
CONTINUOUS
10
2.04381
20
-0.758959
11
2.04379
21
-0.758947
0
LINE
8
BLACK
6
CONTINUOUS
10
2.04379
20
-0.758947
11
2.04355
21
-0.757986
0
LINE
8
BLACK
6
CONTINUOUS
10
2.04355
20
-0.757986
11
2.04329
21
-0.757026
0
LINE
8
BLACK
6
CONTINUOUS
10
2.04329
20
-0.757026
11
2.0433
21
-0.757009
0
LINE
8
BLACK
6
CONTINUOUS
10
2.0433
20
-0.757009
11
2.04329
21
-0.75699
0
LINE
8
BLACK
6
CONTINUOUS
10
2.04329
20
-0.75699
11
2.04517
21
-0.738242
0
LINE
8
BLACK
6
CONTINUOUS
10
2.04517
20
-0.738242
11
2.04521
21
-0.738092
0
LINE
8
BLACK
6
CONTINUOUS
10
2.04521
20
-0.738092
11
2.0452
21
-0.738023
0
LINE
8
BLACK
6
CONTINUOUS
10
2.0452
20
-0.738023
11
2.04526
21
-0.737917
0
LINE
8
BLACK
6
CONTINUOUS
10
2.04526
20
-0.737917
11
2.04545
21
-0.737255
0
LINE
8
BLACK
6
CONTINUOUS
10
2.04545
20
-0.737255
11
2.04589
21
-0.736817
0
LINE
8
BLACK
6
CONTINUOUS
10
2.04589
20
-0.736817
11
2.04621
21
-0.736274
0
LINE
8
BLACK
6
CONTINUOUS
10
2.04621
20
-0.736274
11
2.0466
21
-0.736133
0
LINE
8
BLACK
6
CONTINUOUS
10
2.0466
20
-0.736133
11
2.04689
21
-0.735845
0
LINE
8
BLACK
6
CONTINUOUS
10
2.04689
20
-0.735845
11
2.04752
21
-0.735798
0
LINE
8
BLACK
6
CONTINUOUS
10
2.04752
20
-0.735798
11
2.04811
21
-0.735583
0
LINE
8
BLACK
6
CONTINUOUS
10
2.04811
20
-0.735583
11
2.06685
21
-0.735583
0
LINE
8
BLACK
6
CONTINUOUS
10
2.06685
20
-0.735583
11
2.06786
21
-0.735761
0
LINE
8
BLACK
6
CONTINUOUS
10
1.89658
20
-0.74969
11
1.89733
21
-0.751565
0
LINE
8
BLACK
6
CONTINUOUS
10
1.89733
20
-0.751565
11
1.8967
21
-0.753484
0
LINE
8
BLACK
6
CONTINUOUS
10
1.8967
20
-0.753484
11
1.88782
21
-0.764783
0
LINE
8
BLACK
6
CONTINUOUS
10
1.88782
20
-0.764783
11
1.8967
21
-0.776082
0
LINE
8
BLACK
6
CONTINUOUS
10
1.8967
20
-0.776082
11
1.89718
21
-0.776986
0
LINE
8
BLACK
6
CONTINUOUS
10
1.89718
20
-0.776986
11
1.89712
21
-0.779005
0
LINE
8
BLACK
6
CONTINUOUS
10
1.89712
20
-0.779005
11
1.89577
21
-0.78051
0
LINE
8
BLACK
6
CONTINUOUS
10
1.89577
20
-0.78051
11
1.89377
21
-0.780796
0
LINE
8
BLACK
6
CONTINUOUS
10
1.89377
20
-0.780796
11
1.89205
21
-0.779731
0
LINE
8
BLACK
6
CONTINUOUS
10
1.89205
20
-0.779731
11
1.88406
21
-0.769562
0
LINE
8
BLACK
6
CONTINUOUS
10
1.88406
20
-0.769562
11
1.87608
21
-0.779731
0
LINE
8
BLACK
6
CONTINUOUS
10
1.87608
20
-0.779731
11
1.87531
21
-0.780415
0
LINE
8
BLACK
6
CONTINUOUS
10
1.87531
20
-0.780415
11
1.87333
21
-0.780829
0
LINE
8
BLACK
6
CONTINUOUS
10
1.87333
20
-0.780829
11
1.87155
21
-0.779876
0
LINE
8
BLACK
6
CONTINUOUS
10
1.87155
20
-0.779876
11
1.8708
21
-0.778001
0
LINE
8
BLACK
6
CONTINUOUS
10
1.8708
20
-0.778001
11
1.87143
21
-0.776082
0
LINE
8
BLACK
6
CONTINUOUS
10
1.87143
20
-0.776082
11
1.88031
21
-0.764783
0
LINE
8
BLACK
6
CONTINUOUS
10
1.88031
20
-0.764783
11
1.87143
21
-0.753484
0
LINE
8
BLACK
6
CONTINUOUS
10
1.87143
20
-0.753484
11
1.87095
21
-0.75258
0
LINE
8
BLACK
6
CONTINUOUS
10
1.87095
20
-0.75258
11
1.87101
21
-0.750561
0
LINE
8
BLACK
6
CONTINUOUS
10
1.87101
20
-0.750561
11
1.87236
21
-0.749056
0
LINE
8
BLACK
6
CONTINUOUS
10
1.87236
20
-0.749056
11
1.87436
21
-0.74877
0
LINE
8
BLACK
6
CONTINUOUS
10
1.87436
20
-0.74877
11
1.87608
21
-0.749835
0
LINE
8
BLACK
6
CONTINUOUS
10
1.87608
20
-0.749835
11
1.88406
21
-0.760004
0
LINE
8
BLACK
6
CONTINUOUS
10
1.88406
20
-0.760004
11
1.89205
21
-0.749835
0
LINE
8
BLACK
6
CONTINUOUS
10
1.89205
20
-0.749835
11
1.89282
21
-0.749151
0
LINE
8
BLACK
6
CONTINUOUS
10
1.89282
20
-0.749151
11
1.89479
21
-0.748737
0
LINE
8
BLACK
6
CONTINUOUS
10
1.89479
20
-0.748737
11
1.89658
21
-0.74969
0
LINE
8
BLACK
6
CONTINUOUS
10
1.92845
20
-0.74969
11
1.9292
21
-0.751565
0
LINE
8
BLACK
6
CONTINUOUS
10
1.9292
20
-0.751565
11
1.92857
21
-0.753484
0
LINE
8
BLACK
6
CONTINUOUS
10
1.92857
20
-0.753484
11
1.91969
21
-0.764783
0
LINE
8
BLACK
6
CONTINUOUS
10
1.91969
20
-0.764783
11
1.92857
21
-0.776082
0
LINE
8
BLACK
6
CONTINUOUS
10
1.92857
20
-0.776082
11
1.92905
21
-0.776986
0
LINE
8
BLACK
6
CONTINUOUS
10
1.92905
20
-0.776986
11
1.92899
21
-0.779005
0
LINE
8
BLACK
6
CONTINUOUS
10
1.92899
20
-0.779005
11
1.92764
21
-0.78051
0
LINE
8
BLACK
6
CONTINUOUS
10
1.92764
20
-0.78051
11
1.92564
21
-0.780796
0
LINE
8
BLACK
6
CONTINUOUS
10
1.92564
20
-0.780796
11
1.92392
21
-0.779731
0
LINE
8
BLACK
6
CONTINUOUS
10
1.92392
20
-0.779731
11
1.91594
21
-0.769562
0
LINE
8
BLACK
6
CONTINUOUS
10
1.91594
20
-0.769562
11
1.90795
21
-0.779731
0
LINE
8
BLACK
6
CONTINUOUS
10
1.90795
20
-0.779731
11
1.90718
21
-0.780415
0
LINE
8
BLACK
6
CONTINUOUS
10
1.90718
20
-0.780415
11
1.90521
21
-0.780829
0
LINE
8
BLACK
6
CONTINUOUS
10
1.90521
20
-0.780829
11
1.90342
21
-0.779876
0
LINE
8
BLACK
6
CONTINUOUS
10
1.90342
20
-0.779876
11
1.90267
21
-0.778001
0
LINE
8
BLACK
6
CONTINUOUS
10
1.90267
20
-0.778001
11
1.9033
21
-0.776082
0
LINE
8
BLACK
6
CONTINUOUS
10
1.9033
20
-0.776082
11
1.91218
21
-0.764783
0
LINE
8
BLACK
6
CONTINUOUS
10
1.91218
20
-0.764783
11
1.9033
21
-0.753484
0
LINE
8
BLACK
6
CONTINUOUS
10
1.9033
20
-0.753484
11
1.90282
21
-0.75258
0
LINE
8
BLACK
6
CONTINUOUS
10
1.90282
20
-0.75258
11
1.90288
21
-0.750561
0
LINE
8
BLACK
6
CONTINUOUS
10
1.90288
20
-0.750561
11
1.90423
21
-0.749056
0
LINE
8
BLACK
6
CONTINUOUS
10
1.90423
20
-0.749056
11
1.90623
21
-0.74877
0
LINE
8
BLACK
6
CONTINUOUS
10
1.90623
20
-0.74877
11
1.90795
21
-0.749835
0
LINE
8
BLACK
6
CONTINUOUS
10
1.90795
20
-0.749835
11
1.91594
21
-0.760004
0
LINE
8
BLACK
6
CONTINUOUS
10
1.91594
20
-0.760004
11
1.92392
21
-0.749835
0
LINE
8
BLACK
6
CONTINUOUS
10
1.92392
20
-0.749835
11
1.92469
21
-0.749151
0
LINE
8
BLACK
6
CONTINUOUS
10
1.92469
20
-0.749151
11
1.92667
21
-0.748737
0
LINE
8
BLACK
6
CONTINUOUS
10
1.92667
20
-0.748737
11
1.92845
21
-0.74969
0
LINE
8
BLACK
6
CONTINUOUS
10
1.96032
20
-0.74969
11
1.96107
21
-0.751565
0
LINE
8
BLACK
6
CONTINUOUS
10
1.96107
20
-0.751565
11
1.96044
21
-0.753484
0
LINE
8
BLACK
6
CONTINUOUS
10
1.96044
20
-0.753484
11
1.95156
21
-0.764783
0
LINE
8
BLACK
6
CONTINUOUS
10
1.95156
20
-0.764783
11
1.96044
21
-0.776082
0
LINE
8
BLACK
6
CONTINUOUS
10
1.96044
20
-0.776082
11
1.96092
21
-0.776986
0
LINE
8
BLACK
6
CONTINUOUS
10
1.96092
20
-0.776986
11
1.96086
21
-0.779005
0
LINE
8
BLACK
6
CONTINUOUS
10
1.96086
20
-0.779005
11
1.95951
21
-0.78051
0
LINE
8
BLACK
6
CONTINUOUS
10
1.95951
20
-0.78051
11
1.95751
21
-0.780796
0
LINE
8
BLACK
6
CONTINUOUS
10
1.95751
20
-0.780796
11
1.9558
21
-0.779731
0
LINE
8
BLACK
6
CONTINUOUS
10
1.9558
20
-0.779731
11
1.94781
21
-0.769562
0
LINE
8
BLACK
6
CONTINUOUS
10
1.94781
20
-0.769562
11
1.93982
21
-0.779731
0
LINE
8
BLACK
6
CONTINUOUS
10
1.93982
20
-0.779731
11
1.93905
21
-0.780415
0
LINE
8
BLACK
6
CONTINUOUS
10
1.93905
20
-0.780415
11
1.93708
21
-0.780829
0
LINE
8
BLACK
6
CONTINUOUS
10
1.93708
20
-0.780829
11
1.9353
21
-0.779876
0
LINE
8
BLACK
6
CONTINUOUS
10
1.9353
20
-0.779876
11
1.93454
21
-0.778001
0
LINE
8
BLACK
6
CONTINUOUS
10
1.93454
20
-0.778001
11
1.93517
21
-0.776082
0
LINE
8
BLACK
6
CONTINUOUS
10
1.93517
20
-0.776082
11
1.94405
21
-0.764783
0
LINE
8
BLACK
6
CONTINUOUS
10
1.94405
20
-0.764783
11
1.93517
21
-0.753484
0
LINE
8
BLACK
6
CONTINUOUS
10
1.93517
20
-0.753484
11
1.93469
21
-0.75258
0
LINE
8
BLACK
6
CONTINUOUS
10
1.93469
20
-0.75258
11
1.93475
21
-0.750561
0
LINE
8
BLACK
6
CONTINUOUS
10
1.93475
20
-0.750561
11
1.9361
21
-0.749056
0
LINE
8
BLACK
6
CONTINUOUS
10
1.9361
20
-0.749056
11
1.9381
21
-0.74877
0
LINE
8
BLACK
6
CONTINUOUS
10
1.9381
20
-0.74877
11
1.93982
21
-0.749835
0
LINE
8
BLACK
6
CONTINUOUS
10
1.93982
20
-0.749835
11
1.94781
21
-0.760004
0
LINE
8
BLACK
6
CONTINUOUS
10
1.94781
20
-0.760004
11
1.9558
21
-0.749835
0
LINE
8
BLACK
6
CONTINUOUS
10
1.9558
20
-0.749835
11
1.95656
21
-0.749151
0
LINE
8
BLACK
6
CONTINUOUS
10
1.95656
20
-0.749151
11
1.95854
21
-0.748737
0
LINE
8
BLACK
6
CONTINUOUS
10
1.95854
20
-0.748737
11
1.96032
21
-0.74969
0
LINE
8
BLACK
6
CONTINUOUS
10
1.53267
20
-0.425343
11
1.53283
21
-0.425313
0
LINE
8
BLACK
6
CONTINUOUS
10
1.53283
20
-0.425313
11
1.53358
21
-0.425742
0
LINE
8
BLACK
6
CONTINUOUS
10
1.53358
20
-0.425742
11
1.53436
21
-0.426086
0
LINE
8
BLACK
6
CONTINUOUS
10
1.53436
20
-0.426086
11
1.53444
21
-0.426238
0
LINE
8
BLACK
6
CONTINUOUS
10
1.53444
20
-0.426238
11
1.53458
21
-0.426323
0
LINE
8
BLACK
6
CONTINUOUS
10
1.53458
20
-0.426323
11
1.53488
21
-0.427128
0
LINE
8
BLACK
6
CONTINUOUS
10
1.53488
20
-0.427128
11
1.53526
21
-0.427897
0
LINE
8
BLACK
6
CONTINUOUS
10
1.53526
20
-0.427897
11
1.53522
21
-0.428062
0
LINE
8
BLACK
6
CONTINUOUS
10
1.53522
20
-0.428062
11
1.53527
21
-0.428221
0
LINE
8
BLACK
6
CONTINUOUS
10
1.53527
20
-0.428221
11
1.53527
21
-0.464639
0
LINE
8
BLACK
6
CONTINUOUS
10
1.53527
20
-0.464639
11
1.54357
21
-0.464639
0
LINE
8
BLACK
6
CONTINUOUS
10
1.54357
20
-0.464639
11
1.54458
21
-0.464817
0
LINE
8
BLACK
6
CONTINUOUS
10
1.54458
20
-0.464817
11
1.54613
21
-0.466115
0
LINE
8
BLACK
6
CONTINUOUS
10
1.54613
20
-0.466115
11
1.54648
21
-0.468104
0
LINE
8
BLACK
6
CONTINUOUS
10
1.54648
20
-0.468104
11
1.54547
21
-0.469853
0
LINE
8
BLACK
6
CONTINUOUS
10
1.54547
20
-0.469853
11
1.54357
21
-0.470544
0
LINE
8
BLACK
6
CONTINUOUS
10
1.54357
20
-0.470544
11
1.52107
21
-0.470544
0
LINE
8
BLACK
6
CONTINUOUS
10
1.52107
20
-0.470544
11
1.52006
21
-0.470366
0
LINE
8
BLACK
6
CONTINUOUS
10
1.52006
20
-0.470366
11
1.51852
21
-0.469068
0
LINE
8
BLACK
6
CONTINUOUS
10
1.51852
20
-0.469068
11
1.51816
21
-0.467079
0
LINE
8
BLACK
6
CONTINUOUS
10
1.51816
20
-0.467079
11
1.51917
21
-0.465329
0
LINE
8
BLACK
6
CONTINUOUS
10
1.51917
20
-0.465329
11
1.52107
21
-0.464639
0
LINE
8
BLACK
6
CONTINUOUS
10
1.52107
20
-0.464639
11
1.52937
21
-0.464639
0
LINE
8
BLACK
6
CONTINUOUS
10
1.52937
20
-0.464639
11
1.52937
21
-0.437225
0
LINE
8
BLACK
6
CONTINUOUS
10
1.52937
20
-0.437225
11
1.52691
21
-0.439683
0
LINE
8
BLACK
6
CONTINUOUS
10
1.52691
20
-0.439683
11
1.52619
21
-0.440189
0
LINE
8
BLACK
6
CONTINUOUS
10
1.52619
20
-0.440189
11
1.52614
21
-0.440236
0
LINE
8
BLACK
6
CONTINUOUS
10
1.52614
20
-0.440236
11
1.52239
21
-0.442111
0
LINE
8
BLACK
6
CONTINUOUS
10
1.52239
20
-0.442111
11
1.52141
21
-0.442403
0
LINE
8
BLACK
6
CONTINUOUS
10
1.52141
20
-0.442403
11
1.51945
21
-0.441934
0
LINE
8
BLACK
6
CONTINUOUS
10
1.51945
20
-0.441934
11
1.51824
21
-0.440312
0
LINE
8
BLACK
6
CONTINUOUS
10
1.51824
20
-0.440312
11
1.51836
21
-0.438295
0
LINE
8
BLACK
6
CONTINUOUS
10
1.51836
20
-0.438295
11
1.51975
21
-0.436829
0
LINE
8
BLACK
6
CONTINUOUS
10
1.51975
20
-0.436829
11
1.52307
21
-0.435168
0
LINE
8
BLACK
6
CONTINUOUS
10
1.52307
20
-0.435168
11
1.52628
21
-0.431964
0
LINE
8
BLACK
6
CONTINUOUS
10
1.52628
20
-0.431964
11
1.52986
21
-0.426583
0
LINE
8
BLACK
6
CONTINUOUS
10
1.52986
20
-0.426583
11
1.53057
21
-0.425842
0
LINE
8
BLACK
6
CONTINUOUS
10
1.53057
20
-0.425842
11
1.53074
21
-0.425794
0
LINE
8
BLACK
6
CONTINUOUS
10
1.53074
20
-0.425794
11
1.53084
21
-0.425664
0
LINE
8
BLACK
6
CONTINUOUS
10
1.53084
20
-0.425664
11
1.53169
21
-0.425515
0
LINE
8
BLACK
6
CONTINUOUS
10
1.53169
20
-0.425515
11
1.53251
21
-0.425275
0
LINE
8
BLACK
6
CONTINUOUS
10
1.53251
20
-0.425275
11
1.53267
21
-0.425343
0
LINE
8
BLACK
6
CONTINUOUS
10
1.47146
20
-0.425447
11
1.47301
21
-0.426745
0
LINE
8
BLACK
6
CONTINUOUS
10
1.47301
20
-0.426745
11
1.47336
21
-0.428734
0
LINE
8
BLACK
6
CONTINUOUS
10
1.47336
20
-0.428734
11
1.47235
21
-0.430483
0
LINE
8
BLACK
6
CONTINUOUS
10
1.47235
20
-0.430483
11
1.47045
21
-0.431174
0
LINE
8
BLACK
6
CONTINUOUS
10
1.47045
20
-0.431174
11
1.46216
21
-0.431174
0
LINE
8
BLACK
6
CONTINUOUS
10
1.46216
20
-0.431174
11
1.46216
21
-0.467591
0
LINE
8
BLACK
6
CONTINUOUS
10
1.46216
20
-0.467591
11
1.46198
21
-0.468601
0
LINE
8
BLACK
6
CONTINUOUS
10
1.46198
20
-0.468601
11
1.46068
21
-0.470148
0
LINE
8
BLACK
6
CONTINUOUS
10
1.46068
20
-0.470148
11
1.45869
21
-0.470499
0
LINE
8
BLACK
6
CONTINUOUS
10
1.45869
20
-0.470499
11
1.45694
21
-0.469489
0
LINE
8
BLACK
6
CONTINUOUS
10
1.45694
20
-0.469489
11
1.45625
21
-0.467591
0
LINE
8
BLACK
6
CONTINUOUS
10
1.45625
20
-0.467591
11
1.45625
21
-0.431174
0
LINE
8
BLACK
6
CONTINUOUS
10
1.45625
20
-0.431174
11
1.44796
21
-0.431174
0
LINE
8
BLACK
6
CONTINUOUS
10
1.44796
20
-0.431174
11
1.44695
21
-0.430996
0
LINE
8
BLACK
6
CONTINUOUS
10
1.44695
20
-0.430996
11
1.4454
21
-0.429698
0
LINE
8
BLACK
6
CONTINUOUS
10
1.4454
20
-0.429698
11
1.44505
21
-0.427708
0
LINE
8
BLACK
6
CONTINUOUS
10
1.44505
20
-0.427708
11
1.44606
21
-0.425959
0
LINE
8
BLACK
6
CONTINUOUS
10
1.44606
20
-0.425959
11
1.44796
21
-0.425268
0
LINE
8
BLACK
6
CONTINUOUS
10
1.44796
20
-0.425268
11
1.47045
21
-0.425268
0
LINE
8
BLACK
6
CONTINUOUS
10
1.47045
20
-0.425268
11
1.47146
21
-0.425447
0
LINE
8
BLACK
6
CONTINUOUS
10
1.49959
20
-0.425447
11
1.49972
21
-0.42556
0
LINE
8
BLACK
6
CONTINUOUS
10
1.49972
20
-0.42556
11
1.4999
21
-0.42558
0
LINE
8
BLACK
6
CONTINUOUS
10
1.4999
20
-0.42558
11
1.50365
21
-0.427455
0
LINE
8
BLACK
6
CONTINUOUS
10
1.50365
20
-0.427455
11
1.50435
21
-0.427981
0
LINE
8
BLACK
6
CONTINUOUS
10
1.50435
20
-0.427981
11
1.50441
21
-0.428008
0
LINE
8
BLACK
6
CONTINUOUS
10
1.50441
20
-0.428008
11
1.50629
21
-0.429883
0
LINE
8
BLACK
6
CONTINUOUS
10
1.50629
20
-0.429883
11
1.50679
21
-0.430606
0
LINE
8
BLACK
6
CONTINUOUS
10
1.50679
20
-0.430606
11
1.50684
21
-0.43065
0
LINE
8
BLACK
6
CONTINUOUS
10
1.50684
20
-0.43065
11
1.50872
21
-0.4344
0
LINE
8
BLACK
6
CONTINUOUS
10
1.50872
20
-0.4344
11
1.50901
21
-0.435383
0
LINE
8
BLACK
6
CONTINUOUS
10
1.50901
20
-0.435383
11
1.50897
21
-0.435554
0
LINE
8
BLACK
6
CONTINUOUS
10
1.50897
20
-0.435554
11
1.50903
21
-0.43572
0
LINE
8
BLACK
6
CONTINUOUS
10
1.50903
20
-0.43572
11
1.50903
21
-0.441345
0
LINE
8
BLACK
6
CONTINUOUS
10
1.50903
20
-0.441345
11
1.50885
21
-0.442354
0
LINE
8
BLACK
6
CONTINUOUS
10
1.50885
20
-0.442354
11
1.50874
21
-0.44249
0
LINE
8
BLACK
6
CONTINUOUS
10
1.50874
20
-0.44249
11
1.50872
21
-0.442665
0
LINE
8
BLACK
6
CONTINUOUS
10
1.50872
20
-0.442665
11
1.50684
21
-0.446415
0
LINE
8
BLACK
6
CONTINUOUS
10
1.50684
20
-0.446415
11
1.50631
21
-0.447124
0
LINE
8
BLACK
6
CONTINUOUS
10
1.50631
20
-0.447124
11
1.50629
21
-0.447182
0
LINE
8
BLACK
6
CONTINUOUS
10
1.50629
20
-0.447182
11
1.50441
21
-0.449057
0
LINE
8
BLACK
6
CONTINUOUS
10
1.50441
20
-0.449057
11
1.50369
21
-0.449563
0
LINE
8
BLACK
6
CONTINUOUS
10
1.50369
20
-0.449563
11
1.50365
21
-0.44961
0
LINE
8
BLACK
6
CONTINUOUS
10
1.50365
20
-0.44961
11
1.4999
21
-0.451485
0
LINE
8
BLACK
6
CONTINUOUS
10
1.4999
20
-0.451485
11
1.49891
21
-0.451777
0
LINE
8
BLACK
6
CONTINUOUS
10
1.49891
20
-0.451777
11
1.49874
21
-0.451736
0
LINE
8
BLACK
6
CONTINUOUS
10
1.49874
20
-0.451736
11
1.49861
21
-0.451783
0
LINE
8
BLACK
6
CONTINUOUS
10
1.49861
20
-0.451783
11
1.50849
21
-0.465898
0
LINE
8
BLACK
6
CONTINUOUS
10
1.50849
20
-0.465898
11
1.50893
21
-0.466827
0
LINE
8
BLACK
6
CONTINUOUS
10
1.50893
20
-0.466827
11
1.50875
21
-0.46884
0
LINE
8
BLACK
6
CONTINUOUS
10
1.50875
20
-0.46884
11
1.50732
21
-0.470268
0
LINE
8
BLACK
6
CONTINUOUS
10
1.50732
20
-0.470268
11
1.50531
21
-0.470443
0
LINE
8
BLACK
6
CONTINUOUS
10
1.50531
20
-0.470443
11
1.50366
21
-0.469285
0
LINE
8
BLACK
6
CONTINUOUS
10
1.50366
20
-0.469285
11
1.49141
21
-0.451796
0
LINE
8
BLACK
6
CONTINUOUS
10
1.49141
20
-0.451796
11
1.48653
21
-0.451796
0
LINE
8
BLACK
6
CONTINUOUS
10
1.48653
20
-0.451796
11
1.48653
21
-0.467591
0
LINE
8
BLACK
6
CONTINUOUS
10
1.48653
20
-0.467591
11
1.48635
21
-0.468601
0
LINE
8
BLACK
6
CONTINUOUS
10
1.48635
20
-0.468601
11
1.48505
21
-0.470148
0
LINE
8
BLACK
6
CONTINUOUS
10
1.48505
20
-0.470148
11
1.48306
21
-0.470499
0
LINE
8
BLACK
6
CONTINUOUS
10
1.48306
20
-0.470499
11
1.48132
21
-0.469489
0
LINE
8
BLACK
6
CONTINUOUS
10
1.48132
20
-0.469489
11
1.48062
21
-0.467591
0
LINE
8
BLACK
6
CONTINUOUS
10
1.48062
20
-0.467591
11
1.48062
21
-0.428221
0
LINE
8
BLACK
6
CONTINUOUS
10
1.48062
20
-0.428221
11
1.48069
21
-0.427838
0
LINE
8
BLACK
6
CONTINUOUS
10
1.48069
20
-0.427838
11
1.48067
21
-0.427708
0
LINE
8
BLACK
6
CONTINUOUS
10
1.48067
20
-0.427708
11
1.48073
21
-0.427595
0
LINE
8
BLACK
6
CONTINUOUS
10
1.48073
20
-0.427595
11
1.4808
21
-0.427211
0
LINE
8
BLACK
6
CONTINUOUS
10
1.4808
20
-0.427211
11
1.4813
21
-0.426624
0
LINE
8
BLACK
6
CONTINUOUS
10
1.4813
20
-0.426624
11
1.48168
21
-0.425959
0
LINE
8
BLACK
6
CONTINUOUS
10
1.48168
20
-0.425959
11
1.48193
21
-0.425868
0
LINE
8
BLACK
6
CONTINUOUS
10
1.48193
20
-0.425868
11
1.4821
21
-0.425664
0
LINE
8
BLACK
6
CONTINUOUS
10
1.4821
20
-0.425664
11
1.48286
21
-0.425531
0
LINE
8
BLACK
6
CONTINUOUS
10
1.48286
20
-0.425531
11
1.48358
21
-0.425268
0
LINE
8
BLACK
6
CONTINUOUS
10
1.48358
20
-0.425268
11
1.49858
21
-0.425268
0
LINE
8
BLACK
6
CONTINUOUS
10
1.49858
20
-0.425268
11
1.49959
21
-0.425447
0
LINE
8
BLACK
6
CONTINUOUS
10
1.48653
20
-0.445891
11
1.49788
21
-0.445891
0
LINE
8
BLACK
6
CONTINUOUS
10
1.49788
20
-0.445891
11
1.50058
21
-0.444542
0
LINE
8
BLACK
6
CONTINUOUS
10
1.50058
20
-0.444542
11
1.50177
21
-0.443345
0
LINE
8
BLACK
6
CONTINUOUS
10
1.50177
20
-0.443345
11
1.50312
21
-0.440648
0
LINE
8
BLACK
6
CONTINUOUS
10
1.50312
20
-0.440648
11
1.50312
21
-0.436417
0
LINE
8
BLACK
6
CONTINUOUS
10
1.50312
20
-0.436417
11
1.50177
21
-0.43372
0
LINE
8
BLACK
6
CONTINUOUS
10
1.50177
20
-0.43372
11
1.50058
21
-0.432523
0
LINE
8
BLACK
6
CONTINUOUS
10
1.50058
20
-0.432523
11
1.49788
21
-0.431174
0
LINE
8
BLACK
6
CONTINUOUS
10
1.49788
20
-0.431174
11
1.48653
21
-0.431174
0
LINE
8
BLACK
6
CONTINUOUS
10
1.48653
20
-0.431174
11
1.48653
21
-0.445891
0
LINE
8
BLACK
6
CONTINUOUS
10
2.10432
20
-0.151524
11
2.10445
21
-0.151502
0
LINE
8
BLACK
6
CONTINUOUS
10
2.10445
20
-0.151502
11
2.10456
21
-0.151567
0
LINE
8
BLACK
6
CONTINUOUS
10
2.10456
20
-0.151567
11
2.10495
21
-0.151635
0
LINE
8
BLACK
6
CONTINUOUS
10
2.10495
20
-0.151635
11
2.10553
21
-0.152128
0
LINE
8
BLACK
6
CONTINUOUS
10
2.10553
20
-0.152128
11
2.1062
21
-0.152511
0
LINE
8
BLACK
6
CONTINUOUS
10
2.1062
20
-0.152511
11
2.10629
21
-0.152762
0
LINE
8
BLACK
6
CONTINUOUS
10
2.10629
20
-0.152762
11
2.10649
21
-0.152933
0
LINE
8
BLACK
6
CONTINUOUS
10
2.10649
20
-0.152933
11
2.10663
21
-0.153689
0
LINE
8
BLACK
6
CONTINUOUS
10
2.10663
20
-0.153689
11
2.10689
21
-0.154409
0
LINE
8
BLACK
6
CONTINUOUS
10
2.10689
20
-0.154409
11
2.10689
21
-0.81189
0
LINE
8
BLACK
6
CONTINUOUS
10
2.10689
20
-0.81189
11
2.10682
21
-0.812273
0
LINE
8
BLACK
6
CONTINUOUS
10
2.10682
20
-0.812273
11
2.10684
21
-0.812403
0
LINE
8
BLACK
6
CONTINUOUS
10
2.10684
20
-0.812403
11
2.10678
21
-0.812516
0
LINE
8
BLACK
6
CONTINUOUS
10
2.10678
20
-0.812516
11
2.10671
21
-0.8129
0
LINE
8
BLACK
6
CONTINUOUS
10
2.10671
20
-0.8129
11
2.10622
21
-0.813487
0
LINE
8
BLACK
6
CONTINUOUS
10
2.10622
20
-0.813487
11
2.10583
21
-0.814152
0
LINE
8
BLACK
6
CONTINUOUS
10
2.10583
20
-0.814152
11
2.10558
21
-0.814243
0
LINE
8
BLACK
6
CONTINUOUS
10
2.10558
20
-0.814243
11
2.10541
21
-0.814447
0
LINE
8
BLACK
6
CONTINUOUS
10
2.10541
20
-0.814447
11
2.10466
21
-0.81458
0
LINE
8
BLACK
6
CONTINUOUS
10
2.10466
20
-0.81458
11
2.10394
21
-0.814843
0
LINE
8
BLACK
6
CONTINUOUS
10
2.10394
20
-0.814843
11
0.844094
21
-0.814843
0
LINE
8
BLACK
6
CONTINUOUS
10
0.844094
20
-0.814843
11
0.843711
21
-0.814775
0
LINE
8
BLACK
6
CONTINUOUS
10
0.843711
20
-0.814775
11
0.843582
21
-0.814798
0
LINE
8
BLACK
6
CONTINUOUS
10
0.843582
20
-0.814798
11
0.843468
21
-0.814732
0
LINE
8
BLACK
6
CONTINUOUS
10
0.843468
20
-0.814732
11
0.843085
21
-0.814664
0
LINE
8
BLACK
6
CONTINUOUS
10
0.843085
20
-0.814664
11
0.842497
21
-0.814171
0
LINE
8
BLACK
6
CONTINUOUS
10
0.842497
20
-0.814171
11
0.841833
21
-0.813788
0
LINE
8
BLACK
6
CONTINUOUS
10
0.841833
20
-0.813788
11
0.841741
21
-0.813537
0
LINE
8
BLACK
6
CONTINUOUS
10
0.841741
20
-0.813537
11
0.841537
21
-0.813366
0
LINE
8
BLACK
6
CONTINUOUS
10
0.841537
20
-0.813366
11
0.841404
21
-0.812611
0
LINE
8
BLACK
6
CONTINUOUS
10
0.841404
20
-0.812611
11
0.841142
21
-0.81189
0
LINE
8
BLACK
6
CONTINUOUS
10
0.841142
20
-0.81189
11
0.841142
21
-0.154409
0
LINE
8
BLACK
6
CONTINUOUS
10
0.841142
20
-0.154409
11
0.841209
21
-0.154026
0
LINE
8
BLACK
6
CONTINUOUS
10
0.841209
20
-0.154026
11
0.841187
21
-0.153897
0
LINE
8
BLACK
6
CONTINUOUS
10
0.841187
20
-0.153897
11
0.841252
21
-0.153783
0
LINE
8
BLACK
6
CONTINUOUS
10
0.841252
20
-0.153783
11
0.84132
21
-0.1534
0
LINE
8
BLACK
6
CONTINUOUS
10
0.84132
20
-0.1534
11
0.841813
21
-0.152812
0
LINE
8
BLACK
6
CONTINUOUS
10
0.841813
20
-0.152812
11
0.842196
21
-0.152148
0
LINE
8
BLACK
6
CONTINUOUS
10
0.842196
20
-0.152148
11
0.842447
21
-0.152056
0
LINE
8
BLACK
6
CONTINUOUS
10
0.842447
20
-0.152056
11
0.842618
21
-0.151852
0
LINE
8
BLACK
6
CONTINUOUS
10
0.842618
20
-0.151852
11
0.843374
21
-0.151719
0
LINE
8
BLACK
6
CONTINUOUS
10
0.843374
20
-0.151719
11
0.844094
21
-0.151457
0
LINE
8
BLACK
6
CONTINUOUS
10
0.844094
20
-0.151457
11
2.10394
21
-0.151457
0
LINE
8
BLACK
6
CONTINUOUS
10
2.10394
20
-0.151457
11
2.10432
21
-0.151524
0
LINE
8
BLACK
6
CONTINUOUS
10
0.847047
20
-0.157362
11
0.847047
21
-0.808937
0
LINE
8
BLACK
6
CONTINUOUS
10
0.847047
20
-0.808937
11
2.10098
21
-0.808937
0
LINE
8
BLACK
6
CONTINUOUS
10
2.10098
20
-0.808937
11
2.10098
21
-0.157362
0
LINE
8
BLACK
6
CONTINUOUS
10
2.10098
20
-0.157362
11
0.847047
21
-0.157362
  0
ENDSEC
  0
EOF
