  0
SECTION
  2
HEADER
  9
$ANGBASE
  50
0.0
  9
$ANGDIR
  70
1
  9
$MEASUREMENT
  70
0
  0
ENDSEC
  0
SECTION
  2
TABLES
  0
TABLE
  2
LTYPE
  70
4
  0
LTYPE
  5
40F
  2
CONTINUOUS
  70
0
  3
Solid line
  72
65
  73
0
  40
0.0
  0
LTYPE
  5
410
  2
DASHDOT
 70
0
  3
Dash Dot ____ _ ____ _
 72
65
 73
4
 40
2.0
 49
1.25
 49
-0.25
 49
0.25
 49
-0.25
  0
LTYPE
  5
411
  2
DASHED
 70
0
  3
Dashed __ __ __ __ __
 72
65
 73
2
 40
0.75
 49
0.5
 49
-0.25
  0
LTYPE
  5
43B
  2
DOTTED
 70
0
  3
Dotted .  .  .  .
 72
65
 73
2
 40
0.2
 49
0.0
 49
-0.2
  0
ENDTAB
  0
TABLE
  2
STYLE
  70
4
  0
STYLE
  2
KICAD
  70
0
  40
0
  41
1
  42
1
  50
0
  71
0
  3
isocp.shx
  0
STYLE
  2
KICADB
  70
0
  40
0
  41
1
  42
1
  50
0
  71
0
  3
isocp.shx
  0
STYLE
  2
KICADI
  70
0
  40
0
  41
1
  42
1
  50
15
  71
0
  3
isocp.shx
  0
STYLE
  2
KICADBI
  70
0
  40
0
  41
1
  42
1
  50
15
  71
0
  3
isocp.shx
  0
ENDTAB
  0
TABLE
  2
LAYER
  70
1
  0
LAYER
  2
BLACK
  70
0
  62
7
  6
CONTINUOUS
  0
ENDTAB
  0
ENDSEC
  0
SECTION
  2
ENTITIES
0
LINE
8
BLACK
6
CONTINUOUS
10
0.615738
20
-0.587745
11
0.615867
21
-0.587722
0
LINE
8
BLACK
6
CONTINUOUS
10
0.615867
20
-0.587722
11
0.615981
21
-0.587788
0
LINE
8
BLACK
6
CONTINUOUS
10
0.615981
20
-0.587788
11
0.616364
21
-0.587855
0
LINE
8
BLACK
6
CONTINUOUS
10
0.616364
20
-0.587855
11
0.616952
21
-0.588348
0
LINE
8
BLACK
6
CONTINUOUS
10
0.616952
20
-0.588348
11
0.617616
21
-0.588732
0
LINE
8
BLACK
6
CONTINUOUS
10
0.617616
20
-0.588732
11
0.617707
21
-0.588982
0
LINE
8
BLACK
6
CONTINUOUS
10
0.617707
20
-0.588982
11
0.617911
21
-0.589154
0
LINE
8
BLACK
6
CONTINUOUS
10
0.617911
20
-0.589154
11
0.618045
21
-0.589909
0
LINE
8
BLACK
6
CONTINUOUS
10
0.618045
20
-0.589909
11
0.618307
21
-0.59063
0
LINE
8
BLACK
6
CONTINUOUS
10
0.618307
20
-0.59063
11
0.618307
21
-0.944961
0
LINE
8
BLACK
6
CONTINUOUS
10
0.618307
20
-0.944961
11
0.618239
21
-0.945344
0
LINE
8
BLACK
6
CONTINUOUS
10
0.618239
20
-0.945344
11
0.618262
21
-0.945473
0
LINE
8
BLACK
6
CONTINUOUS
10
0.618262
20
-0.945473
11
0.618197
21
-0.945587
0
LINE
8
BLACK
6
CONTINUOUS
10
0.618197
20
-0.945587
11
0.618129
21
-0.945971
0
LINE
8
BLACK
6
CONTINUOUS
10
0.618129
20
-0.945971
11
0.617636
21
-0.946558
0
LINE
8
BLACK
6
CONTINUOUS
10
0.617636
20
-0.946558
11
0.617252
21
-0.947223
0
LINE
8
BLACK
6
CONTINUOUS
10
0.617252
20
-0.947223
11
0.617002
21
-0.947314
0
LINE
8
BLACK
6
CONTINUOUS
10
0.617002
20
-0.947314
11
0.616831
21
-0.947518
0
LINE
8
BLACK
6
CONTINUOUS
10
0.616831
20
-0.947518
11
0.616075
21
-0.947651
0
LINE
8
BLACK
6
CONTINUOUS
10
0.616075
20
-0.947651
11
0.615354
21
-0.947913
0
LINE
8
BLACK
6
CONTINUOUS
10
0.615354
20
-0.947913
11
0.284646
21
-0.947913
0
LINE
8
BLACK
6
CONTINUOUS
10
0.284646
20
-0.947913
11
0.284262
21
-0.947846
0
LINE
8
BLACK
6
CONTINUOUS
10
0.284262
20
-0.947846
11
0.284133
21
-0.947869
0
LINE
8
BLACK
6
CONTINUOUS
10
0.284133
20
-0.947869
11
0.284019
21
-0.947803
0
LINE
8
BLACK
6
CONTINUOUS
10
0.284019
20
-0.947803
11
0.283636
21
-0.947735
0
LINE
8
BLACK
6
CONTINUOUS
10
0.283636
20
-0.947735
11
0.283048
21
-0.947242
0
LINE
8
BLACK
6
CONTINUOUS
10
0.283048
20
-0.947242
11
0.282384
21
-0.946859
0
LINE
8
BLACK
6
CONTINUOUS
10
0.282384
20
-0.946859
11
0.282293
21
-0.946608
0
LINE
8
BLACK
6
CONTINUOUS
10
0.282293
20
-0.946608
11
0.282089
21
-0.946437
0
LINE
8
BLACK
6
CONTINUOUS
10
0.282089
20
-0.946437
11
0.281955
21
-0.945681
0
LINE
8
BLACK
6
CONTINUOUS
10
0.281955
20
-0.945681
11
0.281693
21
-0.944961
0
LINE
8
BLACK
6
CONTINUOUS
10
0.281693
20
-0.944961
11
0.281693
21
-0.59063
0
LINE
8
BLACK
6
CONTINUOUS
10
0.281693
20
-0.59063
11
0.281761
21
-0.590246
0
LINE
8
BLACK
6
CONTINUOUS
10
0.281761
20
-0.590246
11
0.281738
21
-0.590117
0
LINE
8
BLACK
6
CONTINUOUS
10
0.281738
20
-0.590117
11
0.281803
21
-0.590004
0
LINE
8
BLACK
6
CONTINUOUS
10
0.281803
20
-0.590004
11
0.281871
21
-0.58962
0
LINE
8
BLACK
6
CONTINUOUS
10
0.281871
20
-0.58962
11
0.282364
21
-0.589032
0
LINE
8
BLACK
6
CONTINUOUS
10
0.282364
20
-0.589032
11
0.282748
21
-0.588368
0
LINE
8
BLACK
6
CONTINUOUS
10
0.282748
20
-0.588368
11
0.282998
21
-0.588277
0
LINE
8
BLACK
6
CONTINUOUS
10
0.282998
20
-0.588277
11
0.283169
21
-0.588073
0
LINE
8
BLACK
6
CONTINUOUS
10
0.283169
20
-0.588073
11
0.283925
21
-0.58794
0
LINE
8
BLACK
6
CONTINUOUS
10
0.283925
20
-0.58794
11
0.284646
21
-0.587677
0
LINE
8
BLACK
6
CONTINUOUS
10
0.284646
20
-0.587677
11
0.615354
21
-0.587677
0
LINE
8
BLACK
6
CONTINUOUS
10
0.615354
20
-0.587677
11
0.615738
21
-0.587745
0
LINE
8
BLACK
6
CONTINUOUS
10
0.287598
20
-0.593583
11
0.287598
21
-0.942008
0
LINE
8
BLACK
6
CONTINUOUS
10
0.287598
20
-0.942008
11
0.612402
21
-0.942008
0
LINE
8
BLACK
6
CONTINUOUS
10
0.612402
20
-0.942008
11
0.612402
21
-0.593583
0
LINE
8
BLACK
6
CONTINUOUS
10
0.612402
20
-0.593583
11
0.287598
21
-0.593583
0
LINE
8
BLACK
6
CONTINUOUS
10
0.439139
20
-0.748274
11
0.439829
21
-0.750172
0
LINE
8
BLACK
6
CONTINUOUS
10
0.439829
20
-0.750172
11
0.439829
21
-0.778294
0
LINE
8
BLACK
6
CONTINUOUS
10
0.439829
20
-0.778294
11
0.439676
21
-0.779163
0
LINE
8
BLACK
6
CONTINUOUS
10
0.439676
20
-0.779163
11
0.439678
21
-0.779228
0
LINE
8
BLACK
6
CONTINUOUS
10
0.439678
20
-0.779228
11
0.437803
21
-0.784852
0
LINE
8
BLACK
6
CONTINUOUS
10
0.437803
20
-0.784852
11
0.437315
21
-0.785754
0
LINE
8
BLACK
6
CONTINUOUS
10
0.437315
20
-0.785754
11
0.437164
21
-0.785846
0
LINE
8
BLACK
6
CONTINUOUS
10
0.437164
20
-0.785846
11
0.43709
21
-0.786006
0
LINE
8
BLACK
6
CONTINUOUS
10
0.43709
20
-0.786006
11
0.43334
21
-0.789756
0
LINE
8
BLACK
6
CONTINUOUS
10
0.43334
20
-0.789756
11
0.4325
21
-0.790344
0
LINE
8
BLACK
6
CONTINUOUS
10
0.4325
20
-0.790344
11
0.432324
21
-0.790359
0
LINE
8
BLACK
6
CONTINUOUS
10
0.432324
20
-0.790359
11
0.432186
21
-0.790469
0
LINE
8
BLACK
6
CONTINUOUS
10
0.432186
20
-0.790469
11
0.426562
21
-0.792344
0
LINE
8
BLACK
6
CONTINUOUS
10
0.426562
20
-0.792344
11
0.425689
21
-0.792473
0
LINE
8
BLACK
6
CONTINUOUS
10
0.425689
20
-0.792473
11
0.425628
21
-0.792495
0
LINE
8
BLACK
6
CONTINUOUS
10
0.425628
20
-0.792495
11
0.421879
21
-0.792495
0
LINE
8
BLACK
6
CONTINUOUS
10
0.421879
20
-0.792495
11
0.420869
21
-0.792317
0
LINE
8
BLACK
6
CONTINUOUS
10
0.420869
20
-0.792317
11
0.419321
21
-0.791019
0
LINE
8
BLACK
6
CONTINUOUS
10
0.419321
20
-0.791019
11
0.418971
21
-0.78903
0
LINE
8
BLACK
6
CONTINUOUS
10
0.418971
20
-0.78903
11
0.419981
21
-0.787281
0
LINE
8
BLACK
6
CONTINUOUS
10
0.419981
20
-0.787281
11
0.421879
21
-0.78659
0
LINE
8
BLACK
6
CONTINUOUS
10
0.421879
20
-0.78659
11
0.425149
21
-0.78659
0
LINE
8
BLACK
6
CONTINUOUS
10
0.425149
20
-0.78659
11
0.429657
21
-0.785087
0
LINE
8
BLACK
6
CONTINUOUS
10
0.429657
20
-0.785087
11
0.432421
21
-0.782323
0
LINE
8
BLACK
6
CONTINUOUS
10
0.432421
20
-0.782323
11
0.433924
21
-0.777815
0
LINE
8
BLACK
6
CONTINUOUS
10
0.433924
20
-0.777815
11
0.433924
21
-0.750172
0
LINE
8
BLACK
6
CONTINUOUS
10
0.433924
20
-0.750172
11
0.434102
21
-0.749163
0
LINE
8
BLACK
6
CONTINUOUS
10
0.434102
20
-0.749163
11
0.4354
21
-0.747615
0
LINE
8
BLACK
6
CONTINUOUS
10
0.4354
20
-0.747615
11
0.437389
21
-0.747265
0
LINE
8
BLACK
6
CONTINUOUS
10
0.437389
20
-0.747265
11
0.439139
21
-0.748274
0
LINE
8
BLACK
6
CONTINUOUS
10
0.465344
20
-0.747294
11
0.465511
21
-0.747265
0
LINE
8
BLACK
6
CONTINUOUS
10
0.465511
20
-0.747265
11
0.466253
21
-0.747693
0
LINE
8
BLACK
6
CONTINUOUS
10
0.466253
20
-0.747693
11
0.467038
21
-0.748037
0
LINE
8
BLACK
6
CONTINUOUS
10
0.467038
20
-0.748037
11
0.467113
21
-0.74819
0
LINE
8
BLACK
6
CONTINUOUS
10
0.467113
20
-0.74819
11
0.46726
21
-0.748274
0
LINE
8
BLACK
6
CONTINUOUS
10
0.46726
20
-0.748274
11
0.467553
21
-0.749079
0
LINE
8
BLACK
6
CONTINUOUS
10
0.467553
20
-0.749079
11
0.467933
21
-0.749848
0
LINE
8
BLACK
6
CONTINUOUS
10
0.467933
20
-0.749848
11
0.467893
21
-0.750013
0
LINE
8
BLACK
6
CONTINUOUS
10
0.467893
20
-0.750013
11
0.467951
21
-0.750172
0
LINE
8
BLACK
6
CONTINUOUS
10
0.467951
20
-0.750172
11
0.467951
21
-0.78659
0
LINE
8
BLACK
6
CONTINUOUS
10
0.467951
20
-0.78659
11
0.476247
21
-0.78659
0
LINE
8
BLACK
6
CONTINUOUS
10
0.476247
20
-0.78659
11
0.477257
21
-0.786768
0
LINE
8
BLACK
6
CONTINUOUS
10
0.477257
20
-0.786768
11
0.478804
21
-0.788066
0
LINE
8
BLACK
6
CONTINUOUS
10
0.478804
20
-0.788066
11
0.479155
21
-0.790055
0
LINE
8
BLACK
6
CONTINUOUS
10
0.479155
20
-0.790055
11
0.478145
21
-0.791804
0
LINE
8
BLACK
6
CONTINUOUS
10
0.478145
20
-0.791804
11
0.476247
21
-0.792495
0
LINE
8
BLACK
6
CONTINUOUS
10
0.476247
20
-0.792495
11
0.45375
21
-0.792495
0
LINE
8
BLACK
6
CONTINUOUS
10
0.45375
20
-0.792495
11
0.45274
21
-0.792317
0
LINE
8
BLACK
6
CONTINUOUS
10
0.45274
20
-0.792317
11
0.451192
21
-0.791019
0
LINE
8
BLACK
6
CONTINUOUS
10
0.451192
20
-0.791019
11
0.450842
21
-0.78903
0
LINE
8
BLACK
6
CONTINUOUS
10
0.450842
20
-0.78903
11
0.451852
21
-0.787281
0
LINE
8
BLACK
6
CONTINUOUS
10
0.451852
20
-0.787281
11
0.45375
21
-0.78659
0
LINE
8
BLACK
6
CONTINUOUS
10
0.45375
20
-0.78659
11
0.462045
21
-0.78659
0
LINE
8
BLACK
6
CONTINUOUS
10
0.462045
20
-0.78659
11
0.462045
21
-0.759176
0
LINE
8
BLACK
6
CONTINUOUS
10
0.462045
20
-0.759176
11
0.459587
21
-0.761634
0
LINE
8
BLACK
6
CONTINUOUS
10
0.459587
20
-0.761634
11
0.458864
21
-0.762141
0
LINE
8
BLACK
6
CONTINUOUS
10
0.458864
20
-0.762141
11
0.45882
21
-0.762187
0
LINE
8
BLACK
6
CONTINUOUS
10
0.45882
20
-0.762187
11
0.45507
21
-0.764062
0
LINE
8
BLACK
6
CONTINUOUS
10
0.45507
20
-0.764062
11
0.454087
21
-0.764354
0
LINE
8
BLACK
6
CONTINUOUS
10
0.454087
20
-0.764354
11
0.452123
21
-0.763885
0
LINE
8
BLACK
6
CONTINUOUS
10
0.452123
20
-0.763885
11
0.450919
21
-0.762263
0
LINE
8
BLACK
6
CONTINUOUS
10
0.450919
20
-0.762263
11
0.45104
21
-0.760247
0
LINE
8
BLACK
6
CONTINUOUS
10
0.45104
20
-0.760247
11
0.452429
21
-0.75878
0
LINE
8
BLACK
6
CONTINUOUS
10
0.452429
20
-0.75878
11
0.45575
21
-0.75712
0
LINE
8
BLACK
6
CONTINUOUS
10
0.45575
20
-0.75712
11
0.458954
21
-0.753916
0
LINE
8
BLACK
6
CONTINUOUS
10
0.458954
20
-0.753916
11
0.462541
21
-0.748535
0
LINE
8
BLACK
6
CONTINUOUS
10
0.462541
20
-0.748535
11
0.46325
21
-0.747793
0
LINE
8
BLACK
6
CONTINUOUS
10
0.46325
20
-0.747793
11
0.463413
21
-0.747745
0
LINE
8
BLACK
6
CONTINUOUS
10
0.463413
20
-0.747745
11
0.463522
21
-0.747615
0
LINE
8
BLACK
6
CONTINUOUS
10
0.463522
20
-0.747615
11
0.464366
21
-0.747466
0
LINE
8
BLACK
6
CONTINUOUS
10
0.464366
20
-0.747466
11
0.465188
21
-0.747226
0
LINE
8
BLACK
6
CONTINUOUS
10
0.465188
20
-0.747226
11
0.465344
21
-0.747294
0
LINE
8
BLACK
6
CONTINUOUS
10
2.10432
20
-0.151524
11
2.10445
21
-0.151502
0
LINE
8
BLACK
6
CONTINUOUS
10
2.10445
20
-0.151502
11
2.10456
21
-0.151567
0
LINE
8
BLACK
6
CONTINUOUS
10
2.10456
20
-0.151567
11
2.10495
21
-0.151635
0
LINE
8
BLACK
6
CONTINUOUS
10
2.10495
20
-0.151635
11
2.10553
21
-0.152128
0
LINE
8
BLACK
6
CONTINUOUS
10
2.10553
20
-0.152128
11
2.1062
21
-0.152511
0
LINE
8
BLACK
6
CONTINUOUS
10
2.1062
20
-0.152511
11
2.10629
21
-0.152762
0
LINE
8
BLACK
6
CONTINUOUS
10
2.10629
20
-0.152762
11
2.10649
21
-0.152933
0
LINE
8
BLACK
6
CONTINUOUS
10
2.10649
20
-0.152933
11
2.10663
21
-0.153689
0
LINE
8
BLACK
6
CONTINUOUS
10
2.10663
20
-0.153689
11
2.10689
21
-0.154409
0
LINE
8
BLACK
6
CONTINUOUS
10
2.10689
20
-0.154409
11
2.10689
21
-0.81189
0
LINE
8
BLACK
6
CONTINUOUS
10
2.10689
20
-0.81189
11
2.10682
21
-0.812273
0
LINE
8
BLACK
6
CONTINUOUS
10
2.10682
20
-0.812273
11
2.10684
21
-0.812403
0
LINE
8
BLACK
6
CONTINUOUS
10
2.10684
20
-0.812403
11
2.10678
21
-0.812516
0
LINE
8
BLACK
6
CONTINUOUS
10
2.10678
20
-0.812516
11
2.10671
21
-0.8129
0
LINE
8
BLACK
6
CONTINUOUS
10
2.10671
20
-0.8129
11
2.10622
21
-0.813487
0
LINE
8
BLACK
6
CONTINUOUS
10
2.10622
20
-0.813487
11
2.10583
21
-0.814152
0
LINE
8
BLACK
6
CONTINUOUS
10
2.10583
20
-0.814152
11
2.10558
21
-0.814243
0
LINE
8
BLACK
6
CONTINUOUS
10
2.10558
20
-0.814243
11
2.10541
21
-0.814447
0
LINE
8
BLACK
6
CONTINUOUS
10
2.10541
20
-0.814447
11
2.10466
21
-0.81458
0
LINE
8
BLACK
6
CONTINUOUS
10
2.10466
20
-0.81458
11
2.10394
21
-0.814843
0
LINE
8
BLACK
6
CONTINUOUS
10
2.10394
20
-0.814843
11
0.844094
21
-0.814843
0
LINE
8
BLACK
6
CONTINUOUS
10
0.844094
20
-0.814843
11
0.843711
21
-0.814775
0
LINE
8
BLACK
6
CONTINUOUS
10
0.843711
20
-0.814775
11
0.843582
21
-0.814798
0
LINE
8
BLACK
6
CONTINUOUS
10
0.843582
20
-0.814798
11
0.843468
21
-0.814732
0
LINE
8
BLACK
6
CONTINUOUS
10
0.843468
20
-0.814732
11
0.843085
21
-0.814664
0
LINE
8
BLACK
6
CONTINUOUS
10
0.843085
20
-0.814664
11
0.842497
21
-0.814171
0
LINE
8
BLACK
6
CONTINUOUS
10
0.842497
20
-0.814171
11
0.841833
21
-0.813788
0
LINE
8
BLACK
6
CONTINUOUS
10
0.841833
20
-0.813788
11
0.841741
21
-0.813537
0
LINE
8
BLACK
6
CONTINUOUS
10
0.841741
20
-0.813537
11
0.841537
21
-0.813366
0
LINE
8
BLACK
6
CONTINUOUS
10
0.841537
20
-0.813366
11
0.841404
21
-0.812611
0
LINE
8
BLACK
6
CONTINUOUS
10
0.841404
20
-0.812611
11
0.841142
21
-0.81189
0
LINE
8
BLACK
6
CONTINUOUS
10
0.841142
20
-0.81189
11
0.841142
21
-0.154409
0
LINE
8
BLACK
6
CONTINUOUS
10
0.841142
20
-0.154409
11
0.841209
21
-0.154026
0
LINE
8
BLACK
6
CONTINUOUS
10
0.841209
20
-0.154026
11
0.841187
21
-0.153897
0
LINE
8
BLACK
6
CONTINUOUS
10
0.841187
20
-0.153897
11
0.841252
21
-0.153783
0
LINE
8
BLACK
6
CONTINUOUS
10
0.841252
20
-0.153783
11
0.84132
21
-0.1534
0
LINE
8
BLACK
6
CONTINUOUS
10
0.84132
20
-0.1534
11
0.841813
21
-0.152812
0
LINE
8
BLACK
6
CONTINUOUS
10
0.841813
20
-0.152812
11
0.842196
21
-0.152148
0
LINE
8
BLACK
6
CONTINUOUS
10
0.842196
20
-0.152148
11
0.842447
21
-0.152056
0
LINE
8
BLACK
6
CONTINUOUS
10
0.842447
20
-0.152056
11
0.842618
21
-0.151852
0
LINE
8
BLACK
6
CONTINUOUS
10
0.842618
20
-0.151852
11
0.843374
21
-0.151719
0
LINE
8
BLACK
6
CONTINUOUS
10
0.843374
20
-0.151719
11
0.844094
21
-0.151457
0
LINE
8
BLACK
6
CONTINUOUS
10
0.844094
20
-0.151457
11
2.10394
21
-0.151457
0
LINE
8
BLACK
6
CONTINUOUS
10
2.10394
20
-0.151457
11
2.10432
21
-0.151524
0
LINE
8
BLACK
6
CONTINUOUS
10
0.847047
20
-0.157362
11
0.847047
21
-0.808937
0
LINE
8
BLACK
6
CONTINUOUS
10
0.847047
20
-0.808937
11
2.10098
21
-0.808937
0
LINE
8
BLACK
6
CONTINUOUS
10
2.10098
20
-0.808937
11
2.10098
21
-0.157362
0
LINE
8
BLACK
6
CONTINUOUS
10
2.10098
20
-0.157362
11
0.847047
21
-0.157362
0
LINE
8
BLACK
6
CONTINUOUS
10
2.02287
20
-0.735665
11
2.023
21
-0.735779
0
LINE
8
BLACK
6
CONTINUOUS
10
2.023
20
-0.735779
11
2.02318
21
-0.735799
0
LINE
8
BLACK
6
CONTINUOUS
10
2.02318
20
-0.735799
11
2.02693
21
-0.737674
0
LINE
8
BLACK
6
CONTINUOUS
10
2.02693
20
-0.737674
11
2.02764
21
-0.7382
0
LINE
8
BLACK
6
CONTINUOUS
10
2.02764
20
-0.7382
11
2.0277
21
-0.738227
0
LINE
8
BLACK
6
CONTINUOUS
10
2.0277
20
-0.738227
11
2.02957
21
-0.740102
0
LINE
8
BLACK
6
CONTINUOUS
10
2.02957
20
-0.740102
11
2.03008
21
-0.740825
0
LINE
8
BLACK
6
CONTINUOUS
10
2.03008
20
-0.740825
11
2.03013
21
-0.740869
0
LINE
8
BLACK
6
CONTINUOUS
10
2.03013
20
-0.740869
11
2.032
21
-0.744619
0
LINE
8
BLACK
6
CONTINUOUS
10
2.032
20
-0.744619
11
2.03215
21
-0.745107
0
LINE
8
BLACK
6
CONTINUOUS
10
2.03215
20
-0.745107
11
2.03222
21
-0.745223
0
LINE
8
BLACK
6
CONTINUOUS
10
2.03222
20
-0.745223
11
2.0341
21
-0.752722
0
LINE
8
BLACK
6
CONTINUOUS
10
2.0341
20
-0.752722
11
2.03414
21
-0.75331
0
LINE
8
BLACK
6
CONTINUOUS
10
2.03414
20
-0.75331
11
2.03419
21
-0.753438
0
LINE
8
BLACK
6
CONTINUOUS
10
2.03419
20
-0.753438
11
2.03419
21
-0.762812
0
LINE
8
BLACK
6
CONTINUOUS
10
2.03419
20
-0.762812
11
2.03408
21
-0.763393
0
LINE
8
BLACK
6
CONTINUOUS
10
2.03408
20
-0.763393
11
2.0341
21
-0.763528
0
LINE
8
BLACK
6
CONTINUOUS
10
2.0341
20
-0.763528
11
2.03222
21
-0.771027
0
LINE
8
BLACK
6
CONTINUOUS
10
2.03222
20
-0.771027
11
2.03202
21
-0.771493
0
LINE
8
BLACK
6
CONTINUOUS
10
2.03202
20
-0.771493
11
2.032
21
-0.771632
0
LINE
8
BLACK
6
CONTINUOUS
10
2.032
20
-0.771632
11
2.03013
21
-0.775381
0
LINE
8
BLACK
6
CONTINUOUS
10
2.03013
20
-0.775381
11
2.0296
21
-0.77609
0
LINE
8
BLACK
6
CONTINUOUS
10
2.0296
20
-0.77609
11
2.02957
21
-0.776149
0
LINE
8
BLACK
6
CONTINUOUS
10
2.02957
20
-0.776149
11
2.0277
21
-0.778023
0
LINE
8
BLACK
6
CONTINUOUS
10
2.0277
20
-0.778023
11
2.02697
21
-0.77853
0
LINE
8
BLACK
6
CONTINUOUS
10
2.02697
20
-0.77853
11
2.02693
21
-0.778576
0
LINE
8
BLACK
6
CONTINUOUS
10
2.02693
20
-0.778576
11
2.02318
21
-0.780451
0
LINE
8
BLACK
6
CONTINUOUS
10
2.02318
20
-0.780451
11
2.0222
21
-0.780744
0
LINE
8
BLACK
6
CONTINUOUS
10
2.0222
20
-0.780744
11
2.02203
21
-0.780703
0
LINE
8
BLACK
6
CONTINUOUS
10
2.02203
20
-0.780703
11
2.02186
21
-0.780763
0
LINE
8
BLACK
6
CONTINUOUS
10
2.02186
20
-0.780763
11
2.01811
21
-0.780763
0
LINE
8
BLACK
6
CONTINUOUS
10
2.01811
20
-0.780763
11
2.0171
21
-0.780585
0
LINE
8
BLACK
6
CONTINUOUS
10
2.0171
20
-0.780585
11
2.01697
21
-0.780471
0
LINE
8
BLACK
6
CONTINUOUS
10
2.01697
20
-0.780471
11
2.01679
21
-0.780451
0
LINE
8
BLACK
6
CONTINUOUS
10
2.01679
20
-0.780451
11
2.01304
21
-0.778576
0
LINE
8
BLACK
6
CONTINUOUS
10
2.01304
20
-0.778576
11
2.01233
21
-0.778051
0
LINE
8
BLACK
6
CONTINUOUS
10
2.01233
20
-0.778051
11
2.01227
21
-0.778023
0
LINE
8
BLACK
6
CONTINUOUS
10
2.01227
20
-0.778023
11
2.0104
21
-0.776149
0
LINE
8
BLACK
6
CONTINUOUS
10
2.0104
20
-0.776149
11
2.00989
21
-0.775426
0
LINE
8
BLACK
6
CONTINUOUS
10
2.00989
20
-0.775426
11
2.00984
21
-0.775381
0
LINE
8
BLACK
6
CONTINUOUS
10
2.00984
20
-0.775381
11
2.00797
21
-0.771632
0
LINE
8
BLACK
6
CONTINUOUS
10
2.00797
20
-0.771632
11
2.00782
21
-0.771143
0
LINE
8
BLACK
6
CONTINUOUS
10
2.00782
20
-0.771143
11
2.00775
21
-0.771027
0
LINE
8
BLACK
6
CONTINUOUS
10
2.00775
20
-0.771027
11
2.00587
21
-0.763528
0
LINE
8
BLACK
6
CONTINUOUS
10
2.00587
20
-0.763528
11
2.00583
21
-0.76294
0
LINE
8
BLACK
6
CONTINUOUS
10
2.00583
20
-0.76294
11
2.00578
21
-0.762812
0
LINE
8
BLACK
6
CONTINUOUS
10
2.00578
20
-0.762812
11
2.00578
21
-0.753438
0
LINE
8
BLACK
6
CONTINUOUS
10
2.00578
20
-0.753438
11
2.00589
21
-0.752858
0
LINE
8
BLACK
6
CONTINUOUS
10
2.00589
20
-0.752858
11
2.00587
21
-0.752722
0
LINE
8
BLACK
6
CONTINUOUS
10
2.00587
20
-0.752722
11
2.00775
21
-0.745223
0
LINE
8
BLACK
6
CONTINUOUS
10
2.00775
20
-0.745223
11
2.00795
21
-0.744758
0
LINE
8
BLACK
6
CONTINUOUS
10
2.00795
20
-0.744758
11
2.00797
21
-0.744619
0
LINE
8
BLACK
6
CONTINUOUS
10
2.00797
20
-0.744619
11
2.00984
21
-0.740869
0
LINE
8
BLACK
6
CONTINUOUS
10
2.00984
20
-0.740869
11
2.01037
21
-0.74016
0
LINE
8
BLACK
6
CONTINUOUS
10
2.01037
20
-0.74016
11
2.0104
21
-0.740102
0
LINE
8
BLACK
6
CONTINUOUS
10
2.0104
20
-0.740102
11
2.01227
21
-0.738227
0
LINE
8
BLACK
6
CONTINUOUS
10
2.01227
20
-0.738227
11
2.013
21
-0.737721
0
LINE
8
BLACK
6
CONTINUOUS
10
2.013
20
-0.737721
11
2.01304
21
-0.737674
0
LINE
8
BLACK
6
CONTINUOUS
10
2.01304
20
-0.737674
11
2.01679
21
-0.735799
0
LINE
8
BLACK
6
CONTINUOUS
10
2.01679
20
-0.735799
11
2.01777
21
-0.735507
0
LINE
8
BLACK
6
CONTINUOUS
10
2.01777
20
-0.735507
11
2.01794
21
-0.735548
0
LINE
8
BLACK
6
CONTINUOUS
10
2.01794
20
-0.735548
11
2.01811
21
-0.735487
0
LINE
8
BLACK
6
CONTINUOUS
10
2.01811
20
-0.735487
11
2.02186
21
-0.735487
0
LINE
8
BLACK
6
CONTINUOUS
10
2.02186
20
-0.735487
11
2.02287
21
-0.735665
0
LINE
8
BLACK
6
CONTINUOUS
10
2.01881
20
-0.741393
11
2.01611
21
-0.742742
0
LINE
8
BLACK
6
CONTINUOUS
10
2.01611
20
-0.742742
11
2.01491
21
-0.743939
0
LINE
8
BLACK
6
CONTINUOUS
10
2.01491
20
-0.743939
11
2.0134
21
-0.74697
0
LINE
8
BLACK
6
CONTINUOUS
10
2.0134
20
-0.74697
11
2.01169
21
-0.753802
0
LINE
8
BLACK
6
CONTINUOUS
10
2.01169
20
-0.753802
11
2.01169
21
-0.762449
0
LINE
8
BLACK
6
CONTINUOUS
10
2.01169
20
-0.762449
11
2.0134
21
-0.769281
0
LINE
8
BLACK
6
CONTINUOUS
10
2.0134
20
-0.769281
11
2.01491
21
-0.772312
0
LINE
8
BLACK
6
CONTINUOUS
10
2.01491
20
-0.772312
11
2.01611
21
-0.773509
0
LINE
8
BLACK
6
CONTINUOUS
10
2.01611
20
-0.773509
11
2.01881
21
-0.774857
0
LINE
8
BLACK
6
CONTINUOUS
10
2.01881
20
-0.774857
11
2.02116
21
-0.774857
0
LINE
8
BLACK
6
CONTINUOUS
10
2.02116
20
-0.774857
11
2.02386
21
-0.773509
0
LINE
8
BLACK
6
CONTINUOUS
10
2.02386
20
-0.773509
11
2.02506
21
-0.772312
0
LINE
8
BLACK
6
CONTINUOUS
10
2.02506
20
-0.772312
11
2.02657
21
-0.769281
0
LINE
8
BLACK
6
CONTINUOUS
10
2.02657
20
-0.769281
11
2.02828
21
-0.762449
0
LINE
8
BLACK
6
CONTINUOUS
10
2.02828
20
-0.762449
11
2.02828
21
-0.753802
0
LINE
8
BLACK
6
CONTINUOUS
10
2.02828
20
-0.753802
11
2.02657
21
-0.74697
0
LINE
8
BLACK
6
CONTINUOUS
10
2.02657
20
-0.74697
11
2.02506
21
-0.743939
0
LINE
8
BLACK
6
CONTINUOUS
10
2.02506
20
-0.743939
11
2.02386
21
-0.742742
0
LINE
8
BLACK
6
CONTINUOUS
10
2.02386
20
-0.742742
11
2.02116
21
-0.741393
0
LINE
8
BLACK
6
CONTINUOUS
10
2.02116
20
-0.741393
11
2.01881
21
-0.741393
0
LINE
8
BLACK
6
CONTINUOUS
10
1.98898
20
-0.735641
11
1.98905
21
-0.735639
0
LINE
8
BLACK
6
CONTINUOUS
10
1.98905
20
-0.735639
11
1.99467
21
-0.737514
0
LINE
8
BLACK
6
CONTINUOUS
10
1.99467
20
-0.737514
11
1.99557
21
-0.738002
0
LINE
8
BLACK
6
CONTINUOUS
10
1.99557
20
-0.738002
11
1.99663
21
-0.739723
0
LINE
8
BLACK
6
CONTINUOUS
10
1.99663
20
-0.739723
11
1.99633
21
-0.741721
0
LINE
8
BLACK
6
CONTINUOUS
10
1.99633
20
-0.741721
11
1.99482
21
-0.743061
0
LINE
8
BLACK
6
CONTINUOUS
10
1.99482
20
-0.743061
11
1.9928
21
-0.743116
0
LINE
8
BLACK
6
CONTINUOUS
10
1.9928
20
-0.743116
11
1.98763
21
-0.741393
0
LINE
8
BLACK
6
CONTINUOUS
10
1.98763
20
-0.741393
11
1.97944
21
-0.741393
0
LINE
8
BLACK
6
CONTINUOUS
10
1.97944
20
-0.741393
11
1.97674
21
-0.742742
0
LINE
8
BLACK
6
CONTINUOUS
10
1.97674
20
-0.742742
11
1.97554
21
-0.743939
0
LINE
8
BLACK
6
CONTINUOUS
10
1.97554
20
-0.743939
11
1.97419
21
-0.746636
0
LINE
8
BLACK
6
CONTINUOUS
10
1.97419
20
-0.746636
11
1.97419
21
-0.748992
0
LINE
8
BLACK
6
CONTINUOUS
10
1.97419
20
-0.748992
11
1.97554
21
-0.751689
0
LINE
8
BLACK
6
CONTINUOUS
10
1.97554
20
-0.751689
11
1.97674
21
-0.752886
0
LINE
8
BLACK
6
CONTINUOUS
10
1.97674
20
-0.752886
11
1.97977
21
-0.754402
0
LINE
8
BLACK
6
CONTINUOUS
10
1.97977
20
-0.754402
11
1.98696
21
-0.756198
0
LINE
8
BLACK
6
CONTINUOUS
10
1.98696
20
-0.756198
11
1.98742
21
-0.756406
0
LINE
8
BLACK
6
CONTINUOUS
10
1.98742
20
-0.756406
11
1.98756
21
-0.756422
0
LINE
8
BLACK
6
CONTINUOUS
10
1.98756
20
-0.756422
11
1.99131
21
-0.758296
0
LINE
8
BLACK
6
CONTINUOUS
10
1.99131
20
-0.758296
11
1.99202
21
-0.758822
0
LINE
8
BLACK
6
CONTINUOUS
10
1.99202
20
-0.758822
11
1.99208
21
-0.758849
0
LINE
8
BLACK
6
CONTINUOUS
10
1.99208
20
-0.758849
11
1.99395
21
-0.760724
0
LINE
8
BLACK
6
CONTINUOUS
10
1.99395
20
-0.760724
11
1.99446
21
-0.761447
0
LINE
8
BLACK
6
CONTINUOUS
10
1.99446
20
-0.761447
11
1.9945
21
-0.761492
0
LINE
8
BLACK
6
CONTINUOUS
10
1.9945
20
-0.761492
11
1.99638
21
-0.765241
0
LINE
8
BLACK
6
CONTINUOUS
10
1.99638
20
-0.765241
11
1.99667
21
-0.766224
0
LINE
8
BLACK
6
CONTINUOUS
10
1.99667
20
-0.766224
11
1.99663
21
-0.766396
0
LINE
8
BLACK
6
CONTINUOUS
10
1.99663
20
-0.766396
11
1.99669
21
-0.766562
0
LINE
8
BLACK
6
CONTINUOUS
10
1.99669
20
-0.766562
11
1.99669
21
-0.770311
0
LINE
8
BLACK
6
CONTINUOUS
10
1.99669
20
-0.770311
11
1.99651
21
-0.771321
0
LINE
8
BLACK
6
CONTINUOUS
10
1.99651
20
-0.771321
11
1.9964
21
-0.771456
0
LINE
8
BLACK
6
CONTINUOUS
10
1.9964
20
-0.771456
11
1.99638
21
-0.771632
0
LINE
8
BLACK
6
CONTINUOUS
10
1.99638
20
-0.771632
11
1.9945
21
-0.775381
0
LINE
8
BLACK
6
CONTINUOUS
10
1.9945
20
-0.775381
11
1.99398
21
-0.77609
0
LINE
8
BLACK
6
CONTINUOUS
10
1.99398
20
-0.77609
11
1.99395
21
-0.776149
0
LINE
8
BLACK
6
CONTINUOUS
10
1.99395
20
-0.776149
11
1.99208
21
-0.778023
0
LINE
8
BLACK
6
CONTINUOUS
10
1.99208
20
-0.778023
11
1.99135
21
-0.77853
0
LINE
8
BLACK
6
CONTINUOUS
10
1.99135
20
-0.77853
11
1.99131
21
-0.778576
0
LINE
8
BLACK
6
CONTINUOUS
10
1.99131
20
-0.778576
11
1.98756
21
-0.780451
0
LINE
8
BLACK
6
CONTINUOUS
10
1.98756
20
-0.780451
11
1.98658
21
-0.780744
0
LINE
8
BLACK
6
CONTINUOUS
10
1.98658
20
-0.780744
11
1.98641
21
-0.780703
0
LINE
8
BLACK
6
CONTINUOUS
10
1.98641
20
-0.780703
11
1.98624
21
-0.780763
0
LINE
8
BLACK
6
CONTINUOUS
10
1.98624
20
-0.780763
11
1.97687
21
-0.780763
0
LINE
8
BLACK
6
CONTINUOUS
10
1.97687
20
-0.780763
11
1.976
21
-0.78061
0
LINE
8
BLACK
6
CONTINUOUS
10
1.976
20
-0.78061
11
1.97593
21
-0.780611
0
LINE
8
BLACK
6
CONTINUOUS
10
1.97593
20
-0.780611
11
1.97031
21
-0.778737
0
LINE
8
BLACK
6
CONTINUOUS
10
1.97031
20
-0.778737
11
1.96941
21
-0.778248
0
LINE
8
BLACK
6
CONTINUOUS
10
1.96941
20
-0.778248
11
1.96835
21
-0.776527
0
LINE
8
BLACK
6
CONTINUOUS
10
1.96835
20
-0.776527
11
1.96864
21
-0.774529
0
LINE
8
BLACK
6
CONTINUOUS
10
1.96864
20
-0.774529
11
1.97016
21
-0.773189
0
LINE
8
BLACK
6
CONTINUOUS
10
1.97016
20
-0.773189
11
1.97217
21
-0.773134
0
LINE
8
BLACK
6
CONTINUOUS
10
1.97217
20
-0.773134
11
1.97734
21
-0.774857
0
LINE
8
BLACK
6
CONTINUOUS
10
1.97734
20
-0.774857
11
1.98554
21
-0.774857
0
LINE
8
BLACK
6
CONTINUOUS
10
1.98554
20
-0.774857
11
1.98824
21
-0.773509
0
LINE
8
BLACK
6
CONTINUOUS
10
1.98824
20
-0.773509
11
1.98944
21
-0.772312
0
LINE
8
BLACK
6
CONTINUOUS
10
1.98944
20
-0.772312
11
1.99079
21
-0.769614
0
LINE
8
BLACK
6
CONTINUOUS
10
1.99079
20
-0.769614
11
1.99079
21
-0.767259
0
LINE
8
BLACK
6
CONTINUOUS
10
1.99079
20
-0.767259
11
1.98944
21
-0.764561
0
LINE
8
BLACK
6
CONTINUOUS
10
1.98944
20
-0.764561
11
1.98824
21
-0.763364
0
LINE
8
BLACK
6
CONTINUOUS
10
1.98824
20
-0.763364
11
1.98521
21
-0.761849
0
LINE
8
BLACK
6
CONTINUOUS
10
1.98521
20
-0.761849
11
1.97802
21
-0.760052
0
LINE
8
BLACK
6
CONTINUOUS
10
1.97802
20
-0.760052
11
1.97756
21
-0.759845
0
LINE
8
BLACK
6
CONTINUOUS
10
1.97756
20
-0.759845
11
1.97742
21
-0.759829
0
LINE
8
BLACK
6
CONTINUOUS
10
1.97742
20
-0.759829
11
1.97367
21
-0.757954
0
LINE
8
BLACK
6
CONTINUOUS
10
1.97367
20
-0.757954
11
1.97296
21
-0.757428
0
LINE
8
BLACK
6
CONTINUOUS
10
1.97296
20
-0.757428
11
1.9729
21
-0.757401
0
LINE
8
BLACK
6
CONTINUOUS
10
1.9729
20
-0.757401
11
1.97103
21
-0.755526
0
LINE
8
BLACK
6
CONTINUOUS
10
1.97103
20
-0.755526
11
1.97052
21
-0.754803
0
LINE
8
BLACK
6
CONTINUOUS
10
1.97052
20
-0.754803
11
1.97047
21
-0.754759
0
LINE
8
BLACK
6
CONTINUOUS
10
1.97047
20
-0.754759
11
1.9686
21
-0.751009
0
LINE
8
BLACK
6
CONTINUOUS
10
1.9686
20
-0.751009
11
1.96831
21
-0.750026
0
LINE
8
BLACK
6
CONTINUOUS
10
1.96831
20
-0.750026
11
1.96835
21
-0.749855
0
LINE
8
BLACK
6
CONTINUOUS
10
1.96835
20
-0.749855
11
1.96829
21
-0.749689
0
LINE
8
BLACK
6
CONTINUOUS
10
1.96829
20
-0.749689
11
1.96829
21
-0.745939
0
LINE
8
BLACK
6
CONTINUOUS
10
1.96829
20
-0.745939
11
1.96847
21
-0.744929
0
LINE
8
BLACK
6
CONTINUOUS
10
1.96847
20
-0.744929
11
1.96858
21
-0.744794
0
LINE
8
BLACK
6
CONTINUOUS
10
1.96858
20
-0.744794
11
1.9686
21
-0.744619
0
LINE
8
BLACK
6
CONTINUOUS
10
1.9686
20
-0.744619
11
1.97047
21
-0.740869
0
LINE
8
BLACK
6
CONTINUOUS
10
1.97047
20
-0.740869
11
1.971
21
-0.74016
0
LINE
8
BLACK
6
CONTINUOUS
10
1.971
20
-0.74016
11
1.97103
21
-0.740102
0
LINE
8
BLACK
6
CONTINUOUS
10
1.97103
20
-0.740102
11
1.9729
21
-0.738227
0
LINE
8
BLACK
6
CONTINUOUS
10
1.9729
20
-0.738227
11
1.97363
21
-0.737721
0
LINE
8
BLACK
6
CONTINUOUS
10
1.97363
20
-0.737721
11
1.97367
21
-0.737674
0
LINE
8
BLACK
6
CONTINUOUS
10
1.97367
20
-0.737674
11
1.97742
21
-0.735799
0
LINE
8
BLACK
6
CONTINUOUS
10
1.97742
20
-0.735799
11
1.9784
21
-0.735507
0
LINE
8
BLACK
6
CONTINUOUS
10
1.9784
20
-0.735507
11
1.97857
21
-0.735548
0
LINE
8
BLACK
6
CONTINUOUS
10
1.97857
20
-0.735548
11
1.97874
21
-0.735487
0
LINE
8
BLACK
6
CONTINUOUS
10
1.97874
20
-0.735487
11
1.98811
21
-0.735487
0
LINE
8
BLACK
6
CONTINUOUS
10
1.98811
20
-0.735487
11
1.98898
21
-0.735641
0
LINE
8
BLACK
6
CONTINUOUS
10
2.06786
20
-0.735665
11
2.06941
21
-0.736964
0
LINE
8
BLACK
6
CONTINUOUS
10
2.06941
20
-0.736964
11
2.06976
21
-0.738953
0
LINE
8
BLACK
6
CONTINUOUS
10
2.06976
20
-0.738953
11
2.06875
21
-0.740702
0
LINE
8
BLACK
6
CONTINUOUS
10
2.06875
20
-0.740702
11
2.06685
21
-0.741393
0
LINE
8
BLACK
6
CONTINUOUS
10
2.06685
20
-0.741393
11
2.05078
21
-0.741393
0
LINE
8
BLACK
6
CONTINUOUS
10
2.05078
20
-0.741393
11
2.0498
21
-0.751164
0
LINE
8
BLACK
6
CONTINUOUS
10
2.0498
20
-0.751164
11
2.05054
21
-0.750797
0
LINE
8
BLACK
6
CONTINUOUS
10
2.05054
20
-0.750797
11
2.05152
21
-0.750505
0
LINE
8
BLACK
6
CONTINUOUS
10
2.05152
20
-0.750505
11
2.05169
21
-0.750546
0
LINE
8
BLACK
6
CONTINUOUS
10
2.05169
20
-0.750546
11
2.05186
21
-0.750486
0
LINE
8
BLACK
6
CONTINUOUS
10
2.05186
20
-0.750486
11
2.06123
21
-0.750486
0
LINE
8
BLACK
6
CONTINUOUS
10
2.06123
20
-0.750486
11
2.06224
21
-0.750664
0
LINE
8
BLACK
6
CONTINUOUS
10
2.06224
20
-0.750664
11
2.06237
21
-0.750777
0
LINE
8
BLACK
6
CONTINUOUS
10
2.06237
20
-0.750777
11
2.06255
21
-0.750797
0
LINE
8
BLACK
6
CONTINUOUS
10
2.06255
20
-0.750797
11
2.0663
21
-0.752672
0
LINE
8
BLACK
6
CONTINUOUS
10
2.0663
20
-0.752672
11
2.06701
21
-0.753198
0
LINE
8
BLACK
6
CONTINUOUS
10
2.06701
20
-0.753198
11
2.06707
21
-0.753225
0
LINE
8
BLACK
6
CONTINUOUS
10
2.06707
20
-0.753225
11
2.06894
21
-0.7551
0
LINE
8
BLACK
6
CONTINUOUS
10
2.06894
20
-0.7551
11
2.06945
21
-0.755823
0
LINE
8
BLACK
6
CONTINUOUS
10
2.06945
20
-0.755823
11
2.0695
21
-0.755867
0
LINE
8
BLACK
6
CONTINUOUS
10
2.0695
20
-0.755867
11
2.07137
21
-0.759617
0
LINE
8
BLACK
6
CONTINUOUS
10
2.07137
20
-0.759617
11
2.07166
21
-0.7606
0
LINE
8
BLACK
6
CONTINUOUS
10
2.07166
20
-0.7606
11
2.07162
21
-0.760771
0
LINE
8
BLACK
6
CONTINUOUS
10
2.07162
20
-0.760771
11
2.07168
21
-0.760937
0
LINE
8
BLACK
6
CONTINUOUS
10
2.07168
20
-0.760937
11
2.07168
21
-0.770311
0
LINE
8
BLACK
6
CONTINUOUS
10
2.07168
20
-0.770311
11
2.0715
21
-0.771321
0
LINE
8
BLACK
6
CONTINUOUS
10
2.0715
20
-0.771321
11
2.07139
21
-0.771456
0
LINE
8
BLACK
6
CONTINUOUS
10
2.07139
20
-0.771456
11
2.07137
21
-0.771632
0
LINE
8
BLACK
6
CONTINUOUS
10
2.07137
20
-0.771632
11
2.0695
21
-0.775381
0
LINE
8
BLACK
6
CONTINUOUS
10
2.0695
20
-0.775381
11
2.06897
21
-0.77609
0
LINE
8
BLACK
6
CONTINUOUS
10
2.06897
20
-0.77609
11
2.06894
21
-0.776149
0
LINE
8
BLACK
6
CONTINUOUS
10
2.06894
20
-0.776149
11
2.06707
21
-0.778023
0
LINE
8
BLACK
6
CONTINUOUS
10
2.06707
20
-0.778023
11
2.06634
21
-0.77853
0
LINE
8
BLACK
6
CONTINUOUS
10
2.06634
20
-0.77853
11
2.0663
21
-0.778576
0
LINE
8
BLACK
6
CONTINUOUS
10
2.0663
20
-0.778576
11
2.06255
21
-0.780451
0
LINE
8
BLACK
6
CONTINUOUS
10
2.06255
20
-0.780451
11
2.06157
21
-0.780744
0
LINE
8
BLACK
6
CONTINUOUS
10
2.06157
20
-0.780744
11
2.0614
21
-0.780703
0
LINE
8
BLACK
6
CONTINUOUS
10
2.0614
20
-0.780703
11
2.06123
21
-0.780763
0
LINE
8
BLACK
6
CONTINUOUS
10
2.06123
20
-0.780763
11
2.05186
21
-0.780763
0
LINE
8
BLACK
6
CONTINUOUS
10
2.05186
20
-0.780763
11
2.05085
21
-0.780585
0
LINE
8
BLACK
6
CONTINUOUS
10
2.05085
20
-0.780585
11
2.05071
21
-0.780471
0
LINE
8
BLACK
6
CONTINUOUS
10
2.05071
20
-0.780471
11
2.05054
21
-0.780451
0
LINE
8
BLACK
6
CONTINUOUS
10
2.05054
20
-0.780451
11
2.04679
21
-0.778576
0
LINE
8
BLACK
6
CONTINUOUS
10
2.04679
20
-0.778576
11
2.04608
21
-0.778051
0
LINE
8
BLACK
6
CONTINUOUS
10
2.04608
20
-0.778051
11
2.04602
21
-0.778023
0
LINE
8
BLACK
6
CONTINUOUS
10
2.04602
20
-0.778023
11
2.04414
21
-0.776149
0
LINE
8
BLACK
6
CONTINUOUS
10
2.04414
20
-0.776149
11
2.04356
21
-0.775309
0
LINE
8
BLACK
6
CONTINUOUS
10
2.04356
20
-0.775309
11
2.04338
21
-0.773296
0
LINE
8
BLACK
6
CONTINUOUS
10
2.04338
20
-0.773296
11
2.04454
21
-0.771642
0
LINE
8
BLACK
6
CONTINUOUS
10
2.04454
20
-0.771642
11
2.04649
21
-0.771119
0
LINE
8
BLACK
6
CONTINUOUS
10
2.04649
20
-0.771119
11
2.04832
21
-0.771973
0
LINE
8
BLACK
6
CONTINUOUS
10
2.04832
20
-0.771973
11
2.04986
21
-0.773509
0
LINE
8
BLACK
6
CONTINUOUS
10
2.04986
20
-0.773509
11
2.05255
21
-0.774857
0
LINE
8
BLACK
6
CONTINUOUS
10
2.05255
20
-0.774857
11
2.06053
21
-0.774857
0
LINE
8
BLACK
6
CONTINUOUS
10
2.06053
20
-0.774857
11
2.06323
21
-0.773509
0
LINE
8
BLACK
6
CONTINUOUS
10
2.06323
20
-0.773509
11
2.06443
21
-0.772312
0
LINE
8
BLACK
6
CONTINUOUS
10
2.06443
20
-0.772312
11
2.06578
21
-0.769614
0
LINE
8
BLACK
6
CONTINUOUS
10
2.06578
20
-0.769614
11
2.06578
21
-0.761634
0
LINE
8
BLACK
6
CONTINUOUS
10
2.06578
20
-0.761634
11
2.06443
21
-0.758937
0
LINE
8
BLACK
6
CONTINUOUS
10
2.06443
20
-0.758937
11
2.06323
21
-0.75774
0
LINE
8
BLACK
6
CONTINUOUS
10
2.06323
20
-0.75774
11
2.06053
21
-0.756391
0
LINE
8
BLACK
6
CONTINUOUS
10
2.06053
20
-0.756391
11
2.05255
21
-0.756391
0
LINE
8
BLACK
6
CONTINUOUS
10
2.05255
20
-0.756391
11
2.04986
21
-0.75774
0
LINE
8
BLACK
6
CONTINUOUS
10
2.04986
20
-0.75774
11
2.04832
21
-0.759276
0
LINE
8
BLACK
6
CONTINUOUS
10
2.04832
20
-0.759276
11
2.04748
21
-0.759864
0
LINE
8
BLACK
6
CONTINUOUS
10
2.04748
20
-0.759864
11
2.04746
21
-0.759866
0
LINE
8
BLACK
6
CONTINUOUS
10
2.04746
20
-0.759866
11
2.04745
21
-0.759879
0
LINE
8
BLACK
6
CONTINUOUS
10
2.04745
20
-0.759879
11
2.04646
21
-0.759954
0
LINE
8
BLACK
6
CONTINUOUS
10
2.04646
20
-0.759954
11
2.04547
21
-0.76004
0
LINE
8
BLACK
6
CONTINUOUS
10
2.04547
20
-0.76004
11
2.04545
21
-0.760029
0
LINE
8
BLACK
6
CONTINUOUS
10
2.04545
20
-0.760029
11
2.04543
21
-0.76003
0
LINE
8
BLACK
6
CONTINUOUS
10
2.04543
20
-0.76003
11
2.04463
21
-0.75945
0
LINE
8
BLACK
6
CONTINUOUS
10
2.04463
20
-0.75945
11
2.04381
21
-0.758881
0
LINE
8
BLACK
6
CONTINUOUS
10
2.04381
20
-0.758881
11
2.04381
21
-0.758863
0
LINE
8
BLACK
6
CONTINUOUS
10
2.04381
20
-0.758863
11
2.04379
21
-0.758851
0
LINE
8
BLACK
6
CONTINUOUS
10
2.04379
20
-0.758851
11
2.04355
21
-0.75789
0
LINE
8
BLACK
6
CONTINUOUS
10
2.04355
20
-0.75789
11
2.04329
21
-0.756931
0
LINE
8
BLACK
6
CONTINUOUS
10
2.04329
20
-0.756931
11
2.0433
21
-0.756913
0
LINE
8
BLACK
6
CONTINUOUS
10
2.0433
20
-0.756913
11
2.04329
21
-0.756894
0
LINE
8
BLACK
6
CONTINUOUS
10
2.04329
20
-0.756894
11
2.04517
21
-0.738146
0
LINE
8
BLACK
6
CONTINUOUS
10
2.04517
20
-0.738146
11
2.04521
21
-0.737996
0
LINE
8
BLACK
6
CONTINUOUS
10
2.04521
20
-0.737996
11
2.0452
21
-0.737927
0
LINE
8
BLACK
6
CONTINUOUS
10
2.0452
20
-0.737927
11
2.04526
21
-0.737821
0
LINE
8
BLACK
6
CONTINUOUS
10
2.04526
20
-0.737821
11
2.04545
21
-0.737159
0
LINE
8
BLACK
6
CONTINUOUS
10
2.04545
20
-0.737159
11
2.04589
21
-0.736721
0
LINE
8
BLACK
6
CONTINUOUS
10
2.04589
20
-0.736721
11
2.04621
21
-0.736178
0
LINE
8
BLACK
6
CONTINUOUS
10
2.04621
20
-0.736178
11
2.0466
21
-0.736037
0
LINE
8
BLACK
6
CONTINUOUS
10
2.0466
20
-0.736037
11
2.04689
21
-0.735749
0
LINE
8
BLACK
6
CONTINUOUS
10
2.04689
20
-0.735749
11
2.04752
21
-0.735702
0
LINE
8
BLACK
6
CONTINUOUS
10
2.04752
20
-0.735702
11
2.04811
21
-0.735487
0
LINE
8
BLACK
6
CONTINUOUS
10
2.04811
20
-0.735487
11
2.06685
21
-0.735487
0
LINE
8
BLACK
6
CONTINUOUS
10
2.06685
20
-0.735487
11
2.06786
21
-0.735665
0
LINE
8
BLACK
6
CONTINUOUS
10
1.86264
20
-0.735511
11
1.86269
21
-0.735494
0
LINE
8
BLACK
6
CONTINUOUS
10
1.86269
20
-0.735494
11
1.8628
21
-0.735539
0
LINE
8
BLACK
6
CONTINUOUS
10
1.8628
20
-0.735539
11
1.86351
21
-0.735665
0
LINE
8
BLACK
6
CONTINUOUS
10
1.86351
20
-0.735665
11
1.86398
21
-0.736059
0
LINE
8
BLACK
6
CONTINUOUS
10
1.86398
20
-0.736059
11
1.86454
21
-0.736305
0
LINE
8
BLACK
6
CONTINUOUS
10
1.86454
20
-0.736305
11
1.86473
21
-0.736689
0
LINE
8
BLACK
6
CONTINUOUS
10
1.86473
20
-0.736689
11
1.86506
21
-0.736964
0
LINE
8
BLACK
6
CONTINUOUS
10
1.86506
20
-0.736964
11
1.86517
21
-0.737567
0
LINE
8
BLACK
6
CONTINUOUS
10
1.86517
20
-0.737567
11
1.86544
21
-0.738116
0
LINE
8
BLACK
6
CONTINUOUS
10
1.86544
20
-0.738116
11
1.86534
21
-0.738531
0
LINE
8
BLACK
6
CONTINUOUS
10
1.86534
20
-0.738531
11
1.86541
21
-0.738953
0
LINE
8
BLACK
6
CONTINUOUS
10
1.86541
20
-0.738953
11
1.86511
21
-0.739483
0
LINE
8
BLACK
6
CONTINUOUS
10
1.86511
20
-0.739483
11
1.86496
21
-0.740078
0
LINE
8
BLACK
6
CONTINUOUS
10
1.86496
20
-0.740078
11
1.84178
21
-0.774857
0
LINE
8
BLACK
6
CONTINUOUS
10
1.84178
20
-0.774857
11
1.8625
21
-0.774857
0
LINE
8
BLACK
6
CONTINUOUS
10
1.8625
20
-0.774857
11
1.86351
21
-0.775036
0
LINE
8
BLACK
6
CONTINUOUS
10
1.86351
20
-0.775036
11
1.86506
21
-0.776334
0
LINE
8
BLACK
6
CONTINUOUS
10
1.86506
20
-0.776334
11
1.86541
21
-0.778323
0
LINE
8
BLACK
6
CONTINUOUS
10
1.86541
20
-0.778323
11
1.8644
21
-0.780072
0
LINE
8
BLACK
6
CONTINUOUS
10
1.8644
20
-0.780072
11
1.8625
21
-0.780763
0
LINE
8
BLACK
6
CONTINUOUS
10
1.8625
20
-0.780763
11
1.83626
21
-0.780763
0
LINE
8
BLACK
6
CONTINUOUS
10
1.83626
20
-0.780763
11
1.83613
21
-0.78074
0
LINE
8
BLACK
6
CONTINUOUS
10
1.83613
20
-0.78074
11
1.83607
21
-0.780757
0
LINE
8
BLACK
6
CONTINUOUS
10
1.83607
20
-0.780757
11
1.83596
21
-0.780711
0
LINE
8
BLACK
6
CONTINUOUS
10
1.83596
20
-0.780711
11
1.83525
21
-0.780585
0
LINE
8
BLACK
6
CONTINUOUS
10
1.83525
20
-0.780585
11
1.83478
21
-0.780191
0
LINE
8
BLACK
6
CONTINUOUS
10
1.83478
20
-0.780191
11
1.83422
21
-0.779945
0
LINE
8
BLACK
6
CONTINUOUS
10
1.83422
20
-0.779945
11
1.83403
21
-0.779562
0
LINE
8
BLACK
6
CONTINUOUS
10
1.83403
20
-0.779562
11
1.8337
21
-0.779287
0
LINE
8
BLACK
6
CONTINUOUS
10
1.8337
20
-0.779287
11
1.83359
21
-0.778684
0
LINE
8
BLACK
6
CONTINUOUS
10
1.83359
20
-0.778684
11
1.83332
21
-0.778135
0
LINE
8
BLACK
6
CONTINUOUS
10
1.83332
20
-0.778135
11
1.83342
21
-0.777719
0
LINE
8
BLACK
6
CONTINUOUS
10
1.83342
20
-0.777719
11
1.83335
21
-0.777297
0
LINE
8
BLACK
6
CONTINUOUS
10
1.83335
20
-0.777297
11
1.83366
21
-0.776767
0
LINE
8
BLACK
6
CONTINUOUS
10
1.83366
20
-0.776767
11
1.8338
21
-0.776172
0
LINE
8
BLACK
6
CONTINUOUS
10
1.8338
20
-0.776172
11
1.85699
21
-0.741393
0
LINE
8
BLACK
6
CONTINUOUS
10
1.85699
20
-0.741393
11
1.83626
21
-0.741393
0
LINE
8
BLACK
6
CONTINUOUS
10
1.83626
20
-0.741393
11
1.83525
21
-0.741215
0
LINE
8
BLACK
6
CONTINUOUS
10
1.83525
20
-0.741215
11
1.8337
21
-0.739917
0
LINE
8
BLACK
6
CONTINUOUS
10
1.8337
20
-0.739917
11
1.83335
21
-0.737927
0
LINE
8
BLACK
6
CONTINUOUS
10
1.83335
20
-0.737927
11
1.83436
21
-0.736178
0
LINE
8
BLACK
6
CONTINUOUS
10
1.83436
20
-0.736178
11
1.83626
21
-0.735487
0
LINE
8
BLACK
6
CONTINUOUS
10
1.83626
20
-0.735487
11
1.8625
21
-0.735487
0
LINE
8
BLACK
6
CONTINUOUS
10
1.8625
20
-0.735487
11
1.86264
21
-0.735511
0
LINE
8
BLACK
6
CONTINUOUS
10
1.81223
20
-0.735562
11
1.8124
21
-0.735532
0
LINE
8
BLACK
6
CONTINUOUS
10
1.8124
20
-0.735532
11
1.81314
21
-0.735961
0
LINE
8
BLACK
6
CONTINUOUS
10
1.81314
20
-0.735961
11
1.81393
21
-0.736305
0
LINE
8
BLACK
6
CONTINUOUS
10
1.81393
20
-0.736305
11
1.814
21
-0.736457
0
LINE
8
BLACK
6
CONTINUOUS
10
1.814
20
-0.736457
11
1.81415
21
-0.736542
0
LINE
8
BLACK
6
CONTINUOUS
10
1.81415
20
-0.736542
11
1.81444
21
-0.737347
0
LINE
8
BLACK
6
CONTINUOUS
10
1.81444
20
-0.737347
11
1.81482
21
-0.738116
0
LINE
8
BLACK
6
CONTINUOUS
10
1.81482
20
-0.738116
11
1.81478
21
-0.738281
0
LINE
8
BLACK
6
CONTINUOUS
10
1.81478
20
-0.738281
11
1.81484
21
-0.73844
0
LINE
8
BLACK
6
CONTINUOUS
10
1.81484
20
-0.73844
11
1.81484
21
-0.774857
0
LINE
8
BLACK
6
CONTINUOUS
10
1.81484
20
-0.774857
11
1.82313
21
-0.774857
0
LINE
8
BLACK
6
CONTINUOUS
10
1.82313
20
-0.774857
11
1.82414
21
-0.775036
0
LINE
8
BLACK
6
CONTINUOUS
10
1.82414
20
-0.775036
11
1.82569
21
-0.776334
0
LINE
8
BLACK
6
CONTINUOUS
10
1.82569
20
-0.776334
11
1.82604
21
-0.778323
0
LINE
8
BLACK
6
CONTINUOUS
10
1.82604
20
-0.778323
11
1.82503
21
-0.780072
0
LINE
8
BLACK
6
CONTINUOUS
10
1.82503
20
-0.780072
11
1.82313
21
-0.780763
0
LINE
8
BLACK
6
CONTINUOUS
10
1.82313
20
-0.780763
11
1.80064
21
-0.780763
0
LINE
8
BLACK
6
CONTINUOUS
10
1.80064
20
-0.780763
11
1.79963
21
-0.780585
0
LINE
8
BLACK
6
CONTINUOUS
10
1.79963
20
-0.780585
11
1.79808
21
-0.779287
0
LINE
8
BLACK
6
CONTINUOUS
10
1.79808
20
-0.779287
11
1.79773
21
-0.777297
0
LINE
8
BLACK
6
CONTINUOUS
10
1.79773
20
-0.777297
11
1.79874
21
-0.775548
0
LINE
8
BLACK
6
CONTINUOUS
10
1.79874
20
-0.775548
11
1.80064
21
-0.774857
0
LINE
8
BLACK
6
CONTINUOUS
10
1.80064
20
-0.774857
11
1.80893
21
-0.774857
0
LINE
8
BLACK
6
CONTINUOUS
10
1.80893
20
-0.774857
11
1.80893
21
-0.747444
0
LINE
8
BLACK
6
CONTINUOUS
10
1.80893
20
-0.747444
11
1.80647
21
-0.749902
0
LINE
8
BLACK
6
CONTINUOUS
10
1.80647
20
-0.749902
11
1.80575
21
-0.750408
0
LINE
8
BLACK
6
CONTINUOUS
10
1.80575
20
-0.750408
11
1.80571
21
-0.750455
0
LINE
8
BLACK
6
CONTINUOUS
10
1.80571
20
-0.750455
11
1.80196
21
-0.75233
0
LINE
8
BLACK
6
CONTINUOUS
10
1.80196
20
-0.75233
11
1.80097
21
-0.752622
0
LINE
8
BLACK
6
CONTINUOUS
10
1.80097
20
-0.752622
11
1.79901
21
-0.752153
0
LINE
8
BLACK
6
CONTINUOUS
10
1.79901
20
-0.752153
11
1.79781
21
-0.750531
0
LINE
8
BLACK
6
CONTINUOUS
10
1.79781
20
-0.750531
11
1.79793
21
-0.748514
0
LINE
8
BLACK
6
CONTINUOUS
10
1.79793
20
-0.748514
11
1.79932
21
-0.747048
0
LINE
8
BLACK
6
CONTINUOUS
10
1.79932
20
-0.747048
11
1.80264
21
-0.745387
0
LINE
8
BLACK
6
CONTINUOUS
10
1.80264
20
-0.745387
11
1.80584
21
-0.742183
0
LINE
8
BLACK
6
CONTINUOUS
10
1.80584
20
-0.742183
11
1.80943
21
-0.736802
0
LINE
8
BLACK
6
CONTINUOUS
10
1.80943
20
-0.736802
11
1.81014
21
-0.736061
0
LINE
8
BLACK
6
CONTINUOUS
10
1.81014
20
-0.736061
11
1.8103
21
-0.736013
0
LINE
8
BLACK
6
CONTINUOUS
10
1.8103
20
-0.736013
11
1.81041
21
-0.735883
0
LINE
8
BLACK
6
CONTINUOUS
10
1.81041
20
-0.735883
11
1.81125
21
-0.735734
0
LINE
8
BLACK
6
CONTINUOUS
10
1.81125
20
-0.735734
11
1.81208
21
-0.735494
0
LINE
8
BLACK
6
CONTINUOUS
10
1.81208
20
-0.735494
11
1.81223
21
-0.735562
0
LINE
8
BLACK
6
CONTINUOUS
10
1.73541
20
-0.736542
11
1.7361
21
-0.73844
0
LINE
8
BLACK
6
CONTINUOUS
10
1.7361
20
-0.73844
11
1.7361
21
-0.774857
0
LINE
8
BLACK
6
CONTINUOUS
10
1.7361
20
-0.774857
11
1.75189
21
-0.774857
0
LINE
8
BLACK
6
CONTINUOUS
10
1.75189
20
-0.774857
11
1.7529
21
-0.775036
0
LINE
8
BLACK
6
CONTINUOUS
10
1.7529
20
-0.775036
11
1.75445
21
-0.776334
0
LINE
8
BLACK
6
CONTINUOUS
10
1.75445
20
-0.776334
11
1.7548
21
-0.778323
0
LINE
8
BLACK
6
CONTINUOUS
10
1.7548
20
-0.778323
11
1.75379
21
-0.780072
0
LINE
8
BLACK
6
CONTINUOUS
10
1.75379
20
-0.780072
11
1.75189
21
-0.780763
0
LINE
8
BLACK
6
CONTINUOUS
10
1.75189
20
-0.780763
11
1.73315
21
-0.780763
0
LINE
8
BLACK
6
CONTINUOUS
10
1.73315
20
-0.780763
11
1.73276
21
-0.780695
0
LINE
8
BLACK
6
CONTINUOUS
10
1.73276
20
-0.780695
11
1.73263
21
-0.780718
0
LINE
8
BLACK
6
CONTINUOUS
10
1.73263
20
-0.780718
11
1.73252
21
-0.780653
0
LINE
8
BLACK
6
CONTINUOUS
10
1.73252
20
-0.780653
11
1.73214
21
-0.780585
0
LINE
8
BLACK
6
CONTINUOUS
10
1.73214
20
-0.780585
11
1.73155
21
-0.780092
0
LINE
8
BLACK
6
CONTINUOUS
10
1.73155
20
-0.780092
11
1.73088
21
-0.779708
0
LINE
8
BLACK
6
CONTINUOUS
10
1.73088
20
-0.779708
11
1.73079
21
-0.779458
0
LINE
8
BLACK
6
CONTINUOUS
10
1.73079
20
-0.779458
11
1.73059
21
-0.779287
0
LINE
8
BLACK
6
CONTINUOUS
10
1.73059
20
-0.779287
11
1.73046
21
-0.778531
0
LINE
8
BLACK
6
CONTINUOUS
10
1.73046
20
-0.778531
11
1.73019
21
-0.77781
0
LINE
8
BLACK
6
CONTINUOUS
10
1.73019
20
-0.77781
11
1.73019
21
-0.73844
0
LINE
8
BLACK
6
CONTINUOUS
10
1.73019
20
-0.73844
11
1.73037
21
-0.73743
0
LINE
8
BLACK
6
CONTINUOUS
10
1.73037
20
-0.73743
11
1.73167
21
-0.735883
0
LINE
8
BLACK
6
CONTINUOUS
10
1.73167
20
-0.735883
11
1.73366
21
-0.735532
0
LINE
8
BLACK
6
CONTINUOUS
10
1.73366
20
-0.735532
11
1.73541
21
-0.736542
0
LINE
8
BLACK
6
CONTINUOUS
10
1.77728
20
-0.735665
11
1.77741
21
-0.735779
0
LINE
8
BLACK
6
CONTINUOUS
10
1.77741
20
-0.735779
11
1.77759
21
-0.735799
0
LINE
8
BLACK
6
CONTINUOUS
10
1.77759
20
-0.735799
11
1.78134
21
-0.737674
0
LINE
8
BLACK
6
CONTINUOUS
10
1.78134
20
-0.737674
11
1.78204
21
-0.7382
0
LINE
8
BLACK
6
CONTINUOUS
10
1.78204
20
-0.7382
11
1.7821
21
-0.738227
0
LINE
8
BLACK
6
CONTINUOUS
10
1.7821
20
-0.738227
11
1.78398
21
-0.740102
0
LINE
8
BLACK
6
CONTINUOUS
10
1.78398
20
-0.740102
11
1.78448
21
-0.740825
0
LINE
8
BLACK
6
CONTINUOUS
10
1.78448
20
-0.740825
11
1.78453
21
-0.740869
0
LINE
8
BLACK
6
CONTINUOUS
10
1.78453
20
-0.740869
11
1.78641
21
-0.744619
0
LINE
8
BLACK
6
CONTINUOUS
10
1.78641
20
-0.744619
11
1.78655
21
-0.745107
0
LINE
8
BLACK
6
CONTINUOUS
10
1.78655
20
-0.745107
11
1.78663
21
-0.745223
0
LINE
8
BLACK
6
CONTINUOUS
10
1.78663
20
-0.745223
11
1.7885
21
-0.752722
0
LINE
8
BLACK
6
CONTINUOUS
10
1.7885
20
-0.752722
11
1.78855
21
-0.75331
0
LINE
8
BLACK
6
CONTINUOUS
10
1.78855
20
-0.75331
11
1.78859
21
-0.753438
0
LINE
8
BLACK
6
CONTINUOUS
10
1.78859
20
-0.753438
11
1.78859
21
-0.762812
0
LINE
8
BLACK
6
CONTINUOUS
10
1.78859
20
-0.762812
11
1.78849
21
-0.763393
0
LINE
8
BLACK
6
CONTINUOUS
10
1.78849
20
-0.763393
11
1.7885
21
-0.763528
0
LINE
8
BLACK
6
CONTINUOUS
10
1.7885
20
-0.763528
11
1.78663
21
-0.771027
0
LINE
8
BLACK
6
CONTINUOUS
10
1.78663
20
-0.771027
11
1.78642
21
-0.771493
0
LINE
8
BLACK
6
CONTINUOUS
10
1.78642
20
-0.771493
11
1.78641
21
-0.771632
0
LINE
8
BLACK
6
CONTINUOUS
10
1.78641
20
-0.771632
11
1.78453
21
-0.775381
0
LINE
8
BLACK
6
CONTINUOUS
10
1.78453
20
-0.775381
11
1.784
21
-0.77609
0
LINE
8
BLACK
6
CONTINUOUS
10
1.784
20
-0.77609
11
1.78398
21
-0.776149
0
LINE
8
BLACK
6
CONTINUOUS
10
1.78398
20
-0.776149
11
1.7821
21
-0.778023
0
LINE
8
BLACK
6
CONTINUOUS
10
1.7821
20
-0.778023
11
1.78138
21
-0.77853
0
LINE
8
BLACK
6
CONTINUOUS
10
1.78138
20
-0.77853
11
1.78134
21
-0.778576
0
LINE
8
BLACK
6
CONTINUOUS
10
1.78134
20
-0.778576
11
1.77759
21
-0.780451
0
LINE
8
BLACK
6
CONTINUOUS
10
1.77759
20
-0.780451
11
1.7766
21
-0.780744
0
LINE
8
BLACK
6
CONTINUOUS
10
1.7766
20
-0.780744
11
1.77643
21
-0.780703
0
LINE
8
BLACK
6
CONTINUOUS
10
1.77643
20
-0.780703
11
1.77627
21
-0.780763
0
LINE
8
BLACK
6
CONTINUOUS
10
1.77627
20
-0.780763
11
1.77252
21
-0.780763
0
LINE
8
BLACK
6
CONTINUOUS
10
1.77252
20
-0.780763
11
1.77151
21
-0.780585
0
LINE
8
BLACK
6
CONTINUOUS
10
1.77151
20
-0.780585
11
1.77137
21
-0.780471
0
LINE
8
BLACK
6
CONTINUOUS
10
1.77137
20
-0.780471
11
1.7712
21
-0.780451
0
LINE
8
BLACK
6
CONTINUOUS
10
1.7712
20
-0.780451
11
1.76745
21
-0.778576
0
LINE
8
BLACK
6
CONTINUOUS
10
1.76745
20
-0.778576
11
1.76674
21
-0.778051
0
LINE
8
BLACK
6
CONTINUOUS
10
1.76674
20
-0.778051
11
1.76668
21
-0.778023
0
LINE
8
BLACK
6
CONTINUOUS
10
1.76668
20
-0.778023
11
1.7648
21
-0.776149
0
LINE
8
BLACK
6
CONTINUOUS
10
1.7648
20
-0.776149
11
1.7643
21
-0.775426
0
LINE
8
BLACK
6
CONTINUOUS
10
1.7643
20
-0.775426
11
1.76425
21
-0.775381
0
LINE
8
BLACK
6
CONTINUOUS
10
1.76425
20
-0.775381
11
1.76238
21
-0.771632
0
LINE
8
BLACK
6
CONTINUOUS
10
1.76238
20
-0.771632
11
1.76223
21
-0.771143
0
LINE
8
BLACK
6
CONTINUOUS
10
1.76223
20
-0.771143
11
1.76215
21
-0.771027
0
LINE
8
BLACK
6
CONTINUOUS
10
1.76215
20
-0.771027
11
1.76028
21
-0.763528
0
LINE
8
BLACK
6
CONTINUOUS
10
1.76028
20
-0.763528
11
1.76024
21
-0.76294
0
LINE
8
BLACK
6
CONTINUOUS
10
1.76024
20
-0.76294
11
1.76019
21
-0.762812
0
LINE
8
BLACK
6
CONTINUOUS
10
1.76019
20
-0.762812
11
1.76019
21
-0.753438
0
LINE
8
BLACK
6
CONTINUOUS
10
1.76019
20
-0.753438
11
1.76029
21
-0.752858
0
LINE
8
BLACK
6
CONTINUOUS
10
1.76029
20
-0.752858
11
1.76028
21
-0.752722
0
LINE
8
BLACK
6
CONTINUOUS
10
1.76028
20
-0.752722
11
1.76215
21
-0.745223
0
LINE
8
BLACK
6
CONTINUOUS
10
1.76215
20
-0.745223
11
1.76236
21
-0.744758
0
LINE
8
BLACK
6
CONTINUOUS
10
1.76236
20
-0.744758
11
1.76238
21
-0.744619
0
LINE
8
BLACK
6
CONTINUOUS
10
1.76238
20
-0.744619
11
1.76425
21
-0.740869
0
LINE
8
BLACK
6
CONTINUOUS
10
1.76425
20
-0.740869
11
1.76478
21
-0.74016
0
LINE
8
BLACK
6
CONTINUOUS
10
1.76478
20
-0.74016
11
1.7648
21
-0.740102
0
LINE
8
BLACK
6
CONTINUOUS
10
1.7648
20
-0.740102
11
1.76668
21
-0.738227
0
LINE
8
BLACK
6
CONTINUOUS
10
1.76668
20
-0.738227
11
1.7674
21
-0.737721
0
LINE
8
BLACK
6
CONTINUOUS
10
1.7674
20
-0.737721
11
1.76745
21
-0.737674
0
LINE
8
BLACK
6
CONTINUOUS
10
1.76745
20
-0.737674
11
1.7712
21
-0.735799
0
LINE
8
BLACK
6
CONTINUOUS
10
1.7712
20
-0.735799
11
1.77218
21
-0.735507
0
LINE
8
BLACK
6
CONTINUOUS
10
1.77218
20
-0.735507
11
1.77235
21
-0.735548
0
LINE
8
BLACK
6
CONTINUOUS
10
1.77235
20
-0.735548
11
1.77252
21
-0.735487
0
LINE
8
BLACK
6
CONTINUOUS
10
1.77252
20
-0.735487
11
1.77627
21
-0.735487
0
LINE
8
BLACK
6
CONTINUOUS
10
1.77627
20
-0.735487
11
1.77728
21
-0.735665
0
LINE
8
BLACK
6
CONTINUOUS
10
1.77321
20
-0.741393
11
1.77052
21
-0.742742
0
LINE
8
BLACK
6
CONTINUOUS
10
1.77052
20
-0.742742
11
1.76932
21
-0.743939
0
LINE
8
BLACK
6
CONTINUOUS
10
1.76932
20
-0.743939
11
1.7678
21
-0.74697
0
LINE
8
BLACK
6
CONTINUOUS
10
1.7678
20
-0.74697
11
1.76609
21
-0.753802
0
LINE
8
BLACK
6
CONTINUOUS
10
1.76609
20
-0.753802
11
1.76609
21
-0.762449
0
LINE
8
BLACK
6
CONTINUOUS
10
1.76609
20
-0.762449
11
1.7678
21
-0.769281
0
LINE
8
BLACK
6
CONTINUOUS
10
1.7678
20
-0.769281
11
1.76932
21
-0.772312
0
LINE
8
BLACK
6
CONTINUOUS
10
1.76932
20
-0.772312
11
1.77052
21
-0.773509
0
LINE
8
BLACK
6
CONTINUOUS
10
1.77052
20
-0.773509
11
1.77321
21
-0.774857
0
LINE
8
BLACK
6
CONTINUOUS
10
1.77321
20
-0.774857
11
1.77557
21
-0.774857
0
LINE
8
BLACK
6
CONTINUOUS
10
1.77557
20
-0.774857
11
1.77827
21
-0.773509
0
LINE
8
BLACK
6
CONTINUOUS
10
1.77827
20
-0.773509
11
1.77946
21
-0.772312
0
LINE
8
BLACK
6
CONTINUOUS
10
1.77946
20
-0.772312
11
1.78098
21
-0.769281
0
LINE
8
BLACK
6
CONTINUOUS
10
1.78098
20
-0.769281
11
1.78269
21
-0.762449
0
LINE
8
BLACK
6
CONTINUOUS
10
1.78269
20
-0.762449
11
1.78269
21
-0.753802
0
LINE
8
BLACK
6
CONTINUOUS
10
1.78269
20
-0.753802
11
1.78098
21
-0.74697
0
LINE
8
BLACK
6
CONTINUOUS
10
1.78098
20
-0.74697
11
1.77946
21
-0.743939
0
LINE
8
BLACK
6
CONTINUOUS
10
1.77946
20
-0.743939
11
1.77827
21
-0.742742
0
LINE
8
BLACK
6
CONTINUOUS
10
1.77827
20
-0.742742
11
1.77557
21
-0.741393
0
LINE
8
BLACK
6
CONTINUOUS
10
1.77557
20
-0.741393
11
1.77321
21
-0.741393
0
LINE
8
BLACK
6
CONTINUOUS
10
1.96032
20
-0.749594
11
1.96107
21
-0.751469
0
LINE
8
BLACK
6
CONTINUOUS
10
1.96107
20
-0.751469
11
1.96044
21
-0.753388
0
LINE
8
BLACK
6
CONTINUOUS
10
1.96044
20
-0.753388
11
1.95156
21
-0.764687
0
LINE
8
BLACK
6
CONTINUOUS
10
1.95156
20
-0.764687
11
1.96044
21
-0.775986
0
LINE
8
BLACK
6
CONTINUOUS
10
1.96044
20
-0.775986
11
1.96092
21
-0.77689
0
LINE
8
BLACK
6
CONTINUOUS
10
1.96092
20
-0.77689
11
1.96086
21
-0.778909
0
LINE
8
BLACK
6
CONTINUOUS
10
1.96086
20
-0.778909
11
1.95951
21
-0.780414
0
LINE
8
BLACK
6
CONTINUOUS
10
1.95951
20
-0.780414
11
1.95751
21
-0.7807
0
LINE
8
BLACK
6
CONTINUOUS
10
1.95751
20
-0.7807
11
1.9558
21
-0.779635
0
LINE
8
BLACK
6
CONTINUOUS
10
1.9558
20
-0.779635
11
1.94781
21
-0.769466
0
LINE
8
BLACK
6
CONTINUOUS
10
1.94781
20
-0.769466
11
1.93982
21
-0.779635
0
LINE
8
BLACK
6
CONTINUOUS
10
1.93982
20
-0.779635
11
1.93905
21
-0.780319
0
LINE
8
BLACK
6
CONTINUOUS
10
1.93905
20
-0.780319
11
1.93708
21
-0.780733
0
LINE
8
BLACK
6
CONTINUOUS
10
1.93708
20
-0.780733
11
1.9353
21
-0.77978
0
LINE
8
BLACK
6
CONTINUOUS
10
1.9353
20
-0.77978
11
1.93454
21
-0.777905
0
LINE
8
BLACK
6
CONTINUOUS
10
1.93454
20
-0.777905
11
1.93517
21
-0.775986
0
LINE
8
BLACK
6
CONTINUOUS
10
1.93517
20
-0.775986
11
1.94405
21
-0.764687
0
LINE
8
BLACK
6
CONTINUOUS
10
1.94405
20
-0.764687
11
1.93517
21
-0.753388
0
LINE
8
BLACK
6
CONTINUOUS
10
1.93517
20
-0.753388
11
1.93469
21
-0.752484
0
LINE
8
BLACK
6
CONTINUOUS
10
1.93469
20
-0.752484
11
1.93475
21
-0.750465
0
LINE
8
BLACK
6
CONTINUOUS
10
1.93475
20
-0.750465
11
1.9361
21
-0.74896
0
LINE
8
BLACK
6
CONTINUOUS
10
1.9361
20
-0.74896
11
1.9381
21
-0.748674
0
LINE
8
BLACK
6
CONTINUOUS
10
1.9381
20
-0.748674
11
1.93982
21
-0.749739
0
LINE
8
BLACK
6
CONTINUOUS
10
1.93982
20
-0.749739
11
1.94781
21
-0.759908
0
LINE
8
BLACK
6
CONTINUOUS
10
1.94781
20
-0.759908
11
1.9558
21
-0.749739
0
LINE
8
BLACK
6
CONTINUOUS
10
1.9558
20
-0.749739
11
1.95656
21
-0.749055
0
LINE
8
BLACK
6
CONTINUOUS
10
1.95656
20
-0.749055
11
1.95854
21
-0.748641
0
LINE
8
BLACK
6
CONTINUOUS
10
1.95854
20
-0.748641
11
1.96032
21
-0.749594
0
LINE
8
BLACK
6
CONTINUOUS
10
1.89658
20
-0.749594
11
1.89733
21
-0.751469
0
LINE
8
BLACK
6
CONTINUOUS
10
1.89733
20
-0.751469
11
1.8967
21
-0.753388
0
LINE
8
BLACK
6
CONTINUOUS
10
1.8967
20
-0.753388
11
1.88782
21
-0.764687
0
LINE
8
BLACK
6
CONTINUOUS
10
1.88782
20
-0.764687
11
1.8967
21
-0.775986
0
LINE
8
BLACK
6
CONTINUOUS
10
1.8967
20
-0.775986
11
1.89718
21
-0.77689
0
LINE
8
BLACK
6
CONTINUOUS
10
1.89718
20
-0.77689
11
1.89712
21
-0.778909
0
LINE
8
BLACK
6
CONTINUOUS
10
1.89712
20
-0.778909
11
1.89577
21
-0.780414
0
LINE
8
BLACK
6
CONTINUOUS
10
1.89577
20
-0.780414
11
1.89377
21
-0.7807
0
LINE
8
BLACK
6
CONTINUOUS
10
1.89377
20
-0.7807
11
1.89205
21
-0.779634
0
LINE
8
BLACK
6
CONTINUOUS
10
1.89205
20
-0.779634
11
1.88406
21
-0.769466
0
LINE
8
BLACK
6
CONTINUOUS
10
1.88406
20
-0.769466
11
1.87608
21
-0.779635
0
LINE
8
BLACK
6
CONTINUOUS
10
1.87608
20
-0.779635
11
1.87531
21
-0.780319
0
LINE
8
BLACK
6
CONTINUOUS
10
1.87531
20
-0.780319
11
1.87333
21
-0.780733
0
LINE
8
BLACK
6
CONTINUOUS
10
1.87333
20
-0.780733
11
1.87155
21
-0.77978
0
LINE
8
BLACK
6
CONTINUOUS
10
1.87155
20
-0.77978
11
1.8708
21
-0.777905
0
LINE
8
BLACK
6
CONTINUOUS
10
1.8708
20
-0.777905
11
1.87143
21
-0.775986
0
LINE
8
BLACK
6
CONTINUOUS
10
1.87143
20
-0.775986
11
1.88031
21
-0.764687
0
LINE
8
BLACK
6
CONTINUOUS
10
1.88031
20
-0.764687
11
1.87143
21
-0.753388
0
LINE
8
BLACK
6
CONTINUOUS
10
1.87143
20
-0.753388
11
1.87095
21
-0.752484
0
LINE
8
BLACK
6
CONTINUOUS
10
1.87095
20
-0.752484
11
1.87101
21
-0.750465
0
LINE
8
BLACK
6
CONTINUOUS
10
1.87101
20
-0.750465
11
1.87236
21
-0.74896
0
LINE
8
BLACK
6
CONTINUOUS
10
1.87236
20
-0.74896
11
1.87436
21
-0.748674
0
LINE
8
BLACK
6
CONTINUOUS
10
1.87436
20
-0.748674
11
1.87608
21
-0.749739
0
LINE
8
BLACK
6
CONTINUOUS
10
1.87608
20
-0.749739
11
1.88406
21
-0.759908
0
LINE
8
BLACK
6
CONTINUOUS
10
1.88406
20
-0.759908
11
1.89205
21
-0.749739
0
LINE
8
BLACK
6
CONTINUOUS
10
1.89205
20
-0.749739
11
1.89282
21
-0.749055
0
LINE
8
BLACK
6
CONTINUOUS
10
1.89282
20
-0.749055
11
1.89479
21
-0.748641
0
LINE
8
BLACK
6
CONTINUOUS
10
1.89479
20
-0.748641
11
1.89658
21
-0.749594
0
LINE
8
BLACK
6
CONTINUOUS
10
1.92845
20
-0.749594
11
1.9292
21
-0.751469
0
LINE
8
BLACK
6
CONTINUOUS
10
1.9292
20
-0.751469
11
1.92857
21
-0.753388
0
LINE
8
BLACK
6
CONTINUOUS
10
1.92857
20
-0.753388
11
1.91969
21
-0.764687
0
LINE
8
BLACK
6
CONTINUOUS
10
1.91969
20
-0.764687
11
1.92857
21
-0.775986
0
LINE
8
BLACK
6
CONTINUOUS
10
1.92857
20
-0.775986
11
1.92905
21
-0.77689
0
LINE
8
BLACK
6
CONTINUOUS
10
1.92905
20
-0.77689
11
1.92899
21
-0.778909
0
LINE
8
BLACK
6
CONTINUOUS
10
1.92899
20
-0.778909
11
1.92764
21
-0.780414
0
LINE
8
BLACK
6
CONTINUOUS
10
1.92764
20
-0.780414
11
1.92564
21
-0.7807
0
LINE
8
BLACK
6
CONTINUOUS
10
1.92564
20
-0.7807
11
1.92392
21
-0.779634
0
LINE
8
BLACK
6
CONTINUOUS
10
1.92392
20
-0.779634
11
1.91594
21
-0.769466
0
LINE
8
BLACK
6
CONTINUOUS
10
1.91594
20
-0.769466
11
1.90795
21
-0.779635
0
LINE
8
BLACK
6
CONTINUOUS
10
1.90795
20
-0.779635
11
1.90718
21
-0.780319
0
LINE
8
BLACK
6
CONTINUOUS
10
1.90718
20
-0.780319
11
1.90521
21
-0.780733
0
LINE
8
BLACK
6
CONTINUOUS
10
1.90521
20
-0.780733
11
1.90342
21
-0.77978
0
LINE
8
BLACK
6
CONTINUOUS
10
1.90342
20
-0.77978
11
1.90267
21
-0.777905
0
LINE
8
BLACK
6
CONTINUOUS
10
1.90267
20
-0.777905
11
1.9033
21
-0.775986
0
LINE
8
BLACK
6
CONTINUOUS
10
1.9033
20
-0.775986
11
1.91218
21
-0.764687
0
LINE
8
BLACK
6
CONTINUOUS
10
1.91218
20
-0.764687
11
1.9033
21
-0.753388
0
LINE
8
BLACK
6
CONTINUOUS
10
1.9033
20
-0.753388
11
1.90282
21
-0.752484
0
LINE
8
BLACK
6
CONTINUOUS
10
1.90282
20
-0.752484
11
1.90288
21
-0.750465
0
LINE
8
BLACK
6
CONTINUOUS
10
1.90288
20
-0.750465
11
1.90423
21
-0.74896
0
LINE
8
BLACK
6
CONTINUOUS
10
1.90423
20
-0.74896
11
1.90623
21
-0.748674
0
LINE
8
BLACK
6
CONTINUOUS
10
1.90623
20
-0.748674
11
1.90795
21
-0.749739
0
LINE
8
BLACK
6
CONTINUOUS
10
1.90795
20
-0.749739
11
1.91594
21
-0.759908
0
LINE
8
BLACK
6
CONTINUOUS
10
1.91594
20
-0.759908
11
1.92392
21
-0.749739
0
LINE
8
BLACK
6
CONTINUOUS
10
1.92392
20
-0.749739
11
1.92469
21
-0.749055
0
LINE
8
BLACK
6
CONTINUOUS
10
1.92469
20
-0.749055
11
1.92667
21
-0.748641
0
LINE
8
BLACK
6
CONTINUOUS
10
1.92667
20
-0.748641
11
1.92845
21
-0.749594
0
LINE
8
BLACK
6
CONTINUOUS
10
1.53267
20
-0.425247
11
1.53283
21
-0.425217
0
LINE
8
BLACK
6
CONTINUOUS
10
1.53283
20
-0.425217
11
1.53358
21
-0.425646
0
LINE
8
BLACK
6
CONTINUOUS
10
1.53358
20
-0.425646
11
1.53436
21
-0.42599
0
LINE
8
BLACK
6
CONTINUOUS
10
1.53436
20
-0.42599
11
1.53444
21
-0.426142
0
LINE
8
BLACK
6
CONTINUOUS
10
1.53444
20
-0.426142
11
1.53458
21
-0.426227
0
LINE
8
BLACK
6
CONTINUOUS
10
1.53458
20
-0.426227
11
1.53488
21
-0.427032
0
LINE
8
BLACK
6
CONTINUOUS
10
1.53488
20
-0.427032
11
1.53526
21
-0.427801
0
LINE
8
BLACK
6
CONTINUOUS
10
1.53526
20
-0.427801
11
1.53522
21
-0.427966
0
LINE
8
BLACK
6
CONTINUOUS
10
1.53522
20
-0.427966
11
1.53527
21
-0.428125
0
LINE
8
BLACK
6
CONTINUOUS
10
1.53527
20
-0.428125
11
1.53527
21
-0.464543
0
LINE
8
BLACK
6
CONTINUOUS
10
1.53527
20
-0.464543
11
1.54357
21
-0.464543
0
LINE
8
BLACK
6
CONTINUOUS
10
1.54357
20
-0.464543
11
1.54458
21
-0.464721
0
LINE
8
BLACK
6
CONTINUOUS
10
1.54458
20
-0.464721
11
1.54613
21
-0.466019
0
LINE
8
BLACK
6
CONTINUOUS
10
1.54613
20
-0.466019
11
1.54648
21
-0.468008
0
LINE
8
BLACK
6
CONTINUOUS
10
1.54648
20
-0.468008
11
1.54547
21
-0.469757
0
LINE
8
BLACK
6
CONTINUOUS
10
1.54547
20
-0.469757
11
1.54357
21
-0.470448
0
LINE
8
BLACK
6
CONTINUOUS
10
1.54357
20
-0.470448
11
1.52107
21
-0.470448
0
LINE
8
BLACK
6
CONTINUOUS
10
1.52107
20
-0.470448
11
1.52006
21
-0.47027
0
LINE
8
BLACK
6
CONTINUOUS
10
1.52006
20
-0.47027
11
1.51852
21
-0.468972
0
LINE
8
BLACK
6
CONTINUOUS
10
1.51852
20
-0.468972
11
1.51816
21
-0.466983
0
LINE
8
BLACK
6
CONTINUOUS
10
1.51816
20
-0.466983
11
1.51917
21
-0.465233
0
LINE
8
BLACK
6
CONTINUOUS
10
1.51917
20
-0.465233
11
1.52107
21
-0.464543
0
LINE
8
BLACK
6
CONTINUOUS
10
1.52107
20
-0.464543
11
1.52937
21
-0.464543
0
LINE
8
BLACK
6
CONTINUOUS
10
1.52937
20
-0.464543
11
1.52937
21
-0.437129
0
LINE
8
BLACK
6
CONTINUOUS
10
1.52937
20
-0.437129
11
1.52691
21
-0.439587
0
LINE
8
BLACK
6
CONTINUOUS
10
1.52691
20
-0.439587
11
1.52619
21
-0.440093
0
LINE
8
BLACK
6
CONTINUOUS
10
1.52619
20
-0.440093
11
1.52614
21
-0.44014
0
LINE
8
BLACK
6
CONTINUOUS
10
1.52614
20
-0.44014
11
1.52239
21
-0.442015
0
LINE
8
BLACK
6
CONTINUOUS
10
1.52239
20
-0.442015
11
1.52141
21
-0.442307
0
LINE
8
BLACK
6
CONTINUOUS
10
1.52141
20
-0.442307
11
1.51945
21
-0.441838
0
LINE
8
BLACK
6
CONTINUOUS
10
1.51945
20
-0.441838
11
1.51824
21
-0.440216
0
LINE
8
BLACK
6
CONTINUOUS
10
1.51824
20
-0.440216
11
1.51836
21
-0.438199
0
LINE
8
BLACK
6
CONTINUOUS
10
1.51836
20
-0.438199
11
1.51975
21
-0.436733
0
LINE
8
BLACK
6
CONTINUOUS
10
1.51975
20
-0.436733
11
1.52307
21
-0.435072
0
LINE
8
BLACK
6
CONTINUOUS
10
1.52307
20
-0.435072
11
1.52628
21
-0.431868
0
LINE
8
BLACK
6
CONTINUOUS
10
1.52628
20
-0.431868
11
1.52986
21
-0.426487
0
LINE
8
BLACK
6
CONTINUOUS
10
1.52986
20
-0.426487
11
1.53057
21
-0.425746
0
LINE
8
BLACK
6
CONTINUOUS
10
1.53057
20
-0.425746
11
1.53074
21
-0.425698
0
LINE
8
BLACK
6
CONTINUOUS
10
1.53074
20
-0.425698
11
1.53084
21
-0.425568
0
LINE
8
BLACK
6
CONTINUOUS
10
1.53084
20
-0.425568
11
1.53169
21
-0.425419
0
LINE
8
BLACK
6
CONTINUOUS
10
1.53169
20
-0.425419
11
1.53251
21
-0.425179
0
LINE
8
BLACK
6
CONTINUOUS
10
1.53251
20
-0.425179
11
1.53267
21
-0.425247
0
LINE
8
BLACK
6
CONTINUOUS
10
1.47146
20
-0.425351
11
1.47301
21
-0.426649
0
LINE
8
BLACK
6
CONTINUOUS
10
1.47301
20
-0.426649
11
1.47336
21
-0.428638
0
LINE
8
BLACK
6
CONTINUOUS
10
1.47336
20
-0.428638
11
1.47235
21
-0.430387
0
LINE
8
BLACK
6
CONTINUOUS
10
1.47235
20
-0.430387
11
1.47045
21
-0.431078
0
LINE
8
BLACK
6
CONTINUOUS
10
1.47045
20
-0.431078
11
1.46216
21
-0.431078
0
LINE
8
BLACK
6
CONTINUOUS
10
1.46216
20
-0.431078
11
1.46216
21
-0.467495
0
LINE
8
BLACK
6
CONTINUOUS
10
1.46216
20
-0.467495
11
1.46198
21
-0.468505
0
LINE
8
BLACK
6
CONTINUOUS
10
1.46198
20
-0.468505
11
1.46068
21
-0.470052
0
LINE
8
BLACK
6
CONTINUOUS
10
1.46068
20
-0.470052
11
1.45869
21
-0.470403
0
LINE
8
BLACK
6
CONTINUOUS
10
1.45869
20
-0.470403
11
1.45694
21
-0.469393
0
LINE
8
BLACK
6
CONTINUOUS
10
1.45694
20
-0.469393
11
1.45625
21
-0.467495
0
LINE
8
BLACK
6
CONTINUOUS
10
1.45625
20
-0.467495
11
1.45625
21
-0.431078
0
LINE
8
BLACK
6
CONTINUOUS
10
1.45625
20
-0.431078
11
1.44796
21
-0.431078
0
LINE
8
BLACK
6
CONTINUOUS
10
1.44796
20
-0.431078
11
1.44695
21
-0.4309
0
LINE
8
BLACK
6
CONTINUOUS
10
1.44695
20
-0.4309
11
1.4454
21
-0.429602
0
LINE
8
BLACK
6
CONTINUOUS
10
1.4454
20
-0.429602
11
1.44505
21
-0.427612
0
LINE
8
BLACK
6
CONTINUOUS
10
1.44505
20
-0.427612
11
1.44606
21
-0.425863
0
LINE
8
BLACK
6
CONTINUOUS
10
1.44606
20
-0.425863
11
1.44796
21
-0.425172
0
LINE
8
BLACK
6
CONTINUOUS
10
1.44796
20
-0.425172
11
1.47045
21
-0.425172
0
LINE
8
BLACK
6
CONTINUOUS
10
1.47045
20
-0.425172
11
1.47146
21
-0.425351
0
LINE
8
BLACK
6
CONTINUOUS
10
1.49959
20
-0.425351
11
1.49972
21
-0.425464
0
LINE
8
BLACK
6
CONTINUOUS
10
1.49972
20
-0.425464
11
1.4999
21
-0.425484
0
LINE
8
BLACK
6
CONTINUOUS
10
1.4999
20
-0.425484
11
1.50365
21
-0.427359
0
LINE
8
BLACK
6
CONTINUOUS
10
1.50365
20
-0.427359
11
1.50435
21
-0.427885
0
LINE
8
BLACK
6
CONTINUOUS
10
1.50435
20
-0.427885
11
1.50441
21
-0.427912
0
LINE
8
BLACK
6
CONTINUOUS
10
1.50441
20
-0.427912
11
1.50629
21
-0.429787
0
LINE
8
BLACK
6
CONTINUOUS
10
1.50629
20
-0.429787
11
1.50679
21
-0.43051
0
LINE
8
BLACK
6
CONTINUOUS
10
1.50679
20
-0.43051
11
1.50684
21
-0.430554
0
LINE
8
BLACK
6
CONTINUOUS
10
1.50684
20
-0.430554
11
1.50872
21
-0.434304
0
LINE
8
BLACK
6
CONTINUOUS
10
1.50872
20
-0.434304
11
1.50901
21
-0.435287
0
LINE
8
BLACK
6
CONTINUOUS
10
1.50901
20
-0.435287
11
1.50897
21
-0.435458
0
LINE
8
BLACK
6
CONTINUOUS
10
1.50897
20
-0.435458
11
1.50903
21
-0.435624
0
LINE
8
BLACK
6
CONTINUOUS
10
1.50903
20
-0.435624
11
1.50903
21
-0.441249
0
LINE
8
BLACK
6
CONTINUOUS
10
1.50903
20
-0.441249
11
1.50885
21
-0.442259
0
LINE
8
BLACK
6
CONTINUOUS
10
1.50885
20
-0.442259
11
1.50874
21
-0.442394
0
LINE
8
BLACK
6
CONTINUOUS
10
1.50874
20
-0.442394
11
1.50872
21
-0.442569
0
LINE
8
BLACK
6
CONTINUOUS
10
1.50872
20
-0.442569
11
1.50684
21
-0.446319
0
LINE
8
BLACK
6
CONTINUOUS
10
1.50684
20
-0.446319
11
1.50631
21
-0.447028
0
LINE
8
BLACK
6
CONTINUOUS
10
1.50631
20
-0.447028
11
1.50629
21
-0.447086
0
LINE
8
BLACK
6
CONTINUOUS
10
1.50629
20
-0.447086
11
1.50441
21
-0.448961
0
LINE
8
BLACK
6
CONTINUOUS
10
1.50441
20
-0.448961
11
1.50369
21
-0.449467
0
LINE
8
BLACK
6
CONTINUOUS
10
1.50369
20
-0.449467
11
1.50365
21
-0.449514
0
LINE
8
BLACK
6
CONTINUOUS
10
1.50365
20
-0.449514
11
1.4999
21
-0.451389
0
LINE
8
BLACK
6
CONTINUOUS
10
1.4999
20
-0.451389
11
1.49891
21
-0.451681
0
LINE
8
BLACK
6
CONTINUOUS
10
1.49891
20
-0.451681
11
1.49874
21
-0.45164
0
LINE
8
BLACK
6
CONTINUOUS
10
1.49874
20
-0.45164
11
1.49861
21
-0.451687
0
LINE
8
BLACK
6
CONTINUOUS
10
1.49861
20
-0.451687
11
1.50849
21
-0.465802
0
LINE
8
BLACK
6
CONTINUOUS
10
1.50849
20
-0.465802
11
1.50893
21
-0.466731
0
LINE
8
BLACK
6
CONTINUOUS
10
1.50893
20
-0.466731
11
1.50875
21
-0.468744
0
LINE
8
BLACK
6
CONTINUOUS
10
1.50875
20
-0.468744
11
1.50732
21
-0.470172
0
LINE
8
BLACK
6
CONTINUOUS
10
1.50732
20
-0.470172
11
1.50531
21
-0.470347
0
LINE
8
BLACK
6
CONTINUOUS
10
1.50531
20
-0.470347
11
1.50366
21
-0.469189
0
LINE
8
BLACK
6
CONTINUOUS
10
1.50366
20
-0.469189
11
1.49141
21
-0.4517
0
LINE
8
BLACK
6
CONTINUOUS
10
1.49141
20
-0.4517
11
1.48653
21
-0.4517
0
LINE
8
BLACK
6
CONTINUOUS
10
1.48653
20
-0.4517
11
1.48653
21
-0.467495
0
LINE
8
BLACK
6
CONTINUOUS
10
1.48653
20
-0.467495
11
1.48635
21
-0.468505
0
LINE
8
BLACK
6
CONTINUOUS
10
1.48635
20
-0.468505
11
1.48505
21
-0.470052
0
LINE
8
BLACK
6
CONTINUOUS
10
1.48505
20
-0.470052
11
1.48306
21
-0.470403
0
LINE
8
BLACK
6
CONTINUOUS
10
1.48306
20
-0.470403
11
1.48132
21
-0.469393
0
LINE
8
BLACK
6
CONTINUOUS
10
1.48132
20
-0.469393
11
1.48062
21
-0.467495
0
LINE
8
BLACK
6
CONTINUOUS
10
1.48062
20
-0.467495
11
1.48062
21
-0.428125
0
LINE
8
BLACK
6
CONTINUOUS
10
1.48062
20
-0.428125
11
1.48069
21
-0.427742
0
LINE
8
BLACK
6
CONTINUOUS
10
1.48069
20
-0.427742
11
1.48067
21
-0.427612
0
LINE
8
BLACK
6
CONTINUOUS
10
1.48067
20
-0.427612
11
1.48073
21
-0.427499
0
LINE
8
BLACK
6
CONTINUOUS
10
1.48073
20
-0.427499
11
1.4808
21
-0.427115
0
LINE
8
BLACK
6
CONTINUOUS
10
1.4808
20
-0.427115
11
1.4813
21
-0.426528
0
LINE
8
BLACK
6
CONTINUOUS
10
1.4813
20
-0.426528
11
1.48168
21
-0.425863
0
LINE
8
BLACK
6
CONTINUOUS
10
1.48168
20
-0.425863
11
1.48193
21
-0.425772
0
LINE
8
BLACK
6
CONTINUOUS
10
1.48193
20
-0.425772
11
1.4821
21
-0.425568
0
LINE
8
BLACK
6
CONTINUOUS
10
1.4821
20
-0.425568
11
1.48286
21
-0.425435
0
LINE
8
BLACK
6
CONTINUOUS
10
1.48286
20
-0.425435
11
1.48358
21
-0.425172
0
LINE
8
BLACK
6
CONTINUOUS
10
1.48358
20
-0.425172
11
1.49858
21
-0.425172
0
LINE
8
BLACK
6
CONTINUOUS
10
1.49858
20
-0.425172
11
1.49959
21
-0.425351
0
LINE
8
BLACK
6
CONTINUOUS
10
1.48653
20
-0.431078
11
1.48653
21
-0.445795
0
LINE
8
BLACK
6
CONTINUOUS
10
1.48653
20
-0.445795
11
1.49788
21
-0.445795
0
LINE
8
BLACK
6
CONTINUOUS
10
1.49788
20
-0.445795
11
1.50058
21
-0.444446
0
LINE
8
BLACK
6
CONTINUOUS
10
1.50058
20
-0.444446
11
1.50177
21
-0.443249
0
LINE
8
BLACK
6
CONTINUOUS
10
1.50177
20
-0.443249
11
1.50312
21
-0.440552
0
LINE
8
BLACK
6
CONTINUOUS
10
1.50312
20
-0.440552
11
1.50312
21
-0.436321
0
LINE
8
BLACK
6
CONTINUOUS
10
1.50312
20
-0.436321
11
1.50177
21
-0.433624
0
LINE
8
BLACK
6
CONTINUOUS
10
1.50177
20
-0.433624
11
1.50058
21
-0.432427
0
LINE
8
BLACK
6
CONTINUOUS
10
1.50058
20
-0.432427
11
1.49788
21
-0.431078
0
LINE
8
BLACK
6
CONTINUOUS
10
1.49788
20
-0.431078
11
1.48653
21
-0.431078
  0
ENDSEC
  0
EOF
