  0
SECTION
  2
HEADER
  9
$ANGBASE
  50
0.0
  9
$ANGDIR
  70
1
  9
$MEASUREMENT
  70
0
  0
ENDSEC
  0
SECTION
  2
TABLES
  0
TABLE
  2
LTYPE
  70
4
  0
LTYPE
  5
40F
  2
CONTINUOUS
  70
0
  3
Solid line
  72
65
  73
0
  40
0.0
  0
LTYPE
  5
410
  2
DASHDOT
 70
0
  3
Dash Dot ____ _ ____ _
 72
65
 73
4
 40
2.0
 49
1.25
 49
-0.25
 49
0.25
 49
-0.25
  0
LTYPE
  5
411
  2
DASHED
 70
0
  3
Dashed __ __ __ __ __
 72
65
 73
2
 40
0.75
 49
0.5
 49
-0.25
  0
LTYPE
  5
43B
  2
DOTTED
 70
0
  3
Dotted .  .  .  .
 72
65
 73
2
 40
0.2
 49
0.0
 49
-0.2
  0
ENDTAB
  0
TABLE
  2
STYLE
  70
4
  0
STYLE
  2
KICAD
  70
0
  40
0
  41
1
  42
1
  50
0
  71
0
  3
isocp.shx
  0
STYLE
  2
KICADB
  70
0
  40
0
  41
1
  42
1
  50
0
  71
0
  3
isocp.shx
  0
STYLE
  2
KICADI
  70
0
  40
0
  41
1
  42
1
  50
15
  71
0
  3
isocp.shx
  0
STYLE
  2
KICADBI
  70
0
  40
0
  41
1
  42
1
  50
15
  71
0
  3
isocp.shx
  0
ENDTAB
  0
TABLE
  2
LAYER
  70
1
  0
LAYER
  2
BLACK
  70
0
  62
7
  6
CONTINUOUS
  0
ENDTAB
  0
ENDSEC
  0
SECTION
  2
ENTITIES
0
LINE
8
BLACK
6
CONTINUOUS
10
0.792229
20
-0.977799
11
0.790859
21
-0.976707
0
LINE
8
BLACK
6
CONTINUOUS
10
0.790859
20
-0.976707
11
0.790099
21
-0.975128
0
LINE
8
BLACK
6
CONTINUOUS
10
0.790099
20
-0.975128
11
0.79
21
-0.974252
0
LINE
8
BLACK
6
CONTINUOUS
10
0.79
20
-0.974252
11
0.79
21
-0.670388
0
LINE
8
BLACK
6
CONTINUOUS
10
0.79
20
-0.670388
11
0.789936
21
-0.670064
0
LINE
8
BLACK
6
CONTINUOUS
10
0.789936
20
-0.670064
11
0.789612
21
-0.67
0
LINE
8
BLACK
6
CONTINUOUS
10
0.789612
20
-0.67
11
0.673937
21
-0.67
0
LINE
8
BLACK
6
CONTINUOUS
10
0.673937
20
-0.67
11
0.672229
21
-0.66961
0
LINE
8
BLACK
6
CONTINUOUS
10
0.672229
20
-0.66961
11
0.670859
21
-0.668518
0
LINE
8
BLACK
6
CONTINUOUS
10
0.670859
20
-0.668518
11
0.670099
21
-0.666939
0
LINE
8
BLACK
6
CONTINUOUS
10
0.670099
20
-0.666939
11
0.67
21
-0.666063
0
LINE
8
BLACK
6
CONTINUOUS
10
0.67
20
-0.666063
11
0.67
21
-0.320388
0
LINE
8
BLACK
6
CONTINUOUS
10
0.67
20
-0.320388
11
0.669936
21
-0.320064
0
LINE
8
BLACK
6
CONTINUOUS
10
0.669936
20
-0.320064
11
0.669612
21
-0.32
0
LINE
8
BLACK
6
CONTINUOUS
10
0.669612
20
-0.32
11
0.383937
21
-0.32
0
LINE
8
BLACK
6
CONTINUOUS
10
0.383937
20
-0.32
11
0.382229
21
-0.31961
0
LINE
8
BLACK
6
CONTINUOUS
10
0.382229
20
-0.31961
11
0.380859
21
-0.318518
0
LINE
8
BLACK
6
CONTINUOUS
10
0.380859
20
-0.318518
11
0.380099
21
-0.316939
0
LINE
8
BLACK
6
CONTINUOUS
10
0.380099
20
-0.316939
11
0.38
21
-0.316063
0
LINE
8
BLACK
6
CONTINUOUS
10
0.38
20
-0.316063
11
0.38
21
0.174252
0
LINE
8
BLACK
6
CONTINUOUS
10
0.38
20
0.174252
11
0.38039
21
0.17596
0
LINE
8
BLACK
6
CONTINUOUS
10
0.38039
20
0.17596
11
0.381482
21
0.17733
0
LINE
8
BLACK
6
CONTINUOUS
10
0.381482
20
0.17733
11
0.383061
21
0.17809
0
LINE
8
BLACK
6
CONTINUOUS
10
0.383061
20
0.17809
11
0.383937
21
0.178189
0
LINE
8
BLACK
6
CONTINUOUS
10
0.383937
20
0.178189
11
2.57425
21
0.178189
0
LINE
8
BLACK
6
CONTINUOUS
10
2.57425
20
0.178189
11
2.57596
21
0.177799
0
LINE
8
BLACK
6
CONTINUOUS
10
2.57596
20
0.177799
11
2.57733
21
0.176707
0
LINE
8
BLACK
6
CONTINUOUS
10
2.57733
20
0.176707
11
2.57809
21
0.175128
0
LINE
8
BLACK
6
CONTINUOUS
10
2.57809
20
0.175128
11
2.57819
21
0.174252
0
LINE
8
BLACK
6
CONTINUOUS
10
2.57819
20
0.174252
11
2.57819
21
-0.974252
0
LINE
8
BLACK
6
CONTINUOUS
10
2.57819
20
-0.974252
11
2.5778
21
-0.97596
0
LINE
8
BLACK
6
CONTINUOUS
10
2.5778
20
-0.97596
11
2.57671
21
-0.97733
0
LINE
8
BLACK
6
CONTINUOUS
10
2.57671
20
-0.97733
11
2.57513
21
-0.97809
0
LINE
8
BLACK
6
CONTINUOUS
10
2.57513
20
-0.97809
11
2.57425
21
-0.978189
0
LINE
8
BLACK
6
CONTINUOUS
10
2.57425
20
-0.978189
11
0.793937
21
-0.978189
0
LINE
8
BLACK
6
CONTINUOUS
10
0.793937
20
-0.978189
11
0.792229
21
-0.977799
0
LINE
8
BLACK
6
CONTINUOUS
10
0.491989
20
0.02
11
0.495664
21
0.0215224
0
LINE
8
BLACK
6
CONTINUOUS
10
0.495664
20
0.0215224
11
0.498478
21
0.0243355
0
LINE
8
BLACK
6
CONTINUOUS
10
0.498478
20
0.0243355
11
0.5
21
0.0280109
0
LINE
8
BLACK
6
CONTINUOUS
10
0.5
20
0.0280109
11
0.5
21
0.053822
0
LINE
8
BLACK
6
CONTINUOUS
10
0.5
20
0.053822
11
0.498822
21
0.055
0
LINE
8
BLACK
6
CONTINUOUS
10
0.498822
20
0.055
11
0.49
21
0.055
0
LINE
8
BLACK
6
CONTINUOUS
10
0.49
20
0.055
11
0.49
21
0.03
0
LINE
8
BLACK
6
CONTINUOUS
10
0.49
20
0.03
11
0.465
21
0.03
0
LINE
8
BLACK
6
CONTINUOUS
10
0.465
20
0.03
11
0.465
21
0.021178
0
LINE
8
BLACK
6
CONTINUOUS
10
0.465
20
0.021178
11
0.466178
21
0.02
0
LINE
8
BLACK
6
CONTINUOUS
10
0.466178
20
0.02
11
0.491989
21
0.02
0
LINE
8
BLACK
6
CONTINUOUS
10
0.424336
20
0.0215224
11
0.428011
21
0.02
0
LINE
8
BLACK
6
CONTINUOUS
10
0.428011
20
0.02
11
0.453822
21
0.02
0
LINE
8
BLACK
6
CONTINUOUS
10
0.453822
20
0.02
11
0.455
21
0.021178
0
LINE
8
BLACK
6
CONTINUOUS
10
0.455
20
0.021178
11
0.455
21
0.03
0
LINE
8
BLACK
6
CONTINUOUS
10
0.455
20
0.03
11
0.43
21
0.03
0
LINE
8
BLACK
6
CONTINUOUS
10
0.43
20
0.03
11
0.43
21
0.055
0
LINE
8
BLACK
6
CONTINUOUS
10
0.43
20
0.055
11
0.421178
21
0.055
0
LINE
8
BLACK
6
CONTINUOUS
10
0.421178
20
0.055
11
0.42
21
0.053822
0
LINE
8
BLACK
6
CONTINUOUS
10
0.42
20
0.053822
11
0.42
21
0.0280109
0
LINE
8
BLACK
6
CONTINUOUS
10
0.42
20
0.0280109
11
0.421522
21
0.0243355
0
LINE
8
BLACK
6
CONTINUOUS
10
0.421522
20
0.0243355
11
0.424336
21
0.0215224
0
LINE
8
BLACK
6
CONTINUOUS
10
-0.177799
20
0.17596
11
-0.176707
21
0.17733
0
LINE
8
BLACK
6
CONTINUOUS
10
-0.176707
20
0.17733
11
-0.175128
21
0.17809
0
LINE
8
BLACK
6
CONTINUOUS
10
-0.175128
20
0.17809
11
-0.174252
21
0.178189
0
LINE
8
BLACK
6
CONTINUOUS
10
-0.174252
20
0.178189
11
0.326063
21
0.178189
0
LINE
8
BLACK
6
CONTINUOUS
10
0.326063
20
0.178189
11
0.327771
21
0.177799
0
LINE
8
BLACK
6
CONTINUOUS
10
0.327771
20
0.177799
11
0.329141
21
0.176707
0
LINE
8
BLACK
6
CONTINUOUS
10
0.329141
20
0.176707
11
0.329901
21
0.175128
0
LINE
8
BLACK
6
CONTINUOUS
10
0.329901
20
0.175128
11
0.33
21
0.174252
0
LINE
8
BLACK
6
CONTINUOUS
10
0.33
20
0.174252
11
0.33
21
-0.356359
0
LINE
8
BLACK
6
CONTINUOUS
10
0.33
20
-0.356359
11
0.32961
21
-0.358067
0
LINE
8
BLACK
6
CONTINUOUS
10
0.32961
20
-0.358067
11
0.328518
21
-0.359437
0
LINE
8
BLACK
6
CONTINUOUS
10
0.328518
20
-0.359437
11
0.32757
21
-0.359996
0
LINE
8
BLACK
6
CONTINUOUS
10
0.32757
20
-0.359996
11
0.308087
21
-0.368066
0
LINE
8
BLACK
6
CONTINUOUS
10
0.308087
20
-0.368066
11
0.286491
21
-0.389662
0
LINE
8
BLACK
6
CONTINUOUS
10
0.286491
20
-0.389662
11
0.274803
21
-0.417879
0
LINE
8
BLACK
6
CONTINUOUS
10
0.274803
20
-0.417879
11
0.274803
21
-0.44842
0
LINE
8
BLACK
6
CONTINUOUS
10
0.274803
20
-0.44842
11
0.286491
21
-0.476637
0
LINE
8
BLACK
6
CONTINUOUS
10
0.286491
20
-0.476637
11
0.303224
21
-0.49337
0
LINE
8
BLACK
6
CONTINUOUS
10
0.303224
20
-0.49337
11
0.304156
21
-0.494853
0
LINE
8
BLACK
6
CONTINUOUS
10
0.304156
20
-0.494853
11
0.304352
21
-0.496595
0
LINE
8
BLACK
6
CONTINUOUS
10
0.304352
20
-0.496595
11
0.303773
21
-0.498248
0
LINE
8
BLACK
6
CONTINUOUS
10
0.303773
20
-0.498248
11
0.303224
21
-0.498938
0
LINE
8
BLACK
6
CONTINUOUS
10
0.303224
20
-0.498938
11
0.262999
21
-0.539162
0
LINE
8
BLACK
6
CONTINUOUS
10
0.262999
20
-0.539162
11
0.261516
21
-0.540094
0
LINE
8
BLACK
6
CONTINUOUS
10
0.261516
20
-0.540094
11
0.260215
21
-0.540315
0
LINE
8
BLACK
6
CONTINUOUS
10
0.260215
20
-0.540315
11
0.0249867
21
-0.540315
0
LINE
8
BLACK
6
CONTINUOUS
10
0.0249867
20
-0.540315
11
0.02348
21
-0.540015
0
LINE
8
BLACK
6
CONTINUOUS
10
0.02348
20
-0.540015
11
0.0146987
21
-0.536378
0
LINE
8
BLACK
6
CONTINUOUS
10
0.0146987
20
-0.536378
11
0.00530126
21
-0.536378
0
LINE
8
BLACK
6
CONTINUOUS
10
0.00530126
20
-0.536378
11
-0.00338075
21
-0.539974
0
LINE
8
BLACK
6
CONTINUOUS
10
-0.00338075
20
-0.539974
11
-0.0100259
21
-0.546619
0
LINE
8
BLACK
6
CONTINUOUS
10
-0.0100259
20
-0.546619
11
-0.013622
21
-0.555301
0
LINE
8
BLACK
6
CONTINUOUS
10
-0.013622
20
-0.555301
11
-0.013622
21
-0.564699
0
LINE
8
BLACK
6
CONTINUOUS
10
-0.013622
20
-0.564699
11
-0.0100259
21
-0.573381
0
LINE
8
BLACK
6
CONTINUOUS
10
-0.0100259
20
-0.573381
11
-0.00338075
21
-0.580026
0
LINE
8
BLACK
6
CONTINUOUS
10
-0.00338075
20
-0.580026
11
0.00317331
21
-0.582741
0
LINE
8
BLACK
6
CONTINUOUS
10
0.00317331
20
-0.582741
11
0.00460228
21
-0.583755
0
LINE
8
BLACK
6
CONTINUOUS
10
0.00460228
20
-0.583755
11
0.00544984
21
-0.585288
0
LINE
8
BLACK
6
CONTINUOUS
10
0.00544984
20
-0.585288
11
0.00554807
21
-0.587037
0
LINE
8
BLACK
6
CONTINUOUS
10
0.00554807
20
-0.587037
11
0.00487756
21
-0.588656
0
LINE
8
BLACK
6
CONTINUOUS
10
0.00487756
20
-0.588656
11
0.0035711
21
-0.589824
0
LINE
8
BLACK
6
CONTINUOUS
10
0.0035711
20
-0.589824
11
0.00188744
21
-0.590309
0
LINE
8
BLACK
6
CONTINUOUS
10
0.00188744
20
-0.590309
11
0.00166669
21
-0.590315
0
LINE
8
BLACK
6
CONTINUOUS
10
0.00166669
20
-0.590315
11
-0.0250133
21
-0.590315
0
LINE
8
BLACK
6
CONTINUOUS
10
-0.0250133
20
-0.590315
11
-0.02652
21
-0.590015
0
LINE
8
BLACK
6
CONTINUOUS
10
-0.02652
20
-0.590015
11
-0.0353013
21
-0.586378
0
LINE
8
BLACK
6
CONTINUOUS
10
-0.0353013
20
-0.586378
11
-0.0446987
21
-0.586378
0
LINE
8
BLACK
6
CONTINUOUS
10
-0.0446987
20
-0.586378
11
-0.0533807
21
-0.589974
0
LINE
8
BLACK
6
CONTINUOUS
10
-0.0533807
20
-0.589974
11
-0.0600259
21
-0.596619
0
LINE
8
BLACK
6
CONTINUOUS
10
-0.0600259
20
-0.596619
11
-0.063622
21
-0.605301
0
LINE
8
BLACK
6
CONTINUOUS
10
-0.063622
20
-0.605301
11
-0.063622
21
-0.614699
0
LINE
8
BLACK
6
CONTINUOUS
10
-0.063622
20
-0.614699
11
-0.0600259
21
-0.623381
0
LINE
8
BLACK
6
CONTINUOUS
10
-0.0600259
20
-0.623381
11
-0.0533807
21
-0.630026
0
LINE
8
BLACK
6
CONTINUOUS
10
-0.0533807
20
-0.630026
11
-0.0446987
21
-0.633622
0
LINE
8
BLACK
6
CONTINUOUS
10
-0.0446987
20
-0.633622
11
-0.0353013
21
-0.633622
0
LINE
8
BLACK
6
CONTINUOUS
10
-0.0353013
20
-0.633622
11
-0.02652
21
-0.629985
0
LINE
8
BLACK
6
CONTINUOUS
10
-0.02652
20
-0.629985
11
-0.0250133
21
-0.629685
0
LINE
8
BLACK
6
CONTINUOUS
10
-0.0250133
20
-0.629685
11
0.377674
21
-0.629685
0
LINE
8
BLACK
6
CONTINUOUS
10
0.377674
20
-0.629685
11
0.378442
21
-0.629761
0
LINE
8
BLACK
6
CONTINUOUS
10
0.378442
20
-0.629761
11
0.38
21
-0.630071
0
LINE
8
BLACK
6
CONTINUOUS
10
0.38
20
-0.630071
11
0.387681
21
-0.628543
0
LINE
8
BLACK
6
CONTINUOUS
10
0.387681
20
-0.628543
11
0.394192
21
-0.624192
0
LINE
8
BLACK
6
CONTINUOUS
10
0.394192
20
-0.624192
11
0.395075
21
-0.622871
0
LINE
8
BLACK
6
CONTINUOUS
10
0.395075
20
-0.622871
11
0.395564
21
-0.622274
0
LINE
8
BLACK
6
CONTINUOUS
10
0.395564
20
-0.622274
11
0.513449
21
-0.50439
0
LINE
8
BLACK
6
CONTINUOUS
10
0.513449
20
-0.50439
11
0.514933
21
-0.503458
0
LINE
8
BLACK
6
CONTINUOUS
10
0.514933
20
-0.503458
11
0.516674
21
-0.503261
0
LINE
8
BLACK
6
CONTINUOUS
10
0.516674
20
-0.503261
11
0.51774
21
-0.503536
0
LINE
8
BLACK
6
CONTINUOUS
10
0.51774
20
-0.503536
11
0.533154
21
-0.509921
0
LINE
8
BLACK
6
CONTINUOUS
10
0.533154
20
-0.509921
11
0.563696
21
-0.509921
0
LINE
8
BLACK
6
CONTINUOUS
10
0.563696
20
-0.509921
11
0.591913
21
-0.498234
0
LINE
8
BLACK
6
CONTINUOUS
10
0.591913
20
-0.498234
11
0.613279
21
-0.476867
0
LINE
8
BLACK
6
CONTINUOUS
10
0.613279
20
-0.476867
11
0.614763
21
-0.475935
0
LINE
8
BLACK
6
CONTINUOUS
10
0.614763
20
-0.475935
11
0.616504
21
-0.475739
0
LINE
8
BLACK
6
CONTINUOUS
10
0.616504
20
-0.475739
11
0.618158
21
-0.476318
0
LINE
8
BLACK
6
CONTINUOUS
10
0.618158
20
-0.476318
11
0.619397
21
-0.477556
0
LINE
8
BLACK
6
CONTINUOUS
10
0.619397
20
-0.477556
11
0.619975
21
-0.47921
0
LINE
8
BLACK
6
CONTINUOUS
10
0.619975
20
-0.47921
11
0.62
21
-0.479651
0
LINE
8
BLACK
6
CONTINUOUS
10
0.62
20
-0.479651
11
0.62
21
-0.729612
0
LINE
8
BLACK
6
CONTINUOUS
10
0.62
20
-0.729612
11
0.620064
21
-0.729936
0
LINE
8
BLACK
6
CONTINUOUS
10
0.620064
20
-0.729936
11
0.620388
21
-0.73
0
LINE
8
BLACK
6
CONTINUOUS
10
0.620388
20
-0.73
11
0.726063
21
-0.73
0
LINE
8
BLACK
6
CONTINUOUS
10
0.726063
20
-0.73
11
0.727771
21
-0.73039
0
LINE
8
BLACK
6
CONTINUOUS
10
0.727771
20
-0.73039
11
0.729141
21
-0.731482
0
LINE
8
BLACK
6
CONTINUOUS
10
0.729141
20
-0.731482
11
0.729901
21
-0.733061
0
LINE
8
BLACK
6
CONTINUOUS
10
0.729901
20
-0.733061
11
0.73
21
-0.733937
0
LINE
8
BLACK
6
CONTINUOUS
10
0.73
20
-0.733937
11
0.73
21
-0.974252
0
LINE
8
BLACK
6
CONTINUOUS
10
0.73
20
-0.974252
11
0.72961
21
-0.97596
0
LINE
8
BLACK
6
CONTINUOUS
10
0.72961
20
-0.97596
11
0.728518
21
-0.97733
0
LINE
8
BLACK
6
CONTINUOUS
10
0.728518
20
-0.97733
11
0.726939
21
-0.97809
0
LINE
8
BLACK
6
CONTINUOUS
10
0.726939
20
-0.97809
11
0.726063
21
-0.978189
0
LINE
8
BLACK
6
CONTINUOUS
10
0.726063
20
-0.978189
11
-0.174252
21
-0.978189
0
LINE
8
BLACK
6
CONTINUOUS
10
-0.174252
20
-0.978189
11
-0.17596
21
-0.977799
0
LINE
8
BLACK
6
CONTINUOUS
10
-0.17596
20
-0.977799
11
-0.17733
21
-0.976707
0
LINE
8
BLACK
6
CONTINUOUS
10
-0.17733
20
-0.976707
11
-0.17809
21
-0.975128
0
LINE
8
BLACK
6
CONTINUOUS
10
-0.17809
20
-0.975128
11
-0.178189
21
-0.974252
0
LINE
8
BLACK
6
CONTINUOUS
10
-0.178189
20
-0.974252
11
-0.178189
21
0.174252
0
LINE
8
BLACK
6
CONTINUOUS
10
-0.178189
20
0.174252
11
-0.177799
21
0.17596
0
LINE
8
BLACK
6
CONTINUOUS
10
0.639774
20
-0.866902
11
0.657138
21
-0.874094
0
LINE
8
BLACK
6
CONTINUOUS
10
0.657138
20
-0.874094
11
0.675933
21
-0.874094
0
LINE
8
BLACK
6
CONTINUOUS
10
0.675933
20
-0.874094
11
0.693297
21
-0.866902
0
LINE
8
BLACK
6
CONTINUOUS
10
0.693297
20
-0.866902
11
0.706587
21
-0.853612
0
LINE
8
BLACK
6
CONTINUOUS
10
0.706587
20
-0.853612
11
0.71378
21
-0.836248
0
LINE
8
BLACK
6
CONTINUOUS
10
0.71378
20
-0.836248
11
0.71378
21
-0.817453
0
LINE
8
BLACK
6
CONTINUOUS
10
0.71378
20
-0.817453
11
0.706587
21
-0.800089
0
LINE
8
BLACK
6
CONTINUOUS
10
0.706587
20
-0.800089
11
0.693297
21
-0.786799
0
LINE
8
BLACK
6
CONTINUOUS
10
0.693297
20
-0.786799
11
0.675933
21
-0.779606
0
LINE
8
BLACK
6
CONTINUOUS
10
0.675933
20
-0.779606
11
0.657138
21
-0.779606
0
LINE
8
BLACK
6
CONTINUOUS
10
0.657138
20
-0.779606
11
0.639774
21
-0.786799
0
LINE
8
BLACK
6
CONTINUOUS
10
0.639774
20
-0.786799
11
0.626484
21
-0.800089
0
LINE
8
BLACK
6
CONTINUOUS
10
0.626484
20
-0.800089
11
0.619291
21
-0.817453
0
LINE
8
BLACK
6
CONTINUOUS
10
0.619291
20
-0.817453
11
0.619291
21
-0.836248
0
LINE
8
BLACK
6
CONTINUOUS
10
0.619291
20
-0.836248
11
0.626484
21
-0.853612
0
LINE
8
BLACK
6
CONTINUOUS
10
0.626484
20
-0.853612
11
0.639774
21
-0.866902
0
LINE
8
BLACK
6
CONTINUOUS
10
0.674452
20
-0.788284
11
0.681792
21
-0.790557
0
LINE
8
BLACK
6
CONTINUOUS
10
0.681792
20
-0.790557
11
0.688551
21
-0.794211
0
LINE
8
BLACK
6
CONTINUOUS
10
0.688551
20
-0.794211
11
0.694471
21
-0.799109
0
LINE
8
BLACK
6
CONTINUOUS
10
0.694471
20
-0.799109
11
0.699328
21
-0.805063
0
LINE
8
BLACK
6
CONTINUOUS
10
0.699328
20
-0.805063
11
0.702935
21
-0.811848
0
LINE
8
BLACK
6
CONTINUOUS
10
0.702935
20
-0.811848
11
0.705156
21
-0.819203
0
LINE
8
BLACK
6
CONTINUOUS
10
0.705156
20
-0.819203
11
0.705906
21
-0.82685
0
LINE
8
BLACK
6
CONTINUOUS
10
0.705906
20
-0.82685
11
0.70589
21
-0.82795
0
LINE
8
BLACK
6
CONTINUOUS
10
0.70589
20
-0.82795
11
0.704927
21
-0.835573
0
LINE
8
BLACK
6
CONTINUOUS
10
0.704927
20
-0.835573
11
0.702502
21
-0.842864
0
LINE
8
BLACK
6
CONTINUOUS
10
0.702502
20
-0.842864
11
0.698706
21
-0.849545
0
LINE
8
BLACK
6
CONTINUOUS
10
0.698706
20
-0.849545
11
0.693686
21
-0.855361
0
LINE
8
BLACK
6
CONTINUOUS
10
0.693686
20
-0.855361
11
0.687631
21
-0.860092
0
LINE
8
BLACK
6
CONTINUOUS
10
0.687631
20
-0.860092
11
0.680773
21
-0.863556
0
LINE
8
BLACK
6
CONTINUOUS
10
0.680773
20
-0.863556
11
0.673372
21
-0.865622
0
LINE
8
BLACK
6
CONTINUOUS
10
0.673372
20
-0.865622
11
0.665711
21
-0.866212
0
LINE
8
BLACK
6
CONTINUOUS
10
0.665711
20
-0.866212
11
0.658081
21
-0.865302
0
LINE
8
BLACK
6
CONTINUOUS
10
0.658081
20
-0.865302
11
0.650774
21
-0.862928
0
LINE
8
BLACK
6
CONTINUOUS
10
0.650774
20
-0.862928
11
0.644066
21
-0.859179
0
LINE
8
BLACK
6
CONTINUOUS
10
0.644066
20
-0.859179
11
0.638215
21
-0.854199
0
LINE
8
BLACK
6
CONTINUOUS
10
0.638215
20
-0.854199
11
0.633442
21
-0.848177
0
LINE
8
BLACK
6
CONTINUOUS
10
0.633442
20
-0.848177
11
0.62993
21
-0.841344
0
LINE
8
BLACK
6
CONTINUOUS
10
0.62993
20
-0.841344
11
0.627812
21
-0.833957
0
LINE
8
BLACK
6
CONTINUOUS
10
0.627812
20
-0.833957
11
0.627169
21
-0.826301
0
LINE
8
BLACK
6
CONTINUOUS
10
0.627169
20
-0.826301
11
0.628026
21
-0.818665
0
LINE
8
BLACK
6
CONTINUOUS
10
0.628026
20
-0.818665
11
0.630349
21
-0.811341
0
LINE
8
BLACK
6
CONTINUOUS
10
0.630349
20
-0.811341
11
0.634051
21
-0.804608
0
LINE
8
BLACK
6
CONTINUOUS
10
0.634051
20
-0.804608
11
0.63899
21
-0.798722
0
LINE
8
BLACK
6
CONTINUOUS
10
0.63899
20
-0.798722
11
0.644978
21
-0.793907
0
LINE
8
BLACK
6
CONTINUOUS
10
0.644978
20
-0.793907
11
0.651787
21
-0.790347
0
LINE
8
BLACK
6
CONTINUOUS
10
0.651787
20
-0.790347
11
0.659158
21
-0.788178
0
LINE
8
BLACK
6
CONTINUOUS
10
0.659158
20
-0.788178
11
0.66681
21
-0.787481
0
LINE
8
BLACK
6
CONTINUOUS
10
0.66681
20
-0.787481
11
0.674452
21
-0.788284
0
LINE
8
BLACK
6
CONTINUOUS
10
0.55443
20
-0.364514
11
0.564509
21
-0.366156
0
LINE
8
BLACK
6
CONTINUOUS
10
0.564509
20
-0.366156
11
0.574235
21
-0.369269
0
LINE
8
BLACK
6
CONTINUOUS
10
0.574235
20
-0.369269
11
0.583393
21
-0.373785
0
LINE
8
BLACK
6
CONTINUOUS
10
0.583393
20
-0.373785
11
0.591784
21
-0.379606
0
LINE
8
BLACK
6
CONTINUOUS
10
0.591784
20
-0.379606
11
0.599222
21
-0.386603
0
LINE
8
BLACK
6
CONTINUOUS
10
0.599222
20
-0.386603
11
0.605544
21
-0.394623
0
LINE
8
BLACK
6
CONTINUOUS
10
0.605544
20
-0.394623
11
0.610611
21
-0.403488
0
LINE
8
BLACK
6
CONTINUOUS
10
0.610611
20
-0.403488
11
0.614312
21
-0.413006
0
LINE
8
BLACK
6
CONTINUOUS
10
0.614312
20
-0.413006
11
0.616566
21
-0.422966
0
LINE
8
BLACK
6
CONTINUOUS
10
0.616566
20
-0.422966
11
0.617323
21
-0.43315
0
LINE
8
BLACK
6
CONTINUOUS
10
0.617323
20
-0.43315
11
0.617228
21
-0.436755
0
LINE
8
BLACK
6
CONTINUOUS
10
0.617228
20
-0.436755
11
0.61594
21
-0.446886
0
LINE
8
BLACK
6
CONTINUOUS
10
0.61594
20
-0.446886
11
0.613168
21
-0.456714
0
LINE
8
BLACK
6
CONTINUOUS
10
0.613168
20
-0.456714
11
0.608974
21
-0.466025
0
LINE
8
BLACK
6
CONTINUOUS
10
0.608974
20
-0.466025
11
0.603449
21
-0.474613
0
LINE
8
BLACK
6
CONTINUOUS
10
0.603449
20
-0.474613
11
0.596716
21
-0.482291
0
LINE
8
BLACK
6
CONTINUOUS
10
0.596716
20
-0.482291
11
0.588922
21
-0.488889
0
LINE
8
BLACK
6
CONTINUOUS
10
0.588922
20
-0.488889
11
0.580239
21
-0.494263
0
LINE
8
BLACK
6
CONTINUOUS
10
0.580239
20
-0.494263
11
0.570856
21
-0.498294
0
LINE
8
BLACK
6
CONTINUOUS
10
0.570856
20
-0.498294
11
0.560981
21
-0.500894
0
LINE
8
BLACK
6
CONTINUOUS
10
0.560981
20
-0.500894
11
0.55083
21
-0.502005
0
LINE
8
BLACK
6
CONTINUOUS
10
0.55083
20
-0.502005
11
0.540626
21
-0.501604
0
LINE
8
BLACK
6
CONTINUOUS
10
0.540626
20
-0.501604
11
0.530593
21
-0.4997
0
LINE
8
BLACK
6
CONTINUOUS
10
0.530593
20
-0.4997
11
0.520952
21
-0.496333
0
LINE
8
BLACK
6
CONTINUOUS
10
0.520952
20
-0.496333
11
0.514019
21
-0.492685
0
LINE
8
BLACK
6
CONTINUOUS
10
0.514019
20
-0.492685
11
0.388352
21
-0.618352
0
LINE
8
BLACK
6
CONTINUOUS
10
0.388352
20
-0.618352
11
0.388044
21
-0.618604
0
LINE
8
BLACK
6
CONTINUOUS
10
0.388044
20
-0.618604
11
0.387934
21
-0.61875
0
LINE
8
BLACK
6
CONTINUOUS
10
0.387934
20
-0.61875
11
0.387667
21
-0.618914
0
LINE
8
BLACK
6
CONTINUOUS
10
0.387667
20
-0.618914
11
0.38657
21
-0.619815
0
LINE
8
BLACK
6
CONTINUOUS
10
0.38657
20
-0.619815
11
0.385367
21
-0.620332
0
LINE
8
BLACK
6
CONTINUOUS
10
0.385367
20
-0.620332
11
0.384252
21
-0.621019
0
LINE
8
BLACK
6
CONTINUOUS
10
0.384252
20
-0.621019
11
0.383396
21
-0.621178
0
LINE
8
BLACK
6
CONTINUOUS
10
0.383396
20
-0.621178
11
0.382597
21
-0.621522
0
LINE
8
BLACK
6
CONTINUOUS
10
0.382597
20
-0.621522
11
0.381288
21
-0.621571
0
LINE
8
BLACK
6
CONTINUOUS
10
0.381288
20
-0.621571
11
0.38
21
-0.621811
0
LINE
8
BLACK
6
CONTINUOUS
10
0.38
20
-0.621811
11
-0.0298141
21
-0.621811
0
LINE
8
BLACK
6
CONTINUOUS
10
-0.0298141
20
-0.621811
11
-0.0307435
21
-0.62274
0
LINE
8
BLACK
6
CONTINUOUS
10
-0.0307435
20
-0.62274
11
-0.0351336
21
-0.624977
0
LINE
8
BLACK
6
CONTINUOUS
10
-0.0351336
20
-0.624977
11
-0.04
21
-0.625748
0
LINE
8
BLACK
6
CONTINUOUS
10
-0.04
20
-0.625748
11
-0.0448664
21
-0.624977
0
LINE
8
BLACK
6
CONTINUOUS
10
-0.0448664
20
-0.624977
11
-0.0492565
21
-0.62274
0
LINE
8
BLACK
6
CONTINUOUS
10
-0.0492565
20
-0.62274
11
-0.0527404
21
-0.619256
0
LINE
8
BLACK
6
CONTINUOUS
10
-0.0527404
20
-0.619256
11
-0.0549773
21
-0.614866
0
LINE
8
BLACK
6
CONTINUOUS
10
-0.0549773
20
-0.614866
11
-0.055748
21
-0.61
0
LINE
8
BLACK
6
CONTINUOUS
10
-0.055748
20
-0.61
11
-0.0549773
21
-0.605134
0
LINE
8
BLACK
6
CONTINUOUS
10
-0.0549773
20
-0.605134
11
-0.0527404
21
-0.600744
0
LINE
8
BLACK
6
CONTINUOUS
10
-0.0527404
20
-0.600744
11
-0.0492565
21
-0.59726
0
LINE
8
BLACK
6
CONTINUOUS
10
-0.0492565
20
-0.59726
11
-0.0448664
21
-0.595023
0
LINE
8
BLACK
6
CONTINUOUS
10
-0.0448664
20
-0.595023
11
-0.04
21
-0.594252
0
LINE
8
BLACK
6
CONTINUOUS
10
-0.04
20
-0.594252
11
-0.0351336
21
-0.595023
0
LINE
8
BLACK
6
CONTINUOUS
10
-0.0351336
20
-0.595023
11
-0.0307435
21
-0.59726
0
LINE
8
BLACK
6
CONTINUOUS
10
-0.0307435
20
-0.59726
11
-0.0298141
21
-0.598189
0
LINE
8
BLACK
6
CONTINUOUS
10
-0.0298141
20
-0.598189
11
0.375108
21
-0.598189
0
LINE
8
BLACK
6
CONTINUOUS
10
0.375108
20
-0.598189
11
0.495794
21
-0.477502
0
LINE
8
BLACK
6
CONTINUOUS
10
0.495794
20
-0.477502
11
0.490318
21
-0.470168
0
LINE
8
BLACK
6
CONTINUOUS
10
0.490318
20
-0.470168
11
0.485484
21
-0.461173
0
LINE
8
BLACK
6
CONTINUOUS
10
0.485484
20
-0.461173
11
0.482033
21
-0.451562
0
LINE
8
BLACK
6
CONTINUOUS
10
0.482033
20
-0.451562
11
0.480041
21
-0.441546
0
LINE
8
BLACK
6
CONTINUOUS
10
0.480041
20
-0.441546
11
0.479551
21
-0.431346
0
LINE
8
BLACK
6
CONTINUOUS
10
0.479551
20
-0.431346
11
0.480574
21
-0.421186
0
LINE
8
BLACK
6
CONTINUOUS
10
0.480574
20
-0.421186
11
0.483088
21
-0.411288
0
LINE
8
BLACK
6
CONTINUOUS
10
0.483088
20
-0.411288
11
0.487037
21
-0.401871
0
LINE
8
BLACK
6
CONTINUOUS
10
0.487037
20
-0.401871
11
0.492335
21
-0.393141
0
LINE
8
BLACK
6
CONTINUOUS
10
0.492335
20
-0.393141
11
0.498864
21
-0.385289
0
LINE
8
BLACK
6
CONTINUOUS
10
0.498864
20
-0.385289
11
0.506483
21
-0.378489
0
LINE
8
BLACK
6
CONTINUOUS
10
0.506483
20
-0.378489
11
0.515023
21
-0.37289
0
LINE
8
BLACK
6
CONTINUOUS
10
0.515023
20
-0.37289
11
0.524297
21
-0.368615
0
LINE
8
BLACK
6
CONTINUOUS
10
0.524297
20
-0.368615
11
0.534101
21
-0.365758
0
LINE
8
BLACK
6
CONTINUOUS
10
0.534101
20
-0.365758
11
0.544219
21
-0.36438
0
LINE
8
BLACK
6
CONTINUOUS
10
0.544219
20
-0.36438
11
0.55443
21
-0.364514
0
LINE
8
BLACK
6
CONTINUOUS
10
0.0302798
20
-0.575816
11
0.0274968
21
-0.579127
0
LINE
8
BLACK
6
CONTINUOUS
10
0.0274968
20
-0.579127
11
0.0237085
21
-0.581214
0
LINE
8
BLACK
6
CONTINUOUS
10
0.0237085
20
-0.581214
11
0.019423
21
-0.581797
0
LINE
8
BLACK
6
CONTINUOUS
10
0.019423
20
-0.581797
11
0.0152148
21
-0.580798
0
LINE
8
BLACK
6
CONTINUOUS
10
0.0152148
20
-0.580798
11
0.0116483
21
-0.578352
0
LINE
8
BLACK
6
CONTINUOUS
10
0.0116483
20
-0.578352
11
0.00886496
21
-0.575568
0
LINE
8
BLACK
6
CONTINUOUS
10
0.00886496
20
-0.575568
11
0.00513358
21
-0.574977
0
LINE
8
BLACK
6
CONTINUOUS
10
0.00513358
20
-0.574977
11
0.000743543
21
-0.57274
0
LINE
8
BLACK
6
CONTINUOUS
10
0.000743543
20
-0.57274
11
-0.00274043
21
-0.569256
0
LINE
8
BLACK
6
CONTINUOUS
10
-0.00274043
20
-0.569256
11
-0.00497728
21
-0.564866
0
LINE
8
BLACK
6
CONTINUOUS
10
-0.00497728
20
-0.564866
11
-0.00574803
21
-0.56
0
LINE
8
BLACK
6
CONTINUOUS
10
-0.00574803
20
-0.56
11
-0.00497728
21
-0.555134
0
LINE
8
BLACK
6
CONTINUOUS
10
-0.00497728
20
-0.555134
11
-0.00274043
21
-0.550744
0
LINE
8
BLACK
6
CONTINUOUS
10
-0.00274043
20
-0.550744
11
0.000743543
21
-0.54726
0
LINE
8
BLACK
6
CONTINUOUS
10
0.000743543
20
-0.54726
11
0.00513358
21
-0.545023
0
LINE
8
BLACK
6
CONTINUOUS
10
0.00513358
20
-0.545023
11
0.01
21
-0.544252
0
LINE
8
BLACK
6
CONTINUOUS
10
0.01
20
-0.544252
11
0.0148664
21
-0.545023
0
LINE
8
BLACK
6
CONTINUOUS
10
0.0148664
20
-0.545023
11
0.0192565
21
-0.54726
0
LINE
8
BLACK
6
CONTINUOUS
10
0.0192565
20
-0.54726
11
0.0201859
21
-0.548189
0
LINE
8
BLACK
6
CONTINUOUS
10
0.0201859
20
-0.548189
11
0.265108
21
-0.548189
0
LINE
8
BLACK
6
CONTINUOUS
10
0.265108
20
-0.548189
11
0.319425
21
-0.493872
0
LINE
8
BLACK
6
CONTINUOUS
10
0.319425
20
-0.493872
11
0.315065
21
-0.491578
0
LINE
8
BLACK
6
CONTINUOUS
10
0.315065
20
-0.491578
11
0.306829
21
-0.48554
0
LINE
8
BLACK
6
CONTINUOUS
10
0.306829
20
-0.48554
11
0.299577
21
-0.478351
0
LINE
8
BLACK
6
CONTINUOUS
10
0.299577
20
-0.478351
11
0.293467
21
-0.470168
0
LINE
8
BLACK
6
CONTINUOUS
10
0.293467
20
-0.470168
11
0.288634
21
-0.461173
0
LINE
8
BLACK
6
CONTINUOUS
10
0.288634
20
-0.461173
11
0.285183
21
-0.451562
0
LINE
8
BLACK
6
CONTINUOUS
10
0.285183
20
-0.451562
11
0.283191
21
-0.441546
0
LINE
8
BLACK
6
CONTINUOUS
10
0.283191
20
-0.441546
11
0.282701
21
-0.431346
0
LINE
8
BLACK
6
CONTINUOUS
10
0.282701
20
-0.431346
11
0.283724
21
-0.421186
0
LINE
8
BLACK
6
CONTINUOUS
10
0.283724
20
-0.421186
11
0.286238
21
-0.411288
0
LINE
8
BLACK
6
CONTINUOUS
10
0.286238
20
-0.411288
11
0.290187
21
-0.401871
0
LINE
8
BLACK
6
CONTINUOUS
10
0.290187
20
-0.401871
11
0.295484
21
-0.393141
0
LINE
8
BLACK
6
CONTINUOUS
10
0.295484
20
-0.393141
11
0.302014
21
-0.385289
0
LINE
8
BLACK
6
CONTINUOUS
10
0.302014
20
-0.385289
11
0.309633
21
-0.378489
0
LINE
8
BLACK
6
CONTINUOUS
10
0.309633
20
-0.378489
11
0.318173
21
-0.37289
0
LINE
8
BLACK
6
CONTINUOUS
10
0.318173
20
-0.37289
11
0.327446
21
-0.368615
0
LINE
8
BLACK
6
CONTINUOUS
10
0.327446
20
-0.368615
11
0.33725
21
-0.365758
0
LINE
8
BLACK
6
CONTINUOUS
10
0.33725
20
-0.365758
11
0.347369
21
-0.36438
0
LINE
8
BLACK
6
CONTINUOUS
10
0.347369
20
-0.36438
11
0.35758
21
-0.364514
0
LINE
8
BLACK
6
CONTINUOUS
10
0.35758
20
-0.364514
11
0.367659
21
-0.366156
0
LINE
8
BLACK
6
CONTINUOUS
10
0.367659
20
-0.366156
11
0.377384
21
-0.369269
0
LINE
8
BLACK
6
CONTINUOUS
10
0.377384
20
-0.369269
11
0.386543
21
-0.373785
0
LINE
8
BLACK
6
CONTINUOUS
10
0.386543
20
-0.373785
11
0.394934
21
-0.379606
0
LINE
8
BLACK
6
CONTINUOUS
10
0.394934
20
-0.379606
11
0.402371
21
-0.386603
0
LINE
8
BLACK
6
CONTINUOUS
10
0.402371
20
-0.386603
11
0.408694
21
-0.394623
0
LINE
8
BLACK
6
CONTINUOUS
10
0.408694
20
-0.394623
11
0.413761
21
-0.403488
0
LINE
8
BLACK
6
CONTINUOUS
10
0.413761
20
-0.403488
11
0.417462
21
-0.413006
0
LINE
8
BLACK
6
CONTINUOUS
10
0.417462
20
-0.413006
11
0.419716
21
-0.422966
0
LINE
8
BLACK
6
CONTINUOUS
10
0.419716
20
-0.422966
11
0.420472
21
-0.43315
0
LINE
8
BLACK
6
CONTINUOUS
10
0.420472
20
-0.43315
11
0.420378
21
-0.436755
0
LINE
8
BLACK
6
CONTINUOUS
10
0.420378
20
-0.436755
11
0.419089
21
-0.446886
0
LINE
8
BLACK
6
CONTINUOUS
10
0.419089
20
-0.446886
11
0.416317
21
-0.456714
0
LINE
8
BLACK
6
CONTINUOUS
10
0.416317
20
-0.456714
11
0.412123
21
-0.466025
0
LINE
8
BLACK
6
CONTINUOUS
10
0.412123
20
-0.466025
11
0.406599
21
-0.474613
0
LINE
8
BLACK
6
CONTINUOUS
10
0.406599
20
-0.474613
11
0.399866
21
-0.482291
0
LINE
8
BLACK
6
CONTINUOUS
10
0.399866
20
-0.482291
11
0.392072
21
-0.488889
0
LINE
8
BLACK
6
CONTINUOUS
10
0.392072
20
-0.488889
11
0.383388
21
-0.494263
0
LINE
8
BLACK
6
CONTINUOUS
10
0.383388
20
-0.494263
11
0.374006
21
-0.498294
0
LINE
8
BLACK
6
CONTINUOUS
10
0.374006
20
-0.498294
11
0.36413
21
-0.500894
0
LINE
8
BLACK
6
CONTINUOUS
10
0.36413
20
-0.500894
11
0.353979
21
-0.502005
0
LINE
8
BLACK
6
CONTINUOUS
10
0.353979
20
-0.502005
11
0.345049
21
-0.501654
0
LINE
8
BLACK
6
CONTINUOUS
10
0.345049
20
-0.501654
11
0.278352
21
-0.568352
0
LINE
8
BLACK
6
CONTINUOUS
10
0.278352
20
-0.568352
11
0.278044
21
-0.568604
0
LINE
8
BLACK
6
CONTINUOUS
10
0.278044
20
-0.568604
11
0.277934
21
-0.56875
0
LINE
8
BLACK
6
CONTINUOUS
10
0.277934
20
-0.56875
11
0.277667
21
-0.568914
0
LINE
8
BLACK
6
CONTINUOUS
10
0.277667
20
-0.568914
11
0.27657
21
-0.569815
0
LINE
8
BLACK
6
CONTINUOUS
10
0.27657
20
-0.569815
11
0.275367
21
-0.570332
0
LINE
8
BLACK
6
CONTINUOUS
10
0.275367
20
-0.570332
11
0.274252
21
-0.571019
0
LINE
8
BLACK
6
CONTINUOUS
10
0.274252
20
-0.571019
11
0.273396
21
-0.571178
0
LINE
8
BLACK
6
CONTINUOUS
10
0.273396
20
-0.571178
11
0.272597
21
-0.571522
0
LINE
8
BLACK
6
CONTINUOUS
10
0.272597
20
-0.571522
11
0.271288
21
-0.571571
0
LINE
8
BLACK
6
CONTINUOUS
10
0.271288
20
-0.571571
11
0.27
21
-0.571811
0
LINE
8
BLACK
6
CONTINUOUS
10
0.27
20
-0.571811
11
0.0316549
21
-0.571811
0
LINE
8
BLACK
6
CONTINUOUS
10
0.0316549
20
-0.571811
11
0.0302798
21
-0.575816
0
CIRCLE
8
BLACK
10
-0.16
20
0.16
40
0.00787402
0
CIRCLE
8
BLACK
10
0.1
20
-0.96
40
0.00787402
0
CIRCLE
8
BLACK
10
0.69
20
-0.96
40
0.00787402
0
CIRCLE
8
BLACK
10
0.7
20
-0.75
40
0.00787402
0
CIRCLE
8
BLACK
10
0.49
20
-0.96
40
0.00787402
0
CIRCLE
8
BLACK
10
0.29
20
-0.96
40
0.00787402
0
CIRCLE
8
BLACK
10
-0.16
20
-0.09
40
0.00787402
0
CIRCLE
8
BLACK
10
0.08
20
0.16
40
0.00787402
0
CIRCLE
8
BLACK
10
0.55
20
-0.71
40
0.00787402
0
CIRCLE
8
BLACK
10
0.55
20
-0.85
40
0.00787402
0
CIRCLE
8
BLACK
10
0.39
20
-0.85
40
0.00787402
0
CIRCLE
8
BLACK
10
0.39
20
-0.71
40
0.00787402
0
CIRCLE
8
BLACK
10
-0.16
20
-0.29
40
0.00787402
0
CIRCLE
8
BLACK
10
-0.16
20
-0.96
40
0.00787402
0
CIRCLE
8
BLACK
10
-0.16
20
-0.72
40
0.00787402
0
CIRCLE
8
BLACK
10
-0.16
20
-0.52
40
0.00787402
0
CIRCLE
8
BLACK
10
0.31
20
-0.34
40
0.00787402
0
CIRCLE
8
BLACK
10
0.31
20
-2.3622e-07
40
0.00787402
0
CIRCLE
8
BLACK
10
0.31
20
-0.16
40
0.00787402
0
CIRCLE
8
BLACK
10
0.399382
20
-0.29
40
0.00787402
0
CIRCLE
8
BLACK
10
0.399808
20
-0.169963
40
0.00787402
0
CIRCLE
8
BLACK
10
0.4
20
0
40
0.00787402
0
CIRCLE
8
BLACK
10
0.4
20
0.16
40
0.00787402
0
CIRCLE
8
BLACK
10
0.51
20
0.16
40
0.00787402
0
CIRCLE
8
BLACK
10
0.82
20
0.16
40
0.00787402
0
CIRCLE
8
BLACK
10
1.09
20
0.16
40
0.00787402
0
CIRCLE
8
BLACK
10
1.35
20
0.16
40
0.00787402
0
CIRCLE
8
BLACK
10
2.56
20
0.16
40
0.00787402
0
CIRCLE
8
BLACK
10
2.56
20
-0.1
40
0.00787402
0
CIRCLE
8
BLACK
10
2.56
20
-0.3
40
0.00787402
0
CIRCLE
8
BLACK
10
2.56
20
-0.52
40
0.00787402
0
CIRCLE
8
BLACK
10
2.56244
20
-0.72
40
0.00787402
0
CIRCLE
8
BLACK
10
2.56
20
-0.962441
40
0.00787402
0
CIRCLE
8
BLACK
10
2.26
20
-0.962441
40
0.00787402
0
CIRCLE
8
BLACK
10
1.97
20
-0.96
40
0.00787402
0
CIRCLE
8
BLACK
10
1.37
20
-0.962441
40
0.00787402
0
CIRCLE
8
BLACK
10
1.16
20
-0.962441
40
0.00787402
0
CIRCLE
8
BLACK
10
0.71
20
-0.42
40
0.00787402
0
CIRCLE
8
BLACK
10
0.82
20
-0.64
40
0.00787402
0
CIRCLE
8
BLACK
10
0.82
20
-0.75
40
0.00787402
0
CIRCLE
8
BLACK
10
0.82
20
-0.96
40
0.00787402
0
CIRCLE
8
BLACK
10
0.71
20
-0.64
40
0.00787402
0
CIRCLE
8
BLACK
10
2.26
20
0.16
40
0.00787402
0
CIRCLE
8
BLACK
10
1.97
20
0.162441
40
0.00787402
0
CIRCLE
8
BLACK
10
1.65
20
0.16
40
0.00787402
0
CIRCLE
8
BLACK
10
1.65
20
-0.96244
40
0.00787402
0
CIRCLE
8
BLACK
10
1.3575
20
-0.525
40
0.00787402
0
CIRCLE
8
BLACK
10
1.3575
20
-0.412126
40
0.00787402
0
CIRCLE
8
BLACK
10
-0.04
20
-0.61
40
0.00787402
0
CIRCLE
8
BLACK
10
0.01
20
-0.56
40
0.00787402
0
CIRCLE
8
BLACK
10
1.11
20
-0.39
40
0.00787402
0
CIRCLE
8
BLACK
10
1.07
20
-0.362441
40
0.00787402
0
CIRCLE
8
BLACK
10
0.16
20
-0.36
40
0.00787402
0
CIRCLE
8
BLACK
10
0.23
20
-0.36
40
0.00787402
  0
ENDSEC
  0
EOF
