  0
SECTION
  2
HEADER
  9
$ANGBASE
  50
0.0
  9
$ANGDIR
  70
1
  9
$MEASUREMENT
  70
0
  0
ENDSEC
  0
SECTION
  2
TABLES
  0
TABLE
  2
LTYPE
  70
4
  0
LTYPE
  5
40F
  2
CONTINUOUS
  70
0
  3
Solid line
  72
65
  73
0
  40
0.0
  0
LTYPE
  5
410
  2
DASHDOT
 70
0
  3
Dash Dot ____ _ ____ _
 72
65
 73
4
 40
2.0
 49
1.25
 49
-0.25
 49
0.25
 49
-0.25
  0
LTYPE
  5
411
  2
DASHED
 70
0
  3
Dashed __ __ __ __ __
 72
65
 73
2
 40
0.75
 49
0.5
 49
-0.25
  0
LTYPE
  5
43B
  2
DOTTED
 70
0
  3
Dotted .  .  .  .
 72
65
 73
2
 40
0.2
 49
0.0
 49
-0.2
  0
ENDTAB
  0
TABLE
  2
STYLE
  70
4
  0
STYLE
  2
KICAD
  70
0
  40
0
  41
1
  42
1
  50
0
  71
0
  3
isocp.shx
  0
STYLE
  2
KICADB
  70
0
  40
0
  41
1
  42
1
  50
0
  71
0
  3
isocp.shx
  0
STYLE
  2
KICADI
  70
0
  40
0
  41
1
  42
1
  50
15
  71
0
  3
isocp.shx
  0
STYLE
  2
KICADBI
  70
0
  40
0
  41
1
  42
1
  50
15
  71
0
  3
isocp.shx
  0
ENDTAB
  0
TABLE
  2
LAYER
  70
1
  0
LAYER
  2
BLACK
  70
0
  62
7
  6
CONTINUOUS
  0
ENDTAB
  0
ENDSEC
  0
SECTION
  2
ENTITIES
0
LINE
8
BLACK
6
CONTINUOUS
10
0.976142
20
-0.811614
11
0.976838
21
-0.811902
0
LINE
8
BLACK
6
CONTINUOUS
10
0.976838
20
-0.811902
11
0.977126
21
-0.812598
0
LINE
8
BLACK
6
CONTINUOUS
10
0.977126
20
-0.812598
11
0.977126
21
-0.887402
0
LINE
8
BLACK
6
CONTINUOUS
10
0.977126
20
-0.887402
11
0.976838
21
-0.888098
0
LINE
8
BLACK
6
CONTINUOUS
10
0.976838
20
-0.888098
11
0.976142
21
-0.888386
0
LINE
8
BLACK
6
CONTINUOUS
10
0.976142
20
-0.888386
11
0.843858
21
-0.888386
0
LINE
8
BLACK
6
CONTINUOUS
10
0.843858
20
-0.888386
11
0.843162
21
-0.888098
0
LINE
8
BLACK
6
CONTINUOUS
10
0.843162
20
-0.888098
11
0.842874
21
-0.887402
0
LINE
8
BLACK
6
CONTINUOUS
10
0.842874
20
-0.887402
11
0.842874
21
-0.812598
0
LINE
8
BLACK
6
CONTINUOUS
10
0.842874
20
-0.812598
11
0.843162
21
-0.811902
0
LINE
8
BLACK
6
CONTINUOUS
10
0.843162
20
-0.811902
11
0.843858
21
-0.811614
0
LINE
8
BLACK
6
CONTINUOUS
10
0.843858
20
-0.811614
11
0.976142
21
-0.811614
0
LINE
8
BLACK
6
CONTINUOUS
10
0.844843
20
-0.813583
11
0.844843
21
-0.886417
0
LINE
8
BLACK
6
CONTINUOUS
10
0.844843
20
-0.886417
11
0.975157
21
-0.886417
0
LINE
8
BLACK
6
CONTINUOUS
10
0.975157
20
-0.886417
11
0.975157
21
-0.813583
0
LINE
8
BLACK
6
CONTINUOUS
10
0.975157
20
-0.813583
11
0.844843
21
-0.813583
0
LINE
8
BLACK
6
CONTINUOUS
10
1.15614
20
-0.811614
11
1.15684
21
-0.811902
0
LINE
8
BLACK
6
CONTINUOUS
10
1.15684
20
-0.811902
11
1.15713
21
-0.812598
0
LINE
8
BLACK
6
CONTINUOUS
10
1.15713
20
-0.812598
11
1.15713
21
-0.887402
0
LINE
8
BLACK
6
CONTINUOUS
10
1.15713
20
-0.887402
11
1.15684
21
-0.888098
0
LINE
8
BLACK
6
CONTINUOUS
10
1.15684
20
-0.888098
11
1.15614
21
-0.888386
0
LINE
8
BLACK
6
CONTINUOUS
10
1.15614
20
-0.888386
11
1.02386
21
-0.888386
0
LINE
8
BLACK
6
CONTINUOUS
10
1.02386
20
-0.888386
11
1.02316
21
-0.888098
0
LINE
8
BLACK
6
CONTINUOUS
10
1.02316
20
-0.888098
11
1.02287
21
-0.887402
0
LINE
8
BLACK
6
CONTINUOUS
10
1.02287
20
-0.887402
11
1.02287
21
-0.812598
0
LINE
8
BLACK
6
CONTINUOUS
10
1.02287
20
-0.812598
11
1.02316
21
-0.811902
0
LINE
8
BLACK
6
CONTINUOUS
10
1.02316
20
-0.811902
11
1.02386
21
-0.811614
0
LINE
8
BLACK
6
CONTINUOUS
10
1.02386
20
-0.811614
11
1.15614
21
-0.811614
0
LINE
8
BLACK
6
CONTINUOUS
10
1.02484
20
-0.813583
11
1.02484
21
-0.886417
0
LINE
8
BLACK
6
CONTINUOUS
10
1.02484
20
-0.886417
11
1.15516
21
-0.886417
0
LINE
8
BLACK
6
CONTINUOUS
10
1.15516
20
-0.886417
11
1.15516
21
-0.813583
0
LINE
8
BLACK
6
CONTINUOUS
10
1.15516
20
-0.813583
11
1.02484
21
-0.813583
0
LINE
8
BLACK
6
CONTINUOUS
10
0.927402
20
-0.622874
11
0.928098
21
-0.623162
0
LINE
8
BLACK
6
CONTINUOUS
10
0.928098
20
-0.623162
11
0.928386
21
-0.623858
0
LINE
8
BLACK
6
CONTINUOUS
10
0.928386
20
-0.623858
11
0.928386
21
-0.756142
0
LINE
8
BLACK
6
CONTINUOUS
10
0.928386
20
-0.756142
11
0.928098
21
-0.756838
0
LINE
8
BLACK
6
CONTINUOUS
10
0.928098
20
-0.756838
11
0.927402
21
-0.757126
0
LINE
8
BLACK
6
CONTINUOUS
10
0.927402
20
-0.757126
11
0.852598
21
-0.757126
0
LINE
8
BLACK
6
CONTINUOUS
10
0.852598
20
-0.757126
11
0.851902
21
-0.756838
0
LINE
8
BLACK
6
CONTINUOUS
10
0.851902
20
-0.756838
11
0.851614
21
-0.756142
0
LINE
8
BLACK
6
CONTINUOUS
10
0.851614
20
-0.756142
11
0.851614
21
-0.623858
0
LINE
8
BLACK
6
CONTINUOUS
10
0.851614
20
-0.623858
11
0.851902
21
-0.623162
0
LINE
8
BLACK
6
CONTINUOUS
10
0.851902
20
-0.623162
11
0.852598
21
-0.622874
0
LINE
8
BLACK
6
CONTINUOUS
10
0.852598
20
-0.622874
11
0.927402
21
-0.622874
0
LINE
8
BLACK
6
CONTINUOUS
10
0.853583
20
-0.624843
11
0.853583
21
-0.755157
0
LINE
8
BLACK
6
CONTINUOUS
10
0.853583
20
-0.755157
11
0.926417
21
-0.755157
0
LINE
8
BLACK
6
CONTINUOUS
10
0.926417
20
-0.755157
11
0.926417
21
-0.624843
0
LINE
8
BLACK
6
CONTINUOUS
10
0.926417
20
-0.624843
11
0.853583
21
-0.624843
0
LINE
8
BLACK
6
CONTINUOUS
10
0.246142
20
-0.621614
11
0.246838
21
-0.621902
0
LINE
8
BLACK
6
CONTINUOUS
10
0.246838
20
-0.621902
11
0.247126
21
-0.622598
0
LINE
8
BLACK
6
CONTINUOUS
10
0.247126
20
-0.622598
11
0.247126
21
-0.697402
0
LINE
8
BLACK
6
CONTINUOUS
10
0.247126
20
-0.697402
11
0.246838
21
-0.698098
0
LINE
8
BLACK
6
CONTINUOUS
10
0.246838
20
-0.698098
11
0.246142
21
-0.698386
0
LINE
8
BLACK
6
CONTINUOUS
10
0.246142
20
-0.698386
11
0.113858
21
-0.698386
0
LINE
8
BLACK
6
CONTINUOUS
10
0.113858
20
-0.698386
11
0.113162
21
-0.698098
0
LINE
8
BLACK
6
CONTINUOUS
10
0.113162
20
-0.698098
11
0.112874
21
-0.697402
0
LINE
8
BLACK
6
CONTINUOUS
10
0.112874
20
-0.697402
11
0.112874
21
-0.622598
0
LINE
8
BLACK
6
CONTINUOUS
10
0.112874
20
-0.622598
11
0.113162
21
-0.621902
0
LINE
8
BLACK
6
CONTINUOUS
10
0.113162
20
-0.621902
11
0.113858
21
-0.621614
0
LINE
8
BLACK
6
CONTINUOUS
10
0.113858
20
-0.621614
11
0.246142
21
-0.621614
0
LINE
8
BLACK
6
CONTINUOUS
10
0.114843
20
-0.623583
11
0.114843
21
-0.696417
0
LINE
8
BLACK
6
CONTINUOUS
10
0.114843
20
-0.696417
11
0.245157
21
-0.696417
0
LINE
8
BLACK
6
CONTINUOUS
10
0.245157
20
-0.696417
11
0.245157
21
-0.623583
0
LINE
8
BLACK
6
CONTINUOUS
10
0.245157
20
-0.623583
11
0.114843
21
-0.623583
0
LINE
8
BLACK
6
CONTINUOUS
10
0.347402
20
-0.552874
11
0.348098
21
-0.553162
0
LINE
8
BLACK
6
CONTINUOUS
10
0.348098
20
-0.553162
11
0.348386
21
-0.553858
0
LINE
8
BLACK
6
CONTINUOUS
10
0.348386
20
-0.553858
11
0.348386
21
-0.686142
0
LINE
8
BLACK
6
CONTINUOUS
10
0.348386
20
-0.686142
11
0.348098
21
-0.686838
0
LINE
8
BLACK
6
CONTINUOUS
10
0.348098
20
-0.686838
11
0.347402
21
-0.687126
0
LINE
8
BLACK
6
CONTINUOUS
10
0.347402
20
-0.687126
11
0.272598
21
-0.687126
0
LINE
8
BLACK
6
CONTINUOUS
10
0.272598
20
-0.687126
11
0.271902
21
-0.686838
0
LINE
8
BLACK
6
CONTINUOUS
10
0.271902
20
-0.686838
11
0.271614
21
-0.686142
0
LINE
8
BLACK
6
CONTINUOUS
10
0.271614
20
-0.686142
11
0.271614
21
-0.553858
0
LINE
8
BLACK
6
CONTINUOUS
10
0.271614
20
-0.553858
11
0.271902
21
-0.553162
0
LINE
8
BLACK
6
CONTINUOUS
10
0.271902
20
-0.553162
11
0.272598
21
-0.552874
0
LINE
8
BLACK
6
CONTINUOUS
10
0.272598
20
-0.552874
11
0.347402
21
-0.552874
0
LINE
8
BLACK
6
CONTINUOUS
10
0.273583
20
-0.554843
11
0.273583
21
-0.685157
0
LINE
8
BLACK
6
CONTINUOUS
10
0.273583
20
-0.685157
11
0.346417
21
-0.685157
0
LINE
8
BLACK
6
CONTINUOUS
10
0.346417
20
-0.685157
11
0.346417
21
-0.554843
0
LINE
8
BLACK
6
CONTINUOUS
10
0.346417
20
-0.554843
11
0.273583
21
-0.554843
0
LINE
8
BLACK
6
CONTINUOUS
10
0.427402
20
-0.552874
11
0.428098
21
-0.553162
0
LINE
8
BLACK
6
CONTINUOUS
10
0.428098
20
-0.553162
11
0.428386
21
-0.553858
0
LINE
8
BLACK
6
CONTINUOUS
10
0.428386
20
-0.553858
11
0.428386
21
-0.686142
0
LINE
8
BLACK
6
CONTINUOUS
10
0.428386
20
-0.686142
11
0.428098
21
-0.686838
0
LINE
8
BLACK
6
CONTINUOUS
10
0.428098
20
-0.686838
11
0.427402
21
-0.687126
0
LINE
8
BLACK
6
CONTINUOUS
10
0.427402
20
-0.687126
11
0.352598
21
-0.687126
0
LINE
8
BLACK
6
CONTINUOUS
10
0.352598
20
-0.687126
11
0.351902
21
-0.686838
0
LINE
8
BLACK
6
CONTINUOUS
10
0.351902
20
-0.686838
11
0.351614
21
-0.686142
0
LINE
8
BLACK
6
CONTINUOUS
10
0.351614
20
-0.686142
11
0.351614
21
-0.553858
0
LINE
8
BLACK
6
CONTINUOUS
10
0.351614
20
-0.553858
11
0.351902
21
-0.553162
0
LINE
8
BLACK
6
CONTINUOUS
10
0.351902
20
-0.553162
11
0.352598
21
-0.552874
0
LINE
8
BLACK
6
CONTINUOUS
10
0.352598
20
-0.552874
11
0.427402
21
-0.552874
0
LINE
8
BLACK
6
CONTINUOUS
10
0.353583
20
-0.554843
11
0.353583
21
-0.685157
0
LINE
8
BLACK
6
CONTINUOUS
10
0.353583
20
-0.685157
11
0.426417
21
-0.685157
0
LINE
8
BLACK
6
CONTINUOUS
10
0.426417
20
-0.685157
11
0.426417
21
-0.554843
0
LINE
8
BLACK
6
CONTINUOUS
10
0.426417
20
-0.554843
11
0.353583
21
-0.554843
0
LINE
8
BLACK
6
CONTINUOUS
10
0.547402
20
-0.552874
11
0.548098
21
-0.553162
0
LINE
8
BLACK
6
CONTINUOUS
10
0.548098
20
-0.553162
11
0.548386
21
-0.553858
0
LINE
8
BLACK
6
CONTINUOUS
10
0.548386
20
-0.553858
11
0.548386
21
-0.686142
0
LINE
8
BLACK
6
CONTINUOUS
10
0.548386
20
-0.686142
11
0.548098
21
-0.686838
0
LINE
8
BLACK
6
CONTINUOUS
10
0.548098
20
-0.686838
11
0.547402
21
-0.687126
0
LINE
8
BLACK
6
CONTINUOUS
10
0.547402
20
-0.687126
11
0.472598
21
-0.687126
0
LINE
8
BLACK
6
CONTINUOUS
10
0.472598
20
-0.687126
11
0.471902
21
-0.686838
0
LINE
8
BLACK
6
CONTINUOUS
10
0.471902
20
-0.686838
11
0.471614
21
-0.686142
0
LINE
8
BLACK
6
CONTINUOUS
10
0.471614
20
-0.686142
11
0.471614
21
-0.553858
0
LINE
8
BLACK
6
CONTINUOUS
10
0.471614
20
-0.553858
11
0.471902
21
-0.553162
0
LINE
8
BLACK
6
CONTINUOUS
10
0.471902
20
-0.553162
11
0.472598
21
-0.552874
0
LINE
8
BLACK
6
CONTINUOUS
10
0.472598
20
-0.552874
11
0.547402
21
-0.552874
0
LINE
8
BLACK
6
CONTINUOUS
10
0.473583
20
-0.554843
11
0.473583
21
-0.685157
0
LINE
8
BLACK
6
CONTINUOUS
10
0.473583
20
-0.685157
11
0.546417
21
-0.685157
0
LINE
8
BLACK
6
CONTINUOUS
10
0.546417
20
-0.685157
11
0.546417
21
-0.554843
0
LINE
8
BLACK
6
CONTINUOUS
10
0.546417
20
-0.554843
11
0.473583
21
-0.554843
0
LINE
8
BLACK
6
CONTINUOUS
10
0.627402
20
-0.552874
11
0.628098
21
-0.553162
0
LINE
8
BLACK
6
CONTINUOUS
10
0.628098
20
-0.553162
11
0.628386
21
-0.553858
0
LINE
8
BLACK
6
CONTINUOUS
10
0.628386
20
-0.553858
11
0.628386
21
-0.686142
0
LINE
8
BLACK
6
CONTINUOUS
10
0.628386
20
-0.686142
11
0.628098
21
-0.686838
0
LINE
8
BLACK
6
CONTINUOUS
10
0.628098
20
-0.686838
11
0.627402
21
-0.687126
0
LINE
8
BLACK
6
CONTINUOUS
10
0.627402
20
-0.687126
11
0.552598
21
-0.687126
0
LINE
8
BLACK
6
CONTINUOUS
10
0.552598
20
-0.687126
11
0.551902
21
-0.686838
0
LINE
8
BLACK
6
CONTINUOUS
10
0.551902
20
-0.686838
11
0.551614
21
-0.686142
0
LINE
8
BLACK
6
CONTINUOUS
10
0.551614
20
-0.686142
11
0.551614
21
-0.553858
0
LINE
8
BLACK
6
CONTINUOUS
10
0.551614
20
-0.553858
11
0.551902
21
-0.553162
0
LINE
8
BLACK
6
CONTINUOUS
10
0.551902
20
-0.553162
11
0.552598
21
-0.552874
0
LINE
8
BLACK
6
CONTINUOUS
10
0.552598
20
-0.552874
11
0.627402
21
-0.552874
0
LINE
8
BLACK
6
CONTINUOUS
10
0.553583
20
-0.554843
11
0.553583
21
-0.685157
0
LINE
8
BLACK
6
CONTINUOUS
10
0.553583
20
-0.685157
11
0.626417
21
-0.685157
0
LINE
8
BLACK
6
CONTINUOUS
10
0.626417
20
-0.685157
11
0.626417
21
-0.554843
0
LINE
8
BLACK
6
CONTINUOUS
10
0.626417
20
-0.554843
11
0.553583
21
-0.554843
0
LINE
8
BLACK
6
CONTINUOUS
10
0.246142
20
-0.541614
11
0.246838
21
-0.541902
0
LINE
8
BLACK
6
CONTINUOUS
10
0.246838
20
-0.541902
11
0.247126
21
-0.542598
0
LINE
8
BLACK
6
CONTINUOUS
10
0.247126
20
-0.542598
11
0.247126
21
-0.617402
0
LINE
8
BLACK
6
CONTINUOUS
10
0.247126
20
-0.617402
11
0.246838
21
-0.618098
0
LINE
8
BLACK
6
CONTINUOUS
10
0.246838
20
-0.618098
11
0.246142
21
-0.618386
0
LINE
8
BLACK
6
CONTINUOUS
10
0.246142
20
-0.618386
11
0.113858
21
-0.618386
0
LINE
8
BLACK
6
CONTINUOUS
10
0.113858
20
-0.618386
11
0.113162
21
-0.618098
0
LINE
8
BLACK
6
CONTINUOUS
10
0.113162
20
-0.618098
11
0.112874
21
-0.617402
0
LINE
8
BLACK
6
CONTINUOUS
10
0.112874
20
-0.617402
11
0.112874
21
-0.542598
0
LINE
8
BLACK
6
CONTINUOUS
10
0.112874
20
-0.542598
11
0.113162
21
-0.541902
0
LINE
8
BLACK
6
CONTINUOUS
10
0.113162
20
-0.541902
11
0.113858
21
-0.541614
0
LINE
8
BLACK
6
CONTINUOUS
10
0.113858
20
-0.541614
11
0.246142
21
-0.541614
0
LINE
8
BLACK
6
CONTINUOUS
10
0.114843
20
-0.543583
11
0.114843
21
-0.616417
0
LINE
8
BLACK
6
CONTINUOUS
10
0.114843
20
-0.616417
11
0.245157
21
-0.616417
0
LINE
8
BLACK
6
CONTINUOUS
10
0.245157
20
-0.616417
11
0.245157
21
-0.543583
0
LINE
8
BLACK
6
CONTINUOUS
10
0.245157
20
-0.543583
11
0.114843
21
-0.543583
0
LINE
8
BLACK
6
CONTINUOUS
10
0.936142
20
-0.541614
11
0.936838
21
-0.541902
0
LINE
8
BLACK
6
CONTINUOUS
10
0.936838
20
-0.541902
11
0.937126
21
-0.542598
0
LINE
8
BLACK
6
CONTINUOUS
10
0.937126
20
-0.542598
11
0.937126
21
-0.617402
0
LINE
8
BLACK
6
CONTINUOUS
10
0.937126
20
-0.617402
11
0.936838
21
-0.618098
0
LINE
8
BLACK
6
CONTINUOUS
10
0.936838
20
-0.618098
11
0.936142
21
-0.618386
0
LINE
8
BLACK
6
CONTINUOUS
10
0.936142
20
-0.618386
11
0.803858
21
-0.618386
0
LINE
8
BLACK
6
CONTINUOUS
10
0.803858
20
-0.618386
11
0.803162
21
-0.618098
0
LINE
8
BLACK
6
CONTINUOUS
10
0.803162
20
-0.618098
11
0.802874
21
-0.617402
0
LINE
8
BLACK
6
CONTINUOUS
10
0.802874
20
-0.617402
11
0.802874
21
-0.542598
0
LINE
8
BLACK
6
CONTINUOUS
10
0.802874
20
-0.542598
11
0.803162
21
-0.541902
0
LINE
8
BLACK
6
CONTINUOUS
10
0.803162
20
-0.541902
11
0.803858
21
-0.541614
0
LINE
8
BLACK
6
CONTINUOUS
10
0.803858
20
-0.541614
11
0.936142
21
-0.541614
0
LINE
8
BLACK
6
CONTINUOUS
10
0.804843
20
-0.543583
11
0.804843
21
-0.616417
0
LINE
8
BLACK
6
CONTINUOUS
10
0.804843
20
-0.616417
11
0.935157
21
-0.616417
0
LINE
8
BLACK
6
CONTINUOUS
10
0.935157
20
-0.616417
11
0.935157
21
-0.543583
0
LINE
8
BLACK
6
CONTINUOUS
10
0.935157
20
-0.543583
11
0.804843
21
-0.543583
0
LINE
8
BLACK
6
CONTINUOUS
10
2.3874
20
-0.452874
11
2.3881
21
-0.453162
0
LINE
8
BLACK
6
CONTINUOUS
10
2.3881
20
-0.453162
11
2.38839
21
-0.453858
0
LINE
8
BLACK
6
CONTINUOUS
10
2.38839
20
-0.453858
11
2.38839
21
-0.586142
0
LINE
8
BLACK
6
CONTINUOUS
10
2.38839
20
-0.586142
11
2.3881
21
-0.586838
0
LINE
8
BLACK
6
CONTINUOUS
10
2.3881
20
-0.586838
11
2.3874
21
-0.587126
0
LINE
8
BLACK
6
CONTINUOUS
10
2.3874
20
-0.587126
11
2.3126
21
-0.587126
0
LINE
8
BLACK
6
CONTINUOUS
10
2.3126
20
-0.587126
11
2.3119
21
-0.586838
0
LINE
8
BLACK
6
CONTINUOUS
10
2.3119
20
-0.586838
11
2.31161
21
-0.586142
0
LINE
8
BLACK
6
CONTINUOUS
10
2.31161
20
-0.586142
11
2.31161
21
-0.453858
0
LINE
8
BLACK
6
CONTINUOUS
10
2.31161
20
-0.453858
11
2.3119
21
-0.453162
0
LINE
8
BLACK
6
CONTINUOUS
10
2.3119
20
-0.453162
11
2.3126
21
-0.452874
0
LINE
8
BLACK
6
CONTINUOUS
10
2.3126
20
-0.452874
11
2.3874
21
-0.452874
0
LINE
8
BLACK
6
CONTINUOUS
10
2.31358
20
-0.454843
11
2.31358
21
-0.585157
0
LINE
8
BLACK
6
CONTINUOUS
10
2.31358
20
-0.585157
11
2.38642
21
-0.585157
0
LINE
8
BLACK
6
CONTINUOUS
10
2.38642
20
-0.585157
11
2.38642
21
-0.454843
0
LINE
8
BLACK
6
CONTINUOUS
10
2.38642
20
-0.454843
11
2.31358
21
-0.454843
0
LINE
8
BLACK
6
CONTINUOUS
10
2.4874
20
-0.452874
11
2.4881
21
-0.453162
0
LINE
8
BLACK
6
CONTINUOUS
10
2.4881
20
-0.453162
11
2.48839
21
-0.453858
0
LINE
8
BLACK
6
CONTINUOUS
10
2.48839
20
-0.453858
11
2.48839
21
-0.586142
0
LINE
8
BLACK
6
CONTINUOUS
10
2.48839
20
-0.586142
11
2.4881
21
-0.586838
0
LINE
8
BLACK
6
CONTINUOUS
10
2.4881
20
-0.586838
11
2.4874
21
-0.587126
0
LINE
8
BLACK
6
CONTINUOUS
10
2.4874
20
-0.587126
11
2.4126
21
-0.587126
0
LINE
8
BLACK
6
CONTINUOUS
10
2.4126
20
-0.587126
11
2.4119
21
-0.586838
0
LINE
8
BLACK
6
CONTINUOUS
10
2.4119
20
-0.586838
11
2.41161
21
-0.586142
0
LINE
8
BLACK
6
CONTINUOUS
10
2.41161
20
-0.586142
11
2.41161
21
-0.453858
0
LINE
8
BLACK
6
CONTINUOUS
10
2.41161
20
-0.453858
11
2.4119
21
-0.453162
0
LINE
8
BLACK
6
CONTINUOUS
10
2.4119
20
-0.453162
11
2.4126
21
-0.452874
0
LINE
8
BLACK
6
CONTINUOUS
10
2.4126
20
-0.452874
11
2.4874
21
-0.452874
0
LINE
8
BLACK
6
CONTINUOUS
10
2.41358
20
-0.454843
11
2.41358
21
-0.585157
0
LINE
8
BLACK
6
CONTINUOUS
10
2.41358
20
-0.585157
11
2.48642
21
-0.585157
0
LINE
8
BLACK
6
CONTINUOUS
10
2.48642
20
-0.585157
11
2.48642
21
-0.454843
0
LINE
8
BLACK
6
CONTINUOUS
10
2.48642
20
-0.454843
11
2.41358
21
-0.454843
0
LINE
8
BLACK
6
CONTINUOUS
10
0.246142
20
-0.461614
11
0.246838
21
-0.461902
0
LINE
8
BLACK
6
CONTINUOUS
10
0.246838
20
-0.461902
11
0.247126
21
-0.462598
0
LINE
8
BLACK
6
CONTINUOUS
10
0.247126
20
-0.462598
11
0.247126
21
-0.537402
0
LINE
8
BLACK
6
CONTINUOUS
10
0.247126
20
-0.537402
11
0.246838
21
-0.538098
0
LINE
8
BLACK
6
CONTINUOUS
10
0.246838
20
-0.538098
11
0.246142
21
-0.538386
0
LINE
8
BLACK
6
CONTINUOUS
10
0.246142
20
-0.538386
11
0.113858
21
-0.538386
0
LINE
8
BLACK
6
CONTINUOUS
10
0.113858
20
-0.538386
11
0.113162
21
-0.538098
0
LINE
8
BLACK
6
CONTINUOUS
10
0.113162
20
-0.538098
11
0.112874
21
-0.537402
0
LINE
8
BLACK
6
CONTINUOUS
10
0.112874
20
-0.537402
11
0.112874
21
-0.462598
0
LINE
8
BLACK
6
CONTINUOUS
10
0.112874
20
-0.462598
11
0.113162
21
-0.461902
0
LINE
8
BLACK
6
CONTINUOUS
10
0.113162
20
-0.461902
11
0.113858
21
-0.461614
0
LINE
8
BLACK
6
CONTINUOUS
10
0.113858
20
-0.461614
11
0.246142
21
-0.461614
0
LINE
8
BLACK
6
CONTINUOUS
10
0.114843
20
-0.463583
11
0.114843
21
-0.536417
0
LINE
8
BLACK
6
CONTINUOUS
10
0.114843
20
-0.536417
11
0.245157
21
-0.536417
0
LINE
8
BLACK
6
CONTINUOUS
10
0.245157
20
-0.536417
11
0.245157
21
-0.463583
0
LINE
8
BLACK
6
CONTINUOUS
10
0.245157
20
-0.463583
11
0.114843
21
-0.463583
0
LINE
8
BLACK
6
CONTINUOUS
10
0.936142
20
-0.461614
11
0.936838
21
-0.461902
0
LINE
8
BLACK
6
CONTINUOUS
10
0.936838
20
-0.461902
11
0.937126
21
-0.462598
0
LINE
8
BLACK
6
CONTINUOUS
10
0.937126
20
-0.462598
11
0.937126
21
-0.537402
0
LINE
8
BLACK
6
CONTINUOUS
10
0.937126
20
-0.537402
11
0.936838
21
-0.538098
0
LINE
8
BLACK
6
CONTINUOUS
10
0.936838
20
-0.538098
11
0.936142
21
-0.538386
0
LINE
8
BLACK
6
CONTINUOUS
10
0.936142
20
-0.538386
11
0.803858
21
-0.538386
0
LINE
8
BLACK
6
CONTINUOUS
10
0.803858
20
-0.538386
11
0.803162
21
-0.538098
0
LINE
8
BLACK
6
CONTINUOUS
10
0.803162
20
-0.538098
11
0.802874
21
-0.537402
0
LINE
8
BLACK
6
CONTINUOUS
10
0.802874
20
-0.537402
11
0.802874
21
-0.462598
0
LINE
8
BLACK
6
CONTINUOUS
10
0.802874
20
-0.462598
11
0.803162
21
-0.461902
0
LINE
8
BLACK
6
CONTINUOUS
10
0.803162
20
-0.461902
11
0.803858
21
-0.461614
0
LINE
8
BLACK
6
CONTINUOUS
10
0.803858
20
-0.461614
11
0.936142
21
-0.461614
0
LINE
8
BLACK
6
CONTINUOUS
10
0.804843
20
-0.463583
11
0.804843
21
-0.536417
0
LINE
8
BLACK
6
CONTINUOUS
10
0.804843
20
-0.536417
11
0.935157
21
-0.536417
0
LINE
8
BLACK
6
CONTINUOUS
10
0.935157
20
-0.536417
11
0.935157
21
-0.463583
0
LINE
8
BLACK
6
CONTINUOUS
10
0.935157
20
-0.463583
11
0.804843
21
-0.463583
0
LINE
8
BLACK
6
CONTINUOUS
10
1.22402
20
-0.346181
11
1.22471
21
-0.346469
0
LINE
8
BLACK
6
CONTINUOUS
10
1.22471
20
-0.346469
11
1.225
21
-0.347165
0
LINE
8
BLACK
6
CONTINUOUS
10
1.225
20
-0.347165
11
1.225
21
-0.492835
0
LINE
8
BLACK
6
CONTINUOUS
10
1.225
20
-0.492835
11
1.22471
21
-0.493531
0
LINE
8
BLACK
6
CONTINUOUS
10
1.22471
20
-0.493531
11
1.22402
21
-0.493819
0
LINE
8
BLACK
6
CONTINUOUS
10
1.22402
20
-0.493819
11
0.975984
21
-0.493819
0
LINE
8
BLACK
6
CONTINUOUS
10
0.975984
20
-0.493819
11
0.975288
21
-0.493531
0
LINE
8
BLACK
6
CONTINUOUS
10
0.975288
20
-0.493531
11
0.975
21
-0.492835
0
LINE
8
BLACK
6
CONTINUOUS
10
0.975
20
-0.492835
11
0.975
21
-0.347165
0
LINE
8
BLACK
6
CONTINUOUS
10
0.975
20
-0.347165
11
0.975288
21
-0.346469
0
LINE
8
BLACK
6
CONTINUOUS
10
0.975288
20
-0.346469
11
0.975984
21
-0.346181
0
LINE
8
BLACK
6
CONTINUOUS
10
0.975984
20
-0.346181
11
1.22402
21
-0.346181
0
LINE
8
BLACK
6
CONTINUOUS
10
0.976969
20
-0.34815
11
0.976969
21
-0.49185
0
LINE
8
BLACK
6
CONTINUOUS
10
0.976969
20
-0.49185
11
1.22303
21
-0.49185
0
LINE
8
BLACK
6
CONTINUOUS
10
1.22303
20
-0.49185
11
1.22303
21
-0.34815
0
LINE
8
BLACK
6
CONTINUOUS
10
1.22303
20
-0.34815
11
0.976969
21
-0.34815
0
LINE
8
BLACK
6
CONTINUOUS
10
0.244174
20
-0.381918
11
0.24487
21
-0.382206
0
LINE
8
BLACK
6
CONTINUOUS
10
0.24487
20
-0.382206
11
0.245158
21
-0.382902
0
LINE
8
BLACK
6
CONTINUOUS
10
0.245158
20
-0.382902
11
0.245158
21
-0.457705
0
LINE
8
BLACK
6
CONTINUOUS
10
0.245158
20
-0.457705
11
0.24487
21
-0.458401
0
LINE
8
BLACK
6
CONTINUOUS
10
0.24487
20
-0.458401
11
0.244174
21
-0.458689
0
LINE
8
BLACK
6
CONTINUOUS
10
0.244174
20
-0.458689
11
0.11189
21
-0.458689
0
LINE
8
BLACK
6
CONTINUOUS
10
0.11189
20
-0.458689
11
0.111194
21
-0.458401
0
LINE
8
BLACK
6
CONTINUOUS
10
0.111194
20
-0.458401
11
0.110906
21
-0.457705
0
LINE
8
BLACK
6
CONTINUOUS
10
0.110906
20
-0.457705
11
0.110906
21
-0.382902
0
LINE
8
BLACK
6
CONTINUOUS
10
0.110906
20
-0.382902
11
0.111194
21
-0.382206
0
LINE
8
BLACK
6
CONTINUOUS
10
0.111194
20
-0.382206
11
0.11189
21
-0.381918
0
LINE
8
BLACK
6
CONTINUOUS
10
0.11189
20
-0.381918
11
0.244174
21
-0.381918
0
LINE
8
BLACK
6
CONTINUOUS
10
0.112874
20
-0.383886
11
0.112874
21
-0.456721
0
LINE
8
BLACK
6
CONTINUOUS
10
0.112874
20
-0.456721
11
0.243189
21
-0.456721
0
LINE
8
BLACK
6
CONTINUOUS
10
0.243189
20
-0.456721
11
0.243189
21
-0.383886
0
LINE
8
BLACK
6
CONTINUOUS
10
0.243189
20
-0.383886
11
0.112874
21
-0.383886
0
LINE
8
BLACK
6
CONTINUOUS
10
0.887402
20
-0.322874
11
0.888098
21
-0.323162
0
LINE
8
BLACK
6
CONTINUOUS
10
0.888098
20
-0.323162
11
0.888386
21
-0.323858
0
LINE
8
BLACK
6
CONTINUOUS
10
0.888386
20
-0.323858
11
0.888386
21
-0.456142
0
LINE
8
BLACK
6
CONTINUOUS
10
0.888386
20
-0.456142
11
0.888098
21
-0.456838
0
LINE
8
BLACK
6
CONTINUOUS
10
0.888098
20
-0.456838
11
0.887402
21
-0.457126
0
LINE
8
BLACK
6
CONTINUOUS
10
0.887402
20
-0.457126
11
0.812598
21
-0.457126
0
LINE
8
BLACK
6
CONTINUOUS
10
0.812598
20
-0.457126
11
0.811902
21
-0.456838
0
LINE
8
BLACK
6
CONTINUOUS
10
0.811902
20
-0.456838
11
0.811614
21
-0.456142
0
LINE
8
BLACK
6
CONTINUOUS
10
0.811614
20
-0.456142
11
0.811614
21
-0.323858
0
LINE
8
BLACK
6
CONTINUOUS
10
0.811614
20
-0.323858
11
0.811902
21
-0.323162
0
LINE
8
BLACK
6
CONTINUOUS
10
0.811902
20
-0.323162
11
0.812598
21
-0.322874
0
LINE
8
BLACK
6
CONTINUOUS
10
0.812598
20
-0.322874
11
0.887402
21
-0.322874
0
LINE
8
BLACK
6
CONTINUOUS
10
0.813583
20
-0.324843
11
0.813583
21
-0.455157
0
LINE
8
BLACK
6
CONTINUOUS
10
0.813583
20
-0.455157
11
0.886417
21
-0.455157
0
LINE
8
BLACK
6
CONTINUOUS
10
0.886417
20
-0.455157
11
0.886417
21
-0.324843
0
LINE
8
BLACK
6
CONTINUOUS
10
0.886417
20
-0.324843
11
0.813583
21
-0.324843
0
LINE
8
BLACK
6
CONTINUOUS
10
0.967402
20
-0.322874
11
0.968098
21
-0.323162
0
LINE
8
BLACK
6
CONTINUOUS
10
0.968098
20
-0.323162
11
0.968386
21
-0.323858
0
LINE
8
BLACK
6
CONTINUOUS
10
0.968386
20
-0.323858
11
0.968386
21
-0.456142
0
LINE
8
BLACK
6
CONTINUOUS
10
0.968386
20
-0.456142
11
0.968098
21
-0.456838
0
LINE
8
BLACK
6
CONTINUOUS
10
0.968098
20
-0.456838
11
0.967402
21
-0.457126
0
LINE
8
BLACK
6
CONTINUOUS
10
0.967402
20
-0.457126
11
0.892598
21
-0.457126
0
LINE
8
BLACK
6
CONTINUOUS
10
0.892598
20
-0.457126
11
0.891902
21
-0.456838
0
LINE
8
BLACK
6
CONTINUOUS
10
0.891902
20
-0.456838
11
0.891614
21
-0.456142
0
LINE
8
BLACK
6
CONTINUOUS
10
0.891614
20
-0.456142
11
0.891614
21
-0.323858
0
LINE
8
BLACK
6
CONTINUOUS
10
0.891614
20
-0.323858
11
0.891902
21
-0.323162
0
LINE
8
BLACK
6
CONTINUOUS
10
0.891902
20
-0.323162
11
0.892598
21
-0.322874
0
LINE
8
BLACK
6
CONTINUOUS
10
0.892598
20
-0.322874
11
0.967402
21
-0.322874
0
LINE
8
BLACK
6
CONTINUOUS
10
0.893583
20
-0.324843
11
0.893583
21
-0.455157
0
LINE
8
BLACK
6
CONTINUOUS
10
0.893583
20
-0.455157
11
0.966417
21
-0.455157
0
LINE
8
BLACK
6
CONTINUOUS
10
0.966417
20
-0.455157
11
0.966417
21
-0.324843
0
LINE
8
BLACK
6
CONTINUOUS
10
0.966417
20
-0.324843
11
0.893583
21
-0.324843
0
LINE
8
BLACK
6
CONTINUOUS
10
0.806142
20
-0.321614
11
0.806838
21
-0.321902
0
LINE
8
BLACK
6
CONTINUOUS
10
0.806838
20
-0.321902
11
0.807126
21
-0.322598
0
LINE
8
BLACK
6
CONTINUOUS
10
0.807126
20
-0.322598
11
0.807126
21
-0.397402
0
LINE
8
BLACK
6
CONTINUOUS
10
0.807126
20
-0.397402
11
0.806838
21
-0.398098
0
LINE
8
BLACK
6
CONTINUOUS
10
0.806838
20
-0.398098
11
0.806142
21
-0.398386
0
LINE
8
BLACK
6
CONTINUOUS
10
0.806142
20
-0.398386
11
0.673858
21
-0.398386
0
LINE
8
BLACK
6
CONTINUOUS
10
0.673858
20
-0.398386
11
0.673162
21
-0.398098
0
LINE
8
BLACK
6
CONTINUOUS
10
0.673162
20
-0.398098
11
0.672874
21
-0.397402
0
LINE
8
BLACK
6
CONTINUOUS
10
0.672874
20
-0.397402
11
0.672874
21
-0.322598
0
LINE
8
BLACK
6
CONTINUOUS
10
0.672874
20
-0.322598
11
0.673162
21
-0.321902
0
LINE
8
BLACK
6
CONTINUOUS
10
0.673162
20
-0.321902
11
0.673858
21
-0.321614
0
LINE
8
BLACK
6
CONTINUOUS
10
0.673858
20
-0.321614
11
0.806142
21
-0.321614
0
LINE
8
BLACK
6
CONTINUOUS
10
0.674843
20
-0.323583
11
0.674843
21
-0.396417
0
LINE
8
BLACK
6
CONTINUOUS
10
0.674843
20
-0.396417
11
0.805157
21
-0.396417
0
LINE
8
BLACK
6
CONTINUOUS
10
0.805157
20
-0.396417
11
0.805157
21
-0.323583
0
LINE
8
BLACK
6
CONTINUOUS
10
0.805157
20
-0.323583
11
0.674843
21
-0.323583
0
LINE
8
BLACK
6
CONTINUOUS
10
1.43496
20
-0.202559
11
1.43566
21
-0.202847
0
LINE
8
BLACK
6
CONTINUOUS
10
1.43566
20
-0.202847
11
1.43594
21
-0.203543
0
LINE
8
BLACK
6
CONTINUOUS
10
1.43594
20
-0.203543
11
1.43594
21
-0.396457
0
LINE
8
BLACK
6
CONTINUOUS
10
1.43594
20
-0.396457
11
1.43566
21
-0.397153
0
LINE
8
BLACK
6
CONTINUOUS
10
1.43566
20
-0.397153
11
1.43496
21
-0.397441
0
LINE
8
BLACK
6
CONTINUOUS
10
1.43496
20
-0.397441
11
1.30504
21
-0.397441
0
LINE
8
BLACK
6
CONTINUOUS
10
1.30504
20
-0.397441
11
1.30434
21
-0.397153
0
LINE
8
BLACK
6
CONTINUOUS
10
1.30434
20
-0.397153
11
1.30406
21
-0.396457
0
LINE
8
BLACK
6
CONTINUOUS
10
1.30406
20
-0.396457
11
1.30406
21
-0.387126
0
LINE
8
BLACK
6
CONTINUOUS
10
1.30406
20
-0.387126
11
1.2326
21
-0.387126
0
LINE
8
BLACK
6
CONTINUOUS
10
1.2326
20
-0.387126
11
1.2319
21
-0.386838
0
LINE
8
BLACK
6
CONTINUOUS
10
1.2319
20
-0.386838
11
1.23161
21
-0.386142
0
LINE
8
BLACK
6
CONTINUOUS
10
1.23161
20
-0.386142
11
1.23161
21
-0.253858
0
LINE
8
BLACK
6
CONTINUOUS
10
1.23161
20
-0.253858
11
1.2319
21
-0.253162
0
LINE
8
BLACK
6
CONTINUOUS
10
1.2319
20
-0.253162
11
1.2326
21
-0.252874
0
LINE
8
BLACK
6
CONTINUOUS
10
1.2326
20
-0.252874
11
1.30406
21
-0.252874
0
LINE
8
BLACK
6
CONTINUOUS
10
1.30406
20
-0.252874
11
1.30406
21
-0.203543
0
LINE
8
BLACK
6
CONTINUOUS
10
1.30406
20
-0.203543
11
1.30434
21
-0.202847
0
LINE
8
BLACK
6
CONTINUOUS
10
1.30434
20
-0.202847
11
1.30504
21
-0.202559
0
LINE
8
BLACK
6
CONTINUOUS
10
1.30504
20
-0.202559
11
1.43496
21
-0.202559
0
LINE
8
BLACK
6
CONTINUOUS
10
1.30602
20
-0.204528
11
1.30602
21
-0.252874
0
LINE
8
BLACK
6
CONTINUOUS
10
1.30602
20
-0.252874
11
1.3074
21
-0.252874
0
LINE
8
BLACK
6
CONTINUOUS
10
1.3074
20
-0.252874
11
1.3081
21
-0.253162
0
LINE
8
BLACK
6
CONTINUOUS
10
1.3081
20
-0.253162
11
1.30839
21
-0.253858
0
LINE
8
BLACK
6
CONTINUOUS
10
1.30839
20
-0.253858
11
1.30839
21
-0.386142
0
LINE
8
BLACK
6
CONTINUOUS
10
1.30839
20
-0.386142
11
1.3081
21
-0.386838
0
LINE
8
BLACK
6
CONTINUOUS
10
1.3081
20
-0.386838
11
1.3074
21
-0.387126
0
LINE
8
BLACK
6
CONTINUOUS
10
1.3074
20
-0.387126
11
1.30602
21
-0.387126
0
LINE
8
BLACK
6
CONTINUOUS
10
1.30602
20
-0.387126
11
1.30602
21
-0.395472
0
LINE
8
BLACK
6
CONTINUOUS
10
1.30602
20
-0.395472
11
1.43398
21
-0.395472
0
LINE
8
BLACK
6
CONTINUOUS
10
1.43398
20
-0.395472
11
1.43398
21
-0.204528
0
LINE
8
BLACK
6
CONTINUOUS
10
1.43398
20
-0.204528
11
1.30602
21
-0.204528
0
LINE
8
BLACK
6
CONTINUOUS
10
1.23358
20
-0.254843
11
1.23358
21
-0.385157
0
LINE
8
BLACK
6
CONTINUOUS
10
1.23358
20
-0.385157
11
1.30406
21
-0.385157
0
LINE
8
BLACK
6
CONTINUOUS
10
1.30406
20
-0.385157
11
1.30406
21
-0.254843
0
LINE
8
BLACK
6
CONTINUOUS
10
1.30406
20
-0.254843
11
1.23358
21
-0.254843
0
LINE
8
BLACK
6
CONTINUOUS
10
1.30602
20
-0.254843
11
1.30602
21
-0.385157
0
LINE
8
BLACK
6
CONTINUOUS
10
1.30602
20
-0.385157
11
1.30642
21
-0.385157
0
LINE
8
BLACK
6
CONTINUOUS
10
1.30642
20
-0.385157
11
1.30642
21
-0.254843
0
LINE
8
BLACK
6
CONTINUOUS
10
1.30642
20
-0.254843
11
1.30602
21
-0.254843
0
LINE
8
BLACK
6
CONTINUOUS
10
-0.0525984
20
-0.202874
11
-0.0519024
21
-0.203162
0
LINE
8
BLACK
6
CONTINUOUS
10
-0.0519024
20
-0.203162
11
-0.0516142
21
-0.203858
0
LINE
8
BLACK
6
CONTINUOUS
10
-0.0516142
20
-0.203858
11
-0.0516142
21
-0.336142
0
LINE
8
BLACK
6
CONTINUOUS
10
-0.0516142
20
-0.336142
11
-0.0519024
21
-0.336838
0
LINE
8
BLACK
6
CONTINUOUS
10
-0.0519024
20
-0.336838
11
-0.0525984
21
-0.337126
0
LINE
8
BLACK
6
CONTINUOUS
10
-0.0525984
20
-0.337126
11
-0.127402
21
-0.337126
0
LINE
8
BLACK
6
CONTINUOUS
10
-0.127402
20
-0.337126
11
-0.128098
21
-0.336838
0
LINE
8
BLACK
6
CONTINUOUS
10
-0.128098
20
-0.336838
11
-0.128386
21
-0.336142
0
LINE
8
BLACK
6
CONTINUOUS
10
-0.128386
20
-0.336142
11
-0.128386
21
-0.203858
0
LINE
8
BLACK
6
CONTINUOUS
10
-0.128386
20
-0.203858
11
-0.128098
21
-0.203162
0
LINE
8
BLACK
6
CONTINUOUS
10
-0.128098
20
-0.203162
11
-0.127402
21
-0.202874
0
LINE
8
BLACK
6
CONTINUOUS
10
-0.127402
20
-0.202874
11
-0.0525984
21
-0.202874
0
LINE
8
BLACK
6
CONTINUOUS
10
-0.126417
20
-0.204843
11
-0.126417
21
-0.335157
0
LINE
8
BLACK
6
CONTINUOUS
10
-0.126417
20
-0.335157
11
-0.0535827
21
-0.335157
0
LINE
8
BLACK
6
CONTINUOUS
10
-0.0535827
20
-0.335157
11
-0.0535827
21
-0.204843
0
LINE
8
BLACK
6
CONTINUOUS
10
-0.0535827
20
-0.204843
11
-0.126417
21
-0.204843
0
LINE
8
BLACK
6
CONTINUOUS
10
0.495669
20
-0.106811
11
0.496365
21
-0.107099
0
LINE
8
BLACK
6
CONTINUOUS
10
0.496365
20
-0.107099
11
0.496654
21
-0.107795
0
LINE
8
BLACK
6
CONTINUOUS
10
0.496654
20
-0.107795
11
0.496654
21
-0.330236
0
LINE
8
BLACK
6
CONTINUOUS
10
0.496654
20
-0.330236
11
0.496365
21
-0.330932
0
LINE
8
BLACK
6
CONTINUOUS
10
0.496365
20
-0.330932
11
0.495669
21
-0.33122
0
LINE
8
BLACK
6
CONTINUOUS
10
0.495669
20
-0.33122
11
0.204331
21
-0.33122
0
LINE
8
BLACK
6
CONTINUOUS
10
0.204331
20
-0.33122
11
0.203635
21
-0.330932
0
LINE
8
BLACK
6
CONTINUOUS
10
0.203635
20
-0.330932
11
0.203346
21
-0.330236
0
LINE
8
BLACK
6
CONTINUOUS
10
0.203346
20
-0.330236
11
0.203346
21
-0.107795
0
LINE
8
BLACK
6
CONTINUOUS
10
0.203346
20
-0.107795
11
0.203635
21
-0.107099
0
LINE
8
BLACK
6
CONTINUOUS
10
0.203635
20
-0.107099
11
0.204331
21
-0.106811
0
LINE
8
BLACK
6
CONTINUOUS
10
0.204331
20
-0.106811
11
0.495669
21
-0.106811
0
LINE
8
BLACK
6
CONTINUOUS
10
0.205315
20
-0.10878
11
0.205315
21
-0.329252
0
LINE
8
BLACK
6
CONTINUOUS
10
0.205315
20
-0.329252
11
0.494685
21
-0.329252
0
LINE
8
BLACK
6
CONTINUOUS
10
0.494685
20
-0.329252
11
0.494685
21
-0.10878
0
LINE
8
BLACK
6
CONTINUOUS
10
0.494685
20
-0.10878
11
0.205315
21
-0.10878
0
LINE
8
BLACK
6
CONTINUOUS
10
0.0375591
20
-0.219803
11
0.038255
21
-0.220091
0
LINE
8
BLACK
6
CONTINUOUS
10
0.038255
20
-0.220091
11
0.0385433
21
-0.220787
0
LINE
8
BLACK
6
CONTINUOUS
10
0.0385433
20
-0.220787
11
0.0385433
21
-0.319213
0
LINE
8
BLACK
6
CONTINUOUS
10
0.0385433
20
-0.319213
11
0.038255
21
-0.319909
0
LINE
8
BLACK
6
CONTINUOUS
10
0.038255
20
-0.319909
11
0.0375591
21
-0.320197
0
LINE
8
BLACK
6
CONTINUOUS
10
0.0375591
20
-0.320197
11
-0.0175591
21
-0.320197
0
LINE
8
BLACK
6
CONTINUOUS
10
-0.0175591
20
-0.320197
11
-0.018255
21
-0.319909
0
LINE
8
BLACK
6
CONTINUOUS
10
-0.018255
20
-0.319909
11
-0.0185433
21
-0.319213
0
LINE
8
BLACK
6
CONTINUOUS
10
-0.0185433
20
-0.319213
11
-0.0185433
21
-0.220787
0
LINE
8
BLACK
6
CONTINUOUS
10
-0.0185433
20
-0.220787
11
-0.018255
21
-0.220091
0
LINE
8
BLACK
6
CONTINUOUS
10
-0.018255
20
-0.220091
11
-0.0175591
21
-0.219803
0
LINE
8
BLACK
6
CONTINUOUS
10
-0.0175591
20
-0.219803
11
0.0375591
21
-0.219803
0
LINE
8
BLACK
6
CONTINUOUS
10
-0.0165748
20
-0.221772
11
-0.0165748
21
-0.318228
0
LINE
8
BLACK
6
CONTINUOUS
10
-0.0165748
20
-0.318228
11
0.0365748
21
-0.318228
0
LINE
8
BLACK
6
CONTINUOUS
10
0.0365748
20
-0.318228
11
0.0365748
21
-0.221772
0
LINE
8
BLACK
6
CONTINUOUS
10
0.0365748
20
-0.221772
11
-0.0165748
21
-0.221772
0
LINE
8
BLACK
6
CONTINUOUS
10
0.676142
20
-0.221614
11
0.676838
21
-0.221902
0
LINE
8
BLACK
6
CONTINUOUS
10
0.676838
20
-0.221902
11
0.677126
21
-0.222598
0
LINE
8
BLACK
6
CONTINUOUS
10
0.677126
20
-0.222598
11
0.677126
21
-0.297402
0
LINE
8
BLACK
6
CONTINUOUS
10
0.677126
20
-0.297402
11
0.676838
21
-0.298098
0
LINE
8
BLACK
6
CONTINUOUS
10
0.676838
20
-0.298098
11
0.676142
21
-0.298386
0
LINE
8
BLACK
6
CONTINUOUS
10
0.676142
20
-0.298386
11
0.543858
21
-0.298386
0
LINE
8
BLACK
6
CONTINUOUS
10
0.543858
20
-0.298386
11
0.543162
21
-0.298098
0
LINE
8
BLACK
6
CONTINUOUS
10
0.543162
20
-0.298098
11
0.542874
21
-0.297402
0
LINE
8
BLACK
6
CONTINUOUS
10
0.542874
20
-0.297402
11
0.542874
21
-0.222598
0
LINE
8
BLACK
6
CONTINUOUS
10
0.542874
20
-0.222598
11
0.543162
21
-0.221902
0
LINE
8
BLACK
6
CONTINUOUS
10
0.543162
20
-0.221902
11
0.543858
21
-0.221614
0
LINE
8
BLACK
6
CONTINUOUS
10
0.543858
20
-0.221614
11
0.676142
21
-0.221614
0
LINE
8
BLACK
6
CONTINUOUS
10
0.544843
20
-0.223583
11
0.544843
21
-0.296417
0
LINE
8
BLACK
6
CONTINUOUS
10
0.544843
20
-0.296417
11
0.675157
21
-0.296417
0
LINE
8
BLACK
6
CONTINUOUS
10
0.675157
20
-0.296417
11
0.675157
21
-0.223583
0
LINE
8
BLACK
6
CONTINUOUS
10
0.675157
20
-0.223583
11
0.544843
21
-0.223583
0
LINE
8
BLACK
6
CONTINUOUS
10
0.177402
20
-0.142874
11
0.178098
21
-0.143162
0
LINE
8
BLACK
6
CONTINUOUS
10
0.178098
20
-0.143162
11
0.178386
21
-0.143858
0
LINE
8
BLACK
6
CONTINUOUS
10
0.178386
20
-0.143858
11
0.178386
21
-0.276142
0
LINE
8
BLACK
6
CONTINUOUS
10
0.178386
20
-0.276142
11
0.178098
21
-0.276838
0
LINE
8
BLACK
6
CONTINUOUS
10
0.178098
20
-0.276838
11
0.177402
21
-0.277126
0
LINE
8
BLACK
6
CONTINUOUS
10
0.177402
20
-0.277126
11
0.102598
21
-0.277126
0
LINE
8
BLACK
6
CONTINUOUS
10
0.102598
20
-0.277126
11
0.101902
21
-0.276838
0
LINE
8
BLACK
6
CONTINUOUS
10
0.101902
20
-0.276838
11
0.101614
21
-0.276142
0
LINE
8
BLACK
6
CONTINUOUS
10
0.101614
20
-0.276142
11
0.101614
21
-0.143858
0
LINE
8
BLACK
6
CONTINUOUS
10
0.101614
20
-0.143858
11
0.101902
21
-0.143162
0
LINE
8
BLACK
6
CONTINUOUS
10
0.101902
20
-0.143162
11
0.102598
21
-0.142874
0
LINE
8
BLACK
6
CONTINUOUS
10
0.102598
20
-0.142874
11
0.177402
21
-0.142874
0
LINE
8
BLACK
6
CONTINUOUS
10
0.103583
20
-0.144843
11
0.103583
21
-0.275157
0
LINE
8
BLACK
6
CONTINUOUS
10
0.103583
20
-0.275157
11
0.176417
21
-0.275157
0
LINE
8
BLACK
6
CONTINUOUS
10
0.176417
20
-0.275157
11
0.176417
21
-0.144843
0
LINE
8
BLACK
6
CONTINUOUS
10
0.176417
20
-0.144843
11
0.103583
21
-0.144843
0
LINE
8
BLACK
6
CONTINUOUS
10
0.597402
20
-0.082874
11
0.598098
21
-0.0831623
0
LINE
8
BLACK
6
CONTINUOUS
10
0.598098
20
-0.0831623
11
0.598386
21
-0.0838583
0
LINE
8
BLACK
6
CONTINUOUS
10
0.598386
20
-0.0838583
11
0.598386
21
-0.216142
0
LINE
8
BLACK
6
CONTINUOUS
10
0.598386
20
-0.216142
11
0.598098
21
-0.216838
0
LINE
8
BLACK
6
CONTINUOUS
10
0.598098
20
-0.216838
11
0.597402
21
-0.217126
0
LINE
8
BLACK
6
CONTINUOUS
10
0.597402
20
-0.217126
11
0.522598
21
-0.217126
0
LINE
8
BLACK
6
CONTINUOUS
10
0.522598
20
-0.217126
11
0.521902
21
-0.216838
0
LINE
8
BLACK
6
CONTINUOUS
10
0.521902
20
-0.216838
11
0.521614
21
-0.216142
0
LINE
8
BLACK
6
CONTINUOUS
10
0.521614
20
-0.216142
11
0.521614
21
-0.0838583
0
LINE
8
BLACK
6
CONTINUOUS
10
0.521614
20
-0.0838583
11
0.521902
21
-0.0831623
0
LINE
8
BLACK
6
CONTINUOUS
10
0.521902
20
-0.0831623
11
0.522598
21
-0.082874
0
LINE
8
BLACK
6
CONTINUOUS
10
0.522598
20
-0.082874
11
0.597402
21
-0.082874
0
LINE
8
BLACK
6
CONTINUOUS
10
0.523583
20
-0.0848425
11
0.523583
21
-0.215157
0
LINE
8
BLACK
6
CONTINUOUS
10
0.523583
20
-0.215157
11
0.596417
21
-0.215157
0
LINE
8
BLACK
6
CONTINUOUS
10
0.596417
20
-0.215157
11
0.596417
21
-0.0848425
0
LINE
8
BLACK
6
CONTINUOUS
10
0.596417
20
-0.0848425
11
0.523583
21
-0.0848425
0
LINE
8
BLACK
6
CONTINUOUS
10
0.677402
20
-0.082874
11
0.678098
21
-0.0831623
0
LINE
8
BLACK
6
CONTINUOUS
10
0.678098
20
-0.0831623
11
0.678386
21
-0.0838583
0
LINE
8
BLACK
6
CONTINUOUS
10
0.678386
20
-0.0838583
11
0.678386
21
-0.216142
0
LINE
8
BLACK
6
CONTINUOUS
10
0.678386
20
-0.216142
11
0.678098
21
-0.216838
0
LINE
8
BLACK
6
CONTINUOUS
10
0.678098
20
-0.216838
11
0.677402
21
-0.217126
0
LINE
8
BLACK
6
CONTINUOUS
10
0.677402
20
-0.217126
11
0.602598
21
-0.217126
0
LINE
8
BLACK
6
CONTINUOUS
10
0.602598
20
-0.217126
11
0.601902
21
-0.216838
0
LINE
8
BLACK
6
CONTINUOUS
10
0.601902
20
-0.216838
11
0.601614
21
-0.216142
0
LINE
8
BLACK
6
CONTINUOUS
10
0.601614
20
-0.216142
11
0.601614
21
-0.0838583
0
LINE
8
BLACK
6
CONTINUOUS
10
0.601614
20
-0.0838583
11
0.601902
21
-0.0831623
0
LINE
8
BLACK
6
CONTINUOUS
10
0.601902
20
-0.0831623
11
0.602598
21
-0.082874
0
LINE
8
BLACK
6
CONTINUOUS
10
0.602598
20
-0.082874
11
0.677402
21
-0.082874
0
LINE
8
BLACK
6
CONTINUOUS
10
0.603583
20
-0.0848425
11
0.603583
21
-0.215157
0
LINE
8
BLACK
6
CONTINUOUS
10
0.603583
20
-0.215157
11
0.676417
21
-0.215157
0
LINE
8
BLACK
6
CONTINUOUS
10
0.676417
20
-0.215157
11
0.676417
21
-0.0848425
0
LINE
8
BLACK
6
CONTINUOUS
10
0.676417
20
-0.0848425
11
0.603583
21
-0.0848425
0
LINE
8
BLACK
6
CONTINUOUS
10
1.1474
20
0.037126
11
1.1481
21
0.0368377
0
LINE
8
BLACK
6
CONTINUOUS
10
1.1481
20
0.0368377
11
1.14839
21
0.0361417
0
LINE
8
BLACK
6
CONTINUOUS
10
1.14839
20
0.0361417
11
1.14839
21
-0.0961417
0
LINE
8
BLACK
6
CONTINUOUS
10
1.14839
20
-0.0961417
11
1.1481
21
-0.0968377
0
LINE
8
BLACK
6
CONTINUOUS
10
1.1481
20
-0.0968377
11
1.1474
21
-0.097126
0
LINE
8
BLACK
6
CONTINUOUS
10
1.1474
20
-0.097126
11
1.0726
21
-0.097126
0
LINE
8
BLACK
6
CONTINUOUS
10
1.0726
20
-0.097126
11
1.0719
21
-0.0968377
0
LINE
8
BLACK
6
CONTINUOUS
10
1.0719
20
-0.0968377
11
1.07161
21
-0.0961417
0
LINE
8
BLACK
6
CONTINUOUS
10
1.07161
20
-0.0961417
11
1.07161
21
0.0361417
0
LINE
8
BLACK
6
CONTINUOUS
10
1.07161
20
0.0361417
11
1.0719
21
0.0368377
0
LINE
8
BLACK
6
CONTINUOUS
10
1.0719
20
0.0368377
11
1.0726
21
0.037126
0
LINE
8
BLACK
6
CONTINUOUS
10
1.0726
20
0.037126
11
1.1474
21
0.037126
0
LINE
8
BLACK
6
CONTINUOUS
10
1.07358
20
0.0351575
11
1.07358
21
-0.0951575
0
LINE
8
BLACK
6
CONTINUOUS
10
1.07358
20
-0.0951575
11
1.14642
21
-0.0951575
0
LINE
8
BLACK
6
CONTINUOUS
10
1.14642
20
-0.0951575
11
1.14642
21
0.0351575
0
LINE
8
BLACK
6
CONTINUOUS
10
1.14642
20
0.0351575
11
1.07358
21
0.0351575
0
LINE
8
BLACK
6
CONTINUOUS
10
0.656142
20
0.188386
11
0.656838
21
0.188098
0
LINE
8
BLACK
6
CONTINUOUS
10
0.656838
20
0.188098
11
0.657126
21
0.187402
0
LINE
8
BLACK
6
CONTINUOUS
10
0.657126
20
0.187402
11
0.657126
21
0.112598
0
LINE
8
BLACK
6
CONTINUOUS
10
0.657126
20
0.112598
11
0.656838
21
0.111902
0
LINE
8
BLACK
6
CONTINUOUS
10
0.656838
20
0.111902
11
0.656142
21
0.111614
0
LINE
8
BLACK
6
CONTINUOUS
10
0.656142
20
0.111614
11
0.523858
21
0.111614
0
LINE
8
BLACK
6
CONTINUOUS
10
0.523858
20
0.111614
11
0.523162
21
0.111902
0
LINE
8
BLACK
6
CONTINUOUS
10
0.523162
20
0.111902
11
0.522874
21
0.112598
0
LINE
8
BLACK
6
CONTINUOUS
10
0.522874
20
0.112598
11
0.522874
21
0.187402
0
LINE
8
BLACK
6
CONTINUOUS
10
0.522874
20
0.187402
11
0.523162
21
0.188098
0
LINE
8
BLACK
6
CONTINUOUS
10
0.523162
20
0.188098
11
0.523858
21
0.188386
0
LINE
8
BLACK
6
CONTINUOUS
10
0.523858
20
0.188386
11
0.656142
21
0.188386
0
LINE
8
BLACK
6
CONTINUOUS
10
0.524843
20
0.186417
11
0.524843
21
0.113583
0
LINE
8
BLACK
6
CONTINUOUS
10
0.524843
20
0.113583
11
0.655157
21
0.113583
0
LINE
8
BLACK
6
CONTINUOUS
10
0.655157
20
0.113583
11
0.655157
21
0.186417
0
LINE
8
BLACK
6
CONTINUOUS
10
0.655157
20
0.186417
11
0.524843
21
0.186417
0
LINE
8
BLACK
6
CONTINUOUS
10
0.796142
20
0.188386
11
0.796838
21
0.188098
0
LINE
8
BLACK
6
CONTINUOUS
10
0.796838
20
0.188098
11
0.797126
21
0.187402
0
LINE
8
BLACK
6
CONTINUOUS
10
0.797126
20
0.187402
11
0.797126
21
0.112598
0
LINE
8
BLACK
6
CONTINUOUS
10
0.797126
20
0.112598
11
0.796838
21
0.111902
0
LINE
8
BLACK
6
CONTINUOUS
10
0.796838
20
0.111902
11
0.796142
21
0.111614
0
LINE
8
BLACK
6
CONTINUOUS
10
0.796142
20
0.111614
11
0.663858
21
0.111614
0
LINE
8
BLACK
6
CONTINUOUS
10
0.663858
20
0.111614
11
0.663162
21
0.111902
0
LINE
8
BLACK
6
CONTINUOUS
10
0.663162
20
0.111902
11
0.662874
21
0.112598
0
LINE
8
BLACK
6
CONTINUOUS
10
0.662874
20
0.112598
11
0.662874
21
0.187402
0
LINE
8
BLACK
6
CONTINUOUS
10
0.662874
20
0.187402
11
0.663162
21
0.188098
0
LINE
8
BLACK
6
CONTINUOUS
10
0.663162
20
0.188098
11
0.663858
21
0.188386
0
LINE
8
BLACK
6
CONTINUOUS
10
0.663858
20
0.188386
11
0.796142
21
0.188386
0
LINE
8
BLACK
6
CONTINUOUS
10
0.664843
20
0.186417
11
0.664843
21
0.113583
0
LINE
8
BLACK
6
CONTINUOUS
10
0.664843
20
0.113583
11
0.795157
21
0.113583
0
LINE
8
BLACK
6
CONTINUOUS
10
0.795157
20
0.113583
11
0.795157
21
0.186417
0
LINE
8
BLACK
6
CONTINUOUS
10
0.795157
20
0.186417
11
0.664843
21
0.186417
  0
ENDSEC
  0
EOF
