  0
SECTION
  2
HEADER
  9
$ANGBASE
  50
0.0
  9
$ANGDIR
  70
1
  9
$MEASUREMENT
  70
0
  0
ENDSEC
  0
SECTION
  2
TABLES
  0
TABLE
  2
LTYPE
  70
4
  0
LTYPE
  5
40F
  2
CONTINUOUS
  70
0
  3
Solid line
  72
65
  73
0
  40
0.0
  0
LTYPE
  5
410
  2
DASHDOT
 70
0
  3
Dash Dot ____ _ ____ _
 72
65
 73
4
 40
2.0
 49
1.25
 49
-0.25
 49
0.25
 49
-0.25
  0
LTYPE
  5
411
  2
DASHED
 70
0
  3
Dashed __ __ __ __ __
 72
65
 73
2
 40
0.75
 49
0.5
 49
-0.25
  0
LTYPE
  5
43B
  2
DOTTED
 70
0
  3
Dotted .  .  .  .
 72
65
 73
2
 40
0.2
 49
0.0
 49
-0.2
  0
ENDTAB
  0
TABLE
  2
STYLE
  70
4
  0
STYLE
  2
KICAD
  70
0
  40
0
  41
1
  42
1
  50
0
  71
0
  3
isocp.shx
  0
STYLE
  2
KICADB
  70
0
  40
0
  41
1
  42
1
  50
0
  71
0
  3
isocp.shx
  0
STYLE
  2
KICADI
  70
0
  40
0
  41
1
  42
1
  50
15
  71
0
  3
isocp.shx
  0
STYLE
  2
KICADBI
  70
0
  40
0
  41
1
  42
1
  50
15
  71
0
  3
isocp.shx
  0
ENDTAB
  0
TABLE
  2
LAYER
  70
1
  0
LAYER
  2
BLACK
  70
0
  62
7
  6
CONTINUOUS
  0
ENDTAB
  0
ENDSEC
  0
SECTION
  2
ENTITIES
0
LINE
8
BLACK
6
CONTINUOUS
10
0.907389
20
-0.892854
11
0.914494
21
-0.895009
0
LINE
8
BLACK
6
CONTINUOUS
10
0.914494
20
-0.895009
11
0.921042
21
-0.898509
0
LINE
8
BLACK
6
CONTINUOUS
10
0.921042
20
-0.898509
11
0.926781
21
-0.903219
0
LINE
8
BLACK
6
CONTINUOUS
10
0.926781
20
-0.903219
11
0.931491
21
-0.908958
0
LINE
8
BLACK
6
CONTINUOUS
10
0.931491
20
-0.908958
11
0.934991
21
-0.915506
0
LINE
8
BLACK
6
CONTINUOUS
10
0.934991
20
-0.915506
11
0.937146
21
-0.922611
0
LINE
8
BLACK
6
CONTINUOUS
10
0.937146
20
-0.922611
11
0.937874
21
-0.93
0
LINE
8
BLACK
6
CONTINUOUS
10
0.937874
20
-0.93
11
0.937146
21
-0.937389
0
LINE
8
BLACK
6
CONTINUOUS
10
0.937146
20
-0.937389
11
0.934991
21
-0.944494
0
LINE
8
BLACK
6
CONTINUOUS
10
0.934991
20
-0.944494
11
0.931491
21
-0.951042
0
LINE
8
BLACK
6
CONTINUOUS
10
0.931491
20
-0.951042
11
0.926781
21
-0.956781
0
LINE
8
BLACK
6
CONTINUOUS
10
0.926781
20
-0.956781
11
0.921042
21
-0.961491
0
LINE
8
BLACK
6
CONTINUOUS
10
0.921042
20
-0.961491
11
0.914494
21
-0.964991
0
LINE
8
BLACK
6
CONTINUOUS
10
0.914494
20
-0.964991
11
0.907389
21
-0.967146
0
LINE
8
BLACK
6
CONTINUOUS
10
0.907389
20
-0.967146
11
0.9
21
-0.967874
0
LINE
8
BLACK
6
CONTINUOUS
10
0.9
20
-0.967874
11
0.892611
21
-0.967146
0
LINE
8
BLACK
6
CONTINUOUS
10
0.892611
20
-0.967146
11
0.885506
21
-0.964991
0
LINE
8
BLACK
6
CONTINUOUS
10
0.885506
20
-0.964991
11
0.878958
21
-0.961491
0
LINE
8
BLACK
6
CONTINUOUS
10
0.878958
20
-0.961491
11
0.873219
21
-0.956781
0
LINE
8
BLACK
6
CONTINUOUS
10
0.873219
20
-0.956781
11
0.868509
21
-0.951042
0
LINE
8
BLACK
6
CONTINUOUS
10
0.868509
20
-0.951042
11
0.865009
21
-0.944494
0
LINE
8
BLACK
6
CONTINUOUS
10
0.865009
20
-0.944494
11
0.862854
21
-0.937389
0
LINE
8
BLACK
6
CONTINUOUS
10
0.862854
20
-0.937389
11
0.862126
21
-0.93
0
LINE
8
BLACK
6
CONTINUOUS
10
0.862126
20
-0.93
11
0.862854
21
-0.922611
0
LINE
8
BLACK
6
CONTINUOUS
10
0.862854
20
-0.922611
11
0.865009
21
-0.915506
0
LINE
8
BLACK
6
CONTINUOUS
10
0.865009
20
-0.915506
11
0.868509
21
-0.908958
0
LINE
8
BLACK
6
CONTINUOUS
10
0.868509
20
-0.908958
11
0.873219
21
-0.903219
0
LINE
8
BLACK
6
CONTINUOUS
10
0.873219
20
-0.903219
11
0.878958
21
-0.898509
0
LINE
8
BLACK
6
CONTINUOUS
10
0.878958
20
-0.898509
11
0.885506
21
-0.895009
0
LINE
8
BLACK
6
CONTINUOUS
10
0.885506
20
-0.895009
11
0.892611
21
-0.892854
0
LINE
8
BLACK
6
CONTINUOUS
10
0.892611
20
-0.892854
11
0.9
21
-0.892126
0
LINE
8
BLACK
6
CONTINUOUS
10
0.9
20
-0.892126
11
0.907389
21
-0.892854
0
LINE
8
BLACK
6
CONTINUOUS
10
1.00739
20
-0.892854
11
1.01449
21
-0.895009
0
LINE
8
BLACK
6
CONTINUOUS
10
1.01449
20
-0.895009
11
1.02104
21
-0.898509
0
LINE
8
BLACK
6
CONTINUOUS
10
1.02104
20
-0.898509
11
1.02678
21
-0.903219
0
LINE
8
BLACK
6
CONTINUOUS
10
1.02678
20
-0.903219
11
1.03149
21
-0.908958
0
LINE
8
BLACK
6
CONTINUOUS
10
1.03149
20
-0.908958
11
1.03499
21
-0.915506
0
LINE
8
BLACK
6
CONTINUOUS
10
1.03499
20
-0.915506
11
1.03715
21
-0.922611
0
LINE
8
BLACK
6
CONTINUOUS
10
1.03715
20
-0.922611
11
1.03787
21
-0.93
0
LINE
8
BLACK
6
CONTINUOUS
10
1.03787
20
-0.93
11
1.03715
21
-0.937389
0
LINE
8
BLACK
6
CONTINUOUS
10
1.03715
20
-0.937389
11
1.03499
21
-0.944494
0
LINE
8
BLACK
6
CONTINUOUS
10
1.03499
20
-0.944494
11
1.03149
21
-0.951042
0
LINE
8
BLACK
6
CONTINUOUS
10
1.03149
20
-0.951042
11
1.02678
21
-0.956781
0
LINE
8
BLACK
6
CONTINUOUS
10
1.02678
20
-0.956781
11
1.02104
21
-0.961491
0
LINE
8
BLACK
6
CONTINUOUS
10
1.02104
20
-0.961491
11
1.01449
21
-0.964991
0
LINE
8
BLACK
6
CONTINUOUS
10
1.01449
20
-0.964991
11
1.00739
21
-0.967146
0
LINE
8
BLACK
6
CONTINUOUS
10
1.00739
20
-0.967146
11
1
21
-0.967874
0
LINE
8
BLACK
6
CONTINUOUS
10
1
20
-0.967874
11
0.992611
21
-0.967146
0
LINE
8
BLACK
6
CONTINUOUS
10
0.992611
20
-0.967146
11
0.985506
21
-0.964991
0
LINE
8
BLACK
6
CONTINUOUS
10
0.985506
20
-0.964991
11
0.978958
21
-0.961491
0
LINE
8
BLACK
6
CONTINUOUS
10
0.978958
20
-0.961491
11
0.973219
21
-0.956781
0
LINE
8
BLACK
6
CONTINUOUS
10
0.973219
20
-0.956781
11
0.968509
21
-0.951042
0
LINE
8
BLACK
6
CONTINUOUS
10
0.968509
20
-0.951042
11
0.965009
21
-0.944494
0
LINE
8
BLACK
6
CONTINUOUS
10
0.965009
20
-0.944494
11
0.962854
21
-0.937389
0
LINE
8
BLACK
6
CONTINUOUS
10
0.962854
20
-0.937389
11
0.962126
21
-0.93
0
LINE
8
BLACK
6
CONTINUOUS
10
0.962126
20
-0.93
11
0.962854
21
-0.922611
0
LINE
8
BLACK
6
CONTINUOUS
10
0.962854
20
-0.922611
11
0.965009
21
-0.915506
0
LINE
8
BLACK
6
CONTINUOUS
10
0.965009
20
-0.915506
11
0.968509
21
-0.908958
0
LINE
8
BLACK
6
CONTINUOUS
10
0.968509
20
-0.908958
11
0.973219
21
-0.903219
0
LINE
8
BLACK
6
CONTINUOUS
10
0.973219
20
-0.903219
11
0.978958
21
-0.898509
0
LINE
8
BLACK
6
CONTINUOUS
10
0.978958
20
-0.898509
11
0.985506
21
-0.895009
0
LINE
8
BLACK
6
CONTINUOUS
10
0.985506
20
-0.895009
11
0.992611
21
-0.892854
0
LINE
8
BLACK
6
CONTINUOUS
10
0.992611
20
-0.892854
11
1
21
-0.892126
0
LINE
8
BLACK
6
CONTINUOUS
10
1
20
-0.892126
11
1.00739
21
-0.892854
0
LINE
8
BLACK
6
CONTINUOUS
10
1.10739
20
-0.892854
11
1.11449
21
-0.895009
0
LINE
8
BLACK
6
CONTINUOUS
10
1.11449
20
-0.895009
11
1.12104
21
-0.898509
0
LINE
8
BLACK
6
CONTINUOUS
10
1.12104
20
-0.898509
11
1.12678
21
-0.903219
0
LINE
8
BLACK
6
CONTINUOUS
10
1.12678
20
-0.903219
11
1.13149
21
-0.908958
0
LINE
8
BLACK
6
CONTINUOUS
10
1.13149
20
-0.908958
11
1.13499
21
-0.915506
0
LINE
8
BLACK
6
CONTINUOUS
10
1.13499
20
-0.915506
11
1.13715
21
-0.922611
0
LINE
8
BLACK
6
CONTINUOUS
10
1.13715
20
-0.922611
11
1.13787
21
-0.93
0
LINE
8
BLACK
6
CONTINUOUS
10
1.13787
20
-0.93
11
1.13715
21
-0.937389
0
LINE
8
BLACK
6
CONTINUOUS
10
1.13715
20
-0.937389
11
1.13499
21
-0.944494
0
LINE
8
BLACK
6
CONTINUOUS
10
1.13499
20
-0.944494
11
1.13149
21
-0.951042
0
LINE
8
BLACK
6
CONTINUOUS
10
1.13149
20
-0.951042
11
1.12678
21
-0.956781
0
LINE
8
BLACK
6
CONTINUOUS
10
1.12678
20
-0.956781
11
1.12104
21
-0.961491
0
LINE
8
BLACK
6
CONTINUOUS
10
1.12104
20
-0.961491
11
1.11449
21
-0.964991
0
LINE
8
BLACK
6
CONTINUOUS
10
1.11449
20
-0.964991
11
1.10739
21
-0.967146
0
LINE
8
BLACK
6
CONTINUOUS
10
1.10739
20
-0.967146
11
1.1
21
-0.967874
0
LINE
8
BLACK
6
CONTINUOUS
10
1.1
20
-0.967874
11
1.09261
21
-0.967146
0
LINE
8
BLACK
6
CONTINUOUS
10
1.09261
20
-0.967146
11
1.08551
21
-0.964991
0
LINE
8
BLACK
6
CONTINUOUS
10
1.08551
20
-0.964991
11
1.07896
21
-0.961491
0
LINE
8
BLACK
6
CONTINUOUS
10
1.07896
20
-0.961491
11
1.07322
21
-0.956781
0
LINE
8
BLACK
6
CONTINUOUS
10
1.07322
20
-0.956781
11
1.06851
21
-0.951042
0
LINE
8
BLACK
6
CONTINUOUS
10
1.06851
20
-0.951042
11
1.06501
21
-0.944494
0
LINE
8
BLACK
6
CONTINUOUS
10
1.06501
20
-0.944494
11
1.06285
21
-0.937389
0
LINE
8
BLACK
6
CONTINUOUS
10
1.06285
20
-0.937389
11
1.06213
21
-0.93
0
LINE
8
BLACK
6
CONTINUOUS
10
1.06213
20
-0.93
11
1.06285
21
-0.922611
0
LINE
8
BLACK
6
CONTINUOUS
10
1.06285
20
-0.922611
11
1.06501
21
-0.915506
0
LINE
8
BLACK
6
CONTINUOUS
10
1.06501
20
-0.915506
11
1.06851
21
-0.908958
0
LINE
8
BLACK
6
CONTINUOUS
10
1.06851
20
-0.908958
11
1.07322
21
-0.903219
0
LINE
8
BLACK
6
CONTINUOUS
10
1.07322
20
-0.903219
11
1.07896
21
-0.898509
0
LINE
8
BLACK
6
CONTINUOUS
10
1.07896
20
-0.898509
11
1.08551
21
-0.895009
0
LINE
8
BLACK
6
CONTINUOUS
10
1.08551
20
-0.895009
11
1.09261
21
-0.892854
0
LINE
8
BLACK
6
CONTINUOUS
10
1.09261
20
-0.892854
11
1.1
21
-0.892126
0
LINE
8
BLACK
6
CONTINUOUS
10
1.1
20
-0.892126
11
1.10739
21
-0.892854
0
LINE
8
BLACK
6
CONTINUOUS
10
0.0141057
20
-0.674808
11
0.0280341
21
-0.677174
0
LINE
8
BLACK
6
CONTINUOUS
10
0.0280341
20
-0.677174
11
0.04161
21
-0.681086
0
LINE
8
BLACK
6
CONTINUOUS
10
0.04161
20
-0.681086
11
0.0546625
21
-0.686492
0
LINE
8
BLACK
6
CONTINUOUS
10
0.0546625
20
-0.686492
11
0.0670277
21
-0.693326
0
LINE
8
BLACK
6
CONTINUOUS
10
0.0670277
20
-0.693326
11
0.0785499
21
-0.701502
0
LINE
8
BLACK
6
CONTINUOUS
10
0.0785499
20
-0.701502
11
0.0890843
21
-0.710916
0
LINE
8
BLACK
6
CONTINUOUS
10
0.0890843
20
-0.710916
11
0.0984985
21
-0.72145
0
LINE
8
BLACK
6
CONTINUOUS
10
0.0984985
20
-0.72145
11
0.106674
21
-0.732972
0
LINE
8
BLACK
6
CONTINUOUS
10
0.106674
20
-0.732972
11
0.113508
21
-0.745337
0
LINE
8
BLACK
6
CONTINUOUS
10
0.113508
20
-0.745337
11
0.118914
21
-0.75839
0
LINE
8
BLACK
6
CONTINUOUS
10
0.118914
20
-0.75839
11
0.122826
21
-0.771966
0
LINE
8
BLACK
6
CONTINUOUS
10
0.122826
20
-0.771966
11
0.125192
21
-0.785894
0
LINE
8
BLACK
6
CONTINUOUS
10
0.125192
20
-0.785894
11
0.125984
21
-0.8
0
LINE
8
BLACK
6
CONTINUOUS
10
0.125984
20
-0.8
11
0.125192
21
-0.814106
0
LINE
8
BLACK
6
CONTINUOUS
10
0.125192
20
-0.814106
11
0.122826
21
-0.828034
0
LINE
8
BLACK
6
CONTINUOUS
10
0.122826
20
-0.828034
11
0.118914
21
-0.84161
0
LINE
8
BLACK
6
CONTINUOUS
10
0.118914
20
-0.84161
11
0.113508
21
-0.854663
0
LINE
8
BLACK
6
CONTINUOUS
10
0.113508
20
-0.854663
11
0.106674
21
-0.867028
0
LINE
8
BLACK
6
CONTINUOUS
10
0.106674
20
-0.867028
11
0.0984985
21
-0.87855
0
LINE
8
BLACK
6
CONTINUOUS
10
0.0984985
20
-0.87855
11
0.0890843
21
-0.889084
0
LINE
8
BLACK
6
CONTINUOUS
10
0.0890843
20
-0.889084
11
0.0785499
21
-0.898498
0
LINE
8
BLACK
6
CONTINUOUS
10
0.0785499
20
-0.898498
11
0.0670277
21
-0.906674
0
LINE
8
BLACK
6
CONTINUOUS
10
0.0670277
20
-0.906674
11
0.0546625
21
-0.913508
0
LINE
8
BLACK
6
CONTINUOUS
10
0.0546625
20
-0.913508
11
0.04161
21
-0.918914
0
LINE
8
BLACK
6
CONTINUOUS
10
0.04161
20
-0.918914
11
0.0280341
21
-0.922826
0
LINE
8
BLACK
6
CONTINUOUS
10
0.0280341
20
-0.922826
11
0.0141057
21
-0.925192
0
LINE
8
BLACK
6
CONTINUOUS
10
0.0141057
20
-0.925192
11
0
21
-0.925984
0
LINE
8
BLACK
6
CONTINUOUS
10
0
20
-0.925984
11
-0.0141057
21
-0.925192
0
LINE
8
BLACK
6
CONTINUOUS
10
-0.0141057
20
-0.925192
11
-0.0280341
21
-0.922826
0
LINE
8
BLACK
6
CONTINUOUS
10
-0.0280341
20
-0.922826
11
-0.04161
21
-0.918914
0
LINE
8
BLACK
6
CONTINUOUS
10
-0.04161
20
-0.918914
11
-0.0546625
21
-0.913508
0
LINE
8
BLACK
6
CONTINUOUS
10
-0.0546625
20
-0.913508
11
-0.0670277
21
-0.906674
0
LINE
8
BLACK
6
CONTINUOUS
10
-0.0670277
20
-0.906674
11
-0.0785499
21
-0.898498
0
LINE
8
BLACK
6
CONTINUOUS
10
-0.0785499
20
-0.898498
11
-0.0890843
21
-0.889084
0
LINE
8
BLACK
6
CONTINUOUS
10
-0.0890843
20
-0.889084
11
-0.0984985
21
-0.87855
0
LINE
8
BLACK
6
CONTINUOUS
10
-0.0984985
20
-0.87855
11
-0.106674
21
-0.867028
0
LINE
8
BLACK
6
CONTINUOUS
10
-0.106674
20
-0.867028
11
-0.113508
21
-0.854663
0
LINE
8
BLACK
6
CONTINUOUS
10
-0.113508
20
-0.854663
11
-0.118914
21
-0.84161
0
LINE
8
BLACK
6
CONTINUOUS
10
-0.118914
20
-0.84161
11
-0.122826
21
-0.828034
0
LINE
8
BLACK
6
CONTINUOUS
10
-0.122826
20
-0.828034
11
-0.125192
21
-0.814106
0
LINE
8
BLACK
6
CONTINUOUS
10
-0.125192
20
-0.814106
11
-0.125984
21
-0.8
0
LINE
8
BLACK
6
CONTINUOUS
10
-0.125984
20
-0.8
11
-0.125192
21
-0.785894
0
LINE
8
BLACK
6
CONTINUOUS
10
-0.125192
20
-0.785894
11
-0.122826
21
-0.771966
0
LINE
8
BLACK
6
CONTINUOUS
10
-0.122826
20
-0.771966
11
-0.118914
21
-0.75839
0
LINE
8
BLACK
6
CONTINUOUS
10
-0.118914
20
-0.75839
11
-0.113508
21
-0.745337
0
LINE
8
BLACK
6
CONTINUOUS
10
-0.113508
20
-0.745337
11
-0.106674
21
-0.732972
0
LINE
8
BLACK
6
CONTINUOUS
10
-0.106674
20
-0.732972
11
-0.0984985
21
-0.72145
0
LINE
8
BLACK
6
CONTINUOUS
10
-0.0984985
20
-0.72145
11
-0.0890843
21
-0.710916
0
LINE
8
BLACK
6
CONTINUOUS
10
-0.0890843
20
-0.710916
11
-0.0785499
21
-0.701502
0
LINE
8
BLACK
6
CONTINUOUS
10
-0.0785499
20
-0.701502
11
-0.0670277
21
-0.693326
0
LINE
8
BLACK
6
CONTINUOUS
10
-0.0670277
20
-0.693326
11
-0.0546625
21
-0.686492
0
LINE
8
BLACK
6
CONTINUOUS
10
-0.0546625
20
-0.686492
11
-0.04161
21
-0.681086
0
LINE
8
BLACK
6
CONTINUOUS
10
-0.04161
20
-0.681086
11
-0.0280341
21
-0.677174
0
LINE
8
BLACK
6
CONTINUOUS
10
-0.0280341
20
-0.677174
11
-0.0141057
21
-0.674808
0
LINE
8
BLACK
6
CONTINUOUS
10
-0.0141057
20
-0.674808
11
0
21
-0.674016
0
LINE
8
BLACK
6
CONTINUOUS
10
0
20
-0.674016
11
0.0141057
21
-0.674808
0
LINE
8
BLACK
6
CONTINUOUS
10
2.41411
20
-0.674808
11
2.42803
21
-0.677174
0
LINE
8
BLACK
6
CONTINUOUS
10
2.42803
20
-0.677174
11
2.44161
21
-0.681086
0
LINE
8
BLACK
6
CONTINUOUS
10
2.44161
20
-0.681086
11
2.45466
21
-0.686492
0
LINE
8
BLACK
6
CONTINUOUS
10
2.45466
20
-0.686492
11
2.46703
21
-0.693326
0
LINE
8
BLACK
6
CONTINUOUS
10
2.46703
20
-0.693326
11
2.47855
21
-0.701502
0
LINE
8
BLACK
6
CONTINUOUS
10
2.47855
20
-0.701502
11
2.48908
21
-0.710916
0
LINE
8
BLACK
6
CONTINUOUS
10
2.48908
20
-0.710916
11
2.4985
21
-0.72145
0
LINE
8
BLACK
6
CONTINUOUS
10
2.4985
20
-0.72145
11
2.50667
21
-0.732972
0
LINE
8
BLACK
6
CONTINUOUS
10
2.50667
20
-0.732972
11
2.51351
21
-0.745337
0
LINE
8
BLACK
6
CONTINUOUS
10
2.51351
20
-0.745337
11
2.51891
21
-0.75839
0
LINE
8
BLACK
6
CONTINUOUS
10
2.51891
20
-0.75839
11
2.52283
21
-0.771966
0
LINE
8
BLACK
6
CONTINUOUS
10
2.52283
20
-0.771966
11
2.52519
21
-0.785894
0
LINE
8
BLACK
6
CONTINUOUS
10
2.52519
20
-0.785894
11
2.52598
21
-0.8
0
LINE
8
BLACK
6
CONTINUOUS
10
2.52598
20
-0.8
11
2.52519
21
-0.814106
0
LINE
8
BLACK
6
CONTINUOUS
10
2.52519
20
-0.814106
11
2.52283
21
-0.828034
0
LINE
8
BLACK
6
CONTINUOUS
10
2.52283
20
-0.828034
11
2.51891
21
-0.84161
0
LINE
8
BLACK
6
CONTINUOUS
10
2.51891
20
-0.84161
11
2.51351
21
-0.854663
0
LINE
8
BLACK
6
CONTINUOUS
10
2.51351
20
-0.854663
11
2.50667
21
-0.867028
0
LINE
8
BLACK
6
CONTINUOUS
10
2.50667
20
-0.867028
11
2.4985
21
-0.87855
0
LINE
8
BLACK
6
CONTINUOUS
10
2.4985
20
-0.87855
11
2.48908
21
-0.889084
0
LINE
8
BLACK
6
CONTINUOUS
10
2.48908
20
-0.889084
11
2.47855
21
-0.898498
0
LINE
8
BLACK
6
CONTINUOUS
10
2.47855
20
-0.898498
11
2.46703
21
-0.906674
0
LINE
8
BLACK
6
CONTINUOUS
10
2.46703
20
-0.906674
11
2.45466
21
-0.913508
0
LINE
8
BLACK
6
CONTINUOUS
10
2.45466
20
-0.913508
11
2.44161
21
-0.918914
0
LINE
8
BLACK
6
CONTINUOUS
10
2.44161
20
-0.918914
11
2.42803
21
-0.922826
0
LINE
8
BLACK
6
CONTINUOUS
10
2.42803
20
-0.922826
11
2.41411
21
-0.925192
0
LINE
8
BLACK
6
CONTINUOUS
10
2.41411
20
-0.925192
11
2.4
21
-0.925984
0
LINE
8
BLACK
6
CONTINUOUS
10
2.4
20
-0.925984
11
2.38589
21
-0.925192
0
LINE
8
BLACK
6
CONTINUOUS
10
2.38589
20
-0.925192
11
2.37197
21
-0.922826
0
LINE
8
BLACK
6
CONTINUOUS
10
2.37197
20
-0.922826
11
2.35839
21
-0.918914
0
LINE
8
BLACK
6
CONTINUOUS
10
2.35839
20
-0.918914
11
2.34534
21
-0.913508
0
LINE
8
BLACK
6
CONTINUOUS
10
2.34534
20
-0.913508
11
2.33297
21
-0.906674
0
LINE
8
BLACK
6
CONTINUOUS
10
2.33297
20
-0.906674
11
2.32145
21
-0.898498
0
LINE
8
BLACK
6
CONTINUOUS
10
2.32145
20
-0.898498
11
2.31092
21
-0.889084
0
LINE
8
BLACK
6
CONTINUOUS
10
2.31092
20
-0.889084
11
2.3015
21
-0.87855
0
LINE
8
BLACK
6
CONTINUOUS
10
2.3015
20
-0.87855
11
2.29333
21
-0.867028
0
LINE
8
BLACK
6
CONTINUOUS
10
2.29333
20
-0.867028
11
2.28649
21
-0.854663
0
LINE
8
BLACK
6
CONTINUOUS
10
2.28649
20
-0.854663
11
2.28109
21
-0.84161
0
LINE
8
BLACK
6
CONTINUOUS
10
2.28109
20
-0.84161
11
2.27717
21
-0.828034
0
LINE
8
BLACK
6
CONTINUOUS
10
2.27717
20
-0.828034
11
2.27481
21
-0.814106
0
LINE
8
BLACK
6
CONTINUOUS
10
2.27481
20
-0.814106
11
2.27402
21
-0.8
0
LINE
8
BLACK
6
CONTINUOUS
10
2.27402
20
-0.8
11
2.27481
21
-0.785894
0
LINE
8
BLACK
6
CONTINUOUS
10
2.27481
20
-0.785894
11
2.27717
21
-0.771966
0
LINE
8
BLACK
6
CONTINUOUS
10
2.27717
20
-0.771966
11
2.28109
21
-0.75839
0
LINE
8
BLACK
6
CONTINUOUS
10
2.28109
20
-0.75839
11
2.28649
21
-0.745337
0
LINE
8
BLACK
6
CONTINUOUS
10
2.28649
20
-0.745337
11
2.29333
21
-0.732972
0
LINE
8
BLACK
6
CONTINUOUS
10
2.29333
20
-0.732972
11
2.3015
21
-0.72145
0
LINE
8
BLACK
6
CONTINUOUS
10
2.3015
20
-0.72145
11
2.31092
21
-0.710916
0
LINE
8
BLACK
6
CONTINUOUS
10
2.31092
20
-0.710916
11
2.32145
21
-0.701502
0
LINE
8
BLACK
6
CONTINUOUS
10
2.32145
20
-0.701502
11
2.33297
21
-0.693326
0
LINE
8
BLACK
6
CONTINUOUS
10
2.33297
20
-0.693326
11
2.34534
21
-0.686492
0
LINE
8
BLACK
6
CONTINUOUS
10
2.34534
20
-0.686492
11
2.35839
21
-0.681086
0
LINE
8
BLACK
6
CONTINUOUS
10
2.35839
20
-0.681086
11
2.37197
21
-0.677174
0
LINE
8
BLACK
6
CONTINUOUS
10
2.37197
20
-0.677174
11
2.38589
21
-0.674808
0
LINE
8
BLACK
6
CONTINUOUS
10
2.38589
20
-0.674808
11
2.4
21
-0.674016
0
LINE
8
BLACK
6
CONTINUOUS
10
2.4
20
-0.674016
11
2.41411
21
-0.674808
0
LINE
8
BLACK
6
CONTINUOUS
10
0.246394
20
-0.78141
11
0.254523
21
-0.784559
0
LINE
8
BLACK
6
CONTINUOUS
10
0.254523
20
-0.784559
11
0.261936
21
-0.789149
0
LINE
8
BLACK
6
CONTINUOUS
10
0.261936
20
-0.789149
11
0.268378
21
-0.795022
0
LINE
8
BLACK
6
CONTINUOUS
10
0.268378
20
-0.795022
11
0.273632
21
-0.80198
0
LINE
8
BLACK
6
CONTINUOUS
10
0.273632
20
-0.80198
11
0.277518
21
-0.809784
0
LINE
8
BLACK
6
CONTINUOUS
10
0.277518
20
-0.809784
11
0.279904
21
-0.818169
0
LINE
8
BLACK
6
CONTINUOUS
10
0.279904
20
-0.818169
11
0.280709
21
-0.82685
0
LINE
8
BLACK
6
CONTINUOUS
10
0.280709
20
-0.82685
11
0.279904
21
-0.835531
0
LINE
8
BLACK
6
CONTINUOUS
10
0.279904
20
-0.835531
11
0.277518
21
-0.843917
0
LINE
8
BLACK
6
CONTINUOUS
10
0.277518
20
-0.843917
11
0.273632
21
-0.851721
0
LINE
8
BLACK
6
CONTINUOUS
10
0.273632
20
-0.851721
11
0.268378
21
-0.858679
0
LINE
8
BLACK
6
CONTINUOUS
10
0.268378
20
-0.858679
11
0.261936
21
-0.864552
0
LINE
8
BLACK
6
CONTINUOUS
10
0.261936
20
-0.864552
11
0.254523
21
-0.869142
0
LINE
8
BLACK
6
CONTINUOUS
10
0.254523
20
-0.869142
11
0.246394
21
-0.872291
0
LINE
8
BLACK
6
CONTINUOUS
10
0.246394
20
-0.872291
11
0.237824
21
-0.873893
0
LINE
8
BLACK
6
CONTINUOUS
10
0.237824
20
-0.873893
11
0.229105
21
-0.873893
0
LINE
8
BLACK
6
CONTINUOUS
10
0.229105
20
-0.873893
11
0.220536
21
-0.872291
0
LINE
8
BLACK
6
CONTINUOUS
10
0.220536
20
-0.872291
11
0.212406
21
-0.869142
0
LINE
8
BLACK
6
CONTINUOUS
10
0.212406
20
-0.869142
11
0.204994
21
-0.864552
0
LINE
8
BLACK
6
CONTINUOUS
10
0.204994
20
-0.864552
11
0.198551
21
-0.858679
0
LINE
8
BLACK
6
CONTINUOUS
10
0.198551
20
-0.858679
11
0.193297
21
-0.851721
0
LINE
8
BLACK
6
CONTINUOUS
10
0.193297
20
-0.851721
11
0.189411
21
-0.843917
0
LINE
8
BLACK
6
CONTINUOUS
10
0.189411
20
-0.843917
11
0.187025
21
-0.835531
0
LINE
8
BLACK
6
CONTINUOUS
10
0.187025
20
-0.835531
11
0.18622
21
-0.82685
0
LINE
8
BLACK
6
CONTINUOUS
10
0.18622
20
-0.82685
11
0.187025
21
-0.818169
0
LINE
8
BLACK
6
CONTINUOUS
10
0.187025
20
-0.818169
11
0.189411
21
-0.809784
0
LINE
8
BLACK
6
CONTINUOUS
10
0.189411
20
-0.809784
11
0.193297
21
-0.80198
0
LINE
8
BLACK
6
CONTINUOUS
10
0.193297
20
-0.80198
11
0.198551
21
-0.795022
0
LINE
8
BLACK
6
CONTINUOUS
10
0.198551
20
-0.795022
11
0.204994
21
-0.789149
0
LINE
8
BLACK
6
CONTINUOUS
10
0.204994
20
-0.789149
11
0.212406
21
-0.784559
0
LINE
8
BLACK
6
CONTINUOUS
10
0.212406
20
-0.784559
11
0.220536
21
-0.78141
0
LINE
8
BLACK
6
CONTINUOUS
10
0.220536
20
-0.78141
11
0.229105
21
-0.779808
0
LINE
8
BLACK
6
CONTINUOUS
10
0.229105
20
-0.779808
11
0.237824
21
-0.779808
0
LINE
8
BLACK
6
CONTINUOUS
10
0.237824
20
-0.779808
11
0.246394
21
-0.78141
0
LINE
8
BLACK
6
CONTINUOUS
10
0.679464
20
-0.78141
11
0.687594
21
-0.784559
0
LINE
8
BLACK
6
CONTINUOUS
10
0.687594
20
-0.784559
11
0.695006
21
-0.789149
0
LINE
8
BLACK
6
CONTINUOUS
10
0.695006
20
-0.789149
11
0.701449
21
-0.795022
0
LINE
8
BLACK
6
CONTINUOUS
10
0.701449
20
-0.795022
11
0.706703
21
-0.80198
0
LINE
8
BLACK
6
CONTINUOUS
10
0.706703
20
-0.80198
11
0.710589
21
-0.809784
0
LINE
8
BLACK
6
CONTINUOUS
10
0.710589
20
-0.809784
11
0.712975
21
-0.818169
0
LINE
8
BLACK
6
CONTINUOUS
10
0.712975
20
-0.818169
11
0.71378
21
-0.82685
0
LINE
8
BLACK
6
CONTINUOUS
10
0.71378
20
-0.82685
11
0.712975
21
-0.835531
0
LINE
8
BLACK
6
CONTINUOUS
10
0.712975
20
-0.835531
11
0.710589
21
-0.843917
0
LINE
8
BLACK
6
CONTINUOUS
10
0.710589
20
-0.843917
11
0.706703
21
-0.851721
0
LINE
8
BLACK
6
CONTINUOUS
10
0.706703
20
-0.851721
11
0.701449
21
-0.858679
0
LINE
8
BLACK
6
CONTINUOUS
10
0.701449
20
-0.858679
11
0.695006
21
-0.864552
0
LINE
8
BLACK
6
CONTINUOUS
10
0.695006
20
-0.864552
11
0.687594
21
-0.869142
0
LINE
8
BLACK
6
CONTINUOUS
10
0.687594
20
-0.869142
11
0.679464
21
-0.872291
0
LINE
8
BLACK
6
CONTINUOUS
10
0.679464
20
-0.872291
11
0.670895
21
-0.873893
0
LINE
8
BLACK
6
CONTINUOUS
10
0.670895
20
-0.873893
11
0.662176
21
-0.873893
0
LINE
8
BLACK
6
CONTINUOUS
10
0.662176
20
-0.873893
11
0.653606
21
-0.872291
0
LINE
8
BLACK
6
CONTINUOUS
10
0.653606
20
-0.872291
11
0.645477
21
-0.869142
0
LINE
8
BLACK
6
CONTINUOUS
10
0.645477
20
-0.869142
11
0.638064
21
-0.864552
0
LINE
8
BLACK
6
CONTINUOUS
10
0.638064
20
-0.864552
11
0.631622
21
-0.858679
0
LINE
8
BLACK
6
CONTINUOUS
10
0.631622
20
-0.858679
11
0.626368
21
-0.851721
0
LINE
8
BLACK
6
CONTINUOUS
10
0.626368
20
-0.851721
11
0.622482
21
-0.843917
0
LINE
8
BLACK
6
CONTINUOUS
10
0.622482
20
-0.843917
11
0.620096
21
-0.835531
0
LINE
8
BLACK
6
CONTINUOUS
10
0.620096
20
-0.835531
11
0.619291
21
-0.82685
0
LINE
8
BLACK
6
CONTINUOUS
10
0.619291
20
-0.82685
11
0.620096
21
-0.818169
0
LINE
8
BLACK
6
CONTINUOUS
10
0.620096
20
-0.818169
11
0.622482
21
-0.809784
0
LINE
8
BLACK
6
CONTINUOUS
10
0.622482
20
-0.809784
11
0.626368
21
-0.80198
0
LINE
8
BLACK
6
CONTINUOUS
10
0.626368
20
-0.80198
11
0.631622
21
-0.795022
0
LINE
8
BLACK
6
CONTINUOUS
10
0.631622
20
-0.795022
11
0.638064
21
-0.789149
0
LINE
8
BLACK
6
CONTINUOUS
10
0.638064
20
-0.789149
11
0.645477
21
-0.784559
0
LINE
8
BLACK
6
CONTINUOUS
10
0.645477
20
-0.784559
11
0.653606
21
-0.78141
0
LINE
8
BLACK
6
CONTINUOUS
10
0.653606
20
-0.78141
11
0.662176
21
-0.779808
0
LINE
8
BLACK
6
CONTINUOUS
10
0.662176
20
-0.779808
11
0.670895
21
-0.779808
0
LINE
8
BLACK
6
CONTINUOUS
10
0.670895
20
-0.779808
11
0.679464
21
-0.78141
0
LINE
8
BLACK
6
CONTINUOUS
10
2.18882
20
-0.669936
11
2.19773
21
-0.672997
0
LINE
8
BLACK
6
CONTINUOUS
10
2.19773
20
-0.672997
11
2.20603
21
-0.677485
0
LINE
8
BLACK
6
CONTINUOUS
10
2.20603
20
-0.677485
11
2.21347
21
-0.683276
0
LINE
8
BLACK
6
CONTINUOUS
10
2.21347
20
-0.683276
11
2.21985
21
-0.690212
0
LINE
8
BLACK
6
CONTINUOUS
10
2.21985
20
-0.690212
11
2.22501
21
-0.698105
0
LINE
8
BLACK
6
CONTINUOUS
10
2.22501
20
-0.698105
11
2.2288
21
-0.70674
0
LINE
8
BLACK
6
CONTINUOUS
10
2.2288
20
-0.70674
11
2.23111
21
-0.715879
0
LINE
8
BLACK
6
CONTINUOUS
10
2.23111
20
-0.715879
11
2.23189
21
-0.725276
0
LINE
8
BLACK
6
CONTINUOUS
10
2.23189
20
-0.725276
11
2.23111
21
-0.734672
0
LINE
8
BLACK
6
CONTINUOUS
10
2.23111
20
-0.734672
11
2.2288
21
-0.743812
0
LINE
8
BLACK
6
CONTINUOUS
10
2.2288
20
-0.743812
11
2.22501
21
-0.752446
0
LINE
8
BLACK
6
CONTINUOUS
10
2.22501
20
-0.752446
11
2.21985
21
-0.760339
0
LINE
8
BLACK
6
CONTINUOUS
10
2.21985
20
-0.760339
11
2.21347
21
-0.767276
0
LINE
8
BLACK
6
CONTINUOUS
10
2.21347
20
-0.767276
11
2.20603
21
-0.773067
0
LINE
8
BLACK
6
CONTINUOUS
10
2.20603
20
-0.773067
11
2.19773
21
-0.777554
0
LINE
8
BLACK
6
CONTINUOUS
10
2.19773
20
-0.777554
11
2.18882
21
-0.780615
0
LINE
8
BLACK
6
CONTINUOUS
10
2.18882
20
-0.780615
11
2.17952
21
-0.782167
0
LINE
8
BLACK
6
CONTINUOUS
10
2.17952
20
-0.782167
11
2.17009
21
-0.782167
0
LINE
8
BLACK
6
CONTINUOUS
10
2.17009
20
-0.782167
11
2.16079
21
-0.780615
0
LINE
8
BLACK
6
CONTINUOUS
10
2.16079
20
-0.780615
11
2.15187
21
-0.777554
0
LINE
8
BLACK
6
CONTINUOUS
10
2.15187
20
-0.777554
11
2.14358
21
-0.773067
0
LINE
8
BLACK
6
CONTINUOUS
10
2.14358
20
-0.773067
11
2.13614
21
-0.767276
0
LINE
8
BLACK
6
CONTINUOUS
10
2.13614
20
-0.767276
11
2.12975
21
-0.760339
0
LINE
8
BLACK
6
CONTINUOUS
10
2.12975
20
-0.760339
11
2.1246
21
-0.752446
0
LINE
8
BLACK
6
CONTINUOUS
10
2.1246
20
-0.752446
11
2.12081
21
-0.743812
0
LINE
8
BLACK
6
CONTINUOUS
10
2.12081
20
-0.743812
11
2.1185
21
-0.734672
0
LINE
8
BLACK
6
CONTINUOUS
10
2.1185
20
-0.734672
11
2.11772
21
-0.725276
0
LINE
8
BLACK
6
CONTINUOUS
10
2.11772
20
-0.725276
11
2.1185
21
-0.715879
0
LINE
8
BLACK
6
CONTINUOUS
10
2.1185
20
-0.715879
11
2.12081
21
-0.70674
0
LINE
8
BLACK
6
CONTINUOUS
10
2.12081
20
-0.70674
11
2.1246
21
-0.698105
0
LINE
8
BLACK
6
CONTINUOUS
10
2.1246
20
-0.698105
11
2.12975
21
-0.690212
0
LINE
8
BLACK
6
CONTINUOUS
10
2.12975
20
-0.690212
11
2.13614
21
-0.683276
0
LINE
8
BLACK
6
CONTINUOUS
10
2.13614
20
-0.683276
11
2.14358
21
-0.677485
0
LINE
8
BLACK
6
CONTINUOUS
10
2.14358
20
-0.677485
11
2.15187
21
-0.672997
0
LINE
8
BLACK
6
CONTINUOUS
10
2.15187
20
-0.672997
11
2.16079
21
-0.669936
0
LINE
8
BLACK
6
CONTINUOUS
10
2.16079
20
-0.669936
11
2.17009
21
-0.668384
0
LINE
8
BLACK
6
CONTINUOUS
10
2.17009
20
-0.668384
11
2.17952
21
-0.668384
0
LINE
8
BLACK
6
CONTINUOUS
10
2.17952
20
-0.668384
11
2.18882
21
-0.669936
0
LINE
8
BLACK
6
CONTINUOUS
10
0.362501
20
-0.357159
11
0.373204
21
-0.359488
0
LINE
8
BLACK
6
CONTINUOUS
10
0.373204
20
-0.359488
11
0.383467
21
-0.363316
0
LINE
8
BLACK
6
CONTINUOUS
10
0.383467
20
-0.363316
11
0.393081
21
-0.368565
0
LINE
8
BLACK
6
CONTINUOUS
10
0.393081
20
-0.368565
11
0.40185
21
-0.375129
0
LINE
8
BLACK
6
CONTINUOUS
10
0.40185
20
-0.375129
11
0.409595
21
-0.382875
0
LINE
8
BLACK
6
CONTINUOUS
10
0.409595
20
-0.382875
11
0.416159
21
-0.391644
0
LINE
8
BLACK
6
CONTINUOUS
10
0.416159
20
-0.391644
11
0.421409
21
-0.401258
0
LINE
8
BLACK
6
CONTINUOUS
10
0.421409
20
-0.401258
11
0.425237
21
-0.411521
0
LINE
8
BLACK
6
CONTINUOUS
10
0.425237
20
-0.411521
11
0.427565
21
-0.422224
0
LINE
8
BLACK
6
CONTINUOUS
10
0.427565
20
-0.422224
11
0.428346
21
-0.43315
0
LINE
8
BLACK
6
CONTINUOUS
10
0.428346
20
-0.43315
11
0.427565
21
-0.444075
0
LINE
8
BLACK
6
CONTINUOUS
10
0.427565
20
-0.444075
11
0.425237
21
-0.454779
0
LINE
8
BLACK
6
CONTINUOUS
10
0.425237
20
-0.454779
11
0.421409
21
-0.465042
0
LINE
8
BLACK
6
CONTINUOUS
10
0.421409
20
-0.465042
11
0.416159
21
-0.474656
0
LINE
8
BLACK
6
CONTINUOUS
10
0.416159
20
-0.474656
11
0.409595
21
-0.483424
0
LINE
8
BLACK
6
CONTINUOUS
10
0.409595
20
-0.483424
11
0.40185
21
-0.49117
0
LINE
8
BLACK
6
CONTINUOUS
10
0.40185
20
-0.49117
11
0.393081
21
-0.497734
0
LINE
8
BLACK
6
CONTINUOUS
10
0.393081
20
-0.497734
11
0.383467
21
-0.502984
0
LINE
8
BLACK
6
CONTINUOUS
10
0.383467
20
-0.502984
11
0.373204
21
-0.506811
0
LINE
8
BLACK
6
CONTINUOUS
10
0.373204
20
-0.506811
11
0.362501
21
-0.50914
0
LINE
8
BLACK
6
CONTINUOUS
10
0.362501
20
-0.50914
11
0.351575
21
-0.509921
0
LINE
8
BLACK
6
CONTINUOUS
10
0.351575
20
-0.509921
11
0.340649
21
-0.50914
0
LINE
8
BLACK
6
CONTINUOUS
10
0.340649
20
-0.50914
11
0.329946
21
-0.506811
0
LINE
8
BLACK
6
CONTINUOUS
10
0.329946
20
-0.506811
11
0.319683
21
-0.502984
0
LINE
8
BLACK
6
CONTINUOUS
10
0.319683
20
-0.502984
11
0.310069
21
-0.497734
0
LINE
8
BLACK
6
CONTINUOUS
10
0.310069
20
-0.497734
11
0.3013
21
-0.49117
0
LINE
8
BLACK
6
CONTINUOUS
10
0.3013
20
-0.49117
11
0.293555
21
-0.483424
0
LINE
8
BLACK
6
CONTINUOUS
10
0.293555
20
-0.483424
11
0.28699
21
-0.474656
0
LINE
8
BLACK
6
CONTINUOUS
10
0.28699
20
-0.474656
11
0.281741
21
-0.465042
0
LINE
8
BLACK
6
CONTINUOUS
10
0.281741
20
-0.465042
11
0.277913
21
-0.454779
0
LINE
8
BLACK
6
CONTINUOUS
10
0.277913
20
-0.454779
11
0.275585
21
-0.444075
0
LINE
8
BLACK
6
CONTINUOUS
10
0.275585
20
-0.444075
11
0.274803
21
-0.43315
0
LINE
8
BLACK
6
CONTINUOUS
10
0.274803
20
-0.43315
11
0.275585
21
-0.422224
0
LINE
8
BLACK
6
CONTINUOUS
10
0.275585
20
-0.422224
11
0.277913
21
-0.411521
0
LINE
8
BLACK
6
CONTINUOUS
10
0.277913
20
-0.411521
11
0.281741
21
-0.401258
0
LINE
8
BLACK
6
CONTINUOUS
10
0.281741
20
-0.401258
11
0.28699
21
-0.391644
0
LINE
8
BLACK
6
CONTINUOUS
10
0.28699
20
-0.391644
11
0.293555
21
-0.382875
0
LINE
8
BLACK
6
CONTINUOUS
10
0.293555
20
-0.382875
11
0.3013
21
-0.375129
0
LINE
8
BLACK
6
CONTINUOUS
10
0.3013
20
-0.375129
11
0.310069
21
-0.368565
0
LINE
8
BLACK
6
CONTINUOUS
10
0.310069
20
-0.368565
11
0.319683
21
-0.363316
0
LINE
8
BLACK
6
CONTINUOUS
10
0.319683
20
-0.363316
11
0.329946
21
-0.359488
0
LINE
8
BLACK
6
CONTINUOUS
10
0.329946
20
-0.359488
11
0.340649
21
-0.357159
0
LINE
8
BLACK
6
CONTINUOUS
10
0.340649
20
-0.357159
11
0.351575
21
-0.356378
0
LINE
8
BLACK
6
CONTINUOUS
10
0.351575
20
-0.356378
11
0.362501
21
-0.357159
0
LINE
8
BLACK
6
CONTINUOUS
10
0.559351
20
-0.357159
11
0.570054
21
-0.359488
0
LINE
8
BLACK
6
CONTINUOUS
10
0.570054
20
-0.359488
11
0.580317
21
-0.363316
0
LINE
8
BLACK
6
CONTINUOUS
10
0.580317
20
-0.363316
11
0.589931
21
-0.368565
0
LINE
8
BLACK
6
CONTINUOUS
10
0.589931
20
-0.368565
11
0.5987
21
-0.375129
0
LINE
8
BLACK
6
CONTINUOUS
10
0.5987
20
-0.375129
11
0.606445
21
-0.382875
0
LINE
8
BLACK
6
CONTINUOUS
10
0.606445
20
-0.382875
11
0.61301
21
-0.391644
0
LINE
8
BLACK
6
CONTINUOUS
10
0.61301
20
-0.391644
11
0.618259
21
-0.401258
0
LINE
8
BLACK
6
CONTINUOUS
10
0.618259
20
-0.401258
11
0.622087
21
-0.411521
0
LINE
8
BLACK
6
CONTINUOUS
10
0.622087
20
-0.411521
11
0.624415
21
-0.422224
0
LINE
8
BLACK
6
CONTINUOUS
10
0.624415
20
-0.422224
11
0.625197
21
-0.43315
0
LINE
8
BLACK
6
CONTINUOUS
10
0.625197
20
-0.43315
11
0.624415
21
-0.444075
0
LINE
8
BLACK
6
CONTINUOUS
10
0.624415
20
-0.444075
11
0.622087
21
-0.454779
0
LINE
8
BLACK
6
CONTINUOUS
10
0.622087
20
-0.454779
11
0.618259
21
-0.465042
0
LINE
8
BLACK
6
CONTINUOUS
10
0.618259
20
-0.465042
11
0.61301
21
-0.474656
0
LINE
8
BLACK
6
CONTINUOUS
10
0.61301
20
-0.474656
11
0.606445
21
-0.483424
0
LINE
8
BLACK
6
CONTINUOUS
10
0.606445
20
-0.483424
11
0.5987
21
-0.49117
0
LINE
8
BLACK
6
CONTINUOUS
10
0.5987
20
-0.49117
11
0.589931
21
-0.497734
0
LINE
8
BLACK
6
CONTINUOUS
10
0.589931
20
-0.497734
11
0.580317
21
-0.502984
0
LINE
8
BLACK
6
CONTINUOUS
10
0.580317
20
-0.502984
11
0.570054
21
-0.506811
0
LINE
8
BLACK
6
CONTINUOUS
10
0.570054
20
-0.506811
11
0.559351
21
-0.50914
0
LINE
8
BLACK
6
CONTINUOUS
10
0.559351
20
-0.50914
11
0.548425
21
-0.509921
0
LINE
8
BLACK
6
CONTINUOUS
10
0.548425
20
-0.509921
11
0.537499
21
-0.50914
0
LINE
8
BLACK
6
CONTINUOUS
10
0.537499
20
-0.50914
11
0.526796
21
-0.506811
0
LINE
8
BLACK
6
CONTINUOUS
10
0.526796
20
-0.506811
11
0.516533
21
-0.502984
0
LINE
8
BLACK
6
CONTINUOUS
10
0.516533
20
-0.502984
11
0.506919
21
-0.497734
0
LINE
8
BLACK
6
CONTINUOUS
10
0.506919
20
-0.497734
11
0.49815
21
-0.49117
0
LINE
8
BLACK
6
CONTINUOUS
10
0.49815
20
-0.49117
11
0.490405
21
-0.483424
0
LINE
8
BLACK
6
CONTINUOUS
10
0.490405
20
-0.483424
11
0.483841
21
-0.474656
0
LINE
8
BLACK
6
CONTINUOUS
10
0.483841
20
-0.474656
11
0.478591
21
-0.465042
0
LINE
8
BLACK
6
CONTINUOUS
10
0.478591
20
-0.465042
11
0.474763
21
-0.454779
0
LINE
8
BLACK
6
CONTINUOUS
10
0.474763
20
-0.454779
11
0.472435
21
-0.444075
0
LINE
8
BLACK
6
CONTINUOUS
10
0.472435
20
-0.444075
11
0.471654
21
-0.43315
0
LINE
8
BLACK
6
CONTINUOUS
10
0.471654
20
-0.43315
11
0.472435
21
-0.422224
0
LINE
8
BLACK
6
CONTINUOUS
10
0.472435
20
-0.422224
11
0.474763
21
-0.411521
0
LINE
8
BLACK
6
CONTINUOUS
10
0.474763
20
-0.411521
11
0.478591
21
-0.401258
0
LINE
8
BLACK
6
CONTINUOUS
10
0.478591
20
-0.401258
11
0.483841
21
-0.391644
0
LINE
8
BLACK
6
CONTINUOUS
10
0.483841
20
-0.391644
11
0.490405
21
-0.382875
0
LINE
8
BLACK
6
CONTINUOUS
10
0.490405
20
-0.382875
11
0.49815
21
-0.375129
0
LINE
8
BLACK
6
CONTINUOUS
10
0.49815
20
-0.375129
11
0.506919
21
-0.368565
0
LINE
8
BLACK
6
CONTINUOUS
10
0.506919
20
-0.368565
11
0.516533
21
-0.363316
0
LINE
8
BLACK
6
CONTINUOUS
10
0.516533
20
-0.363316
11
0.526796
21
-0.359488
0
LINE
8
BLACK
6
CONTINUOUS
10
0.526796
20
-0.359488
11
0.537499
21
-0.357159
0
LINE
8
BLACK
6
CONTINUOUS
10
0.537499
20
-0.357159
11
0.548425
21
-0.356378
0
LINE
8
BLACK
6
CONTINUOUS
10
0.548425
20
-0.356378
11
0.559351
21
-0.357159
0
LINE
8
BLACK
6
CONTINUOUS
10
2.38301
20
-0.372725
11
2.38557
21
-0.374432
0
LINE
8
BLACK
6
CONTINUOUS
10
2.38557
20
-0.374432
11
2.38727
21
-0.376987
0
LINE
8
BLACK
6
CONTINUOUS
10
2.38727
20
-0.376987
11
2.38787
21
-0.38
0
LINE
8
BLACK
6
CONTINUOUS
10
2.38787
20
-0.38
11
2.38787
21
-0.44
0
LINE
8
BLACK
6
CONTINUOUS
10
2.38787
20
-0.44
11
2.38727
21
-0.443013
0
LINE
8
BLACK
6
CONTINUOUS
10
2.38727
20
-0.443013
11
2.38557
21
-0.445568
0
LINE
8
BLACK
6
CONTINUOUS
10
2.38557
20
-0.445568
11
2.38301
21
-0.447275
0
LINE
8
BLACK
6
CONTINUOUS
10
2.38301
20
-0.447275
11
2.38
21
-0.447874
0
LINE
8
BLACK
6
CONTINUOUS
10
2.38
20
-0.447874
11
2.32
21
-0.447874
0
LINE
8
BLACK
6
CONTINUOUS
10
2.32
20
-0.447874
11
2.31699
21
-0.447275
0
LINE
8
BLACK
6
CONTINUOUS
10
2.31699
20
-0.447275
11
2.31443
21
-0.445568
0
LINE
8
BLACK
6
CONTINUOUS
10
2.31443
20
-0.445568
11
2.31273
21
-0.443013
0
LINE
8
BLACK
6
CONTINUOUS
10
2.31273
20
-0.443013
11
2.31213
21
-0.44
0
LINE
8
BLACK
6
CONTINUOUS
10
2.31213
20
-0.44
11
2.31213
21
-0.38
0
LINE
8
BLACK
6
CONTINUOUS
10
2.31213
20
-0.38
11
2.31273
21
-0.376987
0
LINE
8
BLACK
6
CONTINUOUS
10
2.31273
20
-0.376987
11
2.31443
21
-0.374432
0
LINE
8
BLACK
6
CONTINUOUS
10
2.31443
20
-0.374432
11
2.31699
21
-0.372725
0
LINE
8
BLACK
6
CONTINUOUS
10
2.31699
20
-0.372725
11
2.32
21
-0.372126
0
LINE
8
BLACK
6
CONTINUOUS
10
2.32
20
-0.372126
11
2.38
21
-0.372126
0
LINE
8
BLACK
6
CONTINUOUS
10
2.38
20
-0.372126
11
2.38301
21
-0.372725
0
LINE
8
BLACK
6
CONTINUOUS
10
2.48301
20
-0.372725
11
2.48557
21
-0.374432
0
LINE
8
BLACK
6
CONTINUOUS
10
2.48557
20
-0.374432
11
2.48727
21
-0.376987
0
LINE
8
BLACK
6
CONTINUOUS
10
2.48727
20
-0.376987
11
2.48787
21
-0.38
0
LINE
8
BLACK
6
CONTINUOUS
10
2.48787
20
-0.38
11
2.48787
21
-0.44
0
LINE
8
BLACK
6
CONTINUOUS
10
2.48787
20
-0.44
11
2.48727
21
-0.443013
0
LINE
8
BLACK
6
CONTINUOUS
10
2.48727
20
-0.443013
11
2.48557
21
-0.445568
0
LINE
8
BLACK
6
CONTINUOUS
10
2.48557
20
-0.445568
11
2.48301
21
-0.447275
0
LINE
8
BLACK
6
CONTINUOUS
10
2.48301
20
-0.447275
11
2.48
21
-0.447874
0
LINE
8
BLACK
6
CONTINUOUS
10
2.48
20
-0.447874
11
2.42
21
-0.447874
0
LINE
8
BLACK
6
CONTINUOUS
10
2.42
20
-0.447874
11
2.41699
21
-0.447275
0
LINE
8
BLACK
6
CONTINUOUS
10
2.41699
20
-0.447275
11
2.41443
21
-0.445568
0
LINE
8
BLACK
6
CONTINUOUS
10
2.41443
20
-0.445568
11
2.41273
21
-0.443013
0
LINE
8
BLACK
6
CONTINUOUS
10
2.41273
20
-0.443013
11
2.41213
21
-0.44
0
LINE
8
BLACK
6
CONTINUOUS
10
2.41213
20
-0.44
11
2.41213
21
-0.38
0
LINE
8
BLACK
6
CONTINUOUS
10
2.41213
20
-0.38
11
2.41273
21
-0.376987
0
LINE
8
BLACK
6
CONTINUOUS
10
2.41273
20
-0.376987
11
2.41443
21
-0.374432
0
LINE
8
BLACK
6
CONTINUOUS
10
2.41443
20
-0.374432
11
2.41699
21
-0.372725
0
LINE
8
BLACK
6
CONTINUOUS
10
2.41699
20
-0.372725
11
2.42
21
-0.372126
0
LINE
8
BLACK
6
CONTINUOUS
10
2.42
20
-0.372126
11
2.48
21
-0.372126
0
LINE
8
BLACK
6
CONTINUOUS
10
2.48
20
-0.372126
11
2.48301
21
-0.372725
0
LINE
8
BLACK
6
CONTINUOUS
10
2.38301
20
-0.272725
11
2.38557
21
-0.274432
0
LINE
8
BLACK
6
CONTINUOUS
10
2.38557
20
-0.274432
11
2.38727
21
-0.276987
0
LINE
8
BLACK
6
CONTINUOUS
10
2.38727
20
-0.276987
11
2.38787
21
-0.28
0
LINE
8
BLACK
6
CONTINUOUS
10
2.38787
20
-0.28
11
2.38787
21
-0.34
0
LINE
8
BLACK
6
CONTINUOUS
10
2.38787
20
-0.34
11
2.38727
21
-0.343013
0
LINE
8
BLACK
6
CONTINUOUS
10
2.38727
20
-0.343013
11
2.38557
21
-0.345568
0
LINE
8
BLACK
6
CONTINUOUS
10
2.38557
20
-0.345568
11
2.38301
21
-0.347275
0
LINE
8
BLACK
6
CONTINUOUS
10
2.38301
20
-0.347275
11
2.38
21
-0.347874
0
LINE
8
BLACK
6
CONTINUOUS
10
2.38
20
-0.347874
11
2.32
21
-0.347874
0
LINE
8
BLACK
6
CONTINUOUS
10
2.32
20
-0.347874
11
2.31699
21
-0.347275
0
LINE
8
BLACK
6
CONTINUOUS
10
2.31699
20
-0.347275
11
2.31443
21
-0.345568
0
LINE
8
BLACK
6
CONTINUOUS
10
2.31443
20
-0.345568
11
2.31273
21
-0.343013
0
LINE
8
BLACK
6
CONTINUOUS
10
2.31273
20
-0.343013
11
2.31213
21
-0.34
0
LINE
8
BLACK
6
CONTINUOUS
10
2.31213
20
-0.34
11
2.31213
21
-0.28
0
LINE
8
BLACK
6
CONTINUOUS
10
2.31213
20
-0.28
11
2.31273
21
-0.276987
0
LINE
8
BLACK
6
CONTINUOUS
10
2.31273
20
-0.276987
11
2.31443
21
-0.274432
0
LINE
8
BLACK
6
CONTINUOUS
10
2.31443
20
-0.274432
11
2.31699
21
-0.272725
0
LINE
8
BLACK
6
CONTINUOUS
10
2.31699
20
-0.272725
11
2.32
21
-0.272126
0
LINE
8
BLACK
6
CONTINUOUS
10
2.32
20
-0.272126
11
2.38
21
-0.272126
0
LINE
8
BLACK
6
CONTINUOUS
10
2.38
20
-0.272126
11
2.38301
21
-0.272725
0
LINE
8
BLACK
6
CONTINUOUS
10
2.48301
20
-0.272725
11
2.48557
21
-0.274432
0
LINE
8
BLACK
6
CONTINUOUS
10
2.48557
20
-0.274432
11
2.48727
21
-0.276987
0
LINE
8
BLACK
6
CONTINUOUS
10
2.48727
20
-0.276987
11
2.48787
21
-0.28
0
LINE
8
BLACK
6
CONTINUOUS
10
2.48787
20
-0.28
11
2.48787
21
-0.34
0
LINE
8
BLACK
6
CONTINUOUS
10
2.48787
20
-0.34
11
2.48727
21
-0.343013
0
LINE
8
BLACK
6
CONTINUOUS
10
2.48727
20
-0.343013
11
2.48557
21
-0.345568
0
LINE
8
BLACK
6
CONTINUOUS
10
2.48557
20
-0.345568
11
2.48301
21
-0.347275
0
LINE
8
BLACK
6
CONTINUOUS
10
2.48301
20
-0.347275
11
2.48
21
-0.347874
0
LINE
8
BLACK
6
CONTINUOUS
10
2.48
20
-0.347874
11
2.42
21
-0.347874
0
LINE
8
BLACK
6
CONTINUOUS
10
2.42
20
-0.347874
11
2.41699
21
-0.347275
0
LINE
8
BLACK
6
CONTINUOUS
10
2.41699
20
-0.347275
11
2.41443
21
-0.345568
0
LINE
8
BLACK
6
CONTINUOUS
10
2.41443
20
-0.345568
11
2.41273
21
-0.343013
0
LINE
8
BLACK
6
CONTINUOUS
10
2.41273
20
-0.343013
11
2.41213
21
-0.34
0
LINE
8
BLACK
6
CONTINUOUS
10
2.41213
20
-0.34
11
2.41213
21
-0.28
0
LINE
8
BLACK
6
CONTINUOUS
10
2.41213
20
-0.28
11
2.41273
21
-0.276987
0
LINE
8
BLACK
6
CONTINUOUS
10
2.41273
20
-0.276987
11
2.41443
21
-0.274432
0
LINE
8
BLACK
6
CONTINUOUS
10
2.41443
20
-0.274432
11
2.41699
21
-0.272725
0
LINE
8
BLACK
6
CONTINUOUS
10
2.41699
20
-0.272725
11
2.42
21
-0.272126
0
LINE
8
BLACK
6
CONTINUOUS
10
2.42
20
-0.272126
11
2.48
21
-0.272126
0
LINE
8
BLACK
6
CONTINUOUS
10
2.48
20
-0.272126
11
2.48301
21
-0.272725
0
LINE
8
BLACK
6
CONTINUOUS
10
1.04708
20
-0.197495
11
1.056
21
-0.200556
0
LINE
8
BLACK
6
CONTINUOUS
10
1.056
20
-0.200556
11
1.06429
21
-0.205044
0
LINE
8
BLACK
6
CONTINUOUS
10
1.06429
20
-0.205044
11
1.07173
21
-0.210835
0
LINE
8
BLACK
6
CONTINUOUS
10
1.07173
20
-0.210835
11
1.07812
21
-0.217771
0
LINE
8
BLACK
6
CONTINUOUS
10
1.07812
20
-0.217771
11
1.08328
21
-0.225664
0
LINE
8
BLACK
6
CONTINUOUS
10
1.08328
20
-0.225664
11
1.08706
21
-0.234299
0
LINE
8
BLACK
6
CONTINUOUS
10
1.08706
20
-0.234299
11
1.08938
21
-0.243439
0
LINE
8
BLACK
6
CONTINUOUS
10
1.08938
20
-0.243439
11
1.09016
21
-0.252835
0
LINE
8
BLACK
6
CONTINUOUS
10
1.09016
20
-0.252835
11
1.08938
21
-0.262231
0
LINE
8
BLACK
6
CONTINUOUS
10
1.08938
20
-0.262231
11
1.08706
21
-0.271371
0
LINE
8
BLACK
6
CONTINUOUS
10
1.08706
20
-0.271371
11
1.08328
21
-0.280005
0
LINE
8
BLACK
6
CONTINUOUS
10
1.08328
20
-0.280005
11
1.07812
21
-0.287898
0
LINE
8
BLACK
6
CONTINUOUS
10
1.07812
20
-0.287898
11
1.07173
21
-0.294835
0
LINE
8
BLACK
6
CONTINUOUS
10
1.07173
20
-0.294835
11
1.06429
21
-0.300626
0
LINE
8
BLACK
6
CONTINUOUS
10
1.06429
20
-0.300626
11
1.056
21
-0.305113
0
LINE
8
BLACK
6
CONTINUOUS
10
1.056
20
-0.305113
11
1.04708
21
-0.308174
0
LINE
8
BLACK
6
CONTINUOUS
10
1.04708
20
-0.308174
11
1.03779
21
-0.309726
0
LINE
8
BLACK
6
CONTINUOUS
10
1.03779
20
-0.309726
11
1.02836
21
-0.309726
0
LINE
8
BLACK
6
CONTINUOUS
10
1.02836
20
-0.309726
11
1.01906
21
-0.308174
0
LINE
8
BLACK
6
CONTINUOUS
10
1.01906
20
-0.308174
11
1.01014
21
-0.305113
0
LINE
8
BLACK
6
CONTINUOUS
10
1.01014
20
-0.305113
11
1.00185
21
-0.300626
0
LINE
8
BLACK
6
CONTINUOUS
10
1.00185
20
-0.300626
11
0.994407
21
-0.294835
0
LINE
8
BLACK
6
CONTINUOUS
10
0.994407
20
-0.294835
11
0.988021
21
-0.287898
0
LINE
8
BLACK
6
CONTINUOUS
10
0.988021
20
-0.287898
11
0.982865
21
-0.280005
0
LINE
8
BLACK
6
CONTINUOUS
10
0.982865
20
-0.280005
11
0.979077
21
-0.271371
0
LINE
8
BLACK
6
CONTINUOUS
10
0.979077
20
-0.271371
11
0.976763
21
-0.262231
0
LINE
8
BLACK
6
CONTINUOUS
10
0.976763
20
-0.262231
11
0.975984
21
-0.252835
0
LINE
8
BLACK
6
CONTINUOUS
10
0.975984
20
-0.252835
11
0.976763
21
-0.243439
0
LINE
8
BLACK
6
CONTINUOUS
10
0.976763
20
-0.243439
11
0.979077
21
-0.234299
0
LINE
8
BLACK
6
CONTINUOUS
10
0.979077
20
-0.234299
11
0.982865
21
-0.225664
0
LINE
8
BLACK
6
CONTINUOUS
10
0.982865
20
-0.225664
11
0.988021
21
-0.217771
0
LINE
8
BLACK
6
CONTINUOUS
10
0.988021
20
-0.217771
11
0.994407
21
-0.210835
0
LINE
8
BLACK
6
CONTINUOUS
10
0.994407
20
-0.210835
11
1.00185
21
-0.205044
0
LINE
8
BLACK
6
CONTINUOUS
10
1.00185
20
-0.205044
11
1.01014
21
-0.200556
0
LINE
8
BLACK
6
CONTINUOUS
10
1.01014
20
-0.200556
11
1.01906
21
-0.197495
0
LINE
8
BLACK
6
CONTINUOUS
10
1.01906
20
-0.197495
11
1.02836
21
-0.195943
0
LINE
8
BLACK
6
CONTINUOUS
10
1.02836
20
-0.195943
11
1.03779
21
-0.195943
0
LINE
8
BLACK
6
CONTINUOUS
10
1.03779
20
-0.195943
11
1.04708
21
-0.197495
0
LINE
8
BLACK
6
CONTINUOUS
10
0.0141057
20
0.125192
11
0.0280341
21
0.122826
0
LINE
8
BLACK
6
CONTINUOUS
10
0.0280341
20
0.122826
11
0.04161
21
0.118914
0
LINE
8
BLACK
6
CONTINUOUS
10
0.04161
20
0.118914
11
0.0546625
21
0.113508
0
LINE
8
BLACK
6
CONTINUOUS
10
0.0546625
20
0.113508
11
0.0670277
21
0.106674
0
LINE
8
BLACK
6
CONTINUOUS
10
0.0670277
20
0.106674
11
0.0785499
21
0.0984985
0
LINE
8
BLACK
6
CONTINUOUS
10
0.0785499
20
0.0984985
11
0.0890843
21
0.0890843
0
LINE
8
BLACK
6
CONTINUOUS
10
0.0890843
20
0.0890843
11
0.0984985
21
0.0785499
0
LINE
8
BLACK
6
CONTINUOUS
10
0.0984985
20
0.0785499
11
0.106674
21
0.0670277
0
LINE
8
BLACK
6
CONTINUOUS
10
0.106674
20
0.0670277
11
0.113508
21
0.0546625
0
LINE
8
BLACK
6
CONTINUOUS
10
0.113508
20
0.0546625
11
0.118914
21
0.04161
0
LINE
8
BLACK
6
CONTINUOUS
10
0.118914
20
0.04161
11
0.122826
21
0.0280341
0
LINE
8
BLACK
6
CONTINUOUS
10
0.122826
20
0.0280341
11
0.125192
21
0.0141057
0
LINE
8
BLACK
6
CONTINUOUS
10
0.125192
20
0.0141057
11
0.125984
21
0
0
LINE
8
BLACK
6
CONTINUOUS
10
0.125984
20
0
11
0.125192
21
-0.0141057
0
LINE
8
BLACK
6
CONTINUOUS
10
0.125192
20
-0.0141057
11
0.122826
21
-0.0280341
0
LINE
8
BLACK
6
CONTINUOUS
10
0.122826
20
-0.0280341
11
0.118914
21
-0.04161
0
LINE
8
BLACK
6
CONTINUOUS
10
0.118914
20
-0.04161
11
0.113508
21
-0.0546625
0
LINE
8
BLACK
6
CONTINUOUS
10
0.113508
20
-0.0546625
11
0.106674
21
-0.0670277
0
LINE
8
BLACK
6
CONTINUOUS
10
0.106674
20
-0.0670277
11
0.0984985
21
-0.0785499
0
LINE
8
BLACK
6
CONTINUOUS
10
0.0984985
20
-0.0785499
11
0.0890843
21
-0.0890843
0
LINE
8
BLACK
6
CONTINUOUS
10
0.0890843
20
-0.0890843
11
0.0785499
21
-0.0984985
0
LINE
8
BLACK
6
CONTINUOUS
10
0.0785499
20
-0.0984985
11
0.0670277
21
-0.106674
0
LINE
8
BLACK
6
CONTINUOUS
10
0.0670277
20
-0.106674
11
0.0546625
21
-0.113508
0
LINE
8
BLACK
6
CONTINUOUS
10
0.0546625
20
-0.113508
11
0.04161
21
-0.118914
0
LINE
8
BLACK
6
CONTINUOUS
10
0.04161
20
-0.118914
11
0.0280341
21
-0.122826
0
LINE
8
BLACK
6
CONTINUOUS
10
0.0280341
20
-0.122826
11
0.0141057
21
-0.125192
0
LINE
8
BLACK
6
CONTINUOUS
10
0.0141057
20
-0.125192
11
0
21
-0.125984
0
LINE
8
BLACK
6
CONTINUOUS
10
0
20
-0.125984
11
-0.0141057
21
-0.125192
0
LINE
8
BLACK
6
CONTINUOUS
10
-0.0141057
20
-0.125192
11
-0.0280341
21
-0.122826
0
LINE
8
BLACK
6
CONTINUOUS
10
-0.0280341
20
-0.122826
11
-0.04161
21
-0.118914
0
LINE
8
BLACK
6
CONTINUOUS
10
-0.04161
20
-0.118914
11
-0.0546625
21
-0.113508
0
LINE
8
BLACK
6
CONTINUOUS
10
-0.0546625
20
-0.113508
11
-0.0670277
21
-0.106674
0
LINE
8
BLACK
6
CONTINUOUS
10
-0.0670277
20
-0.106674
11
-0.0785499
21
-0.0984985
0
LINE
8
BLACK
6
CONTINUOUS
10
-0.0785499
20
-0.0984985
11
-0.0890843
21
-0.0890843
0
LINE
8
BLACK
6
CONTINUOUS
10
-0.0890843
20
-0.0890843
11
-0.0984985
21
-0.0785499
0
LINE
8
BLACK
6
CONTINUOUS
10
-0.0984985
20
-0.0785499
11
-0.106674
21
-0.0670277
0
LINE
8
BLACK
6
CONTINUOUS
10
-0.106674
20
-0.0670277
11
-0.113508
21
-0.0546625
0
LINE
8
BLACK
6
CONTINUOUS
10
-0.113508
20
-0.0546625
11
-0.118914
21
-0.04161
0
LINE
8
BLACK
6
CONTINUOUS
10
-0.118914
20
-0.04161
11
-0.122826
21
-0.0280341
0
LINE
8
BLACK
6
CONTINUOUS
10
-0.122826
20
-0.0280341
11
-0.125192
21
-0.0141057
0
LINE
8
BLACK
6
CONTINUOUS
10
-0.125192
20
-0.0141057
11
-0.125984
21
0
0
LINE
8
BLACK
6
CONTINUOUS
10
-0.125984
20
0
11
-0.125192
21
0.0141057
0
LINE
8
BLACK
6
CONTINUOUS
10
-0.125192
20
0.0141057
11
-0.122826
21
0.0280341
0
LINE
8
BLACK
6
CONTINUOUS
10
-0.122826
20
0.0280341
11
-0.118914
21
0.04161
0
LINE
8
BLACK
6
CONTINUOUS
10
-0.118914
20
0.04161
11
-0.113508
21
0.0546625
0
LINE
8
BLACK
6
CONTINUOUS
10
-0.113508
20
0.0546625
11
-0.106674
21
0.0670277
0
LINE
8
BLACK
6
CONTINUOUS
10
-0.106674
20
0.0670277
11
-0.0984985
21
0.0785499
0
LINE
8
BLACK
6
CONTINUOUS
10
-0.0984985
20
0.0785499
11
-0.0890843
21
0.0890843
0
LINE
8
BLACK
6
CONTINUOUS
10
-0.0890843
20
0.0890843
11
-0.0785499
21
0.0984985
0
LINE
8
BLACK
6
CONTINUOUS
10
-0.0785499
20
0.0984985
11
-0.0670277
21
0.106674
0
LINE
8
BLACK
6
CONTINUOUS
10
-0.0670277
20
0.106674
11
-0.0546625
21
0.113508
0
LINE
8
BLACK
6
CONTINUOUS
10
-0.0546625
20
0.113508
11
-0.04161
21
0.118914
0
LINE
8
BLACK
6
CONTINUOUS
10
-0.04161
20
0.118914
11
-0.0280341
21
0.122826
0
LINE
8
BLACK
6
CONTINUOUS
10
-0.0280341
20
0.122826
11
-0.0141057
21
0.125192
0
LINE
8
BLACK
6
CONTINUOUS
10
-0.0141057
20
0.125192
11
0
21
0.125984
0
LINE
8
BLACK
6
CONTINUOUS
10
0
20
0.125984
11
0.0141057
21
0.125192
0
LINE
8
BLACK
6
CONTINUOUS
10
2.41411
20
0.125192
11
2.42803
21
0.122826
0
LINE
8
BLACK
6
CONTINUOUS
10
2.42803
20
0.122826
11
2.44161
21
0.118914
0
LINE
8
BLACK
6
CONTINUOUS
10
2.44161
20
0.118914
11
2.45466
21
0.113508
0
LINE
8
BLACK
6
CONTINUOUS
10
2.45466
20
0.113508
11
2.46703
21
0.106674
0
LINE
8
BLACK
6
CONTINUOUS
10
2.46703
20
0.106674
11
2.47855
21
0.0984985
0
LINE
8
BLACK
6
CONTINUOUS
10
2.47855
20
0.0984985
11
2.48908
21
0.0890843
0
LINE
8
BLACK
6
CONTINUOUS
10
2.48908
20
0.0890843
11
2.4985
21
0.0785499
0
LINE
8
BLACK
6
CONTINUOUS
10
2.4985
20
0.0785499
11
2.50667
21
0.0670277
0
LINE
8
BLACK
6
CONTINUOUS
10
2.50667
20
0.0670277
11
2.51351
21
0.0546625
0
LINE
8
BLACK
6
CONTINUOUS
10
2.51351
20
0.0546625
11
2.51891
21
0.04161
0
LINE
8
BLACK
6
CONTINUOUS
10
2.51891
20
0.04161
11
2.52283
21
0.0280341
0
LINE
8
BLACK
6
CONTINUOUS
10
2.52283
20
0.0280341
11
2.52519
21
0.0141057
0
LINE
8
BLACK
6
CONTINUOUS
10
2.52519
20
0.0141057
11
2.52598
21
0
0
LINE
8
BLACK
6
CONTINUOUS
10
2.52598
20
0
11
2.52519
21
-0.0141057
0
LINE
8
BLACK
6
CONTINUOUS
10
2.52519
20
-0.0141057
11
2.52283
21
-0.0280341
0
LINE
8
BLACK
6
CONTINUOUS
10
2.52283
20
-0.0280341
11
2.51891
21
-0.04161
0
LINE
8
BLACK
6
CONTINUOUS
10
2.51891
20
-0.04161
11
2.51351
21
-0.0546625
0
LINE
8
BLACK
6
CONTINUOUS
10
2.51351
20
-0.0546625
11
2.50667
21
-0.0670277
0
LINE
8
BLACK
6
CONTINUOUS
10
2.50667
20
-0.0670277
11
2.4985
21
-0.0785499
0
LINE
8
BLACK
6
CONTINUOUS
10
2.4985
20
-0.0785499
11
2.48908
21
-0.0890843
0
LINE
8
BLACK
6
CONTINUOUS
10
2.48908
20
-0.0890843
11
2.47855
21
-0.0984985
0
LINE
8
BLACK
6
CONTINUOUS
10
2.47855
20
-0.0984985
11
2.46703
21
-0.106674
0
LINE
8
BLACK
6
CONTINUOUS
10
2.46703
20
-0.106674
11
2.45466
21
-0.113508
0
LINE
8
BLACK
6
CONTINUOUS
10
2.45466
20
-0.113508
11
2.44161
21
-0.118914
0
LINE
8
BLACK
6
CONTINUOUS
10
2.44161
20
-0.118914
11
2.42803
21
-0.122826
0
LINE
8
BLACK
6
CONTINUOUS
10
2.42803
20
-0.122826
11
2.41411
21
-0.125192
0
LINE
8
BLACK
6
CONTINUOUS
10
2.41411
20
-0.125192
11
2.4
21
-0.125984
0
LINE
8
BLACK
6
CONTINUOUS
10
2.4
20
-0.125984
11
2.38589
21
-0.125192
0
LINE
8
BLACK
6
CONTINUOUS
10
2.38589
20
-0.125192
11
2.37197
21
-0.122826
0
LINE
8
BLACK
6
CONTINUOUS
10
2.37197
20
-0.122826
11
2.35839
21
-0.118914
0
LINE
8
BLACK
6
CONTINUOUS
10
2.35839
20
-0.118914
11
2.34534
21
-0.113508
0
LINE
8
BLACK
6
CONTINUOUS
10
2.34534
20
-0.113508
11
2.33297
21
-0.106674
0
LINE
8
BLACK
6
CONTINUOUS
10
2.33297
20
-0.106674
11
2.32145
21
-0.0984985
0
LINE
8
BLACK
6
CONTINUOUS
10
2.32145
20
-0.0984985
11
2.31092
21
-0.0890843
0
LINE
8
BLACK
6
CONTINUOUS
10
2.31092
20
-0.0890843
11
2.3015
21
-0.0785499
0
LINE
8
BLACK
6
CONTINUOUS
10
2.3015
20
-0.0785499
11
2.29333
21
-0.0670277
0
LINE
8
BLACK
6
CONTINUOUS
10
2.29333
20
-0.0670277
11
2.28649
21
-0.0546625
0
LINE
8
BLACK
6
CONTINUOUS
10
2.28649
20
-0.0546625
11
2.28109
21
-0.04161
0
LINE
8
BLACK
6
CONTINUOUS
10
2.28109
20
-0.04161
11
2.27717
21
-0.0280341
0
LINE
8
BLACK
6
CONTINUOUS
10
2.27717
20
-0.0280341
11
2.27481
21
-0.0141057
0
LINE
8
BLACK
6
CONTINUOUS
10
2.27481
20
-0.0141057
11
2.27402
21
0
0
LINE
8
BLACK
6
CONTINUOUS
10
2.27402
20
0
11
2.27481
21
0.0141057
0
LINE
8
BLACK
6
CONTINUOUS
10
2.27481
20
0.0141057
11
2.27717
21
0.0280341
0
LINE
8
BLACK
6
CONTINUOUS
10
2.27717
20
0.0280341
11
2.28109
21
0.04161
0
LINE
8
BLACK
6
CONTINUOUS
10
2.28109
20
0.04161
11
2.28649
21
0.0546625
0
LINE
8
BLACK
6
CONTINUOUS
10
2.28649
20
0.0546625
11
2.29333
21
0.0670277
0
LINE
8
BLACK
6
CONTINUOUS
10
2.29333
20
0.0670277
11
2.3015
21
0.0785499
0
LINE
8
BLACK
6
CONTINUOUS
10
2.3015
20
0.0785499
11
2.31092
21
0.0890843
0
LINE
8
BLACK
6
CONTINUOUS
10
2.31092
20
0.0890843
11
2.32145
21
0.0984985
0
LINE
8
BLACK
6
CONTINUOUS
10
2.32145
20
0.0984985
11
2.33297
21
0.106674
0
LINE
8
BLACK
6
CONTINUOUS
10
2.33297
20
0.106674
11
2.34534
21
0.113508
0
LINE
8
BLACK
6
CONTINUOUS
10
2.34534
20
0.113508
11
2.35839
21
0.118914
0
LINE
8
BLACK
6
CONTINUOUS
10
2.35839
20
0.118914
11
2.37197
21
0.122826
0
LINE
8
BLACK
6
CONTINUOUS
10
2.37197
20
0.122826
11
2.38589
21
0.125192
0
LINE
8
BLACK
6
CONTINUOUS
10
2.38589
20
0.125192
11
2.4
21
0.125984
0
LINE
8
BLACK
6
CONTINUOUS
10
2.4
20
0.125984
11
2.41411
21
0.125192
0
LINE
8
BLACK
6
CONTINUOUS
10
0.263013
20
-0.00272535
11
0.265568
21
-0.00443224
0
LINE
8
BLACK
6
CONTINUOUS
10
0.265568
20
-0.00443224
11
0.267275
21
-0.00698673
0
LINE
8
BLACK
6
CONTINUOUS
10
0.267275
20
-0.00698673
11
0.267874
21
-0.01
0
LINE
8
BLACK
6
CONTINUOUS
10
0.267874
20
-0.01
11
0.267874
21
-0.07
0
LINE
8
BLACK
6
CONTINUOUS
10
0.267874
20
-0.07
11
0.267275
21
-0.0730133
0
LINE
8
BLACK
6
CONTINUOUS
10
0.267275
20
-0.0730133
11
0.265568
21
-0.0755678
0
LINE
8
BLACK
6
CONTINUOUS
10
0.265568
20
-0.0755678
11
0.263013
21
-0.0772746
0
LINE
8
BLACK
6
CONTINUOUS
10
0.263013
20
-0.0772746
11
0.26
21
-0.077874
0
LINE
8
BLACK
6
CONTINUOUS
10
0.26
20
-0.077874
11
0.2
21
-0.077874
0
LINE
8
BLACK
6
CONTINUOUS
10
0.2
20
-0.077874
11
0.196987
21
-0.0772746
0
LINE
8
BLACK
6
CONTINUOUS
10
0.196987
20
-0.0772746
11
0.194432
21
-0.0755678
0
LINE
8
BLACK
6
CONTINUOUS
10
0.194432
20
-0.0755678
11
0.192725
21
-0.0730133
0
LINE
8
BLACK
6
CONTINUOUS
10
0.192725
20
-0.0730133
11
0.192126
21
-0.07
0
LINE
8
BLACK
6
CONTINUOUS
10
0.192126
20
-0.07
11
0.192126
21
-0.01
0
LINE
8
BLACK
6
CONTINUOUS
10
0.192126
20
-0.01
11
0.192725
21
-0.00698673
0
LINE
8
BLACK
6
CONTINUOUS
10
0.192725
20
-0.00698673
11
0.194432
21
-0.00443224
0
LINE
8
BLACK
6
CONTINUOUS
10
0.194432
20
-0.00443224
11
0.196987
21
-0.00272535
0
LINE
8
BLACK
6
CONTINUOUS
10
0.196987
20
-0.00272535
11
0.2
21
-0.00212598
0
LINE
8
BLACK
6
CONTINUOUS
10
0.2
20
-0.00212598
11
0.26
21
-0.00212598
0
LINE
8
BLACK
6
CONTINUOUS
10
0.26
20
-0.00212598
11
0.263013
21
-0.00272535
0
LINE
8
BLACK
6
CONTINUOUS
10
0.493013
20
-0.00272535
11
0.495568
21
-0.00443224
0
LINE
8
BLACK
6
CONTINUOUS
10
0.495568
20
-0.00443224
11
0.497275
21
-0.00698673
0
LINE
8
BLACK
6
CONTINUOUS
10
0.497275
20
-0.00698673
11
0.497874
21
-0.01
0
LINE
8
BLACK
6
CONTINUOUS
10
0.497874
20
-0.01
11
0.497874
21
-0.07
0
LINE
8
BLACK
6
CONTINUOUS
10
0.497874
20
-0.07
11
0.497275
21
-0.0730133
0
LINE
8
BLACK
6
CONTINUOUS
10
0.497275
20
-0.0730133
11
0.495568
21
-0.0755678
0
LINE
8
BLACK
6
CONTINUOUS
10
0.495568
20
-0.0755678
11
0.493013
21
-0.0772746
0
LINE
8
BLACK
6
CONTINUOUS
10
0.493013
20
-0.0772746
11
0.49
21
-0.077874
0
LINE
8
BLACK
6
CONTINUOUS
10
0.49
20
-0.077874
11
0.43
21
-0.077874
0
LINE
8
BLACK
6
CONTINUOUS
10
0.43
20
-0.077874
11
0.426987
21
-0.0772746
0
LINE
8
BLACK
6
CONTINUOUS
10
0.426987
20
-0.0772746
11
0.424432
21
-0.0755678
0
LINE
8
BLACK
6
CONTINUOUS
10
0.424432
20
-0.0755678
11
0.422725
21
-0.0730133
0
LINE
8
BLACK
6
CONTINUOUS
10
0.422725
20
-0.0730133
11
0.422126
21
-0.07
0
LINE
8
BLACK
6
CONTINUOUS
10
0.422126
20
-0.07
11
0.422126
21
-0.01
0
LINE
8
BLACK
6
CONTINUOUS
10
0.422126
20
-0.01
11
0.422725
21
-0.00698673
0
LINE
8
BLACK
6
CONTINUOUS
10
0.422725
20
-0.00698673
11
0.424432
21
-0.00443224
0
LINE
8
BLACK
6
CONTINUOUS
10
0.424432
20
-0.00443224
11
0.426987
21
-0.00272535
0
LINE
8
BLACK
6
CONTINUOUS
10
0.426987
20
-0.00272535
11
0.43
21
-0.00212598
0
LINE
8
BLACK
6
CONTINUOUS
10
0.43
20
-0.00212598
11
0.49
21
-0.00212598
0
LINE
8
BLACK
6
CONTINUOUS
10
0.49
20
-0.00212598
11
0.493013
21
-0.00272535
0
LINE
8
BLACK
6
CONTINUOUS
10
0.593013
20
-0.00272535
11
0.595568
21
-0.00443224
0
LINE
8
BLACK
6
CONTINUOUS
10
0.595568
20
-0.00443224
11
0.597275
21
-0.00698673
0
LINE
8
BLACK
6
CONTINUOUS
10
0.597275
20
-0.00698673
11
0.597874
21
-0.01
0
LINE
8
BLACK
6
CONTINUOUS
10
0.597874
20
-0.01
11
0.597874
21
-0.07
0
LINE
8
BLACK
6
CONTINUOUS
10
0.597874
20
-0.07
11
0.597275
21
-0.0730133
0
LINE
8
BLACK
6
CONTINUOUS
10
0.597275
20
-0.0730133
11
0.595568
21
-0.0755678
0
LINE
8
BLACK
6
CONTINUOUS
10
0.595568
20
-0.0755678
11
0.593013
21
-0.0772746
0
LINE
8
BLACK
6
CONTINUOUS
10
0.593013
20
-0.0772746
11
0.59
21
-0.077874
0
LINE
8
BLACK
6
CONTINUOUS
10
0.59
20
-0.077874
11
0.53
21
-0.077874
0
LINE
8
BLACK
6
CONTINUOUS
10
0.53
20
-0.077874
11
0.526987
21
-0.0772746
0
LINE
8
BLACK
6
CONTINUOUS
10
0.526987
20
-0.0772746
11
0.524432
21
-0.0755678
0
LINE
8
BLACK
6
CONTINUOUS
10
0.524432
20
-0.0755678
11
0.522725
21
-0.0730133
0
LINE
8
BLACK
6
CONTINUOUS
10
0.522725
20
-0.0730133
11
0.522126
21
-0.07
0
LINE
8
BLACK
6
CONTINUOUS
10
0.522126
20
-0.07
11
0.522126
21
-0.01
0
LINE
8
BLACK
6
CONTINUOUS
10
0.522126
20
-0.01
11
0.522725
21
-0.00698673
0
LINE
8
BLACK
6
CONTINUOUS
10
0.522725
20
-0.00698673
11
0.524432
21
-0.00443224
0
LINE
8
BLACK
6
CONTINUOUS
10
0.524432
20
-0.00443224
11
0.526987
21
-0.00272535
0
LINE
8
BLACK
6
CONTINUOUS
10
0.526987
20
-0.00272535
11
0.53
21
-0.00212598
0
LINE
8
BLACK
6
CONTINUOUS
10
0.53
20
-0.00212598
11
0.59
21
-0.00212598
0
LINE
8
BLACK
6
CONTINUOUS
10
0.59
20
-0.00212598
11
0.593013
21
-0.00272535
0
LINE
8
BLACK
6
CONTINUOUS
10
0.693013
20
-0.00272535
11
0.695568
21
-0.00443224
0
LINE
8
BLACK
6
CONTINUOUS
10
0.695568
20
-0.00443224
11
0.697275
21
-0.00698673
0
LINE
8
BLACK
6
CONTINUOUS
10
0.697275
20
-0.00698673
11
0.697874
21
-0.01
0
LINE
8
BLACK
6
CONTINUOUS
10
0.697874
20
-0.01
11
0.697874
21
-0.07
0
LINE
8
BLACK
6
CONTINUOUS
10
0.697874
20
-0.07
11
0.697275
21
-0.0730133
0
LINE
8
BLACK
6
CONTINUOUS
10
0.697275
20
-0.0730133
11
0.695568
21
-0.0755678
0
LINE
8
BLACK
6
CONTINUOUS
10
0.695568
20
-0.0755678
11
0.693013
21
-0.0772746
0
LINE
8
BLACK
6
CONTINUOUS
10
0.693013
20
-0.0772746
11
0.69
21
-0.077874
0
LINE
8
BLACK
6
CONTINUOUS
10
0.69
20
-0.077874
11
0.63
21
-0.077874
0
LINE
8
BLACK
6
CONTINUOUS
10
0.63
20
-0.077874
11
0.626987
21
-0.0772746
0
LINE
8
BLACK
6
CONTINUOUS
10
0.626987
20
-0.0772746
11
0.624432
21
-0.0755678
0
LINE
8
BLACK
6
CONTINUOUS
10
0.624432
20
-0.0755678
11
0.622725
21
-0.0730133
0
LINE
8
BLACK
6
CONTINUOUS
10
0.622725
20
-0.0730133
11
0.622126
21
-0.07
0
LINE
8
BLACK
6
CONTINUOUS
10
0.622126
20
-0.07
11
0.622126
21
-0.01
0
LINE
8
BLACK
6
CONTINUOUS
10
0.622126
20
-0.01
11
0.622725
21
-0.00698673
0
LINE
8
BLACK
6
CONTINUOUS
10
0.622725
20
-0.00698673
11
0.624432
21
-0.00443224
0
LINE
8
BLACK
6
CONTINUOUS
10
0.624432
20
-0.00443224
11
0.626987
21
-0.00272535
0
LINE
8
BLACK
6
CONTINUOUS
10
0.626987
20
-0.00272535
11
0.63
21
-0.00212598
0
LINE
8
BLACK
6
CONTINUOUS
10
0.63
20
-0.00212598
11
0.69
21
-0.00212598
0
LINE
8
BLACK
6
CONTINUOUS
10
0.69
20
-0.00212598
11
0.693013
21
-0.00272535
0
LINE
8
BLACK
6
CONTINUOUS
10
0.793013
20
-0.00272535
11
0.795568
21
-0.00443224
0
LINE
8
BLACK
6
CONTINUOUS
10
0.795568
20
-0.00443224
11
0.797275
21
-0.00698673
0
LINE
8
BLACK
6
CONTINUOUS
10
0.797275
20
-0.00698673
11
0.797874
21
-0.01
0
LINE
8
BLACK
6
CONTINUOUS
10
0.797874
20
-0.01
11
0.797874
21
-0.07
0
LINE
8
BLACK
6
CONTINUOUS
10
0.797874
20
-0.07
11
0.797275
21
-0.0730133
0
LINE
8
BLACK
6
CONTINUOUS
10
0.797275
20
-0.0730133
11
0.795568
21
-0.0755678
0
LINE
8
BLACK
6
CONTINUOUS
10
0.795568
20
-0.0755678
11
0.793013
21
-0.0772746
0
LINE
8
BLACK
6
CONTINUOUS
10
0.793013
20
-0.0772746
11
0.79
21
-0.077874
0
LINE
8
BLACK
6
CONTINUOUS
10
0.79
20
-0.077874
11
0.73
21
-0.077874
0
LINE
8
BLACK
6
CONTINUOUS
10
0.73
20
-0.077874
11
0.726987
21
-0.0772746
0
LINE
8
BLACK
6
CONTINUOUS
10
0.726987
20
-0.0772746
11
0.724432
21
-0.0755678
0
LINE
8
BLACK
6
CONTINUOUS
10
0.724432
20
-0.0755678
11
0.722725
21
-0.0730133
0
LINE
8
BLACK
6
CONTINUOUS
10
0.722725
20
-0.0730133
11
0.722126
21
-0.07
0
LINE
8
BLACK
6
CONTINUOUS
10
0.722126
20
-0.07
11
0.722126
21
-0.01
0
LINE
8
BLACK
6
CONTINUOUS
10
0.722126
20
-0.01
11
0.722725
21
-0.00698673
0
LINE
8
BLACK
6
CONTINUOUS
10
0.722725
20
-0.00698673
11
0.724432
21
-0.00443224
0
LINE
8
BLACK
6
CONTINUOUS
10
0.724432
20
-0.00443224
11
0.726987
21
-0.00272535
0
LINE
8
BLACK
6
CONTINUOUS
10
0.726987
20
-0.00272535
11
0.73
21
-0.00212598
0
LINE
8
BLACK
6
CONTINUOUS
10
0.73
20
-0.00212598
11
0.79
21
-0.00212598
0
LINE
8
BLACK
6
CONTINUOUS
10
0.79
20
-0.00212598
11
0.793013
21
-0.00272535
0
LINE
8
BLACK
6
CONTINUOUS
10
0.893013
20
-0.00272535
11
0.895568
21
-0.00443224
0
LINE
8
BLACK
6
CONTINUOUS
10
0.895568
20
-0.00443224
11
0.897275
21
-0.00698673
0
LINE
8
BLACK
6
CONTINUOUS
10
0.897275
20
-0.00698673
11
0.897874
21
-0.01
0
LINE
8
BLACK
6
CONTINUOUS
10
0.897874
20
-0.01
11
0.897874
21
-0.07
0
LINE
8
BLACK
6
CONTINUOUS
10
0.897874
20
-0.07
11
0.897275
21
-0.0730133
0
LINE
8
BLACK
6
CONTINUOUS
10
0.897275
20
-0.0730133
11
0.895568
21
-0.0755678
0
LINE
8
BLACK
6
CONTINUOUS
10
0.895568
20
-0.0755678
11
0.893013
21
-0.0772746
0
LINE
8
BLACK
6
CONTINUOUS
10
0.893013
20
-0.0772746
11
0.89
21
-0.077874
0
LINE
8
BLACK
6
CONTINUOUS
10
0.89
20
-0.077874
11
0.83
21
-0.077874
0
LINE
8
BLACK
6
CONTINUOUS
10
0.83
20
-0.077874
11
0.826987
21
-0.0772746
0
LINE
8
BLACK
6
CONTINUOUS
10
0.826987
20
-0.0772746
11
0.824432
21
-0.0755678
0
LINE
8
BLACK
6
CONTINUOUS
10
0.824432
20
-0.0755678
11
0.822725
21
-0.0730133
0
LINE
8
BLACK
6
CONTINUOUS
10
0.822725
20
-0.0730133
11
0.822126
21
-0.07
0
LINE
8
BLACK
6
CONTINUOUS
10
0.822126
20
-0.07
11
0.822126
21
-0.01
0
LINE
8
BLACK
6
CONTINUOUS
10
0.822126
20
-0.01
11
0.822725
21
-0.00698673
0
LINE
8
BLACK
6
CONTINUOUS
10
0.822725
20
-0.00698673
11
0.824432
21
-0.00443224
0
LINE
8
BLACK
6
CONTINUOUS
10
0.824432
20
-0.00443224
11
0.826987
21
-0.00272535
0
LINE
8
BLACK
6
CONTINUOUS
10
0.826987
20
-0.00272535
11
0.83
21
-0.00212598
0
LINE
8
BLACK
6
CONTINUOUS
10
0.83
20
-0.00212598
11
0.89
21
-0.00212598
0
LINE
8
BLACK
6
CONTINUOUS
10
0.89
20
-0.00212598
11
0.893013
21
-0.00272535
0
LINE
8
BLACK
6
CONTINUOUS
10
0.999546
20
0.0702723
11
1.00886
21
0.0680369
0
LINE
8
BLACK
6
CONTINUOUS
10
1.00886
20
0.0680369
11
1.0177
21
0.0643724
0
LINE
8
BLACK
6
CONTINUOUS
10
1.0177
20
0.0643724
11
1.02587
21
0.0593691
0
LINE
8
BLACK
6
CONTINUOUS
10
1.02587
20
0.0593691
11
1.03315
21
0.0531502
0
LINE
8
BLACK
6
CONTINUOUS
10
1.03315
20
0.0531502
11
1.03937
21
0.0458688
0
LINE
8
BLACK
6
CONTINUOUS
10
1.03937
20
0.0458688
11
1.04437
21
0.0377041
0
LINE
8
BLACK
6
CONTINUOUS
10
1.04437
20
0.0377041
11
1.04804
21
0.0288573
0
LINE
8
BLACK
6
CONTINUOUS
10
1.04804
20
0.0288573
11
1.05027
21
0.0195462
0
LINE
8
BLACK
6
CONTINUOUS
10
1.05027
20
0.0195462
11
1.05102
21
0.01
0
LINE
8
BLACK
6
CONTINUOUS
10
1.05102
20
0.01
11
1.05027
21
0.000453819
0
LINE
8
BLACK
6
CONTINUOUS
10
1.05027
20
0.000453819
11
1.04804
21
-0.00885732
0
LINE
8
BLACK
6
CONTINUOUS
10
1.04804
20
-0.00885732
11
1.04437
21
-0.0177041
0
LINE
8
BLACK
6
CONTINUOUS
10
1.04437
20
-0.0177041
11
1.03937
21
-0.0258688
0
LINE
8
BLACK
6
CONTINUOUS
10
1.03937
20
-0.0258688
11
1.03315
21
-0.0331502
0
LINE
8
BLACK
6
CONTINUOUS
10
1.03315
20
-0.0331502
11
1.02587
21
-0.0393691
0
LINE
8
BLACK
6
CONTINUOUS
10
1.02587
20
-0.0393691
11
1.0177
21
-0.0443724
0
LINE
8
BLACK
6
CONTINUOUS
10
1.0177
20
-0.0443724
11
1.00886
21
-0.0480369
0
LINE
8
BLACK
6
CONTINUOUS
10
1.00886
20
-0.0480369
11
0.999546
21
-0.0502723
0
LINE
8
BLACK
6
CONTINUOUS
10
0.999546
20
-0.0502723
11
0.99
21
-0.0510236
0
LINE
8
BLACK
6
CONTINUOUS
10
0.99
20
-0.0510236
11
0.980454
21
-0.0502723
0
LINE
8
BLACK
6
CONTINUOUS
10
0.980454
20
-0.0502723
11
0.971143
21
-0.0480369
0
LINE
8
BLACK
6
CONTINUOUS
10
0.971143
20
-0.0480369
11
0.962296
21
-0.0443724
0
LINE
8
BLACK
6
CONTINUOUS
10
0.962296
20
-0.0443724
11
0.954131
21
-0.0393691
0
LINE
8
BLACK
6
CONTINUOUS
10
0.954131
20
-0.0393691
11
0.94685
21
-0.0331502
0
LINE
8
BLACK
6
CONTINUOUS
10
0.94685
20
-0.0331502
11
0.940631
21
-0.0258688
0
LINE
8
BLACK
6
CONTINUOUS
10
0.940631
20
-0.0258688
11
0.935628
21
-0.0177041
0
LINE
8
BLACK
6
CONTINUOUS
10
0.935628
20
-0.0177041
11
0.931963
21
-0.00885732
0
LINE
8
BLACK
6
CONTINUOUS
10
0.931963
20
-0.00885732
11
0.929728
21
0.000453819
0
LINE
8
BLACK
6
CONTINUOUS
10
0.929728
20
0.000453819
11
0.928976
21
0.01
0
LINE
8
BLACK
6
CONTINUOUS
10
0.928976
20
0.01
11
0.929728
21
0.0195462
0
LINE
8
BLACK
6
CONTINUOUS
10
0.929728
20
0.0195462
11
0.931963
21
0.0288573
0
LINE
8
BLACK
6
CONTINUOUS
10
0.931963
20
0.0288573
11
0.935628
21
0.0377041
0
LINE
8
BLACK
6
CONTINUOUS
10
0.935628
20
0.0377041
11
0.940631
21
0.0458688
0
LINE
8
BLACK
6
CONTINUOUS
10
0.940631
20
0.0458688
11
0.94685
21
0.0531502
0
LINE
8
BLACK
6
CONTINUOUS
10
0.94685
20
0.0531502
11
0.954131
21
0.0593691
0
LINE
8
BLACK
6
CONTINUOUS
10
0.954131
20
0.0593691
11
0.962296
21
0.0643724
0
LINE
8
BLACK
6
CONTINUOUS
10
0.962296
20
0.0643724
11
0.971143
21
0.0680369
0
LINE
8
BLACK
6
CONTINUOUS
10
0.971143
20
0.0680369
11
0.980454
21
0.0702723
0
LINE
8
BLACK
6
CONTINUOUS
10
0.980454
20
0.0702723
11
0.99
21
0.0710236
0
LINE
8
BLACK
6
CONTINUOUS
10
0.99
20
0.0710236
11
0.999546
21
0.0702723
0
LINE
8
BLACK
6
CONTINUOUS
10
0.263013
20
0.0972746
11
0.265568
21
0.0955678
0
LINE
8
BLACK
6
CONTINUOUS
10
0.265568
20
0.0955678
11
0.267275
21
0.0930133
0
LINE
8
BLACK
6
CONTINUOUS
10
0.267275
20
0.0930133
11
0.267874
21
0.09
0
LINE
8
BLACK
6
CONTINUOUS
10
0.267874
20
0.09
11
0.267874
21
0.03
0
LINE
8
BLACK
6
CONTINUOUS
10
0.267874
20
0.03
11
0.267275
21
0.0269867
0
LINE
8
BLACK
6
CONTINUOUS
10
0.267275
20
0.0269867
11
0.265568
21
0.0244322
0
LINE
8
BLACK
6
CONTINUOUS
10
0.265568
20
0.0244322
11
0.263013
21
0.0227254
0
LINE
8
BLACK
6
CONTINUOUS
10
0.263013
20
0.0227254
11
0.26
21
0.022126
0
LINE
8
BLACK
6
CONTINUOUS
10
0.26
20
0.022126
11
0.2
21
0.022126
0
LINE
8
BLACK
6
CONTINUOUS
10
0.2
20
0.022126
11
0.196987
21
0.0227254
0
LINE
8
BLACK
6
CONTINUOUS
10
0.196987
20
0.0227254
11
0.194432
21
0.0244322
0
LINE
8
BLACK
6
CONTINUOUS
10
0.194432
20
0.0244322
11
0.192725
21
0.0269867
0
LINE
8
BLACK
6
CONTINUOUS
10
0.192725
20
0.0269867
11
0.192126
21
0.03
0
LINE
8
BLACK
6
CONTINUOUS
10
0.192126
20
0.03
11
0.192126
21
0.09
0
LINE
8
BLACK
6
CONTINUOUS
10
0.192126
20
0.09
11
0.192725
21
0.0930133
0
LINE
8
BLACK
6
CONTINUOUS
10
0.192725
20
0.0930133
11
0.194432
21
0.0955678
0
LINE
8
BLACK
6
CONTINUOUS
10
0.194432
20
0.0955678
11
0.196987
21
0.0972746
0
LINE
8
BLACK
6
CONTINUOUS
10
0.196987
20
0.0972746
11
0.2
21
0.097874
0
LINE
8
BLACK
6
CONTINUOUS
10
0.2
20
0.097874
11
0.26
21
0.097874
0
LINE
8
BLACK
6
CONTINUOUS
10
0.26
20
0.097874
11
0.263013
21
0.0972746
0
LINE
8
BLACK
6
CONTINUOUS
10
0.493013
20
0.0972746
11
0.495568
21
0.0955678
0
LINE
8
BLACK
6
CONTINUOUS
10
0.495568
20
0.0955678
11
0.497275
21
0.0930133
0
LINE
8
BLACK
6
CONTINUOUS
10
0.497275
20
0.0930133
11
0.497874
21
0.09
0
LINE
8
BLACK
6
CONTINUOUS
10
0.497874
20
0.09
11
0.497874
21
0.03
0
LINE
8
BLACK
6
CONTINUOUS
10
0.497874
20
0.03
11
0.497275
21
0.0269867
0
LINE
8
BLACK
6
CONTINUOUS
10
0.497275
20
0.0269867
11
0.495568
21
0.0244322
0
LINE
8
BLACK
6
CONTINUOUS
10
0.495568
20
0.0244322
11
0.493013
21
0.0227254
0
LINE
8
BLACK
6
CONTINUOUS
10
0.493013
20
0.0227254
11
0.49
21
0.022126
0
LINE
8
BLACK
6
CONTINUOUS
10
0.49
20
0.022126
11
0.43
21
0.022126
0
LINE
8
BLACK
6
CONTINUOUS
10
0.43
20
0.022126
11
0.426987
21
0.0227254
0
LINE
8
BLACK
6
CONTINUOUS
10
0.426987
20
0.0227254
11
0.424432
21
0.0244322
0
LINE
8
BLACK
6
CONTINUOUS
10
0.424432
20
0.0244322
11
0.422725
21
0.0269867
0
LINE
8
BLACK
6
CONTINUOUS
10
0.422725
20
0.0269867
11
0.422126
21
0.03
0
LINE
8
BLACK
6
CONTINUOUS
10
0.422126
20
0.03
11
0.422126
21
0.09
0
LINE
8
BLACK
6
CONTINUOUS
10
0.422126
20
0.09
11
0.422725
21
0.0930133
0
LINE
8
BLACK
6
CONTINUOUS
10
0.422725
20
0.0930133
11
0.424432
21
0.0955678
0
LINE
8
BLACK
6
CONTINUOUS
10
0.424432
20
0.0955678
11
0.426987
21
0.0972746
0
LINE
8
BLACK
6
CONTINUOUS
10
0.426987
20
0.0972746
11
0.43
21
0.097874
0
LINE
8
BLACK
6
CONTINUOUS
10
0.43
20
0.097874
11
0.49
21
0.097874
0
LINE
8
BLACK
6
CONTINUOUS
10
0.49
20
0.097874
11
0.493013
21
0.0972746
0
LINE
8
BLACK
6
CONTINUOUS
10
0.593013
20
0.0972746
11
0.595568
21
0.0955678
0
LINE
8
BLACK
6
CONTINUOUS
10
0.595568
20
0.0955678
11
0.597275
21
0.0930133
0
LINE
8
BLACK
6
CONTINUOUS
10
0.597275
20
0.0930133
11
0.597874
21
0.09
0
LINE
8
BLACK
6
CONTINUOUS
10
0.597874
20
0.09
11
0.597874
21
0.03
0
LINE
8
BLACK
6
CONTINUOUS
10
0.597874
20
0.03
11
0.597275
21
0.0269867
0
LINE
8
BLACK
6
CONTINUOUS
10
0.597275
20
0.0269867
11
0.595568
21
0.0244322
0
LINE
8
BLACK
6
CONTINUOUS
10
0.595568
20
0.0244322
11
0.593013
21
0.0227254
0
LINE
8
BLACK
6
CONTINUOUS
10
0.593013
20
0.0227254
11
0.59
21
0.022126
0
LINE
8
BLACK
6
CONTINUOUS
10
0.59
20
0.022126
11
0.53
21
0.022126
0
LINE
8
BLACK
6
CONTINUOUS
10
0.53
20
0.022126
11
0.526987
21
0.0227254
0
LINE
8
BLACK
6
CONTINUOUS
10
0.526987
20
0.0227254
11
0.524432
21
0.0244322
0
LINE
8
BLACK
6
CONTINUOUS
10
0.524432
20
0.0244322
11
0.522725
21
0.0269867
0
LINE
8
BLACK
6
CONTINUOUS
10
0.522725
20
0.0269867
11
0.522126
21
0.03
0
LINE
8
BLACK
6
CONTINUOUS
10
0.522126
20
0.03
11
0.522126
21
0.09
0
LINE
8
BLACK
6
CONTINUOUS
10
0.522126
20
0.09
11
0.522725
21
0.0930133
0
LINE
8
BLACK
6
CONTINUOUS
10
0.522725
20
0.0930133
11
0.524432
21
0.0955678
0
LINE
8
BLACK
6
CONTINUOUS
10
0.524432
20
0.0955678
11
0.526987
21
0.0972746
0
LINE
8
BLACK
6
CONTINUOUS
10
0.526987
20
0.0972746
11
0.53
21
0.097874
0
LINE
8
BLACK
6
CONTINUOUS
10
0.53
20
0.097874
11
0.59
21
0.097874
0
LINE
8
BLACK
6
CONTINUOUS
10
0.59
20
0.097874
11
0.593013
21
0.0972746
0
LINE
8
BLACK
6
CONTINUOUS
10
0.693013
20
0.0972746
11
0.695568
21
0.0955678
0
LINE
8
BLACK
6
CONTINUOUS
10
0.695568
20
0.0955678
11
0.697275
21
0.0930133
0
LINE
8
BLACK
6
CONTINUOUS
10
0.697275
20
0.0930133
11
0.697874
21
0.09
0
LINE
8
BLACK
6
CONTINUOUS
10
0.697874
20
0.09
11
0.697874
21
0.03
0
LINE
8
BLACK
6
CONTINUOUS
10
0.697874
20
0.03
11
0.697275
21
0.0269867
0
LINE
8
BLACK
6
CONTINUOUS
10
0.697275
20
0.0269867
11
0.695568
21
0.0244322
0
LINE
8
BLACK
6
CONTINUOUS
10
0.695568
20
0.0244322
11
0.693013
21
0.0227254
0
LINE
8
BLACK
6
CONTINUOUS
10
0.693013
20
0.0227254
11
0.69
21
0.022126
0
LINE
8
BLACK
6
CONTINUOUS
10
0.69
20
0.022126
11
0.63
21
0.022126
0
LINE
8
BLACK
6
CONTINUOUS
10
0.63
20
0.022126
11
0.626987
21
0.0227254
0
LINE
8
BLACK
6
CONTINUOUS
10
0.626987
20
0.0227254
11
0.624432
21
0.0244322
0
LINE
8
BLACK
6
CONTINUOUS
10
0.624432
20
0.0244322
11
0.622725
21
0.0269867
0
LINE
8
BLACK
6
CONTINUOUS
10
0.622725
20
0.0269867
11
0.622126
21
0.03
0
LINE
8
BLACK
6
CONTINUOUS
10
0.622126
20
0.03
11
0.622126
21
0.09
0
LINE
8
BLACK
6
CONTINUOUS
10
0.622126
20
0.09
11
0.622725
21
0.0930133
0
LINE
8
BLACK
6
CONTINUOUS
10
0.622725
20
0.0930133
11
0.624432
21
0.0955678
0
LINE
8
BLACK
6
CONTINUOUS
10
0.624432
20
0.0955678
11
0.626987
21
0.0972746
0
LINE
8
BLACK
6
CONTINUOUS
10
0.626987
20
0.0972746
11
0.63
21
0.097874
0
LINE
8
BLACK
6
CONTINUOUS
10
0.63
20
0.097874
11
0.69
21
0.097874
0
LINE
8
BLACK
6
CONTINUOUS
10
0.69
20
0.097874
11
0.693013
21
0.0972746
0
LINE
8
BLACK
6
CONTINUOUS
10
0.793013
20
0.0972746
11
0.795568
21
0.0955678
0
LINE
8
BLACK
6
CONTINUOUS
10
0.795568
20
0.0955678
11
0.797275
21
0.0930133
0
LINE
8
BLACK
6
CONTINUOUS
10
0.797275
20
0.0930133
11
0.797874
21
0.09
0
LINE
8
BLACK
6
CONTINUOUS
10
0.797874
20
0.09
11
0.797874
21
0.03
0
LINE
8
BLACK
6
CONTINUOUS
10
0.797874
20
0.03
11
0.797275
21
0.0269867
0
LINE
8
BLACK
6
CONTINUOUS
10
0.797275
20
0.0269867
11
0.795568
21
0.0244322
0
LINE
8
BLACK
6
CONTINUOUS
10
0.795568
20
0.0244322
11
0.793013
21
0.0227254
0
LINE
8
BLACK
6
CONTINUOUS
10
0.793013
20
0.0227254
11
0.79
21
0.022126
0
LINE
8
BLACK
6
CONTINUOUS
10
0.79
20
0.022126
11
0.73
21
0.022126
0
LINE
8
BLACK
6
CONTINUOUS
10
0.73
20
0.022126
11
0.726987
21
0.0227254
0
LINE
8
BLACK
6
CONTINUOUS
10
0.726987
20
0.0227254
11
0.724432
21
0.0244322
0
LINE
8
BLACK
6
CONTINUOUS
10
0.724432
20
0.0244322
11
0.722725
21
0.0269867
0
LINE
8
BLACK
6
CONTINUOUS
10
0.722725
20
0.0269867
11
0.722126
21
0.03
0
LINE
8
BLACK
6
CONTINUOUS
10
0.722126
20
0.03
11
0.722126
21
0.09
0
LINE
8
BLACK
6
CONTINUOUS
10
0.722126
20
0.09
11
0.722725
21
0.0930133
0
LINE
8
BLACK
6
CONTINUOUS
10
0.722725
20
0.0930133
11
0.724432
21
0.0955678
0
LINE
8
BLACK
6
CONTINUOUS
10
0.724432
20
0.0955678
11
0.726987
21
0.0972746
0
LINE
8
BLACK
6
CONTINUOUS
10
0.726987
20
0.0972746
11
0.73
21
0.097874
0
LINE
8
BLACK
6
CONTINUOUS
10
0.73
20
0.097874
11
0.79
21
0.097874
0
LINE
8
BLACK
6
CONTINUOUS
10
0.79
20
0.097874
11
0.793013
21
0.0972746
0
LINE
8
BLACK
6
CONTINUOUS
10
0.893013
20
0.0972746
11
0.895568
21
0.0955678
0
LINE
8
BLACK
6
CONTINUOUS
10
0.895568
20
0.0955678
11
0.897275
21
0.0930133
0
LINE
8
BLACK
6
CONTINUOUS
10
0.897275
20
0.0930133
11
0.897874
21
0.09
0
LINE
8
BLACK
6
CONTINUOUS
10
0.897874
20
0.09
11
0.897874
21
0.03
0
LINE
8
BLACK
6
CONTINUOUS
10
0.897874
20
0.03
11
0.897275
21
0.0269867
0
LINE
8
BLACK
6
CONTINUOUS
10
0.897275
20
0.0269867
11
0.895568
21
0.0244322
0
LINE
8
BLACK
6
CONTINUOUS
10
0.895568
20
0.0244322
11
0.893013
21
0.0227254
0
LINE
8
BLACK
6
CONTINUOUS
10
0.893013
20
0.0227254
11
0.89
21
0.022126
0
LINE
8
BLACK
6
CONTINUOUS
10
0.89
20
0.022126
11
0.83
21
0.022126
0
LINE
8
BLACK
6
CONTINUOUS
10
0.83
20
0.022126
11
0.826987
21
0.0227254
0
LINE
8
BLACK
6
CONTINUOUS
10
0.826987
20
0.0227254
11
0.824432
21
0.0244322
0
LINE
8
BLACK
6
CONTINUOUS
10
0.824432
20
0.0244322
11
0.822725
21
0.0269867
0
LINE
8
BLACK
6
CONTINUOUS
10
0.822725
20
0.0269867
11
0.822126
21
0.03
0
LINE
8
BLACK
6
CONTINUOUS
10
0.822126
20
0.03
11
0.822126
21
0.09
0
LINE
8
BLACK
6
CONTINUOUS
10
0.822126
20
0.09
11
0.822725
21
0.0930133
0
LINE
8
BLACK
6
CONTINUOUS
10
0.822725
20
0.0930133
11
0.824432
21
0.0955678
0
LINE
8
BLACK
6
CONTINUOUS
10
0.824432
20
0.0955678
11
0.826987
21
0.0972746
0
LINE
8
BLACK
6
CONTINUOUS
10
0.826987
20
0.0972746
11
0.83
21
0.097874
0
LINE
8
BLACK
6
CONTINUOUS
10
0.83
20
0.097874
11
0.89
21
0.097874
0
LINE
8
BLACK
6
CONTINUOUS
10
0.89
20
0.097874
11
0.893013
21
0.0972746
  0
ENDSEC
  0
EOF
