<?xml version='1.0' encoding='ASCII' standalone='yes'?>
<svg xmlns:svg="http://www.w3.org/2000/svg" xmlns="http://www.w3.org/2000/svg" xmlns:xlink="http://www.w3.org/1999/xlink" version="1.1" width="297.0022mm" height="210.0072mm" viewBox="0.0000 0.0000 297.0022 210.0072">
<title>SVG Image created as VCAI2C02-F_Fab.svg date 2023/07/20 11:03:53 </title>
  <desc>Image generated by PCBNEW </desc>
<g style="fill:#848484; fill-opacity:1.0000;stroke:#848484; stroke-opacity:1.0000; stroke-linecap:round; stroke-linejoin:round;" transform="translate(0 0) scale(1 1)">
</g>
<g style="fill:#848484; fill-opacity:0.0;  stroke:#848484; stroke-width:0.0000; stroke-opacity:1;  stroke-linecap:round; stroke-linejoin:round;">
</g>
<g style="fill:#848484; fill-opacity:0.01;  stroke:#848484; stroke-width:0.6291; stroke-opacity:1;  stroke-linecap:round; stroke-linejoin:round;">
<text x="223.0741" y="145.4525" textLength="38.2821" font-size="5.5923" lengthAdjust="spacingAndGlyphs" text-anchor="middle" opacity="0.01" style="font-family:monospace">L01ZxxxS05</text>
<g class="stroked-text"><desc>L01ZxxxS05</desc>
<path d="M207.2959 145.2630 L205.2986 145.2630 "/>
<path d="M205.2986 145.2630 L205.2986 141.0688 "/>
<path d="M209.4928 141.0688 L209.8923 141.0688 "/>
<path d="M209.8923 141.0688 L210.2917 141.2685 "/>
<path d="M210.2917 141.2685 L210.4914 141.4683 "/>
<path d="M210.4914 141.4683 L210.6912 141.8677 "/>
<path d="M210.6912 141.8677 L210.8909 142.6666 "/>
<path d="M210.8909 142.6666 L210.8909 143.6652 "/>
<path d="M210.8909 143.6652 L210.6912 144.4641 "/>
<path d="M210.6912 144.4641 L210.4914 144.8636 "/>
<path d="M210.4914 144.8636 L210.2917 145.0633 "/>
<path d="M210.2917 145.0633 L209.8923 145.2630 "/>
<path d="M209.8923 145.2630 L209.4928 145.2630 "/>
<path d="M209.4928 145.2630 L209.0934 145.0633 "/>
<path d="M209.0934 145.0633 L208.8936 144.8636 "/>
<path d="M208.8936 144.8636 L208.6939 144.4641 "/>
<path d="M208.6939 144.4641 L208.4942 143.6652 "/>
<path d="M208.4942 143.6652 L208.4942 142.6666 "/>
<path d="M208.4942 142.6666 L208.6939 141.8677 "/>
<path d="M208.6939 141.8677 L208.8936 141.4683 "/>
<path d="M208.8936 141.4683 L209.0934 141.2685 "/>
<path d="M209.0934 141.2685 L209.4928 141.0688 "/>
<path d="M214.8854 145.2630 L212.4887 145.2630 "/>
<path d="M213.6870 145.2630 L213.6870 141.0688 "/>
<path d="M213.6870 141.0688 L213.2876 141.6680 "/>
<path d="M213.2876 141.6680 L212.8881 142.0674 "/>
<path d="M212.8881 142.0674 L212.4887 142.2671 "/>
<path d="M216.2834 141.0688 L219.0796 141.0688 "/>
<path d="M219.0796 141.0688 L216.2834 145.2630 "/>
<path d="M216.2834 145.2630 L219.0796 145.2630 "/>
<path d="M220.2779 145.2630 L222.4749 142.4669 "/>
<path d="M220.2779 142.4669 L222.4749 145.2630 "/>
<path d="M223.6732 145.2630 L225.8702 142.4669 "/>
<path d="M223.6732 142.4669 L225.8702 145.2630 "/>
<path d="M227.0685 145.2630 L229.2655 142.4669 "/>
<path d="M227.0685 142.4669 L229.2655 145.2630 "/>
<path d="M230.6636 145.0633 L231.2627 145.2630 "/>
<path d="M231.2627 145.2630 L232.2614 145.2630 "/>
<path d="M232.2614 145.2630 L232.6608 145.0633 "/>
<path d="M232.6608 145.0633 L232.8605 144.8636 "/>
<path d="M232.8605 144.8636 L233.0603 144.4641 "/>
<path d="M233.0603 144.4641 L233.0603 144.0647 "/>
<path d="M233.0603 144.0647 L232.8605 143.6652 "/>
<path d="M232.8605 143.6652 L232.6608 143.4655 "/>
<path d="M232.6608 143.4655 L232.2614 143.2658 "/>
<path d="M232.2614 143.2658 L231.4625 143.0660 "/>
<path d="M231.4625 143.0660 L231.0630 142.8663 "/>
<path d="M231.0630 142.8663 L230.8633 142.6666 "/>
<path d="M230.8633 142.6666 L230.6636 142.2671 "/>
<path d="M230.6636 142.2671 L230.6636 141.8677 "/>
<path d="M230.6636 141.8677 L230.8633 141.4683 "/>
<path d="M230.8633 141.4683 L231.0630 141.2685 "/>
<path d="M231.0630 141.2685 L231.4625 141.0688 "/>
<path d="M231.4625 141.0688 L232.4611 141.0688 "/>
<path d="M232.4611 141.0688 L233.0603 141.2685 "/>
<path d="M235.6567 141.0688 L236.0561 141.0688 "/>
<path d="M236.0561 141.0688 L236.4556 141.2685 "/>
<path d="M236.4556 141.2685 L236.6553 141.4683 "/>
<path d="M236.6553 141.4683 L236.8550 141.8677 "/>
<path d="M236.8550 141.8677 L237.0547 142.6666 "/>
<path d="M237.0547 142.6666 L237.0547 143.6652 "/>
<path d="M237.0547 143.6652 L236.8550 144.4641 "/>
<path d="M236.8550 144.4641 L236.6553 144.8636 "/>
<path d="M236.6553 144.8636 L236.4556 145.0633 "/>
<path d="M236.4556 145.0633 L236.0561 145.2630 "/>
<path d="M236.0561 145.2630 L235.6567 145.2630 "/>
<path d="M235.6567 145.2630 L235.2572 145.0633 "/>
<path d="M235.2572 145.0633 L235.0575 144.8636 "/>
<path d="M235.0575 144.8636 L234.8578 144.4641 "/>
<path d="M234.8578 144.4641 L234.6580 143.6652 "/>
<path d="M234.6580 143.6652 L234.6580 142.6666 "/>
<path d="M234.6580 142.6666 L234.8578 141.8677 "/>
<path d="M234.8578 141.8677 L235.0575 141.4683 "/>
<path d="M235.0575 141.4683 L235.2572 141.2685 "/>
<path d="M235.2572 141.2685 L235.6567 141.0688 "/>
<path d="M240.8495 141.0688 L238.8523 141.0688 "/>
<path d="M238.8523 141.0688 L238.6525 143.0660 "/>
<path d="M238.6525 143.0660 L238.8523 142.8663 "/>
<path d="M238.8523 142.8663 L239.2517 142.6666 "/>
<path d="M239.2517 142.6666 L240.2503 142.6666 "/>
<path d="M240.2503 142.6666 L240.6498 142.8663 "/>
<path d="M240.6498 142.8663 L240.8495 143.0660 "/>
<path d="M240.8495 143.0660 L241.0492 143.4655 "/>
<path d="M241.0492 143.4655 L241.0492 144.4641 "/>
<path d="M241.0492 144.4641 L240.8495 144.8636 "/>
<path d="M240.8495 144.8636 L240.6498 145.0633 "/>
<path d="M240.6498 145.0633 L240.2503 145.2630 "/>
<path d="M240.2503 145.2630 L239.2517 145.2630 "/>
<path d="M239.2517 145.2630 L238.8523 145.0633 "/>
<path d="M238.8523 145.0633 L238.6525 144.8636 "/>
</g><text x="180.2093" y="112.3938" textLength="12.1183" font-size="5.5923" lengthAdjust="spacingAndGlyphs" text-anchor="middle" opacity="0.01" style="font-family:monospace">TR1</text>
<g class="stroked-text"><desc>TR1</desc>
<path d="M174.9166 108.0101 L177.3133 108.0101 "/>
<path d="M176.1149 112.2043 L176.1149 108.0101 "/>
<path d="M181.1080 112.2043 L179.7100 110.2070 "/>
<path d="M178.7114 112.2043 L178.7114 108.0101 "/>
<path d="M178.7114 108.0101 L180.3091 108.0101 "/>
<path d="M180.3091 108.0101 L180.7086 108.2098 "/>
<path d="M180.7086 108.2098 L180.9083 108.4095 "/>
<path d="M180.9083 108.4095 L181.1080 108.8090 "/>
<path d="M181.1080 108.8090 L181.1080 109.4082 "/>
<path d="M181.1080 109.4082 L180.9083 109.8076 "/>
<path d="M180.9083 109.8076 L180.7086 110.0073 "/>
<path d="M180.7086 110.0073 L180.3091 110.2070 "/>
<path d="M180.3091 110.2070 L178.7114 110.2070 "/>
<path d="M185.1025 112.2043 L182.7058 112.2043 "/>
<path d="M183.9042 112.2043 L183.9042 108.0101 "/>
<path d="M183.9042 108.0101 L183.5047 108.6093 "/>
<path d="M183.5047 108.6093 L183.1053 109.0087 "/>
<path d="M183.1053 109.0087 L182.7058 109.2084 "/>
</g><text x="68.6015" y="146.7024" textLength="7.9241" font-size="5.5923" lengthAdjust="spacingAndGlyphs" text-anchor="middle" opacity="0.01" style="font-family:monospace">J1</text>
<g class="stroked-text"><desc>J1</desc>
<path d="M67.2034 142.3187 L67.2034 145.3145 "/>
<path d="M67.2034 145.3145 L67.0037 145.9137 "/>
<path d="M67.0037 145.9137 L66.6043 146.3132 "/>
<path d="M66.6043 146.3132 L66.0051 146.5129 "/>
<path d="M66.0051 146.5129 L65.6056 146.5129 "/>
<path d="M71.3976 146.5129 L69.0010 146.5129 "/>
<path d="M70.1993 146.5129 L70.1993 142.3187 "/>
<path d="M70.1993 142.3187 L69.7998 142.9178 "/>
<path d="M69.7998 142.9178 L69.4004 143.3173 "/>
<path d="M69.4004 143.3173 L69.0010 143.5170 "/>
</g><path d="M110.5855 78.8402 L110.5855 148.8834 "/>
<path d="M110.5855 148.8834 L244.8000 148.8834 "/>
<path d="M244.8000 78.8402 L110.5855 78.8402 "/>
<path d="M244.8000 148.8834 L244.8000 78.8402 "/>
<path d="M86.2172 163.0598 L86.2172 125.3119 "/>
<path d="M86.2172 125.3119 L50.9858 125.3119 "/>
<path d="M50.9858 163.0598 L86.2172 163.0598 "/>
<path d="M50.9858 125.3119 L50.9858 163.0598 "/>
<g>
</g>
<g>
</g>
<g>
</g>
<g>
</g>
<g>
</g>
<g>
</g>
<g>
</g>
<g>
</g>
<g>
</g>
<g>
</g>
<g>
</g>
<g>
</g>
<g>
</g>
<g>
</g>
<g>
</g>
<g>
</g>
<g>
</g>
<g>
</g>
<g>
</g>
<g>
</g>
<g>
</g>
<g>
</g>
<g>
</g>
<g>
</g>
<g>
</g>
<g>
</g>
<g>
</g>
<g>
</g>
<g>
</g>
<g>
</g>
<g>
</g>
<g>
</g>
<g>
</g>
<g>
</g>
<g>
</g>
<g>
</g>
<g>
</g>
<g>
</g>
<g>
</g>
<g>
</g>
<g>
</g>
<g>
</g>
<g>
</g>
<g>
</g>
<g>
</g>
<g>
</g>
</g> 
<svg:g><svg:g><svg:title>SVG Image created as VCAI2C02-Edge_Cuts.svg date 2023/07/20 11:03:53 </svg:title>
  <svg:desc>Image generated by PCBNEW </svg:desc>
<svg:g style="fill:#C2C200; fill-opacity:1.0000;stroke:#C2C200; stroke-opacity:1.0000; stroke-linecap:round; stroke-linejoin:round;" transform="translate(0 0) scale(1 1)">
</svg:g>
<svg:g style="fill:#C2C200; fill-opacity:0.0;  stroke:#C2C200; stroke-width:0.0000; stroke-opacity:1;  stroke-linecap:round; stroke-linejoin:round;">
</svg:g>
<svg:g style="fill:#C2C200; fill-opacity:0.0;  stroke:#C2C200; stroke-width:0.8388; stroke-opacity:1;  stroke-linecap:round; stroke-linejoin:round;">
<svg:path d="M296.5817 42.1493 L0.4205 42.1493 "/>
<svg:path d="M0.4205 42.1493 L0.4205 167.8579 "/>
<svg:path d="M296.5817 167.8579 L296.5817 42.1493 "/>
<svg:path d="M0.4205 167.8579 L296.5817 167.8579 "/>
<svg:g>
</svg:g>
<svg:g>
</svg:g>
<svg:g>
</svg:g>
<svg:g>
</svg:g>
<svg:g>
</svg:g>
<svg:g>
</svg:g>
<svg:g>
</svg:g>
<svg:g>
</svg:g>
<svg:g>
</svg:g>
<svg:g>
</svg:g>
<svg:g>
</svg:g>
<svg:g>
</svg:g>
<svg:g>
</svg:g>
<svg:g>
</svg:g>
<svg:g>
</svg:g>
<svg:g>
</svg:g>
<svg:g>
</svg:g>
<svg:g>
</svg:g>
<svg:g>
</svg:g>
<svg:g>
</svg:g>
<svg:g>
</svg:g>
<svg:g>
</svg:g>
<svg:g>
</svg:g>
<svg:g>
</svg:g>
<svg:g>
</svg:g>
<svg:g>
</svg:g>
<svg:g>
</svg:g>
<svg:g>
</svg:g>
<svg:g>
</svg:g>
<svg:g>
</svg:g>
<svg:g>
</svg:g>
<svg:g>
</svg:g>
<svg:g>
</svg:g>
<svg:g>
</svg:g>
<svg:g>
</svg:g>
<svg:g>
</svg:g>
<svg:g>
</svg:g>
<svg:g>
</svg:g>
<svg:g>
</svg:g>
<svg:g>
</svg:g>
<svg:g>
</svg:g>
<svg:g>
</svg:g>
<svg:g>
</svg:g>
<svg:g>
</svg:g>
<svg:g>
</svg:g>
<svg:g>
</svg:g>
</svg:g> 
</svg:g></svg:g></svg>
