<?xml version='1.0' encoding='ASCII' standalone='yes'?>
<svg xmlns:svg="http://www.w3.org/2000/svg" xmlns="http://www.w3.org/2000/svg" xmlns:xlink="http://www.w3.org/1999/xlink" version="1.1" width="29.700220cm" height="21.000720cm" viewBox="0 0 2970022 2100072">
<title>SVG Picture created as VCAI2C02-B_Fab.svg date 2023/07/05 11:57:37 </title>
  <desc>Picture generated by PCBNEW </desc>
<g style="fill:#000084; fill-opacity:1.000000;stroke:#000084; stroke-opacity:1.000000; stroke-linecap:round; stroke-linejoin:round;" transform="translate(0 0) scale(1 1)">
</g>
<g style="fill:#000084; fill-opacity:0.0;  stroke:#000084; stroke-width:0.000000; stroke-opacity:1;  stroke-linecap:round; stroke-linejoin:round;">
</g>
<g style="fill:#000084; fill-opacity:0.01;  stroke:#000084; stroke-width:4194.204372; stroke-opacity:1;  stroke-linecap:round; stroke-linejoin:round;">
<g transform="rotate(-90.000000 1026919.987290 809204.794103)">
<text x="1026919.987290" y="819690.305033" transform="scale(-1 1) translate(-2053839.974581 0)" textLength="36948.885358" font-size="27961.334520" lengthAdjust="spacingAndGlyphs" text-anchor="middle" opacity="0.01" style="font-family:monospace">L1</text>
</g>
<g class="stroked-text"><desc>L1</desc>
<path d="M1036406 805709 L1036406 795723 L1015435 795723 "/>
<path d="M1036406 823684 L1036406 811701 "/>
<path d="M1036406 817693 L1015435 817693 L1018431 815695 L1020428 813698 L1021427 811701 "/>
</g><text x="164004.379766" y="1156401.032028" transform="scale(-1 1) translate(-328008.759532 0)" textLength="35490.937977" font-size="27961.334520" lengthAdjust="spacingAndGlyphs" text-anchor="middle" opacity="0.01" style="font-family:monospace">D3</text>
<g class="stroked-text"><desc>D3</desc>
<path d="M179483 1155402 L179483 1134431 L174489 1134431 L171494 1135430 L169496 1137427 L168498 1139424 L167499 1143418 L167499 1146414 L168498 1150409 L169496 1152406 L171494 1154403 L174489 1155402 L179483 1155402 "/>
<path d="M160509 1134431 L147527 1134431 L154517 1142420 L151521 1142420 L149524 1143418 L148525 1144417 L147527 1146414 L147527 1151407 L148525 1153405 L149524 1154403 L151521 1155402 L157513 1155402 L159510 1154403 L160509 1153405 "/>
</g></g>
<g style="fill:#000084; fill-opacity:0.01;  stroke:#000084; stroke-width:6291.306558; stroke-opacity:1;  stroke-linecap:round; stroke-linejoin:round;">
<text x="579482.264870" y="834999.109049" transform="scale(-1 1) translate(-1158964.529741 0)" textLength="53266.395526" font-size="39145.893493" lengthAdjust="spacingAndGlyphs" text-anchor="middle" opacity="0.01" style="font-family:monospace">U1</text>
<g class="stroked-text"><desc>U1</desc>
<path d="M601851 804241 L601851 828008 L600453 830804 L599055 832202 L596259 833601 L590666 833601 L587870 832202 L586472 830804 L585074 828008 L585074 804241 "/>
<path d="M555715 833601 L572491 833601 "/>
<path d="M564103 833601 L564103 804241 L566899 808435 L569695 811231 L572491 812629 "/>
</g><text x="1378478.197763" y="1046387.093289" transform="scale(-1 1) translate(-2756956.395526 0)" textLength="42151.753940" font-size="33553.634977" lengthAdjust="spacingAndGlyphs" text-anchor="middle" opacity="0.01" style="font-family:monospace">U2</text>
<g class="stroked-text"><desc>U2</desc>
<path d="M1397651 1020023 L1397651 1040395 L1396453 1042792 L1395255 1043990 L1392858 1045188 L1388064 1045188 L1385668 1043990 L1384469 1042792 L1383271 1040395 L1383271 1020023 "/>
<path d="M1372486 1022420 L1371288 1021221 L1368891 1020023 L1362899 1020023 L1360503 1021221 L1359304 1022420 L1358106 1024816 L1358106 1027213 L1359304 1030808 L1373684 1045188 L1358106 1045188 "/>
</g><g transform="rotate(-90.000000 1666116.733604 783704.031520)">
<text x="1666116.733604" y="804675.053381" transform="scale(-1 1) translate(-3332233.467209 0)" textLength="145608.809100" font-size="55922.710981" lengthAdjust="spacingAndGlyphs" text-anchor="middle" opacity="0.01" style="font-family:monospace">10uF</text>
</g>
<g class="stroked-text"><desc>10uF</desc>
<path d="M1685090 738766 L1685090 714799 "/>
<path d="M1685090 726782 L1643148 726782 L1649140 722788 L1653134 718793 L1655131 714799 "/>
<path d="M1643148 764730 L1643148 768724 L1645145 772719 L1647142 774716 L1651137 776713 L1659126 778710 L1669112 778710 L1677101 776713 L1681095 774716 L1683093 772719 L1685090 768724 L1685090 764730 L1683093 760735 L1681095 758738 L1677101 756741 L1669112 754744 L1659126 754744 L1651137 756741 L1647142 758738 L1645145 760735 L1643148 764730 "/>
<path d="M1657129 814661 L1685090 814661 "/>
<path d="M1657129 796686 L1679098 796686 L1683093 798683 L1685090 802677 L1685090 808669 L1683093 812664 L1681095 814661 "/>
<path d="M1663120 848614 L1663120 834633 "/>
<path d="M1685090 834633 L1643148 834633 L1643148 854606 "/>
</g></g>
<g style="fill:#000084; fill-opacity:0.0;  stroke:#000084; stroke-width:5452.465684; stroke-opacity:1;  stroke-linecap:round; stroke-linejoin:round;">
<g transform="rotate(-90.000000 1666116.733604 943503.218099)">
<text x="1666116.733604" y="961957.717336" transform="scale(-1 1) translate(-3332233.467209 0)" textLength="99033.134215" font-size="49211.983986" lengthAdjust="spacingAndGlyphs" text-anchor="middle" opacity="0.01" style="font-family:monospace">C11</text>
</g>
<g class="stroked-text"><desc>C11</desc>
<path d="M1679298 919775 L1681056 918018 L1682813 912745 L1682813 909230 L1681056 903957 L1677540 900442 L1674025 898685 L1666995 896927 L1661722 896927 L1654692 898685 L1651177 900442 L1647662 903957 L1645904 909230 L1645904 912745 L1647662 918018 L1649419 919775 "/>
<path d="M1682813 954927 L1682813 933836 "/>
<path d="M1682813 944381 L1645904 944381 L1651177 940866 L1654692 937351 L1656450 933836 "/>
<path d="M1682813 990078 L1682813 968988 "/>
<path d="M1682813 979533 L1645904 979533 L1651177 976018 L1654692 972503 L1656450 968988 "/>
</g></g>
<g style="fill:#000084; fill-opacity:0.0;  stroke:#000084; stroke-width:6291.306558; stroke-opacity:1;  stroke-linecap:round; stroke-linejoin:round;">
<g transform="rotate(-90.000000 835160.963396 1380287.661413)">
<text x="835160.963396" y="1401258.683274" transform="scale(-1 1) translate(-1670321.926792 0)" textLength="80790.358414" font-size="55922.710981" lengthAdjust="spacingAndGlyphs" text-anchor="middle" opacity="0.01" style="font-family:monospace">1M</text>
</g>
<g class="stroked-text"><desc>1M</desc>
<path d="M854134 1368304 L854134 1344337 "/>
<path d="M854134 1356320 L812192 1356320 L818184 1352326 L822178 1348331 L824176 1344337 "/>
<path d="M854134 1386279 L812192 1386279 L842151 1400260 L812192 1414240 L854134 1414240 "/>
</g></g>
<g style="fill:#000084; fill-opacity:0.0;  stroke:#000084; stroke-width:3355.363498; stroke-opacity:1;  stroke-linecap:round; stroke-linejoin:round;">
<g transform="rotate(-90.000000 835160.963396 1284408.149466)">
<text x="835160.963396" y="1294893.660397" transform="scale(-1 1) translate(-1670321.926792 0)" textLength="32764.705135" font-size="27961.334520" lengthAdjust="spacingAndGlyphs" text-anchor="middle" opacity="0.01" style="font-family:monospace">R1</text>
</g>
<g class="stroked-text"><desc>R1</desc>
<path d="M844647 1280912 L834661 1273922 "/>
<path d="M844647 1268929 L823676 1268929 L823676 1276918 L824675 1278915 L825674 1279914 L827671 1280912 L830667 1280912 L832664 1279914 L833663 1278915 L834661 1276918 L834661 1268929 "/>
<path d="M844647 1300885 L844647 1288901 "/>
<path d="M844647 1294893 L823676 1294893 L826672 1292896 L828669 1290899 L829668 1288901 "/>
</g></g>
<g style="fill:#000084; fill-opacity:0.0;  stroke:#000084; stroke-width:6291.306558; stroke-opacity:1;  stroke-linecap:round; stroke-linejoin:round;">
<g transform="rotate(-90.000000 536869.148449 1380287.661413)">
<text x="536869.148449" y="1401258.683274" transform="scale(-1 1) translate(-1073738.296899 0)" textLength="83516.591256" font-size="55922.710981" lengthAdjust="spacingAndGlyphs" text-anchor="middle" opacity="0.01" style="font-family:monospace">1M</text>
</g>
<g class="stroked-text"><desc>1M</desc>
<path d="M555842 1368304 L555842 1344337 "/>
<path d="M555842 1356320 L513900 1356320 L519892 1352326 L523887 1348331 L525884 1344337 "/>
<path d="M555842 1386279 L513900 1386279 L543859 1400260 L513900 1414240 L555842 1414240 "/>
</g></g>
<g style="fill:#000084; fill-opacity:0.0;  stroke:#000084; stroke-width:3355.363498; stroke-opacity:1;  stroke-linecap:round; stroke-linejoin:round;">
<g transform="rotate(-90.000000 536869.148449 1284408.149466)">
<text x="536869.148449" y="1294893.660397" transform="scale(-1 1) translate(-1073738.296899 0)" textLength="32764.705135" font-size="27961.334520" lengthAdjust="spacingAndGlyphs" text-anchor="middle" opacity="0.01" style="font-family:monospace">R2</text>
</g>
<g class="stroked-text"><desc>R2</desc>
<path d="M546356 1280912 L536369 1273922 "/>
<path d="M546356 1268929 L525384 1268929 L525384 1276918 L526383 1278915 L527382 1279914 L529379 1280912 L532375 1280912 L534372 1279914 L535371 1278915 L536369 1276918 L536369 1268929 "/>
<path d="M527382 1288901 L526383 1289900 L525384 1291897 L525384 1296890 L526383 1298888 L527382 1299886 L529379 1300885 L531376 1300885 L534372 1299886 L546356 1287903 L546356 1300885 "/>
</g></g>
<g style="fill:#000084; fill-opacity:0.0;  stroke:#000084; stroke-width:6291.306558; stroke-opacity:1;  stroke-linecap:round; stroke-linejoin:round;">
<g transform="rotate(-90.000000 749934.730554 1380287.661413)">
<text x="749934.730554" y="1401258.683274" transform="scale(-1 1) translate(-1499869.461108 0)" textLength="83516.591256" font-size="55922.710981" lengthAdjust="spacingAndGlyphs" text-anchor="middle" opacity="0.01" style="font-family:monospace">1M</text>
</g>
<g class="stroked-text"><desc>1M</desc>
<path d="M768908 1368304 L768908 1344337 "/>
<path d="M768908 1356320 L726966 1356320 L732958 1352326 L736952 1348331 L738949 1344337 "/>
<path d="M768908 1386279 L726966 1386279 L756925 1400260 L726966 1414240 L768908 1414240 "/>
</g></g>
<g style="fill:#000084; fill-opacity:0.0;  stroke:#000084; stroke-width:3355.363498; stroke-opacity:1;  stroke-linecap:round; stroke-linejoin:round;">
<g transform="rotate(-90.000000 749934.730554 1284408.149466)">
<text x="749934.730554" y="1294893.660397" transform="scale(-1 1) translate(-1499869.461108 0)" textLength="32764.705135" font-size="27961.334520" lengthAdjust="spacingAndGlyphs" text-anchor="middle" opacity="0.01" style="font-family:monospace">R7</text>
</g>
<g class="stroked-text"><desc>R7</desc>
<path d="M759421 1280912 L749435 1273922 "/>
<path d="M759421 1268929 L738450 1268929 L738450 1276918 L739449 1278915 L740447 1279914 L742445 1280912 L745440 1280912 L747438 1279914 L748436 1278915 L749435 1276918 L749435 1268929 "/>
<path d="M738450 1287903 L738450 1301883 L759421 1292896 "/>
</g></g>
<g style="fill:#000084; fill-opacity:0.0;  stroke:#000084; stroke-width:6291.306558; stroke-opacity:1;  stroke-linecap:round; stroke-linejoin:round;">
<g transform="rotate(-90.000000 622095.381291 1380287.661413)">
<text x="622095.381291" y="1401258.683274" transform="scale(-1 1) translate(-1244190.762583 0)" textLength="83516.591256" font-size="55922.710981" lengthAdjust="spacingAndGlyphs" text-anchor="middle" opacity="0.01" style="font-family:monospace">1M</text>
</g>
<g class="stroked-text"><desc>1M</desc>
<path d="M641069 1368304 L641069 1344337 "/>
<path d="M641069 1356320 L599127 1356320 L605118 1352326 L609113 1348331 L611110 1344337 "/>
<path d="M641069 1386279 L599127 1386279 L629085 1400260 L599127 1414240 L641069 1414240 "/>
</g></g>
<g style="fill:#000084; fill-opacity:0.0;  stroke:#000084; stroke-width:3355.363498; stroke-opacity:1;  stroke-linecap:round; stroke-linejoin:round;">
<g transform="rotate(-90.000000 622095.381291 1284408.149466)">
<text x="622095.381291" y="1294893.660397" transform="scale(-1 1) translate(-1244190.762583 0)" textLength="32764.705135" font-size="27961.334520" lengthAdjust="spacingAndGlyphs" text-anchor="middle" opacity="0.01" style="font-family:monospace">R8</text>
</g>
<g class="stroked-text"><desc>R8</desc>
<path d="M631582 1280912 L621596 1273922 "/>
<path d="M631582 1268929 L610611 1268929 L610611 1276918 L611609 1278915 L612608 1279914 L614605 1280912 L617601 1280912 L619598 1279914 L620597 1278915 L621596 1276918 L621596 1268929 "/>
<path d="M619598 1292896 L618600 1290899 L617601 1289900 L615604 1288901 L614605 1288901 L612608 1289900 L611609 1290899 L610611 1292896 L610611 1296890 L611609 1298888 L612608 1299886 L614605 1300885 L615604 1300885 L617601 1299886 L618600 1298888 L619598 1296890 L619598 1292896 L620597 1290899 L621596 1289900 L623593 1288901 L627587 1288901 L629585 1289900 L630583 1290899 L631582 1292896 L631582 1296890 L630583 1298888 L629585 1299886 L627587 1300885 L623593 1300885 L621596 1299886 L620597 1298888 L619598 1296890 "/>
</g></g>
<g style="fill:#000084; fill-opacity:0.0;  stroke:#000084; stroke-width:6291.306558; stroke-opacity:1;  stroke-linecap:round; stroke-linejoin:round;">
<g transform="rotate(-90.000000 1261292.127605 655864.682257)">
<text x="1261292.127605" y="682497.880020" transform="scale(-1 1) translate(-2522584.255211 0)" textLength="99634.331469" font-size="71021.846721" lengthAdjust="spacingAndGlyphs" text-anchor="middle" opacity="0.01" style="font-family:monospace">D2</text>
</g>
<g class="stroked-text"><desc>D2</desc>
<path d="M1285388 616549 L1232122 616549 L1232122 629231 L1234658 636840 L1239731 641913 L1244804 644450 L1254950 646986 L1262560 646986 L1272706 644450 L1277779 641913 L1282852 636840 L1285388 629231 L1285388 616549 "/>
<path d="M1237195 667278 L1234658 669815 L1232122 674888 L1232122 687570 L1234658 692643 L1237195 695180 L1242268 697716 L1247341 697716 L1254950 695180 L1285388 664742 L1285388 697716 "/>
</g><g transform="rotate(-90.000000 1261292.127605 538678.612100)">
<text x="1261292.127605" y="565311.809863" transform="scale(-1 1) translate(-2522584.255211 0)" textLength="45087.697001" font-size="71021.846721" lengthAdjust="spacingAndGlyphs" text-anchor="middle" opacity="0.01" style="font-family:monospace">K</text>
</g>
<g class="stroked-text"><desc>K</desc>
<path d="M1285388 524727 L1232122 524727 "/>
<path d="M1285388 555165 L1254950 532337 "/>
<path d="M1232122 555165 L1262560 524727 "/>
</g><g transform="rotate(-90.000000 217270.775292 836970.427046)">
<text x="217270.775292" y="857941.448907" transform="scale(-1 1) translate(-434541.550585 0)" textLength="73708.150737" font-size="55922.710981" lengthAdjust="spacingAndGlyphs" text-anchor="middle" opacity="0.01" style="font-family:monospace">D1</text>
</g>
<g class="stroked-text"><desc>D1</desc>
<path d="M236244 806013 L194302 806013 L194302 815999 L196299 821991 L200294 825985 L204288 827982 L212277 829980 L218269 829980 L226258 827982 L230252 825985 L234247 821991 L236244 815999 L236244 806013 "/>
<path d="M236244 869924 L236244 845957 "/>
<path d="M236244 857941 L194302 857941 L200294 853946 L204288 849952 L206285 845957 "/>
</g><g transform="rotate(-90.000000 355763.403660 751744.194204)">
<text x="355763.403660" y="772715.216065" transform="scale(-1 1) translate(-711526.807321 0)" textLength="69713.674377" font-size="55922.710981" lengthAdjust="spacingAndGlyphs" text-anchor="middle" opacity="0.01" style="font-family:monospace">1u</text>
</g>
<g class="stroked-text"><desc>1u</desc>
<path d="M374737 744753 L374737 720786 "/>
<path d="M374737 732770 L332795 732770 L338786 728775 L342781 724781 L344778 720786 "/>
<path d="M346775 780704 L374737 780704 "/>
<path d="M346775 762728 L368745 762728 L372739 764726 L374737 768720 L374737 774712 L372739 778706 L370742 780704 "/>
</g></g>
<g style="fill:#000084; fill-opacity:0.0;  stroke:#000084; stroke-width:3355.363498; stroke-opacity:1;  stroke-linecap:round; stroke-linejoin:round;">
<g transform="rotate(-90.000000 355763.403660 847623.706151)">
<text x="355763.403660" y="858109.217082" transform="scale(-1 1) translate(-711526.807321 0)" textLength="32764.705135" font-size="27961.334520" lengthAdjust="spacingAndGlyphs" text-anchor="middle" opacity="0.01" style="font-family:monospace">C3</text>
</g>
<g class="stroked-text"><desc>C3</desc>
<path d="M363253 844128 L364251 843129 L365250 840134 L365250 838136 L364251 835140 L362254 833143 L360257 832145 L356262 831146 L353266 831146 L349272 832145 L347275 833143 L345277 835140 L344279 838136 L344279 840134 L345277 843129 L346276 844128 "/>
<path d="M344279 851118 L344279 864100 L352268 857110 L352268 860106 L353266 862103 L354265 863102 L356262 864100 L361255 864100 L363253 863102 L364251 862103 L365250 860106 L365250 854114 L364251 852117 L363253 851118 "/>
</g></g>
<g style="fill:#000084; fill-opacity:0.0;  stroke:#000084; stroke-width:6291.306558; stroke-opacity:1;  stroke-linecap:round; stroke-linejoin:round;">
<g transform="rotate(-90.000000 803201.126080 655864.682257)">
<text x="803201.126080" y="676835.704118" transform="scale(-1 1) translate(-1606402.252161 0)" textLength="153420.011439" font-size="55922.710981" lengthAdjust="spacingAndGlyphs" text-anchor="middle" opacity="0.01" style="font-family:monospace">100n</text>
</g>
<g class="stroked-text"><desc>100n</desc>
<path d="M822174 608929 L822174 584962 "/>
<path d="M822174 596946 L780232 596946 L786224 592951 L790219 588957 L792216 584962 "/>
<path d="M780232 634893 L780232 638888 L782230 642882 L784227 644879 L788221 646877 L796210 648874 L806196 648874 L814185 646877 L818180 644879 L820177 642882 L822174 638888 L822174 634893 L820177 630899 L818180 628901 L814185 626904 L806196 624907 L796210 624907 L788221 626904 L784227 628901 L782230 630899 L780232 634893 "/>
<path d="M780232 674838 L780232 678832 L782230 682827 L784227 684824 L788221 686821 L796210 688819 L806196 688819 L814185 686821 L818180 684824 L820177 682827 L822174 678832 L822174 674838 L820177 670843 L818180 668846 L814185 666849 L806196 664852 L796210 664852 L788221 666849 L784227 668846 L782230 670843 L780232 674838 "/>
<path d="M794213 706794 L822174 706794 "/>
<path d="M798208 706794 L796210 708791 L794213 712785 L794213 718777 L796210 722772 L800205 724769 L822174 724769 "/>
</g></g>
<g style="fill:#000084; fill-opacity:0.0;  stroke:#000084; stroke-width:3355.363498; stroke-opacity:1;  stroke-linecap:round; stroke-linejoin:round;">
<g transform="rotate(-90.000000 803201.126080 783704.031520)">
<text x="803201.126080" y="794189.542450" transform="scale(-1 1) translate(-1606402.252161 0)" textLength="32764.705135" font-size="27961.334520" lengthAdjust="spacingAndGlyphs" text-anchor="middle" opacity="0.01" style="font-family:monospace">C4</text>
</g>
<g class="stroked-text"><desc>C4</desc>
<path d="M810690 780208 L811689 779210 L812687 776214 L812687 774217 L811689 771221 L809692 769224 L807694 768225 L803700 767226 L800704 767226 L796710 768225 L794712 769224 L792715 771221 L791716 774217 L791716 776214 L792715 779210 L793714 780208 "/>
<path d="M798707 798184 L812687 798184 "/>
<path d="M790718 793190 L805697 788197 L805697 801179 "/>
</g></g>
<g style="fill:#000084; fill-opacity:0.0;  stroke:#000084; stroke-width:6291.306558; stroke-opacity:1;  stroke-linecap:round; stroke-linejoin:round;">
<g transform="rotate(-90.000000 888427.358922 698477.798678)">
<text x="888427.358922" y="719448.820539" transform="scale(-1 1) translate(-1776854.717844 0)" textLength="73530.400356" font-size="55922.710981" lengthAdjust="spacingAndGlyphs" text-anchor="middle" opacity="0.01" style="font-family:monospace">1u</text>
</g>
<g class="stroked-text"><desc>1u</desc>
<path d="M907401 691487 L907401 667520 "/>
<path d="M907401 679504 L865459 679504 L871450 675509 L875445 671515 L877442 667520 "/>
<path d="M879439 727437 L907401 727437 "/>
<path d="M879439 709462 L901409 709462 L905403 711459 L907401 715454 L907401 721446 L905403 725440 L903406 727437 "/>
</g></g>
<g style="fill:#000084; fill-opacity:0.0;  stroke:#000084; stroke-width:3355.363498; stroke-opacity:1;  stroke-linecap:round; stroke-linejoin:round;">
<g transform="rotate(-90.000000 888427.358922 783704.031520)">
<text x="888427.358922" y="794189.542450" transform="scale(-1 1) translate(-1776854.717844 0)" textLength="32764.705135" font-size="27961.334520" lengthAdjust="spacingAndGlyphs" text-anchor="middle" opacity="0.01" style="font-family:monospace">C5</text>
</g>
<g class="stroked-text"><desc>C5</desc>
<path d="M895916 780208 L896915 779210 L897914 776214 L897914 774217 L896915 771221 L894918 769224 L892921 768225 L888926 767226 L885930 767226 L881936 768225 L879939 769224 L877941 771221 L876943 774217 L876943 776214 L877941 779210 L878940 780208 "/>
<path d="M876943 799182 L876943 789196 L886929 788197 L885930 789196 L884932 791193 L884932 796186 L885930 798184 L886929 799182 L888926 800181 L893919 800181 L895916 799182 L896915 798184 L897914 796186 L897914 791193 L896915 789196 L895916 788197 "/>
</g></g>
<g style="fill:#000084; fill-opacity:0.01;  stroke:#000084; stroke-width:6291.306558; stroke-opacity:1;  stroke-linecap:round; stroke-linejoin:round;">
<text x="856467.521607" y="975127.519065" transform="scale(-1 1) translate(-1712935.043213 0)" textLength="73530.400356" font-size="55922.710981" lengthAdjust="spacingAndGlyphs" text-anchor="middle" opacity="0.01" style="font-family:monospace">1u</text>
<g class="stroked-text"><desc>1u</desc>
<path d="M863457 973130 L887424 973130 "/>
<path d="M875441 973130 L875441 931188 L879435 937179 L883430 941174 L887424 943171 "/>
<path d="M827507 945168 L827507 973130 "/>
<path d="M845482 945168 L845482 967138 L843485 971133 L839490 973130 L833499 973130 L829504 971133 L827507 969135 "/>
</g></g>
<g style="fill:#000084; fill-opacity:0.01;  stroke:#000084; stroke-width:3355.363498; stroke-opacity:1;  stroke-linecap:round; stroke-linejoin:round;">
<text x="856467.521607" y="911375.612608" transform="scale(-1 1) translate(-1712935.043213 0)" textLength="32764.705135" font-size="27961.334520" lengthAdjust="spacingAndGlyphs" text-anchor="middle" opacity="0.01" style="font-family:monospace">C6</text>
<g class="stroked-text"><desc>C6</desc>
<path d="M859962 908379 L860961 909378 L863957 910376 L865954 910376 L868950 909378 L870947 907381 L871946 905383 L872944 901389 L872944 898393 L871946 894399 L870947 892401 L868950 890404 L865954 889405 L863957 889405 L860961 890404 L859962 891403 "/>
<path d="M841987 889405 L845982 889405 L847979 890404 L848977 891403 L850975 894399 L851973 898393 L851973 906382 L850975 908379 L849976 909378 L847979 910376 L843984 910376 L841987 909378 L840988 908379 L839990 906382 L839990 901389 L840988 899392 L841987 898393 L843984 897394 L847979 897394 L849976 898393 L850975 899392 L851973 901389 "/>
</g></g>
<g style="fill:#000084; fill-opacity:0.01;  stroke:#000084; stroke-width:6291.306558; stroke-opacity:1;  stroke-linecap:round; stroke-linejoin:round;">
<text x="1026919.987290" y="1262766.054906" transform="scale(-1 1) translate(-2053839.974581 0)" textLength="113475.205897" font-size="55922.710981" lengthAdjust="spacingAndGlyphs" text-anchor="middle" opacity="0.01" style="font-family:monospace">10n</text>
<g class="stroked-text"><desc>10n</desc>
<path d="M1053882 1260768 L1077849 1260768 "/>
<path d="M1065866 1260768 L1065866 1218826 L1069860 1224818 L1073855 1228812 L1077849 1230810 "/>
<path d="M1027918 1218826 L1023924 1218826 L1019929 1220824 L1017932 1222821 L1015935 1226815 L1013937 1234804 L1013937 1244790 L1015935 1252779 L1017932 1256774 L1019929 1258771 L1023924 1260768 L1027918 1260768 L1031913 1258771 L1033910 1256774 L1035907 1252779 L1037904 1244790 L1037904 1234804 L1035907 1226815 L1033910 1222821 L1031913 1220824 L1027918 1218826 "/>
<path d="M995962 1232807 L995962 1260768 "/>
<path d="M995962 1236801 L993965 1234804 L989971 1232807 L983979 1232807 L979984 1234804 L977987 1238799 L977987 1260768 "/>
</g></g>
<g style="fill:#000084; fill-opacity:0.01;  stroke:#000084; stroke-width:3355.363498; stroke-opacity:1;  stroke-linecap:round; stroke-linejoin:round;">
<text x="1133452.778343" y="1252280.543976" transform="scale(-1 1) translate(-2266905.556685 0)" textLength="32764.705135" font-size="27961.334520" lengthAdjust="spacingAndGlyphs" text-anchor="middle" opacity="0.01" style="font-family:monospace">C7</text>
<g class="stroked-text"><desc>C7</desc>
<path d="M1136947 1249284 L1137946 1250283 L1140942 1251281 L1142939 1251281 L1145935 1250283 L1147932 1248286 L1148931 1246288 L1149930 1242294 L1149930 1239298 L1148931 1235303 L1147932 1233306 L1145935 1231309 L1142939 1230310 L1140942 1230310 L1137946 1231309 L1136947 1232308 "/>
<path d="M1129957 1230310 L1115976 1230310 L1124964 1251281 "/>
</g></g>
<g style="fill:#000084; fill-opacity:0.0;  stroke:#000084; stroke-width:6291.306558; stroke-opacity:1;  stroke-linecap:round; stroke-linejoin:round;">
<g transform="rotate(-90.000000 1112146.220132 932849.938993)">
<text x="1112146.220132" y="953820.960854" transform="scale(-1 1) translate(-2224292.440264 0)" textLength="113475.205897" font-size="55922.710981" lengthAdjust="spacingAndGlyphs" text-anchor="middle" opacity="0.01" style="font-family:monospace">10n</text>
</g>
<g class="stroked-text"><desc>10n</desc>
<path d="M1131119 905887 L1131119 881920 "/>
<path d="M1131119 893903 L1089177 893903 L1095169 889909 L1099164 885914 L1101161 881920 "/>
<path d="M1089177 931851 L1089177 935845 L1091175 939840 L1093172 941837 L1097166 943834 L1105155 945831 L1115142 945831 L1123131 943834 L1127125 941837 L1129122 939840 L1131119 935845 L1131119 931851 L1129122 927856 L1127125 925859 L1123131 923862 L1115142 921865 L1105155 921865 L1097166 923862 L1093172 925859 L1091175 927856 L1089177 931851 "/>
<path d="M1103158 963807 L1131119 963807 "/>
<path d="M1107153 963807 L1105155 965804 L1103158 969798 L1103158 975790 L1105155 979785 L1109150 981782 L1131119 981782 "/>
</g></g>
<g style="fill:#000084; fill-opacity:0.0;  stroke:#000084; stroke-width:3355.363498; stroke-opacity:1;  stroke-linecap:round; stroke-linejoin:round;">
<g transform="rotate(-90.000000 1112146.220132 1039382.730046)">
<text x="1112146.220132" y="1049868.240976" transform="scale(-1 1) translate(-2224292.440264 0)" textLength="32764.705135" font-size="27961.334520" lengthAdjust="spacingAndGlyphs" text-anchor="middle" opacity="0.01" style="font-family:monospace">C8</text>
</g>
<g class="stroked-text"><desc>C8</desc>
<path d="M1119635 1035887 L1120634 1034888 L1121633 1031893 L1121633 1029895 L1120634 1026899 L1118637 1024902 L1116639 1023904 L1112645 1022905 L1109649 1022905 L1105655 1023904 L1103657 1024902 L1101660 1026899 L1100662 1029895 L1100662 1031893 L1101660 1034888 L1102659 1035887 "/>
<path d="M1109649 1047870 L1108651 1045873 L1107652 1044875 L1105655 1043876 L1104656 1043876 L1102659 1044875 L1101660 1045873 L1100662 1047870 L1100662 1051865 L1101660 1053862 L1102659 1054861 L1104656 1055859 L1105655 1055859 L1107652 1054861 L1108651 1053862 L1109649 1051865 L1109649 1047870 L1110648 1045873 L1111646 1044875 L1113644 1043876 L1117638 1043876 L1119635 1044875 L1120634 1045873 L1121633 1047870 L1121633 1051865 L1120634 1053862 L1119635 1054861 L1117638 1055859 L1113644 1055859 L1111646 1054861 L1110648 1053862 L1109649 1051865 "/>
</g></g>
<g style="fill:#000084; fill-opacity:0.01;  stroke:#000084; stroke-width:6291.306558; stroke-opacity:1;  stroke-linecap:round; stroke-linejoin:round;">
<text x="1367824.918658" y="1614324.265379" transform="scale(-1 1) translate(-2735649.837316 0)" textLength="153420.011439" font-size="55922.710981" lengthAdjust="spacingAndGlyphs" text-anchor="middle" opacity="0.01" style="font-family:monospace">100n</text>
<g class="stroked-text"><desc>100n</desc>
<path d="M1414760 1612326 L1438726 1612326 "/>
<path d="M1426743 1612326 L1426743 1570384 L1430737 1576376 L1434732 1580371 L1438726 1582368 "/>
<path d="M1388795 1570384 L1384801 1570384 L1380806 1572382 L1378809 1574379 L1376812 1578373 L1374815 1586362 L1374815 1596349 L1376812 1604338 L1378809 1608332 L1380806 1610329 L1384801 1612326 L1388795 1612326 L1392790 1610329 L1394787 1608332 L1396784 1604338 L1398782 1596349 L1398782 1586362 L1396784 1578373 L1394787 1574379 L1392790 1572382 L1388795 1570384 "/>
<path d="M1348851 1570384 L1344856 1570384 L1340862 1572382 L1338864 1574379 L1336867 1578373 L1334870 1586362 L1334870 1596349 L1336867 1604338 L1338864 1608332 L1340862 1610329 L1344856 1612326 L1348851 1612326 L1352845 1610329 L1354842 1608332 L1356840 1604338 L1358837 1596349 L1358837 1586362 L1356840 1578373 L1354842 1574379 L1352845 1572382 L1348851 1570384 "/>
<path d="M1316895 1584365 L1316895 1612326 "/>
<path d="M1316895 1588360 L1314898 1586362 L1310903 1584365 L1304911 1584365 L1300917 1586362 L1298920 1590357 L1298920 1612326 "/>
</g></g>
<g style="fill:#000084; fill-opacity:0.01;  stroke:#000084; stroke-width:3355.363498; stroke-opacity:1;  stroke-linecap:round; stroke-linejoin:round;">
<text x="1367824.918658" y="1539919.079817" transform="scale(-1 1) translate(-2735649.837316 0)" textLength="32764.705135" font-size="27961.334520" lengthAdjust="spacingAndGlyphs" text-anchor="middle" opacity="0.01" style="font-family:monospace">C9</text>
<g class="stroked-text"><desc>C9</desc>
<path d="M1371320 1536923 L1372318 1537921 L1375314 1538920 L1377311 1538920 L1380307 1537921 L1382304 1535924 L1383303 1533927 L1384302 1529932 L1384302 1526937 L1383303 1522942 L1382304 1520945 L1380307 1518948 L1377311 1517949 L1375314 1517949 L1372318 1518948 L1371320 1519946 "/>
<path d="M1361333 1538920 L1357339 1538920 L1355342 1537921 L1354343 1536923 L1352346 1533927 L1351347 1529932 L1351347 1521943 L1352346 1519946 L1353344 1518948 L1355342 1517949 L1359336 1517949 L1361333 1518948 L1362332 1519946 L1363331 1521943 L1363331 1526937 L1362332 1528934 L1361333 1529932 L1359336 1530931 L1355342 1530931 L1353344 1529932 L1352346 1528934 L1351347 1526937 "/>
</g></g>
<g style="fill:#000084; fill-opacity:0.0;  stroke:#000084; stroke-width:6291.306558; stroke-opacity:1;  stroke-linecap:round; stroke-linejoin:round;">
<g transform="rotate(-90.000000 1559583.942552 826317.147941)">
<text x="1559583.942552" y="847288.169802" transform="scale(-1 1) translate(-3119167.885104 0)" textLength="153420.011439" font-size="55922.710981" lengthAdjust="spacingAndGlyphs" text-anchor="middle" opacity="0.01" style="font-family:monospace">100n</text>
</g>
<g class="stroked-text"><desc>100n</desc>
<path d="M1578557 779381 L1578557 755415 "/>
<path d="M1578557 767398 L1536615 767398 L1542607 763404 L1546601 759409 L1548599 755415 "/>
<path d="M1536615 805346 L1536615 809340 L1538612 813335 L1540610 815332 L1544604 817329 L1552593 819326 L1562579 819326 L1570568 817329 L1574563 815332 L1576560 813335 L1578557 809340 L1578557 805346 L1576560 801351 L1574563 799354 L1570568 797357 L1562579 795359 L1552593 795359 L1544604 797357 L1540610 799354 L1538612 801351 L1536615 805346 "/>
<path d="M1536615 845290 L1536615 849285 L1538612 853279 L1540610 855277 L1544604 857274 L1552593 859271 L1562579 859271 L1570568 857274 L1574563 855277 L1576560 853279 L1578557 849285 L1578557 845290 L1576560 841296 L1574563 839299 L1570568 837301 L1562579 835304 L1552593 835304 L1544604 837301 L1540610 839299 L1538612 841296 L1536615 845290 "/>
<path d="M1550596 877246 L1578557 877246 "/>
<path d="M1554590 877246 L1552593 879243 L1550596 883238 L1550596 889230 L1552593 893224 L1556588 895221 L1578557 895221 "/>
</g></g>
<g style="fill:#000084; fill-opacity:0.0;  stroke:#000084; stroke-width:3355.363498; stroke-opacity:1;  stroke-linecap:round; stroke-linejoin:round;">
<g transform="rotate(-90.000000 1559583.942552 964809.776309)">
<text x="1559583.942552" y="975295.287239" transform="scale(-1 1) translate(-3119167.885104 0)" textLength="52737.128876" font-size="27961.334520" lengthAdjust="spacingAndGlyphs" text-anchor="middle" opacity="0.01" style="font-family:monospace">C10</text>
</g>
<g class="stroked-text"><desc>C10</desc>
<path d="M1567073 951328 L1568072 950329 L1569070 947333 L1569070 945336 L1568072 942340 L1566074 940343 L1564077 939344 L1560083 938346 L1557087 938346 L1553092 939344 L1551095 940343 L1549098 942340 L1548099 945336 L1548099 947333 L1549098 950329 L1550097 951328 "/>
<path d="M1569070 971300 L1569070 959317 "/>
<path d="M1569070 965309 L1548099 965309 L1551095 963311 L1553092 961314 L1554091 959317 "/>
<path d="M1548099 984282 L1548099 986280 L1549098 988277 L1550097 989275 L1552094 990274 L1556088 991273 L1561081 991273 L1565076 990274 L1567073 989275 L1568072 988277 L1569070 986280 L1569070 984282 L1568072 982285 L1567073 981287 L1565076 980288 L1561081 979289 L1556088 979289 L1552094 980288 L1550097 981287 L1549098 982285 L1548099 984282 "/>
</g></g>
<g style="fill:#000084; fill-opacity:0.01;  stroke:#000084; stroke-width:6291.306558; stroke-opacity:1;  stroke-linecap:round; stroke-linejoin:round;">
<text x="398376.520081" y="1422565.241484" transform="scale(-1 1) translate(-796753.040163 0)" textLength="109480.729537" font-size="55922.710981" lengthAdjust="spacingAndGlyphs" text-anchor="middle" opacity="0.01" style="font-family:monospace">50k</text>
<g class="stroked-text"><desc>50k</desc>
<path d="M425339 1378625 L445311 1378625 L447308 1398598 L445311 1396601 L441317 1394603 L431330 1394603 L427336 1396601 L425339 1398598 L423342 1402592 L423342 1412579 L425339 1416573 L427336 1418570 L431330 1420567 L441317 1420567 L445311 1418570 L447308 1416573 "/>
<path d="M397377 1378625 L393383 1378625 L389388 1380623 L387391 1382620 L385394 1386614 L383397 1394603 L383397 1404590 L385394 1412579 L387391 1416573 L389388 1418570 L393383 1420567 L397377 1420567 L401372 1418570 L403369 1416573 L405366 1412579 L407364 1404590 L407364 1394603 L405366 1386614 L403369 1382620 L401372 1380623 L397377 1378625 "/>
<path d="M365422 1420567 L365422 1378625 "/>
<path d="M361427 1404590 L349444 1420567 "/>
<path d="M349444 1392606 L365422 1408584 "/>
</g></g>
<g style="fill:#000084; fill-opacity:0.01;  stroke:#000084; stroke-width:3355.363498; stroke-opacity:1;  stroke-linecap:round; stroke-linejoin:round;">
<text x="398376.520081" y="1337506.776817" transform="scale(-1 1) translate(-796753.040163 0)" textLength="32764.705135" font-size="27961.334520" lengthAdjust="spacingAndGlyphs" text-anchor="middle" opacity="0.01" style="font-family:monospace">R3</text>
<g class="stroked-text"><desc>R3</desc>
<path d="M401871 1336508 L408862 1326521 "/>
<path d="M413855 1336508 L413855 1315537 L405866 1315537 L403868 1316535 L402870 1317534 L401871 1319531 L401871 1322527 L402870 1324524 L403868 1325523 L405866 1326521 L413855 1326521 "/>
<path d="M394881 1315537 L381899 1315537 L388889 1323526 L385893 1323526 L383896 1324524 L382897 1325523 L381899 1327520 L381899 1332513 L382897 1334510 L383896 1335509 L385893 1336508 L391885 1336508 L393882 1335509 L394881 1334510 "/>
</g></g>
<g style="fill:#000084; fill-opacity:0.01;  stroke:#000084; stroke-width:6291.306558; stroke-opacity:1;  stroke-linecap:round; stroke-linejoin:round;">
<text x="504909.311134" y="1092313.589222" transform="scale(-1 1) translate(-1009818.622267 0)" textLength="109480.729537" font-size="55922.710981" lengthAdjust="spacingAndGlyphs" text-anchor="middle" opacity="0.01" style="font-family:monospace">40k</text>
<g class="stroked-text"><desc>40k</desc>
<path d="M533869 1062354 L533869 1090316 "/>
<path d="M543855 1046377 L553841 1076335 L527877 1076335 "/>
<path d="M503910 1048374 L499916 1048374 L495921 1050371 L493924 1052368 L491927 1056363 L489930 1064352 L489930 1074338 L491927 1082327 L493924 1086321 L495921 1088319 L499916 1090316 L503910 1090316 L507905 1088319 L509902 1086321 L511899 1082327 L513896 1074338 L513896 1064352 L511899 1056363 L509902 1052368 L507905 1050371 L503910 1048374 "/>
<path d="M471954 1090316 L471954 1048374 "/>
<path d="M467960 1074338 L455976 1090316 "/>
<path d="M455976 1062354 L471954 1078332 "/>
</g></g>
<g style="fill:#000084; fill-opacity:0.01;  stroke:#000084; stroke-width:3355.363498; stroke-opacity:1;  stroke-linecap:round; stroke-linejoin:round;">
<text x="396279.837316" y="1082151.367565" transform="scale(-1 1) translate(-792559.674631 0)" textLength="32764.705135" font-size="27961.334520" lengthAdjust="spacingAndGlyphs" text-anchor="middle" opacity="0.01" style="font-family:monospace">R4</text>
<g class="stroked-text"><desc>R4</desc>
<path d="M399774 1081152 L406765 1071166 "/>
<path d="M411758 1081152 L411758 1060181 L403769 1060181 L401772 1061180 L400773 1062178 L399774 1064176 L399774 1067172 L400773 1069169 L401772 1070167 L403769 1071166 L411758 1071166 "/>
<path d="M381799 1067172 L381799 1081152 "/>
<path d="M386792 1059183 L391786 1074162 L378803 1074162 "/>
</g></g>
<g style="fill:#000084; fill-opacity:0.01;  stroke:#000084; stroke-width:6291.306558; stroke-opacity:1;  stroke-linecap:round; stroke-linejoin:round;">
<text x="291843.729029" y="1284072.613116" transform="scale(-1 1) translate(-583687.458058 0)" textLength="109480.729537" font-size="55922.710981" lengthAdjust="spacingAndGlyphs" text-anchor="middle" opacity="0.01" style="font-family:monospace">1k5</text>
<g class="stroked-text"><desc>1k5</desc>
<path d="M316809 1282075 L340776 1282075 "/>
<path d="M328792 1282075 L328792 1240133 L332787 1246125 L336781 1250119 L340776 1252116 "/>
<path d="M298834 1282075 L298834 1240133 "/>
<path d="M294839 1266097 L282856 1282075 "/>
<path d="M282856 1254113 L298834 1270091 "/>
<path d="M244908 1240133 L264880 1240133 L266878 1260105 L264880 1258108 L260886 1256111 L250900 1256111 L246905 1258108 L244908 1260105 L242911 1264100 L242911 1274086 L244908 1278080 L246905 1280078 L250900 1282075 L260886 1282075 L264880 1280078 L266878 1278080 "/>
</g></g>
<g style="fill:#000084; fill-opacity:0.01;  stroke:#000084; stroke-width:3355.363498; stroke-opacity:1;  stroke-linecap:round; stroke-linejoin:round;">
<text x="398376.520081" y="1252280.543976" transform="scale(-1 1) translate(-796753.040163 0)" textLength="32764.705135" font-size="27961.334520" lengthAdjust="spacingAndGlyphs" text-anchor="middle" opacity="0.01" style="font-family:monospace">R5</text>
<g class="stroked-text"><desc>R5</desc>
<path d="M401871 1251281 L408862 1241295 "/>
<path d="M413855 1251281 L413855 1230310 L405866 1230310 L403868 1231309 L402870 1232308 L401871 1234305 L401871 1237301 L402870 1239298 L403868 1240297 L405866 1241295 L413855 1241295 "/>
<path d="M382897 1230310 L392884 1230310 L393882 1240297 L392884 1239298 L390886 1238299 L385893 1238299 L383896 1239298 L382897 1240297 L381899 1242294 L381899 1247287 L382897 1249284 L383896 1250283 L385893 1251281 L390886 1251281 L392884 1250283 L393882 1249284 "/>
</g></g>
<g style="fill:#000084; fill-opacity:0.01;  stroke:#000084; stroke-width:6291.306558; stroke-opacity:1;  stroke-linecap:round; stroke-linejoin:round;">
<text x="504909.311134" y="1177539.822064" transform="scale(-1 1) translate(-1009818.622267 0)" textLength="109480.729537" font-size="55922.710981" lengthAdjust="spacingAndGlyphs" text-anchor="middle" opacity="0.01" style="font-family:monospace">17k</text>
<g class="stroked-text"><desc>17k</desc>
<path d="M529874 1175542 L553841 1175542 "/>
<path d="M541858 1175542 L541858 1133600 L545852 1139592 L549847 1143586 L553841 1145583 "/>
<path d="M515894 1133600 L487932 1133600 L505907 1175542 "/>
<path d="M471954 1175542 L471954 1133600 "/>
<path d="M467960 1159564 L455976 1175542 "/>
<path d="M455976 1147581 L471954 1163559 "/>
</g></g>
<g style="fill:#000084; fill-opacity:0.01;  stroke:#000084; stroke-width:3355.363498; stroke-opacity:1;  stroke-linecap:round; stroke-linejoin:round;">
<text x="398376.520081" y="1167054.311134" transform="scale(-1 1) translate(-796753.040163 0)" textLength="32764.705135" font-size="27961.334520" lengthAdjust="spacingAndGlyphs" text-anchor="middle" opacity="0.01" style="font-family:monospace">R6</text>
<g class="stroked-text"><desc>R6</desc>
<path d="M401871 1166055 L408862 1156069 "/>
<path d="M413855 1166055 L413855 1145084 L405866 1145084 L403868 1146083 L402870 1147081 L401871 1149079 L401871 1152075 L402870 1154072 L403868 1155070 L405866 1156069 L413855 1156069 "/>
<path d="M383896 1145084 L387891 1145084 L389888 1146083 L390886 1147081 L392884 1150077 L393882 1154072 L393882 1162061 L392884 1164058 L391885 1165057 L389888 1166055 L385893 1166055 L383896 1165057 L382897 1164058 L381899 1162061 L381899 1157068 L382897 1155070 L383896 1154072 L385893 1153073 L389888 1153073 L391885 1154072 L392884 1155070 L393882 1157068 "/>
</g></g>
<g style="fill:#000084; fill-opacity:0.01;  stroke:#000084; stroke-width:6291.306558; stroke-opacity:1;  stroke-linecap:round; stroke-linejoin:round;">
<text x="824507.684291" y="548996.354855" transform="scale(-1 1) translate(-1649015.368582 0)" textLength="109480.729537" font-size="55922.710981" lengthAdjust="spacingAndGlyphs" text-anchor="middle" opacity="0.01" style="font-family:monospace">10k</text>
<g class="stroked-text"><desc>10k</desc>
<path d="M849473 546999 L873440 546999 "/>
<path d="M861456 546999 L861456 505057 L865451 511048 L869445 515043 L873440 517040 "/>
<path d="M823509 505057 L819514 505057 L815520 507054 L813522 509051 L811525 513046 L809528 521035 L809528 531021 L811525 539010 L813522 543004 L815520 545001 L819514 546999 L823509 546999 L827503 545001 L829500 543004 L831497 539010 L833495 531021 L833495 521035 L831497 513046 L829500 509051 L827503 507054 L823509 505057 "/>
<path d="M791553 546999 L791553 505057 "/>
<path d="M787558 531021 L775575 546999 "/>
<path d="M775575 519037 L791553 535015 "/>
</g></g>
<g style="fill:#000084; fill-opacity:0.01;  stroke:#000084; stroke-width:3355.363498; stroke-opacity:1;  stroke-linecap:round; stroke-linejoin:round;">
<text x="835160.963396" y="474591.169293" transform="scale(-1 1) translate(-1670321.926792 0)" textLength="52737.128876" font-size="27961.334520" lengthAdjust="spacingAndGlyphs" text-anchor="middle" opacity="0.01" style="font-family:monospace">R10</text>
<g class="stroked-text"><desc>R10</desc>
<path d="M848642 473592 L855632 463606 "/>
<path d="M860625 473592 L860625 452621 L852636 452621 L850639 453620 L849640 454618 L848642 456616 L848642 459611 L849640 461609 L850639 462607 L852636 463606 L860625 463606 "/>
<path d="M828669 473592 L840653 473592 "/>
<path d="M834661 473592 L834661 452621 L836658 455617 L838656 457614 L840653 458613 "/>
<path d="M815687 452621 L813690 452621 L811693 453620 L810694 454618 L809696 456616 L808697 460610 L808697 465603 L809696 469598 L810694 471595 L811693 472593 L813690 473592 L815687 473592 L817685 472593 L818683 471595 L819682 469598 L820680 465603 L820680 460610 L819682 456616 L818683 454618 L817685 453620 L815687 452621 "/>
</g></g>
<g style="fill:#000084; fill-opacity:0.0;  stroke:#000084; stroke-width:6291.306558; stroke-opacity:1;  stroke-linecap:round; stroke-linejoin:round;">
<g transform="rotate(-90.000000 46818.309609 911543.380783)">
<text x="46818.309609" y="932514.402644" transform="scale(-1 1) translate(-93636.619217 0)" textLength="109480.729537" font-size="55922.710981" lengthAdjust="spacingAndGlyphs" text-anchor="middle" opacity="0.01" style="font-family:monospace">3k9</text>
</g>
<g class="stroked-text"><desc>3k9</desc>
<path d="M23850 860613 L23850 886577 L39827 872597 L39827 878588 L41825 882583 L43822 884580 L47816 886577 L57803 886577 L61797 884580 L63794 882583 L65792 878588 L65792 866605 L63794 862610 L61797 860613 "/>
<path d="M65792 904553 L23850 904553 "/>
<path d="M49814 908547 L65792 920530 "/>
<path d="M37830 920530 L53808 904553 "/>
<path d="M65792 940503 L65792 948492 L63794 952486 L61797 954484 L55805 958478 L47816 960475 L31839 960475 L27844 958478 L25847 956481 L23850 952486 L23850 944497 L25847 940503 L27844 938506 L31839 936508 L41825 936508 L45819 938506 L47816 940503 L49814 944497 L49814 952486 L47816 956481 L45819 958478 L41825 960475 "/>
</g></g>
<g style="fill:#000084; fill-opacity:0.0;  stroke:#000084; stroke-width:3355.363498; stroke-opacity:1;  stroke-linecap:round; stroke-linejoin:round;">
<g transform="rotate(-90.000000 110737.984240 911543.380783)">
<text x="110737.984240" y="922028.891713" transform="scale(-1 1) translate(-221475.968480 0)" textLength="52737.128876" font-size="27961.334520" lengthAdjust="spacingAndGlyphs" text-anchor="middle" opacity="0.01" style="font-family:monospace">R11</text>
</g>
<g class="stroked-text"><desc>R11</desc>
<path d="M120224 898061 L110238 891071 "/>
<path d="M120224 886078 L99253 886078 L99253 894067 L100252 896064 L101251 897063 L103248 898061 L106244 898061 L108241 897063 L109240 896064 L110238 894067 L110238 886078 "/>
<path d="M120224 918034 L120224 906050 "/>
<path d="M120224 912042 L99253 912042 L102249 910045 L104246 908048 L105245 906050 "/>
<path d="M120224 938006 L120224 926023 "/>
<path d="M120224 932015 L99253 932015 L102249 930017 L104246 928020 L105245 926023 "/>
</g></g>
<g style="fill:#000084; fill-opacity:0.01;  stroke:#000084; stroke-width:6291.306558; stroke-opacity:1;  stroke-linecap:round; stroke-linejoin:round;">
<text x="973653.591764" y="548996.354855" transform="scale(-1 1) translate(-1947307.183528 0)" textLength="109480.729537" font-size="55922.710981" lengthAdjust="spacingAndGlyphs" text-anchor="middle" opacity="0.01" style="font-family:monospace">10k</text>
<g class="stroked-text"><desc>10k</desc>
<path d="M998619 546999 L1022585 546999 "/>
<path d="M1010602 546999 L1010602 505057 L1014596 511048 L1018591 515043 L1022585 517040 "/>
<path d="M972654 505057 L968660 505057 L964665 507054 L962668 509051 L960671 513046 L958674 521035 L958674 531021 L960671 539010 L962668 543004 L964665 545001 L968660 546999 L972654 546999 L976649 545001 L978646 543004 L980643 539010 L982641 531021 L982641 521035 L980643 513046 L978646 509051 L976649 507054 L972654 505057 "/>
<path d="M940699 546999 L940699 505057 "/>
<path d="M936704 531021 L924721 546999 "/>
<path d="M924721 519037 L940699 535015 "/>
</g></g>
<g style="fill:#000084; fill-opacity:0.01;  stroke:#000084; stroke-width:3355.363498; stroke-opacity:1;  stroke-linecap:round; stroke-linejoin:round;">
<text x="984306.870869" y="474591.169293" transform="scale(-1 1) translate(-1968613.741739 0)" textLength="52737.128876" font-size="27961.334520" lengthAdjust="spacingAndGlyphs" text-anchor="middle" opacity="0.01" style="font-family:monospace">R12</text>
<g class="stroked-text"><desc>R12</desc>
<path d="M997788 473592 L1004778 463606 "/>
<path d="M1009771 473592 L1009771 452621 L1001782 452621 L999785 453620 L998786 454618 L997788 456616 L997788 459611 L998786 461609 L999785 462607 L1001782 463606 L1009771 463606 "/>
<path d="M977815 473592 L989799 473592 "/>
<path d="M983807 473592 L983807 452621 L985804 455617 L987802 457614 L989799 458613 "/>
<path d="M969826 454618 L968828 453620 L966831 452621 L961837 452621 L959840 453620 L958842 454618 L957843 456616 L957843 458613 L958842 461609 L970825 473592 L957843 473592 "/>
</g></g>
<g style="fill:#000084; fill-opacity:0.0;  stroke:#000084; stroke-width:6291.306558; stroke-opacity:1;  stroke-linecap:round; stroke-linejoin:round;">
<g transform="rotate(-90.000000 1389131.476868 528025.332994)">
<text x="1389131.476868" y="548996.354855" transform="scale(-1 1) translate(-2778262.953737 0)" textLength="157414.487799" font-size="55922.710981" lengthAdjust="spacingAndGlyphs" text-anchor="middle" opacity="0.01" style="font-family:monospace">330R</text>
</g>
<g class="stroked-text"><desc>330R</desc>
<path d="M1366163 453128 L1366163 479092 L1382141 465112 L1382141 471104 L1384138 475098 L1386135 477095 L1390130 479092 L1400116 479092 L1404110 477095 L1406107 475098 L1408105 471104 L1408105 459120 L1406107 455126 L1404110 453128 "/>
<path d="M1366163 493073 L1366163 519037 L1382141 505057 L1382141 511048 L1384138 515043 L1386135 517040 L1390130 519037 L1400116 519037 L1404110 517040 L1406107 515043 L1408105 511048 L1408105 499065 L1406107 495070 L1404110 493073 "/>
<path d="M1366163 545001 L1366163 548996 L1368160 552990 L1370157 554988 L1374152 556985 L1382141 558982 L1392127 558982 L1400116 556985 L1404110 554988 L1406107 552990 L1408105 548996 L1408105 545001 L1406107 541007 L1404110 539010 L1400116 537012 L1392127 535015 L1382141 535015 L1374152 537012 L1370157 539010 L1368160 541007 L1366163 545001 "/>
<path d="M1408105 600924 L1388132 586943 "/>
<path d="M1408105 576957 L1366163 576957 L1366163 592935 L1368160 596930 L1370157 598927 L1374152 600924 L1380143 600924 L1384138 598927 L1386135 596930 L1388132 592935 L1388132 576957 "/>
</g></g>
<g style="fill:#000084; fill-opacity:0.0;  stroke:#000084; stroke-width:3355.363498; stroke-opacity:1;  stroke-linecap:round; stroke-linejoin:round;">
<g transform="rotate(-90.000000 1389131.476868 655864.682257)">
<text x="1389131.476868" y="666350.193188" transform="scale(-1 1) translate(-2778262.953737 0)" textLength="52737.128876" font-size="27961.334520" lengthAdjust="spacingAndGlyphs" text-anchor="middle" opacity="0.01" style="font-family:monospace">R13</text>
</g>
<g class="stroked-text"><desc>R13</desc>
<path d="M1398618 642383 L1388632 635392 "/>
<path d="M1398618 630399 L1377647 630399 L1377647 638388 L1378645 640386 L1379644 641384 L1381641 642383 L1384637 642383 L1386634 641384 L1387633 640386 L1388632 638388 L1388632 630399 "/>
<path d="M1398618 662355 L1398618 650372 "/>
<path d="M1398618 656363 L1377647 656363 L1380643 654366 L1382640 652369 L1383639 650372 "/>
<path d="M1377647 669346 L1377647 682328 L1385636 675337 L1385636 678333 L1386634 680330 L1387633 681329 L1389630 682328 L1394623 682328 L1396621 681329 L1397619 680330 L1398618 678333 L1398618 672341 L1397619 670344 L1396621 669346 "/>
</g></g>
<g style="fill:#000084; fill-opacity:0.01;  stroke:#000084; stroke-width:6291.306558; stroke-opacity:1;  stroke-linecap:round; stroke-linejoin:round;">
<text x="1176065.894764" y="1614324.265379" transform="scale(-1 1) translate(-2352131.789527 0)" textLength="109480.729537" font-size="55922.710981" lengthAdjust="spacingAndGlyphs" text-anchor="middle" opacity="0.01" style="font-family:monospace">10k</text>
<g class="stroked-text"><desc>10k</desc>
<path d="M1201031 1612326 L1224998 1612326 "/>
<path d="M1213014 1612326 L1213014 1570384 L1217009 1576376 L1221003 1580371 L1224998 1582368 "/>
<path d="M1175067 1570384 L1171072 1570384 L1167078 1572382 L1165081 1574379 L1163083 1578373 L1161086 1586362 L1161086 1596349 L1163083 1604338 L1165081 1608332 L1167078 1610329 L1171072 1612326 L1175067 1612326 L1179061 1610329 L1181058 1608332 L1183056 1604338 L1185053 1596349 L1185053 1586362 L1183056 1578373 L1181058 1574379 L1179061 1572382 L1175067 1570384 "/>
<path d="M1143111 1612326 L1143111 1570384 "/>
<path d="M1139116 1596349 L1127133 1612326 "/>
<path d="M1127133 1584365 L1143111 1600343 "/>
</g></g>
<g style="fill:#000084; fill-opacity:0.01;  stroke:#000084; stroke-width:3355.363498; stroke-opacity:1;  stroke-linecap:round; stroke-linejoin:round;">
<text x="1176065.894764" y="1539919.079817" transform="scale(-1 1) translate(-2352131.789527 0)" textLength="52737.128876" font-size="27961.334520" lengthAdjust="spacingAndGlyphs" text-anchor="middle" opacity="0.01" style="font-family:monospace">R14</text>
<g class="stroked-text"><desc>R14</desc>
<path d="M1189547 1538920 L1196537 1528934 "/>
<path d="M1201530 1538920 L1201530 1517949 L1193541 1517949 L1191544 1518948 L1190545 1519946 L1189547 1521943 L1189547 1524939 L1190545 1526937 L1191544 1527935 L1193541 1528934 L1201530 1528934 "/>
<path d="M1169574 1538920 L1181558 1538920 "/>
<path d="M1175566 1538920 L1175566 1517949 L1177563 1520945 L1179561 1522942 L1181558 1523941 "/>
<path d="M1151599 1524939 L1151599 1538920 "/>
<path d="M1156592 1516950 L1161585 1531930 L1148603 1531930 "/>
</g></g>
<g style="fill:#000084; fill-opacity:0.01;  stroke:#000084; stroke-width:6291.306558; stroke-opacity:1;  stroke-linecap:round; stroke-linejoin:round;">
<text x="1261292.127605" y="1379952.125064" transform="scale(-1 1) translate(-2522584.255211 0)" textLength="149425.535079" font-size="55922.710981" lengthAdjust="spacingAndGlyphs" text-anchor="middle" opacity="0.01" style="font-family:monospace">180k</text>
<g class="stroked-text"><desc>180k</desc>
<path d="M1306230 1377954 L1330196 1377954 "/>
<path d="M1318213 1377954 L1318213 1336012 L1322207 1342004 L1326202 1345999 L1330196 1347996 "/>
<path d="M1282263 1353987 L1286257 1351990 L1288254 1349993 L1290252 1345999 L1290252 1344001 L1288254 1340007 L1286257 1338010 L1282263 1336012 L1274274 1336012 L1270279 1338010 L1268282 1340007 L1266285 1344001 L1266285 1345999 L1268282 1349993 L1270279 1351990 L1274274 1353987 L1282263 1353987 L1286257 1355985 L1288254 1357982 L1290252 1361976 L1290252 1369965 L1288254 1373960 L1286257 1375957 L1282263 1377954 L1274274 1377954 L1270279 1375957 L1268282 1373960 L1266285 1369965 L1266285 1361976 L1268282 1357982 L1270279 1355985 L1274274 1353987 "/>
<path d="M1240321 1336012 L1236326 1336012 L1232332 1338010 L1230334 1340007 L1228337 1344001 L1226340 1351990 L1226340 1361976 L1228337 1369965 L1230334 1373960 L1232332 1375957 L1236326 1377954 L1240321 1377954 L1244315 1375957 L1246312 1373960 L1248310 1369965 L1250307 1361976 L1250307 1351990 L1248310 1344001 L1246312 1340007 L1244315 1338010 L1240321 1336012 "/>
<path d="M1208365 1377954 L1208365 1336012 "/>
<path d="M1204370 1361976 L1192387 1377954 "/>
<path d="M1192387 1349993 L1208365 1365971 "/>
</g></g>
<g style="fill:#000084; fill-opacity:0.0;  stroke:#000084; stroke-width:3355.363498; stroke-opacity:1;  stroke-linecap:round; stroke-linejoin:round;">
<g transform="rotate(-90.000000 1154759.336553 1358981.103203)">
<text x="1154759.336553" y="1369466.614133" transform="scale(-1 1) translate(-2309518.673106 0)" textLength="52737.128876" font-size="27961.334520" lengthAdjust="spacingAndGlyphs" text-anchor="middle" opacity="0.01" style="font-family:monospace">R15</text>
</g>
<g class="stroked-text"><desc>R15</desc>
<path d="M1164246 1345499 L1154260 1338509 "/>
<path d="M1164246 1333516 L1143275 1333516 L1143275 1341505 L1144273 1343502 L1145272 1344501 L1147269 1345499 L1150265 1345499 L1152262 1344501 L1153261 1343502 L1154260 1341505 L1154260 1333516 "/>
<path d="M1164246 1365472 L1164246 1353488 "/>
<path d="M1164246 1359480 L1143275 1359480 L1146271 1357483 L1148268 1355485 L1149266 1353488 "/>
<path d="M1143275 1384445 L1143275 1374459 L1153261 1373461 L1152262 1374459 L1151264 1376456 L1151264 1381450 L1152262 1383447 L1153261 1384445 L1155258 1385444 L1160251 1385444 L1162248 1384445 L1163247 1383447 L1164246 1381450 L1164246 1376456 L1163247 1374459 L1162248 1373461 "/>
</g></g>
<g style="fill:#000084; fill-opacity:0.01;  stroke:#000084; stroke-width:6291.306558; stroke-opacity:1;  stroke-linecap:round; stroke-linejoin:round;">
<text x="984306.870869" y="1092313.589222" transform="scale(-1 1) translate(-1968613.741739 0)" textLength="149425.535079" font-size="55922.710981" lengthAdjust="spacingAndGlyphs" text-anchor="middle" opacity="0.01" style="font-family:monospace">180k</text>
<g class="stroked-text"><desc>180k</desc>
<path d="M1029244 1090316 L1053211 1090316 "/>
<path d="M1041228 1090316 L1041228 1048374 L1045222 1054366 L1049217 1058360 L1053211 1060357 "/>
<path d="M1005277 1066349 L1009272 1064352 L1011269 1062354 L1013266 1058360 L1013266 1056363 L1011269 1052368 L1009272 1050371 L1005277 1048374 L997288 1048374 L993294 1050371 L991297 1052368 L989299 1056363 L989299 1058360 L991297 1062354 L993294 1064352 L997288 1066349 L1005277 1066349 L1009272 1068346 L1011269 1070343 L1013266 1074338 L1013266 1082327 L1011269 1086321 L1009272 1088319 L1005277 1090316 L997288 1090316 L993294 1088319 L991297 1086321 L989299 1082327 L989299 1074338 L991297 1070343 L993294 1068346 L997288 1066349 "/>
<path d="M963335 1048374 L959341 1048374 L955346 1050371 L953349 1052368 L951352 1056363 L949355 1064352 L949355 1074338 L951352 1082327 L953349 1086321 L955346 1088319 L959341 1090316 L963335 1090316 L967330 1088319 L969327 1086321 L971324 1082327 L973322 1074338 L973322 1064352 L971324 1056363 L969327 1052368 L967330 1050371 L963335 1048374 "/>
<path d="M931379 1090316 L931379 1048374 "/>
<path d="M927385 1074338 L915402 1090316 "/>
<path d="M915402 1062354 L931379 1078332 "/>
</g></g>
<g style="fill:#000084; fill-opacity:0.01;  stroke:#000084; stroke-width:3355.363498; stroke-opacity:1;  stroke-linecap:round; stroke-linejoin:round;">
<text x="994960.149975" y="1017908.403660" transform="scale(-1 1) translate(-1989920.299949 0)" textLength="52737.128876" font-size="27961.334520" lengthAdjust="spacingAndGlyphs" text-anchor="middle" opacity="0.01" style="font-family:monospace">R16</text>
<g class="stroked-text"><desc>R16</desc>
<path d="M1008441 1016909 L1015431 1006923 "/>
<path d="M1020424 1016909 L1020424 995938 L1012435 995938 L1010438 996937 L1009440 997935 L1008441 999933 L1008441 1002929 L1009440 1004926 L1010438 1005924 L1012435 1006923 L1020424 1006923 "/>
<path d="M988469 1016909 L1000452 1016909 "/>
<path d="M994460 1016909 L994460 995938 L996458 998934 L998455 1000931 L1000452 1001930 "/>
<path d="M970493 995938 L974488 995938 L976485 996937 L977484 997935 L979481 1000931 L980480 1004926 L980480 1012915 L979481 1014912 L978482 1015911 L976485 1016909 L972491 1016909 L970493 1015911 L969495 1014912 L968496 1012915 L968496 1007922 L969495 1005924 L970493 1004926 L972491 1003927 L976485 1003927 L978482 1004926 L979481 1005924 L980480 1007922 "/>
</g></g>
<g style="fill:#000084; fill-opacity:0.01;  stroke:#000084; stroke-width:6291.306558; stroke-opacity:1;  stroke-linecap:round; stroke-linejoin:round;">
<text x="1026919.987290" y="1177539.822064" transform="scale(-1 1) translate(-2053839.974581 0)" textLength="109480.729537" font-size="55922.710981" lengthAdjust="spacingAndGlyphs" text-anchor="middle" opacity="0.01" style="font-family:monospace">33k</text>
<g class="stroked-text"><desc>33k</desc>
<path d="M1077849 1133600 L1051885 1133600 L1065866 1149578 L1059874 1149578 L1055879 1151575 L1053882 1153572 L1051885 1157567 L1051885 1167553 L1053882 1171548 L1055879 1173545 L1059874 1175542 L1071857 1175542 L1075852 1173545 L1077849 1171548 "/>
<path d="M1037904 1133600 L1011940 1133600 L1025921 1149578 L1019929 1149578 L1015935 1151575 L1013937 1153572 L1011940 1157567 L1011940 1167553 L1013937 1171548 L1015935 1173545 L1019929 1175542 L1031913 1175542 L1035907 1173545 L1037904 1171548 "/>
<path d="M993965 1175542 L993965 1133600 "/>
<path d="M989971 1159564 L977987 1175542 "/>
<path d="M977987 1147581 L993965 1163559 "/>
</g></g>
<g style="fill:#000084; fill-opacity:0.01;  stroke:#000084; stroke-width:3355.363498; stroke-opacity:1;  stroke-linecap:round; stroke-linejoin:round;">
<text x="1133452.778343" y="1167054.311134" transform="scale(-1 1) translate(-2266905.556685 0)" textLength="52737.128876" font-size="27961.334520" lengthAdjust="spacingAndGlyphs" text-anchor="middle" opacity="0.01" style="font-family:monospace">R17</text>
<g class="stroked-text"><desc>R17</desc>
<path d="M1146934 1166055 L1153924 1156069 "/>
<path d="M1158917 1166055 L1158917 1145084 L1150928 1145084 L1148931 1146083 L1147932 1147081 L1146934 1149079 L1146934 1152075 L1147932 1154072 L1148931 1155070 L1150928 1156069 L1158917 1156069 "/>
<path d="M1126961 1166055 L1138945 1166055 "/>
<path d="M1132953 1166055 L1132953 1145084 L1134950 1148080 L1136947 1150077 L1138945 1151076 "/>
<path d="M1119971 1145084 L1105990 1145084 L1114978 1166055 "/>
</g></g>
<g style="fill:#000084; fill-opacity:0.0;  stroke:#000084; stroke-width:6291.306558; stroke-opacity:1;  stroke-linecap:round; stroke-linejoin:round;">
<g transform="rotate(-90.000000 1197372.452974 932849.938993)">
<text x="1197372.452974" y="953820.960854" transform="scale(-1 1) translate(-2394744.905948 0)" textLength="109480.729537" font-size="55922.710981" lengthAdjust="spacingAndGlyphs" text-anchor="middle" opacity="0.01" style="font-family:monospace">33k</text>
</g>
<g class="stroked-text"><desc>33k</desc>
<path d="M1174404 881920 L1174404 907884 L1190382 893903 L1190382 899895 L1192379 903889 L1194376 905887 L1198371 907884 L1208357 907884 L1212351 905887 L1214348 903889 L1216346 899895 L1216346 887912 L1214348 883917 L1212351 881920 "/>
<path d="M1174404 921865 L1174404 947829 L1190382 933848 L1190382 939840 L1192379 943834 L1194376 945831 L1198371 947829 L1208357 947829 L1212351 945831 L1214348 943834 L1216346 939840 L1216346 927856 L1214348 923862 L1212351 921865 "/>
<path d="M1216346 965804 L1174404 965804 "/>
<path d="M1200368 969798 L1216346 981782 "/>
<path d="M1188384 981782 L1204362 965804 "/>
</g></g>
<g style="fill:#000084; fill-opacity:0.0;  stroke:#000084; stroke-width:3355.363498; stroke-opacity:1;  stroke-linecap:round; stroke-linejoin:round;">
<g transform="rotate(-90.000000 1197372.452974 1039382.730046)">
<text x="1197372.452974" y="1049868.240976" transform="scale(-1 1) translate(-2394744.905948 0)" textLength="52737.128876" font-size="27961.334520" lengthAdjust="spacingAndGlyphs" text-anchor="middle" opacity="0.01" style="font-family:monospace">R18</text>
</g>
<g class="stroked-text"><desc>R18</desc>
<path d="M1206859 1025901 L1196873 1018910 "/>
<path d="M1206859 1013917 L1185888 1013917 L1185888 1021906 L1186886 1023904 L1187885 1024902 L1189882 1025901 L1192878 1025901 L1194875 1024902 L1195874 1023904 L1196873 1021906 L1196873 1013917 "/>
<path d="M1206859 1045873 L1206859 1033890 "/>
<path d="M1206859 1039882 L1185888 1039882 L1188884 1037884 L1190881 1035887 L1191880 1033890 "/>
<path d="M1194875 1057857 L1193877 1055859 L1192878 1054861 L1190881 1053862 L1189882 1053862 L1187885 1054861 L1186886 1055859 L1185888 1057857 L1185888 1061851 L1186886 1063848 L1187885 1064847 L1189882 1065846 L1190881 1065846 L1192878 1064847 L1193877 1063848 L1194875 1061851 L1194875 1057857 L1195874 1055859 L1196873 1054861 L1198870 1053862 L1202864 1053862 L1204862 1054861 L1205860 1055859 L1206859 1057857 L1206859 1061851 L1205860 1063848 L1204862 1064847 L1202864 1065846 L1198870 1065846 L1196873 1064847 L1195874 1063848 L1194875 1061851 "/>
</g></g>
<g style="fill:#000084; fill-opacity:0.0;  stroke:#000084; stroke-width:6291.306558; stroke-opacity:1;  stroke-linecap:round; stroke-linejoin:round;">
<g transform="rotate(-90.000000 2710138.085918 1071342.567361)">
<text x="2710138.085918" y="1092313.589222" transform="scale(-1 1) translate(-5420276.171835 0)" textLength="109480.729537" font-size="55922.710981" lengthAdjust="spacingAndGlyphs" text-anchor="middle" opacity="0.01" style="font-family:monospace">10k</text>
</g>
<g class="stroked-text"><desc>10k</desc>
<path d="M2729111 1046377 L2729111 1022410 "/>
<path d="M2729111 1034393 L2687169 1034393 L2693161 1030399 L2697156 1026404 L2699153 1022410 "/>
<path d="M2687169 1072341 L2687169 1076335 L2689167 1080330 L2691164 1082327 L2695158 1084324 L2703147 1086321 L2713133 1086321 L2721122 1084324 L2725117 1082327 L2727114 1080330 L2729111 1076335 L2729111 1072341 L2727114 1068346 L2725117 1066349 L2721122 1064352 L2713133 1062354 L2703147 1062354 L2695158 1064352 L2691164 1066349 L2689167 1068346 L2687169 1072341 "/>
<path d="M2729111 1104297 L2687169 1104297 "/>
<path d="M2713133 1108291 L2729111 1120274 "/>
<path d="M2701150 1120274 L2717128 1104297 "/>
</g></g>
<g style="fill:#000084; fill-opacity:0.0;  stroke:#000084; stroke-width:3355.363498; stroke-opacity:1;  stroke-linecap:round; stroke-linejoin:round;">
<g transform="rotate(-90.000000 2710138.085918 1177875.358414)">
<text x="2710138.085918" y="1188360.869344" transform="scale(-1 1) translate(-5420276.171835 0)" textLength="52737.128876" font-size="27961.334520" lengthAdjust="spacingAndGlyphs" text-anchor="middle" opacity="0.01" style="font-family:monospace">R22</text>
</g>
<g class="stroked-text"><desc>R22</desc>
<path d="M2719624 1164393 L2709638 1157403 "/>
<path d="M2719624 1152410 L2698653 1152410 L2698653 1160399 L2699652 1162396 L2700651 1163395 L2702648 1164393 L2705644 1164393 L2707641 1163395 L2708640 1162396 L2709638 1160399 L2709638 1152410 "/>
<path d="M2700651 1172382 L2699652 1173381 L2698653 1175378 L2698653 1180371 L2699652 1182369 L2700651 1183367 L2702648 1184366 L2704645 1184366 L2707641 1183367 L2719624 1171384 L2719624 1184366 "/>
<path d="M2700651 1192355 L2699652 1193353 L2698653 1195351 L2698653 1200344 L2699652 1202341 L2700651 1203340 L2702648 1204338 L2704645 1204338 L2707641 1203340 L2719624 1191356 L2719624 1204338 "/>
</g></g>
<g style="fill:#000084; fill-opacity:0.0;  stroke:#000084; stroke-width:6291.306558; stroke-opacity:1;  stroke-linecap:round; stroke-linejoin:round;">
<g transform="rotate(-90.000000 2816670.876970 1071342.567361)">
<text x="2816670.876970" y="1092313.589222" transform="scale(-1 1) translate(-5633341.753940 0)" textLength="109480.729537" font-size="55922.710981" lengthAdjust="spacingAndGlyphs" text-anchor="middle" opacity="0.01" style="font-family:monospace">10k</text>
</g>
<g class="stroked-text"><desc>10k</desc>
<path d="M2835644 1046377 L2835644 1022410 "/>
<path d="M2835644 1034393 L2793702 1034393 L2799694 1030399 L2803688 1026404 L2805686 1022410 "/>
<path d="M2793702 1072341 L2793702 1076335 L2795699 1080330 L2797697 1082327 L2801691 1084324 L2809680 1086321 L2819666 1086321 L2827655 1084324 L2831650 1082327 L2833647 1080330 L2835644 1076335 L2835644 1072341 L2833647 1068346 L2831650 1066349 L2827655 1064352 L2819666 1062354 L2809680 1062354 L2801691 1064352 L2797697 1066349 L2795699 1068346 L2793702 1072341 "/>
<path d="M2835644 1104297 L2793702 1104297 "/>
<path d="M2819666 1108291 L2835644 1120274 "/>
<path d="M2807683 1120274 L2823661 1104297 "/>
</g></g>
<g style="fill:#000084; fill-opacity:0.0;  stroke:#000084; stroke-width:3355.363498; stroke-opacity:1;  stroke-linecap:round; stroke-linejoin:round;">
<g transform="rotate(-90.000000 2816670.876970 1177875.358414)">
<text x="2816670.876970" y="1188360.869344" transform="scale(-1 1) translate(-5633341.753940 0)" textLength="52737.128876" font-size="27961.334520" lengthAdjust="spacingAndGlyphs" text-anchor="middle" opacity="0.01" style="font-family:monospace">R24</text>
</g>
<g class="stroked-text"><desc>R24</desc>
<path d="M2826157 1164393 L2816171 1157403 "/>
<path d="M2826157 1152410 L2805186 1152410 L2805186 1160399 L2806185 1162396 L2807183 1163395 L2809181 1164393 L2812177 1164393 L2814174 1163395 L2815172 1162396 L2816171 1160399 L2816171 1152410 "/>
<path d="M2807183 1172382 L2806185 1173381 L2805186 1175378 L2805186 1180371 L2806185 1182369 L2807183 1183367 L2809181 1184366 L2811178 1184366 L2814174 1183367 L2826157 1171384 L2826157 1184366 "/>
<path d="M2812177 1202341 L2826157 1202341 "/>
<path d="M2804188 1197348 L2819167 1192355 L2819167 1205337 "/>
</g></g>
<g style="fill:#000084; fill-opacity:0.0;  stroke:#000084; stroke-width:6291.306558; stroke-opacity:1;  stroke-linecap:round; stroke-linejoin:round;">
<path d="M1001754 758874 L1052085 758874 "/>
<path d="M1052085 758874 L1052085 851146 "/>
<path d="M1052085 851146 L1001754 851146 "/>
<path d="M1001754 851146 L1001754 758874 "/>
<path d="M243694 1095585 L75926 1095585 "/>
<path d="M75926 1066225 L247888 1066225 "/>
<path d="M75926 1225605 L75926 1066225 "/>
<path d="M247888 1225605 L75926 1225605 "/>
<path d="M247888 1066225 L247888 1225605 "/>
<path d="M661269 797461 L619327 755518 "/>
<path d="M661269 961034 L661269 797461 "/>
<path d="M497695 961034 L661269 961034 "/>
<path d="M497695 755518 L497695 961034 "/>
<path d="M619327 755518 L497695 755518 "/>
<path d="M1357507 1134255 L1441391 1134255 "/>
<path d="M1441391 1134255 L1441391 1008429 "/>
<path d="M1441391 1008429 L1315565 1008429 "/>
<path d="M1315565 1008429 L1315565 1092313 "/>
<path d="M1315565 1092313 L1357507 1134255 "/>
</g>
<g style="fill:#000084; fill-opacity:0.0;  stroke:#000084; stroke-width:4194.204372; stroke-opacity:1;  stroke-linecap:round; stroke-linejoin:round;">
<path d="M1724835 870104 L1724835 987542 "/>
<path d="M1724835 987542 L1695476 1016901 "/>
<path d="M1695476 1016901 L1607397 1016901 "/>
<path d="M1607397 1016901 L1607397 870104 "/>
<path d="M1607397 870104 L1724835 870104 "/>
<path d="M860326 1326350 L860326 1242466 "/>
<path d="M809995 1326350 L860326 1326350 "/>
<path d="M809995 1242466 L809995 1326350 "/>
<path d="M860326 1242466 L809995 1242466 "/>
<path d="M511703 1326350 L562034 1326350 "/>
<path d="M562034 1326350 L562034 1242466 "/>
<path d="M562034 1242466 L511703 1242466 "/>
<path d="M511703 1242466 L511703 1326350 "/>
<path d="M775099 1326350 L775099 1242466 "/>
<path d="M724769 1326350 L775099 1326350 "/>
<path d="M724769 1242466 L724769 1326350 "/>
<path d="M775099 1242466 L724769 1242466 "/>
<path d="M596930 1326350 L647260 1326350 "/>
<path d="M647260 1326350 L647260 1242466 "/>
<path d="M647260 1242466 L596930 1242466 "/>
<path d="M596930 1242466 L596930 1326350 "/>
</g>
<g style="fill:#000084; fill-opacity:0.0;  stroke:#000084; stroke-width:6291.306558; stroke-opacity:1;  stroke-linecap:round; stroke-linejoin:round;">
<path d="M1201633 718719 L1320950 718719 "/>
<path d="M1201633 510980 L1201633 718719 "/>
<path d="M1320950 507784 L1201633 507784 "/>
<path d="M1320950 716588 L1320950 508849 "/>
</g>
<g style="fill:#000084; fill-opacity:0.0;  stroke:#000084; stroke-width:4194.204372; stroke-opacity:1;  stroke-linecap:round; stroke-linejoin:round;">
<path d="M217270 915737 L217270 922028 "/>
<path d="M208882 915737 L217270 903154 "/>
<path d="M225659 915737 L208882 915737 "/>
<path d="M217270 903154 L225659 915737 "/>
<path d="M217270 903154 L217270 896863 "/>
<path d="M225659 903154 L208882 903154 "/>
<path d="M198396 938805 L236144 938805 "/>
<path d="M198396 884281 L198396 938805 "/>
<path d="M236144 884281 L198396 884281 "/>
<path d="M236144 938805 L236144 884281 "/>
<path d="M330598 805681 L330598 889565 "/>
<path d="M380928 805681 L330598 805681 "/>
<path d="M380928 889565 L380928 805681 "/>
<path d="M330598 889565 L380928 889565 "/>
<path d="M828366 825646 L828366 741761 "/>
<path d="M778035 825646 L828366 825646 "/>
<path d="M778035 741761 L778035 825646 "/>
<path d="M828366 741761 L778035 741761 "/>
<path d="M913592 741761 L863262 741761 "/>
<path d="M863262 741761 L863262 825646 "/>
<path d="M863262 825646 L913592 825646 "/>
<path d="M913592 825646 L913592 741761 "/>
<path d="M814525 926055 L898409 926055 "/>
<path d="M814525 875724 L814525 926055 "/>
<path d="M898409 875724 L814525 875724 "/>
<path d="M898409 926055 L898409 875724 "/>
<path d="M1175394 1266960 L1175394 1216629 "/>
<path d="M1175394 1216629 L1091510 1216629 "/>
<path d="M1091510 1216629 L1091510 1266960 "/>
<path d="M1091510 1266960 L1175394 1266960 "/>
<path d="M1137311 1081324 L1137311 997440 "/>
<path d="M1086980 1081324 L1137311 1081324 "/>
<path d="M1086980 997440 L1086980 1081324 "/>
<path d="M1137311 997440 L1086980 997440 "/>
<path d="M1409766 1554598 L1409766 1504268 "/>
<path d="M1409766 1504268 L1325882 1504268 "/>
<path d="M1325882 1504268 L1325882 1554598 "/>
<path d="M1325882 1554598 L1409766 1554598 "/>
<path d="M1534418 1006751 L1584749 1006751 "/>
<path d="M1584749 1006751 L1584749 922867 "/>
<path d="M1584749 922867 L1534418 922867 "/>
<path d="M1534418 922867 L1534418 1006751 "/>
<path d="M440318 1301856 L356434 1301856 "/>
<path d="M440318 1352186 L440318 1301856 "/>
<path d="M356434 1352186 L440318 1352186 "/>
<path d="M356434 1301856 L356434 1352186 "/>
<path d="M438221 1096831 L438221 1046500 "/>
<path d="M438221 1046500 L354337 1046500 "/>
<path d="M354337 1046500 L354337 1096831 "/>
<path d="M354337 1096831 L438221 1096831 "/>
<path d="M440318 1216629 L356434 1216629 "/>
<path d="M440318 1266960 L440318 1216629 "/>
<path d="M356434 1266960 L440318 1266960 "/>
<path d="M356434 1216629 L356434 1266960 "/>
<path d="M440318 1181734 L440318 1131403 "/>
<path d="M440318 1131403 L356434 1131403 "/>
<path d="M356434 1131403 L356434 1181734 "/>
<path d="M356434 1181734 L440318 1181734 "/>
<path d="M793218 489270 L877103 489270 "/>
<path d="M793218 438940 L793218 489270 "/>
<path d="M877103 438940 L793218 438940 "/>
<path d="M877103 489270 L877103 438940 "/>
<path d="M135903 869601 L85572 869601 "/>
<path d="M85572 869601 L85572 953485 "/>
<path d="M85572 953485 L135903 953485 "/>
<path d="M135903 953485 L135903 869601 "/>
<path d="M942364 438940 L942364 489270 "/>
<path d="M942364 489270 L1026248 489270 "/>
<path d="M1026248 489270 L1026248 438940 "/>
<path d="M1026248 438940 L942364 438940 "/>
<path d="M1363966 697806 L1414296 697806 "/>
<path d="M1414296 697806 L1414296 613922 "/>
<path d="M1414296 613922 L1363966 613922 "/>
<path d="M1363966 613922 L1363966 697806 "/>
<path d="M1134123 1504268 L1134123 1554598 "/>
<path d="M1134123 1554598 L1218007 1554598 "/>
<path d="M1218007 1554598 L1218007 1504268 "/>
<path d="M1218007 1504268 L1134123 1504268 "/>
<path d="M1179924 1317039 L1129594 1317039 "/>
<path d="M1129594 1317039 L1129594 1400923 "/>
<path d="M1129594 1400923 L1179924 1400923 "/>
<path d="M1179924 1400923 L1179924 1317039 "/>
<path d="M953018 1032588 L1036902 1032588 "/>
<path d="M953018 982257 L953018 1032588 "/>
<path d="M1036902 982257 L953018 982257 "/>
<path d="M1036902 1032588 L1036902 982257 "/>
<path d="M1175394 1131403 L1091510 1131403 "/>
<path d="M1175394 1181734 L1175394 1131403 "/>
<path d="M1091510 1181734 L1175394 1181734 "/>
<path d="M1091510 1131403 L1091510 1181734 "/>
<path d="M1172207 997440 L1172207 1081324 "/>
<path d="M1222537 997440 L1172207 997440 "/>
<path d="M1222537 1081324 L1222537 997440 "/>
<path d="M1172207 1081324 L1222537 1081324 "/>
<path d="M2735303 1219817 L2735303 1135933 "/>
<path d="M2684972 1219817 L2735303 1219817 "/>
<path d="M2684972 1135933 L2684972 1219817 "/>
<path d="M2735303 1135933 L2684972 1135933 "/>
<path d="M2841836 1135933 L2791505 1135933 "/>
<path d="M2791505 1135933 L2791505 1219817 "/>
<path d="M2791505 1219817 L2841836 1219817 "/>
<path d="M2841836 1219817 L2841836 1135933 "/>
<g>
</g>
<g>
</g>
<g>
</g>
<g>
</g>
<g>
</g>
<g>
</g>
<g>
</g>
<g>
</g>
<g>
</g>
<g>
</g>
<g>
</g>
<g>
</g>
<g>
</g>
<g>
</g>
<g>
</g>
<g>
</g>
<g>
</g>
<g>
</g>
<g>
</g>
<g>
</g>
<g>
</g>
<g>
</g>
<g>
</g>
<g>
</g>
<g>
</g>
<g>
</g>
<g>
</g>
<g>
</g>
<g>
</g>
<g>
</g>
<g>
</g>
<g>
</g>
<g>
</g>
<g>
</g>
<g>
</g>
<g>
</g>
<g>
</g>
<g>
</g>
<g>
</g>
<g>
</g>
<g>
</g>
<g>
</g>
<g>
</g>
<g>
</g>
<g>
</g>
<g>
</g>
</g> 
<svg:g><svg:g><svg:title>SVG Picture created as VCAI2C02-Edge_Cuts.svg date 2023/07/05 11:57:37 </svg:title>
  <svg:desc>Picture generated by PCBNEW </svg:desc>
<svg:g style="fill:#C2C200; fill-opacity:1.000000;stroke:#C2C200; stroke-opacity:1.000000; stroke-linecap:round; stroke-linejoin:round;" transform="translate(0 0) scale(1 1)">
</svg:g>
<svg:g style="fill:#C2C200; fill-opacity:0.0;  stroke:#C2C200; stroke-width:0.000000; stroke-opacity:1;  stroke-linecap:round; stroke-linejoin:round;">
</svg:g>
<svg:g style="fill:#C2C200; fill-opacity:0.0;  stroke:#C2C200; stroke-width:8388.408744; stroke-opacity:1;  stroke-linecap:round; stroke-linejoin:round;">
<svg:path d="M2965816 421492 L4205 421492 "/>
<svg:path d="M2965816 1678579 L2965816 421492 "/>
<svg:path d="M4205 1678579 L2965816 1678579 "/>
<svg:path d="M4205 421492 L4205 1678579 "/>
<svg:g>
</svg:g>
<svg:g>
</svg:g>
<svg:g>
</svg:g>
<svg:g>
</svg:g>
<svg:g>
</svg:g>
<svg:g>
</svg:g>
<svg:g>
</svg:g>
<svg:g>
</svg:g>
<svg:g>
</svg:g>
<svg:g>
</svg:g>
<svg:g>
</svg:g>
<svg:g>
</svg:g>
<svg:g>
</svg:g>
<svg:g>
</svg:g>
<svg:g>
</svg:g>
<svg:g>
</svg:g>
<svg:g>
</svg:g>
<svg:g>
</svg:g>
<svg:g>
</svg:g>
<svg:g>
</svg:g>
<svg:g>
</svg:g>
<svg:g>
</svg:g>
<svg:g>
</svg:g>
<svg:g>
</svg:g>
<svg:g>
</svg:g>
<svg:g>
</svg:g>
<svg:g>
</svg:g>
<svg:g>
</svg:g>
<svg:g>
</svg:g>
<svg:g>
</svg:g>
<svg:g>
</svg:g>
<svg:g>
</svg:g>
<svg:g>
</svg:g>
<svg:g>
</svg:g>
<svg:g>
</svg:g>
<svg:g>
</svg:g>
<svg:g>
</svg:g>
<svg:g>
</svg:g>
<svg:g>
</svg:g>
<svg:g>
</svg:g>
<svg:g>
</svg:g>
<svg:g>
</svg:g>
<svg:g>
</svg:g>
<svg:g>
</svg:g>
<svg:g>
</svg:g>
<svg:g>
</svg:g>
</svg:g> 
</svg:g></svg:g></svg>
