<?xml version='1.0' encoding='ASCII' standalone='yes'?>
<svg xmlns:svg="http://www.w3.org/2000/svg" xmlns="http://www.w3.org/2000/svg" xmlns:xlink="http://www.w3.org/1999/xlink" version="1.1" width="29.700220cm" height="21.000720cm" viewBox="0 0 2970022 2100072">
<title>SVG Picture created as VCAI2C02-F_Fab.svg date 2023/07/05 11:57:37 </title>
  <desc>Picture generated by PCBNEW </desc>
<g style="fill:#848484; fill-opacity:1.000000;stroke:#848484; stroke-opacity:1.000000; stroke-linecap:round; stroke-linejoin:round;" transform="translate(0 0) scale(1 1)">
</g>
<g style="fill:#848484; fill-opacity:0.0;  stroke:#848484; stroke-width:0.000000; stroke-opacity:1;  stroke-linecap:round; stroke-linejoin:round;">
</g>
<g style="fill:#848484; fill-opacity:0.01;  stroke:#848484; stroke-width:6291.306558; stroke-opacity:1;  stroke-linecap:round; stroke-linejoin:round;">
<text x="2284006.944077" y="1467023.807829" textLength="76262.630910" font-size="55922.710981" lengthAdjust="spacingAndGlyphs" text-anchor="middle" opacity="0.01" style="font-family:monospace">J1</text>
<g class="stroked-text"><desc>J1</desc>
<path d="M2297987 1423084 L2297987 1453043 L2299984 1459034 L2303979 1463029 L2309971 1465026 L2313965 1465026 "/>
<path d="M2256045 1465026 L2280012 1465026 "/>
<path d="M2268029 1465026 L2268029 1423084 L2272023 1429076 L2276017 1433070 L2280012 1435067 "/>
</g><text x="739281.473818" y="1454525.078800" textLength="383659.853838" font-size="55922.710981" lengthAdjust="spacingAndGlyphs" text-anchor="middle" opacity="0.01" style="font-family:monospace">L01ZxxxS05</text>
<g class="stroked-text"><desc>L01ZxxxS05</desc>
<path d="M897063 1452527 L917035 1452527 L917035 1410585 "/>
<path d="M875093 1410585 L871099 1410585 L867104 1412583 L865107 1414580 L863110 1418574 L861113 1426563 L861113 1436549 L863110 1444538 L865107 1448533 L867104 1450530 L871099 1452527 L875093 1452527 L879088 1450530 L881085 1448533 L883082 1444538 L885080 1436549 L885080 1426563 L883082 1418574 L881085 1414580 L879088 1412583 L875093 1410585 "/>
<path d="M821168 1452527 L845135 1452527 "/>
<path d="M833151 1452527 L833151 1410585 L837146 1416577 L841140 1420571 L845135 1422569 "/>
<path d="M807187 1410585 L779226 1410585 L807187 1452527 L779226 1452527 "/>
<path d="M767242 1452527 L745273 1424566 "/>
<path d="M767242 1424566 L745273 1452527 "/>
<path d="M733289 1452527 L711320 1424566 "/>
<path d="M733289 1424566 L711320 1452527 "/>
<path d="M699336 1452527 L677367 1424566 "/>
<path d="M699336 1424566 L677367 1452527 "/>
<path d="M663386 1450530 L657394 1452527 L647408 1452527 L643413 1450530 L641416 1448533 L639419 1444538 L639419 1440544 L641416 1436549 L643413 1434552 L647408 1432555 L655397 1430558 L659391 1428560 L661389 1426563 L663386 1422569 L663386 1418574 L661389 1414580 L659391 1412583 L655397 1410585 L645411 1410585 L639419 1412583 "/>
<path d="M613455 1410585 L609460 1410585 L605466 1412583 L603469 1414580 L601471 1418574 L599474 1426563 L599474 1436549 L601471 1444538 L603469 1448533 L605466 1450530 L609460 1452527 L613455 1452527 L617449 1450530 L619447 1448533 L621444 1444538 L623441 1436549 L623441 1426563 L621444 1418574 L619447 1414580 L617449 1412583 L613455 1410585 "/>
<path d="M561527 1410585 L581499 1410585 L583496 1430558 L581499 1428560 L577505 1426563 L567518 1426563 L563524 1428560 L561527 1430558 L559529 1434552 L559529 1444538 L561527 1448533 L563524 1450530 L567518 1452527 L577505 1452527 L581499 1450530 L583496 1448533 "/>
</g><text x="1167929.160651" y="1123937.890188" textLength="122021.400610" font-size="55922.710981" lengthAdjust="spacingAndGlyphs" text-anchor="middle" opacity="0.01" style="font-family:monospace">TR1</text>
<g class="stroked-text"><desc>TR1</desc>
<path d="M1220856 1079998 L1196889 1079998 "/>
<path d="M1208872 1121940 L1208872 1079998 "/>
<path d="M1158941 1121940 L1172922 1101968 "/>
<path d="M1182908 1121940 L1182908 1079998 L1166930 1079998 L1162936 1081995 L1160938 1083993 L1158941 1087987 L1158941 1093979 L1160938 1097973 L1162936 1099970 L1166930 1101968 L1182908 1101968 "/>
<path d="M1118996 1121940 L1142963 1121940 "/>
<path d="M1130980 1121940 L1130980 1079998 L1134974 1085990 L1138969 1089984 L1142963 1091982 "/>
</g><path d="M2107850 1630597 L2107850 1253119 "/>
<path d="M2107850 1253119 L2460163 1253119 "/>
<path d="M2460163 1253119 L2460163 1630597 "/>
<path d="M2460163 1630597 L2107850 1630597 "/>
<path d="M1864167 788401 L1864167 1488833 "/>
<path d="M1864167 1488833 L522021 1488833 "/>
<path d="M522021 1488833 L522021 788401 "/>
<path d="M522021 788401 L1864167 788401 "/>
<g>
</g>
<g>
</g>
<g>
</g>
<g>
</g>
<g>
</g>
<g>
</g>
<g>
</g>
<g>
</g>
<g>
</g>
<g>
</g>
<g>
</g>
<g>
</g>
<g>
</g>
<g>
</g>
<g>
</g>
<g>
</g>
<g>
</g>
<g>
</g>
<g>
</g>
<g>
</g>
<g>
</g>
<g>
</g>
<g>
</g>
<g>
</g>
<g>
</g>
<g>
</g>
<g>
</g>
<g>
</g>
<g>
</g>
<g>
</g>
<g>
</g>
<g>
</g>
<g>
</g>
<g>
</g>
<g>
</g>
<g>
</g>
<g>
</g>
<g>
</g>
<g>
</g>
<g>
</g>
<g>
</g>
<g>
</g>
<g>
</g>
<g>
</g>
<g>
</g>
<g>
</g>
</g> 
<svg:g><svg:g><svg:title>SVG Picture created as VCAI2C02-Edge_Cuts.svg date 2023/07/05 11:57:37 </svg:title>
  <svg:desc>Picture generated by PCBNEW </svg:desc>
<svg:g style="fill:#C2C200; fill-opacity:1.000000;stroke:#C2C200; stroke-opacity:1.000000; stroke-linecap:round; stroke-linejoin:round;" transform="translate(0 0) scale(1 1)">
</svg:g>
<svg:g style="fill:#C2C200; fill-opacity:0.0;  stroke:#C2C200; stroke-width:0.000000; stroke-opacity:1;  stroke-linecap:round; stroke-linejoin:round;">
</svg:g>
<svg:g style="fill:#C2C200; fill-opacity:0.0;  stroke:#C2C200; stroke-width:8388.408744; stroke-opacity:1;  stroke-linecap:round; stroke-linejoin:round;">
<svg:path d="M4205 421492 L2965816 421492 "/>
<svg:path d="M4205 1678579 L4205 421492 "/>
<svg:path d="M2965816 1678579 L4205 1678579 "/>
<svg:path d="M2965816 421492 L2965816 1678579 "/>
<svg:g>
</svg:g>
<svg:g>
</svg:g>
<svg:g>
</svg:g>
<svg:g>
</svg:g>
<svg:g>
</svg:g>
<svg:g>
</svg:g>
<svg:g>
</svg:g>
<svg:g>
</svg:g>
<svg:g>
</svg:g>
<svg:g>
</svg:g>
<svg:g>
</svg:g>
<svg:g>
</svg:g>
<svg:g>
</svg:g>
<svg:g>
</svg:g>
<svg:g>
</svg:g>
<svg:g>
</svg:g>
<svg:g>
</svg:g>
<svg:g>
</svg:g>
<svg:g>
</svg:g>
<svg:g>
</svg:g>
<svg:g>
</svg:g>
<svg:g>
</svg:g>
<svg:g>
</svg:g>
<svg:g>
</svg:g>
<svg:g>
</svg:g>
<svg:g>
</svg:g>
<svg:g>
</svg:g>
<svg:g>
</svg:g>
<svg:g>
</svg:g>
<svg:g>
</svg:g>
<svg:g>
</svg:g>
<svg:g>
</svg:g>
<svg:g>
</svg:g>
<svg:g>
</svg:g>
<svg:g>
</svg:g>
<svg:g>
</svg:g>
<svg:g>
</svg:g>
<svg:g>
</svg:g>
<svg:g>
</svg:g>
<svg:g>
</svg:g>
<svg:g>
</svg:g>
<svg:g>
</svg:g>
<svg:g>
</svg:g>
<svg:g>
</svg:g>
<svg:g>
</svg:g>
<svg:g>
</svg:g>
</svg:g> 
</svg:g></svg:g></svg>
