<?xml version='1.0' encoding='ASCII' standalone='yes'?>
<svg xmlns:svg="http://www.w3.org/2000/svg" xmlns="http://www.w3.org/2000/svg" xmlns:xlink="http://www.w3.org/1999/xlink" version="1.1" width="297.0022mm" height="210.0072mm" viewBox="0.0000 0.0000 297.0022 210.0072">
<title>SVG Image created as VCAI2C02-F_Fab.svg date 2023/07/05 12:53:51 </title>
  <desc>Image generated by PCBNEW </desc>
<g style="fill:#848484; fill-opacity:1.0000;stroke:#848484; stroke-opacity:1.0000; stroke-linecap:round; stroke-linejoin:round;" transform="translate(0 0) scale(1 1)">
</g>
<g style="fill:#848484; fill-opacity:0.0;  stroke:#848484; stroke-width:0.0000; stroke-opacity:1;  stroke-linecap:round; stroke-linejoin:round;">
</g>
<g style="fill:#848484; fill-opacity:0.01;  stroke:#848484; stroke-width:0.6291; stroke-opacity:1;  stroke-linecap:round; stroke-linejoin:round;">
<text x="228.4007" y="146.7024" textLength="7.9241" font-size="5.5923" lengthAdjust="spacingAndGlyphs" text-anchor="middle" opacity="0.01" style="font-family:monospace">J1</text>
<g class="stroked-text"><desc>J1</desc>
<path d="M229.7988 142.3187 L229.7988 145.3145 "/>
<path d="M229.7988 145.3145 L229.9985 145.9137 "/>
<path d="M229.9985 145.9137 L230.3979 146.3132 "/>
<path d="M230.3979 146.3132 L230.9971 146.5129 "/>
<path d="M230.9971 146.5129 L231.3966 146.5129 "/>
<path d="M225.6046 146.5129 L228.0012 146.5129 "/>
<path d="M226.8029 146.5129 L226.8029 142.3187 "/>
<path d="M226.8029 142.3187 L227.2024 142.9178 "/>
<path d="M227.2024 142.9178 L227.6018 143.3173 "/>
<path d="M227.6018 143.3173 L228.0012 143.5170 "/>
</g><text x="73.9281" y="145.4525" textLength="38.2821" font-size="5.5923" lengthAdjust="spacingAndGlyphs" text-anchor="middle" opacity="0.01" style="font-family:monospace">L01ZxxxS05</text>
<g class="stroked-text"><desc>L01ZxxxS05</desc>
<path d="M89.7063 145.2630 L91.7036 145.2630 "/>
<path d="M91.7036 145.2630 L91.7036 141.0688 "/>
<path d="M87.5094 141.0688 L87.1099 141.0688 "/>
<path d="M87.1099 141.0688 L86.7105 141.2685 "/>
<path d="M86.7105 141.2685 L86.5108 141.4683 "/>
<path d="M86.5108 141.4683 L86.3110 141.8677 "/>
<path d="M86.3110 141.8677 L86.1113 142.6666 "/>
<path d="M86.1113 142.6666 L86.1113 143.6652 "/>
<path d="M86.1113 143.6652 L86.3110 144.4641 "/>
<path d="M86.3110 144.4641 L86.5108 144.8636 "/>
<path d="M86.5108 144.8636 L86.7105 145.0633 "/>
<path d="M86.7105 145.0633 L87.1099 145.2630 "/>
<path d="M87.1099 145.2630 L87.5094 145.2630 "/>
<path d="M87.5094 145.2630 L87.9088 145.0633 "/>
<path d="M87.9088 145.0633 L88.1086 144.8636 "/>
<path d="M88.1086 144.8636 L88.3083 144.4641 "/>
<path d="M88.3083 144.4641 L88.5080 143.6652 "/>
<path d="M88.5080 143.6652 L88.5080 142.6666 "/>
<path d="M88.5080 142.6666 L88.3083 141.8677 "/>
<path d="M88.3083 141.8677 L88.1086 141.4683 "/>
<path d="M88.1086 141.4683 L87.9088 141.2685 "/>
<path d="M87.9088 141.2685 L87.5094 141.0688 "/>
<path d="M82.1168 145.2630 L84.5135 145.2630 "/>
<path d="M83.3152 145.2630 L83.3152 141.0688 "/>
<path d="M83.3152 141.0688 L83.7146 141.6680 "/>
<path d="M83.7146 141.6680 L84.1141 142.0674 "/>
<path d="M84.1141 142.0674 L84.5135 142.2671 "/>
<path d="M80.7188 141.0688 L77.9226 141.0688 "/>
<path d="M77.9226 141.0688 L80.7188 145.2630 "/>
<path d="M80.7188 145.2630 L77.9226 145.2630 "/>
<path d="M76.7243 145.2630 L74.5273 142.4669 "/>
<path d="M76.7243 142.4669 L74.5273 145.2630 "/>
<path d="M73.3290 145.2630 L71.1320 142.4669 "/>
<path d="M73.3290 142.4669 L71.1320 145.2630 "/>
<path d="M69.9337 145.2630 L67.7367 142.4669 "/>
<path d="M69.9337 142.4669 L67.7367 145.2630 "/>
<path d="M66.3386 145.0633 L65.7395 145.2630 "/>
<path d="M65.7395 145.2630 L64.7408 145.2630 "/>
<path d="M64.7408 145.2630 L64.3414 145.0633 "/>
<path d="M64.3414 145.0633 L64.1417 144.8636 "/>
<path d="M64.1417 144.8636 L63.9419 144.4641 "/>
<path d="M63.9419 144.4641 L63.9419 144.0647 "/>
<path d="M63.9419 144.0647 L64.1417 143.6652 "/>
<path d="M64.1417 143.6652 L64.3414 143.4655 "/>
<path d="M64.3414 143.4655 L64.7408 143.2658 "/>
<path d="M64.7408 143.2658 L65.5397 143.0660 "/>
<path d="M65.5397 143.0660 L65.9392 142.8663 "/>
<path d="M65.9392 142.8663 L66.1389 142.6666 "/>
<path d="M66.1389 142.6666 L66.3386 142.2671 "/>
<path d="M66.3386 142.2671 L66.3386 141.8677 "/>
<path d="M66.3386 141.8677 L66.1389 141.4683 "/>
<path d="M66.1389 141.4683 L65.9392 141.2685 "/>
<path d="M65.9392 141.2685 L65.5397 141.0688 "/>
<path d="M65.5397 141.0688 L64.5411 141.0688 "/>
<path d="M64.5411 141.0688 L63.9419 141.2685 "/>
<path d="M61.3455 141.0688 L60.9461 141.0688 "/>
<path d="M60.9461 141.0688 L60.5466 141.2685 "/>
<path d="M60.5466 141.2685 L60.3469 141.4683 "/>
<path d="M60.3469 141.4683 L60.1472 141.8677 "/>
<path d="M60.1472 141.8677 L59.9475 142.6666 "/>
<path d="M59.9475 142.6666 L59.9475 143.6652 "/>
<path d="M59.9475 143.6652 L60.1472 144.4641 "/>
<path d="M60.1472 144.4641 L60.3469 144.8636 "/>
<path d="M60.3469 144.8636 L60.5466 145.0633 "/>
<path d="M60.5466 145.0633 L60.9461 145.2630 "/>
<path d="M60.9461 145.2630 L61.3455 145.2630 "/>
<path d="M61.3455 145.2630 L61.7450 145.0633 "/>
<path d="M61.7450 145.0633 L61.9447 144.8636 "/>
<path d="M61.9447 144.8636 L62.1444 144.4641 "/>
<path d="M62.1444 144.4641 L62.3442 143.6652 "/>
<path d="M62.3442 143.6652 L62.3442 142.6666 "/>
<path d="M62.3442 142.6666 L62.1444 141.8677 "/>
<path d="M62.1444 141.8677 L61.9447 141.4683 "/>
<path d="M61.9447 141.4683 L61.7450 141.2685 "/>
<path d="M61.7450 141.2685 L61.3455 141.0688 "/>
<path d="M56.1527 141.0688 L58.1499 141.0688 "/>
<path d="M58.1499 141.0688 L58.3497 143.0660 "/>
<path d="M58.3497 143.0660 L58.1499 142.8663 "/>
<path d="M58.1499 142.8663 L57.7505 142.6666 "/>
<path d="M57.7505 142.6666 L56.7519 142.6666 "/>
<path d="M56.7519 142.6666 L56.3524 142.8663 "/>
<path d="M56.3524 142.8663 L56.1527 143.0660 "/>
<path d="M56.1527 143.0660 L55.9530 143.4655 "/>
<path d="M55.9530 143.4655 L55.9530 144.4641 "/>
<path d="M55.9530 144.4641 L56.1527 144.8636 "/>
<path d="M56.1527 144.8636 L56.3524 145.0633 "/>
<path d="M56.3524 145.0633 L56.7519 145.2630 "/>
<path d="M56.7519 145.2630 L57.7505 145.2630 "/>
<path d="M57.7505 145.2630 L58.1499 145.0633 "/>
<path d="M58.1499 145.0633 L58.3497 144.8636 "/>
</g><text x="116.7929" y="112.3938" textLength="12.1183" font-size="5.5923" lengthAdjust="spacingAndGlyphs" text-anchor="middle" opacity="0.01" style="font-family:monospace">TR1</text>
<g class="stroked-text"><desc>TR1</desc>
<path d="M122.0856 108.0101 L119.6889 108.0101 "/>
<path d="M120.8873 112.2043 L120.8873 108.0101 "/>
<path d="M115.8942 112.2043 L117.2922 110.2070 "/>
<path d="M118.2908 112.2043 L118.2908 108.0101 "/>
<path d="M118.2908 108.0101 L116.6931 108.0101 "/>
<path d="M116.6931 108.0101 L116.2936 108.2098 "/>
<path d="M116.2936 108.2098 L116.0939 108.4095 "/>
<path d="M116.0939 108.4095 L115.8942 108.8090 "/>
<path d="M115.8942 108.8090 L115.8942 109.4082 "/>
<path d="M115.8942 109.4082 L116.0939 109.8076 "/>
<path d="M116.0939 109.8076 L116.2936 110.0073 "/>
<path d="M116.2936 110.0073 L116.6931 110.2070 "/>
<path d="M116.6931 110.2070 L118.2908 110.2070 "/>
<path d="M111.8997 112.2043 L114.2964 112.2043 "/>
<path d="M113.0980 112.2043 L113.0980 108.0101 "/>
<path d="M113.0980 108.0101 L113.4975 108.6093 "/>
<path d="M113.4975 108.6093 L113.8969 109.0087 "/>
<path d="M113.8969 109.0087 L114.2964 109.2084 "/>
</g><path d="M210.7850 163.0598 L210.7850 125.3119 "/>
<path d="M210.7850 125.3119 L246.0164 125.3119 "/>
<path d="M246.0164 125.3119 L246.0164 163.0598 "/>
<path d="M246.0164 163.0598 L210.7850 163.0598 "/>
<path d="M186.4167 78.8402 L186.4167 148.8834 "/>
<path d="M186.4167 148.8834 L52.2022 148.8834 "/>
<path d="M52.2022 148.8834 L52.2022 78.8402 "/>
<path d="M52.2022 78.8402 L186.4167 78.8402 "/>
<g>
</g>
<g>
</g>
<g>
</g>
<g>
</g>
<g>
</g>
<g>
</g>
<g>
</g>
<g>
</g>
<g>
</g>
<g>
</g>
<g>
</g>
<g>
</g>
<g>
</g>
<g>
</g>
<g>
</g>
<g>
</g>
<g>
</g>
<g>
</g>
<g>
</g>
<g>
</g>
<g>
</g>
<g>
</g>
<g>
</g>
<g>
</g>
<g>
</g>
<g>
</g>
<g>
</g>
<g>
</g>
<g>
</g>
<g>
</g>
<g>
</g>
<g>
</g>
<g>
</g>
<g>
</g>
<g>
</g>
<g>
</g>
<g>
</g>
<g>
</g>
<g>
</g>
<g>
</g>
<g>
</g>
<g>
</g>
<g>
</g>
<g>
</g>
<g>
</g>
<g>
</g>
</g> 
<svg:g><svg:g><svg:title>SVG Image created as VCAI2C02-Edge_Cuts.svg date 2023/07/05 12:53:51 </svg:title>
  <svg:desc>Image generated by PCBNEW </svg:desc>
<svg:g style="fill:#C2C200; fill-opacity:1.0000;stroke:#C2C200; stroke-opacity:1.0000; stroke-linecap:round; stroke-linejoin:round;" transform="translate(0 0) scale(1 1)">
</svg:g>
<svg:g style="fill:#C2C200; fill-opacity:0.0;  stroke:#C2C200; stroke-width:0.0000; stroke-opacity:1;  stroke-linecap:round; stroke-linejoin:round;">
</svg:g>
<svg:g style="fill:#C2C200; fill-opacity:0.0;  stroke:#C2C200; stroke-width:0.8388; stroke-opacity:1;  stroke-linecap:round; stroke-linejoin:round;">
<svg:path d="M0.4205 42.1493 L296.5817 42.1493 "/>
<svg:path d="M0.4205 167.8579 L0.4205 42.1493 "/>
<svg:path d="M296.5817 167.8579 L0.4205 167.8579 "/>
<svg:path d="M296.5817 42.1493 L296.5817 167.8579 "/>
<svg:g>
</svg:g>
<svg:g>
</svg:g>
<svg:g>
</svg:g>
<svg:g>
</svg:g>
<svg:g>
</svg:g>
<svg:g>
</svg:g>
<svg:g>
</svg:g>
<svg:g>
</svg:g>
<svg:g>
</svg:g>
<svg:g>
</svg:g>
<svg:g>
</svg:g>
<svg:g>
</svg:g>
<svg:g>
</svg:g>
<svg:g>
</svg:g>
<svg:g>
</svg:g>
<svg:g>
</svg:g>
<svg:g>
</svg:g>
<svg:g>
</svg:g>
<svg:g>
</svg:g>
<svg:g>
</svg:g>
<svg:g>
</svg:g>
<svg:g>
</svg:g>
<svg:g>
</svg:g>
<svg:g>
</svg:g>
<svg:g>
</svg:g>
<svg:g>
</svg:g>
<svg:g>
</svg:g>
<svg:g>
</svg:g>
<svg:g>
</svg:g>
<svg:g>
</svg:g>
<svg:g>
</svg:g>
<svg:g>
</svg:g>
<svg:g>
</svg:g>
<svg:g>
</svg:g>
<svg:g>
</svg:g>
<svg:g>
</svg:g>
<svg:g>
</svg:g>
<svg:g>
</svg:g>
<svg:g>
</svg:g>
<svg:g>
</svg:g>
<svg:g>
</svg:g>
<svg:g>
</svg:g>
<svg:g>
</svg:g>
<svg:g>
</svg:g>
<svg:g>
</svg:g>
<svg:g>
</svg:g>
</svg:g> 
</svg:g></svg:g></svg>
