%TF.GenerationSoftware,KiCad,Pcbnew,7.0.5.1-1-g8f565ef7f0-dirty-deb11*%
%TF.CreationDate,2023-07-08T01:44:23+00:00*%
%TF.ProjectId,VCAI2C02,56434149-3243-4303-922e-6b696361645f,rev?*%
%TF.SameCoordinates,Original*%
%TF.FileFunction,Legend,Top*%
%TF.FilePolarity,Positive*%
%FSLAX46Y46*%
G04 Gerber Fmt 4.6, Leading zero omitted, Abs format (unit mm)*
G04 Created by KiCad (PCBNEW 7.0.5.1-1-g8f565ef7f0-dirty-deb11) date 2023-07-08 01:44:23*
%MOMM*%
%LPD*%
G01*
G04 APERTURE LIST*
%ADD10C,0.200000*%
%ADD11C,0.250000*%
%ADD12C,0.150000*%
%ADD13C,0.050000*%
%ADD14R,1.524000X1.524000*%
G04 APERTURE END LIST*
D10*
X61515714Y-12866504D02*
X61991904Y-12866504D01*
X61420476Y-13152219D02*
X61753809Y-12152219D01*
X61753809Y-12152219D02*
X62087142Y-13152219D01*
X62944285Y-13152219D02*
X62372857Y-13152219D01*
X62658571Y-13152219D02*
X62658571Y-12152219D01*
X62658571Y-12152219D02*
X62563333Y-12295076D01*
X62563333Y-12295076D02*
X62468095Y-12390314D01*
X62468095Y-12390314D02*
X62372857Y-12437933D01*
D11*
X33489333Y3162333D02*
X33956000Y1762333D01*
X33956000Y1762333D02*
X34422666Y3162333D01*
X35689333Y1895666D02*
X35622666Y1829000D01*
X35622666Y1829000D02*
X35422666Y1762333D01*
X35422666Y1762333D02*
X35289333Y1762333D01*
X35289333Y1762333D02*
X35089333Y1829000D01*
X35089333Y1829000D02*
X34956000Y1962333D01*
X34956000Y1962333D02*
X34889333Y2095666D01*
X34889333Y2095666D02*
X34822666Y2362333D01*
X34822666Y2362333D02*
X34822666Y2562333D01*
X34822666Y2562333D02*
X34889333Y2829000D01*
X34889333Y2829000D02*
X34956000Y2962333D01*
X34956000Y2962333D02*
X35089333Y3095666D01*
X35089333Y3095666D02*
X35289333Y3162333D01*
X35289333Y3162333D02*
X35422666Y3162333D01*
X35422666Y3162333D02*
X35622666Y3095666D01*
X35622666Y3095666D02*
X35689333Y3029000D01*
X36222666Y2162333D02*
X36889333Y2162333D01*
X36089333Y1762333D02*
X36556000Y3162333D01*
X36556000Y3162333D02*
X37022666Y1762333D01*
X37489333Y1762333D02*
X37489333Y3162333D01*
X38089333Y3029000D02*
X38156000Y3095666D01*
X38156000Y3095666D02*
X38289333Y3162333D01*
X38289333Y3162333D02*
X38622667Y3162333D01*
X38622667Y3162333D02*
X38756000Y3095666D01*
X38756000Y3095666D02*
X38822667Y3029000D01*
X38822667Y3029000D02*
X38889333Y2895666D01*
X38889333Y2895666D02*
X38889333Y2762333D01*
X38889333Y2762333D02*
X38822667Y2562333D01*
X38822667Y2562333D02*
X38022667Y1762333D01*
X38022667Y1762333D02*
X38889333Y1762333D01*
X40289333Y1895666D02*
X40222666Y1829000D01*
X40222666Y1829000D02*
X40022666Y1762333D01*
X40022666Y1762333D02*
X39889333Y1762333D01*
X39889333Y1762333D02*
X39689333Y1829000D01*
X39689333Y1829000D02*
X39556000Y1962333D01*
X39556000Y1962333D02*
X39489333Y2095666D01*
X39489333Y2095666D02*
X39422666Y2362333D01*
X39422666Y2362333D02*
X39422666Y2562333D01*
X39422666Y2562333D02*
X39489333Y2829000D01*
X39489333Y2829000D02*
X39556000Y2962333D01*
X39556000Y2962333D02*
X39689333Y3095666D01*
X39689333Y3095666D02*
X39889333Y3162333D01*
X39889333Y3162333D02*
X40022666Y3162333D01*
X40022666Y3162333D02*
X40222666Y3095666D01*
X40222666Y3095666D02*
X40289333Y3029000D01*
X41156000Y3162333D02*
X41289333Y3162333D01*
X41289333Y3162333D02*
X41422666Y3095666D01*
X41422666Y3095666D02*
X41489333Y3029000D01*
X41489333Y3029000D02*
X41556000Y2895666D01*
X41556000Y2895666D02*
X41622666Y2629000D01*
X41622666Y2629000D02*
X41622666Y2295666D01*
X41622666Y2295666D02*
X41556000Y2029000D01*
X41556000Y2029000D02*
X41489333Y1895666D01*
X41489333Y1895666D02*
X41422666Y1829000D01*
X41422666Y1829000D02*
X41289333Y1762333D01*
X41289333Y1762333D02*
X41156000Y1762333D01*
X41156000Y1762333D02*
X41022666Y1829000D01*
X41022666Y1829000D02*
X40956000Y1895666D01*
X40956000Y1895666D02*
X40889333Y2029000D01*
X40889333Y2029000D02*
X40822666Y2295666D01*
X40822666Y2295666D02*
X40822666Y2629000D01*
X40822666Y2629000D02*
X40889333Y2895666D01*
X40889333Y2895666D02*
X40956000Y3029000D01*
X40956000Y3029000D02*
X41022666Y3095666D01*
X41022666Y3095666D02*
X41156000Y3162333D01*
X42155999Y3029000D02*
X42222666Y3095666D01*
X42222666Y3095666D02*
X42355999Y3162333D01*
X42355999Y3162333D02*
X42689333Y3162333D01*
X42689333Y3162333D02*
X42822666Y3095666D01*
X42822666Y3095666D02*
X42889333Y3029000D01*
X42889333Y3029000D02*
X42955999Y2895666D01*
X42955999Y2895666D02*
X42955999Y2762333D01*
X42955999Y2762333D02*
X42889333Y2562333D01*
X42889333Y2562333D02*
X42089333Y1762333D01*
X42089333Y1762333D02*
X42955999Y1762333D01*
X43489332Y2162333D02*
X44155999Y2162333D01*
X43355999Y1762333D02*
X43822666Y3162333D01*
X43822666Y3162333D02*
X44289332Y1762333D01*
X45822666Y1762333D02*
X45822666Y2695666D01*
X45822666Y2429000D02*
X45889333Y2562333D01*
X45889333Y2562333D02*
X45955999Y2629000D01*
X45955999Y2629000D02*
X46089333Y2695666D01*
X46089333Y2695666D02*
X46222666Y2695666D01*
X47222666Y1829000D02*
X47089333Y1762333D01*
X47089333Y1762333D02*
X46822666Y1762333D01*
X46822666Y1762333D02*
X46689333Y1829000D01*
X46689333Y1829000D02*
X46622666Y1962333D01*
X46622666Y1962333D02*
X46622666Y2495666D01*
X46622666Y2495666D02*
X46689333Y2629000D01*
X46689333Y2629000D02*
X46822666Y2695666D01*
X46822666Y2695666D02*
X47089333Y2695666D01*
X47089333Y2695666D02*
X47222666Y2629000D01*
X47222666Y2629000D02*
X47289333Y2495666D01*
X47289333Y2495666D02*
X47289333Y2362333D01*
X47289333Y2362333D02*
X46622666Y2229000D01*
X47756000Y2695666D02*
X48089333Y1762333D01*
X48089333Y1762333D02*
X48422666Y2695666D01*
X49689333Y1762333D02*
X48889333Y1762333D01*
X49289333Y1762333D02*
X49289333Y3162333D01*
X49289333Y3162333D02*
X49156000Y2962333D01*
X49156000Y2962333D02*
X49022667Y2829000D01*
X49022667Y2829000D02*
X48889333Y2762333D01*
X35255999Y441666D02*
X35522665Y-491666D01*
X35522665Y-491666D02*
X35789332Y175000D01*
X35789332Y175000D02*
X36055999Y-491666D01*
X36055999Y-491666D02*
X36322665Y441666D01*
X36722666Y441666D02*
X36989332Y-491666D01*
X36989332Y-491666D02*
X37255999Y175000D01*
X37255999Y175000D02*
X37522666Y-491666D01*
X37522666Y-491666D02*
X37789332Y441666D01*
X38189333Y441666D02*
X38455999Y-491666D01*
X38455999Y-491666D02*
X38722666Y175000D01*
X38722666Y175000D02*
X38989333Y-491666D01*
X38989333Y-491666D02*
X39255999Y441666D01*
X39789333Y-358333D02*
X39856000Y-425000D01*
X39856000Y-425000D02*
X39789333Y-491666D01*
X39789333Y-491666D02*
X39722666Y-425000D01*
X39722666Y-425000D02*
X39789333Y-358333D01*
X39789333Y-358333D02*
X39789333Y-491666D01*
X40456000Y-491666D02*
X40456000Y441666D01*
X40456000Y308333D02*
X40522667Y375000D01*
X40522667Y375000D02*
X40656000Y441666D01*
X40656000Y441666D02*
X40856000Y441666D01*
X40856000Y441666D02*
X40989333Y375000D01*
X40989333Y375000D02*
X41056000Y241666D01*
X41056000Y241666D02*
X41056000Y-491666D01*
X41056000Y241666D02*
X41122667Y375000D01*
X41122667Y375000D02*
X41256000Y441666D01*
X41256000Y441666D02*
X41456000Y441666D01*
X41456000Y441666D02*
X41589333Y375000D01*
X41589333Y375000D02*
X41656000Y241666D01*
X41656000Y241666D02*
X41656000Y-491666D01*
X42522667Y-491666D02*
X42389334Y-425000D01*
X42389334Y-425000D02*
X42322667Y-291666D01*
X42322667Y-291666D02*
X42322667Y908333D01*
X43656000Y-491666D02*
X43656000Y241666D01*
X43656000Y241666D02*
X43589333Y375000D01*
X43589333Y375000D02*
X43456000Y441666D01*
X43456000Y441666D02*
X43189333Y441666D01*
X43189333Y441666D02*
X43056000Y375000D01*
X43656000Y-425000D02*
X43522667Y-491666D01*
X43522667Y-491666D02*
X43189333Y-491666D01*
X43189333Y-491666D02*
X43056000Y-425000D01*
X43056000Y-425000D02*
X42989333Y-291666D01*
X42989333Y-291666D02*
X42989333Y-158333D01*
X42989333Y-158333D02*
X43056000Y-25000D01*
X43056000Y-25000D02*
X43189333Y41666D01*
X43189333Y41666D02*
X43522667Y41666D01*
X43522667Y41666D02*
X43656000Y108333D01*
X44322667Y-491666D02*
X44322667Y908333D01*
X44322667Y375000D02*
X44456000Y441666D01*
X44456000Y441666D02*
X44722667Y441666D01*
X44722667Y441666D02*
X44856000Y375000D01*
X44856000Y375000D02*
X44922667Y308333D01*
X44922667Y308333D02*
X44989334Y175000D01*
X44989334Y175000D02*
X44989334Y-225000D01*
X44989334Y-225000D02*
X44922667Y-358333D01*
X44922667Y-358333D02*
X44856000Y-425000D01*
X44856000Y-425000D02*
X44722667Y-491666D01*
X44722667Y-491666D02*
X44456000Y-491666D01*
X44456000Y-491666D02*
X44322667Y-425000D01*
X45589334Y-358333D02*
X45656001Y-425000D01*
X45656001Y-425000D02*
X45589334Y-491666D01*
X45589334Y-491666D02*
X45522667Y-425000D01*
X45522667Y-425000D02*
X45589334Y-358333D01*
X45589334Y-358333D02*
X45589334Y-491666D01*
X46856001Y-425000D02*
X46722668Y-491666D01*
X46722668Y-491666D02*
X46456001Y-491666D01*
X46456001Y-491666D02*
X46322668Y-425000D01*
X46322668Y-425000D02*
X46256001Y-358333D01*
X46256001Y-358333D02*
X46189334Y-225000D01*
X46189334Y-225000D02*
X46189334Y175000D01*
X46189334Y175000D02*
X46256001Y308333D01*
X46256001Y308333D02*
X46322668Y375000D01*
X46322668Y375000D02*
X46456001Y441666D01*
X46456001Y441666D02*
X46722668Y441666D01*
X46722668Y441666D02*
X46856001Y375000D01*
X47322668Y441666D02*
X48056001Y441666D01*
X48056001Y441666D02*
X47322668Y-491666D01*
X47322668Y-491666D02*
X48056001Y-491666D01*
D10*
X58975714Y-12866504D02*
X59451904Y-12866504D01*
X58880476Y-13152219D02*
X59213809Y-12152219D01*
X59213809Y-12152219D02*
X59547142Y-13152219D01*
X60070952Y-12152219D02*
X60166190Y-12152219D01*
X60166190Y-12152219D02*
X60261428Y-12199838D01*
X60261428Y-12199838D02*
X60309047Y-12247457D01*
X60309047Y-12247457D02*
X60356666Y-12342695D01*
X60356666Y-12342695D02*
X60404285Y-12533171D01*
X60404285Y-12533171D02*
X60404285Y-12771266D01*
X60404285Y-12771266D02*
X60356666Y-12961742D01*
X60356666Y-12961742D02*
X60309047Y-13056980D01*
X60309047Y-13056980D02*
X60261428Y-13104600D01*
X60261428Y-13104600D02*
X60166190Y-13152219D01*
X60166190Y-13152219D02*
X60070952Y-13152219D01*
X60070952Y-13152219D02*
X59975714Y-13104600D01*
X59975714Y-13104600D02*
X59928095Y-13056980D01*
X59928095Y-13056980D02*
X59880476Y-12961742D01*
X59880476Y-12961742D02*
X59832857Y-12771266D01*
X59832857Y-12771266D02*
X59832857Y-12533171D01*
X59832857Y-12533171D02*
X59880476Y-12342695D01*
X59880476Y-12342695D02*
X59928095Y-12247457D01*
X59928095Y-12247457D02*
X59975714Y-12199838D01*
X59975714Y-12199838D02*
X60070952Y-12152219D01*
D12*
X36140094Y-2867771D02*
X36092475Y-2820152D01*
X36092475Y-2820152D02*
X35997237Y-2677295D01*
X35997237Y-2677295D02*
X35949618Y-2582057D01*
X35949618Y-2582057D02*
X35901999Y-2439200D01*
X35901999Y-2439200D02*
X35854380Y-2201104D01*
X35854380Y-2201104D02*
X35854380Y-2010628D01*
X35854380Y-2010628D02*
X35901999Y-1772533D01*
X35901999Y-1772533D02*
X35949618Y-1629676D01*
X35949618Y-1629676D02*
X35997237Y-1534438D01*
X35997237Y-1534438D02*
X36092475Y-1391580D01*
X36092475Y-1391580D02*
X36140094Y-1343961D01*
X36949618Y-2439200D02*
X36854380Y-2486819D01*
X36854380Y-2486819D02*
X36663904Y-2486819D01*
X36663904Y-2486819D02*
X36568666Y-2439200D01*
X36568666Y-2439200D02*
X36521047Y-2391580D01*
X36521047Y-2391580D02*
X36473428Y-2296342D01*
X36473428Y-2296342D02*
X36473428Y-2010628D01*
X36473428Y-2010628D02*
X36521047Y-1915390D01*
X36521047Y-1915390D02*
X36568666Y-1867771D01*
X36568666Y-1867771D02*
X36663904Y-1820152D01*
X36663904Y-1820152D02*
X36854380Y-1820152D01*
X36854380Y-1820152D02*
X36949618Y-1867771D01*
X37282952Y-2867771D02*
X37330571Y-2820152D01*
X37330571Y-2820152D02*
X37425809Y-2677295D01*
X37425809Y-2677295D02*
X37473428Y-2582057D01*
X37473428Y-2582057D02*
X37521047Y-2439200D01*
X37521047Y-2439200D02*
X37568666Y-2201104D01*
X37568666Y-2201104D02*
X37568666Y-2010628D01*
X37568666Y-2010628D02*
X37521047Y-1772533D01*
X37521047Y-1772533D02*
X37473428Y-1629676D01*
X37473428Y-1629676D02*
X37425809Y-1534438D01*
X37425809Y-1534438D02*
X37330571Y-1391580D01*
X37330571Y-1391580D02*
X37282952Y-1343961D01*
X37902000Y-1486819D02*
X38235333Y-2486819D01*
X38235333Y-2486819D02*
X38568666Y-1486819D01*
X39473428Y-2391580D02*
X39425809Y-2439200D01*
X39425809Y-2439200D02*
X39282952Y-2486819D01*
X39282952Y-2486819D02*
X39187714Y-2486819D01*
X39187714Y-2486819D02*
X39044857Y-2439200D01*
X39044857Y-2439200D02*
X38949619Y-2343961D01*
X38949619Y-2343961D02*
X38902000Y-2248723D01*
X38902000Y-2248723D02*
X38854381Y-2058247D01*
X38854381Y-2058247D02*
X38854381Y-1915390D01*
X38854381Y-1915390D02*
X38902000Y-1724914D01*
X38902000Y-1724914D02*
X38949619Y-1629676D01*
X38949619Y-1629676D02*
X39044857Y-1534438D01*
X39044857Y-1534438D02*
X39187714Y-1486819D01*
X39187714Y-1486819D02*
X39282952Y-1486819D01*
X39282952Y-1486819D02*
X39425809Y-1534438D01*
X39425809Y-1534438D02*
X39473428Y-1582057D01*
X40092476Y-1486819D02*
X40282952Y-1486819D01*
X40282952Y-1486819D02*
X40378190Y-1534438D01*
X40378190Y-1534438D02*
X40473428Y-1629676D01*
X40473428Y-1629676D02*
X40521047Y-1820152D01*
X40521047Y-1820152D02*
X40521047Y-2153485D01*
X40521047Y-2153485D02*
X40473428Y-2343961D01*
X40473428Y-2343961D02*
X40378190Y-2439200D01*
X40378190Y-2439200D02*
X40282952Y-2486819D01*
X40282952Y-2486819D02*
X40092476Y-2486819D01*
X40092476Y-2486819D02*
X39997238Y-2439200D01*
X39997238Y-2439200D02*
X39902000Y-2343961D01*
X39902000Y-2343961D02*
X39854381Y-2153485D01*
X39854381Y-2153485D02*
X39854381Y-1820152D01*
X39854381Y-1820152D02*
X39902000Y-1629676D01*
X39902000Y-1629676D02*
X39997238Y-1534438D01*
X39997238Y-1534438D02*
X40092476Y-1486819D01*
X40854381Y-1486819D02*
X41473428Y-1486819D01*
X41473428Y-1486819D02*
X41140095Y-1867771D01*
X41140095Y-1867771D02*
X41282952Y-1867771D01*
X41282952Y-1867771D02*
X41378190Y-1915390D01*
X41378190Y-1915390D02*
X41425809Y-1963009D01*
X41425809Y-1963009D02*
X41473428Y-2058247D01*
X41473428Y-2058247D02*
X41473428Y-2296342D01*
X41473428Y-2296342D02*
X41425809Y-2391580D01*
X41425809Y-2391580D02*
X41378190Y-2439200D01*
X41378190Y-2439200D02*
X41282952Y-2486819D01*
X41282952Y-2486819D02*
X40997238Y-2486819D01*
X40997238Y-2486819D02*
X40902000Y-2439200D01*
X40902000Y-2439200D02*
X40854381Y-2391580D01*
X42330571Y-1820152D02*
X42330571Y-2486819D01*
X42092476Y-1439200D02*
X41854381Y-2153485D01*
X41854381Y-2153485D02*
X42473428Y-2153485D01*
X43568667Y-1582057D02*
X43616286Y-1534438D01*
X43616286Y-1534438D02*
X43711524Y-1486819D01*
X43711524Y-1486819D02*
X43949619Y-1486819D01*
X43949619Y-1486819D02*
X44044857Y-1534438D01*
X44044857Y-1534438D02*
X44092476Y-1582057D01*
X44092476Y-1582057D02*
X44140095Y-1677295D01*
X44140095Y-1677295D02*
X44140095Y-1772533D01*
X44140095Y-1772533D02*
X44092476Y-1915390D01*
X44092476Y-1915390D02*
X43521048Y-2486819D01*
X43521048Y-2486819D02*
X44140095Y-2486819D01*
X44759143Y-1486819D02*
X44854381Y-1486819D01*
X44854381Y-1486819D02*
X44949619Y-1534438D01*
X44949619Y-1534438D02*
X44997238Y-1582057D01*
X44997238Y-1582057D02*
X45044857Y-1677295D01*
X45044857Y-1677295D02*
X45092476Y-1867771D01*
X45092476Y-1867771D02*
X45092476Y-2105866D01*
X45092476Y-2105866D02*
X45044857Y-2296342D01*
X45044857Y-2296342D02*
X44997238Y-2391580D01*
X44997238Y-2391580D02*
X44949619Y-2439200D01*
X44949619Y-2439200D02*
X44854381Y-2486819D01*
X44854381Y-2486819D02*
X44759143Y-2486819D01*
X44759143Y-2486819D02*
X44663905Y-2439200D01*
X44663905Y-2439200D02*
X44616286Y-2391580D01*
X44616286Y-2391580D02*
X44568667Y-2296342D01*
X44568667Y-2296342D02*
X44521048Y-2105866D01*
X44521048Y-2105866D02*
X44521048Y-1867771D01*
X44521048Y-1867771D02*
X44568667Y-1677295D01*
X44568667Y-1677295D02*
X44616286Y-1582057D01*
X44616286Y-1582057D02*
X44663905Y-1534438D01*
X44663905Y-1534438D02*
X44759143Y-1486819D01*
X46044857Y-2486819D02*
X45473429Y-2486819D01*
X45759143Y-2486819D02*
X45759143Y-1486819D01*
X45759143Y-1486819D02*
X45663905Y-1629676D01*
X45663905Y-1629676D02*
X45568667Y-1724914D01*
X45568667Y-1724914D02*
X45473429Y-1772533D01*
X46521048Y-2486819D02*
X46711524Y-2486819D01*
X46711524Y-2486819D02*
X46806762Y-2439200D01*
X46806762Y-2439200D02*
X46854381Y-2391580D01*
X46854381Y-2391580D02*
X46949619Y-2248723D01*
X46949619Y-2248723D02*
X46997238Y-2058247D01*
X46997238Y-2058247D02*
X46997238Y-1677295D01*
X46997238Y-1677295D02*
X46949619Y-1582057D01*
X46949619Y-1582057D02*
X46902000Y-1534438D01*
X46902000Y-1534438D02*
X46806762Y-1486819D01*
X46806762Y-1486819D02*
X46616286Y-1486819D01*
X46616286Y-1486819D02*
X46521048Y-1534438D01*
X46521048Y-1534438D02*
X46473429Y-1582057D01*
X46473429Y-1582057D02*
X46425810Y-1677295D01*
X46425810Y-1677295D02*
X46425810Y-1915390D01*
X46425810Y-1915390D02*
X46473429Y-2010628D01*
X46473429Y-2010628D02*
X46521048Y-2058247D01*
X46521048Y-2058247D02*
X46616286Y-2105866D01*
X46616286Y-2105866D02*
X46806762Y-2105866D01*
X46806762Y-2105866D02*
X46902000Y-2058247D01*
X46902000Y-2058247D02*
X46949619Y-2010628D01*
X46949619Y-2010628D02*
X46997238Y-1915390D01*
D10*
X23860286Y2722733D02*
X24622191Y2722733D01*
X24241238Y2341780D02*
X24241238Y3103685D01*
X25574571Y3341780D02*
X25098381Y3341780D01*
X25098381Y3341780D02*
X25050762Y2865590D01*
X25050762Y2865590D02*
X25098381Y2913209D01*
X25098381Y2913209D02*
X25193619Y2960828D01*
X25193619Y2960828D02*
X25431714Y2960828D01*
X25431714Y2960828D02*
X25526952Y2913209D01*
X25526952Y2913209D02*
X25574571Y2865590D01*
X25574571Y2865590D02*
X25622190Y2770352D01*
X25622190Y2770352D02*
X25622190Y2532257D01*
X25622190Y2532257D02*
X25574571Y2437019D01*
X25574571Y2437019D02*
X25526952Y2389400D01*
X25526952Y2389400D02*
X25431714Y2341780D01*
X25431714Y2341780D02*
X25193619Y2341780D01*
X25193619Y2341780D02*
X25098381Y2389400D01*
X25098381Y2389400D02*
X25050762Y2437019D01*
X25907905Y3341780D02*
X26241238Y2341780D01*
X26241238Y2341780D02*
X26574571Y3341780D01*
%TO.C,J4*%
X14240190Y3881590D02*
X14383047Y3833971D01*
X14383047Y3833971D02*
X14430666Y3786352D01*
X14430666Y3786352D02*
X14478285Y3691114D01*
X14478285Y3691114D02*
X14478285Y3548257D01*
X14478285Y3548257D02*
X14430666Y3453019D01*
X14430666Y3453019D02*
X14383047Y3405400D01*
X14383047Y3405400D02*
X14287809Y3357780D01*
X14287809Y3357780D02*
X13906857Y3357780D01*
X13906857Y3357780D02*
X13906857Y4357780D01*
X13906857Y4357780D02*
X14240190Y4357780D01*
X14240190Y4357780D02*
X14335428Y4310161D01*
X14335428Y4310161D02*
X14383047Y4262542D01*
X14383047Y4262542D02*
X14430666Y4167304D01*
X14430666Y4167304D02*
X14430666Y4072066D01*
X14430666Y4072066D02*
X14383047Y3976828D01*
X14383047Y3976828D02*
X14335428Y3929209D01*
X14335428Y3929209D02*
X14240190Y3881590D01*
X14240190Y3881590D02*
X13906857Y3881590D01*
X14906857Y4357780D02*
X14906857Y3548257D01*
X14906857Y3548257D02*
X14954476Y3453019D01*
X14954476Y3453019D02*
X15002095Y3405400D01*
X15002095Y3405400D02*
X15097333Y3357780D01*
X15097333Y3357780D02*
X15287809Y3357780D01*
X15287809Y3357780D02*
X15383047Y3405400D01*
X15383047Y3405400D02*
X15430666Y3453019D01*
X15430666Y3453019D02*
X15478285Y3548257D01*
X15478285Y3548257D02*
X15478285Y4357780D01*
X15906857Y3405400D02*
X16049714Y3357780D01*
X16049714Y3357780D02*
X16287809Y3357780D01*
X16287809Y3357780D02*
X16383047Y3405400D01*
X16383047Y3405400D02*
X16430666Y3453019D01*
X16430666Y3453019D02*
X16478285Y3548257D01*
X16478285Y3548257D02*
X16478285Y3643495D01*
X16478285Y3643495D02*
X16430666Y3738733D01*
X16430666Y3738733D02*
X16383047Y3786352D01*
X16383047Y3786352D02*
X16287809Y3833971D01*
X16287809Y3833971D02*
X16097333Y3881590D01*
X16097333Y3881590D02*
X16002095Y3929209D01*
X16002095Y3929209D02*
X15954476Y3976828D01*
X15954476Y3976828D02*
X15906857Y4072066D01*
X15906857Y4072066D02*
X15906857Y4167304D01*
X15906857Y4167304D02*
X15954476Y4262542D01*
X15954476Y4262542D02*
X16002095Y4310161D01*
X16002095Y4310161D02*
X16097333Y4357780D01*
X16097333Y4357780D02*
X16335428Y4357780D01*
X16335428Y4357780D02*
X16478285Y4310161D01*
X17668762Y3357780D02*
X17668762Y4357780D01*
X18097333Y4262542D02*
X18144952Y4310161D01*
X18144952Y4310161D02*
X18240190Y4357780D01*
X18240190Y4357780D02*
X18478285Y4357780D01*
X18478285Y4357780D02*
X18573523Y4310161D01*
X18573523Y4310161D02*
X18621142Y4262542D01*
X18621142Y4262542D02*
X18668761Y4167304D01*
X18668761Y4167304D02*
X18668761Y4072066D01*
X18668761Y4072066D02*
X18621142Y3929209D01*
X18621142Y3929209D02*
X18049714Y3357780D01*
X18049714Y3357780D02*
X18668761Y3357780D01*
X19668761Y3453019D02*
X19621142Y3405400D01*
X19621142Y3405400D02*
X19478285Y3357780D01*
X19478285Y3357780D02*
X19383047Y3357780D01*
X19383047Y3357780D02*
X19240190Y3405400D01*
X19240190Y3405400D02*
X19144952Y3500638D01*
X19144952Y3500638D02*
X19097333Y3595876D01*
X19097333Y3595876D02*
X19049714Y3786352D01*
X19049714Y3786352D02*
X19049714Y3929209D01*
X19049714Y3929209D02*
X19097333Y4119685D01*
X19097333Y4119685D02*
X19144952Y4214923D01*
X19144952Y4214923D02*
X19240190Y4310161D01*
X19240190Y4310161D02*
X19383047Y4357780D01*
X19383047Y4357780D02*
X19478285Y4357780D01*
X19478285Y4357780D02*
X19621142Y4310161D01*
X19621142Y4310161D02*
X19668761Y4262542D01*
D13*
X11912709Y-2524142D02*
X11912709Y-2809856D01*
X11912709Y-2666999D02*
X11412709Y-2666999D01*
X11412709Y-2666999D02*
X11484138Y-2714618D01*
X11484138Y-2714618D02*
X11531757Y-2762237D01*
X11531757Y-2762237D02*
X11555566Y-2809856D01*
D12*
%TO.C,J5*%
X2641999Y3866752D02*
X2908665Y3866752D01*
X3022951Y3447704D02*
X2641999Y3447704D01*
X2641999Y3447704D02*
X2641999Y4247704D01*
X2641999Y4247704D02*
X3022951Y4247704D01*
X3289618Y4247704D02*
X3822952Y3447704D01*
X3822952Y4247704D02*
X3289618Y3447704D01*
X4013428Y4247704D02*
X4470571Y4247704D01*
X4241999Y3447704D02*
X4241999Y4247704D01*
X4546762Y3371514D02*
X5156285Y3371514D01*
X5346762Y3447704D02*
X5346762Y4247704D01*
X5346762Y4247704D02*
X5651524Y4247704D01*
X5651524Y4247704D02*
X5727714Y4209609D01*
X5727714Y4209609D02*
X5765809Y4171514D01*
X5765809Y4171514D02*
X5803905Y4095323D01*
X5803905Y4095323D02*
X5803905Y3981038D01*
X5803905Y3981038D02*
X5765809Y3904847D01*
X5765809Y3904847D02*
X5727714Y3866752D01*
X5727714Y3866752D02*
X5651524Y3828657D01*
X5651524Y3828657D02*
X5346762Y3828657D01*
X6299143Y4247704D02*
X6451524Y4247704D01*
X6451524Y4247704D02*
X6527714Y4209609D01*
X6527714Y4209609D02*
X6603905Y4133419D01*
X6603905Y4133419D02*
X6642000Y3981038D01*
X6642000Y3981038D02*
X6642000Y3714371D01*
X6642000Y3714371D02*
X6603905Y3561990D01*
X6603905Y3561990D02*
X6527714Y3485800D01*
X6527714Y3485800D02*
X6451524Y3447704D01*
X6451524Y3447704D02*
X6299143Y3447704D01*
X6299143Y3447704D02*
X6222952Y3485800D01*
X6222952Y3485800D02*
X6146762Y3561990D01*
X6146762Y3561990D02*
X6108666Y3714371D01*
X6108666Y3714371D02*
X6108666Y3981038D01*
X6108666Y3981038D02*
X6146762Y4133419D01*
X6146762Y4133419D02*
X6222952Y4209609D01*
X6222952Y4209609D02*
X6299143Y4247704D01*
X6908666Y4247704D02*
X7099142Y3447704D01*
X7099142Y3447704D02*
X7251523Y4019133D01*
X7251523Y4019133D02*
X7403904Y3447704D01*
X7403904Y3447704D02*
X7594381Y4247704D01*
X7899143Y3866752D02*
X8165809Y3866752D01*
X8280095Y3447704D02*
X7899143Y3447704D01*
X7899143Y3447704D02*
X7899143Y4247704D01*
X7899143Y4247704D02*
X8280095Y4247704D01*
X9080096Y3447704D02*
X8813429Y3828657D01*
X8622953Y3447704D02*
X8622953Y4247704D01*
X8622953Y4247704D02*
X8927715Y4247704D01*
X8927715Y4247704D02*
X9003905Y4209609D01*
X9003905Y4209609D02*
X9042000Y4171514D01*
X9042000Y4171514D02*
X9080096Y4095323D01*
X9080096Y4095323D02*
X9080096Y3981038D01*
X9080096Y3981038D02*
X9042000Y3904847D01*
X9042000Y3904847D02*
X9003905Y3866752D01*
X9003905Y3866752D02*
X8927715Y3828657D01*
X8927715Y3828657D02*
X8622953Y3828657D01*
D10*
%TO.C,J6*%
X59221905Y-5754504D02*
X59698095Y-5754504D01*
X59126667Y-6040219D02*
X59460000Y-5040219D01*
X59460000Y-5040219D02*
X59793333Y-6040219D01*
X60126667Y-6040219D02*
X60126667Y-5040219D01*
X60126667Y-5040219D02*
X60364762Y-5040219D01*
X60364762Y-5040219D02*
X60507619Y-5087838D01*
X60507619Y-5087838D02*
X60602857Y-5183076D01*
X60602857Y-5183076D02*
X60650476Y-5278314D01*
X60650476Y-5278314D02*
X60698095Y-5468790D01*
X60698095Y-5468790D02*
X60698095Y-5611647D01*
X60698095Y-5611647D02*
X60650476Y-5802123D01*
X60650476Y-5802123D02*
X60602857Y-5897361D01*
X60602857Y-5897361D02*
X60507619Y-5992600D01*
X60507619Y-5992600D02*
X60364762Y-6040219D01*
X60364762Y-6040219D02*
X60126667Y-6040219D01*
X61126667Y-6040219D02*
X61126667Y-5040219D01*
X61126667Y-5040219D02*
X61364762Y-5040219D01*
X61364762Y-5040219D02*
X61507619Y-5087838D01*
X61507619Y-5087838D02*
X61602857Y-5183076D01*
X61602857Y-5183076D02*
X61650476Y-5278314D01*
X61650476Y-5278314D02*
X61698095Y-5468790D01*
X61698095Y-5468790D02*
X61698095Y-5611647D01*
X61698095Y-5611647D02*
X61650476Y-5802123D01*
X61650476Y-5802123D02*
X61602857Y-5897361D01*
X61602857Y-5897361D02*
X61507619Y-5992600D01*
X61507619Y-5992600D02*
X61364762Y-6040219D01*
X61364762Y-6040219D02*
X61126667Y-6040219D01*
X62698095Y-6040219D02*
X62364762Y-5564028D01*
X62126667Y-6040219D02*
X62126667Y-5040219D01*
X62126667Y-5040219D02*
X62507619Y-5040219D01*
X62507619Y-5040219D02*
X62602857Y-5087838D01*
X62602857Y-5087838D02*
X62650476Y-5135457D01*
X62650476Y-5135457D02*
X62698095Y-5230695D01*
X62698095Y-5230695D02*
X62698095Y-5373552D01*
X62698095Y-5373552D02*
X62650476Y-5468790D01*
X62650476Y-5468790D02*
X62602857Y-5516409D01*
X62602857Y-5516409D02*
X62507619Y-5564028D01*
X62507619Y-5564028D02*
X62126667Y-5564028D01*
D13*
X59918709Y-11922142D02*
X59918709Y-12207856D01*
X59918709Y-12064999D02*
X59418709Y-12064999D01*
X59418709Y-12064999D02*
X59490138Y-12112618D01*
X59490138Y-12112618D02*
X59537757Y-12160237D01*
X59537757Y-12160237D02*
X59561566Y-12207856D01*
D12*
%TO.C,TR1*%
X54110095Y-21806819D02*
X54681523Y-21806819D01*
X54395809Y-22806819D02*
X54395809Y-21806819D01*
X55586285Y-22806819D02*
X55252952Y-22330628D01*
X55014857Y-22806819D02*
X55014857Y-21806819D01*
X55014857Y-21806819D02*
X55395809Y-21806819D01*
X55395809Y-21806819D02*
X55491047Y-21854438D01*
X55491047Y-21854438D02*
X55538666Y-21902057D01*
X55538666Y-21902057D02*
X55586285Y-21997295D01*
X55586285Y-21997295D02*
X55586285Y-22140152D01*
X55586285Y-22140152D02*
X55538666Y-22235390D01*
X55538666Y-22235390D02*
X55491047Y-22283009D01*
X55491047Y-22283009D02*
X55395809Y-22330628D01*
X55395809Y-22330628D02*
X55014857Y-22330628D01*
X56538666Y-22806819D02*
X55967238Y-22806819D01*
X56252952Y-22806819D02*
X56252952Y-21806819D01*
X56252952Y-21806819D02*
X56157714Y-21949676D01*
X56157714Y-21949676D02*
X56062476Y-22044914D01*
X56062476Y-22044914D02*
X55967238Y-22092533D01*
%TO.C,J1*%
X17192666Y-22822819D02*
X17192666Y-23537104D01*
X17192666Y-23537104D02*
X17145047Y-23679961D01*
X17145047Y-23679961D02*
X17049809Y-23775200D01*
X17049809Y-23775200D02*
X16906952Y-23822819D01*
X16906952Y-23822819D02*
X16811714Y-23822819D01*
X18192666Y-23822819D02*
X17621238Y-23822819D01*
X17906952Y-23822819D02*
X17906952Y-22822819D01*
X17906952Y-22822819D02*
X17811714Y-22965676D01*
X17811714Y-22965676D02*
X17716476Y-23060914D01*
X17716476Y-23060914D02*
X17621238Y-23108533D01*
%TO.C,J4*%
X10414000Y-2286000D02*
X10414000Y2794000D01*
X23114000Y-2286000D02*
X10414000Y-2286000D01*
X10414000Y2794000D02*
X23114000Y2794000D01*
X23114000Y2794000D02*
X23114000Y-2286000D01*
%TO.C,J5*%
X4572000Y-2286000D02*
X4572000Y2794000D01*
X7112000Y-2286000D02*
X4572000Y-2286000D01*
X4572000Y2794000D02*
X7112000Y2794000D01*
X7112000Y2794000D02*
X7112000Y-2286000D01*
%TO.C,J6*%
X58420000Y-11684000D02*
X58420000Y-6604000D01*
X63500000Y-11684000D02*
X58420000Y-11684000D01*
X58420000Y-6604000D02*
X63500000Y-6604000D01*
X63500000Y-6604000D02*
X63500000Y-11684000D01*
%TO.C,TR1*%
X19340000Y-15922000D02*
X19340000Y-21222000D01*
X19340000Y-21222000D02*
X56740000Y-21222000D01*
X20040000Y-3422000D02*
X20040000Y-15922000D01*
X20040000Y-15922000D02*
X19340000Y-15922000D01*
X32940000Y-5022000D02*
X32940000Y-3422000D01*
X32940000Y-7822000D02*
X32940000Y-6322000D01*
X32940000Y-10422000D02*
X32940000Y-8722000D01*
X32940000Y-12822000D02*
X32940000Y-11222000D01*
X32940000Y-15122000D02*
X32940000Y-13622000D01*
X32940000Y-18022000D02*
X32940000Y-16222000D01*
X32940000Y-21122000D02*
X32940000Y-19122000D01*
X40340000Y-20722000D02*
X41140000Y-20722000D01*
X40340000Y-21222000D02*
X40340000Y-20722000D01*
X40740000Y-21122000D02*
X40740000Y-20722000D01*
X41140000Y-20722000D02*
X41140000Y-21222000D01*
X47940000Y-5022000D02*
X47940000Y-3422000D01*
X47940000Y-7822000D02*
X47940000Y-6322000D01*
X47940000Y-10422000D02*
X47940000Y-8722000D01*
X47940000Y-12822000D02*
X47940000Y-11222000D01*
X47940000Y-15122000D02*
X47940000Y-13622000D01*
X47940000Y-18022000D02*
X47940000Y-16222000D01*
X47940000Y-21122000D02*
X47940000Y-19122000D01*
X55940000Y-3422000D02*
X20040000Y-3422000D01*
X55940000Y-15922000D02*
X55940000Y-3422000D01*
X56640000Y-15922000D02*
X55940000Y-15922000D01*
X56740000Y-21222000D02*
X56740000Y-15922000D01*
%TO.C,J1*%
X18430000Y-22502000D02*
X18430000Y-19502000D01*
X18430000Y-19502000D02*
X16430000Y-19502000D01*
X16430000Y-24502000D02*
X6430000Y-24502000D01*
X16430000Y-22502000D02*
X18430000Y-22502000D01*
X16430000Y-22502000D02*
X16430000Y-24502000D01*
X16430000Y-19502000D02*
X16430000Y-14502000D01*
X16430000Y-18002000D02*
X6430000Y-18002000D01*
X16430000Y-14502000D02*
X6430000Y-14502000D01*
X15430000Y-14502000D02*
X15430000Y-13002000D01*
X15430000Y-13002000D02*
X12430000Y-13002000D01*
X12430000Y-13002000D02*
X12430000Y-14502000D01*
X10430000Y-14502000D02*
X10430000Y-13002000D01*
X10430000Y-13002000D02*
X7430000Y-13002000D01*
X7430000Y-13002000D02*
X7430000Y-14502000D01*
X6430000Y-24502000D02*
X6430000Y-22502000D01*
X6430000Y-22502000D02*
X4430000Y-22502000D01*
X6430000Y-14502000D02*
X6430000Y-19502000D01*
X4430000Y-22502000D02*
X4430000Y-19502000D01*
X4430000Y-19502000D02*
X6430000Y-19502000D01*
%TD*%
D14*
%TO.C,J4*%
X11684000Y-1016000D03*
X11684000Y1524000D03*
X14224000Y-1016000D03*
X14224000Y1524000D03*
X16764000Y-1016000D03*
X16764000Y1524000D03*
X19304000Y-1016000D03*
X19304000Y1524000D03*
X21844000Y-1016000D03*
X21844000Y1524000D03*
%TD*%
%TO.C,J5*%
X5842000Y-1016000D03*
X5842000Y1524000D03*
%TD*%
%TO.C,J6*%
X59690000Y-10414000D03*
X59690000Y-7874000D03*
X62230000Y-10414000D03*
X62230000Y-7874000D03*
%TD*%
M02*
