%TF.GenerationSoftware,KiCad,Pcbnew,7.0.5.1-1-g8f565ef7f0-dirty-deb11*%
%TF.CreationDate,2023-07-08T01:44:23+00:00*%
%TF.ProjectId,VCAI2C02,56434149-3243-4303-922e-6b696361645f,rev?*%
%TF.SameCoordinates,Original*%
%TF.FileFunction,Soldermask,Bot*%
%TF.FilePolarity,Negative*%
%FSLAX46Y46*%
G04 Gerber Fmt 4.6, Leading zero omitted, Abs format (unit mm)*
G04 Created by KiCad (PCBNEW 7.0.5.1-1-g8f565ef7f0-dirty-deb11) date 2023-07-08 01:44:23*
%MOMM*%
%LPD*%
G01*
G04 APERTURE LIST*
G04 Aperture macros list*
%AMRoundRect*
0 Rectangle with rounded corners*
0 $1 Rounding radius*
0 $2 $3 $4 $5 $6 $7 $8 $9 X,Y pos of 4 corners*
0 Add a 4 corners polygon primitive as box body*
4,1,4,$2,$3,$4,$5,$6,$7,$8,$9,$2,$3,0*
0 Add four circle primitives for the rounded corners*
1,1,$1+$1,$2,$3*
1,1,$1+$1,$4,$5*
1,1,$1+$1,$6,$7*
1,1,$1+$1,$8,$9*
0 Add four rect primitives between the rounded corners*
20,1,$1+$1,$2,$3,$4,$5,0*
20,1,$1+$1,$4,$5,$6,$7,0*
20,1,$1+$1,$6,$7,$8,$9,0*
20,1,$1+$1,$8,$9,$2,$3,0*%
G04 Aperture macros list end*
%ADD10RoundRect,0.200000X0.762000X-0.762000X0.762000X0.762000X-0.762000X0.762000X-0.762000X-0.762000X0*%
%ADD11C,6.400000*%
%ADD12C,1.924000*%
%ADD13C,2.900000*%
%ADD14C,3.900000*%
%ADD15C,2.400000*%
%ADD16RoundRect,0.200000X0.450000X0.500000X-0.450000X0.500000X-0.450000X-0.500000X0.450000X-0.500000X0*%
%ADD17RoundRect,0.200000X-0.625000X0.625000X-0.625000X-0.625000X0.625000X-0.625000X0.625000X0.625000X0*%
%ADD18RoundRect,0.200000X0.800000X0.205000X-0.800000X0.205000X-0.800000X-0.205000X0.800000X-0.205000X0*%
%ADD19RoundRect,0.200000X-0.700000X-0.150000X0.700000X-0.150000X0.700000X0.150000X-0.700000X0.150000X0*%
%ADD20RoundRect,0.450000X0.925000X-0.412500X0.925000X0.412500X-0.925000X0.412500X-0.925000X-0.412500X0*%
%ADD21RoundRect,0.443750X-0.456250X0.243750X-0.456250X-0.243750X0.456250X-0.243750X0.456250X0.243750X0*%
%ADD22RoundRect,0.443750X0.456250X-0.243750X0.456250X0.243750X-0.456250X0.243750X-0.456250X-0.243750X0*%
%ADD23C,3.100000*%
%ADD24RoundRect,0.200000X0.750000X-0.525000X0.750000X0.525000X-0.750000X0.525000X-0.750000X-0.525000X0*%
%ADD25RoundRect,0.200000X0.350000X-0.300000X0.350000X0.300000X-0.350000X0.300000X-0.350000X-0.300000X0*%
%ADD26RoundRect,0.443750X0.243750X0.456250X-0.243750X0.456250X-0.243750X-0.456250X0.243750X-0.456250X0*%
%ADD27RoundRect,0.443750X-0.243750X-0.456250X0.243750X-0.456250X0.243750X0.456250X-0.243750X0.456250X0*%
G04 APERTURE END LIST*
D10*
%TO.C,J4*%
X11684000Y-1016000D03*
X11684000Y1524000D03*
X14224000Y-1016000D03*
X14224000Y1524000D03*
X16764000Y-1016000D03*
X16764000Y1524000D03*
X19304000Y-1016000D03*
X19304000Y1524000D03*
X21844000Y-1016000D03*
X21844000Y1524000D03*
%TD*%
%TO.C,J5*%
X5842000Y-1016000D03*
X5842000Y1524000D03*
%TD*%
%TO.C,J6*%
X59690000Y-10414000D03*
X59690000Y-7874000D03*
X62230000Y-10414000D03*
X62230000Y-7874000D03*
%TD*%
D11*
%TO.C,MH1*%
X60960000Y0D03*
%TD*%
%TO.C,MH2*%
X0Y-20320000D03*
%TD*%
%TO.C,MH3*%
X60960000Y-20320000D03*
%TD*%
%TO.C,MH4*%
X0Y0D03*
%TD*%
D12*
%TO.C,TR1*%
X22860000Y-23622000D03*
X25400000Y-23622000D03*
X27940000Y-23622000D03*
D13*
X26240000Y-6422000D03*
X55240000Y-18422000D03*
%TD*%
D14*
%TO.C,J1*%
X13930000Y-11002000D03*
X8930000Y-11002000D03*
D15*
X16930000Y-21002000D03*
X5930000Y-21002000D03*
%TD*%
D16*
%TO.C,D3*%
X-2286000Y-9406000D03*
X254000Y-9406000D03*
X-2286000Y-15486000D03*
X254000Y-15486000D03*
%TD*%
D17*
%TO.C,L1*%
X19558000Y-3218000D03*
X19558000Y-5418000D03*
%TD*%
D18*
%TO.C,U1*%
X11544300Y-3365500D03*
X11544300Y-4000500D03*
X11544300Y-4635500D03*
X11544300Y-5270500D03*
X11544300Y-5905500D03*
X11544300Y-6540500D03*
X11544300Y-7175500D03*
X11544300Y-7810500D03*
X6235700Y-7810500D03*
X6235700Y-7175500D03*
X6235700Y-6540500D03*
X6235700Y-5905500D03*
X6235700Y-5270500D03*
X6235700Y-4635500D03*
X6235700Y-4000500D03*
X6235700Y-3365500D03*
%TD*%
D19*
%TO.C,U2*%
X25740000Y-11668000D03*
X25740000Y-11168000D03*
X25740000Y-10668000D03*
X25740000Y-10168000D03*
X25740000Y-9668000D03*
X30140000Y-9668000D03*
X30140000Y-10168000D03*
X30140000Y-10668000D03*
X30140000Y-11168000D03*
X30140000Y-11668000D03*
%TD*%
D20*
%TO.C,C11*%
X34798000Y-9157500D03*
X34798000Y-6082500D03*
%TD*%
D21*
%TO.C,R1*%
X14986000Y-14810500D03*
X14986000Y-16685500D03*
%TD*%
%TO.C,R7*%
X12954000Y-14810500D03*
X12954000Y-16685500D03*
%TD*%
D22*
%TO.C,R8*%
X9906000Y-16685500D03*
X9906000Y-14810500D03*
%TD*%
D23*
%TO.C,D2*%
X25146000Y254000D03*
D24*
X25146000Y2254000D03*
X25146000Y-1746000D03*
%TD*%
D25*
%TO.C,D1*%
X254000Y-6158000D03*
X254000Y-7558000D03*
%TD*%
D22*
%TO.C,C3*%
X3556000Y-6271500D03*
X3556000Y-4396500D03*
%TD*%
D21*
%TO.C,C4*%
X14224000Y-2872500D03*
X14224000Y-4747500D03*
%TD*%
%TO.C,C5*%
X16256000Y-2872500D03*
X16256000Y-4747500D03*
%TD*%
D26*
%TO.C,C6*%
X16431500Y-6604000D03*
X14556500Y-6604000D03*
%TD*%
%TO.C,C7*%
X23035500Y-14732000D03*
X21160500Y-14732000D03*
%TD*%
D21*
%TO.C,C8*%
X21590000Y-8968500D03*
X21590000Y-10843500D03*
%TD*%
D26*
%TO.C,C9*%
X28623500Y-21590000D03*
X26748500Y-21590000D03*
%TD*%
D22*
%TO.C,C10*%
X32258000Y-9065500D03*
X32258000Y-7190500D03*
%TD*%
D27*
%TO.C,R3*%
X3634500Y-16764000D03*
X5509500Y-16764000D03*
%TD*%
D26*
%TO.C,R10*%
X15923500Y3810000D03*
X14048500Y3810000D03*
%TD*%
D21*
%TO.C,R11*%
X-2286000Y-5920500D03*
X-2286000Y-7795500D03*
%TD*%
D27*
%TO.C,R12*%
X17604500Y3810000D03*
X19479500Y3810000D03*
%TD*%
D22*
%TO.C,R13*%
X28194000Y-1699500D03*
X28194000Y175500D03*
%TD*%
D27*
%TO.C,R14*%
X22176500Y-21590000D03*
X24051500Y-21590000D03*
%TD*%
D21*
%TO.C,R15*%
X22606000Y-16588500D03*
X22606000Y-18463500D03*
%TD*%
D26*
%TO.C,R16*%
X19733500Y-9144000D03*
X17858500Y-9144000D03*
%TD*%
D27*
%TO.C,R17*%
X21160500Y-12700000D03*
X23035500Y-12700000D03*
%TD*%
D22*
%TO.C,R18*%
X23622000Y-10843500D03*
X23622000Y-8968500D03*
%TD*%
D21*
%TO.C,R22*%
X59690000Y-12270500D03*
X59690000Y-14145500D03*
%TD*%
%TO.C,R24*%
X62230000Y-12270500D03*
X62230000Y-14145500D03*
%TD*%
D22*
%TO.C,R2*%
X7874000Y-16685500D03*
X7874000Y-14810500D03*
%TD*%
D26*
%TO.C,R6*%
X5509500Y-12700000D03*
X3634500Y-12700000D03*
%TD*%
D27*
%TO.C,R5*%
X3634500Y-14732000D03*
X5509500Y-14732000D03*
%TD*%
D26*
%TO.C,R4*%
X5459510Y-10675708D03*
X3584510Y-10675708D03*
%TD*%
M02*
