%TF.GenerationSoftware,KiCad,Pcbnew,6.0.11+dfsg-1~bpo11+1*%
%TF.CreationDate,2023-07-05T11:57:00+00:00*%
%TF.ProjectId,VCAI2C02,56434149-3243-4303-922e-6b696361645f,rev?*%
%TF.SameCoordinates,Original*%
%TF.FileFunction,Legend,Top*%
%TF.FilePolarity,Positive*%
%FSLAX46Y46*%
G04 Gerber Fmt 4.6, Leading zero omitted, Abs format (unit mm)*
G04 Created by KiCad (PCBNEW 6.0.11+dfsg-1~bpo11+1) date 2023-07-05 11:57:00*
%MOMM*%
%LPD*%
G01*
G04 APERTURE LIST*
%ADD10C,0.200000*%
%ADD11C,0.150000*%
%ADD12C,0.250000*%
%ADD13C,0.050000*%
%ADD14R,1.524000X1.524000*%
G04 APERTURE END LIST*
D10*
X23860285Y2722571D02*
X24622190Y2722571D01*
X24241238Y2341619D02*
X24241238Y3103523D01*
X25574571Y3341619D02*
X25098380Y3341619D01*
X25050761Y2865428D01*
X25098380Y2913047D01*
X25193619Y2960666D01*
X25431714Y2960666D01*
X25526952Y2913047D01*
X25574571Y2865428D01*
X25622190Y2770190D01*
X25622190Y2532095D01*
X25574571Y2436857D01*
X25526952Y2389238D01*
X25431714Y2341619D01*
X25193619Y2341619D01*
X25098380Y2389238D01*
X25050761Y2436857D01*
X25907904Y3341619D02*
X26241238Y2341619D01*
X26574571Y3341619D01*
D11*
X36140095Y-2865333D02*
X36092476Y-2817714D01*
X35997238Y-2674857D01*
X35949619Y-2579619D01*
X35902000Y-2436761D01*
X35854380Y-2198666D01*
X35854380Y-2008190D01*
X35902000Y-1770095D01*
X35949619Y-1627238D01*
X35997238Y-1532000D01*
X36092476Y-1389142D01*
X36140095Y-1341523D01*
X36949619Y-2436761D02*
X36854380Y-2484380D01*
X36663904Y-2484380D01*
X36568666Y-2436761D01*
X36521047Y-2389142D01*
X36473428Y-2293904D01*
X36473428Y-2008190D01*
X36521047Y-1912952D01*
X36568666Y-1865333D01*
X36663904Y-1817714D01*
X36854380Y-1817714D01*
X36949619Y-1865333D01*
X37282952Y-2865333D02*
X37330571Y-2817714D01*
X37425809Y-2674857D01*
X37473428Y-2579619D01*
X37521047Y-2436761D01*
X37568666Y-2198666D01*
X37568666Y-2008190D01*
X37521047Y-1770095D01*
X37473428Y-1627238D01*
X37425809Y-1532000D01*
X37330571Y-1389142D01*
X37282952Y-1341523D01*
X37902000Y-1484380D02*
X38235333Y-2484380D01*
X38568666Y-1484380D01*
X39473428Y-2389142D02*
X39425809Y-2436761D01*
X39282952Y-2484380D01*
X39187714Y-2484380D01*
X39044857Y-2436761D01*
X38949619Y-2341523D01*
X38902000Y-2246285D01*
X38854380Y-2055809D01*
X38854380Y-1912952D01*
X38902000Y-1722476D01*
X38949619Y-1627238D01*
X39044857Y-1532000D01*
X39187714Y-1484380D01*
X39282952Y-1484380D01*
X39425809Y-1532000D01*
X39473428Y-1579619D01*
X40092476Y-1484380D02*
X40282952Y-1484380D01*
X40378190Y-1532000D01*
X40473428Y-1627238D01*
X40521047Y-1817714D01*
X40521047Y-2151047D01*
X40473428Y-2341523D01*
X40378190Y-2436761D01*
X40282952Y-2484380D01*
X40092476Y-2484380D01*
X39997238Y-2436761D01*
X39902000Y-2341523D01*
X39854380Y-2151047D01*
X39854380Y-1817714D01*
X39902000Y-1627238D01*
X39997238Y-1532000D01*
X40092476Y-1484380D01*
X40854380Y-1484380D02*
X41473428Y-1484380D01*
X41140095Y-1865333D01*
X41282952Y-1865333D01*
X41378190Y-1912952D01*
X41425809Y-1960571D01*
X41473428Y-2055809D01*
X41473428Y-2293904D01*
X41425809Y-2389142D01*
X41378190Y-2436761D01*
X41282952Y-2484380D01*
X40997238Y-2484380D01*
X40902000Y-2436761D01*
X40854380Y-2389142D01*
X42330571Y-1817714D02*
X42330571Y-2484380D01*
X42092476Y-1436761D02*
X41854380Y-2151047D01*
X42473428Y-2151047D01*
X43568666Y-1579619D02*
X43616285Y-1532000D01*
X43711523Y-1484380D01*
X43949619Y-1484380D01*
X44044857Y-1532000D01*
X44092476Y-1579619D01*
X44140095Y-1674857D01*
X44140095Y-1770095D01*
X44092476Y-1912952D01*
X43521047Y-2484380D01*
X44140095Y-2484380D01*
X44759142Y-1484380D02*
X44854380Y-1484380D01*
X44949619Y-1532000D01*
X44997238Y-1579619D01*
X45044857Y-1674857D01*
X45092476Y-1865333D01*
X45092476Y-2103428D01*
X45044857Y-2293904D01*
X44997238Y-2389142D01*
X44949619Y-2436761D01*
X44854380Y-2484380D01*
X44759142Y-2484380D01*
X44663904Y-2436761D01*
X44616285Y-2389142D01*
X44568666Y-2293904D01*
X44521047Y-2103428D01*
X44521047Y-1865333D01*
X44568666Y-1674857D01*
X44616285Y-1579619D01*
X44663904Y-1532000D01*
X44759142Y-1484380D01*
X46044857Y-2484380D02*
X45473428Y-2484380D01*
X45759142Y-2484380D02*
X45759142Y-1484380D01*
X45663904Y-1627238D01*
X45568666Y-1722476D01*
X45473428Y-1770095D01*
X46521047Y-2484380D02*
X46711523Y-2484380D01*
X46806761Y-2436761D01*
X46854380Y-2389142D01*
X46949619Y-2246285D01*
X46997238Y-2055809D01*
X46997238Y-1674857D01*
X46949619Y-1579619D01*
X46902000Y-1532000D01*
X46806761Y-1484380D01*
X46616285Y-1484380D01*
X46521047Y-1532000D01*
X46473428Y-1579619D01*
X46425809Y-1674857D01*
X46425809Y-1912952D01*
X46473428Y-2008190D01*
X46521047Y-2055809D01*
X46616285Y-2103428D01*
X46806761Y-2103428D01*
X46902000Y-2055809D01*
X46949619Y-2008190D01*
X46997238Y-1912952D01*
D12*
X33489333Y3163666D02*
X33956000Y1763666D01*
X34422666Y3163666D01*
X35689333Y1897000D02*
X35622666Y1830333D01*
X35422666Y1763666D01*
X35289333Y1763666D01*
X35089333Y1830333D01*
X34956000Y1963666D01*
X34889333Y2097000D01*
X34822666Y2363666D01*
X34822666Y2563666D01*
X34889333Y2830333D01*
X34956000Y2963666D01*
X35089333Y3097000D01*
X35289333Y3163666D01*
X35422666Y3163666D01*
X35622666Y3097000D01*
X35689333Y3030333D01*
X36222666Y2163666D02*
X36889333Y2163666D01*
X36089333Y1763666D02*
X36556000Y3163666D01*
X37022666Y1763666D01*
X37489333Y1763666D02*
X37489333Y3163666D01*
X38089333Y3030333D02*
X38156000Y3097000D01*
X38289333Y3163666D01*
X38622666Y3163666D01*
X38756000Y3097000D01*
X38822666Y3030333D01*
X38889333Y2897000D01*
X38889333Y2763666D01*
X38822666Y2563666D01*
X38022666Y1763666D01*
X38889333Y1763666D01*
X40289333Y1897000D02*
X40222666Y1830333D01*
X40022666Y1763666D01*
X39889333Y1763666D01*
X39689333Y1830333D01*
X39556000Y1963666D01*
X39489333Y2097000D01*
X39422666Y2363666D01*
X39422666Y2563666D01*
X39489333Y2830333D01*
X39556000Y2963666D01*
X39689333Y3097000D01*
X39889333Y3163666D01*
X40022666Y3163666D01*
X40222666Y3097000D01*
X40289333Y3030333D01*
X41156000Y3163666D02*
X41289333Y3163666D01*
X41422666Y3097000D01*
X41489333Y3030333D01*
X41556000Y2897000D01*
X41622666Y2630333D01*
X41622666Y2297000D01*
X41556000Y2030333D01*
X41489333Y1897000D01*
X41422666Y1830333D01*
X41289333Y1763666D01*
X41156000Y1763666D01*
X41022666Y1830333D01*
X40956000Y1897000D01*
X40889333Y2030333D01*
X40822666Y2297000D01*
X40822666Y2630333D01*
X40889333Y2897000D01*
X40956000Y3030333D01*
X41022666Y3097000D01*
X41156000Y3163666D01*
X42156000Y3030333D02*
X42222666Y3097000D01*
X42356000Y3163666D01*
X42689333Y3163666D01*
X42822666Y3097000D01*
X42889333Y3030333D01*
X42956000Y2897000D01*
X42956000Y2763666D01*
X42889333Y2563666D01*
X42089333Y1763666D01*
X42956000Y1763666D01*
X43489333Y2163666D02*
X44156000Y2163666D01*
X43356000Y1763666D02*
X43822666Y3163666D01*
X44289333Y1763666D01*
X45822666Y1763666D02*
X45822666Y2697000D01*
X45822666Y2430333D02*
X45889333Y2563666D01*
X45956000Y2630333D01*
X46089333Y2697000D01*
X46222666Y2697000D01*
X47222666Y1830333D02*
X47089333Y1763666D01*
X46822666Y1763666D01*
X46689333Y1830333D01*
X46622666Y1963666D01*
X46622666Y2497000D01*
X46689333Y2630333D01*
X46822666Y2697000D01*
X47089333Y2697000D01*
X47222666Y2630333D01*
X47289333Y2497000D01*
X47289333Y2363666D01*
X46622666Y2230333D01*
X47756000Y2697000D02*
X48089333Y1763666D01*
X48422666Y2697000D01*
X49689333Y1763666D02*
X48889333Y1763666D01*
X49289333Y1763666D02*
X49289333Y3163666D01*
X49156000Y2963666D01*
X49022666Y2830333D01*
X48889333Y2763666D01*
X35256000Y442999D02*
X35522666Y-490333D01*
X35789333Y176333D01*
X36056000Y-490333D01*
X36322666Y442999D01*
X36722666Y442999D02*
X36989333Y-490333D01*
X37256000Y176333D01*
X37522666Y-490333D01*
X37789333Y442999D01*
X38189333Y442999D02*
X38456000Y-490333D01*
X38722666Y176333D01*
X38989333Y-490333D01*
X39256000Y442999D01*
X39789333Y-357000D02*
X39856000Y-423666D01*
X39789333Y-490333D01*
X39722666Y-423666D01*
X39789333Y-357000D01*
X39789333Y-490333D01*
X40456000Y-490333D02*
X40456000Y442999D01*
X40456000Y309666D02*
X40522666Y376333D01*
X40656000Y442999D01*
X40856000Y442999D01*
X40989333Y376333D01*
X41056000Y243000D01*
X41056000Y-490333D01*
X41056000Y243000D02*
X41122666Y376333D01*
X41256000Y442999D01*
X41456000Y442999D01*
X41589333Y376333D01*
X41656000Y243000D01*
X41656000Y-490333D01*
X42522666Y-490333D02*
X42389333Y-423666D01*
X42322666Y-290333D01*
X42322666Y909666D01*
X43656000Y-490333D02*
X43656000Y243000D01*
X43589333Y376333D01*
X43456000Y442999D01*
X43189333Y442999D01*
X43056000Y376333D01*
X43656000Y-423666D02*
X43522666Y-490333D01*
X43189333Y-490333D01*
X43056000Y-423666D01*
X42989333Y-290333D01*
X42989333Y-157000D01*
X43056000Y-23666D01*
X43189333Y43000D01*
X43522666Y43000D01*
X43656000Y109666D01*
X44322666Y-490333D02*
X44322666Y909666D01*
X44322666Y376333D02*
X44456000Y442999D01*
X44722666Y442999D01*
X44856000Y376333D01*
X44922666Y309666D01*
X44989333Y176333D01*
X44989333Y-223666D01*
X44922666Y-357000D01*
X44856000Y-423666D01*
X44722666Y-490333D01*
X44456000Y-490333D01*
X44322666Y-423666D01*
X45589333Y-357000D02*
X45656000Y-423666D01*
X45589333Y-490333D01*
X45522666Y-423666D01*
X45589333Y-357000D01*
X45589333Y-490333D01*
X46856000Y-423666D02*
X46722666Y-490333D01*
X46456000Y-490333D01*
X46322666Y-423666D01*
X46256000Y-357000D01*
X46189333Y-223666D01*
X46189333Y176333D01*
X46256000Y309666D01*
X46322666Y376333D01*
X46456000Y442999D01*
X46722666Y442999D01*
X46856000Y376333D01*
X47322666Y442999D02*
X48056000Y442999D01*
X47322666Y-490333D01*
X48056000Y-490333D01*
D10*
X61515714Y-12866666D02*
X61991904Y-12866666D01*
X61420476Y-13152380D02*
X61753809Y-12152380D01*
X62087142Y-13152380D01*
X62944285Y-13152380D02*
X62372857Y-13152380D01*
X62658571Y-13152380D02*
X62658571Y-12152380D01*
X62563333Y-12295238D01*
X62468095Y-12390476D01*
X62372857Y-12438095D01*
X58975714Y-12866666D02*
X59451904Y-12866666D01*
X58880476Y-13152380D02*
X59213809Y-12152380D01*
X59547142Y-13152380D01*
X60070952Y-12152380D02*
X60166190Y-12152380D01*
X60261428Y-12200000D01*
X60309047Y-12247619D01*
X60356666Y-12342857D01*
X60404285Y-12533333D01*
X60404285Y-12771428D01*
X60356666Y-12961904D01*
X60309047Y-13057142D01*
X60261428Y-13104761D01*
X60166190Y-13152380D01*
X60070952Y-13152380D01*
X59975714Y-13104761D01*
X59928095Y-13057142D01*
X59880476Y-12961904D01*
X59832857Y-12771428D01*
X59832857Y-12533333D01*
X59880476Y-12342857D01*
X59928095Y-12247619D01*
X59975714Y-12200000D01*
X60070952Y-12152380D01*
D11*
%TO.C,J1*%
X17192666Y-22820380D02*
X17192666Y-23534666D01*
X17145047Y-23677523D01*
X17049809Y-23772761D01*
X16906952Y-23820380D01*
X16811714Y-23820380D01*
X18192666Y-23820380D02*
X17621238Y-23820380D01*
X17906952Y-23820380D02*
X17906952Y-22820380D01*
X17811714Y-22963238D01*
X17716476Y-23058476D01*
X17621238Y-23106095D01*
%TO.C,TR1*%
X54110095Y-21804380D02*
X54681523Y-21804380D01*
X54395809Y-22804380D02*
X54395809Y-21804380D01*
X55586285Y-22804380D02*
X55252952Y-22328190D01*
X55014857Y-22804380D02*
X55014857Y-21804380D01*
X55395809Y-21804380D01*
X55491047Y-21852000D01*
X55538666Y-21899619D01*
X55586285Y-21994857D01*
X55586285Y-22137714D01*
X55538666Y-22232952D01*
X55491047Y-22280571D01*
X55395809Y-22328190D01*
X55014857Y-22328190D01*
X56538666Y-22804380D02*
X55967238Y-22804380D01*
X56252952Y-22804380D02*
X56252952Y-21804380D01*
X56157714Y-21947238D01*
X56062476Y-22042476D01*
X55967238Y-22090095D01*
D10*
%TO.C,J4*%
X14240190Y3881428D02*
X14383047Y3833809D01*
X14430666Y3786190D01*
X14478285Y3690952D01*
X14478285Y3548095D01*
X14430666Y3452857D01*
X14383047Y3405238D01*
X14287809Y3357619D01*
X13906857Y3357619D01*
X13906857Y4357619D01*
X14240190Y4357619D01*
X14335428Y4310000D01*
X14383047Y4262380D01*
X14430666Y4167142D01*
X14430666Y4071904D01*
X14383047Y3976666D01*
X14335428Y3929047D01*
X14240190Y3881428D01*
X13906857Y3881428D01*
X14906857Y4357619D02*
X14906857Y3548095D01*
X14954476Y3452857D01*
X15002095Y3405238D01*
X15097333Y3357619D01*
X15287809Y3357619D01*
X15383047Y3405238D01*
X15430666Y3452857D01*
X15478285Y3548095D01*
X15478285Y4357619D01*
X15906857Y3405238D02*
X16049714Y3357619D01*
X16287809Y3357619D01*
X16383047Y3405238D01*
X16430666Y3452857D01*
X16478285Y3548095D01*
X16478285Y3643333D01*
X16430666Y3738571D01*
X16383047Y3786190D01*
X16287809Y3833809D01*
X16097333Y3881428D01*
X16002095Y3929047D01*
X15954476Y3976666D01*
X15906857Y4071904D01*
X15906857Y4167142D01*
X15954476Y4262380D01*
X16002095Y4310000D01*
X16097333Y4357619D01*
X16335428Y4357619D01*
X16478285Y4310000D01*
X17668761Y3357619D02*
X17668761Y4357619D01*
X18097333Y4262380D02*
X18144952Y4310000D01*
X18240190Y4357619D01*
X18478285Y4357619D01*
X18573523Y4310000D01*
X18621142Y4262380D01*
X18668761Y4167142D01*
X18668761Y4071904D01*
X18621142Y3929047D01*
X18049714Y3357619D01*
X18668761Y3357619D01*
X19668761Y3452857D02*
X19621142Y3405238D01*
X19478285Y3357619D01*
X19383047Y3357619D01*
X19240190Y3405238D01*
X19144952Y3500476D01*
X19097333Y3595714D01*
X19049714Y3786190D01*
X19049714Y3929047D01*
X19097333Y4119523D01*
X19144952Y4214761D01*
X19240190Y4310000D01*
X19383047Y4357619D01*
X19478285Y4357619D01*
X19621142Y4310000D01*
X19668761Y4262380D01*
D13*
X11910190Y-2524142D02*
X11910190Y-2809857D01*
X11910190Y-2667000D02*
X11410190Y-2667000D01*
X11481619Y-2714619D01*
X11529238Y-2762238D01*
X11553047Y-2809857D01*
D11*
%TO.C,J5*%
X2642000Y3867142D02*
X2908666Y3867142D01*
X3022952Y3448095D02*
X2642000Y3448095D01*
X2642000Y4248095D01*
X3022952Y4248095D01*
X3289619Y4248095D02*
X3822952Y3448095D01*
X3822952Y4248095D02*
X3289619Y3448095D01*
X4013428Y4248095D02*
X4470571Y4248095D01*
X4242000Y3448095D02*
X4242000Y4248095D01*
X4546761Y3371904D02*
X5156285Y3371904D01*
X5346761Y3448095D02*
X5346761Y4248095D01*
X5651523Y4248095D01*
X5727714Y4210000D01*
X5765809Y4171904D01*
X5803904Y4095714D01*
X5803904Y3981428D01*
X5765809Y3905238D01*
X5727714Y3867142D01*
X5651523Y3829047D01*
X5346761Y3829047D01*
X6299142Y4248095D02*
X6451523Y4248095D01*
X6527714Y4210000D01*
X6603904Y4133809D01*
X6642000Y3981428D01*
X6642000Y3714761D01*
X6603904Y3562380D01*
X6527714Y3486190D01*
X6451523Y3448095D01*
X6299142Y3448095D01*
X6222952Y3486190D01*
X6146761Y3562380D01*
X6108666Y3714761D01*
X6108666Y3981428D01*
X6146761Y4133809D01*
X6222952Y4210000D01*
X6299142Y4248095D01*
X6908666Y4248095D02*
X7099142Y3448095D01*
X7251523Y4019523D01*
X7403904Y3448095D01*
X7594380Y4248095D01*
X7899142Y3867142D02*
X8165809Y3867142D01*
X8280095Y3448095D02*
X7899142Y3448095D01*
X7899142Y4248095D01*
X8280095Y4248095D01*
X9080095Y3448095D02*
X8813428Y3829047D01*
X8622952Y3448095D02*
X8622952Y4248095D01*
X8927714Y4248095D01*
X9003904Y4210000D01*
X9042000Y4171904D01*
X9080095Y4095714D01*
X9080095Y3981428D01*
X9042000Y3905238D01*
X9003904Y3867142D01*
X8927714Y3829047D01*
X8622952Y3829047D01*
D10*
%TO.C,J6*%
X59221904Y-5754666D02*
X59698095Y-5754666D01*
X59126666Y-6040380D02*
X59460000Y-5040380D01*
X59793333Y-6040380D01*
X60126666Y-6040380D02*
X60126666Y-5040380D01*
X60364761Y-5040380D01*
X60507619Y-5088000D01*
X60602857Y-5183238D01*
X60650476Y-5278476D01*
X60698095Y-5468952D01*
X60698095Y-5611809D01*
X60650476Y-5802285D01*
X60602857Y-5897523D01*
X60507619Y-5992761D01*
X60364761Y-6040380D01*
X60126666Y-6040380D01*
X61126666Y-6040380D02*
X61126666Y-5040380D01*
X61364761Y-5040380D01*
X61507619Y-5088000D01*
X61602857Y-5183238D01*
X61650476Y-5278476D01*
X61698095Y-5468952D01*
X61698095Y-5611809D01*
X61650476Y-5802285D01*
X61602857Y-5897523D01*
X61507619Y-5992761D01*
X61364761Y-6040380D01*
X61126666Y-6040380D01*
X62698095Y-6040380D02*
X62364761Y-5564190D01*
X62126666Y-6040380D02*
X62126666Y-5040380D01*
X62507619Y-5040380D01*
X62602857Y-5088000D01*
X62650476Y-5135619D01*
X62698095Y-5230857D01*
X62698095Y-5373714D01*
X62650476Y-5468952D01*
X62602857Y-5516571D01*
X62507619Y-5564190D01*
X62126666Y-5564190D01*
D13*
X59916190Y-11922142D02*
X59916190Y-12207857D01*
X59916190Y-12065000D02*
X59416190Y-12065000D01*
X59487619Y-12112619D01*
X59535238Y-12160238D01*
X59559047Y-12207857D01*
D11*
%TO.C,J1*%
X16430000Y-18002000D02*
X6430000Y-18002000D01*
X7430000Y-13002000D02*
X7430000Y-14502000D01*
X10430000Y-13002000D02*
X7430000Y-13002000D01*
X10430000Y-14502000D02*
X10430000Y-13002000D01*
X12430000Y-13002000D02*
X12430000Y-14502000D01*
X15430000Y-13002000D02*
X12430000Y-13002000D01*
X15430000Y-14502000D02*
X15430000Y-13002000D01*
X6430000Y-24502000D02*
X6430000Y-22502000D01*
X16430000Y-24502000D02*
X6430000Y-24502000D01*
X16430000Y-22502000D02*
X16430000Y-24502000D01*
X6430000Y-14502000D02*
X6430000Y-19502000D01*
X16430000Y-14502000D02*
X6430000Y-14502000D01*
X16430000Y-19502000D02*
X16430000Y-14502000D01*
X4430000Y-19502000D02*
X6430000Y-19502000D01*
X4430000Y-22502000D02*
X4430000Y-19502000D01*
X6430000Y-22502000D02*
X4430000Y-22502000D01*
X18430000Y-19502000D02*
X16430000Y-19502000D01*
X18430000Y-22502000D02*
X18430000Y-19502000D01*
X16430000Y-22502000D02*
X18430000Y-22502000D01*
%TO.C,TR1*%
X32940000Y-5022000D02*
X32940000Y-3422000D01*
X32940000Y-21122000D02*
X32940000Y-19122000D01*
X32940000Y-15122000D02*
X32940000Y-13622000D01*
X32940000Y-12822000D02*
X32940000Y-11222000D01*
X32940000Y-18022000D02*
X32940000Y-16222000D01*
X32940000Y-7822000D02*
X32940000Y-6322000D01*
X32940000Y-10422000D02*
X32940000Y-8722000D01*
X47940000Y-5022000D02*
X47940000Y-3422000D01*
X47940000Y-7822000D02*
X47940000Y-6322000D01*
X47940000Y-10422000D02*
X47940000Y-8722000D01*
X47940000Y-12822000D02*
X47940000Y-11222000D01*
X47940000Y-15122000D02*
X47940000Y-13622000D01*
X47940000Y-18022000D02*
X47940000Y-16222000D01*
X47940000Y-21122000D02*
X47940000Y-19122000D01*
X41140000Y-20722000D02*
X41140000Y-21222000D01*
X40340000Y-20722000D02*
X41140000Y-20722000D01*
X40340000Y-21222000D02*
X40340000Y-20722000D01*
X40740000Y-21122000D02*
X40740000Y-20722000D01*
X20040000Y-15922000D02*
X19340000Y-15922000D01*
X20040000Y-3422000D02*
X20040000Y-15922000D01*
X55940000Y-3422000D02*
X20040000Y-3422000D01*
X55940000Y-15922000D02*
X55940000Y-3422000D01*
X56640000Y-15922000D02*
X55940000Y-15922000D01*
X56740000Y-21222000D02*
X56740000Y-15922000D01*
X19340000Y-21222000D02*
X56740000Y-21222000D01*
X19340000Y-15922000D02*
X19340000Y-21222000D01*
%TO.C,J4*%
X10414000Y-2286000D02*
X10414000Y2794000D01*
X10414000Y2794000D02*
X23114000Y2794000D01*
X23114000Y2794000D02*
X23114000Y-2286000D01*
X23114000Y-2286000D02*
X10414000Y-2286000D01*
%TO.C,J5*%
X4572000Y-2286000D02*
X4572000Y2794000D01*
X4572000Y2794000D02*
X7112000Y2794000D01*
X7112000Y2794000D02*
X7112000Y-2286000D01*
X7112000Y-2286000D02*
X4572000Y-2286000D01*
%TO.C,J6*%
X58420000Y-11684000D02*
X58420000Y-6604000D01*
X58420000Y-6604000D02*
X63500000Y-6604000D01*
X63500000Y-6604000D02*
X63500000Y-11684000D01*
X63500000Y-11684000D02*
X58420000Y-11684000D01*
%TD*%
D14*
%TO.C,J4*%
X11684000Y-1016000D03*
X11684000Y1524000D03*
X14224000Y-1016000D03*
X14224000Y1524000D03*
X16764000Y-1016000D03*
X16764000Y1524000D03*
X19304000Y-1016000D03*
X19304000Y1524000D03*
X21844000Y-1016000D03*
X21844000Y1524000D03*
%TD*%
%TO.C,J5*%
X5842000Y-1016000D03*
X5842000Y1524000D03*
%TD*%
%TO.C,J6*%
X59690000Y-10414000D03*
X59690000Y-7874000D03*
X62230000Y-10414000D03*
X62230000Y-7874000D03*
%TD*%
M02*
