%TF.GenerationSoftware,KiCad,Pcbnew,7.0.5.1-1-g8f565ef7f0-dirty-deb11*%
%TF.CreationDate,2023-07-20T11:03:34+00:00*%
%TF.ProjectId,VCAI2C02,56434149-3243-4303-922e-6b696361645f,rev?*%
%TF.SameCoordinates,Original*%
%TF.FileFunction,Copper,L2,Bot*%
%TF.FilePolarity,Positive*%
%FSLAX46Y46*%
G04 Gerber Fmt 4.6, Leading zero omitted, Abs format (unit mm)*
G04 Created by KiCad (PCBNEW 7.0.5.1-1-g8f565ef7f0-dirty-deb11) date 2023-07-20 11:03:34*
%MOMM*%
%LPD*%
G01*
G04 APERTURE LIST*
G04 Aperture macros list*
%AMRoundRect*
0 Rectangle with rounded corners*
0 $1 Rounding radius*
0 $2 $3 $4 $5 $6 $7 $8 $9 X,Y pos of 4 corners*
0 Add a 4 corners polygon primitive as box body*
4,1,4,$2,$3,$4,$5,$6,$7,$8,$9,$2,$3,0*
0 Add four circle primitives for the rounded corners*
1,1,$1+$1,$2,$3*
1,1,$1+$1,$4,$5*
1,1,$1+$1,$6,$7*
1,1,$1+$1,$8,$9*
0 Add four rect primitives between the rounded corners*
20,1,$1+$1,$2,$3,$4,$5,0*
20,1,$1+$1,$4,$5,$6,$7,0*
20,1,$1+$1,$6,$7,$8,$9,0*
20,1,$1+$1,$8,$9,$2,$3,0*%
G04 Aperture macros list end*
%TA.AperFunction,EtchedComponent*%
%ADD10C,0.150000*%
%TD*%
%TA.AperFunction,ComponentPad*%
%ADD11R,1.524000X1.524000*%
%TD*%
%TA.AperFunction,ComponentPad*%
%ADD12C,6.000000*%
%TD*%
%TA.AperFunction,ComponentPad*%
%ADD13C,1.524000*%
%TD*%
%TA.AperFunction,ComponentPad*%
%ADD14C,2.500000*%
%TD*%
%TA.AperFunction,ComponentPad*%
%ADD15C,3.500000*%
%TD*%
%TA.AperFunction,ComponentPad*%
%ADD16C,2.000000*%
%TD*%
%TA.AperFunction,SMDPad,CuDef*%
%ADD17R,0.900000X1.000000*%
%TD*%
%TA.AperFunction,SMDPad,CuDef*%
%ADD18R,1.250000X1.250000*%
%TD*%
%TA.AperFunction,SMDPad,CuDef*%
%ADD19R,1.600000X0.410000*%
%TD*%
%TA.AperFunction,SMDPad,CuDef*%
%ADD20R,1.400000X0.300000*%
%TD*%
%TA.AperFunction,SMDPad,CuDef*%
%ADD21RoundRect,0.250000X0.925000X-0.412500X0.925000X0.412500X-0.925000X0.412500X-0.925000X-0.412500X0*%
%TD*%
%TA.AperFunction,SMDPad,CuDef*%
%ADD22RoundRect,0.243750X-0.456250X0.243750X-0.456250X-0.243750X0.456250X-0.243750X0.456250X0.243750X0*%
%TD*%
%TA.AperFunction,SMDPad,CuDef*%
%ADD23RoundRect,0.243750X0.456250X-0.243750X0.456250X0.243750X-0.456250X0.243750X-0.456250X-0.243750X0*%
%TD*%
%TA.AperFunction,SMDPad,CuDef*%
%ADD24R,1.500000X1.050000*%
%TD*%
%TA.AperFunction,SMDPad,CuDef*%
%ADD25R,0.700000X0.600000*%
%TD*%
%TA.AperFunction,SMDPad,CuDef*%
%ADD26RoundRect,0.243750X0.243750X0.456250X-0.243750X0.456250X-0.243750X-0.456250X0.243750X-0.456250X0*%
%TD*%
%TA.AperFunction,SMDPad,CuDef*%
%ADD27RoundRect,0.243750X-0.243750X-0.456250X0.243750X-0.456250X0.243750X0.456250X-0.243750X0.456250X0*%
%TD*%
%TA.AperFunction,ViaPad*%
%ADD28C,0.800000*%
%TD*%
%TA.AperFunction,Conductor*%
%ADD29C,0.200000*%
%TD*%
%TA.AperFunction,Conductor*%
%ADD30C,0.600000*%
%TD*%
%TA.AperFunction,Conductor*%
%ADD31C,0.400000*%
%TD*%
G04 APERTURE END LIST*
D10*
%TO.C,D2*%
X23639780Y2468880D02*
X23334980Y2788920D01*
X23896320Y2476500D02*
X23327360Y2471420D01*
X23624540Y2506980D02*
X23896320Y2781300D01*
%TD*%
D11*
%TO.P,J4,1*%
%TO.N,GNDD*%
X11684000Y-1016000D03*
%TO.P,J4,2*%
X11684000Y1524000D03*
%TO.P,J4,3*%
%TO.N,/SDA*%
X14224000Y-1016000D03*
%TO.P,J4,4*%
X14224000Y1524000D03*
%TO.P,J4,5*%
%TO.N,VCC*%
X16764000Y-1016000D03*
%TO.P,J4,6*%
X16764000Y1524000D03*
%TO.P,J4,7*%
%TO.N,/SCL*%
X19304000Y-1016000D03*
%TO.P,J4,8*%
X19304000Y1524000D03*
%TO.P,J4,9*%
%TO.N,GNDD*%
X21844000Y-1016000D03*
%TO.P,J4,10*%
X21844000Y1524000D03*
%TD*%
%TO.P,J5,1*%
%TO.N,Net-(D1-Pad1)*%
X5842000Y-1016000D03*
%TO.P,J5,2*%
%TO.N,GNDPWR*%
X5842000Y1524000D03*
%TD*%
%TO.P,J6,1*%
%TO.N,Net-(J6-Pad1)*%
X59690000Y-10414000D03*
%TO.P,J6,2*%
%TO.N,+5V*%
X59690000Y-7874000D03*
%TO.P,J6,3*%
%TO.N,Net-(J6-Pad3)*%
X62230000Y-10414000D03*
%TO.P,J6,4*%
%TO.N,+5V*%
X62230000Y-7874000D03*
%TD*%
D12*
%TO.P,MH1,1*%
%TO.N,N/C*%
X60960000Y0D03*
%TD*%
%TO.P,MH2,1*%
%TO.N,N/C*%
X0Y-20320000D03*
%TD*%
%TO.P,MH3,1*%
%TO.N,N/C*%
X60960000Y-20320000D03*
%TD*%
%TO.P,MH4,1*%
%TO.N,N/C*%
X0Y0D03*
%TD*%
D13*
%TO.P,TR1,1*%
%TO.N,/Vout*%
X22860000Y-23622000D03*
%TO.P,TR1,2*%
%TO.N,GNDD*%
X25400000Y-23622000D03*
%TO.P,TR1,3*%
%TO.N,+5V*%
X27940000Y-23622000D03*
D14*
%TO.P,TR1,MP*%
%TO.N,N/C*%
X26240000Y-6422000D03*
X55240000Y-18422000D03*
%TD*%
D15*
%TO.P,J1,1*%
%TO.N,Net-(D3-Pad3)*%
X13930000Y-11002000D03*
%TO.P,J1,2*%
%TO.N,Net-(D3-Pad4)*%
X8930000Y-11002000D03*
D16*
%TO.P,J1,MP*%
%TO.N,N/C*%
X16930000Y-21002000D03*
X5930000Y-21002000D03*
%TD*%
D17*
%TO.P,D3,1*%
%TO.N,Net-(D3-Pad1)*%
X-2286000Y-9406000D03*
%TO.P,D3,2*%
%TO.N,GNDPWR*%
X254000Y-9406000D03*
%TO.P,D3,3*%
%TO.N,Net-(D3-Pad3)*%
X-2286000Y-15486000D03*
%TO.P,D3,4*%
%TO.N,Net-(D3-Pad4)*%
X254000Y-15486000D03*
%TD*%
D18*
%TO.P,L1,1*%
%TO.N,VCC*%
X19558000Y-3218000D03*
%TO.P,L1,2*%
%TO.N,+5V*%
X19558000Y-5418000D03*
%TD*%
D19*
%TO.P,U1,1*%
%TO.N,+5V*%
X11544300Y-3365500D03*
%TO.P,U1,2*%
%TO.N,GNDD*%
X11544300Y-4000500D03*
%TO.P,U1,3*%
%TO.N,Net-(C6-Pad2)*%
X11544300Y-4635500D03*
%TO.P,U1,4*%
%TO.N,/ch2-*%
X11544300Y-5270500D03*
%TO.P,U1,5*%
%TO.N,N/C*%
X11544300Y-5905500D03*
%TO.P,U1,6*%
X11544300Y-6540500D03*
%TO.P,U1,7*%
%TO.N,/EAout*%
X11544300Y-7175500D03*
%TO.P,U1,8*%
%TO.N,GNDD*%
X11544300Y-7810500D03*
%TO.P,U1,9*%
%TO.N,GNDPWR*%
X6235700Y-7810500D03*
%TO.P,U1,10*%
%TO.N,/COMP*%
X6235700Y-7175500D03*
%TO.P,U1,11*%
X6235700Y-6540500D03*
%TO.P,U1,12*%
%TO.N,Net-(R3-Pad2)*%
X6235700Y-5905500D03*
%TO.P,U1,13*%
%TO.N,/REFout2*%
X6235700Y-5270500D03*
%TO.P,U1,14*%
%TO.N,Net-(C3-Pad1)*%
X6235700Y-4635500D03*
%TO.P,U1,15*%
%TO.N,GNDPWR*%
X6235700Y-4000500D03*
%TO.P,U1,16*%
%TO.N,Net-(D1-Pad1)*%
X6235700Y-3365500D03*
%TD*%
D20*
%TO.P,U2,1*%
%TO.N,Net-(C7-Pad1)*%
X25740000Y-11668000D03*
%TO.P,U2,2*%
%TO.N,GNDD*%
X25740000Y-11168000D03*
%TO.P,U2,3*%
X25740000Y-10668000D03*
%TO.P,U2,4*%
%TO.N,Net-(C8-Pad1)*%
X25740000Y-10168000D03*
%TO.P,U2,5*%
%TO.N,/ch2-*%
X25740000Y-9668000D03*
%TO.P,U2,6*%
%TO.N,+5V*%
X30140000Y-9668000D03*
%TO.P,U2,7*%
%TO.N,/SDA*%
X30140000Y-10168000D03*
%TO.P,U2,8*%
%TO.N,/SCL*%
X30140000Y-10668000D03*
%TO.P,U2,9*%
%TO.N,Net-(J6-Pad1)*%
X30140000Y-11168000D03*
%TO.P,U2,10*%
%TO.N,Net-(J6-Pad3)*%
X30140000Y-11668000D03*
%TD*%
D21*
%TO.P,C11,1*%
%TO.N,+5V*%
X34798000Y-9157500D03*
%TO.P,C11,2*%
%TO.N,GNDD*%
X34798000Y-6082500D03*
%TD*%
D22*
%TO.P,R1,1*%
%TO.N,Net-(D3-Pad3)*%
X14986000Y-14810500D03*
%TO.P,R1,2*%
%TO.N,/INPUT*%
X14986000Y-16685500D03*
%TD*%
%TO.P,R7,1*%
%TO.N,Net-(D3-Pad3)*%
X12954000Y-14810500D03*
%TO.P,R7,2*%
%TO.N,/INPUT*%
X12954000Y-16685500D03*
%TD*%
D23*
%TO.P,R8,1*%
%TO.N,/INPUT*%
X9906000Y-16685500D03*
%TO.P,R8,2*%
%TO.N,Net-(D3-Pad4)*%
X9906000Y-14810500D03*
%TD*%
D24*
%TO.P,D2,1*%
%TO.N,GNDD*%
X25146000Y2254000D03*
%TO.P,D2,2*%
%TO.N,Net-(D2-Pad2)*%
X25146000Y-1746000D03*
%TD*%
D25*
%TO.P,D1,1*%
%TO.N,Net-(D1-Pad1)*%
X254000Y-6158000D03*
%TO.P,D1,2*%
%TO.N,GNDPWR*%
X254000Y-7558000D03*
%TD*%
D23*
%TO.P,C3,1*%
%TO.N,Net-(C3-Pad1)*%
X3556000Y-6271500D03*
%TO.P,C3,2*%
%TO.N,GNDPWR*%
X3556000Y-4396500D03*
%TD*%
D22*
%TO.P,C4,1*%
%TO.N,+5V*%
X14224000Y-2872500D03*
%TO.P,C4,2*%
%TO.N,GNDD*%
X14224000Y-4747500D03*
%TD*%
%TO.P,C5,1*%
%TO.N,+5V*%
X16256000Y-2872500D03*
%TO.P,C5,2*%
%TO.N,GNDD*%
X16256000Y-4747500D03*
%TD*%
D26*
%TO.P,C6,1*%
%TO.N,GNDD*%
X16431500Y-6604000D03*
%TO.P,C6,2*%
%TO.N,Net-(C6-Pad2)*%
X14556500Y-6604000D03*
%TD*%
%TO.P,C7,1*%
%TO.N,Net-(C7-Pad1)*%
X23035500Y-14732000D03*
%TO.P,C7,2*%
%TO.N,GNDD*%
X21160500Y-14732000D03*
%TD*%
D22*
%TO.P,C8,1*%
%TO.N,Net-(C8-Pad1)*%
X21590000Y-8968500D03*
%TO.P,C8,2*%
%TO.N,GNDD*%
X21590000Y-10843500D03*
%TD*%
D26*
%TO.P,C9,1*%
%TO.N,+5V*%
X28623500Y-21590000D03*
%TO.P,C9,2*%
%TO.N,GNDD*%
X26748500Y-21590000D03*
%TD*%
D23*
%TO.P,C10,1*%
%TO.N,+5V*%
X32258000Y-9065500D03*
%TO.P,C10,2*%
%TO.N,GNDD*%
X32258000Y-7190500D03*
%TD*%
D27*
%TO.P,R3,1*%
%TO.N,/INPUT*%
X3634500Y-16764000D03*
%TO.P,R3,2*%
%TO.N,Net-(R3-Pad2)*%
X5509500Y-16764000D03*
%TD*%
D26*
%TO.P,R10,1*%
%TO.N,VCC*%
X15923500Y3810000D03*
%TO.P,R10,2*%
%TO.N,/SDA*%
X14048500Y3810000D03*
%TD*%
D22*
%TO.P,R11,1*%
%TO.N,Net-(D1-Pad1)*%
X-2286000Y-5920500D03*
%TO.P,R11,2*%
%TO.N,Net-(D3-Pad1)*%
X-2286000Y-7795500D03*
%TD*%
D27*
%TO.P,R12,1*%
%TO.N,VCC*%
X17604500Y3810000D03*
%TO.P,R12,2*%
%TO.N,/SCL*%
X19479500Y3810000D03*
%TD*%
D23*
%TO.P,R13,1*%
%TO.N,+5V*%
X28194000Y-1699500D03*
%TO.P,R13,2*%
%TO.N,Net-(D2-Pad2)*%
X28194000Y175500D03*
%TD*%
D27*
%TO.P,R14,1*%
%TO.N,/Vout*%
X22176500Y-21590000D03*
%TO.P,R14,2*%
%TO.N,GNDD*%
X24051500Y-21590000D03*
%TD*%
D22*
%TO.P,R15,1*%
%TO.N,Net-(C7-Pad1)*%
X22606000Y-16588500D03*
%TO.P,R15,2*%
%TO.N,/Vout*%
X22606000Y-18463500D03*
%TD*%
D26*
%TO.P,R16,1*%
%TO.N,Net-(C8-Pad1)*%
X19733500Y-9144000D03*
%TO.P,R16,2*%
%TO.N,/EAout*%
X17858500Y-9144000D03*
%TD*%
D27*
%TO.P,R17,1*%
%TO.N,GNDD*%
X21160500Y-12700000D03*
%TO.P,R17,2*%
%TO.N,Net-(C7-Pad1)*%
X23035500Y-12700000D03*
%TD*%
D23*
%TO.P,R18,1*%
%TO.N,GNDD*%
X23622000Y-10843500D03*
%TO.P,R18,2*%
%TO.N,Net-(C8-Pad1)*%
X23622000Y-8968500D03*
%TD*%
D22*
%TO.P,R22,1*%
%TO.N,Net-(J6-Pad1)*%
X59690000Y-12270500D03*
%TO.P,R22,2*%
%TO.N,GNDD*%
X59690000Y-14145500D03*
%TD*%
%TO.P,R24,1*%
%TO.N,Net-(J6-Pad3)*%
X62230000Y-12270500D03*
%TO.P,R24,2*%
%TO.N,GNDD*%
X62230000Y-14145500D03*
%TD*%
D23*
%TO.P,R2,1*%
%TO.N,/INPUT*%
X7874000Y-16685500D03*
%TO.P,R2,2*%
%TO.N,Net-(D3-Pad4)*%
X7874000Y-14810500D03*
%TD*%
D26*
%TO.P,R6,1*%
%TO.N,GNDPWR*%
X5509500Y-12700000D03*
%TO.P,R6,2*%
%TO.N,Net-(R4-Pad2)*%
X3634500Y-12700000D03*
%TD*%
D27*
%TO.P,R5,1*%
%TO.N,Net-(R4-Pad2)*%
X3634500Y-14732000D03*
%TO.P,R5,2*%
%TO.N,Net-(R3-Pad2)*%
X5509500Y-14732000D03*
%TD*%
D26*
%TO.P,R4,1*%
%TO.N,/REFout2*%
X5459510Y-10675708D03*
%TO.P,R4,2*%
%TO.N,Net-(R4-Pad2)*%
X3584510Y-10675708D03*
%TD*%
D28*
%TO.N,GNDPWR*%
X-4064000Y-18288000D03*
X-4064000Y-13208000D03*
X9906000Y-18034000D03*
X-4064000Y-2286000D03*
X-4064000Y-7366000D03*
X9905994Y-21590000D03*
X17780000Y-19050000D03*
X7366000Y-24384002D03*
X2540000Y-24384000D03*
X17526000Y-24384000D03*
X7874000Y-6D03*
X13970000Y-18034000D03*
X-4064000Y-24384000D03*
X-4064000Y4064000D03*
X2032000Y4064000D03*
X12446000Y-24384000D03*
X13970000Y-21590000D03*
X7874000Y-4064004D03*
X7874000Y-8636000D03*
%TO.N,GNDD*%
X65024000Y-2540000D03*
X65024000Y-13208000D03*
X18034000Y-10668000D03*
X65024000Y4064000D03*
X20828000Y-19050000D03*
X20828000Y4064000D03*
X34290000Y4064000D03*
X50038000Y4125990D03*
X29464000Y-24446000D03*
X20828000Y-24384000D03*
X18033994Y-16256000D03*
X10160000Y0D03*
X65024000Y-7620000D03*
X41910004Y4064000D03*
X41910000Y-24445988D03*
X65024000Y-24446000D03*
X34798000Y-24446000D03*
X10160000Y4064000D03*
X57404000Y-24446000D03*
X10155119Y-4317061D03*
X10144298Y-7366000D03*
X12954000Y4064000D03*
X27686000Y4064000D03*
X65086000Y-18288000D03*
X50038000Y-24384000D03*
X57403994Y4064000D03*
X20828000Y-16256000D03*
%TO.N,+5V*%
X34480500Y-10468000D03*
X34480500Y-13335000D03*
%TO.N,Net-(D3-Pad3)*%
X-1016000Y-15494000D03*
%TO.N,Net-(D3-Pad4)*%
X254000Y-14224000D03*
%TO.N,/SDA*%
X28194000Y-9906000D03*
%TO.N,/SCL*%
X27178000Y-9205990D03*
%TO.N,/REFout2*%
X4064000Y-9144000D03*
X5842000Y-9144000D03*
%TD*%
D29*
%TO.N,GNDPWR*%
X17526000Y-24384000D02*
X18230001Y-23679999D01*
X-4064000Y-18288000D02*
X-4064000Y-13208000D01*
X13970000Y-18034000D02*
X13970000Y-21590000D01*
X6604000Y-12193000D02*
X6604000Y-9906000D01*
X6604000Y-9906000D02*
X7874000Y-8636000D01*
X18230001Y-23679999D02*
X18230001Y-19754001D01*
X18230001Y-19754001D02*
X17780000Y-19304000D01*
X12446000Y-24384000D02*
X7366002Y-24384000D01*
X-3810000Y-24638000D02*
X-4064000Y-24384000D01*
X-4064004Y-7620000D02*
X-4064004Y-13207996D01*
X6235700Y-4000500D02*
X7810496Y-4000500D01*
X7366002Y-24384000D02*
X7366000Y-24384002D01*
X-4318000Y3810000D02*
X-4318000Y-2032000D01*
X9905994Y-21590000D02*
X9905994Y-18034006D01*
X-4064004Y-13207996D02*
X-4064000Y-13208000D01*
X7874000Y-3810000D02*
X7874000Y-6D01*
X2540000Y-24384000D02*
X2286000Y-24638000D01*
X2286000Y-24638000D02*
X-3810000Y-24638000D01*
X7810496Y-4000500D02*
X7874000Y-4064004D01*
X4889500Y-4000500D02*
X6235700Y-4000500D01*
X9905994Y-18034006D02*
X9906000Y-18034000D01*
X4597500Y-4292500D02*
X4889500Y-4000500D01*
X-4064000Y4064000D02*
X-4318000Y3810000D01*
X3810000Y-4292500D02*
X4597500Y-4292500D01*
X6097000Y-12700000D02*
X6604000Y-12193000D01*
X5509500Y-12700000D02*
X6097000Y-12700000D01*
X-4318000Y-2032000D02*
X-4064000Y-2286000D01*
%TO.N,Net-(C3-Pad1)*%
X5042000Y-4635500D02*
X6235700Y-4635500D01*
X3810000Y-5867500D02*
X5042000Y-4635500D01*
%TO.N,GNDD*%
X34290000Y4064000D02*
X41910004Y4064000D01*
X20828000Y-16256000D02*
X18033994Y-16256000D01*
X10588798Y-7810500D02*
X10144298Y-7366000D01*
X10160000Y4064000D02*
X12954000Y4064000D01*
X65278000Y-2286000D02*
X65024000Y-2540000D01*
X65278000Y3810000D02*
X65278000Y-2286000D01*
X57403994Y4064000D02*
X50099990Y4064000D01*
X50099990Y4064000D02*
X50038000Y4125990D01*
X18059500Y-10693500D02*
X18034000Y-10668000D01*
X11544300Y-7810500D02*
X10588798Y-7810500D01*
X50100000Y-24446000D02*
X50038000Y-24384000D01*
X20828000Y-10693500D02*
X18059500Y-10693500D01*
X10155119Y-4881D02*
X10160000Y0D01*
X65086000Y-18288000D02*
X65086000Y-24384000D01*
X20828000Y-19304000D02*
X20828000Y-24384000D01*
X65086000Y-24384000D02*
X65024000Y-24446000D01*
X20574000Y4064000D02*
X27686000Y4064000D01*
X41909988Y-24446000D02*
X41910000Y-24445988D01*
X65024000Y-7620000D02*
X65024000Y-13208000D01*
X34798000Y-24446000D02*
X41909988Y-24446000D01*
X10155119Y-4317061D02*
X10155119Y-4881D01*
X57404000Y-24446000D02*
X50100000Y-24446000D01*
X65024000Y4064000D02*
X65278000Y3810000D01*
D30*
%TO.N,+5V*%
X22137000Y-4064000D02*
X28194000Y-4064000D01*
X17096500Y-2872500D02*
X17780000Y-3556000D01*
X33528000Y-21590000D02*
X34544000Y-20574000D01*
X19558000Y-5418000D02*
X20783000Y-5418000D01*
X27940000Y-23622000D02*
X28623500Y-22938500D01*
X28194000Y-1699500D02*
X28194000Y-4064000D01*
D29*
X12979500Y-3022500D02*
X13970000Y-3022500D01*
D30*
X18333000Y-5418000D02*
X19558000Y-5418000D01*
X28194000Y-4064000D02*
X30226000Y-6096000D01*
X20783000Y-5418000D02*
X22137000Y-4064000D01*
X17780000Y-3556000D02*
X17780000Y-4865000D01*
X62230000Y-7874000D02*
X59690000Y-7874000D01*
X34480500Y-9221000D02*
X34544000Y-9157500D01*
X28623500Y-22938500D02*
X28623500Y-21590000D01*
X56134000Y-10414000D02*
X58674000Y-7874000D01*
X34706000Y-9065500D02*
X34798000Y-9157500D01*
X34544000Y-20574000D02*
X34544000Y-13462000D01*
X17780000Y-4865000D02*
X18333000Y-5418000D01*
X34480500Y-10468000D02*
X34480500Y-9221000D01*
X13970000Y-2872500D02*
X17096500Y-2872500D01*
X28623500Y-21590000D02*
X33528000Y-21590000D01*
D29*
X30140000Y-9668000D02*
X30140000Y-9151500D01*
X12636500Y-3365500D02*
X12979500Y-3022500D01*
D30*
X30226000Y-9065500D02*
X32258000Y-9065500D01*
X30226000Y-6096000D02*
X30226000Y-9065500D01*
X58674000Y-7874000D02*
X59690000Y-7874000D01*
D29*
X11544300Y-3365500D02*
X12636500Y-3365500D01*
X30140000Y-9151500D02*
X30226000Y-9065500D01*
D30*
X34784500Y-10414000D02*
X56134000Y-10414000D01*
X32258000Y-9065500D02*
X34706000Y-9065500D01*
D29*
%TO.N,Net-(C6-Pad2)*%
X13208000Y-5080000D02*
X13208000Y-6096000D01*
X11544300Y-4635500D02*
X12763500Y-4635500D01*
X12763500Y-4635500D02*
X13208000Y-5080000D01*
X13208000Y-6096000D02*
X13716000Y-6604000D01*
X13716000Y-6604000D02*
X14478000Y-6604000D01*
%TO.N,Net-(C7-Pad1)*%
X23622000Y-12700000D02*
X24654000Y-11668000D01*
D30*
X22606000Y-15161500D02*
X23035500Y-14732000D01*
X23035500Y-12700000D02*
X23035500Y-14732000D01*
D29*
X23035500Y-12700000D02*
X23622000Y-12700000D01*
D30*
X22606000Y-16588500D02*
X22606000Y-15161500D01*
D29*
X24654000Y-11668000D02*
X25740000Y-11668000D01*
%TO.N,Net-(C8-Pad1)*%
X21414500Y-9144000D02*
X21590000Y-8968500D01*
X19733500Y-9144000D02*
X21414500Y-9144000D01*
X25740000Y-10168000D02*
X24821500Y-10168000D01*
X23622000Y-8968500D02*
X21590000Y-8968500D01*
X24821500Y-10168000D02*
X23622000Y-8968500D01*
%TO.N,Net-(D1-Pad1)*%
X2540000Y-3302000D02*
X2032000Y-3810000D01*
D31*
X-2158500Y-6096000D02*
X254000Y-6096000D01*
D29*
X6235700Y-3365500D02*
X6235700Y-1409700D01*
X6235700Y-3365500D02*
X6172200Y-3302000D01*
X6235700Y-1409700D02*
X5842000Y-1016000D01*
X356000Y-6096000D02*
X254000Y-6198000D01*
X1524000Y-6096000D02*
X356000Y-6096000D01*
X2032000Y-5588000D02*
X1524000Y-6096000D01*
X6172200Y-3302000D02*
X2540000Y-3302000D01*
X2032000Y-3810000D02*
X2032000Y-5588000D01*
D31*
X126500Y-6070500D02*
X254000Y-6198000D01*
%TO.N,VCC*%
X15773500Y3810000D02*
X17500500Y3810000D01*
D30*
X16764000Y1524000D02*
X16764000Y-1016000D01*
D31*
X16764000Y1524000D02*
X16764000Y3810000D01*
D30*
X16764000Y-1016000D02*
X18966000Y-3218000D01*
D31*
X16764000Y3810000D02*
X17500500Y3810000D01*
D30*
X18966000Y-3218000D02*
X19558000Y-3218000D01*
D31*
%TO.N,Net-(D3-Pad1)*%
X-2286000Y-9406000D02*
X-2286000Y-7645500D01*
D30*
%TO.N,Net-(D3-Pad3)*%
X-2286000Y-15486000D02*
X-1024000Y-15486000D01*
X13970000Y-14810500D02*
X12954000Y-14810500D01*
X13930000Y-11002000D02*
X13970000Y-11042000D01*
X13970000Y-11042000D02*
X13970000Y-14810500D01*
X-1024000Y-15486000D02*
X-1016000Y-15494000D01*
X14986000Y-14810500D02*
X12954000Y-14810500D01*
%TO.N,Net-(D3-Pad4)*%
X254000Y-15486000D02*
X254000Y-14224000D01*
X8968500Y-14810500D02*
X8890000Y-14732000D01*
X8890000Y-14732000D02*
X8890000Y-11042000D01*
X7874000Y-14810500D02*
X9906000Y-14810500D01*
X8890000Y-11042000D02*
X8930000Y-11002000D01*
X9906000Y-14810500D02*
X8968500Y-14810500D01*
D29*
%TO.N,/SDA*%
X30140000Y-10168000D02*
X28456000Y-10168000D01*
X28456000Y-10168000D02*
X28406001Y-10118001D01*
D31*
X14224000Y3784500D02*
X14198500Y3810000D01*
X14224000Y1524000D02*
X14224000Y-1016000D01*
D29*
X28406001Y-10118001D02*
X28194000Y-9906000D01*
D31*
X14224000Y1524000D02*
X14224000Y3784500D01*
%TO.N,/SCL*%
X19304000Y3810000D02*
X19304000Y1524000D01*
D29*
X27686000Y-10668000D02*
X27178000Y-10160000D01*
X30140000Y-10668000D02*
X27686000Y-10668000D01*
D31*
X19304000Y-1016000D02*
X19304000Y1524000D01*
X19558000Y4064000D02*
X19304000Y3810000D01*
D29*
X27178000Y-9771675D02*
X27178000Y-9205990D01*
X27178000Y-10160000D02*
X27178000Y-9771675D01*
%TO.N,Net-(J6-Pad1)*%
X30140000Y-11168000D02*
X58936000Y-11168000D01*
X58936000Y-11168000D02*
X59690000Y-10414000D01*
X59690000Y-12420500D02*
X59690000Y-10414000D01*
X60172500Y-10896500D02*
X59690000Y-10414000D01*
%TO.N,Net-(J6-Pad3)*%
X62230000Y-12954000D02*
X62230000Y-12270500D01*
X62230000Y-12420500D02*
X62230000Y-11883000D01*
X58674000Y-13208000D02*
X61976000Y-13208000D01*
X31056000Y-11684000D02*
X57150000Y-11684000D01*
X62230000Y-11883000D02*
X62230000Y-10414000D01*
X30140000Y-11668000D02*
X31040000Y-11668000D01*
X57150000Y-11684000D02*
X58674000Y-13208000D01*
X31040000Y-11668000D02*
X31056000Y-11684000D01*
X61976000Y-13208000D02*
X62230000Y-12954000D01*
D30*
%TO.N,/INPUT*%
X12954000Y-16685500D02*
X9906000Y-16685500D01*
X7112000Y-18542000D02*
X7874000Y-17780000D01*
X14986000Y-16685500D02*
X12954000Y-16685500D01*
X4318000Y-18542000D02*
X7112000Y-18542000D01*
X9906000Y-16685500D02*
X7874000Y-16685500D01*
X3634500Y-16764000D02*
X3634500Y-17858500D01*
X3634500Y-17858500D02*
X4318000Y-18542000D01*
X7874000Y-17780000D02*
X7874000Y-16685500D01*
D29*
%TO.N,Net-(R3-Pad2)*%
X5135699Y-6005501D02*
X5235700Y-5905500D01*
D30*
X5509500Y-16764000D02*
X5509500Y-14732000D01*
D29*
X6235700Y-5905500D02*
X5235700Y-5905500D01*
X5103494Y-14732000D02*
X4672000Y-14300506D01*
X4672000Y-9552000D02*
X5135699Y-9088301D01*
X4672000Y-14300506D02*
X4672000Y-9552000D01*
X5135699Y-9088301D02*
X5135699Y-6005501D01*
X5509500Y-14732000D02*
X5103494Y-14732000D01*
D30*
%TO.N,Net-(R4-Pad2)*%
X3634500Y-12700000D02*
X3634500Y-10725698D01*
X3634500Y-10725698D02*
X3584510Y-10675708D01*
X3634500Y-14732000D02*
X3634500Y-12700000D01*
D29*
%TO.N,/REFout2*%
X4735689Y-8472311D02*
X4064000Y-9144000D01*
X5588000Y-10547218D02*
X5459510Y-10675708D01*
X5588000Y-9398000D02*
X5588000Y-10547218D01*
X6235700Y-5270500D02*
X5235700Y-5270500D01*
X5842000Y-9144000D02*
X5588000Y-9398000D01*
X4735689Y-5770511D02*
X4735689Y-8472311D01*
X5334000Y-10550198D02*
X5459510Y-10675708D01*
X5235700Y-5270500D02*
X4735689Y-5770511D01*
D30*
%TO.N,/Vout*%
X22176500Y-20241500D02*
X22606000Y-19812000D01*
X22176500Y-21590000D02*
X22176500Y-22938500D01*
X22176500Y-21590000D02*
X22176500Y-20241500D01*
X22606000Y-19812000D02*
X22606000Y-18463500D01*
X22176500Y-22938500D02*
X22860000Y-23622000D01*
D29*
%TO.N,/EAout*%
X17526000Y-8915500D02*
X17754500Y-9144000D01*
X17526001Y-8128001D02*
X17780000Y-8382000D01*
X12451800Y-7175500D02*
X13404301Y-8128001D01*
X13404301Y-8128001D02*
X17526001Y-8128001D01*
X11544300Y-7175500D02*
X12451800Y-7175500D01*
X17780000Y-9065500D02*
X17858500Y-9144000D01*
X17780000Y-8382000D02*
X17780000Y-9065500D01*
%TO.N,/ch2-*%
X13569990Y-7727990D02*
X24745990Y-7727990D01*
X25740000Y-8722000D02*
X25740000Y-9668000D01*
X12544300Y-5270500D02*
X12807990Y-5534190D01*
X12807990Y-6965990D02*
X13569990Y-7727990D01*
X12807990Y-5534190D02*
X12807990Y-6965990D01*
X24745990Y-7727990D02*
X25740000Y-8722000D01*
X11544300Y-5270500D02*
X12544300Y-5270500D01*
%TO.N,/COMP*%
X6235700Y-6540500D02*
X6235700Y-7175500D01*
D31*
%TO.N,Net-(D2-Pad2)*%
X25067500Y-1824500D02*
X25146000Y-1746000D01*
X26272500Y-1746000D02*
X28194000Y175500D01*
X25146000Y-1746000D02*
X26272500Y-1746000D01*
%TD*%
%TA.AperFunction,Conductor*%
%TO.N,GNDD*%
G36*
X65644691Y4706593D02*
G01*
X65680655Y4657093D01*
X65685500Y4626500D01*
X65685500Y-24946500D01*
X65666593Y-25004691D01*
X65617093Y-25040655D01*
X65586500Y-25045500D01*
X20165000Y-25045500D01*
X20106809Y-25026593D01*
X20070845Y-24977093D01*
X20066000Y-24946500D01*
X20066000Y-22099773D01*
X21488500Y-22099773D01*
X21491313Y-22129768D01*
X21491315Y-22129777D01*
X21535543Y-22256175D01*
X21535544Y-22256176D01*
X21535545Y-22256179D01*
X21615070Y-22363930D01*
X21635789Y-22379222D01*
X21671381Y-22428989D01*
X21676000Y-22458876D01*
X21676000Y-22874042D01*
X21673738Y-22895085D01*
X21672141Y-22902426D01*
X21675874Y-22954618D01*
X21676000Y-22958151D01*
X21676000Y-22974299D01*
X21678298Y-22990288D01*
X21678676Y-22993801D01*
X21682408Y-23045983D01*
X21685033Y-23053020D01*
X21690264Y-23073514D01*
X21691334Y-23080954D01*
X21691335Y-23080958D01*
X21713069Y-23128549D01*
X21714421Y-23131814D01*
X21732702Y-23180827D01*
X21732703Y-23180828D01*
X21732704Y-23180831D01*
X21736418Y-23185793D01*
X21737208Y-23186848D01*
X21748001Y-23205038D01*
X21751123Y-23211873D01*
X21785388Y-23251417D01*
X21787580Y-23254136D01*
X21797279Y-23267093D01*
X21797280Y-23267094D01*
X21797281Y-23267095D01*
X21808711Y-23278526D01*
X21811110Y-23281103D01*
X21822597Y-23294359D01*
X21845373Y-23320644D01*
X21851683Y-23324699D01*
X21868166Y-23337980D01*
X21882986Y-23352800D01*
X21910763Y-23407317D01*
X21911505Y-23432507D01*
X21892843Y-23621995D01*
X21892843Y-23622003D01*
X21911425Y-23810678D01*
X21911426Y-23810683D01*
X21966463Y-23992115D01*
X21966465Y-23992120D01*
X22034797Y-24119959D01*
X22055838Y-24159324D01*
X22055840Y-24159326D01*
X22055841Y-24159328D01*
X22128912Y-24248364D01*
X22176117Y-24305883D01*
X22322676Y-24426162D01*
X22489885Y-24515537D01*
X22616279Y-24553877D01*
X22671316Y-24570573D01*
X22671321Y-24570574D01*
X22859997Y-24589157D01*
X22860000Y-24589157D01*
X22860003Y-24589157D01*
X23048678Y-24570574D01*
X23048683Y-24570573D01*
X23048683Y-24570572D01*
X23230115Y-24515537D01*
X23397324Y-24426162D01*
X23543883Y-24305883D01*
X23664162Y-24159324D01*
X23753537Y-23992115D01*
X23808573Y-23810683D01*
X23808574Y-23810678D01*
X23827157Y-23622003D01*
X24379084Y-23622003D01*
X24398699Y-23821166D01*
X24398700Y-23821171D01*
X24456797Y-24012688D01*
X24456799Y-24012693D01*
X24551137Y-24189188D01*
X24551138Y-24189190D01*
X24597144Y-24245248D01*
X25041976Y-23800415D01*
X25072359Y-23860045D01*
X25161955Y-23949641D01*
X25221581Y-23980022D01*
X24776750Y-24424854D01*
X24832809Y-24470861D01*
X24832811Y-24470862D01*
X25009306Y-24565200D01*
X25009311Y-24565202D01*
X25200828Y-24623299D01*
X25200833Y-24623300D01*
X25399997Y-24642916D01*
X25400003Y-24642916D01*
X25599166Y-24623300D01*
X25599171Y-24623299D01*
X25790688Y-24565202D01*
X25790693Y-24565200D01*
X25967184Y-24470865D01*
X25967190Y-24470861D01*
X26023248Y-24424854D01*
X25578417Y-23980023D01*
X25638045Y-23949641D01*
X25727641Y-23860045D01*
X25758023Y-23800417D01*
X26202854Y-24245248D01*
X26248861Y-24189190D01*
X26248865Y-24189184D01*
X26343200Y-24012693D01*
X26343202Y-24012688D01*
X26401299Y-23821171D01*
X26401300Y-23821166D01*
X26420916Y-23622003D01*
X26972843Y-23622003D01*
X26991425Y-23810678D01*
X26991426Y-23810683D01*
X27046463Y-23992115D01*
X27046465Y-23992120D01*
X27114797Y-24119959D01*
X27135838Y-24159324D01*
X27135840Y-24159326D01*
X27135841Y-24159328D01*
X27208912Y-24248364D01*
X27256117Y-24305883D01*
X27402676Y-24426162D01*
X27569885Y-24515537D01*
X27696279Y-24553877D01*
X27751316Y-24570573D01*
X27751321Y-24570574D01*
X27939997Y-24589157D01*
X27940000Y-24589157D01*
X27940003Y-24589157D01*
X28128678Y-24570574D01*
X28128683Y-24570573D01*
X28128683Y-24570572D01*
X28310115Y-24515537D01*
X28477324Y-24426162D01*
X28623883Y-24305883D01*
X28744162Y-24159324D01*
X28833537Y-23992115D01*
X28888573Y-23810683D01*
X28888574Y-23810678D01*
X28907157Y-23622003D01*
X28907157Y-23621996D01*
X28888494Y-23432507D01*
X28901606Y-23372743D01*
X28917009Y-23352803D01*
X28931835Y-23337977D01*
X28948311Y-23324702D01*
X28954628Y-23320643D01*
X28988908Y-23281079D01*
X28991270Y-23278542D01*
X29002721Y-23267093D01*
X29012414Y-23254142D01*
X29014610Y-23251417D01*
X29048877Y-23211873D01*
X29051992Y-23205049D01*
X29062796Y-23186842D01*
X29063421Y-23186006D01*
X29067296Y-23180831D01*
X29085584Y-23131795D01*
X29086932Y-23128543D01*
X29106964Y-23084681D01*
X29108665Y-23080957D01*
X29109733Y-23073522D01*
X29114967Y-23053015D01*
X29117591Y-23045983D01*
X29121324Y-22993772D01*
X29121699Y-22990299D01*
X29124000Y-22974299D01*
X29124000Y-22958151D01*
X29124126Y-22954618D01*
X29125306Y-22938117D01*
X29127859Y-22902427D01*
X29126262Y-22895085D01*
X29124000Y-22874042D01*
X29124000Y-22458876D01*
X29142907Y-22400685D01*
X29164209Y-22379222D01*
X29184930Y-22363930D01*
X29264455Y-22256179D01*
X29285624Y-22195682D01*
X29299229Y-22156802D01*
X29336294Y-22108122D01*
X29392673Y-22090500D01*
X33463544Y-22090500D01*
X33484590Y-22092763D01*
X33485830Y-22093032D01*
X33491927Y-22094359D01*
X33539412Y-22090962D01*
X33544119Y-22090626D01*
X33547652Y-22090500D01*
X33563799Y-22090500D01*
X33579799Y-22088199D01*
X33583272Y-22087824D01*
X33635483Y-22084091D01*
X33642515Y-22081467D01*
X33663022Y-22076233D01*
X33670457Y-22075165D01*
X33718049Y-22053429D01*
X33721295Y-22052084D01*
X33770331Y-22033796D01*
X33776341Y-22029296D01*
X33794549Y-22018492D01*
X33801373Y-22015377D01*
X33840917Y-21981110D01*
X33843642Y-21978914D01*
X33856593Y-21969221D01*
X33868042Y-21957770D01*
X33870579Y-21955408D01*
X33910143Y-21921128D01*
X33914202Y-21914811D01*
X33927477Y-21898335D01*
X34852335Y-20973477D01*
X34868811Y-20960202D01*
X34875128Y-20956143D01*
X34909408Y-20916579D01*
X34911770Y-20914042D01*
X34923221Y-20902593D01*
X34932914Y-20889642D01*
X34935110Y-20886917D01*
X34969377Y-20847373D01*
X34972492Y-20840549D01*
X34983296Y-20822342D01*
X34983921Y-20821506D01*
X34987796Y-20816331D01*
X35006084Y-20767295D01*
X35007432Y-20764043D01*
X35013386Y-20751007D01*
X35029165Y-20716457D01*
X35030233Y-20709022D01*
X35035467Y-20688515D01*
X35038091Y-20681483D01*
X35041824Y-20629272D01*
X35042199Y-20625799D01*
X35044500Y-20609799D01*
X35044500Y-20593651D01*
X35044626Y-20590118D01*
X35046317Y-20566472D01*
X35048359Y-20537927D01*
X35046762Y-20530585D01*
X35044500Y-20509542D01*
X35044500Y-20320000D01*
X56954675Y-20320000D01*
X56973962Y-20712591D01*
X56973962Y-20712596D01*
X56973963Y-20712601D01*
X56973963Y-20712604D01*
X57031635Y-21101399D01*
X57031635Y-21101400D01*
X57127141Y-21482681D01*
X57259561Y-21852768D01*
X57259565Y-21852779D01*
X57427621Y-22208103D01*
X57629687Y-22545229D01*
X57629692Y-22545236D01*
X57629694Y-22545239D01*
X57832836Y-22819144D01*
X57863843Y-22860952D01*
X57863849Y-22860959D01*
X58109335Y-23131811D01*
X58127808Y-23152192D01*
X58127818Y-23152201D01*
X58127822Y-23152205D01*
X58393896Y-23393361D01*
X58419049Y-23416158D01*
X58734761Y-23650306D01*
X58734765Y-23650308D01*
X58734770Y-23650312D01*
X59071896Y-23852378D01*
X59146316Y-23887576D01*
X59427228Y-24020438D01*
X59646625Y-24098939D01*
X59797318Y-24152858D01*
X60178599Y-24248364D01*
X60335183Y-24271590D01*
X60567409Y-24306038D01*
X60960000Y-24325325D01*
X61352591Y-24306038D01*
X61741400Y-24248364D01*
X62122681Y-24152858D01*
X62122684Y-24152857D01*
X62492772Y-24020438D01*
X62848097Y-23852381D01*
X62848098Y-23852380D01*
X62848103Y-23852378D01*
X63185229Y-23650312D01*
X63185229Y-23650311D01*
X63185239Y-23650306D01*
X63500951Y-23416158D01*
X63792192Y-23152192D01*
X64056158Y-22860951D01*
X64290306Y-22545239D01*
X64376260Y-22401834D01*
X64492378Y-22208103D01*
X64516642Y-22156802D01*
X64660438Y-21852772D01*
X64792857Y-21482684D01*
X64888364Y-21101400D01*
X64946038Y-20712591D01*
X64965325Y-20320000D01*
X64946038Y-19927409D01*
X64946015Y-19927257D01*
X64888364Y-19538600D01*
X64888364Y-19538599D01*
X64792858Y-19157318D01*
X64745488Y-19024928D01*
X64660438Y-18787228D01*
X64508014Y-18464956D01*
X64492378Y-18431896D01*
X64290312Y-18094770D01*
X64290308Y-18094765D01*
X64290306Y-18094761D01*
X64056158Y-17779049D01*
X64055491Y-17778313D01*
X63792205Y-17487822D01*
X63792201Y-17487818D01*
X63792192Y-17487808D01*
X63555945Y-17273686D01*
X63500959Y-17223849D01*
X63500952Y-17223843D01*
X63473563Y-17203530D01*
X63185239Y-16989694D01*
X63185236Y-16989692D01*
X63185229Y-16989687D01*
X62848103Y-16787621D01*
X62492779Y-16619565D01*
X62492776Y-16619563D01*
X62492772Y-16619562D01*
X62375234Y-16577506D01*
X62122681Y-16487141D01*
X61741400Y-16391635D01*
X61352602Y-16333963D01*
X61352595Y-16333962D01*
X61352591Y-16333962D01*
X60960000Y-16314675D01*
X60567409Y-16333962D01*
X60567404Y-16333962D01*
X60567398Y-16333963D01*
X60567395Y-16333963D01*
X60178600Y-16391635D01*
X60178599Y-16391635D01*
X59797318Y-16487141D01*
X59427231Y-16619561D01*
X59427220Y-16619565D01*
X59071896Y-16787621D01*
X58734770Y-16989687D01*
X58419047Y-17223843D01*
X58419040Y-17223849D01*
X58127822Y-17487794D01*
X58127794Y-17487822D01*
X57863849Y-17779040D01*
X57863843Y-17779047D01*
X57629687Y-18094770D01*
X57427621Y-18431896D01*
X57259565Y-18787220D01*
X57259561Y-18787231D01*
X57127141Y-19157318D01*
X57031635Y-19538599D01*
X57031635Y-19538600D01*
X56973963Y-19927395D01*
X56973963Y-19927398D01*
X56973962Y-19927404D01*
X56973962Y-19927409D01*
X56954675Y-20320000D01*
X35044500Y-20320000D01*
X35044500Y-18422000D01*
X53784529Y-18422000D01*
X53804379Y-18661561D01*
X53804379Y-18661562D01*
X53863047Y-18893238D01*
X53863390Y-18894591D01*
X53914520Y-19011157D01*
X53959950Y-19114727D01*
X53959953Y-19114732D01*
X54091425Y-19315964D01*
X54091427Y-19315966D01*
X54091429Y-19315969D01*
X54254236Y-19492825D01*
X54443933Y-19640472D01*
X54589583Y-19719294D01*
X54640862Y-19747045D01*
X54655344Y-19754882D01*
X54882703Y-19832934D01*
X55119808Y-19872500D01*
X55360192Y-19872500D01*
X55597297Y-19832934D01*
X55824656Y-19754882D01*
X56036067Y-19640472D01*
X56225764Y-19492825D01*
X56388571Y-19315969D01*
X56520049Y-19114728D01*
X56616610Y-18894591D01*
X56675620Y-18661563D01*
X56695471Y-18422000D01*
X56675620Y-18182437D01*
X56616610Y-17949409D01*
X56520049Y-17729272D01*
X56388571Y-17528031D01*
X56225764Y-17351175D01*
X56177811Y-17313851D01*
X56036070Y-17203530D01*
X56036067Y-17203528D01*
X55824659Y-17089119D01*
X55807796Y-17083330D01*
X55597297Y-17011066D01*
X55597294Y-17011065D01*
X55597293Y-17011065D01*
X55360192Y-16971500D01*
X55119808Y-16971500D01*
X54882706Y-17011065D01*
X54655340Y-17089119D01*
X54443932Y-17203528D01*
X54443929Y-17203530D01*
X54254239Y-17351172D01*
X54254236Y-17351174D01*
X54254236Y-17351175D01*
X54184461Y-17426970D01*
X54091425Y-17528035D01*
X53959953Y-17729267D01*
X53959950Y-17729272D01*
X53863388Y-17949414D01*
X53804379Y-18182437D01*
X53804379Y-18182438D01*
X53784529Y-18422000D01*
X35044500Y-18422000D01*
X35044500Y-14436854D01*
X58736001Y-14436854D01*
X58742373Y-14496139D01*
X58742374Y-14496144D01*
X58792391Y-14630247D01*
X58878165Y-14744826D01*
X58878173Y-14744834D01*
X58992752Y-14830608D01*
X59126852Y-14880624D01*
X59126863Y-14880626D01*
X59186148Y-14886999D01*
X59562998Y-14886999D01*
X59562999Y-14886998D01*
X59817000Y-14886998D01*
X59817001Y-14886999D01*
X60193849Y-14886999D01*
X60193854Y-14886998D01*
X60253139Y-14880626D01*
X60253144Y-14880625D01*
X60387247Y-14830608D01*
X60501826Y-14744834D01*
X60501834Y-14744826D01*
X60587608Y-14630247D01*
X60637624Y-14496147D01*
X60637626Y-14496136D01*
X60644000Y-14436854D01*
X61276001Y-14436854D01*
X61282373Y-14496139D01*
X61282374Y-14496144D01*
X61332391Y-14630247D01*
X61418165Y-14744826D01*
X61418173Y-14744834D01*
X61532752Y-14830608D01*
X61666852Y-14880624D01*
X61666863Y-14880626D01*
X61726148Y-14886999D01*
X62102997Y-14886999D01*
X62102999Y-14886997D01*
X62357000Y-14886997D01*
X62357001Y-14886999D01*
X62733849Y-14886999D01*
X62733854Y-14886998D01*
X62793139Y-14880626D01*
X62793144Y-14880625D01*
X62927247Y-14830608D01*
X63041826Y-14744834D01*
X63041834Y-14744826D01*
X63127608Y-14630247D01*
X63177624Y-14496147D01*
X63177626Y-14496136D01*
X63184000Y-14436851D01*
X63184000Y-14272501D01*
X63183999Y-14272500D01*
X62357001Y-14272500D01*
X62357000Y-14272501D01*
X62357000Y-14886997D01*
X62102999Y-14886997D01*
X62102999Y-14272500D01*
X61276002Y-14272500D01*
X61276001Y-14272501D01*
X61276001Y-14436854D01*
X60644000Y-14436854D01*
X60644000Y-14436851D01*
X60644000Y-14272500D01*
X59817001Y-14272500D01*
X59817000Y-14272501D01*
X59817000Y-14886998D01*
X59562999Y-14886998D01*
X59563000Y-14886997D01*
X59563000Y-14272501D01*
X59562999Y-14272500D01*
X58736002Y-14272500D01*
X58736001Y-14272501D01*
X58736001Y-14436854D01*
X35044500Y-14436854D01*
X35044500Y-13562258D01*
X35052036Y-13524372D01*
X35054303Y-13518899D01*
X35065544Y-13491762D01*
X35086182Y-13335000D01*
X35065544Y-13178238D01*
X35031090Y-13095058D01*
X35005037Y-13032161D01*
X35005037Y-13032160D01*
X34908786Y-12906723D01*
X34908785Y-12906722D01*
X34908782Y-12906718D01*
X34908777Y-12906714D01*
X34908776Y-12906713D01*
X34811316Y-12831930D01*
X34783341Y-12810464D01*
X34783340Y-12810463D01*
X34783338Y-12810462D01*
X34637266Y-12749957D01*
X34637258Y-12749955D01*
X34480501Y-12729318D01*
X34480499Y-12729318D01*
X34323741Y-12749955D01*
X34323733Y-12749957D01*
X34177661Y-12810462D01*
X34177660Y-12810462D01*
X34052223Y-12906713D01*
X34052213Y-12906723D01*
X33955962Y-13032160D01*
X33955962Y-13032161D01*
X33895457Y-13178233D01*
X33895455Y-13178241D01*
X33874818Y-13334999D01*
X33874818Y-13335000D01*
X33895455Y-13491758D01*
X33895457Y-13491766D01*
X33955962Y-13637838D01*
X33955963Y-13637840D01*
X33955964Y-13637841D01*
X34023043Y-13725260D01*
X34043466Y-13782933D01*
X34043500Y-13785525D01*
X34043500Y-20325677D01*
X34024593Y-20383868D01*
X34014504Y-20395681D01*
X33349682Y-21060504D01*
X33295165Y-21088281D01*
X33279678Y-21089500D01*
X29392673Y-21089500D01*
X29334482Y-21070593D01*
X29299229Y-21023198D01*
X29264456Y-20923824D01*
X29264455Y-20923821D01*
X29184930Y-20816070D01*
X29077179Y-20736545D01*
X29077176Y-20736544D01*
X29077175Y-20736543D01*
X28950777Y-20692315D01*
X28950776Y-20692314D01*
X28950774Y-20692314D01*
X28950771Y-20692313D01*
X28950768Y-20692313D01*
X28920773Y-20689500D01*
X28920764Y-20689500D01*
X28326236Y-20689500D01*
X28326226Y-20689500D01*
X28296231Y-20692313D01*
X28296222Y-20692315D01*
X28169824Y-20736543D01*
X28062071Y-20816069D01*
X28062069Y-20816071D01*
X28061879Y-20816329D01*
X27989785Y-20914012D01*
X27982543Y-20923824D01*
X27938315Y-21050222D01*
X27938313Y-21050231D01*
X27935500Y-21080226D01*
X27935500Y-22099773D01*
X27938313Y-22129768D01*
X27938315Y-22129777D01*
X27982543Y-22256175D01*
X27982544Y-22256176D01*
X27982545Y-22256179D01*
X28062070Y-22363930D01*
X28082789Y-22379222D01*
X28118381Y-22428989D01*
X28123000Y-22458876D01*
X28123000Y-22563637D01*
X28104093Y-22621828D01*
X28054593Y-22657792D01*
X28014297Y-22662160D01*
X27940004Y-22654843D01*
X27939997Y-22654843D01*
X27751321Y-22673425D01*
X27751316Y-22673426D01*
X27569884Y-22728463D01*
X27569879Y-22728465D01*
X27402681Y-22817835D01*
X27402671Y-22817841D01*
X27256121Y-22938113D01*
X27256113Y-22938121D01*
X27135841Y-23084671D01*
X27135835Y-23084681D01*
X27046465Y-23251879D01*
X27046463Y-23251884D01*
X26991426Y-23433316D01*
X26991425Y-23433321D01*
X26972843Y-23621996D01*
X26972843Y-23622003D01*
X26420916Y-23622003D01*
X26420916Y-23621996D01*
X26401300Y-23422833D01*
X26401299Y-23422828D01*
X26343202Y-23231311D01*
X26343200Y-23231306D01*
X26248862Y-23054811D01*
X26248861Y-23054809D01*
X26202854Y-22998750D01*
X25758022Y-23443581D01*
X25727641Y-23383955D01*
X25638045Y-23294359D01*
X25578415Y-23263976D01*
X26023248Y-22819144D01*
X26023249Y-22819144D01*
X25967190Y-22773138D01*
X25967188Y-22773137D01*
X25790693Y-22678799D01*
X25790688Y-22678797D01*
X25599171Y-22620700D01*
X25599166Y-22620699D01*
X25400003Y-22601084D01*
X25399997Y-22601084D01*
X25200833Y-22620699D01*
X25200828Y-22620700D01*
X25009311Y-22678797D01*
X25009306Y-22678799D01*
X24832815Y-22773135D01*
X24832805Y-22773141D01*
X24776750Y-22819144D01*
X25221582Y-23263976D01*
X25161955Y-23294359D01*
X25072359Y-23383955D01*
X25041976Y-23443582D01*
X24597144Y-22998750D01*
X24551141Y-23054805D01*
X24551135Y-23054815D01*
X24456799Y-23231306D01*
X24456797Y-23231311D01*
X24398700Y-23422828D01*
X24398699Y-23422833D01*
X24379084Y-23621996D01*
X24379084Y-23622003D01*
X23827157Y-23622003D01*
X23827157Y-23621996D01*
X23808574Y-23433321D01*
X23808573Y-23433316D01*
X23775625Y-23324700D01*
X23753537Y-23251885D01*
X23753278Y-23251401D01*
X23700242Y-23152177D01*
X23664162Y-23084676D01*
X23655001Y-23073514D01*
X23573576Y-22974298D01*
X23543883Y-22938117D01*
X23449857Y-22860951D01*
X23397328Y-22817841D01*
X23397326Y-22817840D01*
X23397324Y-22817838D01*
X23313702Y-22773141D01*
X23230120Y-22728465D01*
X23230115Y-22728463D01*
X23048683Y-22673426D01*
X23048678Y-22673425D01*
X22860003Y-22654843D01*
X22859996Y-22654843D01*
X22785703Y-22662160D01*
X22725940Y-22649048D01*
X22685297Y-22603311D01*
X22677000Y-22563637D01*
X22677000Y-22458876D01*
X22695907Y-22400685D01*
X22717209Y-22379222D01*
X22737930Y-22363930D01*
X22817455Y-22256179D01*
X22861686Y-22129774D01*
X22864499Y-22099772D01*
X22864500Y-22099770D01*
X22864500Y-22093854D01*
X23310001Y-22093854D01*
X23316373Y-22153139D01*
X23316374Y-22153144D01*
X23366391Y-22287247D01*
X23452165Y-22401826D01*
X23452173Y-22401834D01*
X23566752Y-22487608D01*
X23700852Y-22537624D01*
X23700863Y-22537626D01*
X23760148Y-22543999D01*
X23924500Y-22543999D01*
X23924500Y-22543997D01*
X24178500Y-22543997D01*
X24178501Y-22543999D01*
X24342849Y-22543999D01*
X24342854Y-22543998D01*
X24402139Y-22537626D01*
X24402144Y-22537625D01*
X24536247Y-22487608D01*
X24650826Y-22401834D01*
X24650834Y-22401826D01*
X24736608Y-22287247D01*
X24786624Y-22153147D01*
X24786626Y-22153136D01*
X24793000Y-22093854D01*
X26007001Y-22093854D01*
X26013373Y-22153139D01*
X26013374Y-22153144D01*
X26063391Y-22287247D01*
X26149165Y-22401826D01*
X26149173Y-22401834D01*
X26263752Y-22487608D01*
X26397852Y-22537624D01*
X26397863Y-22537626D01*
X26457148Y-22543999D01*
X26621500Y-22543999D01*
X26621500Y-21717000D01*
X26875500Y-21717000D01*
X26875500Y-22543998D01*
X26875501Y-22543999D01*
X27039849Y-22543999D01*
X27039854Y-22543998D01*
X27099139Y-22537626D01*
X27099144Y-22537625D01*
X27233247Y-22487608D01*
X27347826Y-22401834D01*
X27347834Y-22401826D01*
X27433608Y-22287247D01*
X27483624Y-22153147D01*
X27483626Y-22153136D01*
X27490000Y-22093851D01*
X27490000Y-21717001D01*
X27489999Y-21717000D01*
X26875500Y-21717000D01*
X26621500Y-21717000D01*
X26007002Y-21717000D01*
X26007001Y-21717001D01*
X26007001Y-22093854D01*
X24793000Y-22093854D01*
X24793000Y-22093851D01*
X24793000Y-21717001D01*
X24792999Y-21717000D01*
X24178501Y-21717000D01*
X24178500Y-21717001D01*
X24178500Y-22543997D01*
X23924500Y-22543997D01*
X23924500Y-21717001D01*
X23924499Y-21717000D01*
X23310002Y-21717000D01*
X23310001Y-21717001D01*
X23310001Y-22093854D01*
X22864500Y-22093854D01*
X22864500Y-21462999D01*
X23310000Y-21462999D01*
X23310001Y-21463000D01*
X23924499Y-21463000D01*
X23924499Y-20636000D01*
X24178500Y-20636000D01*
X24178500Y-21462999D01*
X24178501Y-21463000D01*
X24792998Y-21463000D01*
X24792999Y-21462999D01*
X24792999Y-21086151D01*
X24792998Y-21086148D01*
X26006999Y-21086148D01*
X26007000Y-21462998D01*
X26007001Y-21463000D01*
X26621499Y-21463000D01*
X26621499Y-21462999D01*
X26875500Y-21462999D01*
X26875501Y-21463000D01*
X27489998Y-21463000D01*
X27489999Y-21462999D01*
X27489999Y-21086151D01*
X27489998Y-21086145D01*
X27483626Y-21026860D01*
X27483625Y-21026855D01*
X27433608Y-20892752D01*
X27347834Y-20778173D01*
X27347826Y-20778165D01*
X27233247Y-20692391D01*
X27099147Y-20642375D01*
X27099136Y-20642373D01*
X27039851Y-20636000D01*
X26875501Y-20636000D01*
X26875500Y-20636001D01*
X26875500Y-21462999D01*
X26621499Y-21462999D01*
X26621499Y-20636000D01*
X26457151Y-20636000D01*
X26457145Y-20636001D01*
X26397860Y-20642373D01*
X26397855Y-20642374D01*
X26263752Y-20692391D01*
X26149173Y-20778165D01*
X26149165Y-20778173D01*
X26063391Y-20892752D01*
X26013375Y-21026852D01*
X26013373Y-21026863D01*
X26006999Y-21086148D01*
X24792998Y-21086148D01*
X24792998Y-21086145D01*
X24786626Y-21026860D01*
X24786625Y-21026855D01*
X24736608Y-20892752D01*
X24650834Y-20778173D01*
X24650826Y-20778165D01*
X24536247Y-20692391D01*
X24402147Y-20642375D01*
X24402136Y-20642373D01*
X24342851Y-20636000D01*
X24178500Y-20636000D01*
X23924499Y-20636000D01*
X23760151Y-20636000D01*
X23760145Y-20636001D01*
X23700860Y-20642373D01*
X23700855Y-20642374D01*
X23566752Y-20692391D01*
X23452173Y-20778165D01*
X23452165Y-20778173D01*
X23366391Y-20892752D01*
X23316375Y-21026852D01*
X23316373Y-21026863D01*
X23310000Y-21086148D01*
X23310000Y-21462999D01*
X22864500Y-21462999D01*
X22864500Y-21080230D01*
X22864499Y-21080226D01*
X22863024Y-21064494D01*
X22861686Y-21050226D01*
X22817455Y-20923821D01*
X22742559Y-20822342D01*
X22737932Y-20816072D01*
X22737931Y-20816070D01*
X22717209Y-20800776D01*
X22681618Y-20751007D01*
X22677000Y-20721123D01*
X22677000Y-20489820D01*
X22695907Y-20431629D01*
X22705990Y-20419823D01*
X22914333Y-20211479D01*
X22930806Y-20198205D01*
X22937128Y-20194143D01*
X22971408Y-20154579D01*
X22973770Y-20152042D01*
X22985221Y-20140593D01*
X22994914Y-20127642D01*
X22997110Y-20124917D01*
X23031377Y-20085373D01*
X23034492Y-20078549D01*
X23045296Y-20060342D01*
X23045921Y-20059506D01*
X23049796Y-20054331D01*
X23068084Y-20005295D01*
X23069432Y-20002043D01*
X23070745Y-19999169D01*
X23091165Y-19954457D01*
X23092233Y-19947022D01*
X23097467Y-19926515D01*
X23100091Y-19919483D01*
X23103824Y-19867272D01*
X23104199Y-19863799D01*
X23106500Y-19847799D01*
X23106500Y-19831651D01*
X23106626Y-19828118D01*
X23108421Y-19803021D01*
X23110359Y-19775927D01*
X23108762Y-19768585D01*
X23106500Y-19747542D01*
X23106500Y-19232672D01*
X23125407Y-19174481D01*
X23172800Y-19139229D01*
X23272179Y-19104455D01*
X23379930Y-19024930D01*
X23459455Y-18917179D01*
X23503686Y-18790774D01*
X23506499Y-18760772D01*
X23506500Y-18760770D01*
X23506500Y-18166230D01*
X23506499Y-18166226D01*
X23503686Y-18136231D01*
X23503686Y-18136226D01*
X23459455Y-18009821D01*
X23379930Y-17902070D01*
X23272179Y-17822545D01*
X23272176Y-17822544D01*
X23272175Y-17822543D01*
X23145777Y-17778315D01*
X23145776Y-17778314D01*
X23145774Y-17778314D01*
X23145771Y-17778313D01*
X23145768Y-17778313D01*
X23115773Y-17775500D01*
X23115764Y-17775500D01*
X22096236Y-17775500D01*
X22096226Y-17775500D01*
X22066231Y-17778313D01*
X22066222Y-17778315D01*
X21939824Y-17822543D01*
X21832071Y-17902069D01*
X21832069Y-17902071D01*
X21752543Y-18009824D01*
X21708315Y-18136222D01*
X21708313Y-18136231D01*
X21705500Y-18166226D01*
X21705500Y-18760773D01*
X21708313Y-18790768D01*
X21708315Y-18790777D01*
X21752543Y-18917175D01*
X21752544Y-18917176D01*
X21752545Y-18917179D01*
X21832070Y-19024930D01*
X21939821Y-19104455D01*
X22039199Y-19139229D01*
X22087878Y-19176293D01*
X22105500Y-19232672D01*
X22105500Y-19563678D01*
X22086593Y-19621869D01*
X22076503Y-19633682D01*
X21868167Y-19842017D01*
X21851697Y-19855291D01*
X21845372Y-19859356D01*
X21845368Y-19859359D01*
X21811106Y-19898901D01*
X21808699Y-19901486D01*
X21797278Y-19912907D01*
X21787589Y-19925848D01*
X21785374Y-19928597D01*
X21751122Y-19968126D01*
X21748000Y-19974963D01*
X21737212Y-19993146D01*
X21732703Y-19999169D01*
X21732702Y-19999171D01*
X21714417Y-20048195D01*
X21713065Y-20051459D01*
X21691336Y-20099040D01*
X21691334Y-20099047D01*
X21690264Y-20106485D01*
X21685036Y-20126971D01*
X21682408Y-20134017D01*
X21678676Y-20186200D01*
X21678298Y-20189712D01*
X21676000Y-20205700D01*
X21676000Y-20221847D01*
X21675874Y-20225380D01*
X21672141Y-20277573D01*
X21673737Y-20284908D01*
X21676000Y-20305956D01*
X21676000Y-20721123D01*
X21657093Y-20779314D01*
X21635791Y-20800776D01*
X21615068Y-20816070D01*
X21615067Y-20816072D01*
X21535545Y-20923820D01*
X21535544Y-20923823D01*
X21491315Y-21050222D01*
X21491313Y-21050231D01*
X21488500Y-21080226D01*
X21488500Y-22099773D01*
X20066000Y-22099773D01*
X20066000Y-17018001D01*
X20066000Y-17018000D01*
X20065999Y-17018000D01*
X17117000Y-17018000D01*
X17058809Y-16999093D01*
X17022845Y-16949593D01*
X17018000Y-16919000D01*
X17018000Y-16885773D01*
X21705500Y-16885773D01*
X21708313Y-16915768D01*
X21708315Y-16915777D01*
X21752543Y-17042175D01*
X21752544Y-17042176D01*
X21752545Y-17042179D01*
X21832070Y-17149930D01*
X21939821Y-17229455D01*
X22066226Y-17273686D01*
X22096226Y-17276499D01*
X22096230Y-17276500D01*
X22096236Y-17276500D01*
X23115770Y-17276500D01*
X23115772Y-17276499D01*
X23145774Y-17273686D01*
X23272179Y-17229455D01*
X23379930Y-17149930D01*
X23459455Y-17042179D01*
X23503686Y-16915774D01*
X23506499Y-16885772D01*
X23506500Y-16885770D01*
X23506500Y-16291230D01*
X23506499Y-16291226D01*
X23503686Y-16261231D01*
X23503686Y-16261226D01*
X23459455Y-16134821D01*
X23379930Y-16027070D01*
X23272179Y-15947545D01*
X23272176Y-15947544D01*
X23272175Y-15947543D01*
X23272176Y-15947543D01*
X23172802Y-15912771D01*
X23124122Y-15875706D01*
X23106500Y-15819327D01*
X23106500Y-15731500D01*
X23125407Y-15673309D01*
X23174907Y-15637345D01*
X23205500Y-15632500D01*
X23332770Y-15632500D01*
X23332772Y-15632499D01*
X23362774Y-15629686D01*
X23489179Y-15585455D01*
X23596930Y-15505930D01*
X23676455Y-15398179D01*
X23720686Y-15271774D01*
X23723499Y-15241772D01*
X23723500Y-15241770D01*
X23723500Y-14222230D01*
X23723499Y-14222226D01*
X23720686Y-14192231D01*
X23720686Y-14192226D01*
X23676455Y-14065821D01*
X23641529Y-14018498D01*
X23596932Y-13958072D01*
X23596931Y-13958070D01*
X23576209Y-13942776D01*
X23540618Y-13893007D01*
X23536000Y-13863123D01*
X23536000Y-13568876D01*
X23554907Y-13510685D01*
X23576209Y-13489222D01*
X23596930Y-13473930D01*
X23676455Y-13366179D01*
X23720686Y-13239774D01*
X23723499Y-13209772D01*
X23723500Y-13209770D01*
X23723500Y-13048181D01*
X23742407Y-12989990D01*
X23782512Y-12957616D01*
X23794765Y-12952206D01*
X23801709Y-12945260D01*
X23819601Y-12931089D01*
X23827952Y-12925919D01*
X23847165Y-12900474D01*
X23851662Y-12895308D01*
X24749476Y-11997496D01*
X24803992Y-11969719D01*
X24819479Y-11968500D01*
X24874318Y-11968500D01*
X24929320Y-11985185D01*
X24951318Y-11999884D01*
X24961769Y-12006867D01*
X25006231Y-12015711D01*
X25020241Y-12018498D01*
X25020246Y-12018498D01*
X25020252Y-12018500D01*
X25020253Y-12018500D01*
X26459747Y-12018500D01*
X26459748Y-12018500D01*
X26518231Y-12006867D01*
X26584552Y-11962552D01*
X26628867Y-11896231D01*
X26640500Y-11837748D01*
X26640500Y-11505149D01*
X26657185Y-11450147D01*
X26679263Y-11417104D01*
X26693999Y-11343019D01*
X26694000Y-11343016D01*
X26693999Y-11295000D01*
X24786002Y-11295000D01*
X24772306Y-11308695D01*
X24767094Y-11324739D01*
X24717594Y-11360703D01*
X24691572Y-11365442D01*
X24652173Y-11367263D01*
X24593171Y-11351063D01*
X24554960Y-11303276D01*
X24552135Y-11242156D01*
X24554844Y-11233771D01*
X24569625Y-11194140D01*
X24569626Y-11194136D01*
X24576000Y-11134851D01*
X24576000Y-11040999D01*
X24786000Y-11040999D01*
X24786001Y-11041000D01*
X25612999Y-11041000D01*
X25613000Y-11040999D01*
X25613000Y-11040998D01*
X25867000Y-11040998D01*
X25867001Y-11041000D01*
X26693998Y-11041000D01*
X26693999Y-11040999D01*
X26693999Y-10992987D01*
X26693998Y-10992980D01*
X26682926Y-10937314D01*
X26682926Y-10898686D01*
X26693999Y-10843016D01*
X26694000Y-10843016D01*
X26693999Y-10795000D01*
X25867001Y-10795000D01*
X25867000Y-10795001D01*
X25867000Y-11040998D01*
X25613000Y-11040998D01*
X25613000Y-10795001D01*
X25612999Y-10795000D01*
X24786001Y-10795000D01*
X24786001Y-10843022D01*
X24797073Y-10898686D01*
X24797073Y-10937311D01*
X24786000Y-10992978D01*
X24786000Y-11040999D01*
X24576000Y-11040999D01*
X24576000Y-10970501D01*
X24575999Y-10970500D01*
X23749001Y-10970500D01*
X23749000Y-10970501D01*
X23749000Y-11584998D01*
X23749001Y-11584999D01*
X24073020Y-11584999D01*
X24131211Y-11603906D01*
X24167175Y-11653406D01*
X24167175Y-11714592D01*
X24143024Y-11754003D01*
X23835879Y-12061148D01*
X23781362Y-12088925D01*
X23720930Y-12079354D01*
X23678347Y-12037402D01*
X23676456Y-12033824D01*
X23676455Y-12033821D01*
X23596930Y-11926070D01*
X23489179Y-11846545D01*
X23489176Y-11846544D01*
X23489175Y-11846543D01*
X23362777Y-11802315D01*
X23362776Y-11802314D01*
X23362774Y-11802314D01*
X23362771Y-11802313D01*
X23362768Y-11802313D01*
X23332773Y-11799500D01*
X23332764Y-11799500D01*
X22738236Y-11799500D01*
X22738226Y-11799500D01*
X22708231Y-11802313D01*
X22708222Y-11802315D01*
X22581824Y-11846543D01*
X22581821Y-11846544D01*
X22581821Y-11846545D01*
X22474070Y-11926070D01*
X22421355Y-11997496D01*
X22394543Y-12033824D01*
X22350315Y-12160222D01*
X22350313Y-12160231D01*
X22347500Y-12190226D01*
X22347500Y-13209773D01*
X22350313Y-13239768D01*
X22350315Y-13239777D01*
X22394543Y-13366175D01*
X22394544Y-13366176D01*
X22394545Y-13366179D01*
X22474070Y-13473930D01*
X22494789Y-13489222D01*
X22530381Y-13538989D01*
X22535000Y-13568876D01*
X22534999Y-13863123D01*
X22516091Y-13921314D01*
X22494791Y-13942775D01*
X22474070Y-13958069D01*
X22474067Y-13958072D01*
X22394545Y-14065820D01*
X22394544Y-14065823D01*
X22350315Y-14192222D01*
X22350313Y-14192231D01*
X22347500Y-14222226D01*
X22347500Y-14671178D01*
X22328593Y-14729369D01*
X22318502Y-14741183D01*
X22297666Y-14762018D01*
X22281197Y-14775291D01*
X22274872Y-14779356D01*
X22274868Y-14779359D01*
X22240606Y-14818901D01*
X22238199Y-14821486D01*
X22226778Y-14832907D01*
X22217089Y-14845848D01*
X22214874Y-14848597D01*
X22180622Y-14888126D01*
X22177500Y-14894963D01*
X22166712Y-14913146D01*
X22162203Y-14919169D01*
X22162202Y-14919171D01*
X22143917Y-14968195D01*
X22142565Y-14971459D01*
X22120836Y-15019040D01*
X22120834Y-15019047D01*
X22119764Y-15026485D01*
X22114536Y-15046971D01*
X22111908Y-15054017D01*
X22108176Y-15106200D01*
X22107798Y-15109712D01*
X22105500Y-15125700D01*
X22105500Y-15141847D01*
X22105374Y-15145380D01*
X22101641Y-15197573D01*
X22103237Y-15204908D01*
X22105500Y-15225956D01*
X22105500Y-15819327D01*
X22086593Y-15877518D01*
X22039198Y-15912771D01*
X21939824Y-15947543D01*
X21832071Y-16027069D01*
X21832069Y-16027071D01*
X21752543Y-16134824D01*
X21708315Y-16261222D01*
X21708313Y-16261231D01*
X21705500Y-16291226D01*
X21705500Y-16885773D01*
X17018000Y-16885773D01*
X17018000Y-14859000D01*
X20419001Y-14859000D01*
X20419001Y-15235854D01*
X20425373Y-15295139D01*
X20425374Y-15295144D01*
X20475391Y-15429247D01*
X20561165Y-15543826D01*
X20561173Y-15543834D01*
X20675752Y-15629608D01*
X20809852Y-15679624D01*
X20809863Y-15679626D01*
X20869148Y-15685999D01*
X21033500Y-15685999D01*
X21033500Y-15685997D01*
X21287500Y-15685997D01*
X21287501Y-15685999D01*
X21451849Y-15685999D01*
X21451854Y-15685998D01*
X21511139Y-15679626D01*
X21511144Y-15679625D01*
X21645247Y-15629608D01*
X21759826Y-15543834D01*
X21759834Y-15543826D01*
X21845608Y-15429247D01*
X21895624Y-15295147D01*
X21895626Y-15295136D01*
X21902000Y-15235851D01*
X21902000Y-14859001D01*
X21901999Y-14859000D01*
X21287501Y-14859000D01*
X21287500Y-14859001D01*
X21287500Y-15685997D01*
X21033500Y-15685997D01*
X21033500Y-14859001D01*
X21033499Y-14859000D01*
X20419001Y-14859000D01*
X17018000Y-14859000D01*
X17018000Y-14604999D01*
X20419000Y-14604999D01*
X20419001Y-14605000D01*
X21901998Y-14605000D01*
X21901999Y-14604999D01*
X21901999Y-14228151D01*
X21901998Y-14228145D01*
X21895626Y-14168860D01*
X21895625Y-14168855D01*
X21845608Y-14034752D01*
X21759834Y-13920173D01*
X21759826Y-13920165D01*
X21645247Y-13834391D01*
X21576519Y-13808758D01*
X21528604Y-13770708D01*
X21512206Y-13711761D01*
X21533587Y-13654433D01*
X21576519Y-13623242D01*
X21645247Y-13597608D01*
X21759826Y-13511834D01*
X21759834Y-13511826D01*
X21845608Y-13397247D01*
X21895624Y-13263147D01*
X21895626Y-13263136D01*
X21902000Y-13203851D01*
X21902000Y-12827001D01*
X21901999Y-12827000D01*
X20419001Y-12827000D01*
X20419001Y-13203854D01*
X20425373Y-13263139D01*
X20425374Y-13263144D01*
X20475391Y-13397247D01*
X20561165Y-13511826D01*
X20561173Y-13511834D01*
X20675751Y-13597607D01*
X20744481Y-13623242D01*
X20792395Y-13661292D01*
X20808793Y-13720239D01*
X20787411Y-13777567D01*
X20744481Y-13808758D01*
X20675751Y-13834392D01*
X20561173Y-13920165D01*
X20561165Y-13920173D01*
X20475391Y-14034752D01*
X20425375Y-14168852D01*
X20425373Y-14168863D01*
X20419000Y-14228148D01*
X20419000Y-14604999D01*
X17018000Y-14604999D01*
X17018000Y-12572999D01*
X20419000Y-12572999D01*
X20419001Y-12573000D01*
X21901998Y-12573000D01*
X21901999Y-12572999D01*
X21901999Y-12196151D01*
X21901998Y-12196145D01*
X21895626Y-12136860D01*
X21895625Y-12136855D01*
X21845608Y-12002752D01*
X21759834Y-11888173D01*
X21759826Y-11888165D01*
X21645247Y-11802391D01*
X21511141Y-11752373D01*
X21509573Y-11752003D01*
X21508661Y-11751448D01*
X21505340Y-11750210D01*
X21505577Y-11749573D01*
X21457292Y-11720218D01*
X21433679Y-11663772D01*
X21447753Y-11604228D01*
X21462344Y-11585653D01*
X21462998Y-11584998D01*
X21717000Y-11584998D01*
X21717001Y-11584999D01*
X22093849Y-11584999D01*
X22093854Y-11584998D01*
X22153139Y-11578626D01*
X22153144Y-11578625D01*
X22287247Y-11528608D01*
X22401826Y-11442834D01*
X22401834Y-11442826D01*
X22487608Y-11328247D01*
X22513242Y-11259519D01*
X22551292Y-11211604D01*
X22610239Y-11195206D01*
X22667567Y-11216587D01*
X22698758Y-11259519D01*
X22724391Y-11328247D01*
X22810165Y-11442826D01*
X22810173Y-11442834D01*
X22924752Y-11528608D01*
X23058852Y-11578624D01*
X23058863Y-11578626D01*
X23118148Y-11584999D01*
X23494998Y-11584999D01*
X23495000Y-11584998D01*
X23495000Y-10102001D01*
X23494999Y-10102000D01*
X23118151Y-10102000D01*
X23118145Y-10102001D01*
X23058860Y-10108373D01*
X23058855Y-10108374D01*
X22924752Y-10158391D01*
X22810173Y-10244165D01*
X22810165Y-10244173D01*
X22724392Y-10358751D01*
X22698758Y-10427481D01*
X22660708Y-10475395D01*
X22601761Y-10491793D01*
X22544433Y-10470411D01*
X22513242Y-10427481D01*
X22487607Y-10358751D01*
X22401834Y-10244173D01*
X22401826Y-10244165D01*
X22287247Y-10158391D01*
X22153147Y-10108375D01*
X22153136Y-10108373D01*
X22093851Y-10102000D01*
X21717001Y-10102000D01*
X21717000Y-10102001D01*
X21717000Y-11584998D01*
X21462998Y-11584998D01*
X21462999Y-11584997D01*
X21462999Y-10970500D01*
X20636002Y-10970500D01*
X20636001Y-10970501D01*
X20636001Y-11134854D01*
X20642373Y-11194139D01*
X20642374Y-11194144D01*
X20692391Y-11328247D01*
X20778165Y-11442826D01*
X20778173Y-11442834D01*
X20892750Y-11528606D01*
X20961482Y-11554241D01*
X21009397Y-11592291D01*
X21025796Y-11651238D01*
X21004415Y-11708566D01*
X20953421Y-11742378D01*
X20926889Y-11746000D01*
X20869151Y-11746000D01*
X20869145Y-11746001D01*
X20809860Y-11752373D01*
X20809855Y-11752374D01*
X20675752Y-11802391D01*
X20561173Y-11888165D01*
X20561165Y-11888173D01*
X20475391Y-12002752D01*
X20425375Y-12136852D01*
X20425373Y-12136863D01*
X20419000Y-12196148D01*
X20419000Y-12572999D01*
X17018000Y-12572999D01*
X17018000Y-10716499D01*
X20636000Y-10716499D01*
X20636001Y-10716500D01*
X21462999Y-10716500D01*
X21462999Y-10102001D01*
X21462998Y-10102000D01*
X21086151Y-10102000D01*
X21086145Y-10102001D01*
X21026860Y-10108373D01*
X21026855Y-10108374D01*
X20892752Y-10158391D01*
X20778173Y-10244165D01*
X20778165Y-10244173D01*
X20692391Y-10358752D01*
X20642375Y-10492852D01*
X20642373Y-10492863D01*
X20636000Y-10552148D01*
X20636000Y-10716499D01*
X17018000Y-10716499D01*
X17018000Y-9822583D01*
X17036907Y-9764392D01*
X17086407Y-9728428D01*
X17147593Y-9728428D01*
X17197093Y-9764392D01*
X17210442Y-9789881D01*
X17217545Y-9810179D01*
X17297070Y-9917930D01*
X17404821Y-9997455D01*
X17531226Y-10041686D01*
X17561226Y-10044499D01*
X17561230Y-10044500D01*
X17561236Y-10044500D01*
X18155770Y-10044500D01*
X18155772Y-10044499D01*
X18185774Y-10041686D01*
X18312179Y-9997455D01*
X18419930Y-9917930D01*
X18499455Y-9810179D01*
X18543686Y-9683774D01*
X18546499Y-9653772D01*
X18546500Y-9653770D01*
X18546500Y-8634230D01*
X18546499Y-8634226D01*
X18545254Y-8620946D01*
X18543686Y-8604226D01*
X18499455Y-8477821D01*
X18419930Y-8370070D01*
X18312179Y-8290545D01*
X18312176Y-8290544D01*
X18312175Y-8290543D01*
X18185777Y-8246315D01*
X18185776Y-8246314D01*
X18185774Y-8246314D01*
X18185771Y-8246313D01*
X18185768Y-8246313D01*
X18155773Y-8243500D01*
X18155764Y-8243500D01*
X18107479Y-8243500D01*
X18049288Y-8224593D01*
X18037475Y-8214504D01*
X18025257Y-8202286D01*
X18011089Y-8184398D01*
X18008122Y-8179606D01*
X17993564Y-8120177D01*
X18016718Y-8063542D01*
X18068740Y-8031333D01*
X18092294Y-8028490D01*
X24580511Y-8028490D01*
X24638702Y-8047397D01*
X24650515Y-8057486D01*
X25410504Y-8817475D01*
X25438281Y-8871992D01*
X25439500Y-8887479D01*
X25439500Y-9218500D01*
X25420593Y-9276691D01*
X25371093Y-9312655D01*
X25340500Y-9317500D01*
X25020252Y-9317500D01*
X25020251Y-9317500D01*
X25020241Y-9317501D01*
X24961772Y-9329132D01*
X24961766Y-9329134D01*
X24895451Y-9373445D01*
X24895445Y-9373451D01*
X24851134Y-9439766D01*
X24851132Y-9439772D01*
X24839501Y-9498241D01*
X24839500Y-9498253D01*
X24839500Y-9522021D01*
X24820593Y-9580212D01*
X24771093Y-9616176D01*
X24709907Y-9616176D01*
X24670496Y-9592025D01*
X24525971Y-9447500D01*
X24498194Y-9392983D01*
X24502530Y-9344799D01*
X24519686Y-9295774D01*
X24522500Y-9265764D01*
X24522500Y-8671236D01*
X24522500Y-8671230D01*
X24522499Y-8671226D01*
X24519686Y-8641226D01*
X24475455Y-8514821D01*
X24395930Y-8407070D01*
X24288179Y-8327545D01*
X24288176Y-8327544D01*
X24288175Y-8327543D01*
X24161777Y-8283315D01*
X24161776Y-8283314D01*
X24161774Y-8283314D01*
X24161771Y-8283313D01*
X24161768Y-8283313D01*
X24131773Y-8280500D01*
X24131764Y-8280500D01*
X23112236Y-8280500D01*
X23112226Y-8280500D01*
X23082231Y-8283313D01*
X23082222Y-8283315D01*
X22955824Y-8327543D01*
X22848071Y-8407069D01*
X22848069Y-8407071D01*
X22832253Y-8428501D01*
X22776481Y-8504069D01*
X22768543Y-8514824D01*
X22738145Y-8601698D01*
X22701080Y-8650378D01*
X22644701Y-8668000D01*
X22567299Y-8668000D01*
X22509108Y-8649093D01*
X22473855Y-8601698D01*
X22443456Y-8514824D01*
X22443455Y-8514821D01*
X22363930Y-8407070D01*
X22256179Y-8327545D01*
X22256176Y-8327544D01*
X22256175Y-8327543D01*
X22129777Y-8283315D01*
X22129776Y-8283314D01*
X22129774Y-8283314D01*
X22129771Y-8283313D01*
X22129768Y-8283313D01*
X22099773Y-8280500D01*
X22099764Y-8280500D01*
X21080236Y-8280500D01*
X21080226Y-8280500D01*
X21050231Y-8283313D01*
X21050222Y-8283315D01*
X20923824Y-8327543D01*
X20816071Y-8407069D01*
X20816069Y-8407071D01*
X20800253Y-8428501D01*
X20744481Y-8504069D01*
X20736543Y-8514824D01*
X20692315Y-8641222D01*
X20692313Y-8641231D01*
X20689500Y-8671226D01*
X20689500Y-8744500D01*
X20670593Y-8802691D01*
X20621093Y-8838655D01*
X20590500Y-8843500D01*
X20520500Y-8843500D01*
X20462309Y-8824593D01*
X20426345Y-8775093D01*
X20421500Y-8744500D01*
X20421500Y-8634230D01*
X20421499Y-8634226D01*
X20420254Y-8620946D01*
X20418686Y-8604226D01*
X20374455Y-8477821D01*
X20294930Y-8370070D01*
X20187179Y-8290545D01*
X20187176Y-8290544D01*
X20187175Y-8290543D01*
X20060777Y-8246315D01*
X20060776Y-8246314D01*
X20060774Y-8246314D01*
X20060771Y-8246313D01*
X20060768Y-8246313D01*
X20030773Y-8243500D01*
X20030764Y-8243500D01*
X19436236Y-8243500D01*
X19436226Y-8243500D01*
X19406231Y-8246313D01*
X19406222Y-8246315D01*
X19279824Y-8290543D01*
X19279821Y-8290544D01*
X19279821Y-8290545D01*
X19270594Y-8297355D01*
X19172071Y-8370069D01*
X19172069Y-8370071D01*
X19131865Y-8424545D01*
X19101270Y-8466000D01*
X19092543Y-8477824D01*
X19048315Y-8604222D01*
X19048313Y-8604231D01*
X19045500Y-8634226D01*
X19045500Y-9653773D01*
X19048313Y-9683768D01*
X19048315Y-9683777D01*
X19092543Y-9810175D01*
X19092544Y-9810176D01*
X19092545Y-9810179D01*
X19172070Y-9917930D01*
X19279821Y-9997455D01*
X19406226Y-10041686D01*
X19436226Y-10044499D01*
X19436230Y-10044500D01*
X19436236Y-10044500D01*
X20030770Y-10044500D01*
X20030772Y-10044499D01*
X20060774Y-10041686D01*
X20187179Y-9997455D01*
X20294930Y-9917930D01*
X20374455Y-9810179D01*
X20418686Y-9683774D01*
X20421499Y-9653772D01*
X20421500Y-9653770D01*
X20421500Y-9543500D01*
X20440407Y-9485309D01*
X20489907Y-9449345D01*
X20520500Y-9444500D01*
X20703042Y-9444500D01*
X20761233Y-9463407D01*
X20782694Y-9484708D01*
X20816070Y-9529930D01*
X20923821Y-9609455D01*
X21050226Y-9653686D01*
X21080226Y-9656499D01*
X21080230Y-9656500D01*
X21080236Y-9656500D01*
X22099770Y-9656500D01*
X22099772Y-9656499D01*
X22129774Y-9653686D01*
X22256179Y-9609455D01*
X22363930Y-9529930D01*
X22443455Y-9422179D01*
X22460646Y-9373050D01*
X22473855Y-9335302D01*
X22510920Y-9286622D01*
X22567299Y-9269000D01*
X22644701Y-9269000D01*
X22702892Y-9287907D01*
X22738145Y-9335302D01*
X22768543Y-9422175D01*
X22768544Y-9422176D01*
X22768545Y-9422179D01*
X22848070Y-9529930D01*
X22955821Y-9609455D01*
X23082226Y-9653686D01*
X23112226Y-9656499D01*
X23112230Y-9656500D01*
X23112236Y-9656500D01*
X23844021Y-9656500D01*
X23902212Y-9675407D01*
X23914025Y-9685496D01*
X24161525Y-9932996D01*
X24189302Y-9987513D01*
X24179731Y-10047945D01*
X24136466Y-10091210D01*
X24091521Y-10102000D01*
X23749000Y-10102000D01*
X23749000Y-10716499D01*
X23749001Y-10716500D01*
X24575998Y-10716500D01*
X24575999Y-10716499D01*
X24575999Y-10552151D01*
X24575857Y-10549504D01*
X24575999Y-10549496D01*
X24575999Y-10549495D01*
X24576025Y-10549495D01*
X24577308Y-10549426D01*
X24588812Y-10494594D01*
X24634173Y-10453533D01*
X24695006Y-10446976D01*
X24697346Y-10447497D01*
X24698017Y-10447654D01*
X24698019Y-10447656D01*
X24709668Y-10450395D01*
X24761983Y-10482123D01*
X24785658Y-10538543D01*
X24785749Y-10540748D01*
X24786001Y-10541000D01*
X26693998Y-10541000D01*
X26693999Y-10540999D01*
X26693999Y-10492987D01*
X26693998Y-10492977D01*
X26679263Y-10418895D01*
X26679262Y-10418893D01*
X26657184Y-10385850D01*
X26640500Y-10330849D01*
X26640500Y-9998253D01*
X26640500Y-9998252D01*
X26628867Y-9939769D01*
X26628866Y-9939767D01*
X26628378Y-9937313D01*
X26628379Y-9898682D01*
X26629193Y-9894593D01*
X26639039Y-9845093D01*
X26640499Y-9837756D01*
X26640499Y-9837753D01*
X26640500Y-9837748D01*
X26640500Y-9751215D01*
X26659406Y-9693028D01*
X26708905Y-9657064D01*
X26770091Y-9657063D01*
X26799766Y-9672676D01*
X26838767Y-9702602D01*
X26873423Y-9753026D01*
X26877500Y-9781144D01*
X26877500Y-10094835D01*
X26875280Y-10108513D01*
X26876494Y-10108683D01*
X26875226Y-10117766D01*
X26877447Y-10165783D01*
X26877500Y-10168069D01*
X26877500Y-10187842D01*
X26878152Y-10191332D01*
X26878943Y-10198149D01*
X26880414Y-10229987D01*
X26880415Y-10229994D01*
X26884384Y-10238982D01*
X26891133Y-10260773D01*
X26892939Y-10270433D01*
X26909717Y-10297533D01*
X26912915Y-10303600D01*
X26924948Y-10330849D01*
X26925794Y-10332765D01*
X26932745Y-10339716D01*
X26946907Y-10357596D01*
X26952081Y-10365952D01*
X26977511Y-10385156D01*
X26982690Y-10389662D01*
X27427436Y-10834407D01*
X27435537Y-10845647D01*
X27436516Y-10844909D01*
X27442044Y-10852230D01*
X27477569Y-10884616D01*
X27479223Y-10886195D01*
X27491715Y-10898686D01*
X27493203Y-10900174D01*
X27496128Y-10902178D01*
X27501505Y-10906437D01*
X27525064Y-10927914D01*
X27525065Y-10927914D01*
X27525067Y-10927916D01*
X27534230Y-10931466D01*
X27554416Y-10942105D01*
X27562519Y-10947656D01*
X27593553Y-10954955D01*
X27600090Y-10956979D01*
X27629827Y-10968500D01*
X27639652Y-10968500D01*
X27662316Y-10971129D01*
X27671881Y-10973379D01*
X27696494Y-10969945D01*
X27703453Y-10968975D01*
X27710299Y-10968500D01*
X29140500Y-10968500D01*
X29198691Y-10987407D01*
X29234655Y-11036907D01*
X29239500Y-11067500D01*
X29239500Y-11337751D01*
X29251621Y-11398686D01*
X29251621Y-11437314D01*
X29239500Y-11498248D01*
X29239500Y-11837746D01*
X29239501Y-11837758D01*
X29251132Y-11896227D01*
X29251134Y-11896233D01*
X29282538Y-11943231D01*
X29295448Y-11962552D01*
X29361769Y-12006867D01*
X29406231Y-12015711D01*
X29420241Y-12018498D01*
X29420246Y-12018498D01*
X29420252Y-12018500D01*
X29420253Y-12018500D01*
X30859747Y-12018500D01*
X30859748Y-12018500D01*
X30918231Y-12006867D01*
X30928682Y-11999883D01*
X30987567Y-11983273D01*
X30998470Y-11984500D01*
X30999827Y-11984500D01*
X31009652Y-11984500D01*
X31032316Y-11987129D01*
X31041881Y-11989379D01*
X31066494Y-11985945D01*
X31073453Y-11984975D01*
X31080299Y-11984500D01*
X56984521Y-11984500D01*
X57042712Y-12003407D01*
X57054525Y-12013496D01*
X58415436Y-13374407D01*
X58423537Y-13385647D01*
X58424516Y-13384909D01*
X58430044Y-13392230D01*
X58465569Y-13424616D01*
X58467223Y-13426195D01*
X58474948Y-13433919D01*
X58481203Y-13440174D01*
X58484128Y-13442178D01*
X58489505Y-13446437D01*
X58513064Y-13467914D01*
X58513065Y-13467914D01*
X58513067Y-13467916D01*
X58522230Y-13471466D01*
X58542416Y-13482105D01*
X58550519Y-13487656D01*
X58581553Y-13494955D01*
X58588090Y-13496979D01*
X58617827Y-13508500D01*
X58627652Y-13508500D01*
X58650316Y-13511129D01*
X58659881Y-13513379D01*
X58684494Y-13509945D01*
X58691453Y-13508975D01*
X58698299Y-13508500D01*
X58708673Y-13508500D01*
X58766864Y-13527407D01*
X58802828Y-13576907D01*
X58802828Y-13638093D01*
X58795561Y-13654949D01*
X58792391Y-13660752D01*
X58742375Y-13794852D01*
X58742373Y-13794863D01*
X58736000Y-13854148D01*
X58736000Y-14018498D01*
X58736001Y-14018500D01*
X60643998Y-14018500D01*
X60643999Y-14018499D01*
X60643999Y-13854151D01*
X60643998Y-13854145D01*
X60637626Y-13794860D01*
X60637625Y-13794855D01*
X60587608Y-13660752D01*
X60584439Y-13654949D01*
X60573143Y-13594815D01*
X60599350Y-13539527D01*
X60653050Y-13510202D01*
X60671327Y-13508500D01*
X61248673Y-13508500D01*
X61306864Y-13527407D01*
X61342828Y-13576907D01*
X61342828Y-13638093D01*
X61335561Y-13654949D01*
X61332391Y-13660752D01*
X61282375Y-13794852D01*
X61282373Y-13794863D01*
X61276000Y-13854148D01*
X61276000Y-14018499D01*
X61276001Y-14018500D01*
X63183998Y-14018500D01*
X63183999Y-14018499D01*
X63183999Y-13854151D01*
X63183998Y-13854145D01*
X63177626Y-13794860D01*
X63177625Y-13794855D01*
X63127608Y-13660752D01*
X63041834Y-13546173D01*
X63041826Y-13546165D01*
X62927247Y-13460391D01*
X62793147Y-13410375D01*
X62793136Y-13410373D01*
X62733851Y-13404000D01*
X62443977Y-13404000D01*
X62385786Y-13385093D01*
X62349822Y-13335593D01*
X62349822Y-13274407D01*
X62373972Y-13234998D01*
X62396402Y-13212567D01*
X62407664Y-13204493D01*
X62406905Y-13203487D01*
X62414221Y-13197961D01*
X62414228Y-13197958D01*
X62446632Y-13162411D01*
X62448186Y-13160783D01*
X62462174Y-13146797D01*
X62464181Y-13143865D01*
X62468440Y-13138490D01*
X62489916Y-13114933D01*
X62493465Y-13105770D01*
X62504106Y-13085582D01*
X62509656Y-13077481D01*
X62516955Y-13046443D01*
X62518979Y-13039909D01*
X62526023Y-13021728D01*
X62564676Y-12974303D01*
X62618334Y-12958500D01*
X62739770Y-12958500D01*
X62739772Y-12958499D01*
X62769774Y-12955686D01*
X62896179Y-12911455D01*
X63003930Y-12831930D01*
X63083455Y-12724179D01*
X63127686Y-12597774D01*
X63130499Y-12567772D01*
X63130500Y-12567770D01*
X63130500Y-11973230D01*
X63130499Y-11973226D01*
X63127686Y-11943231D01*
X63127686Y-11943226D01*
X63083455Y-11816821D01*
X63003930Y-11709070D01*
X62896179Y-11629545D01*
X62896176Y-11629544D01*
X62896175Y-11629543D01*
X62769777Y-11585315D01*
X62769776Y-11585314D01*
X62769774Y-11585314D01*
X62769771Y-11585313D01*
X62769768Y-11585313D01*
X62739773Y-11582500D01*
X62739764Y-11582500D01*
X62629500Y-11582500D01*
X62571309Y-11563593D01*
X62535345Y-11514093D01*
X62530500Y-11483500D01*
X62530500Y-11475500D01*
X62549407Y-11417309D01*
X62598907Y-11381345D01*
X62629500Y-11376500D01*
X63011747Y-11376500D01*
X63011748Y-11376500D01*
X63070231Y-11364867D01*
X63136552Y-11320552D01*
X63180867Y-11254231D01*
X63192500Y-11195748D01*
X63192500Y-9632252D01*
X63191441Y-9626930D01*
X63189302Y-9616176D01*
X63180867Y-9573769D01*
X63136552Y-9507448D01*
X63122791Y-9498253D01*
X63070233Y-9463134D01*
X63070231Y-9463133D01*
X63070228Y-9463132D01*
X63070227Y-9463132D01*
X63011758Y-9451501D01*
X63011748Y-9451500D01*
X61448252Y-9451500D01*
X61448251Y-9451500D01*
X61448241Y-9451501D01*
X61389772Y-9463132D01*
X61389766Y-9463134D01*
X61323451Y-9507445D01*
X61323445Y-9507451D01*
X61279134Y-9573766D01*
X61279132Y-9573772D01*
X61267501Y-9632241D01*
X61267500Y-9632253D01*
X61267500Y-11195746D01*
X61267501Y-11195758D01*
X61279132Y-11254227D01*
X61279134Y-11254233D01*
X61323445Y-11320548D01*
X61323448Y-11320552D01*
X61389769Y-11364867D01*
X61432909Y-11373448D01*
X61448241Y-11376498D01*
X61448246Y-11376498D01*
X61448252Y-11376500D01*
X61830500Y-11376500D01*
X61888691Y-11395407D01*
X61924655Y-11444907D01*
X61929500Y-11475500D01*
X61929500Y-11483500D01*
X61910593Y-11541691D01*
X61861093Y-11577655D01*
X61830500Y-11582500D01*
X61720226Y-11582500D01*
X61690231Y-11585313D01*
X61690222Y-11585315D01*
X61563824Y-11629543D01*
X61563821Y-11629544D01*
X61563821Y-11629545D01*
X61531491Y-11653406D01*
X61456071Y-11709069D01*
X61456069Y-11709071D01*
X61424110Y-11752373D01*
X61378379Y-11814337D01*
X61376543Y-11816824D01*
X61332315Y-11943222D01*
X61332313Y-11943231D01*
X61329500Y-11973226D01*
X61329500Y-12567773D01*
X61332313Y-12597768D01*
X61332315Y-12597777D01*
X61376543Y-12724175D01*
X61376544Y-12724176D01*
X61376545Y-12724179D01*
X61395391Y-12749714D01*
X61414732Y-12807759D01*
X61396261Y-12866089D01*
X61347032Y-12902423D01*
X61315735Y-12907500D01*
X60604265Y-12907500D01*
X60546074Y-12888593D01*
X60510110Y-12839093D01*
X60510110Y-12777907D01*
X60524607Y-12749716D01*
X60543455Y-12724179D01*
X60587686Y-12597774D01*
X60590499Y-12567772D01*
X60590500Y-12567770D01*
X60590500Y-11973230D01*
X60590499Y-11973226D01*
X60587686Y-11943231D01*
X60587686Y-11943226D01*
X60543455Y-11816821D01*
X60463930Y-11709070D01*
X60356179Y-11629545D01*
X60356176Y-11629544D01*
X60356175Y-11629543D01*
X60229777Y-11585315D01*
X60229776Y-11585314D01*
X60229774Y-11585314D01*
X60229771Y-11585313D01*
X60229768Y-11585313D01*
X60199773Y-11582500D01*
X60199764Y-11582500D01*
X60089500Y-11582500D01*
X60031309Y-11563593D01*
X59995345Y-11514093D01*
X59990500Y-11483500D01*
X59990500Y-11475500D01*
X60009407Y-11417309D01*
X60058907Y-11381345D01*
X60089500Y-11376500D01*
X60471747Y-11376500D01*
X60471748Y-11376500D01*
X60530231Y-11364867D01*
X60596552Y-11320552D01*
X60640867Y-11254231D01*
X60652500Y-11195748D01*
X60652500Y-9632252D01*
X60651441Y-9626930D01*
X60649302Y-9616176D01*
X60640867Y-9573769D01*
X60596552Y-9507448D01*
X60582791Y-9498253D01*
X60530233Y-9463134D01*
X60530231Y-9463133D01*
X60530228Y-9463132D01*
X60530227Y-9463132D01*
X60471758Y-9451501D01*
X60471748Y-9451500D01*
X58908252Y-9451500D01*
X58908251Y-9451500D01*
X58908241Y-9451501D01*
X58849772Y-9463132D01*
X58849766Y-9463134D01*
X58783451Y-9507445D01*
X58783445Y-9507451D01*
X58739134Y-9573766D01*
X58739132Y-9573772D01*
X58727501Y-9632241D01*
X58727500Y-9632253D01*
X58727500Y-10768500D01*
X58708593Y-10826691D01*
X58659093Y-10862655D01*
X58628500Y-10867500D01*
X56627321Y-10867500D01*
X56569130Y-10848593D01*
X56533166Y-10799093D01*
X56533166Y-10737907D01*
X56557317Y-10698496D01*
X57623572Y-9632241D01*
X58576505Y-8679308D01*
X58631021Y-8651532D01*
X58691453Y-8661103D01*
X58734718Y-8704368D01*
X58737972Y-8711428D01*
X58739133Y-8714231D01*
X58781547Y-8777708D01*
X58783448Y-8780552D01*
X58849769Y-8824867D01*
X58894231Y-8833711D01*
X58908241Y-8836498D01*
X58908246Y-8836498D01*
X58908252Y-8836500D01*
X58908253Y-8836500D01*
X60471747Y-8836500D01*
X60471748Y-8836500D01*
X60530231Y-8824867D01*
X60596552Y-8780552D01*
X60640867Y-8714231D01*
X60652500Y-8655748D01*
X60652500Y-8473500D01*
X60671407Y-8415309D01*
X60720907Y-8379345D01*
X60751500Y-8374500D01*
X61168500Y-8374500D01*
X61226691Y-8393407D01*
X61262655Y-8442907D01*
X61267500Y-8473500D01*
X61267500Y-8655746D01*
X61267501Y-8655758D01*
X61279132Y-8714227D01*
X61279134Y-8714233D01*
X61321551Y-8777713D01*
X61323448Y-8780552D01*
X61389769Y-8824867D01*
X61434231Y-8833711D01*
X61448241Y-8836498D01*
X61448246Y-8836498D01*
X61448252Y-8836500D01*
X61448253Y-8836500D01*
X63011747Y-8836500D01*
X63011748Y-8836500D01*
X63070231Y-8824867D01*
X63136552Y-8780552D01*
X63180867Y-8714231D01*
X63192500Y-8655748D01*
X63192500Y-7092252D01*
X63180867Y-7033769D01*
X63136552Y-6967448D01*
X63111567Y-6950753D01*
X63070233Y-6923134D01*
X63070231Y-6923133D01*
X63070228Y-6923132D01*
X63070227Y-6923132D01*
X63011758Y-6911501D01*
X63011748Y-6911500D01*
X61448252Y-6911500D01*
X61448251Y-6911500D01*
X61448241Y-6911501D01*
X61389772Y-6923132D01*
X61389766Y-6923134D01*
X61323451Y-6967445D01*
X61323445Y-6967451D01*
X61279134Y-7033766D01*
X61279132Y-7033772D01*
X61267501Y-7092241D01*
X61267500Y-7092253D01*
X61267500Y-7274500D01*
X61248593Y-7332691D01*
X61199093Y-7368655D01*
X61168500Y-7373500D01*
X60751500Y-7373500D01*
X60693309Y-7354593D01*
X60657345Y-7305093D01*
X60652500Y-7274500D01*
X60652500Y-7092253D01*
X60652498Y-7092241D01*
X60646781Y-7063500D01*
X60640867Y-7033769D01*
X60596552Y-6967448D01*
X60571567Y-6950753D01*
X60530233Y-6923134D01*
X60530231Y-6923133D01*
X60530228Y-6923132D01*
X60530227Y-6923132D01*
X60471758Y-6911501D01*
X60471748Y-6911500D01*
X58908252Y-6911500D01*
X58908251Y-6911500D01*
X58908241Y-6911501D01*
X58849772Y-6923132D01*
X58849766Y-6923134D01*
X58783451Y-6967445D01*
X58783445Y-6967451D01*
X58739134Y-7033766D01*
X58739132Y-7033772D01*
X58727501Y-7092241D01*
X58727500Y-7092253D01*
X58727500Y-7274940D01*
X58708593Y-7333131D01*
X58659093Y-7369095D01*
X58641628Y-7372510D01*
X58641698Y-7372997D01*
X58622201Y-7375799D01*
X58618690Y-7376177D01*
X58566515Y-7379908D01*
X58559476Y-7382534D01*
X58538986Y-7387764D01*
X58531543Y-7388834D01*
X58531542Y-7388835D01*
X58483943Y-7410571D01*
X58480681Y-7411923D01*
X58431670Y-7430204D01*
X58431664Y-7430208D01*
X58425649Y-7434710D01*
X58407463Y-7445500D01*
X58400628Y-7448622D01*
X58400625Y-7448623D01*
X58361083Y-7482885D01*
X58358334Y-7485101D01*
X58345406Y-7494779D01*
X58333986Y-7506199D01*
X58331401Y-7508606D01*
X58291859Y-7542868D01*
X58291856Y-7542872D01*
X58287793Y-7549194D01*
X58274519Y-7565665D01*
X55955682Y-9884504D01*
X55901165Y-9912281D01*
X55885678Y-9913500D01*
X36219615Y-9913500D01*
X36161424Y-9894593D01*
X36125460Y-9845093D01*
X36125460Y-9783907D01*
X36126171Y-9781802D01*
X36136074Y-9753500D01*
X36170646Y-9654699D01*
X36173499Y-9624273D01*
X36173500Y-9624273D01*
X36173500Y-8690726D01*
X36173499Y-8690725D01*
X36173494Y-8690674D01*
X36170646Y-8660301D01*
X36125793Y-8532118D01*
X36120383Y-8524788D01*
X36045154Y-8422855D01*
X36045152Y-8422853D01*
X36045150Y-8422850D01*
X36045146Y-8422847D01*
X36045144Y-8422845D01*
X35935883Y-8342207D01*
X35807703Y-8297355D01*
X35807694Y-8297353D01*
X35777274Y-8294500D01*
X35777266Y-8294500D01*
X33818734Y-8294500D01*
X33818725Y-8294500D01*
X33788305Y-8297353D01*
X33788296Y-8297355D01*
X33660116Y-8342207D01*
X33550855Y-8422845D01*
X33550845Y-8422855D01*
X33475616Y-8524788D01*
X33425849Y-8560381D01*
X33395961Y-8565000D01*
X33126876Y-8565000D01*
X33068685Y-8546093D01*
X33047222Y-8524790D01*
X33031930Y-8504070D01*
X32924179Y-8424545D01*
X32924176Y-8424544D01*
X32924175Y-8424543D01*
X32797777Y-8380315D01*
X32797776Y-8380314D01*
X32797774Y-8380314D01*
X32797771Y-8380313D01*
X32797768Y-8380313D01*
X32767773Y-8377500D01*
X32767764Y-8377500D01*
X31748236Y-8377500D01*
X31748226Y-8377500D01*
X31718231Y-8380313D01*
X31718222Y-8380315D01*
X31591824Y-8424543D01*
X31519632Y-8477824D01*
X31484070Y-8504070D01*
X31468777Y-8524789D01*
X31419011Y-8560381D01*
X31389124Y-8565000D01*
X30825500Y-8565000D01*
X30767309Y-8546093D01*
X30731345Y-8496593D01*
X30726500Y-8466000D01*
X30726499Y-7481854D01*
X31304001Y-7481854D01*
X31310373Y-7541139D01*
X31310374Y-7541144D01*
X31360391Y-7675247D01*
X31446165Y-7789826D01*
X31446173Y-7789834D01*
X31560752Y-7875608D01*
X31694852Y-7925624D01*
X31694863Y-7925626D01*
X31754148Y-7931999D01*
X32130997Y-7931999D01*
X32130998Y-7931998D01*
X32384999Y-7931998D01*
X32385000Y-7931999D01*
X32761849Y-7931999D01*
X32761854Y-7931998D01*
X32821139Y-7925626D01*
X32821144Y-7925625D01*
X32955247Y-7875608D01*
X33069826Y-7789834D01*
X33069834Y-7789826D01*
X33155608Y-7675247D01*
X33205624Y-7541147D01*
X33205626Y-7541136D01*
X33212000Y-7481851D01*
X33212000Y-7317501D01*
X33211999Y-7317500D01*
X32385001Y-7317500D01*
X32384999Y-7317501D01*
X32384999Y-7931998D01*
X32130998Y-7931998D01*
X32130999Y-7931997D01*
X32130999Y-7317500D01*
X31304002Y-7317500D01*
X31304001Y-7317501D01*
X31304001Y-7481854D01*
X30726499Y-7481854D01*
X30726499Y-7063498D01*
X31304000Y-7063498D01*
X31304001Y-7063500D01*
X32130999Y-7063500D01*
X32130999Y-6449001D01*
X32130998Y-6449000D01*
X32384999Y-6449000D01*
X32384999Y-7063498D01*
X32385001Y-7063500D01*
X33211998Y-7063500D01*
X33211999Y-7063499D01*
X33211999Y-6899151D01*
X33211998Y-6899145D01*
X33205626Y-6839860D01*
X33205625Y-6839855D01*
X33155608Y-6705752D01*
X33069834Y-6591173D01*
X33069826Y-6591165D01*
X33005767Y-6543210D01*
X33369001Y-6543210D01*
X33375452Y-6603231D01*
X33426102Y-6739027D01*
X33512950Y-6855044D01*
X33512955Y-6855049D01*
X33628972Y-6941897D01*
X33764767Y-6992547D01*
X33764765Y-6992547D01*
X33824792Y-6998999D01*
X34670998Y-6998999D01*
X34670999Y-6998998D01*
X34925000Y-6998998D01*
X34925001Y-6998999D01*
X35771205Y-6998999D01*
X35771210Y-6998998D01*
X35831231Y-6992547D01*
X35967027Y-6941897D01*
X36083044Y-6855049D01*
X36083049Y-6855044D01*
X36169897Y-6739027D01*
X36220547Y-6603233D01*
X36226999Y-6543207D01*
X36227000Y-6543207D01*
X36227000Y-6209500D01*
X34925001Y-6209500D01*
X34925000Y-6209501D01*
X34925000Y-6998998D01*
X34670999Y-6998998D01*
X34671000Y-6998997D01*
X34671000Y-6209501D01*
X34670999Y-6209500D01*
X33369002Y-6209500D01*
X33369001Y-6209501D01*
X33369001Y-6543210D01*
X33005767Y-6543210D01*
X32955247Y-6505391D01*
X32821147Y-6455375D01*
X32821136Y-6455373D01*
X32761851Y-6449000D01*
X32384999Y-6449000D01*
X32130998Y-6449000D01*
X31754151Y-6449000D01*
X31754145Y-6449001D01*
X31694860Y-6455373D01*
X31694855Y-6455374D01*
X31560752Y-6505391D01*
X31446173Y-6591165D01*
X31446165Y-6591173D01*
X31360391Y-6705752D01*
X31310375Y-6839852D01*
X31310373Y-6839863D01*
X31304000Y-6899148D01*
X31304000Y-7063498D01*
X30726499Y-7063498D01*
X30726499Y-6160457D01*
X30728762Y-6139410D01*
X30730359Y-6132073D01*
X30726626Y-6079880D01*
X30726500Y-6076347D01*
X30726500Y-6060201D01*
X30724198Y-6044196D01*
X30723825Y-6040729D01*
X30720091Y-5988517D01*
X30717468Y-5981484D01*
X30712233Y-5960975D01*
X30711446Y-5955498D01*
X33369000Y-5955498D01*
X33369001Y-5955500D01*
X34670999Y-5955500D01*
X34671000Y-5955499D01*
X34925000Y-5955499D01*
X34925001Y-5955500D01*
X36226998Y-5955500D01*
X36226999Y-5955498D01*
X36226999Y-5621795D01*
X36226998Y-5621789D01*
X36220547Y-5561768D01*
X36169897Y-5425972D01*
X36083049Y-5309955D01*
X36083044Y-5309950D01*
X35967027Y-5223102D01*
X35831232Y-5172452D01*
X35831234Y-5172452D01*
X35771207Y-5166000D01*
X34925001Y-5166000D01*
X34925000Y-5166001D01*
X34925000Y-5955499D01*
X34671000Y-5955499D01*
X34671000Y-5166001D01*
X34670999Y-5166000D01*
X33824795Y-5166000D01*
X33824789Y-5166001D01*
X33764768Y-5172452D01*
X33628972Y-5223102D01*
X33512955Y-5309950D01*
X33512950Y-5309955D01*
X33426102Y-5425972D01*
X33375452Y-5561766D01*
X33369000Y-5621792D01*
X33369000Y-5955498D01*
X30711446Y-5955498D01*
X30711165Y-5953543D01*
X30689425Y-5905941D01*
X30688077Y-5902685D01*
X30680150Y-5881432D01*
X30669796Y-5853669D01*
X30665291Y-5847651D01*
X30654495Y-5829454D01*
X30651377Y-5822627D01*
X30651375Y-5822625D01*
X30651375Y-5822624D01*
X30617124Y-5783097D01*
X30614906Y-5780345D01*
X30605222Y-5767409D01*
X30605221Y-5767407D01*
X30593796Y-5755982D01*
X30591387Y-5753394D01*
X30557129Y-5713857D01*
X30557127Y-5713856D01*
X30550810Y-5709796D01*
X30534332Y-5696518D01*
X28723496Y-3885682D01*
X28695719Y-3831165D01*
X28694500Y-3815678D01*
X28694500Y-2468672D01*
X28713407Y-2410481D01*
X28760800Y-2375229D01*
X28860179Y-2340455D01*
X28967930Y-2260930D01*
X29047455Y-2153179D01*
X29091686Y-2026774D01*
X29094499Y-1996772D01*
X29094500Y-1996770D01*
X29094500Y-1402230D01*
X29094499Y-1402226D01*
X29091686Y-1372231D01*
X29091686Y-1372226D01*
X29047455Y-1245821D01*
X28967930Y-1138070D01*
X28860179Y-1058545D01*
X28860176Y-1058544D01*
X28860175Y-1058543D01*
X28733777Y-1014315D01*
X28733776Y-1014314D01*
X28733774Y-1014314D01*
X28733771Y-1014313D01*
X28733768Y-1014313D01*
X28703773Y-1011500D01*
X28703764Y-1011500D01*
X27812399Y-1011500D01*
X27754208Y-992593D01*
X27718244Y-943093D01*
X27718244Y-881907D01*
X27742396Y-842496D01*
X28043397Y-541496D01*
X28097913Y-513719D01*
X28113400Y-512500D01*
X28703770Y-512500D01*
X28703772Y-512499D01*
X28733774Y-509686D01*
X28860179Y-465455D01*
X28967930Y-385930D01*
X29047455Y-278179D01*
X29091686Y-151774D01*
X29094499Y-121772D01*
X29094500Y-121770D01*
X29094500Y0D01*
X56954675Y0D01*
X56973962Y-392591D01*
X56973962Y-392596D01*
X56973963Y-392601D01*
X56973963Y-392604D01*
X57031635Y-781399D01*
X57031635Y-781400D01*
X57127141Y-1162681D01*
X57212856Y-1402236D01*
X57258713Y-1530400D01*
X57259561Y-1532768D01*
X57259565Y-1532779D01*
X57427621Y-1888103D01*
X57629687Y-2225229D01*
X57629692Y-2225236D01*
X57629694Y-2225239D01*
X57863842Y-2540951D01*
X57863843Y-2540952D01*
X57863849Y-2540959D01*
X58121073Y-2824762D01*
X58127808Y-2832192D01*
X58127818Y-2832201D01*
X58127822Y-2832205D01*
X58403725Y-3082269D01*
X58419049Y-3096158D01*
X58734761Y-3330306D01*
X58734765Y-3330308D01*
X58734770Y-3330312D01*
X59071896Y-3532378D01*
X59218924Y-3601917D01*
X59427228Y-3700438D01*
X59717566Y-3804322D01*
X59797318Y-3832858D01*
X60178599Y-3928364D01*
X60335183Y-3951590D01*
X60567409Y-3986038D01*
X60960000Y-4005325D01*
X61352591Y-3986038D01*
X61741400Y-3928364D01*
X62122681Y-3832858D01*
X62170696Y-3815678D01*
X62492772Y-3700438D01*
X62848097Y-3532381D01*
X62848098Y-3532380D01*
X62848103Y-3532378D01*
X63185229Y-3330312D01*
X63185229Y-3330311D01*
X63185239Y-3330306D01*
X63500951Y-3096158D01*
X63792192Y-2832192D01*
X64056158Y-2540951D01*
X64290306Y-2225239D01*
X64333497Y-2153179D01*
X64492378Y-1888103D01*
X64497580Y-1877104D01*
X64660438Y-1532772D01*
X64792857Y-1162684D01*
X64796451Y-1148338D01*
X64888364Y-781400D01*
X64888364Y-781399D01*
X64919500Y-571500D01*
X64946038Y-392591D01*
X64965325Y0D01*
X64946038Y392591D01*
X64888364Y781400D01*
X64809949Y1094450D01*
X64792858Y1162681D01*
X64763859Y1243728D01*
X64660438Y1532772D01*
X64492381Y1888097D01*
X64492380Y1888098D01*
X64492378Y1888103D01*
X64290312Y2225229D01*
X64290311Y2225229D01*
X64290306Y2225239D01*
X64056158Y2540951D01*
X63792192Y2832192D01*
X63500951Y3096158D01*
X63185239Y3330306D01*
X63185229Y3330312D01*
X62848103Y3532378D01*
X62848097Y3532381D01*
X62492772Y3700438D01*
X62122684Y3832857D01*
X62122683Y3832857D01*
X62122681Y3832858D01*
X61741400Y3928364D01*
X61352591Y3986038D01*
X60960000Y4005325D01*
X60567409Y3986038D01*
X60567396Y3986036D01*
X60567395Y3986036D01*
X60178600Y3928364D01*
X60178599Y3928364D01*
X59797318Y3832858D01*
X59719803Y3805122D01*
X59427228Y3700438D01*
X59427220Y3700434D01*
X59071896Y3532378D01*
X58734770Y3330312D01*
X58734765Y3330308D01*
X58734761Y3330306D01*
X58419049Y3096158D01*
X58419047Y3096156D01*
X58419040Y3096150D01*
X58188146Y2886879D01*
X58127808Y2832192D01*
X58127798Y2832181D01*
X58127794Y2832177D01*
X57985350Y2675014D01*
X57863842Y2540951D01*
X57630259Y2226000D01*
X57629687Y2225229D01*
X57427621Y1888103D01*
X57259565Y1532779D01*
X57259561Y1532768D01*
X57127141Y1162681D01*
X57031635Y781400D01*
X57031635Y781399D01*
X56973963Y392604D01*
X56973963Y392601D01*
X56973962Y392591D01*
X56954675Y0D01*
X29094500Y0D01*
X29094500Y472770D01*
X29094499Y472773D01*
X29091686Y502774D01*
X29047455Y629179D01*
X28967930Y736930D01*
X28860179Y816455D01*
X28733774Y860686D01*
X28703772Y863499D01*
X28703770Y863500D01*
X28703764Y863500D01*
X27684236Y863500D01*
X27684230Y863500D01*
X27684226Y863499D01*
X27654226Y860686D01*
X27527821Y816455D01*
X27420070Y736930D01*
X27340545Y629179D01*
X27340544Y629176D01*
X27340543Y629175D01*
X27296315Y502777D01*
X27296313Y502768D01*
X27293500Y472773D01*
X27293500Y-117598D01*
X27274593Y-175789D01*
X27264504Y-187602D01*
X26253076Y-1199030D01*
X26198559Y-1226807D01*
X26138127Y-1217236D01*
X26094862Y-1173971D01*
X26085975Y-1148343D01*
X26084867Y-1142769D01*
X26084866Y-1142767D01*
X26083680Y-1139904D01*
X26083276Y-1134773D01*
X26082964Y-1133204D01*
X26083149Y-1133167D01*
X26078878Y-1078907D01*
X26110842Y-1026743D01*
X26281224Y-881224D01*
X26444836Y-689659D01*
X26576466Y-474859D01*
X26672873Y-242111D01*
X26731683Y2852D01*
X26751449Y254000D01*
X26731683Y505148D01*
X26672873Y750111D01*
X26576466Y982859D01*
X26444836Y1197659D01*
X26281224Y1389224D01*
X26152807Y1498902D01*
X26120838Y1551069D01*
X26125639Y1612066D01*
X26134789Y1629185D01*
X26135263Y1629894D01*
X26149999Y1703980D01*
X26150000Y1703983D01*
X26150000Y2126998D01*
X26149999Y2127000D01*
X25118000Y2127000D01*
X25059809Y2145907D01*
X25023845Y2195407D01*
X25019000Y2226000D01*
X25019000Y2381000D01*
X25273000Y2381000D01*
X26149998Y2381000D01*
X26149999Y2381001D01*
X26149999Y2804012D01*
X26149998Y2804022D01*
X26135263Y2878104D01*
X26135262Y2878107D01*
X26079125Y2962121D01*
X26079121Y2962125D01*
X25995106Y3018263D01*
X25921018Y3032999D01*
X25273001Y3032999D01*
X25273000Y3032998D01*
X25273000Y2381000D01*
X25019000Y2381000D01*
X25019000Y3032998D01*
X25018999Y3032999D01*
X24370988Y3032999D01*
X24370977Y3032998D01*
X24296895Y3018263D01*
X24296892Y3018262D01*
X24220412Y2967159D01*
X24161524Y2950550D01*
X24104120Y2971727D01*
X24095729Y2979150D01*
X24094022Y2980839D01*
X24094018Y2980846D01*
X24002606Y3041312D01*
X23895013Y3062194D01*
X23787620Y3040312D01*
X23754949Y3018262D01*
X23719704Y2994475D01*
X23689441Y2963929D01*
X23635054Y2935898D01*
X23574578Y2945188D01*
X23547421Y2965332D01*
X23515774Y2998562D01*
X23515772Y2998563D01*
X23515768Y2998568D01*
X23448770Y3045737D01*
X23341829Y3069733D01*
X23233845Y3050979D01*
X23141258Y2992328D01*
X23078163Y2902710D01*
X23075654Y2891528D01*
X23054167Y2795772D01*
X23054167Y2795768D01*
X23072921Y2687785D01*
X23076432Y2678689D01*
X23074661Y2678005D01*
X23086805Y2630518D01*
X23070811Y2582569D01*
X23066896Y2576595D01*
X23046473Y2468912D01*
X23046474Y2468909D01*
X23068814Y2361613D01*
X23130516Y2271031D01*
X23222185Y2210956D01*
X23302686Y2195689D01*
X23302687Y2195689D01*
X23302688Y2195689D01*
X23345246Y2196068D01*
X23576207Y2198130D01*
X23598762Y2195733D01*
X23632930Y2188067D01*
X23632931Y2188067D01*
X23689123Y2197826D01*
X23705179Y2199282D01*
X23925906Y2201252D01*
X23925919Y2201253D01*
X24015674Y2219942D01*
X24016035Y2218207D01*
X24065251Y2222523D01*
X24117703Y2191021D01*
X24141622Y2134704D01*
X24142000Y2126056D01*
X24142000Y1703986D01*
X24142001Y1703977D01*
X24156736Y1629895D01*
X24156738Y1629889D01*
X24157217Y1629174D01*
X24157604Y1627801D01*
X24160468Y1620887D01*
X24159648Y1620547D01*
X24173819Y1570284D01*
X24152636Y1512883D01*
X24139191Y1498901D01*
X24019881Y1397000D01*
X24010776Y1389224D01*
X24010770Y1389217D01*
X24010767Y1389214D01*
X23847168Y1197664D01*
X23847162Y1197656D01*
X23715535Y982862D01*
X23715532Y982856D01*
X23619127Y750113D01*
X23560316Y505146D01*
X23540551Y254000D01*
X23560316Y2853D01*
X23619127Y-242113D01*
X23715532Y-474856D01*
X23715535Y-474862D01*
X23847162Y-689656D01*
X23847168Y-689664D01*
X23985621Y-851772D01*
X24010776Y-881224D01*
X24010782Y-881229D01*
X24010785Y-881232D01*
X24181150Y-1026738D01*
X24213120Y-1078907D01*
X24208851Y-1133170D01*
X24209035Y-1133207D01*
X24208727Y-1134753D01*
X24208323Y-1139895D01*
X24207132Y-1142769D01*
X24195501Y-1201241D01*
X24195500Y-1201253D01*
X24195500Y-2290746D01*
X24195501Y-2290758D01*
X24207132Y-2349227D01*
X24207134Y-2349233D01*
X24249270Y-2412293D01*
X24251448Y-2415552D01*
X24317769Y-2459867D01*
X24362035Y-2468672D01*
X24376241Y-2471498D01*
X24376246Y-2471498D01*
X24376252Y-2471500D01*
X24376253Y-2471500D01*
X25915747Y-2471500D01*
X25915748Y-2471500D01*
X25974231Y-2459867D01*
X26040552Y-2415552D01*
X26084867Y-2349231D01*
X26096500Y-2290748D01*
X26096500Y-2245500D01*
X26115407Y-2187309D01*
X26164907Y-2151345D01*
X26195500Y-2146500D01*
X26335932Y-2146500D01*
X26335933Y-2146500D01*
X26358882Y-2139043D01*
X26373965Y-2135421D01*
X26397804Y-2131646D01*
X26419302Y-2120690D01*
X26433651Y-2114748D01*
X26456590Y-2107296D01*
X26476112Y-2093111D01*
X26489349Y-2085000D01*
X26510842Y-2074050D01*
X26527761Y-2057129D01*
X26527767Y-2057125D01*
X26533407Y-2051485D01*
X26533409Y-2051484D01*
X27124496Y-1460395D01*
X27179013Y-1432619D01*
X27239445Y-1442190D01*
X27282710Y-1485455D01*
X27293500Y-1530400D01*
X27293500Y-1996773D01*
X27296313Y-2026768D01*
X27296315Y-2026777D01*
X27340543Y-2153175D01*
X27340544Y-2153176D01*
X27340545Y-2153179D01*
X27420070Y-2260930D01*
X27527821Y-2340455D01*
X27627199Y-2375229D01*
X27675878Y-2412293D01*
X27693500Y-2468672D01*
X27693500Y-3464500D01*
X27674593Y-3522691D01*
X27625093Y-3558655D01*
X27594500Y-3563500D01*
X22201456Y-3563500D01*
X22180410Y-3561237D01*
X22173074Y-3559641D01*
X22173073Y-3559641D01*
X22156813Y-3560804D01*
X22120881Y-3563374D01*
X22117348Y-3563500D01*
X22101200Y-3563500D01*
X22085212Y-3565798D01*
X22081700Y-3566176D01*
X22029517Y-3569908D01*
X22022471Y-3572536D01*
X22001985Y-3577764D01*
X21994547Y-3578834D01*
X21994544Y-3578834D01*
X21994543Y-3578835D01*
X21994542Y-3578835D01*
X21994540Y-3578836D01*
X21946959Y-3600565D01*
X21943695Y-3601917D01*
X21894671Y-3620202D01*
X21894669Y-3620203D01*
X21888646Y-3624712D01*
X21870463Y-3635500D01*
X21863626Y-3638622D01*
X21824097Y-3672874D01*
X21821348Y-3675089D01*
X21808407Y-3684778D01*
X21796986Y-3696199D01*
X21794401Y-3698606D01*
X21754859Y-3732868D01*
X21754856Y-3732872D01*
X21750793Y-3739194D01*
X21737519Y-3755665D01*
X20604682Y-4888504D01*
X20550165Y-4916281D01*
X20534678Y-4917500D01*
X20482500Y-4917500D01*
X20424309Y-4898593D01*
X20388345Y-4849093D01*
X20383500Y-4818500D01*
X20383500Y-4773253D01*
X20383498Y-4773241D01*
X20380711Y-4759231D01*
X20371867Y-4714769D01*
X20327552Y-4648448D01*
X20327548Y-4648445D01*
X20261233Y-4604134D01*
X20261231Y-4604133D01*
X20261228Y-4604132D01*
X20261227Y-4604132D01*
X20202758Y-4592501D01*
X20202748Y-4592500D01*
X18913252Y-4592500D01*
X18913251Y-4592500D01*
X18913241Y-4592501D01*
X18854772Y-4604132D01*
X18854766Y-4604134D01*
X18788451Y-4648445D01*
X18788445Y-4648451D01*
X18744134Y-4714766D01*
X18744132Y-4714772D01*
X18732501Y-4773241D01*
X18732500Y-4773253D01*
X18732500Y-4818500D01*
X18713593Y-4876691D01*
X18664093Y-4912655D01*
X18633500Y-4917500D01*
X18581322Y-4917500D01*
X18523131Y-4898593D01*
X18511318Y-4888504D01*
X18309496Y-4686682D01*
X18281719Y-4632165D01*
X18280500Y-4616678D01*
X18280500Y-3620456D01*
X18282763Y-3599408D01*
X18283239Y-3597220D01*
X18284359Y-3592073D01*
X18280626Y-3539880D01*
X18280500Y-3536347D01*
X18280500Y-3520201D01*
X18279530Y-3513455D01*
X18278198Y-3504196D01*
X18277825Y-3500729D01*
X18276494Y-3482121D01*
X18291203Y-3422732D01*
X18338013Y-3383330D01*
X18399042Y-3378966D01*
X18445246Y-3405059D01*
X18566517Y-3526330D01*
X18579797Y-3542811D01*
X18583856Y-3549127D01*
X18583857Y-3549128D01*
X18623393Y-3583386D01*
X18625980Y-3585794D01*
X18632260Y-3592073D01*
X18637407Y-3597220D01*
X18650344Y-3606904D01*
X18653071Y-3609102D01*
X18677862Y-3630583D01*
X18697979Y-3648015D01*
X18695789Y-3650541D01*
X18725692Y-3686982D01*
X18732500Y-3723059D01*
X18732500Y-3862746D01*
X18732501Y-3862758D01*
X18744132Y-3921227D01*
X18744133Y-3921231D01*
X18788448Y-3987552D01*
X18854769Y-4031867D01*
X18899231Y-4040711D01*
X18913241Y-4043498D01*
X18913246Y-4043498D01*
X18913252Y-4043500D01*
X18913253Y-4043500D01*
X20202747Y-4043500D01*
X20202748Y-4043500D01*
X20261231Y-4031867D01*
X20327552Y-3987552D01*
X20371867Y-3921231D01*
X20383500Y-3862748D01*
X20383500Y-2573252D01*
X20371867Y-2514769D01*
X20327552Y-2448448D01*
X20327548Y-2448445D01*
X20261233Y-2404134D01*
X20261231Y-2404133D01*
X20261228Y-2404132D01*
X20261227Y-2404132D01*
X20202758Y-2392501D01*
X20202748Y-2392500D01*
X18913252Y-2392500D01*
X18913246Y-2392500D01*
X18910982Y-2392951D01*
X18909933Y-2392826D01*
X18908408Y-2392977D01*
X18908375Y-2392642D01*
X18850221Y-2385756D01*
X18821669Y-2365856D01*
X18603317Y-2147504D01*
X18575540Y-2092987D01*
X18585111Y-2032555D01*
X18628376Y-1989290D01*
X18673321Y-1978500D01*
X20085747Y-1978500D01*
X20085748Y-1978500D01*
X20144231Y-1966867D01*
X20210552Y-1922552D01*
X20254867Y-1856231D01*
X20266500Y-1797748D01*
X20266500Y-888998D01*
X20828000Y-888998D01*
X20828001Y-889000D01*
X21417056Y-889000D01*
X21395736Y-982407D01*
X21405749Y-1116028D01*
X21416335Y-1143000D01*
X20828001Y-1143000D01*
X20828001Y-1803022D01*
X20842736Y-1877104D01*
X20842737Y-1877107D01*
X20898874Y-1961121D01*
X20898878Y-1961125D01*
X20982893Y-2017263D01*
X21056981Y-2031999D01*
X21716998Y-2031999D01*
X21717000Y-2031998D01*
X21717000Y-1441991D01*
X21777002Y-1460500D01*
X21877312Y-1460500D01*
X21971000Y-1446378D01*
X21971000Y-2031998D01*
X21971001Y-2031999D01*
X22631012Y-2031999D01*
X22631022Y-2031998D01*
X22705104Y-2017263D01*
X22705107Y-2017262D01*
X22789121Y-1961125D01*
X22789125Y-1961121D01*
X22845263Y-1877106D01*
X22859999Y-1803019D01*
X22860000Y-1803016D01*
X22860000Y-1143000D01*
X22270944Y-1143000D01*
X22292264Y-1049593D01*
X22282251Y-915972D01*
X22271665Y-889000D01*
X22859998Y-889000D01*
X22859999Y-888999D01*
X22859999Y-228987D01*
X22859998Y-228977D01*
X22845263Y-154895D01*
X22845262Y-154892D01*
X22789125Y-70878D01*
X22789121Y-70874D01*
X22705106Y-14736D01*
X22631019Y0D01*
X21971000Y0D01*
X21971000Y-590008D01*
X21910998Y-571500D01*
X21810688Y-571500D01*
X21717000Y-585621D01*
X21717000Y-1D01*
X21716999Y0D01*
X21056986Y0D01*
X21056977Y-1D01*
X20982895Y-14736D01*
X20982892Y-14737D01*
X20898878Y-70874D01*
X20898874Y-70878D01*
X20842736Y-154893D01*
X20828000Y-228980D01*
X20828000Y-888998D01*
X20266500Y-888998D01*
X20266500Y-234252D01*
X20254867Y-175769D01*
X20210552Y-109448D01*
X20152823Y-70874D01*
X20144233Y-65134D01*
X20144231Y-65133D01*
X20144228Y-65132D01*
X20144227Y-65132D01*
X20085758Y-53501D01*
X20085748Y-53500D01*
X20085747Y-53500D01*
X19803500Y-53500D01*
X19745309Y-34593D01*
X19709345Y14907D01*
X19704500Y45500D01*
X19704500Y462500D01*
X19723407Y520691D01*
X19772907Y556655D01*
X19803500Y561500D01*
X20085747Y561500D01*
X20085748Y561500D01*
X20085758Y561501D01*
X20144227Y573132D01*
X20144228Y573132D01*
X20144231Y573133D01*
X20144233Y573134D01*
X20210548Y617445D01*
X20210552Y617448D01*
X20254867Y683769D01*
X20265441Y736928D01*
X20266498Y742241D01*
X20266500Y742253D01*
X20266500Y1651001D01*
X20828000Y1651001D01*
X20828001Y1651000D01*
X21417056Y1651000D01*
X21395736Y1557593D01*
X21405749Y1423972D01*
X21416335Y1397000D01*
X20828002Y1397000D01*
X20828001Y1396998D01*
X20828001Y736977D01*
X20842736Y662895D01*
X20842737Y662892D01*
X20898874Y578878D01*
X20898878Y578874D01*
X20982893Y522736D01*
X21056980Y508000D01*
X21716999Y508000D01*
X21717000Y508001D01*
X21717000Y1098008D01*
X21777002Y1079500D01*
X21877312Y1079500D01*
X21971000Y1093621D01*
X21971000Y508000D01*
X22631013Y508000D01*
X22631022Y508001D01*
X22705104Y522736D01*
X22705107Y522737D01*
X22789121Y578874D01*
X22789125Y578878D01*
X22845263Y662893D01*
X22859999Y736980D01*
X22860000Y736983D01*
X22860000Y1396999D01*
X22859999Y1397000D01*
X22270944Y1397000D01*
X22292264Y1490407D01*
X22282251Y1624028D01*
X22271665Y1651000D01*
X22859998Y1651000D01*
X22859999Y1651001D01*
X22859999Y2311012D01*
X22859998Y2311022D01*
X22845263Y2385104D01*
X22845262Y2385107D01*
X22789125Y2469121D01*
X22789121Y2469125D01*
X22705106Y2525263D01*
X22631018Y2539999D01*
X21971001Y2539999D01*
X21971000Y2539998D01*
X21971000Y1949991D01*
X21910998Y1968500D01*
X21810688Y1968500D01*
X21717000Y1954378D01*
X21717000Y2539998D01*
X21716999Y2539999D01*
X21056988Y2539999D01*
X21056977Y2539998D01*
X20982895Y2525263D01*
X20982892Y2525262D01*
X20898878Y2469125D01*
X20898874Y2469121D01*
X20842736Y2385106D01*
X20828000Y2311019D01*
X20828000Y1651001D01*
X20266500Y1651001D01*
X20266500Y2305746D01*
X20266498Y2305758D01*
X20265453Y2311012D01*
X20254867Y2364231D01*
X20210552Y2430552D01*
X20144231Y2474867D01*
X20085748Y2486500D01*
X20085747Y2486500D01*
X19803500Y2486500D01*
X19745309Y2505407D01*
X19709345Y2554907D01*
X19704500Y2585500D01*
X19704500Y2812572D01*
X19723407Y2870763D01*
X19772907Y2906727D01*
X19794252Y2911139D01*
X19806769Y2912313D01*
X19806772Y2912313D01*
X19806774Y2912314D01*
X19807974Y2912734D01*
X19933175Y2956543D01*
X19933176Y2956544D01*
X19933179Y2956545D01*
X20040930Y3036070D01*
X20120455Y3143821D01*
X20164686Y3270226D01*
X20167499Y3300226D01*
X20167500Y3300230D01*
X20167500Y4319770D01*
X20167499Y4319773D01*
X20164686Y4349774D01*
X20120455Y4476179D01*
X20052900Y4567712D01*
X20033558Y4625759D01*
X20052029Y4684090D01*
X20101259Y4720423D01*
X20132555Y4725500D01*
X65586500Y4725500D01*
X65644691Y4706593D01*
G37*
%TD.AperFunction*%
%TA.AperFunction,Conductor*%
G36*
X13453636Y4706593D02*
G01*
X13489600Y4657093D01*
X13489600Y4595907D01*
X13475100Y4567712D01*
X13407545Y4476179D01*
X13407545Y4476178D01*
X13407544Y4476176D01*
X13363315Y4349777D01*
X13363313Y4349768D01*
X13360500Y4319773D01*
X13360500Y3300226D01*
X13363313Y3270231D01*
X13363315Y3270222D01*
X13407543Y3143824D01*
X13407544Y3143821D01*
X13407545Y3143821D01*
X13442722Y3096158D01*
X13487069Y3036071D01*
X13487071Y3036069D01*
X13537883Y2998568D01*
X13587260Y2962125D01*
X13594824Y2956543D01*
X13721222Y2912315D01*
X13721230Y2912313D01*
X13733748Y2911139D01*
X13789918Y2886879D01*
X13821101Y2834236D01*
X13823500Y2812572D01*
X13823500Y2585500D01*
X13804593Y2527309D01*
X13755093Y2491345D01*
X13724500Y2486500D01*
X13442252Y2486500D01*
X13442246Y2486498D01*
X13442241Y2486498D01*
X13428231Y2483711D01*
X13383769Y2474867D01*
X13317448Y2430552D01*
X13317445Y2430548D01*
X13273134Y2364233D01*
X13273132Y2364227D01*
X13261501Y2305758D01*
X13261500Y2305746D01*
X13261500Y742253D01*
X13261501Y742241D01*
X13273132Y683772D01*
X13273134Y683766D01*
X13317445Y617451D01*
X13317451Y617445D01*
X13383766Y573134D01*
X13383772Y573132D01*
X13442241Y561501D01*
X13442251Y561500D01*
X13442252Y561500D01*
X13724500Y561500D01*
X13782691Y542593D01*
X13818655Y493093D01*
X13823500Y462500D01*
X13823500Y45500D01*
X13804593Y-12691D01*
X13755093Y-48655D01*
X13724500Y-53500D01*
X13442252Y-53500D01*
X13442251Y-53500D01*
X13442241Y-53501D01*
X13383772Y-65132D01*
X13383766Y-65134D01*
X13317451Y-109445D01*
X13317445Y-109451D01*
X13273134Y-175766D01*
X13273132Y-175772D01*
X13261501Y-234241D01*
X13261500Y-234253D01*
X13261500Y-1797746D01*
X13261501Y-1797758D01*
X13273132Y-1856227D01*
X13273134Y-1856233D01*
X13317445Y-1922548D01*
X13317448Y-1922552D01*
X13383769Y-1966867D01*
X13428231Y-1975711D01*
X13442241Y-1978498D01*
X13442246Y-1978498D01*
X13442252Y-1978500D01*
X13442253Y-1978500D01*
X15005747Y-1978500D01*
X15005748Y-1978500D01*
X15064231Y-1966867D01*
X15130552Y-1922552D01*
X15174867Y-1856231D01*
X15186500Y-1797748D01*
X15186500Y-234252D01*
X15174867Y-175769D01*
X15130552Y-109448D01*
X15072823Y-70874D01*
X15064233Y-65134D01*
X15064231Y-65133D01*
X15064228Y-65132D01*
X15064227Y-65132D01*
X15005758Y-53501D01*
X15005748Y-53500D01*
X15005747Y-53500D01*
X14723500Y-53500D01*
X14665309Y-34593D01*
X14629345Y14907D01*
X14624500Y45500D01*
X14624500Y462500D01*
X14643407Y520691D01*
X14692907Y556655D01*
X14723500Y561500D01*
X15005747Y561500D01*
X15005748Y561500D01*
X15005758Y561501D01*
X15064227Y573132D01*
X15064228Y573132D01*
X15064231Y573133D01*
X15064233Y573134D01*
X15130548Y617445D01*
X15130552Y617448D01*
X15174867Y683769D01*
X15185441Y736928D01*
X15186498Y742241D01*
X15186500Y742253D01*
X15186500Y2305746D01*
X15186498Y2305758D01*
X15185453Y2311012D01*
X15174867Y2364231D01*
X15130552Y2430552D01*
X15064231Y2474867D01*
X15005748Y2486500D01*
X15005747Y2486500D01*
X14723500Y2486500D01*
X14665309Y2505407D01*
X14629345Y2554907D01*
X14624500Y2585500D01*
X14624500Y3023233D01*
X14643407Y3081424D01*
X14643845Y3082021D01*
X14689454Y3143819D01*
X14689456Y3143824D01*
X14733686Y3270226D01*
X14736499Y3300226D01*
X14736500Y3300230D01*
X14736500Y4319770D01*
X14736499Y4319773D01*
X14733686Y4349774D01*
X14689455Y4476179D01*
X14621900Y4567712D01*
X14602558Y4625759D01*
X14621029Y4684090D01*
X14670259Y4720423D01*
X14701555Y4725500D01*
X15270445Y4725500D01*
X15328636Y4706593D01*
X15364600Y4657093D01*
X15364600Y4595907D01*
X15350100Y4567712D01*
X15282545Y4476179D01*
X15282545Y4476178D01*
X15282544Y4476176D01*
X15238315Y4349777D01*
X15238313Y4349768D01*
X15235500Y4319773D01*
X15235500Y3300226D01*
X15238313Y3270231D01*
X15238315Y3270222D01*
X15282543Y3143824D01*
X15282544Y3143821D01*
X15282545Y3143821D01*
X15317722Y3096158D01*
X15362069Y3036071D01*
X15362071Y3036069D01*
X15412883Y2998568D01*
X15462260Y2962125D01*
X15469824Y2956543D01*
X15596222Y2912315D01*
X15596225Y2912314D01*
X15596226Y2912314D01*
X15596226Y2912313D01*
X15596231Y2912313D01*
X15626226Y2909500D01*
X15626236Y2909500D01*
X16220773Y2909500D01*
X16255256Y2912734D01*
X16314958Y2899343D01*
X16355387Y2853417D01*
X16363500Y2814167D01*
X16363500Y2585500D01*
X16344593Y2527309D01*
X16295093Y2491345D01*
X16264500Y2486500D01*
X15982252Y2486500D01*
X15982246Y2486498D01*
X15982241Y2486498D01*
X15968231Y2483711D01*
X15923769Y2474867D01*
X15857448Y2430552D01*
X15857445Y2430548D01*
X15813134Y2364233D01*
X15813132Y2364227D01*
X15801501Y2305758D01*
X15801500Y2305746D01*
X15801500Y742253D01*
X15801501Y742241D01*
X15813132Y683772D01*
X15813134Y683766D01*
X15857445Y617451D01*
X15857451Y617445D01*
X15923766Y573134D01*
X15923772Y573132D01*
X15982241Y561501D01*
X15982251Y561500D01*
X15982252Y561500D01*
X16164500Y561500D01*
X16222691Y542593D01*
X16258655Y493093D01*
X16263500Y462500D01*
X16263500Y45500D01*
X16244593Y-12691D01*
X16195093Y-48655D01*
X16164500Y-53500D01*
X15982252Y-53500D01*
X15982251Y-53500D01*
X15982241Y-53501D01*
X15923772Y-65132D01*
X15923766Y-65134D01*
X15857451Y-109445D01*
X15857445Y-109451D01*
X15813134Y-175766D01*
X15813132Y-175772D01*
X15801501Y-234241D01*
X15801500Y-234253D01*
X15801500Y-1797746D01*
X15801501Y-1797758D01*
X15813132Y-1856227D01*
X15813134Y-1856233D01*
X15857445Y-1922548D01*
X15857448Y-1922552D01*
X15923769Y-1966867D01*
X15968231Y-1975711D01*
X15982241Y-1978498D01*
X15982246Y-1978498D01*
X15982252Y-1978500D01*
X16977678Y-1978500D01*
X17035869Y-1997407D01*
X17047682Y-2007496D01*
X17247438Y-2207252D01*
X17275215Y-2261769D01*
X17265644Y-2322201D01*
X17222379Y-2365466D01*
X17170372Y-2376004D01*
X17151802Y-2374676D01*
X17148289Y-2374298D01*
X17132300Y-2372000D01*
X17132299Y-2372000D01*
X17124876Y-2372000D01*
X17066685Y-2353093D01*
X17045221Y-2331789D01*
X17038145Y-2322201D01*
X17029930Y-2311070D01*
X16922179Y-2231545D01*
X16922176Y-2231544D01*
X16922175Y-2231543D01*
X16795777Y-2187315D01*
X16795776Y-2187314D01*
X16795774Y-2187314D01*
X16795771Y-2187313D01*
X16795768Y-2187313D01*
X16765773Y-2184500D01*
X16765764Y-2184500D01*
X15746236Y-2184500D01*
X15746226Y-2184500D01*
X15716231Y-2187313D01*
X15716222Y-2187315D01*
X15589824Y-2231543D01*
X15509608Y-2290746D01*
X15482070Y-2311070D01*
X15466777Y-2331789D01*
X15417011Y-2367381D01*
X15387124Y-2372000D01*
X15092876Y-2372000D01*
X15034685Y-2353093D01*
X15013222Y-2331790D01*
X14997930Y-2311070D01*
X14890179Y-2231545D01*
X14890176Y-2231544D01*
X14890175Y-2231543D01*
X14763777Y-2187315D01*
X14763776Y-2187314D01*
X14763774Y-2187314D01*
X14763771Y-2187313D01*
X14763768Y-2187313D01*
X14733773Y-2184500D01*
X14733764Y-2184500D01*
X13714236Y-2184500D01*
X13714226Y-2184500D01*
X13684231Y-2187313D01*
X13684222Y-2187315D01*
X13557824Y-2231543D01*
X13450071Y-2311069D01*
X13450069Y-2311071D01*
X13408510Y-2367381D01*
X13377202Y-2409802D01*
X13370543Y-2418824D01*
X13326315Y-2545222D01*
X13326313Y-2545231D01*
X13323500Y-2575226D01*
X13323500Y-2623000D01*
X13304593Y-2681191D01*
X13255093Y-2717155D01*
X13224500Y-2722000D01*
X13044664Y-2722000D01*
X13030988Y-2719767D01*
X13030817Y-2720994D01*
X13021733Y-2719726D01*
X12981386Y-2721592D01*
X12973706Y-2721947D01*
X12971430Y-2722000D01*
X12951653Y-2722000D01*
X12948158Y-2722653D01*
X12941345Y-2723443D01*
X12909510Y-2724914D01*
X12909506Y-2724915D01*
X12900515Y-2728885D01*
X12878727Y-2735632D01*
X12869070Y-2737437D01*
X12869064Y-2737439D01*
X12841966Y-2754217D01*
X12835899Y-2757415D01*
X12806737Y-2770292D01*
X12806733Y-2770295D01*
X12799784Y-2777244D01*
X12781909Y-2791403D01*
X12773548Y-2796580D01*
X12754339Y-2822015D01*
X12749835Y-2827192D01*
X12589599Y-2987428D01*
X12535082Y-3015205D01*
X12474650Y-3005634D01*
X12464607Y-2999748D01*
X12422531Y-2971633D01*
X12422528Y-2971632D01*
X12422527Y-2971632D01*
X12364058Y-2960001D01*
X12364048Y-2960000D01*
X10724552Y-2960000D01*
X10724551Y-2960000D01*
X10724541Y-2960001D01*
X10666072Y-2971632D01*
X10666066Y-2971634D01*
X10599751Y-3015945D01*
X10599745Y-3015951D01*
X10555434Y-3082266D01*
X10555432Y-3082272D01*
X10543801Y-3140741D01*
X10543800Y-3140753D01*
X10543800Y-3590244D01*
X10544277Y-3595089D01*
X10542220Y-3595291D01*
X10535965Y-3647923D01*
X10528396Y-3661432D01*
X10505036Y-3696394D01*
X10490300Y-3770480D01*
X10490300Y-3873498D01*
X10490301Y-3873500D01*
X12598298Y-3873500D01*
X12598299Y-3873499D01*
X12598299Y-3765621D01*
X12599955Y-3765621D01*
X12611590Y-3712574D01*
X12657323Y-3671928D01*
X12692432Y-3663734D01*
X12706492Y-3663085D01*
X12715476Y-3659117D01*
X12737277Y-3652365D01*
X12746933Y-3650561D01*
X12774043Y-3633774D01*
X12780089Y-3630588D01*
X12809265Y-3617706D01*
X12816209Y-3610760D01*
X12834101Y-3596589D01*
X12842452Y-3591419D01*
X12861668Y-3565970D01*
X12866158Y-3560811D01*
X13074974Y-3351996D01*
X13129491Y-3324219D01*
X13144978Y-3323000D01*
X13318222Y-3323000D01*
X13376413Y-3341907D01*
X13397874Y-3363208D01*
X13450070Y-3433930D01*
X13557821Y-3513455D01*
X13684226Y-3557686D01*
X13714226Y-3560499D01*
X13714230Y-3560500D01*
X13714236Y-3560500D01*
X14733770Y-3560500D01*
X14733772Y-3560499D01*
X14763774Y-3557686D01*
X14890179Y-3513455D01*
X14997930Y-3433930D01*
X15013222Y-3413210D01*
X15062989Y-3377619D01*
X15092876Y-3373000D01*
X15387124Y-3373000D01*
X15445315Y-3391907D01*
X15466777Y-3413209D01*
X15482070Y-3433930D01*
X15589821Y-3513455D01*
X15716226Y-3557686D01*
X15746226Y-3560499D01*
X15746230Y-3560500D01*
X15746236Y-3560500D01*
X16765770Y-3560500D01*
X16765772Y-3560499D01*
X16795774Y-3557686D01*
X16922179Y-3513455D01*
X16922184Y-3513451D01*
X16927877Y-3510442D01*
X16988158Y-3499963D01*
X17043087Y-3526917D01*
X17044148Y-3527962D01*
X17250504Y-3734318D01*
X17278281Y-3788835D01*
X17279500Y-3804322D01*
X17279500Y-4133477D01*
X17260593Y-4191668D01*
X17211093Y-4227632D01*
X17149907Y-4227632D01*
X17101247Y-4192807D01*
X17067831Y-4148170D01*
X17067826Y-4148165D01*
X16953247Y-4062391D01*
X16819147Y-4012375D01*
X16819136Y-4012373D01*
X16759851Y-4006000D01*
X16383000Y-4006000D01*
X16383000Y-4775500D01*
X16364093Y-4833691D01*
X16314593Y-4869655D01*
X16284000Y-4874500D01*
X16228000Y-4874500D01*
X16169809Y-4855593D01*
X16133845Y-4806093D01*
X16129000Y-4775500D01*
X16128999Y-4006000D01*
X15752151Y-4006000D01*
X15752145Y-4006001D01*
X15692860Y-4012373D01*
X15692855Y-4012374D01*
X15558752Y-4062391D01*
X15444173Y-4148165D01*
X15444165Y-4148173D01*
X15358392Y-4262751D01*
X15332758Y-4331481D01*
X15294708Y-4379395D01*
X15235761Y-4395793D01*
X15178433Y-4374411D01*
X15147242Y-4331481D01*
X15121607Y-4262751D01*
X15035834Y-4148173D01*
X15035826Y-4148165D01*
X14921247Y-4062391D01*
X14787147Y-4012375D01*
X14787136Y-4012373D01*
X14727851Y-4006000D01*
X14351000Y-4006000D01*
X14351000Y-5488997D01*
X14351001Y-5488999D01*
X14727849Y-5488999D01*
X14727854Y-5488998D01*
X14787139Y-5482626D01*
X14787144Y-5482625D01*
X14921247Y-5432608D01*
X15035826Y-5346834D01*
X15035834Y-5346826D01*
X15121608Y-5232247D01*
X15147242Y-5163519D01*
X15185292Y-5115604D01*
X15244239Y-5099206D01*
X15301567Y-5120587D01*
X15332758Y-5163519D01*
X15358391Y-5232247D01*
X15444165Y-5346826D01*
X15444173Y-5346834D01*
X15558752Y-5432608D01*
X15692852Y-5482624D01*
X15692863Y-5482626D01*
X15752148Y-5488999D01*
X15980885Y-5488999D01*
X16039075Y-5507906D01*
X16075039Y-5557406D01*
X16075040Y-5618591D01*
X16039076Y-5668091D01*
X16015482Y-5680757D01*
X15946751Y-5706392D01*
X15832173Y-5792165D01*
X15832165Y-5792173D01*
X15746391Y-5906752D01*
X15696375Y-6040852D01*
X15696373Y-6040863D01*
X15690000Y-6100148D01*
X15690000Y-6476998D01*
X15690001Y-6477000D01*
X17172998Y-6477000D01*
X17172999Y-6476999D01*
X17172999Y-6422000D01*
X24784529Y-6422000D01*
X24804379Y-6661561D01*
X24804379Y-6661562D01*
X24862668Y-6891740D01*
X24863390Y-6894591D01*
X24909187Y-6998997D01*
X24959950Y-7114727D01*
X24959953Y-7114732D01*
X25091425Y-7315964D01*
X25091427Y-7315966D01*
X25091429Y-7315969D01*
X25254236Y-7492825D01*
X25443933Y-7640472D01*
X25508192Y-7675247D01*
X25649846Y-7751907D01*
X25655344Y-7754882D01*
X25882703Y-7832934D01*
X26119808Y-7872500D01*
X26360192Y-7872500D01*
X26597297Y-7832934D01*
X26824656Y-7754882D01*
X27036067Y-7640472D01*
X27225764Y-7492825D01*
X27388571Y-7315969D01*
X27520049Y-7114728D01*
X27616610Y-6894591D01*
X27675620Y-6661563D01*
X27695471Y-6422000D01*
X27675620Y-6182437D01*
X27616610Y-5949409D01*
X27520049Y-5729272D01*
X27505100Y-5706391D01*
X27388574Y-5528035D01*
X27388572Y-5528033D01*
X27388571Y-5528031D01*
X27225764Y-5351175D01*
X27072968Y-5232249D01*
X27036070Y-5203530D01*
X27036067Y-5203528D01*
X26824659Y-5089119D01*
X26719756Y-5053106D01*
X26597297Y-5011066D01*
X26597294Y-5011065D01*
X26597293Y-5011065D01*
X26360192Y-4971500D01*
X26119808Y-4971500D01*
X25882706Y-5011065D01*
X25655340Y-5089119D01*
X25443932Y-5203528D01*
X25443929Y-5203530D01*
X25254239Y-5351172D01*
X25091425Y-5528035D01*
X24959953Y-5729267D01*
X24959950Y-5729272D01*
X24893802Y-5880077D01*
X24871676Y-5930520D01*
X24863388Y-5949414D01*
X24804379Y-6182437D01*
X24804379Y-6182438D01*
X24784529Y-6422000D01*
X17172999Y-6422000D01*
X17172999Y-6100151D01*
X17172998Y-6100145D01*
X17166626Y-6040860D01*
X17166625Y-6040855D01*
X17116608Y-5906752D01*
X17030834Y-5792173D01*
X17030826Y-5792165D01*
X16916247Y-5706391D01*
X16816417Y-5669158D01*
X16768502Y-5631108D01*
X16752104Y-5572161D01*
X16773485Y-5514833D01*
X16816417Y-5483642D01*
X16953247Y-5432608D01*
X17067826Y-5346834D01*
X17067834Y-5346826D01*
X17153606Y-5232249D01*
X17180465Y-5160236D01*
X17218515Y-5112321D01*
X17277462Y-5095922D01*
X17334790Y-5117303D01*
X17349441Y-5133493D01*
X17349986Y-5133021D01*
X17354622Y-5138371D01*
X17354623Y-5138373D01*
X17388888Y-5177917D01*
X17391080Y-5180636D01*
X17400779Y-5193593D01*
X17400781Y-5193595D01*
X17412211Y-5205026D01*
X17414610Y-5207603D01*
X17448872Y-5247143D01*
X17448873Y-5247144D01*
X17455183Y-5251199D01*
X17471666Y-5264480D01*
X17933518Y-5726332D01*
X17946796Y-5742810D01*
X17950856Y-5749127D01*
X17950857Y-5749129D01*
X17990394Y-5783387D01*
X17992982Y-5785796D01*
X18004407Y-5797221D01*
X18017341Y-5806903D01*
X18017345Y-5806906D01*
X18020097Y-5809124D01*
X18059624Y-5843375D01*
X18059625Y-5843375D01*
X18059627Y-5843377D01*
X18066454Y-5846495D01*
X18084651Y-5857291D01*
X18090669Y-5861796D01*
X18139697Y-5880081D01*
X18142941Y-5881425D01*
X18190543Y-5903165D01*
X18197978Y-5904233D01*
X18218484Y-5909468D01*
X18225517Y-5912091D01*
X18277729Y-5915825D01*
X18281196Y-5916198D01*
X18297201Y-5918500D01*
X18313348Y-5918500D01*
X18316881Y-5918626D01*
X18321871Y-5918982D01*
X18369073Y-5922359D01*
X18375470Y-5920967D01*
X18376410Y-5920763D01*
X18397456Y-5918500D01*
X18633500Y-5918500D01*
X18691691Y-5937407D01*
X18727655Y-5986907D01*
X18732500Y-6017500D01*
X18732500Y-6062746D01*
X18732501Y-6062758D01*
X18744132Y-6121227D01*
X18744134Y-6121233D01*
X18785030Y-6182437D01*
X18788448Y-6187552D01*
X18854769Y-6231867D01*
X18899231Y-6240711D01*
X18913241Y-6243498D01*
X18913246Y-6243498D01*
X18913252Y-6243500D01*
X18913253Y-6243500D01*
X20202747Y-6243500D01*
X20202748Y-6243500D01*
X20261231Y-6231867D01*
X20327552Y-6187552D01*
X20371867Y-6121231D01*
X20383500Y-6062748D01*
X20383500Y-6017500D01*
X20402407Y-5959309D01*
X20451907Y-5923345D01*
X20482500Y-5918500D01*
X20718544Y-5918500D01*
X20739590Y-5920763D01*
X20740830Y-5921032D01*
X20746927Y-5922359D01*
X20794412Y-5918962D01*
X20799119Y-5918626D01*
X20802652Y-5918500D01*
X20818799Y-5918500D01*
X20834799Y-5916199D01*
X20838272Y-5915824D01*
X20890483Y-5912091D01*
X20897515Y-5909467D01*
X20918022Y-5904233D01*
X20925457Y-5903165D01*
X20973049Y-5881429D01*
X20976295Y-5880084D01*
X21025331Y-5861796D01*
X21031345Y-5857294D01*
X21049549Y-5846492D01*
X21056373Y-5843377D01*
X21095917Y-5809110D01*
X21098642Y-5806914D01*
X21111593Y-5797221D01*
X21123042Y-5785770D01*
X21125579Y-5783408D01*
X21165143Y-5749128D01*
X21169203Y-5742810D01*
X21182477Y-5726335D01*
X22315317Y-4593496D01*
X22369835Y-4565719D01*
X22385322Y-4564500D01*
X27945678Y-4564500D01*
X28003869Y-4583407D01*
X28015681Y-4593496D01*
X29696505Y-6274319D01*
X29724281Y-6328834D01*
X29725500Y-6344321D01*
X29725500Y-9137457D01*
X29725501Y-9137468D01*
X29733693Y-9165372D01*
X29736693Y-9179162D01*
X29740324Y-9204404D01*
X29729895Y-9264694D01*
X29686020Y-9307339D01*
X29642333Y-9317500D01*
X29420252Y-9317500D01*
X29420251Y-9317500D01*
X29420241Y-9317501D01*
X29361772Y-9329132D01*
X29361766Y-9329134D01*
X29295451Y-9373445D01*
X29295445Y-9373451D01*
X29251134Y-9439766D01*
X29251132Y-9439772D01*
X29239501Y-9498241D01*
X29239500Y-9498253D01*
X29239500Y-9768500D01*
X29220593Y-9826691D01*
X29171093Y-9862655D01*
X29140500Y-9867500D01*
X28881434Y-9867500D01*
X28823243Y-9848593D01*
X28787279Y-9799093D01*
X28783281Y-9781422D01*
X28779605Y-9753499D01*
X28779044Y-9749238D01*
X28751928Y-9683774D01*
X28718537Y-9603161D01*
X28718537Y-9603160D01*
X28622286Y-9477723D01*
X28622285Y-9477722D01*
X28622282Y-9477718D01*
X28622277Y-9477714D01*
X28622276Y-9477713D01*
X28496838Y-9381462D01*
X28350766Y-9320957D01*
X28350758Y-9320955D01*
X28194001Y-9300318D01*
X28193999Y-9300318D01*
X28037241Y-9320955D01*
X28037232Y-9320957D01*
X27911468Y-9373050D01*
X27850471Y-9377850D01*
X27798302Y-9345881D01*
X27774888Y-9289353D01*
X27775429Y-9268672D01*
X27783682Y-9205990D01*
X27763044Y-9049228D01*
X27763042Y-9049223D01*
X27702537Y-8903151D01*
X27702537Y-8903150D01*
X27606286Y-8777713D01*
X27606285Y-8777712D01*
X27606282Y-8777708D01*
X27606277Y-8777704D01*
X27606276Y-8777703D01*
X27535104Y-8723091D01*
X27480841Y-8681454D01*
X27480840Y-8681453D01*
X27480838Y-8681452D01*
X27334766Y-8620947D01*
X27334758Y-8620945D01*
X27178001Y-8600308D01*
X27177999Y-8600308D01*
X27021241Y-8620945D01*
X27021233Y-8620947D01*
X26875161Y-8681452D01*
X26875160Y-8681452D01*
X26749723Y-8777703D01*
X26749713Y-8777713D01*
X26653462Y-8903150D01*
X26653462Y-8903151D01*
X26592957Y-9049223D01*
X26592955Y-9049231D01*
X26572318Y-9205989D01*
X26572318Y-9205990D01*
X26572389Y-9206530D01*
X26572318Y-9206912D01*
X26572318Y-9212479D01*
X26571286Y-9212479D01*
X26561236Y-9266690D01*
X26516851Y-9308805D01*
X26464539Y-9317971D01*
X26459753Y-9317500D01*
X26459748Y-9317500D01*
X26139500Y-9317500D01*
X26081309Y-9298593D01*
X26045345Y-9249093D01*
X26040500Y-9218500D01*
X26040500Y-8787168D01*
X26042731Y-8773495D01*
X26041505Y-8773324D01*
X26042773Y-8764232D01*
X26040553Y-8716215D01*
X26040500Y-8713928D01*
X26040500Y-8694160D01*
X26040500Y-8694156D01*
X26039846Y-8690664D01*
X26039056Y-8683859D01*
X26037585Y-8652008D01*
X26033614Y-8643016D01*
X26026864Y-8621214D01*
X26025061Y-8611568D01*
X26025061Y-8611567D01*
X26008276Y-8584458D01*
X26005088Y-8578410D01*
X25992206Y-8549234D01*
X25992205Y-8549233D01*
X25992204Y-8549231D01*
X25985254Y-8542281D01*
X25971088Y-8524395D01*
X25965921Y-8516050D01*
X25965919Y-8516048D01*
X25940487Y-8496842D01*
X25935310Y-8492337D01*
X25004555Y-7561584D01*
X24996469Y-7550334D01*
X24995477Y-7551084D01*
X24989948Y-7543762D01*
X24988967Y-7542868D01*
X24954413Y-7511367D01*
X24952765Y-7509794D01*
X24938787Y-7495816D01*
X24937273Y-7494779D01*
X24935849Y-7493803D01*
X24930486Y-7489554D01*
X24906923Y-7468074D01*
X24897752Y-7464521D01*
X24877576Y-7453885D01*
X24869474Y-7448335D01*
X24869469Y-7448333D01*
X24838447Y-7441036D01*
X24831892Y-7439006D01*
X24802167Y-7427491D01*
X24802164Y-7427490D01*
X24802163Y-7427490D01*
X24802162Y-7427490D01*
X24792338Y-7427490D01*
X24769673Y-7424860D01*
X24760109Y-7422611D01*
X24760108Y-7422611D01*
X24728537Y-7427015D01*
X24721691Y-7427490D01*
X17212109Y-7427490D01*
X17153918Y-7408583D01*
X17117954Y-7359083D01*
X17117954Y-7297897D01*
X17119351Y-7293894D01*
X17166624Y-7167147D01*
X17166626Y-7167136D01*
X17173000Y-7107851D01*
X17173000Y-6731001D01*
X17172999Y-6731000D01*
X15690002Y-6731000D01*
X15690000Y-6731001D01*
X15690001Y-7107849D01*
X15690001Y-7107854D01*
X15696373Y-7167139D01*
X15696374Y-7167144D01*
X15743649Y-7293894D01*
X15746269Y-7355023D01*
X15712458Y-7406018D01*
X15655130Y-7427399D01*
X15650891Y-7427490D01*
X15277462Y-7427490D01*
X15219271Y-7408583D01*
X15183307Y-7359083D01*
X15183307Y-7297897D01*
X15194146Y-7276819D01*
X15193989Y-7276736D01*
X15197449Y-7270186D01*
X15197455Y-7270179D01*
X15241686Y-7143774D01*
X15244499Y-7113772D01*
X15244500Y-7113770D01*
X15244500Y-6094230D01*
X15244499Y-6094226D01*
X15242989Y-6078120D01*
X15241686Y-6064226D01*
X15197455Y-5937821D01*
X15117930Y-5830070D01*
X15010179Y-5750545D01*
X15010176Y-5750544D01*
X15010175Y-5750543D01*
X14883777Y-5706315D01*
X14883776Y-5706314D01*
X14883774Y-5706314D01*
X14883771Y-5706313D01*
X14883768Y-5706313D01*
X14853773Y-5703500D01*
X14853764Y-5703500D01*
X14259236Y-5703500D01*
X14259226Y-5703500D01*
X14229231Y-5706313D01*
X14229222Y-5706315D01*
X14102824Y-5750543D01*
X14102821Y-5750544D01*
X14102821Y-5750545D01*
X14062444Y-5780345D01*
X13995071Y-5830069D01*
X13995069Y-5830071D01*
X13982091Y-5847656D01*
X13920934Y-5930520D01*
X13915543Y-5937824D01*
X13871315Y-6064222D01*
X13871313Y-6064231D01*
X13868500Y-6094226D01*
X13868392Y-6096542D01*
X13868283Y-6096536D01*
X13868283Y-6096542D01*
X13868174Y-6096531D01*
X13867211Y-6096486D01*
X13849593Y-6150711D01*
X13800093Y-6186675D01*
X13738907Y-6186675D01*
X13699496Y-6162524D01*
X13537496Y-6000524D01*
X13509719Y-5946007D01*
X13508500Y-5930520D01*
X13508500Y-5568386D01*
X13527407Y-5510195D01*
X13576907Y-5474231D01*
X13638093Y-5474231D01*
X13642097Y-5475628D01*
X13660856Y-5482624D01*
X13660863Y-5482626D01*
X13720148Y-5488999D01*
X14096998Y-5488999D01*
X14097000Y-5488998D01*
X14097000Y-4006001D01*
X14096999Y-4006000D01*
X13720151Y-4006000D01*
X13720145Y-4006001D01*
X13660860Y-4012373D01*
X13660855Y-4012374D01*
X13526752Y-4062391D01*
X13412173Y-4148165D01*
X13412165Y-4148173D01*
X13326391Y-4262752D01*
X13276375Y-4396852D01*
X13276373Y-4396863D01*
X13270000Y-4456148D01*
X13270000Y-4478021D01*
X13251093Y-4536212D01*
X13201593Y-4572176D01*
X13140407Y-4572176D01*
X13100996Y-4548025D01*
X13022065Y-4469094D01*
X13013979Y-4457844D01*
X13012987Y-4458594D01*
X13007458Y-4451272D01*
X12971928Y-4418882D01*
X12970275Y-4417304D01*
X12956297Y-4403326D01*
X12953359Y-4401313D01*
X12947996Y-4397064D01*
X12924433Y-4375584D01*
X12915262Y-4372031D01*
X12895086Y-4361395D01*
X12886984Y-4355845D01*
X12886979Y-4355843D01*
X12855957Y-4348546D01*
X12849402Y-4346516D01*
X12819677Y-4335001D01*
X12819674Y-4335000D01*
X12819673Y-4335000D01*
X12819672Y-4335000D01*
X12809848Y-4335000D01*
X12787183Y-4332370D01*
X12777619Y-4330121D01*
X12777618Y-4330121D01*
X12746047Y-4334525D01*
X12739201Y-4335000D01*
X12697239Y-4335000D01*
X12639048Y-4316093D01*
X12603084Y-4266593D01*
X12599699Y-4235380D01*
X12598300Y-4235380D01*
X12598300Y-4127500D01*
X10490302Y-4127500D01*
X10490301Y-4127501D01*
X10490301Y-4230522D01*
X10505036Y-4304604D01*
X10528396Y-4339566D01*
X10545003Y-4398455D01*
X10544124Y-4405895D01*
X10544277Y-4405911D01*
X10543800Y-4410755D01*
X10543800Y-4860246D01*
X10543801Y-4860258D01*
X10557335Y-4928293D01*
X10555010Y-4928755D01*
X10558734Y-4976118D01*
X10555941Y-4984713D01*
X10543801Y-5045741D01*
X10543800Y-5045753D01*
X10543800Y-5495246D01*
X10543801Y-5495258D01*
X10557335Y-5563293D01*
X10555010Y-5563755D01*
X10558734Y-5611118D01*
X10555941Y-5619713D01*
X10543801Y-5680741D01*
X10543800Y-5680753D01*
X10543800Y-6130242D01*
X10543801Y-6130258D01*
X10557335Y-6198293D01*
X10555010Y-6198755D01*
X10558734Y-6246118D01*
X10555941Y-6254713D01*
X10543801Y-6315741D01*
X10543800Y-6315753D01*
X10543800Y-6765246D01*
X10543801Y-6765258D01*
X10557335Y-6833293D01*
X10555010Y-6833755D01*
X10558734Y-6881118D01*
X10555941Y-6889713D01*
X10543801Y-6950741D01*
X10543800Y-6950753D01*
X10543800Y-7400244D01*
X10544277Y-7405089D01*
X10542220Y-7405291D01*
X10535965Y-7457923D01*
X10528396Y-7471432D01*
X10505036Y-7506394D01*
X10490300Y-7580480D01*
X10490300Y-7683498D01*
X10490301Y-7683500D01*
X11572300Y-7683500D01*
X11630491Y-7702407D01*
X11666455Y-7751907D01*
X11671300Y-7782500D01*
X11671300Y-7838500D01*
X11652393Y-7896691D01*
X11602893Y-7932655D01*
X11572300Y-7937500D01*
X10490302Y-7937500D01*
X10490301Y-7937501D01*
X10490301Y-8029000D01*
X10471394Y-8087191D01*
X10421894Y-8123155D01*
X10391301Y-8128000D01*
X9751000Y-8128000D01*
X9692809Y-8109093D01*
X9656845Y-8059593D01*
X9652000Y-8029000D01*
X9652000Y-888999D01*
X10668000Y-888999D01*
X10668001Y-889000D01*
X11257056Y-889000D01*
X11235736Y-982407D01*
X11245749Y-1116028D01*
X11256335Y-1143000D01*
X10668002Y-1143000D01*
X10668001Y-1143001D01*
X10668001Y-1803022D01*
X10682736Y-1877104D01*
X10682737Y-1877107D01*
X10738874Y-1961121D01*
X10738878Y-1961125D01*
X10822893Y-2017263D01*
X10896981Y-2031999D01*
X11556998Y-2031999D01*
X11557000Y-2031997D01*
X11557000Y-1441991D01*
X11617002Y-1460500D01*
X11717312Y-1460500D01*
X11811000Y-1446378D01*
X11811000Y-2031998D01*
X11811001Y-2031999D01*
X12471012Y-2031999D01*
X12471022Y-2031998D01*
X12545104Y-2017263D01*
X12545107Y-2017262D01*
X12629121Y-1961125D01*
X12629125Y-1961121D01*
X12685263Y-1877106D01*
X12699999Y-1803019D01*
X12700000Y-1803016D01*
X12700000Y-1143000D01*
X12110944Y-1143000D01*
X12132264Y-1049593D01*
X12122251Y-915972D01*
X12111665Y-889000D01*
X12699998Y-889000D01*
X12699999Y-888998D01*
X12699999Y-228987D01*
X12699998Y-228977D01*
X12685263Y-154895D01*
X12685262Y-154892D01*
X12629125Y-70878D01*
X12629121Y-70874D01*
X12545106Y-14736D01*
X12471019Y0D01*
X11811000Y0D01*
X11811000Y-590008D01*
X11750998Y-571500D01*
X11650688Y-571500D01*
X11557000Y-585621D01*
X11557000Y0D01*
X10896986Y0D01*
X10896977Y-1D01*
X10822895Y-14736D01*
X10822892Y-14737D01*
X10738878Y-70874D01*
X10738874Y-70878D01*
X10682736Y-154893D01*
X10668000Y-228980D01*
X10668000Y-888999D01*
X9652000Y-888999D01*
X9652000Y1651001D01*
X10668000Y1651001D01*
X10668001Y1651000D01*
X11257056Y1651000D01*
X11235736Y1557593D01*
X11245749Y1423972D01*
X11256335Y1397000D01*
X10668002Y1397000D01*
X10668001Y1396998D01*
X10668001Y736977D01*
X10682736Y662895D01*
X10682737Y662892D01*
X10738874Y578878D01*
X10738878Y578874D01*
X10822893Y522736D01*
X10896980Y508000D01*
X11556999Y508000D01*
X11557000Y508001D01*
X11557000Y1098008D01*
X11617002Y1079500D01*
X11717312Y1079500D01*
X11811000Y1093621D01*
X11811000Y508000D01*
X12471013Y508000D01*
X12471022Y508001D01*
X12545104Y522736D01*
X12545107Y522737D01*
X12629121Y578874D01*
X12629125Y578878D01*
X12685263Y662893D01*
X12699999Y736980D01*
X12700000Y736983D01*
X12700000Y1396999D01*
X12699999Y1397000D01*
X12110944Y1397000D01*
X12132264Y1490407D01*
X12122251Y1624028D01*
X12111665Y1651000D01*
X12699998Y1651000D01*
X12699999Y1651001D01*
X12699999Y2311012D01*
X12699998Y2311022D01*
X12685263Y2385104D01*
X12685262Y2385107D01*
X12629125Y2469121D01*
X12629121Y2469125D01*
X12545106Y2525263D01*
X12471018Y2539999D01*
X11811001Y2539999D01*
X11811000Y2539998D01*
X11811000Y1949991D01*
X11750998Y1968500D01*
X11650688Y1968500D01*
X11557000Y1954378D01*
X11557000Y2539998D01*
X11556999Y2539999D01*
X10896988Y2539999D01*
X10896977Y2539998D01*
X10822895Y2525263D01*
X10822892Y2525262D01*
X10738878Y2469125D01*
X10738874Y2469121D01*
X10682736Y2385106D01*
X10668000Y2311019D01*
X10668000Y1651001D01*
X9652000Y1651001D01*
X9652000Y4626500D01*
X9670907Y4684691D01*
X9720407Y4720655D01*
X9751000Y4725500D01*
X13395445Y4725500D01*
X13453636Y4706593D01*
G37*
%TD.AperFunction*%
%TD*%
%TA.AperFunction,Conductor*%
%TO.N,GNDPWR*%
G36*
X8341191Y4706593D02*
G01*
X8377155Y4657093D01*
X8382000Y4626500D01*
X8381999Y-9055902D01*
X8363092Y-9114093D01*
X8317596Y-9148660D01*
X8117661Y-9223231D01*
X8117659Y-9223232D01*
X7872786Y-9356943D01*
X7649437Y-9524140D01*
X7452140Y-9721437D01*
X7284943Y-9944786D01*
X7151232Y-10189659D01*
X7151231Y-10189661D01*
X7053730Y-10451072D01*
X6994421Y-10723711D01*
X6974518Y-11002000D01*
X6994421Y-11280288D01*
X6994421Y-11280291D01*
X6994422Y-11280294D01*
X7009792Y-11350949D01*
X7053730Y-11552927D01*
X7151231Y-11814338D01*
X7151232Y-11814340D01*
X7284944Y-12059213D01*
X7284943Y-12059213D01*
X7452140Y-12282562D01*
X7452141Y-12282563D01*
X7452145Y-12282568D01*
X7649432Y-12479855D01*
X7649435Y-12479857D01*
X7649437Y-12479859D01*
X7872786Y-12647056D01*
X8117659Y-12780767D01*
X8117663Y-12780769D01*
X8325096Y-12858137D01*
X8373010Y-12896188D01*
X8389499Y-12950895D01*
X8389500Y-14023500D01*
X8370593Y-14081691D01*
X8321093Y-14117655D01*
X8290500Y-14122500D01*
X7364226Y-14122500D01*
X7334231Y-14125313D01*
X7334222Y-14125315D01*
X7207824Y-14169543D01*
X7100071Y-14249069D01*
X7100069Y-14249071D01*
X7020543Y-14356824D01*
X6976315Y-14483222D01*
X6976313Y-14483231D01*
X6973500Y-14513226D01*
X6973500Y-15107773D01*
X6976313Y-15137768D01*
X6976315Y-15137777D01*
X7020543Y-15264175D01*
X7020544Y-15264176D01*
X7020545Y-15264179D01*
X7100070Y-15371930D01*
X7207821Y-15451455D01*
X7334226Y-15495686D01*
X7364226Y-15498499D01*
X7364230Y-15498500D01*
X7364236Y-15498500D01*
X8383770Y-15498500D01*
X8383772Y-15498499D01*
X8413774Y-15495686D01*
X8540179Y-15451455D01*
X8647930Y-15371930D01*
X8663222Y-15351210D01*
X8712989Y-15315619D01*
X8742876Y-15311000D01*
X8932701Y-15311000D01*
X8948848Y-15311000D01*
X8952381Y-15311126D01*
X8957371Y-15311482D01*
X9004573Y-15314859D01*
X9010970Y-15313467D01*
X9011910Y-15313263D01*
X9032956Y-15311000D01*
X9037124Y-15311000D01*
X9095315Y-15329907D01*
X9116777Y-15351209D01*
X9132070Y-15371930D01*
X9239821Y-15451455D01*
X9366226Y-15495686D01*
X9396226Y-15498499D01*
X9396230Y-15498500D01*
X9396236Y-15498500D01*
X10415770Y-15498500D01*
X10415772Y-15498499D01*
X10445774Y-15495686D01*
X10572179Y-15451455D01*
X10679930Y-15371930D01*
X10759455Y-15264179D01*
X10803686Y-15137774D01*
X10806499Y-15107772D01*
X10806500Y-15107770D01*
X10806500Y-14513230D01*
X10806499Y-14513226D01*
X10805864Y-14506458D01*
X10803686Y-14483226D01*
X10759455Y-14356821D01*
X10679930Y-14249070D01*
X10572179Y-14169545D01*
X10572176Y-14169544D01*
X10572175Y-14169543D01*
X10445777Y-14125315D01*
X10445776Y-14125314D01*
X10445774Y-14125314D01*
X10445771Y-14125313D01*
X10445768Y-14125313D01*
X10415773Y-14122500D01*
X10415764Y-14122500D01*
X9489500Y-14122500D01*
X9431309Y-14103593D01*
X9395345Y-14054093D01*
X9390500Y-14023500D01*
X9390500Y-12977720D01*
X9409407Y-12919529D01*
X9458907Y-12883565D01*
X9468457Y-12880982D01*
X9474328Y-12879705D01*
X9480919Y-12878272D01*
X9480919Y-12878271D01*
X9480923Y-12878271D01*
X9742337Y-12780769D01*
X9987213Y-12647056D01*
X10210568Y-12479855D01*
X10407855Y-12282568D01*
X10575056Y-12059213D01*
X10708769Y-11814337D01*
X10806271Y-11552923D01*
X10865578Y-11280294D01*
X10885482Y-11002000D01*
X10865578Y-10723706D01*
X10806271Y-10451077D01*
X10708769Y-10189663D01*
X10695817Y-10165944D01*
X10632806Y-10050548D01*
X10575056Y-9944787D01*
X10575055Y-9944786D01*
X10575056Y-9944786D01*
X10407859Y-9721437D01*
X10407857Y-9721435D01*
X10407855Y-9721432D01*
X10253424Y-9567001D01*
X10225649Y-9512487D01*
X10235220Y-9452055D01*
X10278485Y-9408790D01*
X10323430Y-9398000D01*
X12536570Y-9398000D01*
X12594761Y-9416907D01*
X12630725Y-9466407D01*
X12630725Y-9527593D01*
X12606575Y-9567001D01*
X12525487Y-9648090D01*
X12452140Y-9721437D01*
X12284943Y-9944786D01*
X12151232Y-10189659D01*
X12151231Y-10189661D01*
X12053730Y-10451072D01*
X11994421Y-10723711D01*
X11974518Y-11002000D01*
X11994421Y-11280288D01*
X11994421Y-11280291D01*
X11994422Y-11280294D01*
X12009792Y-11350949D01*
X12053730Y-11552927D01*
X12151231Y-11814338D01*
X12151232Y-11814340D01*
X12284944Y-12059213D01*
X12284943Y-12059213D01*
X12452140Y-12282562D01*
X12452141Y-12282563D01*
X12452145Y-12282568D01*
X12649432Y-12479855D01*
X12649435Y-12479857D01*
X12649437Y-12479859D01*
X12872786Y-12647056D01*
X13117659Y-12780767D01*
X13117663Y-12780769D01*
X13379077Y-12878271D01*
X13379078Y-12878271D01*
X13379080Y-12878272D01*
X13388428Y-12880305D01*
X13391540Y-12880982D01*
X13444383Y-12911824D01*
X13469005Y-12967837D01*
X13469500Y-12977720D01*
X13469500Y-14023500D01*
X13450593Y-14081691D01*
X13401093Y-14117655D01*
X13370500Y-14122500D01*
X12444226Y-14122500D01*
X12414231Y-14125313D01*
X12414222Y-14125315D01*
X12287824Y-14169543D01*
X12180071Y-14249069D01*
X12180069Y-14249071D01*
X12100543Y-14356824D01*
X12056315Y-14483222D01*
X12056313Y-14483231D01*
X12053500Y-14513226D01*
X12053500Y-15107773D01*
X12056313Y-15137768D01*
X12056315Y-15137777D01*
X12100543Y-15264175D01*
X12100544Y-15264176D01*
X12100545Y-15264179D01*
X12180070Y-15371930D01*
X12287821Y-15451455D01*
X12414226Y-15495686D01*
X12444226Y-15498499D01*
X12444230Y-15498500D01*
X12444236Y-15498500D01*
X13463770Y-15498500D01*
X13463772Y-15498499D01*
X13493774Y-15495686D01*
X13620179Y-15451455D01*
X13727930Y-15371930D01*
X13743222Y-15351210D01*
X13792989Y-15315619D01*
X13822876Y-15311000D01*
X13898039Y-15311000D01*
X14041961Y-15311000D01*
X14117124Y-15311000D01*
X14175315Y-15329907D01*
X14196777Y-15351209D01*
X14212070Y-15371930D01*
X14319821Y-15451455D01*
X14446226Y-15495686D01*
X14476226Y-15498499D01*
X14476230Y-15498500D01*
X14476236Y-15498500D01*
X15495770Y-15498500D01*
X15495772Y-15498499D01*
X15525774Y-15495686D01*
X15616301Y-15464009D01*
X15677472Y-15462636D01*
X15727767Y-15497480D01*
X15747975Y-15555232D01*
X15748000Y-15557453D01*
X15748000Y-15938547D01*
X15729093Y-15996738D01*
X15679593Y-16032702D01*
X15618407Y-16032702D01*
X15616302Y-16031991D01*
X15525777Y-16000315D01*
X15525776Y-16000314D01*
X15525774Y-16000314D01*
X15525771Y-16000313D01*
X15525768Y-16000313D01*
X15495773Y-15997500D01*
X15495764Y-15997500D01*
X14476236Y-15997500D01*
X14476226Y-15997500D01*
X14446231Y-16000313D01*
X14446222Y-16000315D01*
X14319824Y-16044543D01*
X14247632Y-16097824D01*
X14212070Y-16124070D01*
X14196777Y-16144789D01*
X14147011Y-16180381D01*
X14117124Y-16185000D01*
X13822876Y-16185000D01*
X13764685Y-16166093D01*
X13743222Y-16144790D01*
X13727930Y-16124070D01*
X13620179Y-16044545D01*
X13620176Y-16044544D01*
X13620175Y-16044543D01*
X13493777Y-16000315D01*
X13493776Y-16000314D01*
X13493774Y-16000314D01*
X13493771Y-16000313D01*
X13493768Y-16000313D01*
X13463773Y-15997500D01*
X13463764Y-15997500D01*
X12444236Y-15997500D01*
X12444226Y-15997500D01*
X12414231Y-16000313D01*
X12414222Y-16000315D01*
X12287824Y-16044543D01*
X12215632Y-16097824D01*
X12180070Y-16124070D01*
X12164777Y-16144789D01*
X12115011Y-16180381D01*
X12085124Y-16185000D01*
X10774876Y-16185000D01*
X10716685Y-16166093D01*
X10695222Y-16144790D01*
X10679930Y-16124070D01*
X10572179Y-16044545D01*
X10572176Y-16044544D01*
X10572175Y-16044543D01*
X10445777Y-16000315D01*
X10445776Y-16000314D01*
X10445774Y-16000314D01*
X10445771Y-16000313D01*
X10445768Y-16000313D01*
X10415773Y-15997500D01*
X10415764Y-15997500D01*
X9396236Y-15997500D01*
X9396226Y-15997500D01*
X9366231Y-16000313D01*
X9366222Y-16000315D01*
X9239824Y-16044543D01*
X9167632Y-16097824D01*
X9132070Y-16124070D01*
X9116777Y-16144789D01*
X9067011Y-16180381D01*
X9037124Y-16185000D01*
X8742876Y-16185000D01*
X8684685Y-16166093D01*
X8663222Y-16144790D01*
X8647930Y-16124070D01*
X8540179Y-16044545D01*
X8540176Y-16044544D01*
X8540175Y-16044543D01*
X8413777Y-16000315D01*
X8413776Y-16000314D01*
X8413774Y-16000314D01*
X8413771Y-16000313D01*
X8413768Y-16000313D01*
X8383773Y-15997500D01*
X8383764Y-15997500D01*
X7364236Y-15997500D01*
X7364226Y-15997500D01*
X7334231Y-16000313D01*
X7334222Y-16000315D01*
X7207824Y-16044543D01*
X7100071Y-16124069D01*
X7100069Y-16124071D01*
X7069055Y-16166093D01*
X7026151Y-16224226D01*
X7020543Y-16231824D01*
X6976315Y-16358222D01*
X6976313Y-16358231D01*
X6973500Y-16388226D01*
X6973500Y-16982773D01*
X6976313Y-17012768D01*
X6976315Y-17012777D01*
X7020543Y-17139175D01*
X7020544Y-17139176D01*
X7020545Y-17139179D01*
X7100070Y-17246930D01*
X7207821Y-17326455D01*
X7307199Y-17361229D01*
X7355878Y-17398293D01*
X7373500Y-17454672D01*
X7373500Y-17531678D01*
X7354593Y-17589869D01*
X7344504Y-17601682D01*
X6933682Y-18012504D01*
X6879165Y-18040281D01*
X6863678Y-18041500D01*
X4566321Y-18041500D01*
X4508130Y-18022593D01*
X4496318Y-18012504D01*
X4177055Y-17693242D01*
X4149277Y-17638725D01*
X4158848Y-17578293D01*
X4188269Y-17543583D01*
X4195930Y-17537930D01*
X4275455Y-17430179D01*
X4319686Y-17303774D01*
X4322499Y-17273772D01*
X4322500Y-17273770D01*
X4322500Y-16254230D01*
X4322499Y-16254226D01*
X4319686Y-16224231D01*
X4319686Y-16224226D01*
X4275455Y-16097821D01*
X4195930Y-15990070D01*
X4088179Y-15910545D01*
X4088176Y-15910544D01*
X4088175Y-15910543D01*
X3961777Y-15866315D01*
X3961776Y-15866314D01*
X3961774Y-15866314D01*
X3961771Y-15866313D01*
X3961768Y-15866313D01*
X3931773Y-15863500D01*
X3931764Y-15863500D01*
X3337236Y-15863500D01*
X3337226Y-15863500D01*
X3307231Y-15866313D01*
X3307222Y-15866315D01*
X3180824Y-15910543D01*
X3073071Y-15990069D01*
X3073069Y-15990071D01*
X2993543Y-16097824D01*
X2949315Y-16224222D01*
X2949313Y-16224231D01*
X2946500Y-16254226D01*
X2946500Y-17273773D01*
X2949313Y-17303768D01*
X2949314Y-17303774D01*
X2969394Y-17361158D01*
X2970766Y-17422328D01*
X2935922Y-17472622D01*
X2878170Y-17492830D01*
X2819570Y-17475233D01*
X2809465Y-17467209D01*
X2540959Y-17223849D01*
X2540952Y-17223843D01*
X2426796Y-17139179D01*
X2225239Y-16989694D01*
X2225236Y-16989692D01*
X2225229Y-16989687D01*
X1888103Y-16787621D01*
X1532779Y-16619565D01*
X1532776Y-16619563D01*
X1532772Y-16619562D01*
X1415234Y-16577506D01*
X1162681Y-16487141D01*
X781400Y-16391635D01*
X781402Y-16391635D01*
X721287Y-16382718D01*
X666500Y-16355477D01*
X638189Y-16301235D01*
X647168Y-16240712D01*
X690006Y-16197025D01*
X719155Y-16188346D01*
X718977Y-16187450D01*
X754510Y-16180381D01*
X782231Y-16174867D01*
X848552Y-16130552D01*
X892867Y-16064231D01*
X904500Y-16005748D01*
X904500Y-14966252D01*
X892867Y-14907769D01*
X848552Y-14841448D01*
X848548Y-14841445D01*
X798498Y-14808002D01*
X760619Y-14759951D01*
X754500Y-14725687D01*
X754500Y-14591771D01*
X773407Y-14533580D01*
X774960Y-14531501D01*
X778536Y-14526841D01*
X839044Y-14380762D01*
X859682Y-14224000D01*
X859448Y-14222226D01*
X846690Y-14125314D01*
X839044Y-14067238D01*
X793826Y-13958072D01*
X778537Y-13921161D01*
X778537Y-13921160D01*
X682286Y-13795723D01*
X682285Y-13795722D01*
X682282Y-13795718D01*
X682277Y-13795714D01*
X682276Y-13795713D01*
X556838Y-13699462D01*
X410766Y-13638957D01*
X410758Y-13638955D01*
X254001Y-13618318D01*
X253999Y-13618318D01*
X97241Y-13638955D01*
X97233Y-13638957D01*
X-48838Y-13699462D01*
X-48839Y-13699462D01*
X-174276Y-13795713D01*
X-174277Y-13795714D01*
X-174282Y-13795718D01*
X-174285Y-13795722D01*
X-174286Y-13795723D01*
X-270537Y-13921160D01*
X-270537Y-13921161D01*
X-285826Y-13958072D01*
X-331044Y-14067238D01*
X-338690Y-14125314D01*
X-351448Y-14222226D01*
X-351682Y-14224000D01*
X-331044Y-14380762D01*
X-270536Y-14526841D01*
X-266960Y-14531501D01*
X-246534Y-14589176D01*
X-246500Y-14591771D01*
X-246500Y-14725687D01*
X-265407Y-14783878D01*
X-290498Y-14808002D01*
X-340548Y-14841445D01*
X-340552Y-14841448D01*
X-384867Y-14907769D01*
X-393711Y-14952231D01*
X-396498Y-14966241D01*
X-396500Y-14966253D01*
X-396500Y-15023273D01*
X-415407Y-15081464D01*
X-464907Y-15117428D01*
X-526093Y-15117428D01*
X-574041Y-15083541D01*
X-587712Y-15065724D01*
X-587723Y-15065713D01*
X-713161Y-14969462D01*
X-859233Y-14908957D01*
X-859241Y-14908955D01*
X-1015999Y-14888318D01*
X-1016001Y-14888318D01*
X-1172758Y-14908955D01*
X-1172759Y-14908955D01*
X-1172762Y-14908956D01*
X-1258333Y-14944401D01*
X-1318842Y-14969464D01*
X-1323648Y-14972239D01*
X-1373144Y-14985500D01*
X-1550425Y-14985500D01*
X-1608616Y-14966593D01*
X-1644580Y-14917093D01*
X-1646807Y-14908557D01*
X-1647134Y-14907766D01*
X-1691445Y-14841451D01*
X-1691451Y-14841445D01*
X-1757766Y-14797134D01*
X-1757772Y-14797132D01*
X-1816241Y-14785501D01*
X-1816251Y-14785500D01*
X-1816252Y-14785500D01*
X-2755748Y-14785500D01*
X-2755758Y-14785501D01*
X-2814227Y-14797132D01*
X-2814228Y-14797132D01*
X-2814231Y-14797133D01*
X-2814233Y-14797134D01*
X-2880548Y-14841445D01*
X-2880552Y-14841448D01*
X-2924867Y-14907769D01*
X-2936500Y-14966252D01*
X-2936500Y-16005748D01*
X-2924867Y-16064231D01*
X-2880552Y-16130552D01*
X-2814231Y-16174867D01*
X-2755748Y-16186500D01*
X-2755747Y-16186500D01*
X-1816253Y-16186500D01*
X-1816252Y-16186500D01*
X-1816246Y-16186498D01*
X-1816241Y-16186498D01*
X-1802231Y-16183711D01*
X-1757769Y-16174867D01*
X-1691448Y-16130552D01*
X-1687117Y-16124071D01*
X-1647134Y-16064233D01*
X-1643403Y-16055224D01*
X-1641763Y-16055903D01*
X-1617629Y-16012805D01*
X-1562065Y-15987187D01*
X-1550425Y-15986500D01*
X-1394197Y-15986500D01*
X-1336006Y-16005407D01*
X-1333929Y-16006959D01*
X-1326387Y-16012745D01*
X-1318841Y-16018536D01*
X-1172762Y-16079044D01*
X-1047352Y-16095554D01*
X-1016001Y-16099682D01*
X-1016000Y-16099682D01*
X-1015999Y-16099682D01*
X-976809Y-16094522D01*
X-859238Y-16079044D01*
X-823476Y-16064231D01*
X-713161Y-16018537D01*
X-713160Y-16018537D01*
X-587723Y-15922286D01*
X-587722Y-15922285D01*
X-587718Y-15922282D01*
X-574041Y-15904458D01*
X-523618Y-15869803D01*
X-462454Y-15871404D01*
X-413912Y-15908651D01*
X-396500Y-15964725D01*
X-396500Y-16005748D01*
X-384867Y-16064231D01*
X-340552Y-16130552D01*
X-309710Y-16151159D01*
X-271833Y-16199206D01*
X-269431Y-16260345D01*
X-303423Y-16311219D01*
X-359854Y-16332353D01*
X-392591Y-16333962D01*
X-392596Y-16333962D01*
X-392601Y-16333963D01*
X-392604Y-16333963D01*
X-781399Y-16391635D01*
X-781400Y-16391635D01*
X-1162681Y-16487141D01*
X-1415234Y-16577506D01*
X-1532772Y-16619562D01*
X-1532776Y-16619563D01*
X-1532779Y-16619565D01*
X-1888103Y-16787621D01*
X-2225229Y-16989687D01*
X-2225236Y-16989692D01*
X-2225239Y-16989694D01*
X-2426796Y-17139179D01*
X-2540952Y-17223843D01*
X-2540959Y-17223849D01*
X-2795632Y-17454672D01*
X-2832192Y-17487808D01*
X-2832201Y-17487818D01*
X-2832205Y-17487822D01*
X-3048247Y-17726187D01*
X-3096158Y-17779049D01*
X-3330306Y-18094761D01*
X-3330308Y-18094765D01*
X-3330312Y-18094770D01*
X-3532378Y-18431896D01*
X-3532381Y-18431903D01*
X-3700438Y-18787228D01*
X-3832857Y-19157316D01*
X-3928364Y-19538600D01*
X-3986038Y-19927409D01*
X-4005325Y-20320000D01*
X-3986038Y-20712591D01*
X-3928364Y-21101400D01*
X-3832857Y-21482684D01*
X-3700438Y-21852772D01*
X-3647772Y-21964124D01*
X-3532378Y-22208103D01*
X-3330312Y-22545229D01*
X-3330306Y-22545239D01*
X-3096158Y-22860951D01*
X-2832192Y-23152192D01*
X-2540951Y-23416158D01*
X-2225239Y-23650306D01*
X-2225229Y-23650311D01*
X-2225229Y-23650312D01*
X-1888103Y-23852378D01*
X-1888098Y-23852380D01*
X-1888097Y-23852381D01*
X-1532772Y-24020438D01*
X-1162684Y-24152857D01*
X-1162681Y-24152858D01*
X-781399Y-24248364D01*
X-781400Y-24248364D01*
X-392591Y-24306038D01*
X0Y-24325325D01*
X392591Y-24306038D01*
X781400Y-24248364D01*
X1162681Y-24152858D01*
X1162684Y-24152857D01*
X1532772Y-24020438D01*
X1888097Y-23852381D01*
X1888098Y-23852380D01*
X1888103Y-23852378D01*
X2225229Y-23650312D01*
X2225229Y-23650311D01*
X2225239Y-23650306D01*
X2540951Y-23416158D01*
X2832192Y-23152192D01*
X3096158Y-22860951D01*
X3330306Y-22545239D01*
X3330312Y-22545229D01*
X3532378Y-22208103D01*
X3647772Y-21964124D01*
X3700438Y-21852772D01*
X3832857Y-21482684D01*
X3928364Y-21101400D01*
X3943109Y-21002000D01*
X4724357Y-21002000D01*
X4744885Y-21223536D01*
X4805771Y-21437528D01*
X4904942Y-21636689D01*
X5039019Y-21814236D01*
X5203438Y-21964124D01*
X5392599Y-22081247D01*
X5600060Y-22161618D01*
X5818757Y-22202500D01*
X6041243Y-22202500D01*
X6259940Y-22161618D01*
X6467401Y-22081247D01*
X6656562Y-21964124D01*
X6820981Y-21814236D01*
X6955058Y-21636689D01*
X7054229Y-21437528D01*
X7115115Y-21223536D01*
X7135643Y-21002000D01*
X15724357Y-21002000D01*
X15744885Y-21223536D01*
X15805771Y-21437528D01*
X15904942Y-21636689D01*
X16039019Y-21814236D01*
X16203438Y-21964124D01*
X16392599Y-22081247D01*
X16600060Y-22161618D01*
X16818757Y-22202500D01*
X17041243Y-22202500D01*
X17259940Y-22161618D01*
X17467401Y-22081247D01*
X17656562Y-21964124D01*
X17820981Y-21814236D01*
X17955058Y-21636689D01*
X18054229Y-21437528D01*
X18115115Y-21223536D01*
X18135643Y-21002000D01*
X18115115Y-20780464D01*
X18054229Y-20566472D01*
X17955058Y-20367311D01*
X17820981Y-20189764D01*
X17656562Y-20039876D01*
X17467401Y-19922753D01*
X17259940Y-19842382D01*
X17259939Y-19842381D01*
X17259937Y-19842381D01*
X17041243Y-19801500D01*
X16818757Y-19801500D01*
X16600062Y-19842381D01*
X16523797Y-19871926D01*
X16392599Y-19922753D01*
X16203437Y-20039875D01*
X16203438Y-20039876D01*
X16039020Y-20189763D01*
X15904943Y-20367309D01*
X15904938Y-20367318D01*
X15805772Y-20566469D01*
X15805771Y-20566472D01*
X15744885Y-20780464D01*
X15724357Y-21002000D01*
X7135643Y-21002000D01*
X7115115Y-20780464D01*
X7054229Y-20566472D01*
X6955058Y-20367311D01*
X6820981Y-20189764D01*
X6656562Y-20039876D01*
X6467401Y-19922753D01*
X6259940Y-19842382D01*
X6259939Y-19842381D01*
X6259937Y-19842381D01*
X6041243Y-19801500D01*
X5818757Y-19801500D01*
X5600062Y-19842381D01*
X5523797Y-19871926D01*
X5392599Y-19922753D01*
X5203437Y-20039875D01*
X5203438Y-20039876D01*
X5039020Y-20189763D01*
X4904943Y-20367309D01*
X4904938Y-20367318D01*
X4805772Y-20566469D01*
X4805771Y-20566472D01*
X4744885Y-20780464D01*
X4724357Y-21002000D01*
X3943109Y-21002000D01*
X3986038Y-20712591D01*
X4005325Y-20320000D01*
X3986038Y-19927409D01*
X3928364Y-19538600D01*
X3832857Y-19157316D01*
X3765232Y-18968318D01*
X3763431Y-18907161D01*
X3797922Y-18856624D01*
X3855530Y-18836011D01*
X3914253Y-18853196D01*
X3933266Y-18870138D01*
X3935857Y-18873129D01*
X3975394Y-18907387D01*
X3977982Y-18909796D01*
X3989407Y-18921221D01*
X4002341Y-18930903D01*
X4002345Y-18930906D01*
X4005097Y-18933124D01*
X4044624Y-18967375D01*
X4044625Y-18967375D01*
X4044627Y-18967377D01*
X4051454Y-18970495D01*
X4069651Y-18981291D01*
X4075669Y-18985796D01*
X4124697Y-19004081D01*
X4127941Y-19005425D01*
X4175543Y-19027165D01*
X4182978Y-19028233D01*
X4203484Y-19033468D01*
X4210517Y-19036091D01*
X4262729Y-19039825D01*
X4266196Y-19040198D01*
X4282201Y-19042500D01*
X4298348Y-19042500D01*
X4301881Y-19042626D01*
X4306871Y-19042982D01*
X4354073Y-19046359D01*
X4360470Y-19044967D01*
X4361410Y-19044763D01*
X4382456Y-19042500D01*
X7047544Y-19042500D01*
X7068590Y-19044763D01*
X7069830Y-19045032D01*
X7075927Y-19046359D01*
X7123412Y-19042962D01*
X7128119Y-19042626D01*
X7131652Y-19042500D01*
X7147799Y-19042500D01*
X7163799Y-19040199D01*
X7167272Y-19039824D01*
X7219483Y-19036091D01*
X7226515Y-19033467D01*
X7247022Y-19028233D01*
X7254457Y-19027165D01*
X7302049Y-19005429D01*
X7305295Y-19004084D01*
X7354331Y-18985796D01*
X7360345Y-18981294D01*
X7378549Y-18970492D01*
X7385373Y-18967377D01*
X7424917Y-18933110D01*
X7427642Y-18930914D01*
X7440593Y-18921221D01*
X7452042Y-18909770D01*
X7454579Y-18907408D01*
X7494143Y-18873128D01*
X7498202Y-18866811D01*
X7511477Y-18850335D01*
X8182335Y-18179477D01*
X8198811Y-18166202D01*
X8205128Y-18162143D01*
X8239408Y-18122579D01*
X8241770Y-18120042D01*
X8253221Y-18108593D01*
X8262914Y-18095642D01*
X8265110Y-18092917D01*
X8299377Y-18053373D01*
X8302492Y-18046549D01*
X8313296Y-18028342D01*
X8313921Y-18027506D01*
X8317796Y-18022331D01*
X8336084Y-17973295D01*
X8337432Y-17970043D01*
X8359165Y-17922457D01*
X8360233Y-17915022D01*
X8365467Y-17894515D01*
X8368091Y-17887483D01*
X8371824Y-17835272D01*
X8372199Y-17831799D01*
X8374500Y-17815799D01*
X8374500Y-17799651D01*
X8374626Y-17796118D01*
X8375847Y-17779040D01*
X8378359Y-17743927D01*
X8376762Y-17736585D01*
X8374500Y-17715542D01*
X8374500Y-17454672D01*
X8393407Y-17396481D01*
X8440800Y-17361229D01*
X8540179Y-17326455D01*
X8647930Y-17246930D01*
X8663222Y-17226210D01*
X8712989Y-17190619D01*
X8742876Y-17186000D01*
X9037124Y-17186000D01*
X9095315Y-17204907D01*
X9116777Y-17226209D01*
X9132070Y-17246930D01*
X9239821Y-17326455D01*
X9366226Y-17370686D01*
X9396226Y-17373499D01*
X9396230Y-17373500D01*
X9396236Y-17373500D01*
X10415770Y-17373500D01*
X10415772Y-17373499D01*
X10445774Y-17370686D01*
X10572179Y-17326455D01*
X10679930Y-17246930D01*
X10695222Y-17226210D01*
X10744989Y-17190619D01*
X10774876Y-17186000D01*
X12085124Y-17186000D01*
X12143315Y-17204907D01*
X12164777Y-17226209D01*
X12180070Y-17246930D01*
X12287821Y-17326455D01*
X12414226Y-17370686D01*
X12444226Y-17373499D01*
X12444230Y-17373500D01*
X12444236Y-17373500D01*
X13463770Y-17373500D01*
X13463772Y-17373499D01*
X13493774Y-17370686D01*
X13620179Y-17326455D01*
X13727930Y-17246930D01*
X13743222Y-17226210D01*
X13792989Y-17190619D01*
X13822876Y-17186000D01*
X14117124Y-17186000D01*
X14175315Y-17204907D01*
X14196777Y-17226209D01*
X14212070Y-17246930D01*
X14319821Y-17326455D01*
X14446226Y-17370686D01*
X14476226Y-17373499D01*
X14476230Y-17373500D01*
X14476236Y-17373500D01*
X15495770Y-17373500D01*
X15495772Y-17373499D01*
X15525774Y-17370686D01*
X15616301Y-17339009D01*
X15677472Y-17337636D01*
X15727767Y-17372480D01*
X15747975Y-17430232D01*
X15748000Y-17432453D01*
X15747999Y-18541998D01*
X15748000Y-18541999D01*
X15748000Y-18542000D01*
X18443000Y-18542000D01*
X18501191Y-18560907D01*
X18537155Y-18610407D01*
X18542000Y-18641000D01*
X18542000Y-24946500D01*
X18523093Y-25004691D01*
X18473593Y-25040655D01*
X18443000Y-25045500D01*
X-4626500Y-25045500D01*
X-4684691Y-25026593D01*
X-4720655Y-24977093D01*
X-4725500Y-24946500D01*
X-4725500Y-8092770D01*
X-3186500Y-8092770D01*
X-3186499Y-8092772D01*
X-3183686Y-8122774D01*
X-3139455Y-8249179D01*
X-3059930Y-8356930D01*
X-2952179Y-8436455D01*
X-2825774Y-8480686D01*
X-2795772Y-8483499D01*
X-2795770Y-8483500D01*
X-2795764Y-8483500D01*
X-2785500Y-8483500D01*
X-2727309Y-8502407D01*
X-2691345Y-8551907D01*
X-2686500Y-8582500D01*
X-2686500Y-8610478D01*
X-2705407Y-8668669D01*
X-2754907Y-8704633D01*
X-2766184Y-8707575D01*
X-2814227Y-8717132D01*
X-2814228Y-8717132D01*
X-2814231Y-8717133D01*
X-2814233Y-8717134D01*
X-2822823Y-8722874D01*
X-2880552Y-8761448D01*
X-2924867Y-8827769D01*
X-2936500Y-8886252D01*
X-2936500Y-9925748D01*
X-2924867Y-9984231D01*
X-2880552Y-10050552D01*
X-2814231Y-10094867D01*
X-2755748Y-10106500D01*
X-2755747Y-10106500D01*
X-1816253Y-10106500D01*
X-1816252Y-10106500D01*
X-1816246Y-10106498D01*
X-1816241Y-10106498D01*
X-1802231Y-10103711D01*
X-1757769Y-10094867D01*
X-1691448Y-10050552D01*
X-1647133Y-9984231D01*
X-1647132Y-9984227D01*
X-1636546Y-9931012D01*
X-449999Y-9931012D01*
X-449998Y-9931022D01*
X-435263Y-10005104D01*
X-435262Y-10005107D01*
X-379125Y-10089121D01*
X-379121Y-10089125D01*
X-295106Y-10145263D01*
X-221018Y-10159999D01*
X126998Y-10159999D01*
X127000Y-10159998D01*
X381000Y-10159998D01*
X381001Y-10159999D01*
X729012Y-10159999D01*
X729022Y-10159998D01*
X803104Y-10145263D01*
X803107Y-10145262D01*
X887121Y-10089125D01*
X887125Y-10089121D01*
X943263Y-10005106D01*
X957999Y-9931019D01*
X958000Y-9931016D01*
X958000Y-9533000D01*
X381001Y-9533000D01*
X381000Y-9533001D01*
X381000Y-10159998D01*
X127000Y-10159998D01*
X127000Y-9533001D01*
X126999Y-9533000D01*
X-449998Y-9533000D01*
X-449999Y-9533001D01*
X-449999Y-9931012D01*
X-1636546Y-9931012D01*
X-1635501Y-9925758D01*
X-1635500Y-9925746D01*
X-1635500Y-9278999D01*
X-450000Y-9278999D01*
X-449999Y-9279000D01*
X126999Y-9279000D01*
X127000Y-9278999D01*
X381000Y-9278999D01*
X381001Y-9279000D01*
X957998Y-9279000D01*
X957998Y-9278999D01*
X957999Y-8880987D01*
X957998Y-8880977D01*
X943263Y-8806895D01*
X943262Y-8806892D01*
X887125Y-8722878D01*
X887121Y-8722874D01*
X803106Y-8666736D01*
X729019Y-8652000D01*
X381001Y-8652000D01*
X381000Y-8652001D01*
X381000Y-9278999D01*
X127000Y-9278999D01*
X127000Y-8652001D01*
X126999Y-8652000D01*
X-221013Y-8652000D01*
X-221022Y-8652001D01*
X-295104Y-8666736D01*
X-295107Y-8666737D01*
X-379121Y-8722874D01*
X-379125Y-8722878D01*
X-435263Y-8806893D01*
X-449999Y-8880980D01*
X-450000Y-8880983D01*
X-450000Y-9278999D01*
X-1635500Y-9278999D01*
X-1635500Y-8886253D01*
X-1635501Y-8886241D01*
X-1647132Y-8827772D01*
X-1647134Y-8827766D01*
X-1691445Y-8761451D01*
X-1691451Y-8761445D01*
X-1757766Y-8717134D01*
X-1757772Y-8717132D01*
X-1805816Y-8707575D01*
X-1859199Y-8677678D01*
X-1884814Y-8622112D01*
X-1885500Y-8610478D01*
X-1885500Y-8582500D01*
X-1866593Y-8524309D01*
X-1817093Y-8488345D01*
X-1786500Y-8483500D01*
X-1776230Y-8483500D01*
X-1776226Y-8483499D01*
X-1746226Y-8480686D01*
X-1619821Y-8436455D01*
X-1512070Y-8356930D01*
X-1432545Y-8249179D01*
X-1432544Y-8249176D01*
X-1432543Y-8249175D01*
X-1388315Y-8122777D01*
X-1388313Y-8122768D01*
X-1385500Y-8092773D01*
X-1385500Y-7883012D01*
X-349999Y-7883012D01*
X-349998Y-7883022D01*
X-335263Y-7957104D01*
X-335262Y-7957107D01*
X-279125Y-8041121D01*
X-279121Y-8041125D01*
X-195106Y-8097263D01*
X-121018Y-8111999D01*
X126998Y-8111999D01*
X127000Y-8111998D01*
X381000Y-8111998D01*
X381001Y-8111999D01*
X629012Y-8111999D01*
X629022Y-8111998D01*
X703104Y-8097263D01*
X703107Y-8097262D01*
X787121Y-8041125D01*
X787125Y-8041121D01*
X843263Y-7957106D01*
X857999Y-7883019D01*
X858000Y-7883016D01*
X858000Y-7685001D01*
X857999Y-7685000D01*
X381001Y-7685000D01*
X381000Y-7685001D01*
X381000Y-8111998D01*
X127000Y-8111998D01*
X127000Y-7685001D01*
X126999Y-7685000D01*
X-349998Y-7685000D01*
X-349999Y-7685001D01*
X-349999Y-7883012D01*
X-1385500Y-7883012D01*
X-1385500Y-7498226D01*
X-1388313Y-7468231D01*
X-1388315Y-7468222D01*
X-1401340Y-7430999D01*
X-350000Y-7430999D01*
X-349999Y-7431000D01*
X126999Y-7431000D01*
X127000Y-7430999D01*
X381000Y-7430999D01*
X381001Y-7431000D01*
X857998Y-7431000D01*
X857999Y-7430999D01*
X857999Y-7232987D01*
X857998Y-7232977D01*
X843263Y-7158895D01*
X843262Y-7158892D01*
X787125Y-7074878D01*
X787121Y-7074874D01*
X703106Y-7018736D01*
X629019Y-7004000D01*
X381001Y-7004000D01*
X381000Y-7004001D01*
X381000Y-7430999D01*
X127000Y-7430999D01*
X127000Y-7004001D01*
X126999Y-7004000D01*
X-121013Y-7004000D01*
X-121022Y-7004001D01*
X-195104Y-7018736D01*
X-195107Y-7018737D01*
X-279121Y-7074874D01*
X-279125Y-7074878D01*
X-335263Y-7158893D01*
X-349999Y-7232980D01*
X-350000Y-7232983D01*
X-350000Y-7430999D01*
X-1401340Y-7430999D01*
X-1432543Y-7341824D01*
X-1512069Y-7234071D01*
X-1512071Y-7234069D01*
X-1619824Y-7154543D01*
X-1746222Y-7110315D01*
X-1746231Y-7110313D01*
X-1776226Y-7107500D01*
X-1776236Y-7107500D01*
X-2795764Y-7107500D01*
X-2795773Y-7107500D01*
X-2825768Y-7110313D01*
X-2825771Y-7110313D01*
X-2825774Y-7110314D01*
X-2825776Y-7110314D01*
X-2825777Y-7110315D01*
X-2952175Y-7154543D01*
X-2952176Y-7154544D01*
X-2952179Y-7154545D01*
X-3059930Y-7234070D01*
X-3139455Y-7341821D01*
X-3183686Y-7468226D01*
X-3183686Y-7468231D01*
X-3186499Y-7498226D01*
X-3186500Y-7498230D01*
X-3186500Y-8092770D01*
X-4725500Y-8092770D01*
X-4725500Y0D01*
X-4005325Y0D01*
X-3986038Y-392591D01*
X-3928364Y-781400D01*
X-3832857Y-1162684D01*
X-3700438Y-1532772D01*
X-3532381Y-1888097D01*
X-3532378Y-1888103D01*
X-3354724Y-2184500D01*
X-3330306Y-2225239D01*
X-3096158Y-2540951D01*
X-2832192Y-2832192D01*
X-2540951Y-3096158D01*
X-2225239Y-3330306D01*
X-2225229Y-3330311D01*
X-2225229Y-3330312D01*
X-1888103Y-3532378D01*
X-1888098Y-3532380D01*
X-1888097Y-3532381D01*
X-1532772Y-3700438D01*
X-1215478Y-3813967D01*
X-1162681Y-3832858D01*
X-781399Y-3928363D01*
X-781400Y-3928364D01*
X-392591Y-3986038D01*
X0Y-4005325D01*
X392591Y-3986038D01*
X781400Y-3928364D01*
X1162681Y-3832858D01*
X1215478Y-3813967D01*
X1532772Y-3700438D01*
X1590174Y-3673288D01*
X1650859Y-3665501D01*
X1704534Y-3694872D01*
X1730695Y-3750182D01*
X1731500Y-3762784D01*
X1731500Y-3763651D01*
X1728870Y-3786318D01*
X1726621Y-3795879D01*
X1731025Y-3827452D01*
X1731500Y-3834298D01*
X1731500Y-5422521D01*
X1712593Y-5480712D01*
X1702504Y-5492524D01*
X1428526Y-5766503D01*
X1374009Y-5794281D01*
X1358522Y-5795500D01*
X856294Y-5795500D01*
X798103Y-5776593D01*
X773979Y-5751502D01*
X772393Y-5749128D01*
X748552Y-5713448D01*
X748548Y-5713445D01*
X682233Y-5669134D01*
X682231Y-5669133D01*
X682228Y-5669132D01*
X682227Y-5669132D01*
X623758Y-5657501D01*
X623748Y-5657500D01*
X-115748Y-5657500D01*
X-174232Y-5669133D01*
X-188721Y-5678815D01*
X-243723Y-5695500D01*
X-1288573Y-5695500D01*
X-1346764Y-5676593D01*
X-1382728Y-5627093D01*
X-1387139Y-5605747D01*
X-1388038Y-5596169D01*
X-1388314Y-5593224D01*
X-1388315Y-5593222D01*
X-1432543Y-5466824D01*
X-1434976Y-5463528D01*
X-1468311Y-5418359D01*
X-1512069Y-5359071D01*
X-1512071Y-5359069D01*
X-1619824Y-5279543D01*
X-1746222Y-5235315D01*
X-1746231Y-5235313D01*
X-1776226Y-5232500D01*
X-1776236Y-5232500D01*
X-2795764Y-5232500D01*
X-2795773Y-5232500D01*
X-2825768Y-5235313D01*
X-2825771Y-5235313D01*
X-2825774Y-5235314D01*
X-2825776Y-5235314D01*
X-2825777Y-5235315D01*
X-2952175Y-5279543D01*
X-2952176Y-5279544D01*
X-2952179Y-5279545D01*
X-3059930Y-5359070D01*
X-3139455Y-5466821D01*
X-3183686Y-5593226D01*
X-3186409Y-5622269D01*
X-3186499Y-5623226D01*
X-3186500Y-5623230D01*
X-3186500Y-6217770D01*
X-3186499Y-6217772D01*
X-3183686Y-6247774D01*
X-3139455Y-6374179D01*
X-3059930Y-6481930D01*
X-2952179Y-6561455D01*
X-2825774Y-6605686D01*
X-2795772Y-6608499D01*
X-2795770Y-6608500D01*
X-2795764Y-6608500D01*
X-1776230Y-6608500D01*
X-1776226Y-6608499D01*
X-1746226Y-6605686D01*
X-1619821Y-6561455D01*
X-1619820Y-6561454D01*
X-1619819Y-6561454D01*
X-1558021Y-6515845D01*
X-1499974Y-6496503D01*
X-1499233Y-6496500D01*
X-364331Y-6496500D01*
X-306140Y-6515407D01*
X-282015Y-6540498D01*
X-240552Y-6602552D01*
X-174231Y-6646867D01*
X-115748Y-6658500D01*
X-115747Y-6658500D01*
X623747Y-6658500D01*
X623748Y-6658500D01*
X682231Y-6646867D01*
X748552Y-6602552D01*
X771123Y-6568773D01*
X2655500Y-6568773D01*
X2658313Y-6598768D01*
X2658315Y-6598777D01*
X2702543Y-6725175D01*
X2702544Y-6725176D01*
X2702545Y-6725179D01*
X2782070Y-6832930D01*
X2889821Y-6912455D01*
X3016226Y-6956686D01*
X3046226Y-6959499D01*
X3046230Y-6959500D01*
X3046236Y-6959500D01*
X4065770Y-6959500D01*
X4065772Y-6959499D01*
X4095774Y-6956686D01*
X4222179Y-6912455D01*
X4277403Y-6871696D01*
X4335447Y-6852356D01*
X4393778Y-6870827D01*
X4430112Y-6920056D01*
X4435189Y-6951353D01*
X4435189Y-8306832D01*
X4416282Y-8365023D01*
X4406192Y-8376836D01*
X4258208Y-8524819D01*
X4203692Y-8552596D01*
X4175283Y-8552968D01*
X4064001Y-8538318D01*
X4063999Y-8538318D01*
X3907241Y-8558955D01*
X3907233Y-8558957D01*
X3761161Y-8619462D01*
X3761160Y-8619462D01*
X3635723Y-8715713D01*
X3635713Y-8715723D01*
X3539462Y-8841160D01*
X3539462Y-8841161D01*
X3478957Y-8987233D01*
X3478955Y-8987241D01*
X3458318Y-9143999D01*
X3458318Y-9144000D01*
X3478955Y-9300758D01*
X3478957Y-9300766D01*
X3539462Y-9446838D01*
X3539462Y-9446839D01*
X3631668Y-9567004D01*
X3635718Y-9572282D01*
X3635722Y-9572285D01*
X3635723Y-9572286D01*
X3668799Y-9597666D01*
X3703455Y-9648090D01*
X3701854Y-9709255D01*
X3664606Y-9757796D01*
X3608532Y-9775208D01*
X3287236Y-9775208D01*
X3257241Y-9778021D01*
X3257232Y-9778023D01*
X3130834Y-9822251D01*
X3023081Y-9901777D01*
X3023079Y-9901779D01*
X3005389Y-9925748D01*
X2946820Y-10005106D01*
X2943553Y-10009532D01*
X2899325Y-10135930D01*
X2899323Y-10135939D01*
X2896510Y-10165934D01*
X2896510Y-11185481D01*
X2899323Y-11215476D01*
X2899325Y-11215485D01*
X2943553Y-11341883D01*
X2943554Y-11341884D01*
X2943555Y-11341887D01*
X3023080Y-11449638D01*
X3093788Y-11501824D01*
X3129380Y-11551591D01*
X3133999Y-11581478D01*
X3133999Y-11831123D01*
X3115092Y-11889314D01*
X3093791Y-11910775D01*
X3073070Y-11926069D01*
X3073067Y-11926072D01*
X2993545Y-12033820D01*
X2993544Y-12033823D01*
X2949315Y-12160222D01*
X2949313Y-12160231D01*
X2946500Y-12190226D01*
X2946500Y-13209773D01*
X2949313Y-13239768D01*
X2949315Y-13239777D01*
X2993543Y-13366175D01*
X2993544Y-13366176D01*
X2993545Y-13366179D01*
X3073070Y-13473930D01*
X3073073Y-13473932D01*
X3093789Y-13489222D01*
X3129381Y-13538991D01*
X3133999Y-13568876D01*
X3134000Y-13863123D01*
X3115093Y-13921313D01*
X3093791Y-13942776D01*
X3073068Y-13958070D01*
X3073067Y-13958072D01*
X2993545Y-14065820D01*
X2993544Y-14065823D01*
X2949315Y-14192222D01*
X2949313Y-14192231D01*
X2946500Y-14222226D01*
X2946500Y-15241773D01*
X2949313Y-15271768D01*
X2949315Y-15271777D01*
X2993543Y-15398175D01*
X2993544Y-15398176D01*
X2993545Y-15398179D01*
X3073070Y-15505930D01*
X3180821Y-15585455D01*
X3307226Y-15629686D01*
X3337226Y-15632499D01*
X3337230Y-15632500D01*
X3337236Y-15632500D01*
X3931770Y-15632500D01*
X3931772Y-15632499D01*
X3961774Y-15629686D01*
X4088179Y-15585455D01*
X4195930Y-15505930D01*
X4275455Y-15398179D01*
X4319686Y-15271774D01*
X4322499Y-15241772D01*
X4322500Y-15241770D01*
X4322500Y-14614984D01*
X4341407Y-14556793D01*
X4390907Y-14520829D01*
X4452093Y-14520829D01*
X4491501Y-14544978D01*
X4792505Y-14845982D01*
X4820281Y-14900497D01*
X4821500Y-14915984D01*
X4821500Y-15241773D01*
X4824313Y-15271768D01*
X4824315Y-15271777D01*
X4868543Y-15398175D01*
X4868544Y-15398176D01*
X4868545Y-15398179D01*
X4948070Y-15505930D01*
X4968789Y-15521222D01*
X5004381Y-15570989D01*
X5009000Y-15600876D01*
X5009000Y-15895123D01*
X4990093Y-15953314D01*
X4968791Y-15974776D01*
X4948068Y-15990070D01*
X4948067Y-15990072D01*
X4868545Y-16097820D01*
X4868544Y-16097823D01*
X4824315Y-16224222D01*
X4824313Y-16224231D01*
X4821500Y-16254226D01*
X4821500Y-17273773D01*
X4824313Y-17303768D01*
X4824315Y-17303777D01*
X4868543Y-17430175D01*
X4868544Y-17430176D01*
X4868545Y-17430179D01*
X4948070Y-17537930D01*
X5055821Y-17617455D01*
X5182226Y-17661686D01*
X5212226Y-17664499D01*
X5212230Y-17664500D01*
X5212236Y-17664500D01*
X5806770Y-17664500D01*
X5806772Y-17664499D01*
X5836774Y-17661686D01*
X5963179Y-17617455D01*
X6070930Y-17537930D01*
X6150455Y-17430179D01*
X6194686Y-17303774D01*
X6197499Y-17273772D01*
X6197500Y-17273770D01*
X6197500Y-16254230D01*
X6197499Y-16254226D01*
X6194686Y-16224231D01*
X6194686Y-16224226D01*
X6150455Y-16097821D01*
X6111135Y-16044545D01*
X6070932Y-15990072D01*
X6070930Y-15990069D01*
X6050210Y-15974777D01*
X6014618Y-15925009D01*
X6010000Y-15895129D01*
X6010000Y-15600876D01*
X6028908Y-15542685D01*
X6050209Y-15521222D01*
X6070930Y-15505930D01*
X6150455Y-15398179D01*
X6194686Y-15271774D01*
X6197499Y-15241772D01*
X6197500Y-15241770D01*
X6197500Y-14222230D01*
X6197499Y-14222226D01*
X6194686Y-14192231D01*
X6194686Y-14192226D01*
X6150455Y-14065821D01*
X6070930Y-13958070D01*
X5963179Y-13878545D01*
X5847481Y-13838060D01*
X5798802Y-13800996D01*
X5781205Y-13742396D01*
X5801413Y-13684644D01*
X5851708Y-13649800D01*
X5857414Y-13648270D01*
X5860146Y-13647624D01*
X5994247Y-13597608D01*
X6108826Y-13511834D01*
X6108834Y-13511826D01*
X6194608Y-13397247D01*
X6244624Y-13263147D01*
X6244626Y-13263136D01*
X6251000Y-13203851D01*
X6251000Y-12827001D01*
X6250999Y-12827000D01*
X5481500Y-12827000D01*
X5423309Y-12808093D01*
X5387345Y-12758593D01*
X5382500Y-12728000D01*
X5382500Y-12672000D01*
X5401407Y-12613809D01*
X5450907Y-12577845D01*
X5481500Y-12573000D01*
X6250998Y-12573000D01*
X6250999Y-12572999D01*
X6250999Y-12196151D01*
X6250998Y-12196145D01*
X6244626Y-12136860D01*
X6244625Y-12136855D01*
X6194608Y-12002752D01*
X6108834Y-11888173D01*
X6108826Y-11888165D01*
X5994247Y-11802391D01*
X5860147Y-11752375D01*
X5860136Y-11752373D01*
X5849138Y-11751191D01*
X5793302Y-11726172D01*
X5762835Y-11673111D01*
X5769375Y-11612276D01*
X5810424Y-11566904D01*
X5827015Y-11559316D01*
X5913189Y-11529163D01*
X6020940Y-11449638D01*
X6100465Y-11341887D01*
X6144696Y-11215482D01*
X6147509Y-11185480D01*
X6147510Y-11185478D01*
X6147510Y-10165938D01*
X6147509Y-10165934D01*
X6144696Y-10135934D01*
X6100465Y-10009529D01*
X6020940Y-9901778D01*
X6020935Y-9901774D01*
X6004049Y-9889311D01*
X5968458Y-9839543D01*
X5968918Y-9778359D01*
X6005252Y-9729131D01*
X6024951Y-9718195D01*
X6144841Y-9668536D01*
X6270282Y-9572282D01*
X6366536Y-9446841D01*
X6427044Y-9300762D01*
X6447682Y-9144000D01*
X6427044Y-8987238D01*
X6383032Y-8880983D01*
X6366537Y-8841161D01*
X6366537Y-8841160D01*
X6270286Y-8715723D01*
X6270285Y-8715722D01*
X6270282Y-8715718D01*
X6270277Y-8715714D01*
X6270276Y-8715713D01*
X6144838Y-8619462D01*
X5998766Y-8558957D01*
X5998758Y-8558955D01*
X5842001Y-8538318D01*
X5841999Y-8538318D01*
X5685241Y-8558955D01*
X5685233Y-8558957D01*
X5573084Y-8605411D01*
X5512088Y-8610212D01*
X5459919Y-8578242D01*
X5436504Y-8521714D01*
X5436199Y-8513947D01*
X5436199Y-8368499D01*
X5455106Y-8310308D01*
X5504606Y-8274344D01*
X5535199Y-8269499D01*
X6108699Y-8269499D01*
X6108700Y-8269498D01*
X6362700Y-8269498D01*
X6362701Y-8269499D01*
X7060712Y-8269499D01*
X7060722Y-8269498D01*
X7134804Y-8254763D01*
X7134807Y-8254762D01*
X7218821Y-8198625D01*
X7218825Y-8198621D01*
X7274963Y-8114606D01*
X7289699Y-8040519D01*
X7289700Y-8040516D01*
X7289700Y-7937501D01*
X7289699Y-7937500D01*
X6362701Y-7937500D01*
X6362700Y-7937501D01*
X6362700Y-8269498D01*
X6108700Y-8269498D01*
X6108700Y-7782500D01*
X6127607Y-7724309D01*
X6177107Y-7688345D01*
X6207700Y-7683500D01*
X7289698Y-7683500D01*
X7289699Y-7683499D01*
X7289699Y-7580487D01*
X7289698Y-7580477D01*
X7274963Y-7506395D01*
X7274962Y-7506392D01*
X7251605Y-7471436D01*
X7234996Y-7412548D01*
X7235877Y-7405107D01*
X7235723Y-7405092D01*
X7236200Y-7400246D01*
X7236200Y-6950753D01*
X7236200Y-6950752D01*
X7224567Y-6892269D01*
X7224565Y-6892267D01*
X7222664Y-6882706D01*
X7224991Y-6882243D01*
X7221264Y-6834889D01*
X7224055Y-6826298D01*
X7224565Y-6823733D01*
X7224567Y-6823731D01*
X7236200Y-6765248D01*
X7236200Y-6315752D01*
X7224567Y-6257269D01*
X7224565Y-6257267D01*
X7222664Y-6247706D01*
X7224991Y-6247243D01*
X7221264Y-6199889D01*
X7224055Y-6191298D01*
X7224565Y-6188733D01*
X7224567Y-6188731D01*
X7236200Y-6130248D01*
X7236200Y-5680752D01*
X7224567Y-5622269D01*
X7224565Y-5622267D01*
X7222664Y-5612706D01*
X7224991Y-5612243D01*
X7221264Y-5564889D01*
X7224055Y-5556298D01*
X7224565Y-5553733D01*
X7224567Y-5553731D01*
X7236200Y-5495248D01*
X7236200Y-5045752D01*
X7224567Y-4987269D01*
X7224565Y-4987267D01*
X7222664Y-4977706D01*
X7224991Y-4977243D01*
X7221264Y-4929889D01*
X7224055Y-4921298D01*
X7224565Y-4918733D01*
X7224567Y-4918731D01*
X7236200Y-4860248D01*
X7236200Y-4410752D01*
X7236199Y-4410751D01*
X7235723Y-4405908D01*
X7237791Y-4405704D01*
X7244009Y-4353128D01*
X7251605Y-4339562D01*
X7274963Y-4304604D01*
X7289699Y-4230519D01*
X7289700Y-4230516D01*
X7289700Y-4127501D01*
X7289699Y-4127500D01*
X5181702Y-4127500D01*
X5181701Y-4127501D01*
X5181701Y-4233692D01*
X5162794Y-4291883D01*
X5113294Y-4327847D01*
X5087274Y-4332586D01*
X5050890Y-4334268D01*
X5036206Y-4334947D01*
X5033930Y-4335000D01*
X5014153Y-4335000D01*
X5010658Y-4335653D01*
X5003845Y-4336443D01*
X4972010Y-4337914D01*
X4972006Y-4337915D01*
X4963015Y-4341885D01*
X4941227Y-4348632D01*
X4931570Y-4350437D01*
X4931564Y-4350439D01*
X4904466Y-4367217D01*
X4898399Y-4370415D01*
X4869237Y-4383292D01*
X4869233Y-4383295D01*
X4862284Y-4390244D01*
X4844409Y-4404403D01*
X4836048Y-4409580D01*
X4816836Y-4435019D01*
X4812332Y-4440196D01*
X4679004Y-4573524D01*
X4624487Y-4601301D01*
X4564055Y-4591730D01*
X4520790Y-4548465D01*
X4516312Y-4529813D01*
X4509999Y-4523500D01*
X3683001Y-4523500D01*
X3682999Y-4523501D01*
X3682999Y-5137998D01*
X3683000Y-5137999D01*
X3875522Y-5137999D01*
X3933713Y-5156906D01*
X3969677Y-5206406D01*
X3969677Y-5267592D01*
X3945526Y-5307002D01*
X3698026Y-5554503D01*
X3643509Y-5582281D01*
X3628022Y-5583500D01*
X3046226Y-5583500D01*
X3016231Y-5586313D01*
X3016222Y-5586315D01*
X2889824Y-5630543D01*
X2889821Y-5630544D01*
X2889821Y-5630545D01*
X2841359Y-5666311D01*
X2782071Y-5710069D01*
X2782069Y-5710071D01*
X2702543Y-5817824D01*
X2658315Y-5944222D01*
X2658313Y-5944231D01*
X2655500Y-5974226D01*
X2655500Y-6568773D01*
X771123Y-6568773D01*
X792867Y-6536231D01*
X797881Y-6511022D01*
X804812Y-6476185D01*
X834709Y-6422801D01*
X890274Y-6397186D01*
X901909Y-6396500D01*
X1458836Y-6396500D01*
X1472511Y-6398732D01*
X1472683Y-6397506D01*
X1481764Y-6398772D01*
X1481765Y-6398773D01*
X1481765Y-6398772D01*
X1481766Y-6398773D01*
X1490507Y-6398368D01*
X1529793Y-6396552D01*
X1532070Y-6396500D01*
X1551841Y-6396500D01*
X1551844Y-6396500D01*
X1555337Y-6395846D01*
X1562141Y-6395056D01*
X1593992Y-6393585D01*
X1602976Y-6389617D01*
X1624777Y-6382865D01*
X1634433Y-6381061D01*
X1661543Y-6364274D01*
X1667589Y-6361088D01*
X1696765Y-6348206D01*
X1703709Y-6341260D01*
X1721601Y-6327089D01*
X1729952Y-6321919D01*
X1749165Y-6296474D01*
X1753662Y-6291308D01*
X1950734Y-6094236D01*
X2198405Y-5846564D01*
X2209664Y-5838493D01*
X2208905Y-5837487D01*
X2216221Y-5831961D01*
X2216228Y-5831958D01*
X2248632Y-5796411D01*
X2250186Y-5794783D01*
X2264174Y-5780797D01*
X2266181Y-5777865D01*
X2270440Y-5772490D01*
X2275898Y-5766503D01*
X2291916Y-5748933D01*
X2295465Y-5739770D01*
X2306106Y-5719582D01*
X2311656Y-5711481D01*
X2318955Y-5680443D01*
X2320977Y-5673914D01*
X2332500Y-5644173D01*
X2332500Y-5634348D01*
X2335129Y-5611683D01*
X2337379Y-5602119D01*
X2332975Y-5570547D01*
X2332500Y-5563701D01*
X2332500Y-4523500D01*
X2602001Y-4523500D01*
X2602001Y-4687854D01*
X2608373Y-4747139D01*
X2608374Y-4747144D01*
X2658391Y-4881247D01*
X2744165Y-4995826D01*
X2744173Y-4995834D01*
X2858752Y-5081608D01*
X2992852Y-5131624D01*
X2992863Y-5131626D01*
X3052148Y-5137999D01*
X3428998Y-5137999D01*
X3429000Y-5137998D01*
X3429000Y-4523500D01*
X2602001Y-4523500D01*
X2332500Y-4523500D01*
X2332500Y-3975478D01*
X2351407Y-3917287D01*
X2361490Y-3905480D01*
X2582338Y-3684632D01*
X2636853Y-3656857D01*
X2697285Y-3666428D01*
X2740550Y-3709693D01*
X2750121Y-3770125D01*
X2731594Y-3813967D01*
X2658390Y-3911754D01*
X2608375Y-4045852D01*
X2608373Y-4045863D01*
X2602000Y-4105148D01*
X2602000Y-4269499D01*
X2602001Y-4269500D01*
X4509998Y-4269500D01*
X4509999Y-4269499D01*
X4509999Y-4105151D01*
X4509998Y-4105145D01*
X4503626Y-4045860D01*
X4503625Y-4045855D01*
X4453608Y-3911752D01*
X4367834Y-3797173D01*
X4367826Y-3797165D01*
X4345902Y-3780753D01*
X4310649Y-3730745D01*
X4311523Y-3669566D01*
X4348190Y-3620584D01*
X4405231Y-3602500D01*
X5094481Y-3602500D01*
X5152672Y-3621407D01*
X5188636Y-3670907D01*
X5191579Y-3720813D01*
X5181700Y-3770478D01*
X5181700Y-3873499D01*
X5181701Y-3873500D01*
X7289698Y-3873500D01*
X7289699Y-3873499D01*
X7289699Y-3770487D01*
X7289698Y-3770477D01*
X7274963Y-3696395D01*
X7274962Y-3696392D01*
X7251605Y-3661436D01*
X7234996Y-3602548D01*
X7235877Y-3595107D01*
X7235723Y-3595092D01*
X7236200Y-3590246D01*
X7236200Y-3140753D01*
X7236198Y-3140741D01*
X7233411Y-3126731D01*
X7224567Y-3082269D01*
X7180252Y-3015948D01*
X7180248Y-3015945D01*
X7113933Y-2971634D01*
X7113931Y-2971633D01*
X7113928Y-2971632D01*
X7113927Y-2971632D01*
X7055458Y-2960001D01*
X7055448Y-2960000D01*
X7055447Y-2960000D01*
X6635200Y-2960000D01*
X6577009Y-2941093D01*
X6541045Y-2891593D01*
X6536200Y-2861000D01*
X6536200Y-2076851D01*
X6555107Y-2018660D01*
X6604607Y-1982696D01*
X6619023Y-1979682D01*
X6618977Y-1979450D01*
X6654019Y-1972478D01*
X6682231Y-1966867D01*
X6748552Y-1922552D01*
X6792867Y-1856231D01*
X6804500Y-1797748D01*
X6804500Y-234252D01*
X6792867Y-175769D01*
X6748552Y-109448D01*
X6748548Y-109445D01*
X6682233Y-65134D01*
X6682231Y-65133D01*
X6682228Y-65132D01*
X6682227Y-65132D01*
X6623758Y-53501D01*
X6623748Y-53500D01*
X5060252Y-53500D01*
X5060251Y-53500D01*
X5060241Y-53501D01*
X5001772Y-65132D01*
X5001766Y-65134D01*
X4935451Y-109445D01*
X4935445Y-109451D01*
X4891134Y-175766D01*
X4891132Y-175772D01*
X4879501Y-234241D01*
X4879500Y-234253D01*
X4879500Y-1797746D01*
X4879501Y-1797758D01*
X4891132Y-1856227D01*
X4891134Y-1856233D01*
X4935445Y-1922548D01*
X4935448Y-1922552D01*
X5001769Y-1966867D01*
X5046231Y-1975711D01*
X5060241Y-1978498D01*
X5060246Y-1978498D01*
X5060252Y-1978500D01*
X5836200Y-1978500D01*
X5894391Y-1997407D01*
X5930355Y-2046907D01*
X5935200Y-2077500D01*
X5935200Y-2861000D01*
X5916293Y-2919191D01*
X5866793Y-2955155D01*
X5836200Y-2960000D01*
X5415951Y-2960000D01*
X5357467Y-2971633D01*
X5337741Y-2984815D01*
X5282739Y-3001500D01*
X2901891Y-3001500D01*
X2843700Y-2982593D01*
X2807736Y-2933093D01*
X2807736Y-2871907D01*
X2830823Y-2834231D01*
X2830560Y-2833993D01*
X2831824Y-2832597D01*
X2831887Y-2832496D01*
X2832171Y-2832210D01*
X2832192Y-2832192D01*
X3096158Y-2540951D01*
X3330306Y-2225239D01*
X3354724Y-2184500D01*
X3532378Y-1888103D01*
X3532381Y-1888097D01*
X3700438Y-1532772D01*
X3832857Y-1162684D01*
X3928364Y-781400D01*
X3986038Y-392591D01*
X4005325Y0D01*
X3986038Y392591D01*
X3928364Y781400D01*
X3849949Y1094450D01*
X3832858Y1162681D01*
X3803859Y1243728D01*
X3700438Y1532772D01*
X3644520Y1651000D01*
X4826000Y1651000D01*
X5415056Y1651000D01*
X5393736Y1557593D01*
X5403749Y1423972D01*
X5414335Y1397000D01*
X4826002Y1397000D01*
X4826001Y1396998D01*
X4826001Y736977D01*
X4840736Y662895D01*
X4840737Y662892D01*
X4896874Y578878D01*
X4896878Y578874D01*
X4980893Y522736D01*
X5054980Y508000D01*
X5714999Y508000D01*
X5715000Y508001D01*
X5715000Y1098008D01*
X5775002Y1079500D01*
X5875312Y1079500D01*
X5969000Y1093621D01*
X5969000Y508000D01*
X6629013Y508000D01*
X6629022Y508001D01*
X6703104Y522736D01*
X6703107Y522737D01*
X6787121Y578874D01*
X6787125Y578878D01*
X6843263Y662893D01*
X6857999Y736980D01*
X6858000Y736983D01*
X6858000Y1396998D01*
X6857999Y1397000D01*
X6268944Y1397000D01*
X6290264Y1490407D01*
X6280251Y1624028D01*
X6269665Y1651000D01*
X6857998Y1651000D01*
X6857999Y1651001D01*
X6857999Y2311012D01*
X6857998Y2311022D01*
X6843263Y2385104D01*
X6843262Y2385107D01*
X6787125Y2469121D01*
X6787121Y2469125D01*
X6703106Y2525263D01*
X6629018Y2539999D01*
X5969001Y2539999D01*
X5969000Y2539998D01*
X5969000Y1949991D01*
X5908998Y1968500D01*
X5808688Y1968500D01*
X5715000Y1954378D01*
X5715000Y2539998D01*
X5714999Y2539999D01*
X5054988Y2539999D01*
X5054977Y2539998D01*
X4980895Y2525263D01*
X4980892Y2525262D01*
X4896878Y2469125D01*
X4896874Y2469121D01*
X4840736Y2385106D01*
X4826000Y2311019D01*
X4826000Y1651000D01*
X3644520Y1651000D01*
X3532381Y1888097D01*
X3532380Y1888098D01*
X3532378Y1888103D01*
X3330312Y2225229D01*
X3330311Y2225229D01*
X3330306Y2225239D01*
X3096158Y2540951D01*
X2832192Y2832192D01*
X2540951Y3096158D01*
X2225239Y3330306D01*
X2011664Y3458318D01*
X1888103Y3532378D01*
X1873121Y3539464D01*
X1532772Y3700438D01*
X1162684Y3832857D01*
X1162683Y3832857D01*
X1162681Y3832858D01*
X781400Y3928364D01*
X392591Y3986038D01*
X0Y4005325D01*
X-392591Y3986038D01*
X-781400Y3928364D01*
X-1162681Y3832858D01*
X-1162683Y3832857D01*
X-1162684Y3832857D01*
X-1532772Y3700438D01*
X-1873121Y3539464D01*
X-1888103Y3532378D01*
X-2011664Y3458318D01*
X-2225239Y3330306D01*
X-2540951Y3096158D01*
X-2832192Y2832192D01*
X-3096158Y2540951D01*
X-3330306Y2225239D01*
X-3330311Y2225229D01*
X-3330312Y2225229D01*
X-3532378Y1888103D01*
X-3532380Y1888098D01*
X-3532381Y1888097D01*
X-3700438Y1532772D01*
X-3803859Y1243728D01*
X-3832858Y1162681D01*
X-3849949Y1094450D01*
X-3928364Y781400D01*
X-3986038Y392591D01*
X-4005325Y0D01*
X-4725500Y0D01*
X-4725500Y4626500D01*
X-4706593Y4684691D01*
X-4657093Y4720655D01*
X-4626500Y4725500D01*
X8283000Y4725500D01*
X8341191Y4706593D01*
G37*
%TD.AperFunction*%
%TD*%
M02*
