%TF.GenerationSoftware,KiCad,Pcbnew,7.0.5.1-1-g8f565ef7f0-dirty-deb11*%
%TF.CreationDate,2023-07-08T01:44:23+00:00*%
%TF.ProjectId,VCAI2C02,56434149-3243-4303-922e-6b696361645f,rev?*%
%TF.SameCoordinates,Original*%
%TF.FileFunction,Copper,L1,Top*%
%TF.FilePolarity,Positive*%
%FSLAX46Y46*%
G04 Gerber Fmt 4.6, Leading zero omitted, Abs format (unit mm)*
G04 Created by KiCad (PCBNEW 7.0.5.1-1-g8f565ef7f0-dirty-deb11) date 2023-07-08 01:44:23*
%MOMM*%
%LPD*%
G01*
G04 APERTURE LIST*
%TA.AperFunction,ComponentPad*%
%ADD10R,1.524000X1.524000*%
%TD*%
%TA.AperFunction,ComponentPad*%
%ADD11C,6.000000*%
%TD*%
%TA.AperFunction,ComponentPad*%
%ADD12C,1.524000*%
%TD*%
%TA.AperFunction,ComponentPad*%
%ADD13C,2.500000*%
%TD*%
%TA.AperFunction,ComponentPad*%
%ADD14C,3.500000*%
%TD*%
%TA.AperFunction,ComponentPad*%
%ADD15C,2.000000*%
%TD*%
%TA.AperFunction,ViaPad*%
%ADD16C,0.800000*%
%TD*%
%TA.AperFunction,Conductor*%
%ADD17C,0.200000*%
%TD*%
%TA.AperFunction,Conductor*%
%ADD18C,0.600000*%
%TD*%
G04 APERTURE END LIST*
D10*
%TO.P,J4,1*%
%TO.N,GNDD*%
X11684000Y-1016000D03*
%TO.P,J4,2*%
X11684000Y1524000D03*
%TO.P,J4,3*%
%TO.N,/SDA*%
X14224000Y-1016000D03*
%TO.P,J4,4*%
X14224000Y1524000D03*
%TO.P,J4,5*%
%TO.N,VCC*%
X16764000Y-1016000D03*
%TO.P,J4,6*%
X16764000Y1524000D03*
%TO.P,J4,7*%
%TO.N,/SCL*%
X19304000Y-1016000D03*
%TO.P,J4,8*%
X19304000Y1524000D03*
%TO.P,J4,9*%
%TO.N,GNDD*%
X21844000Y-1016000D03*
%TO.P,J4,10*%
X21844000Y1524000D03*
%TD*%
%TO.P,J5,1*%
%TO.N,Net-(D1-Pad1)*%
X5842000Y-1016000D03*
%TO.P,J5,2*%
%TO.N,GNDPWR*%
X5842000Y1524000D03*
%TD*%
%TO.P,J6,1*%
%TO.N,Net-(J6-Pad1)*%
X59690000Y-10414000D03*
%TO.P,J6,2*%
%TO.N,+5V*%
X59690000Y-7874000D03*
%TO.P,J6,3*%
%TO.N,Net-(J6-Pad3)*%
X62230000Y-10414000D03*
%TO.P,J6,4*%
%TO.N,+5V*%
X62230000Y-7874000D03*
%TD*%
D11*
%TO.P,MH1,1*%
%TO.N,N/C*%
X60960000Y0D03*
%TD*%
%TO.P,MH2,1*%
%TO.N,N/C*%
X0Y-20320000D03*
%TD*%
%TO.P,MH3,1*%
%TO.N,N/C*%
X60960000Y-20320000D03*
%TD*%
%TO.P,MH4,1*%
%TO.N,N/C*%
X0Y0D03*
%TD*%
D12*
%TO.P,TR1,1*%
%TO.N,/Vout*%
X22860000Y-23622000D03*
%TO.P,TR1,2*%
%TO.N,GNDD*%
X25400000Y-23622000D03*
%TO.P,TR1,3*%
%TO.N,+5V*%
X27940000Y-23622000D03*
D13*
%TO.P,TR1,MP*%
%TO.N,N/C*%
X26240000Y-6422000D03*
X55240000Y-18422000D03*
%TD*%
D14*
%TO.P,J1,1*%
%TO.N,Net-(D3-Pad3)*%
X13930000Y-11002000D03*
%TO.P,J1,2*%
%TO.N,Net-(D3-Pad4)*%
X8930000Y-11002000D03*
D15*
%TO.P,J1,MP*%
%TO.N,N/C*%
X16930000Y-21002000D03*
X5930000Y-21002000D03*
%TD*%
D16*
%TO.N,GNDPWR*%
X-4064000Y-18288000D03*
X-4064000Y-13208000D03*
X9906000Y-18034000D03*
X-4064000Y-2286000D03*
X-4064000Y-7366000D03*
X9905994Y-21590000D03*
X17780000Y-19050000D03*
X7366000Y-24384002D03*
X2540000Y-24384000D03*
X17526000Y-24384000D03*
X7874000Y-6D03*
X13970000Y-18034000D03*
X-4064000Y-24384000D03*
X-4064000Y4064000D03*
X2032000Y4064000D03*
X12446000Y-24384000D03*
X13970000Y-21590000D03*
X7874000Y-4064004D03*
X7874000Y-8636000D03*
%TO.N,GNDD*%
X65024000Y-2540000D03*
X65024000Y-13208000D03*
X18034000Y-10668000D03*
X65024000Y4064000D03*
X20828000Y-19050000D03*
X20828000Y4064000D03*
X34290000Y4064000D03*
X50038000Y4125990D03*
X29464000Y-24446000D03*
X20828000Y-24384000D03*
X18033994Y-16256000D03*
X10160000Y0D03*
X65024000Y-7620000D03*
X41910004Y4064000D03*
X41910000Y-24445988D03*
X65024000Y-24446000D03*
X34798000Y-24446000D03*
X10160000Y4064000D03*
X57404000Y-24446000D03*
X10155119Y-4317061D03*
X10144298Y-7366000D03*
X12954000Y4064000D03*
X27686000Y4064000D03*
X65086000Y-18288000D03*
X50038000Y-24384000D03*
X57403994Y4064000D03*
X20828000Y-16256000D03*
%TO.N,+5V*%
X34480500Y-10468000D03*
X34480500Y-13335000D03*
%TO.N,Net-(D3-Pad3)*%
X-1016000Y-15494000D03*
%TO.N,Net-(D3-Pad4)*%
X254000Y-14224000D03*
%TO.N,/SDA*%
X28194000Y-9906000D03*
%TO.N,/SCL*%
X27178000Y-9205990D03*
%TO.N,/REFout2*%
X4064000Y-9144000D03*
X5842000Y-9144000D03*
%TD*%
D17*
%TO.N,GNDPWR*%
X-4064000Y-7619996D02*
X-4064004Y-7620000D01*
X5842000Y1524000D02*
X5842000Y3556000D01*
X14986000Y-19050000D02*
X14369999Y-18433999D01*
X13970000Y-21590000D02*
X9905994Y-21590000D01*
X-4064000Y-2286000D02*
X-4064000Y-7619996D01*
X-4318000Y-18542000D02*
X-4064000Y-18288000D01*
X-4318000Y-24130000D02*
X-4318000Y-18542000D01*
X14369999Y-18433999D02*
X13970000Y-18034000D01*
X7874000Y-8636000D02*
X7874000Y-4064004D01*
X6604000Y-24384000D02*
X7365998Y-24384000D01*
X5842000Y1524000D02*
X7366000Y1524000D01*
X17526000Y-19050000D02*
X14986000Y-19050000D01*
X7874000Y1016000D02*
X7874000Y-6D01*
X-4064000Y-24384000D02*
X-4318000Y-24130000D01*
X2032000Y4318000D02*
X2286000Y4064000D01*
X17780000Y-19304000D02*
X17526000Y-19050000D01*
X-4064000Y4064000D02*
X-3810000Y4318000D01*
X2540000Y-24384000D02*
X6604000Y-24384000D01*
X17526000Y-24384000D02*
X12446000Y-24384000D01*
X7365998Y-24384000D02*
X7366000Y-24384002D01*
X5334000Y4064000D02*
X2032000Y4064000D01*
X-3810000Y4318000D02*
X2032000Y4318000D01*
X5842000Y3556000D02*
X5334000Y4064000D01*
X7366000Y1524000D02*
X7874000Y1016000D01*
%TO.N,GNDD*%
X65024000Y-18226000D02*
X65086000Y-18288000D01*
X65024000Y-2540000D02*
X65024000Y-7620000D01*
X10144298Y-7366000D02*
X10144298Y-4327882D01*
X64770000Y4318000D02*
X57657994Y4318000D01*
X27686000Y4064000D02*
X34290000Y4064000D01*
X65024000Y-13208000D02*
X65024000Y-18226000D01*
X65024000Y-24446000D02*
X57404000Y-24446000D01*
X18034000Y-16002000D02*
X18034000Y-16255994D01*
X50038000Y-24384000D02*
X42672000Y-24384000D01*
X57657994Y4318000D02*
X57403994Y4064000D01*
X41971988Y-24384000D02*
X41910000Y-24445988D01*
X10144298Y-4327882D02*
X10155119Y-4317061D01*
X20828000Y-16256000D02*
X20828000Y-19304000D01*
X41971994Y4125990D02*
X41910004Y4064000D01*
X65024000Y4064000D02*
X64770000Y4318000D01*
X10160000Y0D02*
X10160000Y4064000D01*
X34798000Y-24446000D02*
X29464000Y-24446000D01*
X18034000Y-16255994D02*
X18033994Y-16256000D01*
X50038000Y4125990D02*
X41971994Y4125990D01*
X42672000Y-24384000D02*
X41971988Y-24384000D01*
X12954000Y4064000D02*
X20574000Y4064000D01*
X18034000Y-10668000D02*
X18034000Y-16002000D01*
D18*
%TO.N,+5V*%
X34480500Y-13335000D02*
X34480500Y-10468000D01*
%TO.N,Net-(D3-Pad3)*%
X13970000Y-11176000D02*
X13970000Y-11042000D01*
X-1016000Y-15494000D02*
X9652000Y-15494000D01*
X9652000Y-15494000D02*
X13970000Y-11176000D01*
X13970000Y-11042000D02*
X13930000Y-11002000D01*
%TO.N,Net-(D3-Pad4)*%
X6858000Y-14224000D02*
X6350000Y-14224000D01*
X8930000Y-11002000D02*
X8930000Y-12152000D01*
X6350000Y-14224000D02*
X254000Y-14224000D01*
X508000Y-14478000D02*
X254000Y-14224000D01*
X8930000Y-12152000D02*
X6858000Y-14224000D01*
D17*
%TO.N,/SDA*%
X18796000Y-3302000D02*
X18034000Y-2540000D01*
X18034000Y-2540000D02*
X14478000Y-2540000D01*
X20574000Y-9906000D02*
X18796000Y-8128000D01*
X18796000Y-8128000D02*
X18796000Y-3302000D01*
X14224000Y-2286000D02*
X14224000Y-1016000D01*
X14478000Y-2540000D02*
X14224000Y-2286000D01*
X28194000Y-9906000D02*
X20574000Y-9906000D01*
%TO.N,/SCL*%
X19304000Y-1016000D02*
X19304000Y-7874000D01*
X20635990Y-9205990D02*
X27116010Y-9205990D01*
X19304000Y-7874000D02*
X20635990Y-9205990D01*
X27116010Y-9205990D02*
X27178000Y-9144000D01*
%TO.N,/REFout2*%
X4064000Y-9144000D02*
X5842000Y-9144000D01*
%TD*%
%TA.AperFunction,Conductor*%
%TO.N,GNDD*%
G36*
X65644691Y4706593D02*
G01*
X65680655Y4657093D01*
X65685500Y4626500D01*
X65685500Y-24946500D01*
X65666593Y-25004691D01*
X65617093Y-25040655D01*
X65586500Y-25045500D01*
X20165000Y-25045500D01*
X20106809Y-25026593D01*
X20070845Y-24977093D01*
X20066000Y-24946500D01*
X20066000Y-23622003D01*
X21892843Y-23622003D01*
X21911425Y-23810678D01*
X21911426Y-23810683D01*
X21966463Y-23992115D01*
X21966465Y-23992120D01*
X22014058Y-24081159D01*
X22055838Y-24159324D01*
X22055840Y-24159326D01*
X22055841Y-24159328D01*
X22111574Y-24227238D01*
X22176117Y-24305883D01*
X22322676Y-24426162D01*
X22489885Y-24515537D01*
X22616279Y-24553877D01*
X22671316Y-24570573D01*
X22671321Y-24570574D01*
X22859997Y-24589157D01*
X22860000Y-24589157D01*
X22860003Y-24589157D01*
X23048678Y-24570574D01*
X23048683Y-24570573D01*
X23066389Y-24565202D01*
X23230115Y-24515537D01*
X23397324Y-24426162D01*
X23543883Y-24305883D01*
X23664162Y-24159324D01*
X23753537Y-23992115D01*
X23808573Y-23810683D01*
X23808574Y-23810678D01*
X23827157Y-23622003D01*
X24379084Y-23622003D01*
X24398699Y-23821166D01*
X24398700Y-23821171D01*
X24456797Y-24012688D01*
X24456799Y-24012693D01*
X24551137Y-24189188D01*
X24551138Y-24189190D01*
X24597144Y-24245248D01*
X25041976Y-23800415D01*
X25072359Y-23860045D01*
X25161955Y-23949641D01*
X25221581Y-23980022D01*
X24776750Y-24424854D01*
X24832809Y-24470861D01*
X24832811Y-24470862D01*
X25009306Y-24565200D01*
X25009311Y-24565202D01*
X25200828Y-24623299D01*
X25200833Y-24623300D01*
X25399997Y-24642916D01*
X25400003Y-24642916D01*
X25599166Y-24623300D01*
X25599171Y-24623299D01*
X25790688Y-24565202D01*
X25790693Y-24565200D01*
X25967184Y-24470865D01*
X25967190Y-24470861D01*
X26023248Y-24424854D01*
X25578417Y-23980023D01*
X25638045Y-23949641D01*
X25727641Y-23860045D01*
X25758023Y-23800417D01*
X26202854Y-24245248D01*
X26248861Y-24189190D01*
X26248865Y-24189184D01*
X26343200Y-24012693D01*
X26343202Y-24012688D01*
X26401299Y-23821171D01*
X26401300Y-23821166D01*
X26420916Y-23622003D01*
X26972843Y-23622003D01*
X26991425Y-23810678D01*
X26991426Y-23810683D01*
X27046463Y-23992115D01*
X27046465Y-23992120D01*
X27094058Y-24081159D01*
X27135838Y-24159324D01*
X27135840Y-24159326D01*
X27135841Y-24159328D01*
X27191574Y-24227238D01*
X27256117Y-24305883D01*
X27402676Y-24426162D01*
X27569885Y-24515537D01*
X27696279Y-24553877D01*
X27751316Y-24570573D01*
X27751321Y-24570574D01*
X27939997Y-24589157D01*
X27940000Y-24589157D01*
X27940003Y-24589157D01*
X28128678Y-24570574D01*
X28128683Y-24570573D01*
X28146389Y-24565202D01*
X28310115Y-24515537D01*
X28477324Y-24426162D01*
X28623883Y-24305883D01*
X28744162Y-24159324D01*
X28833537Y-23992115D01*
X28888573Y-23810683D01*
X28888574Y-23810678D01*
X28907157Y-23622003D01*
X28907157Y-23621996D01*
X28888574Y-23433321D01*
X28888573Y-23433316D01*
X28846421Y-23294359D01*
X28833537Y-23251885D01*
X28744162Y-23084676D01*
X28719655Y-23054815D01*
X28623886Y-22938121D01*
X28623883Y-22938117D01*
X28529857Y-22860951D01*
X28477328Y-22817841D01*
X28477326Y-22817840D01*
X28477324Y-22817838D01*
X28393702Y-22773141D01*
X28310120Y-22728465D01*
X28310115Y-22728463D01*
X28128683Y-22673426D01*
X28128678Y-22673425D01*
X27940003Y-22654843D01*
X27939997Y-22654843D01*
X27751321Y-22673425D01*
X27751316Y-22673426D01*
X27569884Y-22728463D01*
X27569879Y-22728465D01*
X27402681Y-22817835D01*
X27402671Y-22817841D01*
X27256121Y-22938113D01*
X27256113Y-22938121D01*
X27135841Y-23084671D01*
X27135835Y-23084681D01*
X27046465Y-23251879D01*
X27046463Y-23251884D01*
X26991426Y-23433316D01*
X26991425Y-23433321D01*
X26972843Y-23621996D01*
X26972843Y-23622003D01*
X26420916Y-23622003D01*
X26420916Y-23621996D01*
X26401300Y-23422833D01*
X26401299Y-23422828D01*
X26343202Y-23231311D01*
X26343200Y-23231306D01*
X26248862Y-23054811D01*
X26248861Y-23054809D01*
X26202854Y-22998750D01*
X25758022Y-23443581D01*
X25727641Y-23383955D01*
X25638045Y-23294359D01*
X25578415Y-23263976D01*
X26023248Y-22819144D01*
X26023249Y-22819144D01*
X25967190Y-22773138D01*
X25967188Y-22773137D01*
X25790693Y-22678799D01*
X25790688Y-22678797D01*
X25599171Y-22620700D01*
X25599166Y-22620699D01*
X25400003Y-22601084D01*
X25399997Y-22601084D01*
X25200833Y-22620699D01*
X25200828Y-22620700D01*
X25009311Y-22678797D01*
X25009306Y-22678799D01*
X24832815Y-22773135D01*
X24832805Y-22773141D01*
X24776750Y-22819144D01*
X25221582Y-23263976D01*
X25161955Y-23294359D01*
X25072359Y-23383955D01*
X25041976Y-23443582D01*
X24597144Y-22998750D01*
X24551141Y-23054805D01*
X24551135Y-23054815D01*
X24456799Y-23231306D01*
X24456797Y-23231311D01*
X24398700Y-23422828D01*
X24398699Y-23422833D01*
X24379084Y-23621996D01*
X24379084Y-23622003D01*
X23827157Y-23622003D01*
X23827157Y-23621996D01*
X23808574Y-23433321D01*
X23808573Y-23433316D01*
X23766421Y-23294359D01*
X23753537Y-23251885D01*
X23664162Y-23084676D01*
X23639655Y-23054815D01*
X23543886Y-22938121D01*
X23543883Y-22938117D01*
X23449857Y-22860951D01*
X23397328Y-22817841D01*
X23397326Y-22817840D01*
X23397324Y-22817838D01*
X23313702Y-22773141D01*
X23230120Y-22728465D01*
X23230115Y-22728463D01*
X23048683Y-22673426D01*
X23048678Y-22673425D01*
X22860003Y-22654843D01*
X22859997Y-22654843D01*
X22671321Y-22673425D01*
X22671316Y-22673426D01*
X22489884Y-22728463D01*
X22489879Y-22728465D01*
X22322681Y-22817835D01*
X22322671Y-22817841D01*
X22176121Y-22938113D01*
X22176113Y-22938121D01*
X22055841Y-23084671D01*
X22055835Y-23084681D01*
X21966465Y-23251879D01*
X21966463Y-23251884D01*
X21911426Y-23433316D01*
X21911425Y-23433321D01*
X21892843Y-23621996D01*
X21892843Y-23622003D01*
X20066000Y-23622003D01*
X20066000Y-20320000D01*
X56954675Y-20320000D01*
X56973962Y-20712591D01*
X56973962Y-20712596D01*
X56973963Y-20712601D01*
X56973963Y-20712604D01*
X57031635Y-21101399D01*
X57031635Y-21101400D01*
X57127141Y-21482681D01*
X57259561Y-21852768D01*
X57259565Y-21852779D01*
X57427621Y-22208103D01*
X57629687Y-22545229D01*
X57629692Y-22545236D01*
X57629694Y-22545239D01*
X57832836Y-22819144D01*
X57863843Y-22860952D01*
X57863849Y-22860959D01*
X58039546Y-23054811D01*
X58127808Y-23152192D01*
X58127818Y-23152201D01*
X58127822Y-23152205D01*
X58419040Y-23416150D01*
X58419049Y-23416158D01*
X58734761Y-23650306D01*
X58734765Y-23650308D01*
X58734770Y-23650312D01*
X59071896Y-23852378D01*
X59277541Y-23949641D01*
X59427228Y-24020438D01*
X59719803Y-24125122D01*
X59797318Y-24152858D01*
X60178599Y-24248364D01*
X60335183Y-24271590D01*
X60567409Y-24306038D01*
X60960000Y-24325325D01*
X61352591Y-24306038D01*
X61741400Y-24248364D01*
X62122681Y-24152858D01*
X62122684Y-24152857D01*
X62492772Y-24020438D01*
X62848097Y-23852381D01*
X62848098Y-23852380D01*
X62848103Y-23852378D01*
X63185229Y-23650312D01*
X63185229Y-23650311D01*
X63185239Y-23650306D01*
X63500951Y-23416158D01*
X63792192Y-23152192D01*
X64056158Y-22860951D01*
X64290306Y-22545239D01*
X64290312Y-22545229D01*
X64492378Y-22208103D01*
X64607772Y-21964124D01*
X64660438Y-21852772D01*
X64792857Y-21482684D01*
X64888364Y-21101400D01*
X64946038Y-20712591D01*
X64965325Y-20320000D01*
X64946038Y-19927409D01*
X64888364Y-19538600D01*
X64888364Y-19538599D01*
X64792858Y-19157318D01*
X64754459Y-19050000D01*
X64660438Y-18787228D01*
X64508014Y-18464956D01*
X64492378Y-18431896D01*
X64290312Y-18094770D01*
X64290308Y-18094765D01*
X64290306Y-18094761D01*
X64056158Y-17779049D01*
X63792192Y-17487808D01*
X63500951Y-17223842D01*
X63185239Y-16989694D01*
X63185236Y-16989692D01*
X63185229Y-16989687D01*
X62848103Y-16787621D01*
X62492779Y-16619565D01*
X62492776Y-16619563D01*
X62492772Y-16619562D01*
X62375234Y-16577506D01*
X62122681Y-16487141D01*
X61741400Y-16391635D01*
X61352602Y-16333963D01*
X61352595Y-16333962D01*
X61352591Y-16333962D01*
X60960000Y-16314675D01*
X60567409Y-16333962D01*
X60567404Y-16333962D01*
X60567398Y-16333963D01*
X60567395Y-16333963D01*
X60178600Y-16391635D01*
X60178599Y-16391635D01*
X59797318Y-16487141D01*
X59427231Y-16619561D01*
X59427220Y-16619565D01*
X59071896Y-16787621D01*
X58734770Y-16989687D01*
X58419047Y-17223843D01*
X58419040Y-17223849D01*
X58127822Y-17487794D01*
X58127794Y-17487822D01*
X57863849Y-17779040D01*
X57863843Y-17779047D01*
X57629687Y-18094770D01*
X57427621Y-18431896D01*
X57259565Y-18787220D01*
X57259561Y-18787231D01*
X57127141Y-19157318D01*
X57031635Y-19538599D01*
X57031635Y-19538600D01*
X56973963Y-19927395D01*
X56973963Y-19927398D01*
X56973962Y-19927404D01*
X56973962Y-19927409D01*
X56954675Y-20320000D01*
X20066000Y-20320000D01*
X20066000Y-18422000D01*
X53784529Y-18422000D01*
X53804379Y-18661561D01*
X53804379Y-18661562D01*
X53863047Y-18893238D01*
X53863390Y-18894591D01*
X53914520Y-19011157D01*
X53959950Y-19114727D01*
X53959953Y-19114732D01*
X54091425Y-19315964D01*
X54091427Y-19315966D01*
X54091429Y-19315969D01*
X54254236Y-19492825D01*
X54443933Y-19640472D01*
X54655344Y-19754882D01*
X54882703Y-19832934D01*
X55119808Y-19872500D01*
X55360192Y-19872500D01*
X55597297Y-19832934D01*
X55824656Y-19754882D01*
X56036067Y-19640472D01*
X56225764Y-19492825D01*
X56388571Y-19315969D01*
X56520049Y-19114728D01*
X56616610Y-18894591D01*
X56675620Y-18661563D01*
X56695471Y-18422000D01*
X56675620Y-18182437D01*
X56616610Y-17949409D01*
X56520049Y-17729272D01*
X56388571Y-17528031D01*
X56225764Y-17351175D01*
X56177811Y-17313851D01*
X56036070Y-17203530D01*
X56036067Y-17203528D01*
X55824659Y-17089119D01*
X55807796Y-17083330D01*
X55597297Y-17011066D01*
X55597294Y-17011065D01*
X55597293Y-17011065D01*
X55360192Y-16971500D01*
X55119808Y-16971500D01*
X54882706Y-17011065D01*
X54655340Y-17089119D01*
X54443932Y-17203528D01*
X54443929Y-17203530D01*
X54254239Y-17351172D01*
X54091425Y-17528035D01*
X53959953Y-17729267D01*
X53959950Y-17729272D01*
X53863388Y-17949414D01*
X53804379Y-18182437D01*
X53804379Y-18182438D01*
X53784529Y-18422000D01*
X20066000Y-18422000D01*
X20066000Y-17018001D01*
X20066000Y-17018000D01*
X20065999Y-17018000D01*
X17117000Y-17018000D01*
X17058809Y-16999093D01*
X17022845Y-16949593D01*
X17018000Y-16919000D01*
X17018000Y-13335000D01*
X33874818Y-13335000D01*
X33895455Y-13491758D01*
X33895457Y-13491766D01*
X33955962Y-13637838D01*
X33955962Y-13637839D01*
X33955964Y-13637841D01*
X34052218Y-13763282D01*
X34177659Y-13859536D01*
X34323738Y-13920044D01*
X34441309Y-13935522D01*
X34480499Y-13940682D01*
X34480500Y-13940682D01*
X34480501Y-13940682D01*
X34511852Y-13936554D01*
X34637262Y-13920044D01*
X34783341Y-13859536D01*
X34908782Y-13763282D01*
X35005036Y-13637841D01*
X35065544Y-13491762D01*
X35086182Y-13335000D01*
X35065544Y-13178238D01*
X35005036Y-13032159D01*
X35005034Y-13032154D01*
X35001455Y-13027490D01*
X34981034Y-12969814D01*
X34981000Y-12967227D01*
X34981000Y-11195746D01*
X58727500Y-11195746D01*
X58727501Y-11195758D01*
X58739132Y-11254227D01*
X58739133Y-11254231D01*
X58783448Y-11320552D01*
X58849769Y-11364867D01*
X58894231Y-11373711D01*
X58908241Y-11376498D01*
X58908246Y-11376498D01*
X58908252Y-11376500D01*
X58908253Y-11376500D01*
X60471747Y-11376500D01*
X60471748Y-11376500D01*
X60530231Y-11364867D01*
X60596552Y-11320552D01*
X60640867Y-11254231D01*
X60652500Y-11195748D01*
X60652500Y-11195746D01*
X61267500Y-11195746D01*
X61267501Y-11195758D01*
X61279132Y-11254227D01*
X61279133Y-11254231D01*
X61323448Y-11320552D01*
X61389769Y-11364867D01*
X61434231Y-11373711D01*
X61448241Y-11376498D01*
X61448246Y-11376498D01*
X61448252Y-11376500D01*
X61448253Y-11376500D01*
X63011747Y-11376500D01*
X63011748Y-11376500D01*
X63070231Y-11364867D01*
X63136552Y-11320552D01*
X63180867Y-11254231D01*
X63192500Y-11195748D01*
X63192500Y-9632252D01*
X63180867Y-9573769D01*
X63136552Y-9507448D01*
X63136548Y-9507445D01*
X63070233Y-9463134D01*
X63070231Y-9463133D01*
X63070228Y-9463132D01*
X63070227Y-9463132D01*
X63011758Y-9451501D01*
X63011748Y-9451500D01*
X61448252Y-9451500D01*
X61448251Y-9451500D01*
X61448241Y-9451501D01*
X61389772Y-9463132D01*
X61389766Y-9463134D01*
X61323451Y-9507445D01*
X61323445Y-9507451D01*
X61279134Y-9573766D01*
X61279132Y-9573772D01*
X61267501Y-9632241D01*
X61267500Y-9632253D01*
X61267500Y-11195746D01*
X60652500Y-11195746D01*
X60652500Y-9632252D01*
X60640867Y-9573769D01*
X60596552Y-9507448D01*
X60596548Y-9507445D01*
X60530233Y-9463134D01*
X60530231Y-9463133D01*
X60530228Y-9463132D01*
X60530227Y-9463132D01*
X60471758Y-9451501D01*
X60471748Y-9451500D01*
X58908252Y-9451500D01*
X58908251Y-9451500D01*
X58908241Y-9451501D01*
X58849772Y-9463132D01*
X58849766Y-9463134D01*
X58783451Y-9507445D01*
X58783445Y-9507451D01*
X58739134Y-9573766D01*
X58739132Y-9573772D01*
X58727501Y-9632241D01*
X58727500Y-9632253D01*
X58727500Y-11195746D01*
X34981000Y-11195746D01*
X34981000Y-10835771D01*
X34999907Y-10777580D01*
X35001460Y-10775501D01*
X35005036Y-10770841D01*
X35065544Y-10624762D01*
X35086182Y-10468000D01*
X35065544Y-10311238D01*
X35024181Y-10211378D01*
X35005037Y-10165161D01*
X35005037Y-10165160D01*
X34908786Y-10039723D01*
X34908785Y-10039722D01*
X34908782Y-10039718D01*
X34908777Y-10039714D01*
X34908776Y-10039713D01*
X34783338Y-9943462D01*
X34637266Y-9882957D01*
X34637258Y-9882955D01*
X34480501Y-9862318D01*
X34480499Y-9862318D01*
X34323741Y-9882955D01*
X34323733Y-9882957D01*
X34177661Y-9943462D01*
X34177660Y-9943462D01*
X34052223Y-10039713D01*
X34052213Y-10039723D01*
X33955962Y-10165160D01*
X33955962Y-10165161D01*
X33895457Y-10311233D01*
X33895455Y-10311241D01*
X33874818Y-10467999D01*
X33874818Y-10468000D01*
X33895455Y-10624758D01*
X33895457Y-10624766D01*
X33955962Y-10770838D01*
X33955963Y-10770839D01*
X33955964Y-10770841D01*
X33959540Y-10775501D01*
X33979966Y-10833176D01*
X33980000Y-10835771D01*
X33980000Y-12967227D01*
X33961093Y-13025418D01*
X33959545Y-13027490D01*
X33955965Y-13032154D01*
X33895457Y-13178236D01*
X33895455Y-13178241D01*
X33874818Y-13334999D01*
X33874818Y-13335000D01*
X17018000Y-13335000D01*
X17018000Y-8128001D01*
X17018000Y-8128000D01*
X17017999Y-8128000D01*
X9751000Y-8128000D01*
X9692809Y-8109093D01*
X9656845Y-8059593D01*
X9652000Y-8029000D01*
X9652000Y-888999D01*
X10668000Y-888999D01*
X10668001Y-889000D01*
X11257056Y-889000D01*
X11235736Y-982407D01*
X11245749Y-1116028D01*
X11256335Y-1143000D01*
X10668002Y-1143000D01*
X10668001Y-1143001D01*
X10668001Y-1803022D01*
X10682736Y-1877104D01*
X10682737Y-1877107D01*
X10738874Y-1961121D01*
X10738878Y-1961125D01*
X10822893Y-2017263D01*
X10896981Y-2031999D01*
X11556998Y-2031999D01*
X11557000Y-2031997D01*
X11557000Y-1441991D01*
X11617002Y-1460500D01*
X11717312Y-1460500D01*
X11811000Y-1446378D01*
X11811000Y-2031998D01*
X11811001Y-2031999D01*
X12471012Y-2031999D01*
X12471022Y-2031998D01*
X12545104Y-2017263D01*
X12545107Y-2017262D01*
X12629121Y-1961125D01*
X12629125Y-1961121D01*
X12685263Y-1877106D01*
X12699999Y-1803019D01*
X12700000Y-1803016D01*
X12700000Y-1797746D01*
X13261500Y-1797746D01*
X13261501Y-1797758D01*
X13273132Y-1856227D01*
X13273134Y-1856233D01*
X13317445Y-1922548D01*
X13317448Y-1922552D01*
X13383769Y-1966867D01*
X13428231Y-1975711D01*
X13442241Y-1978498D01*
X13442246Y-1978498D01*
X13442252Y-1978500D01*
X13824500Y-1978500D01*
X13882691Y-1997407D01*
X13918655Y-2046907D01*
X13923500Y-2077500D01*
X13923500Y-2220835D01*
X13921280Y-2234513D01*
X13922494Y-2234683D01*
X13921226Y-2243766D01*
X13923447Y-2291783D01*
X13923500Y-2294069D01*
X13923500Y-2313842D01*
X13924152Y-2317332D01*
X13924943Y-2324149D01*
X13926414Y-2355987D01*
X13926415Y-2355994D01*
X13930384Y-2364982D01*
X13937133Y-2386773D01*
X13938939Y-2396433D01*
X13955717Y-2423533D01*
X13958915Y-2429600D01*
X13971793Y-2458763D01*
X13971794Y-2458765D01*
X13978745Y-2465716D01*
X13992907Y-2483596D01*
X13998081Y-2491952D01*
X14023511Y-2511156D01*
X14028690Y-2515662D01*
X14219436Y-2706407D01*
X14227537Y-2717647D01*
X14228516Y-2716909D01*
X14234044Y-2724230D01*
X14269569Y-2756616D01*
X14271223Y-2758195D01*
X14285201Y-2772172D01*
X14285203Y-2772174D01*
X14288128Y-2774178D01*
X14293505Y-2778437D01*
X14317064Y-2799914D01*
X14317065Y-2799914D01*
X14317067Y-2799916D01*
X14326230Y-2803466D01*
X14346416Y-2814105D01*
X14354519Y-2819656D01*
X14385553Y-2826955D01*
X14392090Y-2828979D01*
X14421827Y-2840500D01*
X14431652Y-2840500D01*
X14454316Y-2843129D01*
X14463881Y-2845379D01*
X14488494Y-2841945D01*
X14495453Y-2840975D01*
X14502299Y-2840500D01*
X17868521Y-2840500D01*
X17926712Y-2859407D01*
X17938525Y-2869496D01*
X18466504Y-3397474D01*
X18494281Y-3451991D01*
X18495500Y-3467478D01*
X18495500Y-8062835D01*
X18493280Y-8076513D01*
X18494494Y-8076683D01*
X18493226Y-8085766D01*
X18494305Y-8109093D01*
X18495179Y-8128001D01*
X18495447Y-8133783D01*
X18495500Y-8136069D01*
X18495500Y-8155842D01*
X18496152Y-8159332D01*
X18496943Y-8166149D01*
X18498414Y-8197987D01*
X18498415Y-8197994D01*
X18502384Y-8206982D01*
X18509133Y-8228773D01*
X18510939Y-8238433D01*
X18527717Y-8265533D01*
X18530915Y-8271600D01*
X18543793Y-8300763D01*
X18543794Y-8300765D01*
X18550745Y-8307716D01*
X18564907Y-8325596D01*
X18570081Y-8333952D01*
X18595511Y-8353156D01*
X18600690Y-8357662D01*
X20315436Y-10072407D01*
X20323537Y-10083647D01*
X20324516Y-10082909D01*
X20330044Y-10090230D01*
X20365569Y-10122616D01*
X20367223Y-10124195D01*
X20381201Y-10138172D01*
X20381203Y-10138174D01*
X20384128Y-10140178D01*
X20389505Y-10144437D01*
X20413063Y-10165913D01*
X20413064Y-10165913D01*
X20413067Y-10165916D01*
X20422233Y-10169467D01*
X20442412Y-10180103D01*
X20450520Y-10185657D01*
X20481558Y-10192957D01*
X20488096Y-10194982D01*
X20517827Y-10206500D01*
X20527652Y-10206500D01*
X20550316Y-10209129D01*
X20559881Y-10211379D01*
X20584494Y-10207945D01*
X20591453Y-10206975D01*
X20598299Y-10206500D01*
X27618846Y-10206500D01*
X27677037Y-10225407D01*
X27697388Y-10245233D01*
X27748038Y-10311241D01*
X27765718Y-10334282D01*
X27891159Y-10430536D01*
X27891160Y-10430536D01*
X27891161Y-10430537D01*
X27981605Y-10468000D01*
X28037238Y-10491044D01*
X28154809Y-10506522D01*
X28193999Y-10511682D01*
X28194000Y-10511682D01*
X28194001Y-10511682D01*
X28225352Y-10507554D01*
X28350762Y-10491044D01*
X28496841Y-10430536D01*
X28622282Y-10334282D01*
X28718536Y-10208841D01*
X28779044Y-10062762D01*
X28799682Y-9906000D01*
X28779044Y-9749238D01*
X28718537Y-9603161D01*
X28718537Y-9603160D01*
X28622286Y-9477723D01*
X28622285Y-9477722D01*
X28622282Y-9477718D01*
X28622277Y-9477714D01*
X28622276Y-9477713D01*
X28496838Y-9381462D01*
X28350766Y-9320957D01*
X28350758Y-9320955D01*
X28194001Y-9300318D01*
X28193999Y-9300318D01*
X28037241Y-9320955D01*
X28037232Y-9320957D01*
X27911468Y-9373050D01*
X27850471Y-9377850D01*
X27798302Y-9345881D01*
X27774888Y-9289353D01*
X27775429Y-9268672D01*
X27783682Y-9205990D01*
X27763044Y-9049228D01*
X27763042Y-9049223D01*
X27702537Y-8903151D01*
X27702537Y-8903150D01*
X27606286Y-8777713D01*
X27606285Y-8777712D01*
X27606282Y-8777708D01*
X27606277Y-8777704D01*
X27606276Y-8777703D01*
X27535104Y-8723091D01*
X27480841Y-8681454D01*
X27480840Y-8681453D01*
X27480838Y-8681452D01*
X27418778Y-8655746D01*
X58727500Y-8655746D01*
X58727501Y-8655758D01*
X58739132Y-8714227D01*
X58739134Y-8714233D01*
X58781551Y-8777713D01*
X58783448Y-8780552D01*
X58849769Y-8824867D01*
X58894231Y-8833711D01*
X58908241Y-8836498D01*
X58908246Y-8836498D01*
X58908252Y-8836500D01*
X58908253Y-8836500D01*
X60471747Y-8836500D01*
X60471748Y-8836500D01*
X60530231Y-8824867D01*
X60596552Y-8780552D01*
X60640867Y-8714231D01*
X60652500Y-8655748D01*
X60652500Y-8655746D01*
X61267500Y-8655746D01*
X61267501Y-8655758D01*
X61279132Y-8714227D01*
X61279134Y-8714233D01*
X61321551Y-8777713D01*
X61323448Y-8780552D01*
X61389769Y-8824867D01*
X61434231Y-8833711D01*
X61448241Y-8836498D01*
X61448246Y-8836498D01*
X61448252Y-8836500D01*
X61448253Y-8836500D01*
X63011747Y-8836500D01*
X63011748Y-8836500D01*
X63070231Y-8824867D01*
X63136552Y-8780552D01*
X63180867Y-8714231D01*
X63192500Y-8655748D01*
X63192500Y-7092252D01*
X63180867Y-7033769D01*
X63136552Y-6967448D01*
X63136548Y-6967445D01*
X63070233Y-6923134D01*
X63070231Y-6923133D01*
X63070228Y-6923132D01*
X63070227Y-6923132D01*
X63011758Y-6911501D01*
X63011748Y-6911500D01*
X61448252Y-6911500D01*
X61448251Y-6911500D01*
X61448241Y-6911501D01*
X61389772Y-6923132D01*
X61389766Y-6923134D01*
X61323451Y-6967445D01*
X61323445Y-6967451D01*
X61279134Y-7033766D01*
X61279132Y-7033772D01*
X61267501Y-7092241D01*
X61267500Y-7092253D01*
X61267500Y-8655746D01*
X60652500Y-8655746D01*
X60652500Y-7092252D01*
X60640867Y-7033769D01*
X60596552Y-6967448D01*
X60596548Y-6967445D01*
X60530233Y-6923134D01*
X60530231Y-6923133D01*
X60530228Y-6923132D01*
X60530227Y-6923132D01*
X60471758Y-6911501D01*
X60471748Y-6911500D01*
X58908252Y-6911500D01*
X58908251Y-6911500D01*
X58908241Y-6911501D01*
X58849772Y-6923132D01*
X58849766Y-6923134D01*
X58783451Y-6967445D01*
X58783445Y-6967451D01*
X58739134Y-7033766D01*
X58739132Y-7033772D01*
X58727501Y-7092241D01*
X58727500Y-7092253D01*
X58727500Y-8655746D01*
X27418778Y-8655746D01*
X27334766Y-8620947D01*
X27334758Y-8620945D01*
X27178001Y-8600308D01*
X27177999Y-8600308D01*
X27021241Y-8620945D01*
X27021233Y-8620947D01*
X26875161Y-8681452D01*
X26875160Y-8681452D01*
X26749723Y-8777703D01*
X26749713Y-8777713D01*
X26681388Y-8866757D01*
X26630963Y-8901413D01*
X26602846Y-8905490D01*
X20801470Y-8905490D01*
X20743279Y-8886583D01*
X20731466Y-8876494D01*
X19633496Y-7778524D01*
X19605719Y-7724007D01*
X19604500Y-7708520D01*
X19604500Y-6422000D01*
X24784529Y-6422000D01*
X24804379Y-6661561D01*
X24804379Y-6661562D01*
X24863388Y-6894585D01*
X24863390Y-6894591D01*
X24914520Y-7011157D01*
X24959950Y-7114727D01*
X24959953Y-7114732D01*
X25091425Y-7315964D01*
X25091427Y-7315966D01*
X25091429Y-7315969D01*
X25254236Y-7492825D01*
X25443933Y-7640472D01*
X25569675Y-7708520D01*
X25645450Y-7749528D01*
X25655344Y-7754882D01*
X25882703Y-7832934D01*
X26119808Y-7872500D01*
X26360192Y-7872500D01*
X26597297Y-7832934D01*
X26824656Y-7754882D01*
X27036067Y-7640472D01*
X27225764Y-7492825D01*
X27388571Y-7315969D01*
X27520049Y-7114728D01*
X27616610Y-6894591D01*
X27675620Y-6661563D01*
X27695471Y-6422000D01*
X27675620Y-6182437D01*
X27616610Y-5949409D01*
X27520049Y-5729272D01*
X27388571Y-5528031D01*
X27225764Y-5351175D01*
X27036067Y-5203528D01*
X27036066Y-5203527D01*
X26824659Y-5089119D01*
X26807796Y-5083330D01*
X26597297Y-5011066D01*
X26597294Y-5011065D01*
X26597293Y-5011065D01*
X26360192Y-4971500D01*
X26119808Y-4971500D01*
X25882706Y-5011065D01*
X25655340Y-5089119D01*
X25443932Y-5203528D01*
X25443929Y-5203530D01*
X25254239Y-5351172D01*
X25091425Y-5528035D01*
X24959953Y-5729267D01*
X24959950Y-5729272D01*
X24863388Y-5949414D01*
X24804379Y-6182437D01*
X24804379Y-6182438D01*
X24784529Y-6422000D01*
X19604500Y-6422000D01*
X19604500Y-2077500D01*
X19623407Y-2019309D01*
X19672907Y-1983345D01*
X19703500Y-1978500D01*
X20085747Y-1978500D01*
X20085748Y-1978500D01*
X20144231Y-1966867D01*
X20210552Y-1922552D01*
X20254867Y-1856231D01*
X20266500Y-1797748D01*
X20266500Y-888998D01*
X20828000Y-888998D01*
X20828001Y-889000D01*
X21417056Y-889000D01*
X21395736Y-982407D01*
X21405749Y-1116028D01*
X21416335Y-1143000D01*
X20828001Y-1143000D01*
X20828001Y-1803022D01*
X20842736Y-1877104D01*
X20842737Y-1877107D01*
X20898874Y-1961121D01*
X20898878Y-1961125D01*
X20982893Y-2017263D01*
X21056981Y-2031999D01*
X21716998Y-2031999D01*
X21717000Y-2031998D01*
X21717000Y-1441991D01*
X21777002Y-1460500D01*
X21877312Y-1460500D01*
X21971000Y-1446378D01*
X21971000Y-2031998D01*
X21971001Y-2031999D01*
X22631012Y-2031999D01*
X22631022Y-2031998D01*
X22705104Y-2017263D01*
X22705107Y-2017262D01*
X22789121Y-1961125D01*
X22789125Y-1961121D01*
X22845263Y-1877106D01*
X22859999Y-1803019D01*
X22860000Y-1803016D01*
X22860000Y-1143000D01*
X22270944Y-1143000D01*
X22292264Y-1049593D01*
X22282251Y-915972D01*
X22271665Y-889000D01*
X22859998Y-889000D01*
X22859999Y-888999D01*
X22859999Y-228987D01*
X22859998Y-228977D01*
X22845263Y-154895D01*
X22845262Y-154892D01*
X22789125Y-70878D01*
X22789121Y-70874D01*
X22705106Y-14736D01*
X22631019Y0D01*
X21971000Y0D01*
X21971000Y-590008D01*
X21910998Y-571500D01*
X21810688Y-571500D01*
X21717000Y-585621D01*
X21717000Y-1D01*
X21716999Y0D01*
X21056986Y0D01*
X21056977Y-1D01*
X20982895Y-14736D01*
X20982892Y-14737D01*
X20898878Y-70874D01*
X20898874Y-70878D01*
X20842736Y-154893D01*
X20828000Y-228980D01*
X20828000Y-888998D01*
X20266500Y-888998D01*
X20266500Y-234252D01*
X20254867Y-175769D01*
X20210552Y-109448D01*
X20152823Y-70874D01*
X20144233Y-65134D01*
X20144231Y-65133D01*
X20144228Y-65132D01*
X20144227Y-65132D01*
X20085758Y-53501D01*
X20085748Y-53500D01*
X18522252Y-53500D01*
X18522251Y-53500D01*
X18522241Y-53501D01*
X18463772Y-65132D01*
X18463766Y-65134D01*
X18397451Y-109445D01*
X18397445Y-109451D01*
X18353134Y-175766D01*
X18353132Y-175772D01*
X18341501Y-234241D01*
X18341500Y-234253D01*
X18341500Y-1797746D01*
X18341501Y-1797758D01*
X18353132Y-1856227D01*
X18353134Y-1856233D01*
X18397445Y-1922548D01*
X18397448Y-1922552D01*
X18463769Y-1966867D01*
X18508231Y-1975711D01*
X18522241Y-1978498D01*
X18522246Y-1978498D01*
X18522252Y-1978500D01*
X18904500Y-1978500D01*
X18962691Y-1997407D01*
X18998655Y-2046907D01*
X19003500Y-2077500D01*
X19003500Y-2845520D01*
X18984593Y-2903711D01*
X18935093Y-2939675D01*
X18873907Y-2939675D01*
X18834496Y-2915524D01*
X18292565Y-2373594D01*
X18284479Y-2362344D01*
X18283487Y-2363094D01*
X18277958Y-2355772D01*
X18242423Y-2323377D01*
X18240775Y-2321804D01*
X18226797Y-2307826D01*
X18223859Y-2305813D01*
X18218496Y-2301564D01*
X18194933Y-2280084D01*
X18185762Y-2276531D01*
X18165586Y-2265895D01*
X18157484Y-2260345D01*
X18157479Y-2260343D01*
X18126457Y-2253046D01*
X18119902Y-2251016D01*
X18090177Y-2239501D01*
X18090174Y-2239500D01*
X18090173Y-2239500D01*
X18090172Y-2239500D01*
X18080348Y-2239500D01*
X18057683Y-2236870D01*
X18048119Y-2234621D01*
X18048118Y-2234621D01*
X18016547Y-2239025D01*
X18009701Y-2239500D01*
X14643479Y-2239500D01*
X14585288Y-2220593D01*
X14573475Y-2210504D01*
X14553496Y-2190525D01*
X14525719Y-2136008D01*
X14524500Y-2120521D01*
X14524500Y-2077500D01*
X14543407Y-2019309D01*
X14592907Y-1983345D01*
X14623500Y-1978500D01*
X15005747Y-1978500D01*
X15005748Y-1978500D01*
X15064231Y-1966867D01*
X15130552Y-1922552D01*
X15174867Y-1856231D01*
X15186500Y-1797748D01*
X15186500Y-1797746D01*
X15801500Y-1797746D01*
X15801501Y-1797758D01*
X15813132Y-1856227D01*
X15813134Y-1856233D01*
X15857445Y-1922548D01*
X15857448Y-1922552D01*
X15923769Y-1966867D01*
X15968231Y-1975711D01*
X15982241Y-1978498D01*
X15982246Y-1978498D01*
X15982252Y-1978500D01*
X15982253Y-1978500D01*
X17545747Y-1978500D01*
X17545748Y-1978500D01*
X17604231Y-1966867D01*
X17670552Y-1922552D01*
X17714867Y-1856231D01*
X17726500Y-1797748D01*
X17726500Y-234252D01*
X17714867Y-175769D01*
X17670552Y-109448D01*
X17612823Y-70874D01*
X17604233Y-65134D01*
X17604231Y-65133D01*
X17604228Y-65132D01*
X17604227Y-65132D01*
X17545758Y-53501D01*
X17545748Y-53500D01*
X15982252Y-53500D01*
X15982251Y-53500D01*
X15982241Y-53501D01*
X15923772Y-65132D01*
X15923766Y-65134D01*
X15857451Y-109445D01*
X15857445Y-109451D01*
X15813134Y-175766D01*
X15813132Y-175772D01*
X15801501Y-234241D01*
X15801500Y-234253D01*
X15801500Y-1797746D01*
X15186500Y-1797746D01*
X15186500Y-234252D01*
X15174867Y-175769D01*
X15130552Y-109448D01*
X15072823Y-70874D01*
X15064233Y-65134D01*
X15064231Y-65133D01*
X15064228Y-65132D01*
X15064227Y-65132D01*
X15005758Y-53501D01*
X15005748Y-53500D01*
X13442252Y-53500D01*
X13442251Y-53500D01*
X13442241Y-53501D01*
X13383772Y-65132D01*
X13383766Y-65134D01*
X13317451Y-109445D01*
X13317445Y-109451D01*
X13273134Y-175766D01*
X13273132Y-175772D01*
X13261501Y-234241D01*
X13261500Y-234253D01*
X13261500Y-1797746D01*
X12700000Y-1797746D01*
X12700000Y-1143000D01*
X12110944Y-1143000D01*
X12132264Y-1049593D01*
X12122251Y-915972D01*
X12111665Y-889000D01*
X12699998Y-889000D01*
X12699999Y-888998D01*
X12699999Y-228987D01*
X12699998Y-228977D01*
X12685263Y-154895D01*
X12685262Y-154892D01*
X12629125Y-70878D01*
X12629121Y-70874D01*
X12545106Y-14736D01*
X12471019Y0D01*
X11811000Y0D01*
X11811000Y-590008D01*
X11750998Y-571500D01*
X11650688Y-571500D01*
X11557000Y-585621D01*
X11557000Y0D01*
X10896986Y0D01*
X10896977Y-1D01*
X10822895Y-14736D01*
X10822892Y-14737D01*
X10738878Y-70874D01*
X10738874Y-70878D01*
X10682736Y-154893D01*
X10668000Y-228980D01*
X10668000Y-888999D01*
X9652000Y-888999D01*
X9652000Y254000D01*
X23540551Y254000D01*
X23560316Y2853D01*
X23619127Y-242113D01*
X23715532Y-474856D01*
X23715535Y-474862D01*
X23847162Y-689656D01*
X23847168Y-689664D01*
X23985621Y-851772D01*
X24010776Y-881224D01*
X24010782Y-881229D01*
X24010785Y-881232D01*
X24129246Y-982407D01*
X24202341Y-1044836D01*
X24202343Y-1044837D01*
X24417137Y-1176464D01*
X24417143Y-1176467D01*
X24649887Y-1272872D01*
X24649889Y-1272873D01*
X24894852Y-1331683D01*
X25083118Y-1346500D01*
X25083125Y-1346500D01*
X25208875Y-1346500D01*
X25208882Y-1346500D01*
X25397148Y-1331683D01*
X25642111Y-1272873D01*
X25874859Y-1176466D01*
X26089659Y-1044836D01*
X26281224Y-881224D01*
X26444836Y-689659D01*
X26576466Y-474859D01*
X26672873Y-242111D01*
X26730998Y0D01*
X56954675Y0D01*
X56973962Y-392591D01*
X56973962Y-392596D01*
X56973963Y-392601D01*
X56973963Y-392604D01*
X57031635Y-781399D01*
X57031635Y-781400D01*
X57127141Y-1162681D01*
X57259561Y-1532768D01*
X57259565Y-1532779D01*
X57427621Y-1888103D01*
X57629687Y-2225229D01*
X57629692Y-2225236D01*
X57629694Y-2225239D01*
X57863842Y-2540951D01*
X57863843Y-2540952D01*
X57863849Y-2540959D01*
X58123059Y-2826953D01*
X58127808Y-2832192D01*
X58127818Y-2832201D01*
X58127822Y-2832205D01*
X58403580Y-3082138D01*
X58419049Y-3096158D01*
X58734761Y-3330306D01*
X58734765Y-3330308D01*
X58734770Y-3330312D01*
X59071896Y-3532378D01*
X59281415Y-3631473D01*
X59427228Y-3700438D01*
X59719803Y-3805122D01*
X59797318Y-3832858D01*
X60178599Y-3928364D01*
X60335183Y-3951590D01*
X60567409Y-3986038D01*
X60960000Y-4005325D01*
X61352591Y-3986038D01*
X61741400Y-3928364D01*
X62122681Y-3832858D01*
X62122684Y-3832857D01*
X62492772Y-3700438D01*
X62848097Y-3532381D01*
X62848098Y-3532380D01*
X62848103Y-3532378D01*
X63185229Y-3330312D01*
X63185229Y-3330311D01*
X63185239Y-3330306D01*
X63500951Y-3096158D01*
X63792192Y-2832192D01*
X64056158Y-2540951D01*
X64290306Y-2225239D01*
X64353072Y-2120521D01*
X64492378Y-1888103D01*
X64497580Y-1877104D01*
X64660438Y-1532772D01*
X64792857Y-1162684D01*
X64797788Y-1143001D01*
X64888364Y-781400D01*
X64888364Y-781399D01*
X64919500Y-571500D01*
X64946038Y-392591D01*
X64965325Y0D01*
X64946038Y392591D01*
X64888364Y781400D01*
X64809949Y1094450D01*
X64792858Y1162681D01*
X64763859Y1243728D01*
X64660438Y1532772D01*
X64492381Y1888097D01*
X64492380Y1888098D01*
X64492378Y1888103D01*
X64290312Y2225229D01*
X64290311Y2225229D01*
X64290306Y2225239D01*
X64056158Y2540951D01*
X63792192Y2832192D01*
X63500951Y3096158D01*
X63185239Y3330306D01*
X63185229Y3330312D01*
X62848103Y3532378D01*
X62848097Y3532381D01*
X62492772Y3700438D01*
X62122684Y3832857D01*
X62122683Y3832857D01*
X62122681Y3832858D01*
X61741400Y3928364D01*
X61352591Y3986038D01*
X60960000Y4005325D01*
X60567409Y3986038D01*
X60567396Y3986036D01*
X60567395Y3986036D01*
X60178600Y3928364D01*
X60178599Y3928364D01*
X59797318Y3832858D01*
X59719803Y3805122D01*
X59427228Y3700438D01*
X59427220Y3700434D01*
X59071896Y3532378D01*
X58734770Y3330312D01*
X58734765Y3330308D01*
X58734761Y3330306D01*
X58419049Y3096158D01*
X58127808Y2832192D01*
X57863842Y2540951D01*
X57748260Y2385106D01*
X57629687Y2225229D01*
X57427621Y1888103D01*
X57259565Y1532779D01*
X57259561Y1532768D01*
X57127141Y1162681D01*
X57031635Y781400D01*
X57031635Y781399D01*
X56973963Y392604D01*
X56973963Y392601D01*
X56973962Y392591D01*
X56954675Y0D01*
X26730998Y0D01*
X26731683Y2852D01*
X26751449Y254000D01*
X26731683Y505148D01*
X26672873Y750111D01*
X26576466Y982859D01*
X26444836Y1197659D01*
X26281224Y1389224D01*
X26089659Y1552836D01*
X25874859Y1684466D01*
X25642111Y1780873D01*
X25397148Y1839683D01*
X25208882Y1854500D01*
X25083118Y1854500D01*
X24894852Y1839683D01*
X24649889Y1780873D01*
X24649887Y1780872D01*
X24649886Y1780872D01*
X24417143Y1684467D01*
X24417137Y1684464D01*
X24318515Y1624028D01*
X24202341Y1552836D01*
X24202336Y1552831D01*
X24202335Y1552831D01*
X24019881Y1397000D01*
X24010776Y1389224D01*
X24010770Y1389217D01*
X24010767Y1389214D01*
X23847168Y1197664D01*
X23847162Y1197656D01*
X23715535Y982862D01*
X23715532Y982856D01*
X23619127Y750113D01*
X23560316Y505146D01*
X23540551Y254000D01*
X9652000Y254000D01*
X9652000Y1651001D01*
X10668000Y1651001D01*
X10668001Y1651000D01*
X11257056Y1651000D01*
X11235736Y1557593D01*
X11245749Y1423972D01*
X11256335Y1397000D01*
X10668002Y1397000D01*
X10668001Y1396998D01*
X10668001Y736977D01*
X10682736Y662895D01*
X10682737Y662892D01*
X10738874Y578878D01*
X10738878Y578874D01*
X10822893Y522736D01*
X10896980Y508000D01*
X11556999Y508000D01*
X11557000Y508001D01*
X11557000Y1098008D01*
X11617002Y1079500D01*
X11717312Y1079500D01*
X11811000Y1093621D01*
X11811000Y508000D01*
X12471013Y508000D01*
X12471022Y508001D01*
X12545104Y522736D01*
X12545107Y522737D01*
X12629121Y578874D01*
X12629125Y578878D01*
X12685263Y662893D01*
X12699999Y736980D01*
X12700000Y736983D01*
X12700000Y742253D01*
X13261500Y742253D01*
X13261501Y742241D01*
X13273132Y683772D01*
X13273134Y683766D01*
X13317445Y617451D01*
X13317451Y617445D01*
X13383766Y573134D01*
X13383772Y573132D01*
X13442241Y561501D01*
X13442251Y561500D01*
X13442252Y561500D01*
X13442253Y561500D01*
X15005747Y561500D01*
X15005748Y561500D01*
X15005758Y561501D01*
X15064227Y573132D01*
X15064228Y573132D01*
X15064231Y573133D01*
X15064233Y573134D01*
X15130548Y617445D01*
X15130552Y617448D01*
X15174867Y683769D01*
X15186500Y742252D01*
X15186500Y742253D01*
X15801500Y742253D01*
X15801501Y742241D01*
X15813132Y683772D01*
X15813134Y683766D01*
X15857445Y617451D01*
X15857451Y617445D01*
X15923766Y573134D01*
X15923772Y573132D01*
X15982241Y561501D01*
X15982251Y561500D01*
X15982252Y561500D01*
X15982253Y561500D01*
X17545747Y561500D01*
X17545748Y561500D01*
X17545758Y561501D01*
X17604227Y573132D01*
X17604228Y573132D01*
X17604231Y573133D01*
X17604233Y573134D01*
X17670548Y617445D01*
X17670552Y617448D01*
X17714867Y683769D01*
X17726500Y742252D01*
X17726500Y742253D01*
X18341500Y742253D01*
X18341501Y742241D01*
X18353132Y683772D01*
X18353134Y683766D01*
X18397445Y617451D01*
X18397451Y617445D01*
X18463766Y573134D01*
X18463772Y573132D01*
X18522241Y561501D01*
X18522251Y561500D01*
X18522252Y561500D01*
X18522253Y561500D01*
X20085747Y561500D01*
X20085748Y561500D01*
X20085758Y561501D01*
X20144227Y573132D01*
X20144228Y573132D01*
X20144231Y573133D01*
X20144233Y573134D01*
X20210548Y617445D01*
X20210552Y617448D01*
X20254867Y683769D01*
X20266500Y742252D01*
X20266500Y1651001D01*
X20828000Y1651001D01*
X20828001Y1651000D01*
X21417056Y1651000D01*
X21395736Y1557593D01*
X21405749Y1423972D01*
X21416335Y1397000D01*
X20828002Y1397000D01*
X20828001Y1396998D01*
X20828001Y736977D01*
X20842736Y662895D01*
X20842737Y662892D01*
X20898874Y578878D01*
X20898878Y578874D01*
X20982893Y522736D01*
X21056980Y508000D01*
X21716999Y508000D01*
X21717000Y508001D01*
X21717000Y1098008D01*
X21777002Y1079500D01*
X21877312Y1079500D01*
X21971000Y1093621D01*
X21971000Y508000D01*
X22631013Y508000D01*
X22631022Y508001D01*
X22705104Y522736D01*
X22705107Y522737D01*
X22789121Y578874D01*
X22789125Y578878D01*
X22845263Y662893D01*
X22859999Y736980D01*
X22860000Y736983D01*
X22860000Y1396999D01*
X22859999Y1397000D01*
X22270944Y1397000D01*
X22292264Y1490407D01*
X22282251Y1624028D01*
X22271665Y1651000D01*
X22859998Y1651000D01*
X22859999Y1651001D01*
X22859999Y2311012D01*
X22859998Y2311022D01*
X22845263Y2385104D01*
X22845262Y2385107D01*
X22789125Y2469121D01*
X22789121Y2469125D01*
X22705106Y2525263D01*
X22631018Y2539999D01*
X21971001Y2539999D01*
X21971000Y2539998D01*
X21971000Y1949991D01*
X21910998Y1968500D01*
X21810688Y1968500D01*
X21717000Y1954378D01*
X21717000Y2539998D01*
X21716999Y2539999D01*
X21056988Y2539999D01*
X21056977Y2539998D01*
X20982895Y2525263D01*
X20982892Y2525262D01*
X20898878Y2469125D01*
X20898874Y2469121D01*
X20842736Y2385106D01*
X20828000Y2311019D01*
X20828000Y1651001D01*
X20266500Y1651001D01*
X20266500Y2305748D01*
X20254867Y2364231D01*
X20210552Y2430552D01*
X20144231Y2474867D01*
X20085748Y2486500D01*
X18522252Y2486500D01*
X18522246Y2486498D01*
X18522241Y2486498D01*
X18508231Y2483711D01*
X18463769Y2474867D01*
X18397448Y2430552D01*
X18397445Y2430548D01*
X18353134Y2364233D01*
X18353132Y2364227D01*
X18341501Y2305758D01*
X18341500Y2305746D01*
X18341500Y742253D01*
X17726500Y742253D01*
X17726500Y2305748D01*
X17714867Y2364231D01*
X17670552Y2430552D01*
X17604231Y2474867D01*
X17545748Y2486500D01*
X15982252Y2486500D01*
X15982246Y2486498D01*
X15982241Y2486498D01*
X15968231Y2483711D01*
X15923769Y2474867D01*
X15857448Y2430552D01*
X15857445Y2430548D01*
X15813134Y2364233D01*
X15813132Y2364227D01*
X15801501Y2305758D01*
X15801500Y2305746D01*
X15801500Y742253D01*
X15186500Y742253D01*
X15186500Y2305748D01*
X15174867Y2364231D01*
X15130552Y2430552D01*
X15064231Y2474867D01*
X15005748Y2486500D01*
X13442252Y2486500D01*
X13442246Y2486498D01*
X13442241Y2486498D01*
X13428231Y2483711D01*
X13383769Y2474867D01*
X13317448Y2430552D01*
X13317445Y2430548D01*
X13273134Y2364233D01*
X13273132Y2364227D01*
X13261501Y2305758D01*
X13261500Y2305746D01*
X13261500Y742253D01*
X12700000Y742253D01*
X12700000Y1396999D01*
X12699999Y1397000D01*
X12110944Y1397000D01*
X12132264Y1490407D01*
X12122251Y1624028D01*
X12111665Y1651000D01*
X12699998Y1651000D01*
X12699999Y1651001D01*
X12699999Y2311012D01*
X12699998Y2311022D01*
X12685263Y2385104D01*
X12685262Y2385107D01*
X12629125Y2469121D01*
X12629121Y2469125D01*
X12545106Y2525263D01*
X12471018Y2539999D01*
X11811001Y2539999D01*
X11811000Y2539998D01*
X11811000Y1949991D01*
X11750998Y1968500D01*
X11650688Y1968500D01*
X11557000Y1954378D01*
X11557000Y2539998D01*
X11556999Y2539999D01*
X10896988Y2539999D01*
X10896977Y2539998D01*
X10822895Y2525263D01*
X10822892Y2525262D01*
X10738878Y2469125D01*
X10738874Y2469121D01*
X10682736Y2385106D01*
X10668000Y2311019D01*
X10668000Y1651001D01*
X9652000Y1651001D01*
X9652000Y4626500D01*
X9670907Y4684691D01*
X9720407Y4720655D01*
X9751000Y4725500D01*
X65586500Y4725500D01*
X65644691Y4706593D01*
G37*
%TD.AperFunction*%
%TD*%
%TA.AperFunction,Conductor*%
%TO.N,GNDPWR*%
G36*
X8341191Y4706593D02*
G01*
X8377155Y4657093D01*
X8382000Y4626500D01*
X8381999Y-9055902D01*
X8363092Y-9114093D01*
X8317596Y-9148660D01*
X8117661Y-9223231D01*
X8117659Y-9223232D01*
X7872786Y-9356943D01*
X7649437Y-9524140D01*
X7452140Y-9721437D01*
X7284943Y-9944786D01*
X7151232Y-10189659D01*
X7151231Y-10189661D01*
X7053730Y-10451072D01*
X6994421Y-10723711D01*
X6974518Y-11002000D01*
X6994421Y-11280288D01*
X7053730Y-11552927D01*
X7151231Y-11814338D01*
X7151232Y-11814340D01*
X7284944Y-12059213D01*
X7284943Y-12059213D01*
X7452140Y-12282562D01*
X7452141Y-12282563D01*
X7452145Y-12282568D01*
X7649432Y-12479855D01*
X7698022Y-12516229D01*
X7733275Y-12566235D01*
X7732403Y-12627415D01*
X7708698Y-12665486D01*
X6679682Y-13694504D01*
X6625165Y-13722281D01*
X6609678Y-13723500D01*
X621772Y-13723500D01*
X563581Y-13704593D01*
X561506Y-13703043D01*
X556842Y-13699464D01*
X556838Y-13699462D01*
X410766Y-13638957D01*
X410758Y-13638955D01*
X254001Y-13618318D01*
X253999Y-13618318D01*
X97241Y-13638955D01*
X97233Y-13638957D01*
X-48838Y-13699462D01*
X-48839Y-13699462D01*
X-174276Y-13795713D01*
X-174277Y-13795714D01*
X-174282Y-13795718D01*
X-174285Y-13795722D01*
X-174286Y-13795723D01*
X-270537Y-13921160D01*
X-270537Y-13921161D01*
X-331044Y-14067238D01*
X-351682Y-14224000D01*
X-331044Y-14380762D01*
X-270536Y-14526841D01*
X-174282Y-14652282D01*
X-48841Y-14748536D01*
X82734Y-14803036D01*
X129260Y-14842772D01*
X143544Y-14902267D01*
X120129Y-14958795D01*
X67961Y-14990765D01*
X44849Y-14993500D01*
X-648228Y-14993500D01*
X-706419Y-14974593D01*
X-708494Y-14973043D01*
X-713157Y-14969464D01*
X-713161Y-14969462D01*
X-859233Y-14908957D01*
X-859241Y-14908955D01*
X-1015999Y-14888318D01*
X-1016001Y-14888318D01*
X-1172758Y-14908955D01*
X-1172766Y-14908957D01*
X-1318838Y-14969462D01*
X-1318839Y-14969462D01*
X-1444276Y-15065713D01*
X-1444277Y-15065714D01*
X-1444282Y-15065718D01*
X-1444285Y-15065722D01*
X-1444286Y-15065723D01*
X-1540537Y-15191160D01*
X-1540537Y-15191161D01*
X-1601044Y-15337238D01*
X-1621682Y-15494000D01*
X-1601044Y-15650762D01*
X-1540536Y-15796841D01*
X-1444282Y-15922282D01*
X-1318841Y-16018536D01*
X-1172762Y-16079044D01*
X-1047352Y-16095554D01*
X-1016001Y-16099682D01*
X-1016000Y-16099682D01*
X-1015999Y-16099682D01*
X-976809Y-16094522D01*
X-859238Y-16079044D01*
X-713159Y-16018536D01*
X-713157Y-16018535D01*
X-708494Y-16014957D01*
X-650818Y-15994534D01*
X-648228Y-15994500D01*
X9587544Y-15994500D01*
X9608590Y-15996763D01*
X9609830Y-15997032D01*
X9615927Y-15998359D01*
X9663412Y-15994962D01*
X9668119Y-15994626D01*
X9671652Y-15994500D01*
X9687799Y-15994500D01*
X9703799Y-15992199D01*
X9707272Y-15991824D01*
X9759483Y-15988091D01*
X9766515Y-15985467D01*
X9787022Y-15980233D01*
X9794457Y-15979165D01*
X9842049Y-15957429D01*
X9845295Y-15956084D01*
X9894331Y-15937796D01*
X9900341Y-15933296D01*
X9918549Y-15922492D01*
X9925373Y-15919377D01*
X9964917Y-15885110D01*
X9967642Y-15882914D01*
X9980593Y-15873221D01*
X9992042Y-15861770D01*
X9994579Y-15859408D01*
X10034143Y-15825128D01*
X10038202Y-15818811D01*
X10051477Y-15802335D01*
X13040178Y-12813634D01*
X13094693Y-12785859D01*
X13144777Y-12790882D01*
X13379072Y-12878269D01*
X13379077Y-12878271D01*
X13651706Y-12937578D01*
X13930000Y-12957482D01*
X14208294Y-12937578D01*
X14480923Y-12878271D01*
X14742337Y-12780769D01*
X14987213Y-12647056D01*
X15210568Y-12479855D01*
X15407855Y-12282568D01*
X15569746Y-12066305D01*
X15619755Y-12031052D01*
X15680934Y-12031926D01*
X15729915Y-12068593D01*
X15748000Y-12125634D01*
X15748000Y-18542000D01*
X18443000Y-18542000D01*
X18501191Y-18560907D01*
X18537155Y-18610407D01*
X18542000Y-18641000D01*
X18542000Y-24946500D01*
X18523093Y-25004691D01*
X18473593Y-25040655D01*
X18443000Y-25045500D01*
X-4626500Y-25045500D01*
X-4684691Y-25026593D01*
X-4720655Y-24977093D01*
X-4725500Y-24946500D01*
X-4725500Y-20320000D01*
X-4005325Y-20320000D01*
X-3986038Y-20712591D01*
X-3928364Y-21101400D01*
X-3832857Y-21482684D01*
X-3700438Y-21852772D01*
X-3647772Y-21964124D01*
X-3532378Y-22208103D01*
X-3330312Y-22545229D01*
X-3330306Y-22545239D01*
X-3096158Y-22860951D01*
X-2832192Y-23152192D01*
X-2540951Y-23416158D01*
X-2225239Y-23650306D01*
X-2225229Y-23650311D01*
X-2225229Y-23650312D01*
X-1888103Y-23852378D01*
X-1888098Y-23852380D01*
X-1888097Y-23852381D01*
X-1532772Y-24020438D01*
X-1162684Y-24152857D01*
X-1162681Y-24152858D01*
X-781399Y-24248364D01*
X-781400Y-24248364D01*
X-392591Y-24306038D01*
X0Y-24325325D01*
X392591Y-24306038D01*
X781400Y-24248364D01*
X1162681Y-24152858D01*
X1162684Y-24152857D01*
X1532772Y-24020438D01*
X1888097Y-23852381D01*
X1888098Y-23852380D01*
X1888103Y-23852378D01*
X2225229Y-23650312D01*
X2225229Y-23650311D01*
X2225239Y-23650306D01*
X2540951Y-23416158D01*
X2832192Y-23152192D01*
X3096158Y-22860951D01*
X3330306Y-22545239D01*
X3330312Y-22545229D01*
X3532378Y-22208103D01*
X3647772Y-21964124D01*
X3700438Y-21852772D01*
X3832857Y-21482684D01*
X3928364Y-21101400D01*
X3943109Y-21002000D01*
X4724357Y-21002000D01*
X4744885Y-21223536D01*
X4805771Y-21437528D01*
X4904942Y-21636689D01*
X5039019Y-21814236D01*
X5203438Y-21964124D01*
X5392599Y-22081247D01*
X5600060Y-22161618D01*
X5818757Y-22202500D01*
X6041243Y-22202500D01*
X6259940Y-22161618D01*
X6467401Y-22081247D01*
X6656562Y-21964124D01*
X6820981Y-21814236D01*
X6955058Y-21636689D01*
X7054229Y-21437528D01*
X7115115Y-21223536D01*
X7135643Y-21002000D01*
X15724357Y-21002000D01*
X15744885Y-21223536D01*
X15805771Y-21437528D01*
X15904942Y-21636689D01*
X16039019Y-21814236D01*
X16203438Y-21964124D01*
X16392599Y-22081247D01*
X16600060Y-22161618D01*
X16818757Y-22202500D01*
X17041243Y-22202500D01*
X17259940Y-22161618D01*
X17467401Y-22081247D01*
X17656562Y-21964124D01*
X17820981Y-21814236D01*
X17955058Y-21636689D01*
X18054229Y-21437528D01*
X18115115Y-21223536D01*
X18135643Y-21002000D01*
X18115115Y-20780464D01*
X18054229Y-20566472D01*
X17955058Y-20367311D01*
X17820981Y-20189764D01*
X17656562Y-20039876D01*
X17467401Y-19922753D01*
X17259940Y-19842382D01*
X17259939Y-19842381D01*
X17259937Y-19842381D01*
X17041243Y-19801500D01*
X16818757Y-19801500D01*
X16600062Y-19842381D01*
X16523797Y-19871926D01*
X16392599Y-19922753D01*
X16203437Y-20039875D01*
X16203438Y-20039876D01*
X16039020Y-20189763D01*
X15904943Y-20367309D01*
X15904938Y-20367318D01*
X15805772Y-20566469D01*
X15805771Y-20566472D01*
X15744885Y-20780464D01*
X15724357Y-21002000D01*
X7135643Y-21002000D01*
X7115115Y-20780464D01*
X7054229Y-20566472D01*
X6955058Y-20367311D01*
X6820981Y-20189764D01*
X6656562Y-20039876D01*
X6467401Y-19922753D01*
X6259940Y-19842382D01*
X6259939Y-19842381D01*
X6259937Y-19842381D01*
X6041243Y-19801500D01*
X5818757Y-19801500D01*
X5600062Y-19842381D01*
X5523797Y-19871926D01*
X5392599Y-19922753D01*
X5203437Y-20039875D01*
X5203438Y-20039876D01*
X5039020Y-20189763D01*
X4904943Y-20367309D01*
X4904938Y-20367318D01*
X4805772Y-20566469D01*
X4805771Y-20566472D01*
X4744885Y-20780464D01*
X4724357Y-21002000D01*
X3943109Y-21002000D01*
X3986038Y-20712591D01*
X4005325Y-20320000D01*
X3986038Y-19927409D01*
X3928364Y-19538600D01*
X3832857Y-19157316D01*
X3700438Y-18787228D01*
X3532381Y-18431903D01*
X3532378Y-18431896D01*
X3330312Y-18094770D01*
X3330308Y-18094765D01*
X3330306Y-18094761D01*
X3096158Y-17779049D01*
X2832192Y-17487808D01*
X2540951Y-17223842D01*
X2225239Y-16989694D01*
X2225236Y-16989692D01*
X2225229Y-16989687D01*
X1888103Y-16787621D01*
X1532779Y-16619565D01*
X1532776Y-16619563D01*
X1532772Y-16619562D01*
X1415234Y-16577506D01*
X1162681Y-16487141D01*
X781400Y-16391635D01*
X392602Y-16333963D01*
X392595Y-16333962D01*
X392591Y-16333962D01*
X0Y-16314675D01*
X-392591Y-16333962D01*
X-392596Y-16333962D01*
X-392601Y-16333963D01*
X-392604Y-16333963D01*
X-781399Y-16391635D01*
X-781400Y-16391635D01*
X-1162681Y-16487141D01*
X-1415234Y-16577506D01*
X-1532772Y-16619562D01*
X-1532776Y-16619563D01*
X-1532779Y-16619565D01*
X-1888103Y-16787621D01*
X-2225229Y-16989687D01*
X-2225236Y-16989692D01*
X-2225239Y-16989694D01*
X-2540951Y-17223842D01*
X-2832192Y-17487808D01*
X-3096158Y-17779049D01*
X-3330306Y-18094761D01*
X-3330308Y-18094765D01*
X-3330312Y-18094770D01*
X-3532378Y-18431896D01*
X-3532381Y-18431903D01*
X-3700438Y-18787228D01*
X-3832857Y-19157316D01*
X-3928364Y-19538600D01*
X-3986038Y-19927409D01*
X-4005325Y-20320000D01*
X-4725500Y-20320000D01*
X-4725500Y-9144000D01*
X3458318Y-9144000D01*
X3478955Y-9300758D01*
X3478957Y-9300766D01*
X3539462Y-9446838D01*
X3539462Y-9446839D01*
X3598777Y-9524140D01*
X3635718Y-9572282D01*
X3761159Y-9668536D01*
X3907238Y-9729044D01*
X4024809Y-9744522D01*
X4063999Y-9749682D01*
X4064000Y-9749682D01*
X4064001Y-9749682D01*
X4095352Y-9745554D01*
X4220762Y-9729044D01*
X4366841Y-9668536D01*
X4492282Y-9572282D01*
X4539022Y-9511369D01*
X4560612Y-9483233D01*
X4611037Y-9448577D01*
X4639154Y-9444500D01*
X5266846Y-9444500D01*
X5325037Y-9463407D01*
X5345388Y-9483233D01*
X5376777Y-9524140D01*
X5413718Y-9572282D01*
X5539159Y-9668536D01*
X5685238Y-9729044D01*
X5802809Y-9744522D01*
X5841999Y-9749682D01*
X5842000Y-9749682D01*
X5842001Y-9749682D01*
X5873352Y-9745554D01*
X5998762Y-9729044D01*
X6144841Y-9668536D01*
X6270282Y-9572282D01*
X6366536Y-9446841D01*
X6427044Y-9300762D01*
X6447682Y-9144000D01*
X6427044Y-8987238D01*
X6366537Y-8841161D01*
X6366537Y-8841160D01*
X6270286Y-8715723D01*
X6270285Y-8715722D01*
X6270282Y-8715718D01*
X6270277Y-8715714D01*
X6270276Y-8715713D01*
X6144838Y-8619462D01*
X5998766Y-8558957D01*
X5998758Y-8558955D01*
X5842001Y-8538318D01*
X5841999Y-8538318D01*
X5685241Y-8558955D01*
X5685233Y-8558957D01*
X5539161Y-8619462D01*
X5539160Y-8619462D01*
X5413723Y-8715713D01*
X5413713Y-8715723D01*
X5345388Y-8804767D01*
X5294963Y-8839423D01*
X5266846Y-8843500D01*
X4639154Y-8843500D01*
X4580963Y-8824593D01*
X4560612Y-8804767D01*
X4492286Y-8715723D01*
X4492285Y-8715722D01*
X4492282Y-8715718D01*
X4492277Y-8715714D01*
X4492276Y-8715713D01*
X4366838Y-8619462D01*
X4220766Y-8558957D01*
X4220758Y-8558955D01*
X4064001Y-8538318D01*
X4063999Y-8538318D01*
X3907241Y-8558955D01*
X3907233Y-8558957D01*
X3761161Y-8619462D01*
X3761160Y-8619462D01*
X3635723Y-8715713D01*
X3635713Y-8715723D01*
X3539462Y-8841160D01*
X3539462Y-8841161D01*
X3478957Y-8987233D01*
X3478955Y-8987241D01*
X3458318Y-9143999D01*
X3458318Y-9144000D01*
X-4725500Y-9144000D01*
X-4725500Y0D01*
X-4005325Y0D01*
X-3986038Y-392591D01*
X-3928364Y-781400D01*
X-3832857Y-1162684D01*
X-3700438Y-1532772D01*
X-3532381Y-1888097D01*
X-3532378Y-1888103D01*
X-3478197Y-1978498D01*
X-3330306Y-2225239D01*
X-3096158Y-2540951D01*
X-2832192Y-2832192D01*
X-2540951Y-3096158D01*
X-2225239Y-3330306D01*
X-2225229Y-3330311D01*
X-2225229Y-3330312D01*
X-1888103Y-3532378D01*
X-1888098Y-3532380D01*
X-1888097Y-3532381D01*
X-1532772Y-3700438D01*
X-1162684Y-3832857D01*
X-1162681Y-3832858D01*
X-939432Y-3888779D01*
X-781400Y-3928364D01*
X-392591Y-3986038D01*
X0Y-4005325D01*
X392591Y-3986038D01*
X781400Y-3928364D01*
X1162681Y-3832858D01*
X1162684Y-3832857D01*
X1532772Y-3700438D01*
X1888097Y-3532381D01*
X1888098Y-3532380D01*
X1888103Y-3532378D01*
X2225229Y-3330312D01*
X2225229Y-3330311D01*
X2225239Y-3330306D01*
X2540951Y-3096158D01*
X2832192Y-2832192D01*
X3096158Y-2540951D01*
X3330306Y-2225239D01*
X3478197Y-1978498D01*
X3532378Y-1888103D01*
X3532381Y-1888097D01*
X3575114Y-1797746D01*
X4879500Y-1797746D01*
X4879501Y-1797758D01*
X4891132Y-1856227D01*
X4891134Y-1856233D01*
X4935445Y-1922548D01*
X4935448Y-1922552D01*
X5001769Y-1966867D01*
X5046231Y-1975711D01*
X5060241Y-1978498D01*
X5060246Y-1978498D01*
X5060252Y-1978500D01*
X5060253Y-1978500D01*
X6623747Y-1978500D01*
X6623748Y-1978500D01*
X6682231Y-1966867D01*
X6748552Y-1922552D01*
X6792867Y-1856231D01*
X6804500Y-1797748D01*
X6804500Y-234252D01*
X6792867Y-175769D01*
X6748552Y-109448D01*
X6748548Y-109445D01*
X6682233Y-65134D01*
X6682231Y-65133D01*
X6682228Y-65132D01*
X6682227Y-65132D01*
X6623758Y-53501D01*
X6623748Y-53500D01*
X5060252Y-53500D01*
X5060251Y-53500D01*
X5060241Y-53501D01*
X5001772Y-65132D01*
X5001766Y-65134D01*
X4935451Y-109445D01*
X4935445Y-109451D01*
X4891134Y-175766D01*
X4891132Y-175772D01*
X4879501Y-234241D01*
X4879500Y-234253D01*
X4879500Y-1797746D01*
X3575114Y-1797746D01*
X3700438Y-1532772D01*
X3832857Y-1162684D01*
X3928364Y-781400D01*
X3986038Y-392591D01*
X4005325Y0D01*
X3986038Y392591D01*
X3928364Y781400D01*
X3849949Y1094450D01*
X3832858Y1162681D01*
X3803859Y1243728D01*
X3700438Y1532772D01*
X3644520Y1651000D01*
X4826000Y1651000D01*
X5415056Y1651000D01*
X5393736Y1557593D01*
X5403749Y1423972D01*
X5414335Y1397000D01*
X4826002Y1397000D01*
X4826001Y1396998D01*
X4826001Y736977D01*
X4840736Y662895D01*
X4840737Y662892D01*
X4896874Y578878D01*
X4896878Y578874D01*
X4980893Y522736D01*
X5054980Y508000D01*
X5714999Y508000D01*
X5715000Y508001D01*
X5715000Y1098008D01*
X5775002Y1079500D01*
X5875312Y1079500D01*
X5969000Y1093621D01*
X5969000Y508000D01*
X6629013Y508000D01*
X6629022Y508001D01*
X6703104Y522736D01*
X6703107Y522737D01*
X6787121Y578874D01*
X6787125Y578878D01*
X6843263Y662893D01*
X6857999Y736980D01*
X6858000Y736983D01*
X6858000Y1396998D01*
X6857999Y1397000D01*
X6268944Y1397000D01*
X6290264Y1490407D01*
X6280251Y1624028D01*
X6269665Y1651000D01*
X6857998Y1651000D01*
X6857999Y1651001D01*
X6857999Y2311012D01*
X6857998Y2311022D01*
X6843263Y2385104D01*
X6843262Y2385107D01*
X6787125Y2469121D01*
X6787121Y2469125D01*
X6703106Y2525263D01*
X6629018Y2539999D01*
X5969001Y2539999D01*
X5969000Y2539998D01*
X5969000Y1949991D01*
X5908998Y1968500D01*
X5808688Y1968500D01*
X5715000Y1954378D01*
X5715000Y2539998D01*
X5714999Y2539999D01*
X5054988Y2539999D01*
X5054977Y2539998D01*
X4980895Y2525263D01*
X4980892Y2525262D01*
X4896878Y2469125D01*
X4896874Y2469121D01*
X4840736Y2385106D01*
X4826000Y2311019D01*
X4826000Y1651000D01*
X3644520Y1651000D01*
X3532381Y1888097D01*
X3532380Y1888098D01*
X3532378Y1888103D01*
X3330312Y2225229D01*
X3330311Y2225229D01*
X3330306Y2225239D01*
X3096158Y2540951D01*
X2832192Y2832192D01*
X2540951Y3096158D01*
X2225239Y3330306D01*
X2011664Y3458318D01*
X1888103Y3532378D01*
X1873121Y3539464D01*
X1532772Y3700438D01*
X1162684Y3832857D01*
X1162683Y3832857D01*
X1162681Y3832858D01*
X781400Y3928364D01*
X392591Y3986038D01*
X0Y4005325D01*
X-392591Y3986038D01*
X-781400Y3928364D01*
X-1162681Y3832858D01*
X-1162683Y3832857D01*
X-1162684Y3832857D01*
X-1532772Y3700438D01*
X-1873121Y3539464D01*
X-1888103Y3532378D01*
X-2011664Y3458318D01*
X-2225239Y3330306D01*
X-2540951Y3096158D01*
X-2832192Y2832192D01*
X-3096158Y2540951D01*
X-3330306Y2225239D01*
X-3330311Y2225229D01*
X-3330312Y2225229D01*
X-3532378Y1888103D01*
X-3532380Y1888098D01*
X-3532381Y1888097D01*
X-3700438Y1532772D01*
X-3803859Y1243728D01*
X-3832858Y1162681D01*
X-3849949Y1094450D01*
X-3928364Y781400D01*
X-3986038Y392591D01*
X-4005325Y0D01*
X-4725500Y0D01*
X-4725500Y4626500D01*
X-4706593Y4684691D01*
X-4657093Y4720655D01*
X-4626500Y4725500D01*
X8283000Y4725500D01*
X8341191Y4706593D01*
G37*
%TD.AperFunction*%
%TD*%
M02*
